<svg id="レイヤー_1" data-name="レイヤー 1" xmlns="http://www.w3.org/2000/svg" width="120" height="40" viewBox="0 0 120 40">
  <defs>
    <style>
      .cls-1 {
        fill: none;
      }

      .cls-2 {
        fill: #c00;
      }
    </style>
  </defs>
  <title>canon_logo</title>
  <g>
    <rect class="cls-1" width="120" height="40"/>
    <g>
      <path class="cls-2" d="M32.8,24.8a8.39,8.39,0,0,1-6.9,3.6,8.5,8.5,0,0,1,0-17,8.74,8.74,0,0,1,4.5,1.3L25.9,20l8.4-4.9a11.74,11.74,0,0,0-5.7-4.6,16.91,16.91,0,0,0-12,0A11.38,11.38,0,0,0,11.7,14a9.5,9.5,0,0,0-2.1,6,9.72,9.72,0,0,0,2.1,6,11.38,11.38,0,0,0,4.9,3.5,17.25,17.25,0,0,0,6,1.1,24.53,24.53,0,0,0,3.9-.4,13.41,13.41,0,0,0,6.7-3.9Z"/>
      <path class="cls-2" d="M68.3,13.1a2.77,2.77,0,0,0-1.3.3l-4.9,2.3a3,3,0,0,0-3-2.6,2.77,2.77,0,0,0-1.3.3l-6,2.8H56V30h6.2V17.7a1.5,1.5,0,1,1,3,0V30h6.2V16.2A3.12,3.12,0,0,0,68.3,13.1Z"/>
      <path class="cls-2" d="M106.9,13.1a2.77,2.77,0,0,0-1.3.3l-4.9,2.3a3,3,0,0,0-3-2.6,2.77,2.77,0,0,0-1.3.3l-6,2.8h4.2V30h6.2V17.7a1.5,1.5,0,1,1,3,0V30H110V16.2A3.12,3.12,0,0,0,106.9,13.1Z"/>
      <path class="cls-2" d="M82.7,13.1a8.7,8.7,0,1,0,8.7,8.7A8.71,8.71,0,0,0,82.7,13.1Zm2,16.1a1.94,1.94,0,0,1-2.4-1.4l-3-11.1a2,2,0,0,1,3.8-1l3,11.1A2.06,2.06,0,0,1,84.7,29.2Z"/>
      <path class="cls-2" d="M46.2,24.9a3.1,3.1,0,1,1-3.1-3.1A3.12,3.12,0,0,1,46.2,24.9ZM47.7,30h6.2L50.4,16.8a5,5,0,0,0-4.8-3.7,4.67,4.67,0,0,0-1.7.3l-7.6,2.8H44l1.3,5a7.56,7.56,0,0,0-4.9-1.8,8,8,0,0,0-3.8,1,7,7,0,0,0-2.2,2,4.81,4.81,0,0,0,0,5,4.73,4.73,0,0,0,2.2,2,8,8,0,0,0,3.8,1,7.86,7.86,0,0,0,6.4-3.3Z"/>
    </g>
    <g>
      <rect class="cls-1" x="10" y="10" width="100" height="20"/>
      <line class="cls-1" x1="10" y1="20" x2="110" y2="20"/>
      <line class="cls-1" x1="60" y1="10" x2="60" y2="30"/>
    </g>
  </g>
</svg>
