<?xml version="1.0" encoding="utf-8"?>
<!-- Generator: Adobe Illustrator 23.0.3, SVG Export Plug-In . SVG Version: 6.00 Build 0)  -->
<svg version="1.1" id="common_x5F_search" xmlns="http://www.w3.org/2000/svg" xmlns:xlink="http://www.w3.org/1999/xlink" x="0px"
	 y="0px" viewBox="0 0 44 44" style="enable-background:new 0 0 44 44;" xml:space="preserve">
<path id="icon_88_" style="fill:#AAAAAA;" d="M30.706,28.585l-3.951-3.951C27.54,23.448,28,22.029,28,20.5
	c0-4.142-3.358-7.5-7.5-7.5S13,16.358,13,20.5s3.358,7.5,7.5,7.5c1.528,0,2.948-0.46,4.134-1.245l3.951,3.951
	c0.391,0.391,1.024,0.391,1.414,0l0.707-0.707C31.097,29.609,31.097,28.976,30.706,28.585z M20.5,25c-2.481,0-4.5-2.019-4.5-4.5
	s2.019-4.5,4.5-4.5s4.5,2.019,4.5,4.5S22.981,25,20.5,25z"/>
</svg>
