<?xml version="1.0" encoding="utf-8"?>
<!-- Generator: Adobe Illustrator 25.2.1, SVG Export Plug-In . SVG Version: 6.00 Build 0)  -->
<svg version="1.0" id="common_x5F_equipmentgadget" xmlns="http://www.w3.org/2000/svg" xmlns:xlink="http://www.w3.org/1999/xlink"
	 x="0px" y="0px" width="80px" height="80px" viewBox="0 0 80 80" style="enable-background:new 0 0 80 80;" xml:space="preserve">
<style type="text/css">
	.st0{fill:#4B4B4B;}
	.st1{fill:#FFFFFF;}
</style>
<g>
	<rect x="9.4" y="23.5" class="st0" width="30.9" height="23.7"/>
	<polygon class="st0" points="14.3,45.7 14.3,62.4 17.2,66.5 32.2,66.5 34.8,62.4 34.8,45.7 	"/>
	<g>
		<path class="st1" d="M35.5,42.3H14.3c-1.6,0-2.9-1.3-2.9-2.9v-9.3c0-1.6,1.3-2.9,2.9-2.9h21.2c1.6,0,2.9,1.3,2.9,2.9v9.3
			C38.4,41,37.1,42.3,35.5,42.3z"/>
	</g>
</g>
<g id="icon_2_">
	<g>
		<path class="st0" d="M69.7,53.1V25.8c0-5.3-4.3-9.5-9.5-9.5s-9.5,4.3-9.5,9.5v10.6H48c-1.5,0-2.7,1.2-2.7,2.7v26.2
			c0,1.5,1.2,2.7,2.7,2.7h8.2c1.5,0,2.7-1.2,2.7-2.7V39.1c0-1.5-1.2-2.7-2.7-2.7h-2.7V25.8c0-3.8,3.1-6.8,6.8-6.8s6.8,3.1,6.8,6.8
			v27.2c-0.8,0-1.4,0.6-1.4,1.4v4.1c0,0.8,0.6,1.4,1.4,1.4h2.7c0.8,0,1.4-0.6,1.4-1.4v-4.1C71.1,53.7,70.5,53.1,69.7,53.1z
			 M54.8,43.8c0,1.5-1.2,2.7-2.7,2.7c-1.5,0-2.7-1.2-2.7-2.7c0-1.5,1.2-2.7,2.7-2.7C53.5,41.1,54.8,42.3,54.8,43.8z"/>
		<g>
			<circle class="st1" cx="52" cy="43.8" r="2.7"/>
		</g>
	</g>
</g>
</svg>
