<?xml version="1.0" encoding="utf-8"?>
<!-- Generator: Adobe Illustrator 25.2.1, SVG Export Plug-In . SVG Version: 6.00 Build 0)  -->
<svg version="1.0" id="common_x5F_hint" xmlns="http://www.w3.org/2000/svg" xmlns:xlink="http://www.w3.org/1999/xlink" x="0px"
	 y="0px" width="80px" height="80px" viewBox="0 0 80 80" style="enable-background:new 0 0 80 80;" xml:space="preserve">
<style type="text/css">
	.st0{fill:#FFFFFF;stroke:#FFFFFF;stroke-width:0.24;stroke-miterlimit:10;}
	.st1{fill:#4B4B4B;}
</style>
<g>
	<g>
		<path class="st0" d="M48.6,54.8c4.4-7,8.1-13.6,8.1-18.2c0-9.3-7.5-16.9-16.7-16.9s-16.7,7.6-16.7,16.9c0,4.6,3.7,11.2,8.1,18.2
			c-0.2,0.2-0.4,0.5-0.4,0.9v5.6c0,0.6,0.5,1.1,1.1,1.2v3.3c0,0.7,0.5,1.2,1.2,1.2h3.2v3.3c0,0.7,0.5,1.2,1.2,1.2h4.4
			c0.7,0,1.2-0.5,1.2-1.2v-3.3h3.2c0.7,0,1.2-0.5,1.2-1.2v-3.3c0.6-0.1,1.1-0.6,1.1-1.2v-5.6C49,55.3,48.8,55,48.6,54.8z"/>
		<g>
			<path class="st1" d="M46.6,56.9H33.4c-0.4,0-0.8-0.2-1-0.6c-4.8-7.6-9.1-14.7-9.1-19.7c0-9.3,7.5-16.9,16.7-16.9
				s16.7,7.6,16.7,16.9c0,4.9-4.3,12.1-9.1,19.7C47.4,56.6,47,56.9,46.6,56.9z M34,54.4h11.9c3.5-5.5,8.3-13.3,8.3-17.8
				c0-8-6.4-14.5-14.3-14.5s-14.3,6.5-14.3,14.5C25.7,41.1,30.6,49,34,54.4z"/>
		</g>
		<path class="st1" d="M46.6,66.9H33.4c-0.7,0-1.2-0.5-1.2-1.2v-4.5c0-0.7,0.5-1.2,1.2-1.2h13.3c0.7,0,1.2,0.5,1.2,1.2v4.5
			C47.8,66.4,47.3,66.9,46.6,66.9z M34.6,64.5h10.9v-2.1H34.6V64.5z"/>
		<path class="st1" d="M42.2,71.4h-4.4c-0.7,0-1.2-0.5-1.2-1.2v-3.4c0-0.7,0.5-1.2,1.2-1.2h4.4c0.7,0,1.2,0.5,1.2,1.2v3.4
			C43.4,70.9,42.9,71.4,42.2,71.4z M39,69h2v-0.9h-2V69z"/>
		<path class="st1" d="M47.7,62.5H32.3c-0.7,0-1.2-0.5-1.2-1.2v-5.6c0-0.7,0.5-1.2,1.2-1.2h15.5c0.7,0,1.2,0.5,1.2,1.2v5.6
			C49,61.9,48.4,62.5,47.7,62.5z M33.5,60h13.1v-3.2H33.5V60z"/>
		<path class="st1" d="M40,14c-0.7,0-1.3-0.6-1.3-1.3V5.4c0-0.7,0.6-1.3,1.3-1.3s1.3,0.6,1.3,1.3v7.3C41.3,13.4,40.7,14,40,14z"/>
		<path class="st1" d="M18.5,35.8h-7.2c-0.7,0-1.3-0.6-1.3-1.3s0.6-1.3,1.3-1.3h7.2c0.7,0,1.3,0.6,1.3,1.3S19.2,35.8,18.5,35.8z"/>
		<path class="st1" d="M68.7,35.8h-7.2c-0.7,0-1.3-0.6-1.3-1.3s0.6-1.3,1.3-1.3h7.2c0.7,0,1.3,0.6,1.3,1.3S69.4,35.8,68.7,35.8z"/>
		<path class="st1" d="M23.3,21.2c-0.3,0-0.7-0.1-0.9-0.4L17.6,16c-0.5-0.5-0.5-1.3,0-1.8c0.5-0.5,1.3-0.5,1.8,0l4.8,4.8
			c0.5,0.5,0.5,1.3,0,1.8C23.9,21.1,23.6,21.2,23.3,21.2z"/>
		<path class="st1" d="M56.7,21.2c-0.3,0-0.7-0.1-0.9-0.4c-0.5-0.5-0.5-1.3,0-1.8l4.8-4.8c0.5-0.5,1.3-0.5,1.8,0
			c0.5,0.5,0.5,1.3,0,1.8l-4.8,4.8C57.4,21.1,57.1,21.2,56.7,21.2z"/>
	</g>
</g>
</svg>
