<svg id="レイヤー_1" data-name="レイヤー 1" xmlns="http://www.w3.org/2000/svg" width="46" height="46" viewBox="0 0 46 46">
  <defs>
    <style>
      .cls-1 {
        fill: none;
      }
    </style>
  </defs>
  <title>home-button_hov</title>
  <g>
    <polygon points="13.25 25.35 13.25 34.96 19.87 34.96 19.87 27.25 26.13 27.25 26.13 34.96 32.75 34.96 32.75 25.35 23 15.37 13.25 25.35"/>
    <path d="M23,2A21,21,0,1,0,44,23,21,21,0,0,0,23,2ZM35.24,24.83V36.21A1.25,1.25,0,0,1,34,37.46H12a1.25,1.25,0,0,1-1.25-1.25V18.68a1.25,1.25,0,0,1,.36-0.91L22.09,6.57a1.29,1.29,0,0,1,1.82,0h0l11,11.24a1.25,1.25,0,0,1,.36.91v6.11h0Z"/>
  </g>
  <rect class="cls-1" width="46" height="46"/>
</svg>
