<svg id="レイヤー_1" data-name="レイヤー 1" xmlns="http://www.w3.org/2000/svg" width="46" height="46" viewBox="0 0 46 46">
  <defs>
    <style>
      .cls-1 {
        fill: none;
      }
    </style>
  </defs>
  <title>home-button</title>
  <g>
    <path d="M34.87,17.8l-11-11.24a1.29,1.29,0,0,0-1.82,0h0l-11,11.24a1.25,1.25,0,0,0-.36.91V36.25A1.25,1.25,0,0,0,12,37.46H34a1.25,1.25,0,0,0,1.25-1.25V18.68A1.25,1.25,0,0,0,34.87,17.8ZM32.75,35H26.13V27.25H19.87V35H13.25V25.35l9.75-10,9.75,10V35Z"/>
    <path d="M23,3.83A19.17,19.17,0,1,1,3.83,23,19.17,19.17,0,0,1,23,3.83M23,2A21,21,0,1,0,44,23,21,21,0,0,0,23,2h0Z"/>
  </g>
  <rect class="cls-1" width="46" height="46"/>
</svg>
