<svg xmlns="http://www.w3.org/2000/svg" width="27" height="16" viewBox="0 0 27 16">
  <defs>
    <style>
      .cls-1 {
        fill: none;
      }
    </style>
  </defs>
  <g id="base">
    <rect class="cls-1" width="27" height="16"/>
  </g>
  <g id="icon">
    <path d="M24.75.5H2.25A1.87,1.87,0,0,0,.38,2.38V13.62A1.87,1.87,0,0,0,2.25,15.5h22.5a1.87,1.87,0,0,0,1.87-1.88V2.38A1.87,1.87,0,0,0,24.75.5ZM11,8.73H7.92V7.37H11ZM4.12,2.81v8.88h3.4v1.52H2.25V2.81Zm8.75,0H18V4.24H14.74v3H17.8V8.66H14.74v4.55H12.87Zm10,2.2a3.44,3.44,0,0,1,1,.15,2,2,0,0,1,.8.48,2.31,2.31,0,0,1,.52.85,3.91,3.91,0,0,1,.19,1.27v5.45H23.59V8.34A3.14,3.14,0,0,0,23.37,7a.77.77,0,0,0-.77-.44,1.38,1.38,0,0,0-.59.11,1.06,1.06,0,0,0-.44.35,1.67,1.67,0,0,0-.28.6,3.62,3.62,0,0,0-.1.88v4.73H19.41V5.14h1.73V6c.1-.12.2-.24.32-.36a1.91,1.91,0,0,1,.38-.31,1.78,1.78,0,0,1,.46-.22A1.55,1.55,0,0,1,22.83,5Z"/>
  </g>
</svg>
