<?xml version="1.0" encoding="utf-8"?>
<!-- Generator: Adobe Illustrator 23.0.3, SVG Export Plug-In . SVG Version: 6.00 Build 0)  -->
<svg version="1.1" id="レイヤー_1" xmlns="http://www.w3.org/2000/svg" xmlns:xlink="http://www.w3.org/1999/xlink" x="0px"
	 y="0px" width="17.01px" height="15.87px" viewBox="0 0 17.01 15.87" enable-background="new 0 0 17.01 15.87"
	 xml:space="preserve">
<g>
	<path fill="#040000" d="M8.02,10.83c0,1.31-0.39,2.33-1.17,3.04c-0.71,0.65-1.68,0.98-2.9,0.98c-1.26,0-2.18-0.2-2.77-0.59
		L1.3,12.1c0.78,0.54,1.64,0.82,2.58,0.82c0.53,0,0.97-0.17,1.31-0.5c0.35-0.33,0.53-0.82,0.53-1.46c0-0.44-0.13-0.81-0.38-1.12
		C5.23,9.71,5.08,9.57,4.88,9.42c-0.2-0.15-0.45-0.31-0.74-0.5l-1.12-0.7c-1.32-0.82-1.98-2-1.98-3.54c0-1.14,0.38-2.05,1.15-2.72
		C2.9,1.34,3.79,1.02,4.87,1.02c0.69,0,1.54,0.16,2.53,0.48L7.3,3.57C6.42,3.2,5.65,3.01,5,3.01c-0.53,0-0.94,0.14-1.23,0.43
		c-0.3,0.29-0.45,0.67-0.45,1.14c0,0.46,0.13,0.84,0.38,1.14c0.09,0.1,0.21,0.2,0.36,0.31C4.22,6.14,4.4,6.26,4.62,6.4l1.3,0.8
		c0.77,0.48,1.3,0.95,1.6,1.42C7.85,9.19,8.02,9.93,8.02,10.83z M15.98,14.69H9.1v-1.97l0.91-1.15c0.61-0.77,1.12-1.43,1.53-1.98
		s0.73-1.01,0.95-1.38c0.77-1.23,1.15-2.29,1.15-3.2c0-0.64-0.15-1.13-0.46-1.47c-0.31-0.35-0.71-0.53-1.2-0.53
		c-0.84,0-1.65,0.34-2.43,1.01L9.37,1.79c0.77-0.51,1.77-0.77,2.99-0.77c1.21,0,2.11,0.35,2.7,1.06c0.53,0.63,0.8,1.48,0.8,2.54
		c0,0.99-0.33,2.11-0.98,3.36c-0.65,1.25-1.62,2.66-2.9,4.22l-0.42,0.53h4.4V14.69z"/>
</g>
</svg>
