<svg id="レイヤー_1" data-name="レイヤー 1" xmlns="http://www.w3.org/2000/svg" width="16" height="16" viewBox="0 0 16 16">
  <defs>
    <style>
      .cls-1 {
        fill: none;
      }
    </style>
  </defs>
  <title>icon_type-of-file_2</title>
  <g>
    <path d="M8.38,1.68V1.91l0,0h1.81a0.62,0.62,0,0,1,.31.06,0.69,0.69,0,0,1,.24.16,0.71,0.71,0,0,1,.18.26,0.69,0.69,0,0,1,.06.31v4a0.68,0.68,0,0,1-.06.31,1,1,0,0,1-.18.26,1,1,0,0,1-.24.16,0.7,0.7,0,0,1-.31.06H2.83a0.69,0.69,0,0,1-.31-0.06,0.94,0.94,0,0,1-.24-0.16A1,1,0,0,1,2.1,7.07,0.68,0.68,0,0,1,2,6.76v-4A0.69,0.69,0,0,1,2.1,2.43a0.71,0.71,0,0,1,.18-0.26A0.69,0.69,0,0,1,2.52,2a0.62,0.62,0,0,1,.31-0.06H4.64l0,0V1.68a0.86,0.86,0,0,1,.13-0.42A2.28,2.28,0,0,1,5.13.87L5.3,0.73,5.51,0.6A0.77,0.77,0,0,1,5.84.5H7.2A0.55,0.55,0,0,1,7.5.61a1.8,1.8,0,0,1,.4.28,2,2,0,0,1,.32.37A0.79,0.79,0,0,1,8.38,1.68ZM6.5,6.42a1.82,1.82,0,0,0,.73-0.15l0.33-.17a0.75,0.75,0,0,0,.25-0.23A0.75,0.75,0,0,0,8,5.62a3.54,3.54,0,0,0,.17-0.33,1.78,1.78,0,0,0,.15-0.71,1.82,1.82,0,0,0-.15-0.73Q8.13,3.67,8,3.52a0.76,0.76,0,0,0-.23-0.25A0.76,0.76,0,0,0,7.56,3L7.23,2.86A1.82,1.82,0,0,0,6.5,2.72a1.78,1.78,0,0,0-.71.14,1.9,1.9,0,0,0-.6.4,1.84,1.84,0,0,0-.39.58,1.82,1.82,0,0,0-.15.73,1.78,1.78,0,0,0,.15.71,1.84,1.84,0,0,0,.39.58,1.9,1.9,0,0,0,.6.4A1.78,1.78,0,0,0,6.5,6.42Zm-0.62,2L7.57,9.1v2.17l-1.69.85V8.38Zm9.57,0.83V11.8a1.25,1.25,0,0,1-.08.33,0.69,0.69,0,0,1-.17.27,0.79,0.79,0,0,1-.27.17,0.69,0.69,0,0,1-.33.06H9.14a0.69,0.69,0,0,1-.33-0.06l-0.14-.08-0.13-.09a1,1,0,0,1-.19-0.27,0.75,0.75,0,0,1-.06-0.33V9.21a0.68,0.68,0,0,1,.06-0.33,0.78,0.78,0,0,1,.17-0.27l0.14-.1,0.14-.07a0.68,0.68,0,0,1,.33-0.06H14.6a0.68,0.68,0,0,1,.33.06,1.34,1.34,0,0,1,.27.17,0.69,0.69,0,0,1,.17.27A1.25,1.25,0,0,1,15.45,9.21Zm-4.28,4,0,0h-1L8.94,15,9.64,15.5Zm1.36,0,0,0h1L14.76,15l-0.69.46Z"/>
    <path d="M4.31,15.36H0.55V14.29l0.61-.64q0.41-.42.82-0.93a8,8,0,0,0,.72-1,2,2,0,0,0,.31-1A0.77,0.77,0,0,0,2.71,10a1,1,0,0,0-.64-0.21,1.56,1.56,0,0,0-.69.16,4.23,4.23,0,0,0-.61.36L0.69,9.27A3.8,3.8,0,0,1,1.5,8.93a3,3,0,0,1,.86-0.13,1.77,1.77,0,0,1,1.29.47,1.9,1.9,0,0,1,.48,1.42,2.65,2.65,0,0,1-.2,1,5.11,5.11,0,0,1-.51,1,8.61,8.61,0,0,1-.69.88L2,14.35h2.3v1Z"/>
  </g>
  <rect class="cls-1" width="16" height="16"/>
</svg>
