<?xml version="1.0" encoding="UTF-8"?>
<svg id="_レイヤー_1" xmlns="http://www.w3.org/2000/svg" width="57.49" height="17.69" version="1.1" viewBox="0 0 57.49 17.69">
  <!-- Generator: Adobe Illustrator 29.5.1, SVG Export Plug-In . SVG Version: 2.1.0 Build 141)  -->
  <defs>
    <style>
      .st0 {
        fill: #fff;
      }

      .st1 {
        fill: none;
      }
    </style>
  </defs>
  <path d="M53.75,13.2h-8.11v1.19h4.69v1.11h-12.8v-1.12h4.67v-1.18h-8.11V.5h19.66v12.7ZM52.14,11.57V2.11h-16.44v9.46s16.44,0,16.44,0Z"/>
  <rect class="st1" x="33.42" width="21" height="16"/>
  <g>
    <polygon class="st0" points="57.49 7.57 49.94 15.92 51.55 17.13 57.49 7.57"/>
    <polygon class="st0" points="46.89 13.22 51.08 17.69 52.32 16.05 46.89 13.22"/>
    <path d="M56.66,8.79c-2.21,2.5-4.42,4.99-6.64,7.49.41.38.82.76,1.23,1.14,0,0,5.41-8.63,5.41-8.63Z"/>
    <polygon points="47.26 13.5 51.14 17.36 52.02 16.2 47.26 13.5"/>
  </g>
  <path d="M25.65,13.79v-3.35h-3.38v-2.31h3.38v-3.35h2.25v3.35h3.38v2.31h-3.38v3.35h-2.25Z"/>
  <path d="M18.46,3.98c.4.17.71.48.88.88.09.2.13.41.13.63v8.89c0,.22-.04.43-.13.63-.17.4-.48.71-.88.88-.2.09-.41.13-.63.13H2.18c-.22,0-.44-.04-.64-.13-.2-.09-.39-.21-.54-.37-.14-.14-.25-.31-.33-.5-.09-.2-.13-.41-.13-.63V5.52c0-.23.04-.46.13-.67.17-.4.48-.71.88-.88.2-.09.42-.13.64-.13h3.54l1.27-2.18h0c.14-.28.38-.49.68-.58h.16l.16-.06h4c.2,0,.39.05.56.16.17.11.31.25.4.43h0l1.25,2.22h3.63c.21,0,.43.06.62.15ZM12.46,6.46H3.16v7h9.28v-7h.02Z"/>
  <rect class="st1" y=".52" width="20" height="16"/>
</svg>