<?xml version="1.0" encoding="utf-8"?>
<!-- Generator: Adobe Illustrator 23.0.3, SVG Export Plug-In . SVG Version: 6.00 Build 0)  -->
<svg version="1.1" id="レイヤー_1" xmlns="http://www.w3.org/2000/svg" xmlns:xlink="http://www.w3.org/1999/xlink" x="0px"
	 y="0px" width="41.1px" height="16px" viewBox="0 0 41.1 16" style="enable-background:new 0 0 41.1 16;" xml:space="preserve">
<style type="text/css">
	.st0{fill:none;}
</style>
<title>icon_func-exp</title>
<rect class="st0" width="41.1" height="16"/>
<g>
	<path d="M38.4,2.3H34v1.4h4.3V2.3z M40.5,12.3h-8.5v1.4h8.6L40.5,12.3L40.5,12.3z M38.4,7.3V5.1H34v2.2h-2.1l4.3,4.6l4.3-4.6
		L38.4,7.3L38.4,7.3z"/>
	<path d="M11.4,9.9L3,12.7L0.6,9.2l7.9-2.4L11.4,9.9z M3.5,11.3l5.8-1.9L8.1,8.2L2.5,9.9L3.5,11.3z M12,3.8L6.6,2.2l-3,1.8l5.6,1.8
		L12,3.8z M12.8,10.3l-0.5,5.2h6.8l-0.5-5.2L12.8,10.3L12.8,10.3z M18,3.5l-0.3-3h-4.1l-0.3,3H18z M22.2,5.8L27.7,4l-3-1.8l-5.4,1.7
		L22.2,5.8z M20.4,9.8l7.9,2.6l2.1-3.1L23,7.1L20.4,9.8z"/>
</g>
</svg>
