<svg id="レイヤー_1" data-name="レイヤー 1" xmlns="http://www.w3.org/2000/svg" width="19" height="16" viewBox="0 0 19 16">
  <defs>
    <style>
      .cls-1 {
        fill: none;
      }
    </style>
  </defs>
  <title>icon_metering-evaluative</title>
  <path d="M8.38,15.5H2a1.4,1.4,0,0,1-1-.43A1.45,1.45,0,0,1,.57,14V2A1.45,1.45,0,0,1,1,.93,1.4,1.4,0,0,1,2,.5H8.38V1.38H2a0.6,0.6,0,0,0-.6.6V14a0.6,0.6,0,0,0,.6.6H8.38V15.5Zm5.77-8.33H12.74a3.39,3.39,0,0,0-.46-1,3.45,3.45,0,0,0-.73-0.79,3.31,3.31,0,0,0-.94-0.52,3.22,3.22,0,0,0-1.08-.18,3.32,3.32,0,0,0-2,.7,3.42,3.42,0,0,0-.73.79,3.08,3.08,0,0,0-.44,1H4.86a4.54,4.54,0,0,1,.58-1.56,4.83,4.83,0,0,1,1-1.23,4.72,4.72,0,0,1,1.4-.81,4.66,4.66,0,0,1,1.64-.29,4.6,4.6,0,0,1,1.63.29,4.75,4.75,0,0,1,1.39.81,4.83,4.83,0,0,1,1,1.23A4.54,4.54,0,0,1,14.16,7.17Zm0,1.67a4.56,4.56,0,0,1-.58,1.56,4.83,4.83,0,0,1-1,1.23,4.78,4.78,0,0,1-1.39.81,4.6,4.6,0,0,1-1.63.29,4.66,4.66,0,0,1-1.64-.29,4.75,4.75,0,0,1-1.4-.81,4.83,4.83,0,0,1-1-1.23,4.56,4.56,0,0,1-.58-1.56H6.3a3.07,3.07,0,0,0,.44,1,3.43,3.43,0,0,0,.73.79,3.32,3.32,0,0,0,2,.7,3.22,3.22,0,0,0,1.08-.18,3.31,3.31,0,0,0,.94-0.52,3.46,3.46,0,0,0,.73-0.79,3.39,3.39,0,0,0,.46-1h1.42ZM11.92,8a2.34,2.34,0,0,1-.19.94,2.46,2.46,0,0,1-.52.77,2.41,2.41,0,0,1-.76.51,2.38,2.38,0,0,1-.93.18,2.44,2.44,0,0,1-.94-0.18,2.38,2.38,0,0,1-.77-0.51A2.33,2.33,0,0,1,7.3,8.95,2.43,2.43,0,0,1,7.11,8a2.36,2.36,0,0,1,.69-1.69A2.45,2.45,0,0,1,8.57,5.8a2.35,2.35,0,0,1,.94-0.19,2.29,2.29,0,0,1,.93.19,2.47,2.47,0,0,1,1.28,1.28A2.29,2.29,0,0,1,11.92,8Zm6.51,6A1.44,1.44,0,0,1,18,15.07a1.41,1.41,0,0,1-1,.43H10.62V14.61H17a0.6,0.6,0,0,0,.6-0.6V2a0.6,0.6,0,0,0-.6-0.6H10.62V0.5H17a1.4,1.4,0,0,1,1,.43A1.44,1.44,0,0,1,18.43,2V14Z"/>
  <rect class="cls-1" width="19" height="16"/>
</svg>
