<svg id="レイヤー_1" data-name="レイヤー 1" xmlns="http://www.w3.org/2000/svg" width="28" height="16" viewBox="0 0 28 16">
  <defs>
    <style>
      .cls-1 {
        fill: none;
      }
    </style>
  </defs>
  <title>icon_switch-af-point</title>
  <path d="M0.68,7.18v7.07H7.76V7.18H0.68Zm6.25,6.24H1.5V8H6.93v5.42Zm3.32-4.57V13H14.4V8.85H10.25Zm3.33,3.31h-2.5V9.68h2.5v2.49Zm9.17-2.91V15.5H21.89V13H19.4V15.5H18.55V9.26H19.4v2.9h2.49V9.26h0.86Zm4.43,1a1.62,1.62,0,0,0-.43-0.61,1.57,1.57,0,0,0-.68-0.35,4.11,4.11,0,0,0-.86-0.07H23.55V15.5h0.86V13h0.85a3.17,3.17,0,0,0,.8-0.08,1.68,1.68,0,0,0,.64-0.3A1.61,1.61,0,0,0,27.18,12a2.07,2.07,0,0,0,.14-0.8A2.35,2.35,0,0,0,27.18,10.28ZM26,11.72a0.66,0.66,0,0,1-.2.31,0.82,0.82,0,0,1-.31.14,2.86,2.86,0,0,1-.47,0H24.41V10.07h0.35a4.06,4.06,0,0,1,.64,0,0.81,0.81,0,0,1,.36.15,0.7,0.7,0,0,1,.22.31,1.59,1.59,0,0,1,.08.57A1.75,1.75,0,0,1,26,11.72ZM9.53,2.55h1.9v-2h2.21v2h1.9l-3,3.05Z"/>
  <rect class="cls-1" width="28" height="16"/>
</svg>
