<svg id="レイヤー_1" data-name="レイヤー 1" xmlns="http://www.w3.org/2000/svg" width="37" height="16" viewBox="0 0 37 16">
  <defs>
    <style>
      .cls-1 {
        fill: none;
      }
    </style>
  </defs>
  <title>icon_terminal_mic</title>
  <path d="M0.51,0.74H5.16l3.46,11h0l3.46-11h4.65V15.24H14v-12H13.94l-3.9,12H7.24l-3.9-12-0.05.05V15.24H0.51V0.74Zm19.37,0H22.8V15.24H19.88V0.74ZM36.49,15q-0.8.19-1.64,0.32a10.66,10.66,0,0,1-1.66.13A11.09,11.09,0,0,1,30,15.05a6.94,6.94,0,0,1-2.52-1.34,6,6,0,0,1-1.63-2.26,8,8,0,0,1-.59-3.2A9.24,9.24,0,0,1,25.76,5a6.53,6.53,0,0,1,1.58-2.43A6.83,6.83,0,0,1,29.86,1,10,10,0,0,1,33.18.5a9.68,9.68,0,0,1,1.6.15,8.49,8.49,0,0,1,1.69.46L36.26,3.56a5.4,5.4,0,0,0-1.6-.62,8.13,8.13,0,0,0-1.55-.15,4.89,4.89,0,0,0-2,.4A4.43,4.43,0,0,0,29.57,4.3,5,5,0,0,0,28.6,6a6.18,6.18,0,0,0-.34,2.08,6.19,6.19,0,0,0,.33,2.05,4.7,4.7,0,0,0,1,1.64,4.4,4.4,0,0,0,1.55,1.08,5.24,5.24,0,0,0,2.09.39q0.42,0,.87,0t0.87-.12a7.16,7.16,0,0,0,.79-0.19,3.56,3.56,0,0,0,.63-0.25Z"/>
  <rect class="cls-1" width="37" height="16"/>
</svg>
