<svg xmlns="http://www.w3.org/2000/svg" width="41" height="16" viewBox="0 0 41 16">
  <g id="icon">
    <path d="M39,0H2A2,2,0,0,0,0,2V14a2,2,0,0,0,2,2H39a2,2,0,0,0,2-2V2A2,2,0,0,0,39,0ZM22.87,12.14a2.81,2.81,0,0,1-.59,1,2.6,2.6,0,0,1-.94.65,3.1,3.1,0,0,1-1.25.24,5.77,5.77,0,0,1-1-.07,5.87,5.87,0,0,1-.77-.18,3.8,3.8,0,0,1-.55-.19,1.82,1.82,0,0,1-.26-.15l.13-1.77a1,1,0,0,0,.3.22,3.82,3.82,0,0,0,.53.23,5.92,5.92,0,0,0,.67.18,3.25,3.25,0,0,0,.69.08,1.63,1.63,0,0,0,.55-.09,1.23,1.23,0,0,0,.46-.26,1.42,1.42,0,0,0,.3-.44,1.75,1.75,0,0,0,.11-.64,2,2,0,0,0-.36-1.14,4.52,4.52,0,0,0-1.1-1.08,10.21,10.21,0,0,1-1-.79,4.78,4.78,0,0,1-.73-.85,3.66,3.66,0,0,1-.46-.93,3.3,3.3,0,0,1-.16-1,3.4,3.4,0,0,1,.22-1.26,2.86,2.86,0,0,1,.61-1,2.93,2.93,0,0,1,.92-.62A3,3,0,0,1,20.42,2a5.89,5.89,0,0,1,.88.06,6.63,6.63,0,0,1,.69.13,3.11,3.11,0,0,1,.46.15l.24.13-.1,1.77a3,3,0,0,0-.4-.26,2,2,0,0,0-.42-.19,2.53,2.53,0,0,0-.52-.1,4.47,4.47,0,0,0-.67,0,1.64,1.64,0,0,0-.5.08,1,1,0,0,0-.41.25,1.17,1.17,0,0,0-.29.44,1.81,1.81,0,0,0-.1.65,1.74,1.74,0,0,0,.11.61,2.55,2.55,0,0,0,.31.52,4.48,4.48,0,0,0,.49.48c.18.16.39.32.61.5s.62.5.9.74a4.55,4.55,0,0,1,.72.81,3.82,3.82,0,0,1,.48,1,4.22,4.22,0,0,1,.17,1.24A3.6,3.6,0,0,1,22.87,12.14Zm3.63,1.67H24.72V2.19H26.5Zm11.64,0H36.52V5.4l-2.38,8.41H32.76L30.37,5.42v8.39H28.76V2.19H31L33.44,11l2.44-8.83h2.26ZM6.47,9.12l-3.88.07A6,6,0,0,1,2.93,5.7ZM5.16,13a6,6,0,0,1-2.23-2.71l4.93-.09Zm4.53.89a6,6,0,0,1-3.49-.34L9.62,10ZM6.28,7.36l-2.8-2.7A6,6,0,0,1,6.19,2.43Zm7.24,4a6,6,0,0,1-2.71,2.23l-.09-4.93ZM7.31,2.09a6,6,0,0,1,3.49.34L7.38,6Zm3.22,4.79,3.88-.07a6,6,0,0,1-.34,3.49ZM11.84,3a6,6,0,0,1,2.23,2.71l-4.93.09Z"/>
  </g>
</svg>
