<svg id="レイヤー_1" data-name="レイヤー 1" xmlns="http://www.w3.org/2000/svg" width="24" height="16" viewBox="0 0 24 16">
  <defs>
    <style>
      .cls-1 {
        fill: none;
      }
    </style>
  </defs>
  <title>icon_wb-cloudy</title>
  <path d="M23.35,12.51a2.91,2.91,0,0,1-.24,1.17,3,3,0,0,1-.65.94,3.14,3.14,0,0,1-1,.64,2.89,2.89,0,0,1-1.17.24H5.66a4.87,4.87,0,0,1-2-.39A5.19,5.19,0,0,1,2.12,14,5,5,0,0,1,1,12.46,5,5,0,0,1,1,8.57,5,5,0,0,1,3.71,5.9a4.85,4.85,0,0,1,2-.39,4.86,4.86,0,0,1,2.5.66L8.82,5a5.81,5.81,0,0,0-2.27-.79,6.15,6.15,0,0,1,1-1.54A6.5,6.5,0,0,1,8.89,1.51a6.28,6.28,0,0,1,3.44-1A6.2,6.2,0,0,1,14.8,1a6.31,6.31,0,0,1,2,1.36,6.5,6.5,0,0,1,1.35,2,6.13,6.13,0,0,1,.5,2.46,6.15,6.15,0,0,1-1.13,3.63l1.08,0.77a5.53,5.53,0,0,0,.49-0.77q0.21-.4.38-0.84a2.62,2.62,0,0,1,.86-0.12,2.91,2.91,0,0,1,1.17.24,3.07,3.07,0,0,1,1.6,1.6A2.92,2.92,0,0,1,23.35,12.51Z"/>
  <rect class="cls-1" width="24" height="16"/>
</svg>
