<?xml version="1.0" encoding="utf-8"?>
<!-- Generator: Adobe Illustrator 23.0.3, SVG Export Plug-In . SVG Version: 6.00 Build 0)  -->
<svg version="1.1" id="レイヤー_1" xmlns="http://www.w3.org/2000/svg" xmlns:xlink="http://www.w3.org/1999/xlink" x="0px"
	 y="0px" width="22px" height="16px" viewBox="0 0 22 16" style="enable-background:new 0 0 22 16;" xml:space="preserve">
<style type="text/css">
	.st0{fill:none;}
</style>
<title>icon_flash-exp-com</title>
<rect y="0" class="st0" width="22" height="16"/>
<g>
	<path d="M1,5.5l2.3,1v3L1,10.7V5.5z M8.8,10.4h5c0,0.3-0.2,0.5-0.4,0.7s-0.5,0.3-0.7,0.3H5.3c-0.3,0-0.6-0.1-0.8-0.3
		c-0.2-0.2-0.3-0.5-0.3-0.8V6.7c0-0.3,0.1-0.6,0.3-0.8C4.8,5.6,5,5.5,5.3,5.5h3.5V10.4z M8,12.2L8,12.2l-2,3.3l-0.9-0.6l1.7-2.6
		L8,12.2L8,12.2z M21,0.5v9.3H9.4V0.5H21z M11.2,12.2l1.7,2.6L12,15.4l-2-3.2l0,0H11.2z M10.7,1.7v6.8h9.1V1.7H10.7z"/>
</g>
</svg>
