<svg xmlns="http://www.w3.org/2000/svg" width="27" height="16" viewBox="0 0 27 16">
  <defs>
    <style>
      .cls-1 {
        fill: none;
      }
    </style>
  </defs>
  <g id="base">
    <rect class="cls-1" width="27" height="16"/>
  </g>
  <g id="icon">
    <g>
      <path d="M18.13,5.12a1.82,1.82,0,0,0-.48-.77A.91.91,0,0,0,17,4.07a.92.92,0,0,0-.67.28,2,2,0,0,0-.48.77,5.82,5.82,0,0,0-.29,1.24A13.44,13.44,0,0,0,15.45,8a13.33,13.33,0,0,0,.09,1.63,5.72,5.72,0,0,0,.29,1.23,2.08,2.08,0,0,0,.48.78.92.92,0,0,0,.67.28.91.91,0,0,0,.67-.28,1.86,1.86,0,0,0,.48-.78,5.18,5.18,0,0,0,.29-1.23A13.2,13.2,0,0,0,18.52,8a13.29,13.29,0,0,0-.1-1.65A5.27,5.27,0,0,0,18.13,5.12Z"/>
      <path d="M24.75.5H2.25A1.87,1.87,0,0,0,.38,2.38V13.62A1.87,1.87,0,0,0,2.25,15.5h22.5a1.87,1.87,0,0,0,1.87-1.88V2.38A1.87,1.87,0,0,0,24.75.5ZM5.82,13.21l-.48-2.46H2.93l-.48,2.46H1L3.39,2.81H4.88l2.35,10.4Zm5.26-9H8.78v3h2.14V8.66H8.78v4.55H7.47V2.81h3.61Zm2.46,4.49h-2V7.37h2Zm6.14,1.56A5.7,5.7,0,0,1,19.11,12a2.91,2.91,0,0,1-.91,1,2.23,2.23,0,0,1-1.22.35A2.2,2.2,0,0,1,15.77,13a2.91,2.91,0,0,1-.91-1,5.7,5.7,0,0,1-.57-1.68A11.11,11.11,0,0,1,14.09,8a11.32,11.32,0,0,1,.2-2.3A5.7,5.7,0,0,1,14.86,4a2.91,2.91,0,0,1,.91-1A2.2,2.2,0,0,1,17,2.64,2.23,2.23,0,0,1,18.2,3a2.91,2.91,0,0,1,.91,1,5.7,5.7,0,0,1,.57,1.68,12.08,12.08,0,0,1,.2,2.3A11.86,11.86,0,0,1,19.68,10.29Zm6,2.92H24.2L21.89,5.94h0l-.12-.33c0-.11-.07-.21-.1-.32l0,.48v7.44H20.56V2.81h1.5l2.33,7.26c0,.13.08.23.09.28a.46.46,0,0,1,0,.13l0,.12s0,.12.05.23l0-.46V2.81h1.14Z"/>
      <path d="M4.13,4.4a.25.25,0,0,0,0,.1s0,.08,0,.13,0,.09,0,.13,0,.07,0,.09l-.9,4.42H5.09l-.9-4.4Z"/>
    </g>
  </g>
</svg>
