<?xml version="1.0" encoding="utf-8"?>
<!-- Generator: Adobe Illustrator 23.0.3, SVG Export Plug-In . SVG Version: 6.00 Build 0)  -->
<svg version="1.1" id="レイヤー_1" xmlns="http://www.w3.org/2000/svg" xmlns:xlink="http://www.w3.org/1999/xlink" x="0px"
	 y="0px" width="36px" height="16px" viewBox="0 0 36 16" style="enable-background:new 0 0 36 16;" xml:space="preserve">
<style type="text/css">
	.st0{fill:none;}
</style>
<title>icon_oneshot-ai-servo</title>
<rect class="st0" width="36" height="16"/>
<g>
	<path d="M5.1,0.8L0.4,14.9h2.8l1-3.1h4.7l0.9,3.1h2.8L7.9,0.8H5.1z M4.9,9.5l1.6-5.2h0l1.6,5.2H4.9z"/>
	<polygon points="17.3,11.6 17.3,11.6 15.3,4.2 12.6,4.2 15.8,14.9 18.7,14.9 21.9,4.2 19.3,4.2 	"/>
	<rect x="22.8" y="13.7" width="12.8" height="1.5"/>
	<polygon points="35,7 31.9,7 31.9,4.2 27,4.2 27,7 23.5,7 29.3,12.7 	"/>
	<rect x="27" y="1.2" width="4.9" height="1.4"/>
</g>
</svg>
