<svg xmlns="http://www.w3.org/2000/svg" width="28" height="16" viewBox="0 0 28 16">
  <defs>
    <style>
      .cls-1 {
        fill: none;
      }

      .cls-2 {
        fill: #251e1c;
      }
    </style>
  </defs>
  <g id="base">
    <rect class="cls-1" width="28" height="16"/>
  </g>
  <g id="icon">
    <path class="cls-2" d="M25.25.5H2.75A1.87,1.87,0,0,0,.88,2.38V13.62A1.87,1.87,0,0,0,2.75,15.5h22.5a1.87,1.87,0,0,0,1.87-1.88V2.38A1.87,1.87,0,0,0,25.25.5ZM10.88,13.21H9.35V5.69L7.09,13.21H5.79L3.52,5.7v7.51H2V2.81H4.13l2.3,7.91L8.74,2.81h2.14Zm3.9-4.48H11.7V7.37h3.08Zm5.48-4.49h-3v3h2.75V8.66H17.3v4.55H15.62V2.81h4.64Zm5.94,9H24.59V8.34A3.57,3.57,0,0,0,24.4,7a.69.69,0,0,0-.7-.44,1.14,1.14,0,0,0-.53.11.93.93,0,0,0-.39.35,1.67,1.67,0,0,0-.25.6,3.67,3.67,0,0,0-.09.88v4.73H20.83V5.14h1.56V6a4.39,4.39,0,0,1,.28-.36A2.51,2.51,0,0,1,23,5.32a1.62,1.62,0,0,1,.41-.22A1.28,1.28,0,0,1,23.91,5a2.75,2.75,0,0,1,.93.15,1.76,1.76,0,0,1,.72.48,2.24,2.24,0,0,1,.47.85,4.24,4.24,0,0,1,.17,1.27Z"/>
  </g>
</svg>
