<svg id="レイヤー_1" data-name="レイヤー 1" xmlns="http://www.w3.org/2000/svg" width="18" height="18" viewBox="0 0 18 18">
  <defs>
    <style>
      .cls-1 {
        fill: none;
      }
    </style>
  </defs>
  <title>icon_ps-sharpness-t</title>
  <rect class="cls-1" width="18" height="18"/>
  <path d="M17.2,7.2H16.5l-0.1-.4c0-.1-0.1-0.3-0.1-0.4A3.21,3.21,0,0,1,16,5.9a2.19,2.19,0,0,0-.3-0.5c-0.1-.2-0.2-0.3-0.3-0.5V7.3H14.6V3.8L14,3.3a2.18,2.18,0,0,0-.5-0.4L13,2.6l-0.6-.4v5H11.8V2c-0.5-.2-0.9-0.3-1.4-0.5A6.15,6.15,0,0,0,9,1.4a2.77,2.77,0,0,0-.9.1,2.92,2.92,0,0,0-.9.2H7.5V2.6H6.6V1.8l-0.4.1V2.5H6.7V3.3H6.2V4.2H6.7V5.1H6.2V6H5.3V7H5.8V6.1H6.7V7H6.2V7.9H5.3V8.8H5.8V7.9H6.7V8.8H6.2V9.7H5.3v0.9H5.8V9.7H6.7v0.9H6.2v0.9H6.7v0.9H6.2v0.9H6.7v0.9H6.2V15H5.3v0.6l0.2,0.1,0.2,0.1V15H6.6v0.9H5.8L6.2,16l0.4,0.1V15.8H7.5v0.5a7.57,7.57,0,0,0,1.5.1,6.9,6.9,0,0,0,2.5-.4v1a7.27,7.27,0,0,1-2.5.4,8,8,0,0,1-3.4-.7,9,9,0,0,1-4.5-4.5A9.19,9.19,0,0,1,.5,8.9a9.6,9.6,0,0,1,.6-3.3A9,9,0,0,1,5.6,1.1,9.67,9.67,0,0,1,9,.6a9.82,9.82,0,0,1,2.9.5,7.22,7.22,0,0,1,2.4,1.4,11.23,11.23,0,0,1,1.8,2A8.08,8.08,0,0,1,17.2,7.2ZM3.9,14.1H4.4V13.2H3.9V12.3H4.4V11.4H3.9V10.5H4.4V9.7H3.9V8.8H4.4V7.9H3.9V7H4.4V6.1H3.9V5.2H4.4V4.3H3.9V3.4H4.4V2.9a2.36,2.36,0,0,0-.5.5V14.7h0V14.1h0ZM4.4,15h0ZM5.3,3.4H5.8V2.5H5.3V2.4L5,2.5H5.3V3.4Zm0,1.8H5.8V4.3H5.3V5.2h0Zm0,7.1H5.8V11.4H5.3v0.9h0Zm0,1.8H5.8V13.3H5.3v0.8h0ZM7.5,3.4V4.3H6.6V3.4H7.5Zm0,1.8V6.1H6.6V5.2H7.5ZM7.5,7V7.9H6.6V7H7.5Zm0,1.7V9.6H6.6V8.8l0.9-.1h0Zm0,1.8v0.9H6.6V10.6l0.9-.1h0Zm0,1.8v0.9H6.6V12.4l0.9-.1h0Zm0,1.8V15H6.6V14.1H7.5ZM8.4,2.5V3.3H7.5V2.5H8.4Zm0,1.8V5.2H7.5V4.3H8.4Zm0,1.8V7H7.5V6.1H8.4Zm0,1.8V8.8H7.5V7.9H8.4Zm0,1.8v0.9H7.5V9.7H8.4Zm0,1.8v0.9H7.5V11.5H8.4Zm0,1.8v0.9H7.5V13.3H8.4Zm0,1.7v0.9H7.5V15H8.4Zm9.1-7.2V9.4H15.2v8H13.4v-8H11.2V7.8h6.3Z"/>
</svg>
