<svg id="icon" xmlns="http://www.w3.org/2000/svg" width="38" height="16" viewBox="0 0 38 16">
  <defs>
    <style>
      .cls-1 {
        fill: none;
      }
    </style>
  </defs>
  <path d="M33,4.43h2.41L31.79,8,28.22,4.43h2.39V.94H33Zm-6.9-1.94h1.1V1.38h-1.1Zm0,2.2h1.1V3.59h-1.1Zm0,2.21h1.1V5.79h-1.1Zm0,2.2h1.1V8h-1.1ZM36.43,1.38V2.49h1.1V1.38ZM34.22,2.49h1.1V1.38h-1.1Zm-6,0h1.11V1.38H28.26Zm8.17,2.2h1.1V3.59h-1.1Zm0,2.21h1.1V5.79h-1.1Zm0,2.2h1.1V8h-1.1Zm1.1,1.11H26.06v4.41H37.53ZM23.85.5v15H.47V.5Zm-1.1,1.1H1.57V14.4H22.75ZM2.58,3.06v9.79H5.81V11.42H3.73V3.06ZM8.77,8.7H9.91v2.62l-.12.12a.71.71,0,0,1-.14.1.75.75,0,0,1-.18.07,1.12,1.12,0,0,1-.27,0,1.19,1.19,0,0,1-.71-.22,1.86,1.86,0,0,1-.57-.68,4.71,4.71,0,0,1-.37-1.15,9.86,9.86,0,0,1-.13-1.65A8,8,0,0,1,7.57,6.3,4,4,0,0,1,8,5.15a1.9,1.9,0,0,1,.59-.68,1.28,1.28,0,0,1,.73-.22,1.59,1.59,0,0,1,.5.07,1.91,1.91,0,0,1,.44.16,2.58,2.58,0,0,1,.37.22c.11.08.2.16.28.23l.06-1.52a1.27,1.27,0,0,0-.23-.16,3.17,3.17,0,0,0-.36-.16A4,4,0,0,0,9.86,3a3.86,3.86,0,0,0-.61-.05,2.49,2.49,0,0,0-1.16.29,2.84,2.84,0,0,0-1,.91,5.45,5.45,0,0,0-.66,1.57,9.46,9.46,0,0,0-.24,2.27,9.35,9.35,0,0,0,.24,2.27,5.08,5.08,0,0,0,.65,1.57,2.64,2.64,0,0,0,1,.91,2.31,2.31,0,0,0,1.14.3,2.18,2.18,0,0,0,.65-.08,4.35,4.35,0,0,0,.51-.17,3.2,3.2,0,0,0,.38-.22c.1-.08.19-.14.25-.2v-5H8.77Zm4.59-5.47a2.75,2.75,0,0,0-.8,1,5.88,5.88,0,0,0-.5,1.58A11.68,11.68,0,0,0,11.89,8a11.5,11.5,0,0,0,.17,2.15,5.88,5.88,0,0,0,.5,1.58,2.75,2.75,0,0,0,.8,1,1.78,1.78,0,0,0,1.06.33,1.8,1.8,0,0,0,1.06-.33,2.63,2.63,0,0,0,.79-1,5.54,5.54,0,0,0,.5-1.58A11.44,11.44,0,0,0,17,8a11.63,11.63,0,0,0-.18-2.16,5.54,5.54,0,0,0-.5-1.58,2.63,2.63,0,0,0-.79-1,1.8,1.8,0,0,0-1.06-.33A1.78,1.78,0,0,0,13.36,3.23Zm2.31,6.26a5.44,5.44,0,0,1-.25,1.16,1.87,1.87,0,0,1-.42.73.78.78,0,0,1-.58.26.8.8,0,0,1-.59-.26,1.87,1.87,0,0,1-.42-.73,6.14,6.14,0,0,1-.25-1.16A12.06,12.06,0,0,1,13.08,8a12,12,0,0,1,.08-1.55,5.8,5.8,0,0,1,.25-1.16,1.87,1.87,0,0,1,.42-.73.8.8,0,0,1,.59-.26.78.78,0,0,1,.58.26,1.87,1.87,0,0,1,.42.73,5.18,5.18,0,0,1,.25,1.16A11.88,11.88,0,0,1,15.76,8,11.94,11.94,0,0,1,15.67,9.49ZM18,3.06v9.79h1.13V9h.43a2.12,2.12,0,0,0,1-.21,1.85,1.85,0,0,0,.69-.59,2.79,2.79,0,0,0,.41-.94A5.16,5.16,0,0,0,21.77,6a5.31,5.31,0,0,0-.14-1.25,2.73,2.73,0,0,0-.41-.93,2,2,0,0,0-.69-.6,2.26,2.26,0,0,0-1-.2Zm1.13,4.61V4.41h.43a.86.86,0,0,1,.81.45A2.35,2.35,0,0,1,20.64,6a3.4,3.4,0,0,1-.06.67,1.76,1.76,0,0,1-.19.52,1,1,0,0,1-.33.33,1.07,1.07,0,0,1-.49.11Z"/>
  <rect class="cls-1" width="38" height="16"/>
</svg>
