<svg id="レイヤー_1" data-name="レイヤー 1" xmlns="http://www.w3.org/2000/svg" width="20" height="20" viewBox="0 0 20 20">
  <defs>
    <style>
      .cls-1 {
        fill: blue;
      }

      .cls-2 {
        fill: none;
      }
    </style>
  </defs>
  <title>icon_ref</title>
  <g>
    <path class="cls-1" d="M16.18,0H8.78A3.87,3.87,0,0,0,4.93,3.85v1H3.82A3.81,3.81,0,0,0,0,8.74v7.41A3.81,3.81,0,0,0,3.82,20h7.41a3.87,3.87,0,0,0,3.85-3.85v-1h1.11A3.81,3.81,0,0,0,20,11.26V3.85A3.81,3.81,0,0,0,16.18,0Zm1.89,11.26a1.87,1.87,0,0,1-1.89,1.89H15.07V8.74A0.57,0.57,0,0,0,15,8.36l-1.81,1.81v6A1.87,1.87,0,0,1,11.3,18H3.82a1.87,1.87,0,0,1-1.89-1.89V8.74A1.87,1.87,0,0,1,3.82,6.85h6L11.67,5a0.57,0.57,0,0,1-.38-0.08H6.81v-1A1.87,1.87,0,0,1,8.7,2h7.48a1.87,1.87,0,0,1,1.89,1.89v7.41Z"/>
    <path class="cls-1" d="M14.85,5.19a1,1,0,0,0-1.36,0L6.08,12.59V10a1,1,0,0,0-2,0v4.84a1,1,0,0,0,1,1H9.94a1,1,0,0,0,0-2H7.52l7.41-7.41a0.94,0.94,0,0,0-.08-1.28h0"/>
  </g>
  <rect class="cls-2" width="20" height="20"/>
</svg>
