<svg id="icon" xmlns="http://www.w3.org/2000/svg" width="18.94" height="16" viewBox="0 0 18.94 16">
  <title>Icon_Character_Gr</title>
  <g>
    <path d="M5.81,7h5.13v7.89l-.59.31a6.24,6.24,0,0,1-.87.34,9.26,9.26,0,0,1-1.17.28A8.27,8.27,0,0,1,6.84,16a7.35,7.35,0,0,1-2.62-.47A5.88,5.88,0,0,1,2,14.08,7,7,0,0,1,.55,11.6,10.51,10.51,0,0,1,0,8,10.4,10.4,0,0,1,.56,4.4,7,7,0,0,1,2.07,1.91,5.89,5.89,0,0,1,4.27.46,7.53,7.53,0,0,1,6.91,0a10.27,10.27,0,0,1,1.4.09A9.84,9.84,0,0,1,9.43.3a6.83,6.83,0,0,1,.82.26,4.11,4.11,0,0,1,.52.25l-.13,2.42Q10.37,3,10,2.86a6.43,6.43,0,0,0-.84-.35,7.35,7.35,0,0,0-1-.26A6.2,6.2,0,0,0,7,2.14a4,4,0,0,0-1.67.36A3.67,3.67,0,0,0,4,3.57a5.35,5.35,0,0,0-.9,1.83A9.18,9.18,0,0,0,2.73,8,9.91,9.91,0,0,0,3,10.6a5.34,5.34,0,0,0,.85,1.83A3.49,3.49,0,0,0,5.17,13.5a3.73,3.73,0,0,0,1.63.36,3.61,3.61,0,0,0,.62,0,2.22,2.22,0,0,0,.43-.12,1.54,1.54,0,0,0,.31-.16l.28-.19V9.19H5.81Z"/>
    <path d="M17.94,3.54a2.29,2.29,0,0,1,.62.07,1.68,1.68,0,0,1,.38.16V6.29a5.42,5.42,0,0,0-.58-.23A1.54,1.54,0,0,0,17.9,6a1.74,1.74,0,0,0-.68.15,1.72,1.72,0,0,0-.65.51,2.84,2.84,0,0,0-.49,1,5.3,5.3,0,0,0-.19,1.54v6.62H13.39V3.73h2.43V5.33l.41-.59a4.57,4.57,0,0,1,.48-.58,2.63,2.63,0,0,1,.57-.44A1.3,1.3,0,0,1,17.94,3.54Z"/>
  </g>
</svg>
