<svg id="レイヤー_1" data-name="レイヤー 1" xmlns="http://www.w3.org/2000/svg" width="37" height="16" viewBox="0 0 37 16">
  <defs>
    <style>
      .cls-1 {
        fill: blue;
      }

      .cls-2 {
        fill: none;
      }
    </style>
  </defs>
  <title>icon_m-fn_b</title>
  <path class="cls-1" d="M13.09,15.5H11.49l0-13h0l-3.73,13H6.15l-3.73-13h0v13H0.78V0.5H3.43L7,13,10.43,0.5h2.67v15Zm6.22-6.82H15.16V7h4.15V8.68ZM27.25,0.5V2.39H22.88v4.4h4.17V8.68H22.88V15.5H21.26V0.5h6Zm9,8.5v6.5H34.7V9.85a8.66,8.66,0,0,0-.37-2.91,1.42,1.42,0,0,0-1.36-1,1.83,1.83,0,0,0-1.12.31,2.5,2.5,0,0,0-.78.93,4.94,4.94,0,0,0-.45,1.44,11.15,11.15,0,0,0-.14,1.85l0,5.05H29v-11h1.47V6.29h0a3,3,0,0,1,1.08-1.48,2.71,2.71,0,0,1,1.61-.53,2.51,2.51,0,0,1,2.33,1.26A6.81,6.81,0,0,1,36.22,9Z"/>
  <rect class="cls-2" width="37" height="16"/>
</svg>
