<svg id="レイヤー_1" data-name="レイヤー 1" xmlns="http://www.w3.org/2000/svg" width="24" height="16" viewBox="0 0 24 16">
  <defs>
    <style>
      .cls-1 {
        fill: none;
      }
    </style>
  </defs>
  <title>icon_mode-mov-shutter</title>
  <path d="M3.26,5.26V8.71L0.89,10v-6Zm7.8,4.3h3.15a1.36,1.36,0,0,1-.35.92,1.09,1.09,0,0,1-.82.4H5.44a1.07,1.07,0,0,1-.84-0.4,1.36,1.36,0,0,1-.33-0.92V5.43a1.57,1.57,0,0,1,.33-1,1.16,1.16,0,0,1,.84-0.38h5.65ZM8.22,11.77l0,0L6.13,15.46l-1-.73,1.73-3H8.22ZM16.82,0.5V2H14.36V8.65H12.6V2H10.14V0.5h6.67ZM11.56,11.77l1.71,3-1,.75-2.11-3.68,0.05-.05h1.34Zm9.95-9h1.6l-2,5.91H19.29l-2-5.91H19l1.25,4h0Z"/>
  <rect class="cls-1" width="24" height="16"/>
</svg>
