<svg xmlns="http://www.w3.org/2000/svg" width="16" height="16" viewBox="0 0 16 16">
  <defs>
    <style>
      .cls-1 {
        fill: none;
      }

      .cls-2 {
        fill: blue;
      }
    </style>
  </defs>
  <g id="frame">
    <rect class="cls-1" width="16" height="16"/>
  </g>
  <g id="_b">
    <g>
      <path class="cls-2" d="M12.12,9.52c-.18,0-.3.18-.3.44s.11.42.3.42a.25.25,0,0,0,.25-.2.43.43,0,0,0,0-.11V9.83s0-.07,0-.1A.28.28,0,0,0,12.12,9.52Z"/>
      <path class="cls-2" d="M6.35,9.51c-.19,0-.27.19-.28.34H6.6C6.61,9.69,6.54,9.51,6.35,9.51Z"/>
      <path class="cls-2" d="M7.16,10.21a.18.18,0,0,0,.18.2.25.25,0,0,0,.25-.18.2.2,0,0,0,0-.07V10C7.41,10,7.16,10,7.16,10.21Z"/>
      <path class="cls-2" d="M.5.5v15h15V.5ZM3.64,10.56a.78.78,0,0,1-.37-.09l0-.17a.7.7,0,0,0,.33.09c.2,0,.32-.11.32-.27s-.09-.24-.28-.32a.52.52,0,0,1-.38-.46.44.44,0,0,1,.49-.43A.71.71,0,0,1,4.11,9l-.05.17a.52.52,0,0,0-.27-.07.25.25,0,0,0-.28.24c0,.15.09.22.29.31s.37.25.37.47S4,10.56,3.64,10.56Zm1.3-1H4.66v.64c0,.15,0,.22.15.22l.1,0v.16l-.17,0a.27.27,0,0,1-.21-.08.42.42,0,0,1-.08-.3V9.54H4.29V9.39h.17V9.18l.2-.07v.28h.28Zm.84,0H5.72a.29.29,0,0,0-.27.26v.72h-.2V9.73c0-.13,0-.24,0-.34h.17V9.6h0a.34.34,0,0,1,.3-.24h0Zm0-1.43H4.44V5H5V7.67h.78Zm1,1.86H6.06c0,.31.18.42.36.42a.61.61,0,0,0,.28-.06l0,.15a.92.92,0,0,1-.35.06A.51.51,0,0,1,5.87,10c0-.36.19-.62.5-.62s.43.31.43.53A.25.25,0,0,1,6.79,10Zm.06-1.86H6.28V5h.57Zm.78,2.41,0-.14h0a.36.36,0,0,1-.31.17A.32.32,0,0,1,7,10.23c0-.28.24-.42.63-.42v0c0-.11,0-.27-.24-.27a.47.47,0,0,0-.26.08l0-.13a.61.61,0,0,1,.35-.1c.31,0,.4.22.4.46v.45a2.28,2.28,0,0,0,0,.27ZM7.24,5h.61l.47,2.39h.09L8.9,5h.58l-.8,3.1H8Zm2.39,5.51h-.2V9.87c0-.2-.06-.34-.22-.34A.26.26,0,0,0,9,9.71a.37.37,0,0,0,0,.11v.72h-.2V9.83c0-.17-.06-.3-.22-.3a.25.25,0,0,0-.23.2.34.34,0,0,0,0,.1v.71h-.2V9.69c0-.12,0-.21,0-.3h.18v.17h0a.37.37,0,0,1,.33-.2.31.31,0,0,1,.3.22h0a.38.38,0,0,1,.12-.15.42.42,0,0,1,.23-.07c.15,0,.35.11.35.47Zm.52,0H10V9.39h.2Zm-.1-1.35h0a.12.12,0,0,1-.12-.12.13.13,0,0,1,.13-.13.12.12,0,0,1,.12.13A.12.12,0,0,1,10.05,9.19Zm1.32,1.35h-.2V9.85c0-.17-.06-.32-.24-.32a.28.28,0,0,0-.25.21s0,.06,0,.09v.71h-.2V9.69a2.72,2.72,0,0,0,0-.3h.18v.17h0a.38.38,0,0,1,.34-.2c.16,0,.37.1.37.47Zm.07-2.41H9.87V5h1.52v.45h-1v.83h.89v.45h-.89v.91h1Zm1.15,1.59v.66a.67.67,0,0,1-.15.52.59.59,0,0,1-.39.13.71.71,0,0,1-.34-.08l0-.16a.57.57,0,0,0,.3.08c.19,0,.33-.1.33-.38v-.13h0a.35.35,0,0,1-.32.18c-.26,0-.45-.24-.45-.57s.24-.61.48-.61a.36.36,0,0,1,.32.19h0V9.39h.18A2.83,2.83,0,0,0,12.59,9.72Z"/>
    </g>
  </g>
</svg>
