<svg id="レイヤー_1" data-name="レイヤー 1" xmlns="http://www.w3.org/2000/svg" width="29" height="16" viewBox="0 0 29 16">
  <defs>
    <style>
      .cls-1 {
        fill: none;
      }
    </style>
  </defs>
  <title>icon_raw</title>
  <path d="M27.31,0.69a1.94,1.94,0,0,1,.55.51,2.44,2.44,0,0,1,.37.75,3.15,3.15,0,0,1,.13.93V13.16a3,3,0,0,1-.13.9,2.43,2.43,0,0,1-.37.74,1.93,1.93,0,0,1-.55.51,1.27,1.27,0,0,1-.67.19H2.36a1.32,1.32,0,0,1-.67-0.19,1.77,1.77,0,0,1-.55-0.51,2.54,2.54,0,0,1-.36-0.74,3,3,0,0,1-.13-0.9V2.88A3.15,3.15,0,0,1,.77,1.95a2.55,2.55,0,0,1,.36-0.75A1.78,1.78,0,0,1,1.68.69,1.32,1.32,0,0,1,2.36.5H26.64A1.27,1.27,0,0,1,27.31.69ZM8.63,13.21l-1.22-4a4.67,4.67,0,0,0-.32-0.74,0.66,0.66,0,0,0-.5-0.4V8a1.43,1.43,0,0,0,.66-0.3,2.1,2.1,0,0,0,.49-0.58,3.08,3.08,0,0,0,.32-0.78,3.59,3.59,0,0,0,.12-0.93A2.71,2.71,0,0,0,7.83,4,2.07,2.07,0,0,0,7,3.2a3.4,3.4,0,0,0-1.16-.31Q5.17,2.82,4.57,2.82H2.9V13.21H4.45V8.92h0.5a0.78,0.78,0,0,1,.67.27,3,3,0,0,1,.37.89l0.92,3.14H8.63ZM5.52,4.29A1.19,1.19,0,0,1,6,4.48a1.14,1.14,0,0,1,.38.43,1.68,1.68,0,0,1,.15.78,2,2,0,0,1-.15.84A1.18,1.18,0,0,1,6,7a1.23,1.23,0,0,1-.52.2,3.75,3.75,0,0,1-.58,0H4.45v-3h0.5A4.61,4.61,0,0,1,5.52,4.29Zm11.36,8.92-3-10.39H12.14l-3,10.39h1.58L11.42,11h3.1l0.66,2.22h1.7ZM13,4.65l1.12,4.59H11.86L13,4.65h0ZM27.14,2.82H25.65l-1.44,8.49h0L22.85,2.82H20.78l-1.31,8.49h0L18,2.82H16.42l2,10.39h2l1.37-8.56h0l1.38,8.56h2Z"/>
  <rect class="cls-1" width="29" height="16"/>
</svg>
