<?xml version="1.0" encoding="utf-8"?>
<!-- Generator: Adobe Illustrator 21.1.0, SVG Export Plug-In . SVG Version: 6.00 Build 0)  -->
<svg version="1.1" id="レイヤー_1" xmlns="http://www.w3.org/2000/svg" xmlns:xlink="http://www.w3.org/1999/xlink" x="0px"
	 y="0px" width="41.5px" height="16px" viewBox="0 0 41.5 16" style="enable-background:new 0 0 41.5 16;" xml:space="preserve">
<style type="text/css">
	.st0{fill:none;}
</style>
<title>icon_func-exp</title>
<rect class="st0" width="41.5" height="16"/>
<g>
	<path d="M38.7,2.3h-4.3v1.4h4.3V2.3z M40.8,12.3h-8.5v1.4h8.6L40.8,12.3L40.8,12.3z M38.7,7.3V5.1h-4.3v2.2h-2.1l4.3,4.6l4.3-4.6
		L38.7,7.3L38.7,7.3z"/>
</g>
<g>
	<path d="M4.3,0.8L0.5,15.2h2.1l0.9-3.6h3.6L8,15.2h2.1L6.3,0.8H4.3z M4,9.4l1.3-5.1l1.2,5.1H4z"/>
	<polygon points="10.5,15.2 12.6,15.2 12.6,8.8 15.9,8.8 15.9,6.6 12.6,6.6 12.6,3 16,3 16,0.8 10.5,0.8 	"/>
	<path d="M19,2.4V14h11.6V2.4H19z M29,12.4h-8.4V4H29V12.4z"/>
</g>
</svg>
