<svg id="レイヤー_1" data-name="レイヤー 1" xmlns="http://www.w3.org/2000/svg" width="28" height="16" viewBox="0 0 28 16">
  <defs>
    <style>
      .cls-1 {
        fill: none;
      }
    </style>
  </defs>
  <g>
    <polygon points="14.3 5.23 10.77 14.51 9.55 14.51 13.08 5.23 14.3 5.23"/>
    <polygon points="0.7 6.05 0.7 12.41 7.82 9.23 0.7 6.05"/>
    <path d="M17.52,5.16a.54.54,0,0,0-.51.47V8a5.14,5.14,0,0,0,4.65,5.12v1.39H19.48s-.54,0-.54.47a.51.51,0,0,0,.54.52h5.34A.54.54,0,0,0,25.3,15c0-.45-.48-.47-.48-.47H22.65V13.12A5.14,5.14,0,0,0,27.3,8V5.6a.51.51,0,0,0-.52-.45.45.45,0,0,0-.47.45V8A4.16,4.16,0,0,1,18,8V5.6a.47.47,0,0,0-.47-.44"/>
    <path d="M24.82,3.18a2.67,2.67,0,1,0-5.34,0V8a2.67,2.67,0,1,0,5.34,0Z"/>
  </g>
  <rect class="cls-1" width="28" height="16"/>
</svg>
