<?xml version="1.0" encoding="UTF-8"?>
<svg id="edge" xmlns="http://www.w3.org/2000/svg" width="19.2" height="16" version="1.1" viewBox="0 0 19.2 16">
  <!-- Generator: Adobe Illustrator 29.5.1, SVG Export Plug-In . SVG Version: 2.1.0 Build 141)  -->
  <defs>
    <style>
      .st0, .st1 {
        stroke: #fff;
        stroke-linejoin: round;
      }

      .st1 {
        stroke-linecap: round;
      }
    </style>
  </defs>
  <path class="st1" d="M6.33,8.79c.73,0,1.35.43,1.65,1.04h3.45c.59,0,1.07-.48,1.07-1.07V2.95c0-.59-.48-1.07-1.07-1.07h-2.37l-.84-1.46c-.12-.23-.36-.38-.63-.38h-2.58c-.07,0-.14.02-.21.04-.19.05-.35.18-.45.36l-.82,1.44H1.22C.63,1.88.15,2.36.15,2.95v5.82c0,.59.48,1.07,1.07,1.07h3.46c.3-.62.92-1.04,1.65-1.04ZM3.63,5.61c0-1.49,1.21-2.7,2.7-2.7s2.7,1.21,2.7,2.7-1.21,2.7-2.7,2.7-2.7-1.21-2.7-2.7Z"/>
  <path class="st1" d="M15.94,14.25v-1.53c0-.25-.21-.46-.46-.46H6.79v-.82c.27-.16.46-.45.46-.79,0-.51-.41-.92-.92-.92s-.92.41-.92.92c0,.34.19.63.46.79v2.82c-.27.16-.46.45-.46.79,0,.51.41.92.92.92s.92-.41.92-.92c0-.34-.19-.63-.46-.79v-1.07h3.65v1.07c-.27.16-.46.45-.46.79,0,.51.41.92.92.92s.92-.41.92-.92c0-.34-.19-.63-.46-.79v-1.07h3.65v1.07c-.27.16-.46.45-.46.79,0,.51.41.92.92.92s.92-.41.92-.92c0-.34-.19-.63-.46-.79Z"/>
  <path class="st0" d="M19,4.02c0,.29-.04.58-.12.87-.08.29-.19.59-.33.88-.14.29-.3.58-.49.86-.19.28-.38.55-.59.81-.21.26-.42.5-.63.72-.21.22-.42.43-.63.61h2.83v1.1h-4.4v-1.07c.19-.2.39-.42.61-.67.22-.24.44-.5.66-.76.22-.27.43-.54.64-.82.21-.28.39-.55.55-.82.16-.27.29-.54.38-.79.1-.26.14-.5.14-.72,0-.39-.08-.68-.23-.88-.15-.2-.39-.3-.72-.3-.12,0-.26.02-.42.06-.15.04-.31.09-.47.15-.16.06-.31.13-.45.2-.14.08-.27.15-.37.23l-.18-1.22c.11-.08.25-.15.4-.22.15-.07.31-.13.49-.17.18-.05.36-.09.55-.11.19-.03.39-.04.59-.04.31,0,.6.04.86.12.26.08.49.2.69.37.19.17.35.39.46.66.11.27.17.59.17.96Z"/>
  <path d="M6.33,8.79c.73,0,1.35.43,1.65,1.04h3.45c.59,0,1.07-.48,1.07-1.07V2.95c0-.59-.48-1.07-1.07-1.07h-2.37l-.84-1.46c-.12-.23-.36-.38-.63-.38h-2.58c-.07,0-.14.02-.21.04-.19.05-.35.18-.45.36l-.82,1.44H1.22C.63,1.88.15,2.36.15,2.95v5.82c0,.59.48,1.07,1.07,1.07h3.46c.3-.62.92-1.04,1.65-1.04ZM3.63,5.61c0-1.49,1.21-2.7,2.7-2.7s2.7,1.21,2.7,2.7-1.21,2.7-2.7,2.7-2.7-1.21-2.7-2.7Z"/>
  <path d="M15.94,14.25v-1.53c0-.25-.21-.46-.46-.46H6.79v-.82c.27-.16.46-.45.46-.79,0-.51-.41-.92-.92-.92s-.92.41-.92.92c0,.34.19.63.46.79v2.82c-.27.16-.46.45-.46.79,0,.51.41.92.92.92s.92-.41.92-.92c0-.34-.19-.63-.46-.79v-1.07h3.65v1.07c-.27.16-.46.45-.46.79,0,.51.41.92.92.92s.92-.41.92-.92c0-.34-.19-.63-.46-.79v-1.07h3.65v1.07c-.27.16-.46.45-.46.79,0,.51.41.92.92.92s.92-.41.92-.92c0-.34-.19-.63-.46-.79Z"/>
  <path d="M19,4.02c0,.29-.04.58-.12.87-.08.29-.19.59-.33.88-.14.29-.3.58-.49.86-.19.28-.38.55-.59.81-.21.26-.42.5-.63.72-.21.22-.42.43-.63.61h2.83v1.1h-4.4v-1.07c.19-.2.39-.42.61-.67.22-.24.44-.5.66-.76.22-.27.43-.54.64-.82.21-.28.39-.55.55-.82.16-.27.29-.54.38-.79.1-.26.14-.5.14-.72,0-.39-.08-.68-.23-.88-.15-.2-.39-.3-.72-.3-.12,0-.26.02-.42.06-.15.04-.31.09-.47.15-.16.06-.31.13-.45.2-.14.08-.27.15-.37.23l-.18-1.22c.11-.08.25-.15.4-.22.15-.07.31-.13.49-.17.18-.05.36-.09.55-.11.19-.03.39-.04.59-.04.31,0,.6.04.86.12.26.08.49.2.69.37.19.17.35.39.46.66.11.27.17.59.17.96Z"/>
</svg>