<svg xmlns="http://www.w3.org/2000/svg" width="27" height="16" viewBox="0 0 27 16">
  <defs>
    <style>
      .cls-1 {
        fill: none;
      }

      .cls-2 {
        fill: #251e1c;
      }
    </style>
  </defs>
  <g id="base">
    <rect class="cls-1" width="27" height="16"/>
  </g>
  <g id="icon">
    <path class="cls-2" d="M24.75.5H2.25A1.87,1.87,0,0,0,.38,2.38V13.62A1.87,1.87,0,0,0,2.25,15.5h22.5a1.87,1.87,0,0,0,1.87-1.88V2.38A1.87,1.87,0,0,0,24.75.5Zm-16,12.71H7.57V5.69L5.76,13.21h-1L2.9,5.7v7.51H1.68V2.81H3.39l1.84,7.91L7.08,2.81H8.79Zm3.12-4.48H9.45V7.37h2.46Zm4.38-4.49H13.93v3h2.2V8.66h-2.2v4.55H12.58V2.81h3.71Zm4.76,9H19.76V8.34A4.54,4.54,0,0,0,19.61,7a.57.57,0,0,0-.56-.44.73.73,0,0,0-.42.11.78.78,0,0,0-.32.35,1.91,1.91,0,0,0-.2.6,4.41,4.41,0,0,0-.07.88v4.73H16.75V5.14H18V6a3.61,3.61,0,0,1,.23-.36,1.63,1.63,0,0,1,.27-.31,1.19,1.19,0,0,1,.33-.22A.86.86,0,0,1,19.22,5a1.78,1.78,0,0,1,.74.15,1.4,1.4,0,0,1,.58.48,2.57,2.57,0,0,1,.37.85,5.12,5.12,0,0,1,.14,1.27Zm4.82,0H21.65V11.79l.59-.88c.21-.32.42-.66.64-1s.41-.71.61-1.08.37-.73.52-1.1a8.17,8.17,0,0,0,.36-1,3.77,3.77,0,0,0,.14-1,2.43,2.43,0,0,0-.22-1.17.74.74,0,0,0-.69-.39,1.25,1.25,0,0,0-.4.07,2.78,2.78,0,0,0-.44.19,4.55,4.55,0,0,0-.43.28A2.86,2.86,0,0,0,22,5l-.16-1.63a3,3,0,0,1,.37-.29,4.09,4.09,0,0,1,.47-.23,4.61,4.61,0,0,1,.53-.15,3.66,3.66,0,0,1,.57,0,2,2,0,0,1,.82.16,1.73,1.73,0,0,1,.66.49,2.68,2.68,0,0,1,.44.88,4.71,4.71,0,0,1,.15,1.27,6.6,6.6,0,0,1-.11,1.16,10.18,10.18,0,0,1-.32,1.17,10.28,10.28,0,0,1-.47,1.15A12,12,0,0,1,24.36,10c-.19.34-.4.66-.6.95s-.41.57-.6.81h2.71Z"/>
  </g>
</svg>
