<svg id="icon" xmlns="http://www.w3.org/2000/svg" width="26" height="16" viewBox="0 0 26 16">
  <defs>
    <style>
      .cls-1 {
        fill: #231815;
      }

      .cls-2 {
        fill: none;
      }
    </style>
  </defs>
  <g>
    <path class="cls-1" d="M24.61,5.88a4.76,4.76,0,0,1,.91,1.68A9.75,9.75,0,0,1,25.8,10a9.56,9.56,0,0,1-.28,2.41,5.73,5.73,0,0,1-.36.91A4.61,4.61,0,0,1,24,14.77a2.86,2.86,0,0,1-1.39.66,4.72,4.72,0,0,1-.87.07H19.63v-11h2.09a3.59,3.59,0,0,1,2.89,1.4ZM21.16,14h.56a2.11,2.11,0,0,0,1.19-.31,2.24,2.24,0,0,0,.77-.84,4.15,4.15,0,0,0,.41-1.26A9.88,9.88,0,0,0,24.21,10a9,9,0,0,0-.14-1.63,3.83,3.83,0,0,0-.43-1.25A2.07,2.07,0,0,0,21.72,6h-.56Z"/>
    <rect class="cls-1" x="15.03" y="8.96" width="2.96" height="1.28"/>
    <path class="cls-1" d="M16.1,4.48,12.59,9.6l3.83,5.9h-2l-2.9-4.75V15.5H9.79v-11h1.7v4l2.7-4Z"/>
    <path class="cls-1" d="M8.09,7.4a4.26,4.26,0,0,1-.17,1.21,7.42,7.42,0,0,1-.45,1.21A10.23,10.23,0,0,1,6.79,11c-.26.39-.53.76-.81,1.12s-.58.68-.88,1-.58.59-.86.84H8.15V15.5H2.05V14l.85-.92c.31-.34.62-.69.92-1.06s.6-.75.89-1.13.54-.77.76-1.14A8.29,8.29,0,0,0,6,8.67a3,3,0,0,0,.2-1,2,2,0,0,0-.32-1.21,1.18,1.18,0,0,0-1-.41,2.47,2.47,0,0,0-.58.07,5.45,5.45,0,0,0-.65.21c-.21.08-.42.18-.62.28a3,3,0,0,0-.51.32l-.25-1.7a3.57,3.57,0,0,1,.55-.3,6,6,0,0,1,.68-.24,6.17,6.17,0,0,1,.77-.16,5.51,5.51,0,0,1,.81,0,4.08,4.08,0,0,1,1.19.16,2.48,2.48,0,0,1,1,.52,2.4,2.4,0,0,1,.63.91A3.33,3.33,0,0,1,8.09,7.4Z"/>
    <path class="cls-1" d="M10.36.5H.2V11.31H3.29c.25-.3.49-.61.72-.92H4l.12-.17H3.29V7.46L3,7.62a.84.84,0,0,1-.52.18.93.93,0,0,1-.33-.07.86.86,0,0,1-.53-.68l0-.15H.87v-2h.6a.83.83,0,0,1,.32-.4,4.32,4.32,0,0,1,.68-.37,5.92,5.92,0,0,1,.81-.29h0V1.6h13v2h1.11V.5ZM2.63,8.22v2H.87v-2Zm0-4.63H.87v-2H2.63Z"/>
  </g>
  <rect class="cls-2" width="26" height="16"/>
</svg>
