<?xml version="1.0" encoding="utf-8"?>
<!-- Generator: Adobe Illustrator 23.0.3, SVG Export Plug-In . SVG Version: 6.00 Build 0)  -->
<svg version="1.1" id="レイヤー_1" xmlns="http://www.w3.org/2000/svg" xmlns:xlink="http://www.w3.org/1999/xlink" x="0px"
	 y="0px" width="36px" height="16px" viewBox="0 0 36 16" style="enable-background:new 0 0 36 16;" xml:space="preserve">
<style type="text/css">
	.st0{fill:none;}
</style>
<title>icon_oneshot-ai-servo</title>
<rect class="st0" width="36" height="16"/>
<g>
	<polygon points="10.5,0.8 1.2,0.8 1.2,2.8 4.6,2.8 4.6,15.1 7.1,15.1 7.1,2.8 10.5,2.8 	"/>
	<polygon points="15.2,11.6 15.2,11.6 13.2,4.4 10.5,4.4 13.7,15 16.5,15 19.7,4.4 17.2,4.4 	"/>
	<rect x="22.2" y="13.7" width="12.6" height="1.5"/>
	<polygon points="34.3,7.1 31.2,7.1 31.2,4.4 26.4,4.4 26.4,7.1 22.9,7.1 28.6,12.8 	"/>
	<rect x="26.4" y="1.4" width="4.8" height="1.4"/>
</g>
</svg>
