<svg id="レイヤー_1" data-name="レイヤー 1" xmlns="http://www.w3.org/2000/svg" width="24" height="16" viewBox="0 0 24 16">
  <defs>
    <style>
      .cls-1 {
        fill: none;
      }
    </style>
  </defs>
  <title>icon_selftimer-10sec2</title>
  <path d="M12.7,10.3v3.25q-0.33.28-.67,0.53a7.47,7.47,0,0,1-.72.46,7.84,7.84,0,0,1-2.54.87A6.52,6.52,0,0,1,6,15.22a5.9,5.9,0,0,1-1.3-.5A9.51,9.51,0,0,1,3.54,14a7.49,7.49,0,0,1-1-.9A5.82,5.82,0,0,1,1.81,12,6.94,6.94,0,0,1,1.13,6.7a0.87,0.87,0,0,1,.43-0.56A0.89,0.89,0,0,1,2.27,6a0.91,0.91,0,0,1,.56.43,0.89,0.89,0,0,1,.08.69,5.12,5.12,0,0,0-.13,2,7,7,0,0,0,.23,1,4.55,4.55,0,0,0,.4.9A5.13,5.13,0,0,0,4.7,12.55a4.7,4.7,0,0,0,1.81.91,4.94,4.94,0,0,0,1,.15,7.5,7.5,0,0,0,1,0A4.71,4.71,0,0,0,10.41,13a4.65,4.65,0,0,0,.8-0.55,5.09,5.09,0,0,0,.7-0.73A4.64,4.64,0,0,0,12.35,11,7.78,7.78,0,0,0,12.7,10.3ZM8.46,7.05l2.28,2.31a0.34,0.34,0,0,1-.12.16,1.24,1.24,0,0,1-.28.35l-0.56.58-1,1a1.65,1.65,0,0,1-.36-0.3l-0.3-.28-0.4-.4L7.17,9.87,6.4,9.11C6.18,8.89,6,8.68,5.81,8.48l-0.49-.6L2.93,4.69a0.73,0.73,0,0,1-.21-0.54A0.74,0.74,0,0,1,2.93,3.6a0.86,0.86,0,0,1,.54-0.23A0.88,0.88,0,0,1,4,3.6L7.21,6,7.55,6.25,7.88,6.52Q8.18,6.77,8.46,7.05ZM9.9,2.53a1.75,1.75,0,0,1-.17.79A2.16,2.16,0,0,1,9.3,4a2.25,2.25,0,0,1-.66.43,1.65,1.65,0,0,1-.77.17,1.75,1.75,0,0,1-.79-0.17A2.18,2.18,0,0,1,6.43,4,1.93,1.93,0,0,1,6,3.32a2.09,2.09,0,0,1-.15-0.79A2.13,2.13,0,0,1,6,1.75a1.72,1.72,0,0,1,.43-0.66A2.34,2.34,0,0,1,7.08.65,2.09,2.09,0,0,1,7.87.5a2.48,2.48,0,0,1,.4,0,1.61,1.61,0,0,1,.38.12,3.34,3.34,0,0,1,.66.45,1.64,1.64,0,0,1,.43.66A1.65,1.65,0,0,1,9.9,2.53Zm3.65,1.95L12.07,5.6a5.61,5.61,0,0,0-.35-0.45L11.3,4.71A0.86,0.86,0,0,1,11,4.06a0.79,0.79,0,0,1,.23-0.66,0.94,0.94,0,0,1,.63-0.3,0.82,0.82,0,0,1,.68.23,4.21,4.21,0,0,1,.53.52C13.23,4.05,13.39,4.26,13.54,4.48Zm1.91,1v9.88H13.79v-8l-1.2.92L11.83,7.15,14,5.48h1.44Zm7.66,4.9a7.64,7.64,0,0,1-.77,3.8,2.4,2.4,0,0,1-2.17,1.31,2.19,2.19,0,0,1-1.32-.4A3,3,0,0,1,18,14a5.65,5.65,0,0,1-.52-1.6,11,11,0,0,1-.17-2,11,11,0,0,1,.18-2.08A5.66,5.66,0,0,1,18,6.76a2.94,2.94,0,0,1,.93-1.06,2.27,2.27,0,0,1,1.3-.38,2.15,2.15,0,0,1,1.32.4,3,3,0,0,1,.89,1.1A5.73,5.73,0,0,1,23,8.43,11.57,11.57,0,0,1,23.11,10.38Zm-1.73,0a9.87,9.87,0,0,0-.27-2.63,1,1,0,0,0-.9-0.93,1.07,1.07,0,0,0-.89.88A8.15,8.15,0,0,0,19,10.42Q19,14,20.19,14a1,1,0,0,0,.89-0.9A9,9,0,0,0,21.38,10.42Z"/>
  <rect class="cls-1" width="24" height="16"/>
</svg>
