<svg xmlns="http://www.w3.org/2000/svg" width="31" height="16" viewBox="0 0 31 16">
  <defs>
    <style>
      .cls-1 {
        fill: none;
      }

      .cls-2 {
        fill: #fff;
      }
    </style>
  </defs>
  <g id="frame">
    <rect class="cls-1" width="31" height="16"/>
  </g>
  <g id="_w">
    <path class="cls-2" d="M30.5,14.36V15.5H23a7.24,7.24,0,0,0-.58-2.91,7.91,7.91,0,0,0-1.6-2.38,7.41,7.41,0,0,0-10.54,0,7.91,7.91,0,0,0-1.6,2.38,7.24,7.24,0,0,0-.58,2.91H.5V14.36H3c0-.26.08-.52.12-.78a7.09,7.09,0,0,1,.14-.78L.86,12.12l.52-1.73,2.34.68c.11-.28.22-.55.34-.82a7.53,7.53,0,0,1,.41-.8L2.39,8.11l1-1.49L5.45,8A10.62,10.62,0,0,1,6.62,6.58L5,4.73,6.36,3.56,8,5.41a12.16,12.16,0,0,1,1.5-1l-1-2.22,1.63-.74,1,2.24c.28-.11.56-.2.84-.29s.58-.16.88-.23L12.47.76,14.26.5,14.62,3l.44-.05h.88l.47.05L16.74.5l1.79.26L18.17,3.2c.3.07.59.14.88.23s.56.18.84.29l1-2.24,1.66.74-1,2.22c.26.15.51.31.76.47l.74.5,1.62-1.85L26,4.73,24.38,6.58A15.12,15.12,0,0,1,25.55,8l2.09-1.33,1,1.53-2.08,1.3a7.53,7.53,0,0,1,.41.8c.12.27.23.55.34.86l2.34-.72.52,1.73-2.37.71a5.86,5.86,0,0,1,.14.75c0,.26.07.52.12.78Z" transform="translate(0 0)"/>
  </g>
</svg>
