<svg id="icon" xmlns="http://www.w3.org/2000/svg" width="15.98" height="16" viewBox="0 0 15.98 16">
  <defs>
    <style>
      .cls-1 {
        opacity: 0.5;
      }
    </style>
  </defs>
  <g>
    <path d="M11,8.87A2.11,2.11,0,1,0,13.06,11,2.11,2.11,0,0,0,11,8.87Z"/>
    <path d="M8.48,9.21l.08-.1a3,3,0,0,1,.53-.53l.1-.07L7.75,7.07l-.7.7Z"/>
    <path d="M8,11.46l0-.13a2.42,2.42,0,0,1,0-.37,2.49,2.49,0,0,1,0-.37l0-.13h-2v1Z"/>
    <path d="M10.46,5.94V8l.12,0,.37,0,.37,0,.13,0v-2Z"/>
    <path d="M13.34,9.11l.08.1,1.44-1.44-.7-.7L12.72,8.51l.1.07A2.9,2.9,0,0,1,13.34,9.11Z"/>
    <path d="M11,14a2.49,2.49,0,0,1-.37,0l-.12,0v2h1V14l-.13,0A2.42,2.42,0,0,1,11,14Z"/>
    <path d="M13.42,12.75l-.08.1a2.9,2.9,0,0,1-.52.53l-.1.07,1.44,1.44.7-.7Z"/>
    <path d="M14,10.48l0,.13c0,.14,0,.26,0,.37s0,.23,0,.37l0,.13h2v-1Z"/>
    <path d="M8.56,12.83l-.08-.1L7.05,14.17l.7.71,1.44-1.44-.1-.08A3,3,0,0,1,8.56,12.83Z"/>
  </g>
  <g>
    <path d="M9.54,14.37,8.41,15.51a7.19,7.19,0,0,0,1.13-.18Z"/>
    <path d="M6.4,14.82a.92.92,0,0,1-.27-.63,6.63,6.63,0,0,1,1.64-13A6.56,6.56,0,0,1,10,1.53V5.16A.92.92,0,0,1,10.46,5h1a.91.91,0,0,1,.91.91V7.57l1.15-1.15a.94.94,0,0,1,1.29,0l.71.7h0a7.77,7.77,0,1,0-8.42,8.38Z"/>
    <path d="M15.51,8.41,14.36,9.57h1a7.38,7.38,0,0,0,.18-1.16Z"/>
  </g>
  <path class="cls-1" d="M8,1.15H7.55a7.09,7.09,0,0,0-2,.37v8.1a.77.77,0,0,1,.34-.07H7.53L6.4,8.42a.92.92,0,0,1,0-1.3l.7-.7a.91.91,0,0,1,.65-.27h0a.91.91,0,0,1,.64.27L9.54,7.57V5.94A.91.91,0,0,1,10,5.16V1.53A6.75,6.75,0,0,0,8,1.15Z"/>
  <path class="cls-1" d="M5.58,12.3V14l.55.17a.75.75,0,0,0,0,.2.92.92,0,0,1,.24-.86l1.15-1.16H5.92A.77.77,0,0,1,5.58,12.3Z"/>
</svg>
