<?xml version="1.0" encoding="utf-8"?>
<!-- Generator: Adobe Illustrator 23.0.3, SVG Export Plug-In . SVG Version: 6.00 Build 0)  -->
<svg version="1.1" id="レイヤー_1" xmlns="http://www.w3.org/2000/svg" xmlns:xlink="http://www.w3.org/1999/xlink" x="0px"
	 y="0px" width="15.3px" height="16px" viewBox="0 0 15.3 16" style="enable-background:new 0 0 15.3 16;" xml:space="preserve">
<style type="text/css">
	.st0{fill:none;}
</style>
<title>icon_erase</title>
<rect x="0" y="0" class="st0" width="15.3" height="16"/>
<g>
	<path d="M1.6,6.8c0.5-2.5,2.6-4.5,5.1-4.9L6.4,0.7C3.4,1.3,1.1,3.5,0.5,6.4L1.6,6.8z"/>
	<path d="M6.7,14.1c-2.6-0.4-4.6-2.4-5.1-4.9L0.5,9.5c0.6,2.9,3,5.2,5.9,5.7L6.7,14.1z"/>
	<path d="M13.8,9.2c-0.5,2.4-2.3,4.2-4.7,4.8l0.3,1.1c2.7-0.7,4.9-2.8,5.5-5.6L13.8,9.2z"/>
	<path d="M9.1,1.9c2.3,0.6,4.2,2.4,4.7,4.8l1.1-0.3c-0.6-2.8-2.7-4.9-5.5-5.6L9.1,1.9z"/>
</g>
</svg>
