<svg xmlns="http://www.w3.org/2000/svg" width="16" height="16" viewBox="0 0 16 16">
  <g id="icon">
    <g>
      <g>
        <path d="M2,12.46l.54.39a2.45,2.45,0,0,1,.43.42,1.89,1.89,0,0,1,.28.5,1.83,1.83,0,0,1,.11.64,1.68,1.68,0,0,1-.12.63,1.46,1.46,0,0,1-.35.5,1.75,1.75,0,0,1-.56.34,2.19,2.19,0,0,1-.75.12A3.52,3.52,0,0,1,1,16a2.68,2.68,0,0,1-.46-.09,1.52,1.52,0,0,1-.32-.1A.44.44,0,0,1,0,15.69l.08-.91a.63.63,0,0,0,.18.11L.61,15l.39.1a3,3,0,0,0,.42,0,1.24,1.24,0,0,0,.33,0A.87.87,0,0,0,2,15a.71.71,0,0,0,.18-.23.79.79,0,0,0,.06-.32,1,1,0,0,0-.21-.6,2.57,2.57,0,0,0-.66-.56,5.38,5.38,0,0,1-.58-.41,2.62,2.62,0,0,1-.44-.44,1.64,1.64,0,0,1-.27-.48,1.4,1.4,0,0,1-.1-.54,1.59,1.59,0,0,1,.13-.66,1.57,1.57,0,0,1,.36-.51,1.91,1.91,0,0,1,.56-.32,2.19,2.19,0,0,1,.7-.11,4.17,4.17,0,0,1,.52,0,3.14,3.14,0,0,1,.41.07A1.2,1.2,0,0,1,3,10L3.1,10,3,10.94,2.8,10.8a.92.92,0,0,0-.25-.09,1.31,1.31,0,0,0-.31-.06l-.4,0a1.54,1.54,0,0,0-.3,0,.75.75,0,0,0-.25.13.63.63,0,0,0-.16.23.74.74,0,0,0-.07.34.78.78,0,0,0,.07.31.83.83,0,0,0,.19.27,1.45,1.45,0,0,0,.29.25C1.72,12.29,1.84,12.37,2,12.46Z"/>
        <path d="M3.85,9.88h3.7v.86H6.23V15.9H5.16V10.74H3.85Z"/>
        <path d="M9.4,13.22v1.85h2.07v.83H8.33v-6h3.09v.83h-2v1.68h1.8v.83Z"/>
        <path d="M14,9.88a3,3,0,0,1,.89.12,1.74,1.74,0,0,1,.64.37,1.47,1.47,0,0,1,.38.57,2.11,2.11,0,0,1,.13.77,2.07,2.07,0,0,1-.13.77,1.47,1.47,0,0,1-.38.57,1.74,1.74,0,0,1-.64.37,3,3,0,0,1-.89.12h-.39V15.9H12.51v-6Zm0,2.83a1.27,1.27,0,0,0,.46-.07.69.69,0,0,0,.3-.2.87.87,0,0,0,.18-.31,1.86,1.86,0,0,0,0-.42,1.07,1.07,0,0,0-.24-.73,1,1,0,0,0-.75-.27h-.39v2Z"/>
      </g>
      <path d="M14.11,0H1.89A1.11,1.11,0,0,0,.78,1.11V7.78A1.11,1.11,0,0,0,1.89,8.89H14.11a1.11,1.11,0,0,0,1.11-1.11V1.11A1.11,1.11,0,0,0,14.11,0ZM7.89,2.25H6.32V7.53H5V2.25H3.49V1.37h4.4Zm3.16,5.28H9.72L8.09,2.75H9.33l1.05,3.63,1.07-3.63h1.24Z"/>
    </g>
  </g>
</svg>
