<svg id="レイヤー_1" data-name="レイヤー 1" xmlns="http://www.w3.org/2000/svg" width="16" height="16" viewBox="0 0 16 16">
  <defs>
    <style>
      .cls-1 {
        fill: none;
      }
    </style>
  </defs>
  <title>icon_date</title>
  <path d="M8,0.5a7.26,7.26,0,0,1,2.92.59,7.56,7.56,0,0,1,4,4A7.23,7.23,0,0,1,15.52,8a7.21,7.21,0,0,1-.59,2.91,7.6,7.6,0,0,1-4,4A7.28,7.28,0,0,1,8,15.5a7.28,7.28,0,0,1-2.92-.59,7.6,7.6,0,0,1-4-4A7.21,7.21,0,0,1,.48,8a7.23,7.23,0,0,1,.59-2.9,7.56,7.56,0,0,1,4-4A7.26,7.26,0,0,1,8,.5ZM8,14.24a6.07,6.07,0,0,0,2.42-.49,6.22,6.22,0,0,0,3.31-3.32A6.12,6.12,0,0,0,14.23,8a6.06,6.06,0,0,0-.49-2.42,6.24,6.24,0,0,0-3.31-3.31,6.26,6.26,0,0,0-4.85,0,6.38,6.38,0,0,0-2,1.33,6.21,6.21,0,0,0-1.34,2A6.07,6.07,0,0,0,1.76,8a6.2,6.2,0,0,0,1.83,4.42,6.38,6.38,0,0,0,2,1.33A6.07,6.07,0,0,0,8,14.24Zm4.46-9.45a0.62,0.62,0,0,1-.19.45L8.33,9.19a0.63,0.63,0,0,1-.91,0L4.34,6.1a0.62,0.62,0,0,1-.19-0.45A0.59,0.59,0,0,1,4.34,5.2,0.63,0.63,0,0,1,4.79,5a0.81,0.81,0,0,1,.23,0,0.54,0.54,0,0,1,.22.14L7.88,7.83l3.49-3.49a0.62,0.62,0,0,1,.45-0.19A0.63,0.63,0,0,1,12.47,4.79Z"/>
  <rect class="cls-1" width="16" height="16"/>
</svg>
