<svg id="icon" xmlns="http://www.w3.org/2000/svg" width="18" height="16" viewBox="0 0 18 16">
  <defs>
    <style>
      .cls-1 {
        fill: none;
      }
    </style>
  </defs>
  <g>
    <path d="M12.51,12l-.35-.48s2-2,.79-4A10.1,10.1,0,0,0,9.29,4.3v9.22h0a2.32,2.32,0,0,1-1.74,1.84,2.08,2.08,0,0,1-2.72-.95c-.28-.9.47-1.94,1.68-2.33a2.82,2.82,0,0,1,1.6,0V.5H9.29A5.29,5.29,0,0,0,11,3.6C12.5,5,14.17,6.37,14.17,8.15A4.77,4.77,0,0,1,12.51,12Z"/>
    <g>
      <path d="M10.55,1.44a4.35,4.35,0,0,0,.77,1.17h4.95V13.39h-6v.2a2.59,2.59,0,0,1-.29,1h7.5V1.44Z"/>
      <path d="M3.92,13.39H1.73V2.61H7.17V1.44H.56V14.56H3.9A2.44,2.44,0,0,1,3.92,13.39Z"/>
    </g>
  </g>
  <rect class="cls-1" width="18" height="16"/>
</svg>
