<svg id="icon" xmlns="http://www.w3.org/2000/svg" width="28.75" height="16" viewBox="0 0 28.75 16">
  <defs>
    <style>
      .cls-1 {
        fill: #231815;
      }
    </style>
  </defs>
  <path class="cls-1" d="M9.73,10.3,9.5,10V3.5a1.5,1.5,0,0,0-3,0V10l-.23.28a2.22,2.22,0,0,0-.52,1.44,2.25,2.25,0,1,0,4.5,0A2.22,2.22,0,0,0,9.73,10.3ZM8,13a1.26,1.26,0,0,1-1.25-1.25,1.23,1.23,0,0,1,.29-.8l.46-.56V9a.5.5,0,0,1,1,0v1.38l.46.56a1.23,1.23,0,0,1,.29.8A1.26,1.26,0,0,1,8,13Z"/>
  <path class="cls-1" d="M14,0H2A2,2,0,0,0,0,2V14a2,2,0,0,0,2,2H14a2,2,0,0,0,2-2V2A2,2,0,0,0,14,0ZM5.5,9.66V3.5a2.5,2.5,0,0,1,5,0V9.66a3.25,3.25,0,1,1-5,0Zm-4-.22v-1H5v1Zm9.5,0v-1h3.5v1Z"/>
  <g>
    <polygon class="cls-1" points="19 5.5 21 5.5 21 4.73 23 4.73 20 0.73 17 4.73 19 4.73 19 5.5"/>
    <rect class="cls-1" x="19" y="6.5" width="2" height="1"/>
    <rect class="cls-1" x="19" y="8.5" width="2" height="1"/>
    <polygon class="cls-1" points="23.91 5.17 25.46 6.42 21 11.97 21 10.5 19 10.5 19 15.15 21.01 15.15 27.02 7.68 28.58 8.93 28.75 3.94 23.91 5.17"/>
  </g>
</svg>
