<svg id="icon" xmlns="http://www.w3.org/2000/svg" width="21" height="16" viewBox="0 0 21 16">
  <defs>
    <style>
      .cls-1 {
        fill: none;
      }
    </style>
  </defs>
  <g>
    <path d="M7.93,12l-.36-.48s2-2,.8-4A10.19,10.19,0,0,0,4.71,4.3v9.22h0A2.35,2.35,0,0,1,3,15.36a2.07,2.07,0,0,1-2.71-.95c-.29-.9.47-1.94,1.68-2.33a2.82,2.82,0,0,1,1.6,0V.5H4.71A5.31,5.31,0,0,0,6.4,3.6C7.92,5,9.58,6.37,9.58,8.15A4.78,4.78,0,0,1,7.93,12Z"/>
    <path d="M15.89,5.66a4.92,4.92,0,1,0,4.92,4.92A4.92,4.92,0,0,0,15.89,5.66Zm-.58,1.68A.89.89,0,0,1,16,7.07a.85.85,0,0,1,.64.27.88.88,0,0,1,.27.65.89.89,0,0,1-.27.65.91.91,0,0,1-1.3,0A.92.92,0,0,1,15,8,.89.89,0,0,1,15.31,7.34Zm2.14,6.75H14.33v-.54h.12c.29,0,.47-.05.55-.15a1,1,0,0,0,.11-.53V11.36a.88.88,0,0,0-.12-.53q-.11-.15-.54-.15h-.12v-.54l2.43-.39v3.12a.89.89,0,0,0,.12.54.8.8,0,0,0,.57.14Z"/>
  </g>
  <rect class="cls-1" width="21" height="16"/>
</svg>
