<svg xmlns="http://www.w3.org/2000/svg" width="23" height="16" viewBox="0 0 23 16">
  <defs>
    <style>
      .cls-1 {
        fill: none;
      }

      .cls-2 {
        opacity: 0.75;
      }
    </style>
  </defs>
  <g id="base">
    <rect class="cls-1" width="23" height="16"/>
  </g>
  <g id="icon">
    <g>
      <polygon points="21.77 8.26 18.97 5.46 18.97 7.33 16.63 7.33 16.63 5.46 13.83 8.26 16.63 11.06 16.63 9.19 18.97 9.19 18.97 11.06 21.77 8.26"/>
      <g>
        <path class="cls-2" d="M9.66,1.19A4.58,4.58,0,0,0,7.87,2L8,2.12A10.4,10.4,0,0,1,9.63,8,10.37,10.37,0,0,1,8,13.88L7.87,14a4.58,4.58,0,0,0,1.79.81c1.86-.73,3.24-3.5,3.24-6.81S11.52,1.92,9.66,1.19Z"/>
        <path d="M4.78,5.5H1.51c-.07.32-.13.66-.18,1H4.6C4.64,6.16,4.71,5.82,4.78,5.5Z"/>
        <path d="M5.37,3.75H2.1a9,9,0,0,0-.38,1H5A7.42,7.42,0,0,1,5.37,3.75Z"/>
        <path d="M4.5,8q0-.37,0-.75H1.26q0,.38,0,.75t0,.75H4.53Q4.5,8.38,4.5,8Z"/>
        <path d="M5.76,13H2.5a5.56,5.56,0,0,0,.54.75H6.31A4.84,4.84,0,0,1,5.76,13Z"/>
        <path d="M8.7,1H5.43a2.77,2.77,0,0,0-1.55.5H7.15A2.77,2.77,0,0,1,8.7,1Z"/>
        <path d="M4.6,9.5H1.33c0,.34.11.68.18,1H4.78C4.71,10.18,4.64,9.84,4.6,9.5Z"/>
        <path d="M6.31,2.25H3A6.27,6.27,0,0,0,2.5,3H5.76A5.37,5.37,0,0,1,6.31,2.25Z"/>
        <path d="M3.88,14.5a2.77,2.77,0,0,0,1.55.5H8.7a2.77,2.77,0,0,1-1.55-.5Z"/>
        <path d="M5,11.25H1.72a9,9,0,0,0,.38,1H5.37A7.42,7.42,0,0,1,5,11.25Z"/>
      </g>
    </g>
  </g>
</svg>
