<svg id="レイヤー_1" data-name="レイヤー 1" xmlns="http://www.w3.org/2000/svg" width="32" height="16" viewBox="0 0 32 16">
  <defs>
    <style>
      .cls-1 {
        fill: none;
      }
    </style>
  </defs>
  <title>icon_raw-digi-optimizer</title>
  <g>
    <g>
      <path d="M3.4,8A4.6,4.6,0,0,0,8,12.59v-1A3.59,3.59,0,0,1,8,4.4v-1A4.6,4.6,0,0,0,3.4,8Z"/>
      <path d="M8,3.42a4.57,4.57,0,1,1,0,9.13v1A5.58,5.58,0,1,0,8,2.4v1Z"/>
      <path d="M0.51,8A7.49,7.49,0,0,0,8,15.47V13.76A5.78,5.78,0,0,1,8,2.21V0.5A7.49,7.49,0,0,0,.51,8Z"/>
    </g>
    <polyline points="26.29 6.1 22.27 6.1 22.27 15.5 23.36 15.5 23.36 11.17 26.01 11.17 26.01 10.07 23.36 10.07 23.36 7.24 26.29 7.24 26.29 6.1"/>
    <polyline points="31.49 6.1 27.48 6.1 27.48 15.5 28.57 15.5 28.57 11.17 31.22 11.17 31.22 10.07 28.57 10.07 28.57 7.24 31.49 7.24 31.49 6.1"/>
    <path d="M19.51,13.3a1.31,1.31,0,0,1-1.15,1h0a1.31,1.31,0,0,1-1.12-1,6.56,6.56,0,0,1-.42-2.54,6.73,6.73,0,0,1,.39-2.51,1.35,1.35,0,0,1,1.16-1.05,1.33,1.33,0,0,1,1.15,1.05,6.33,6.33,0,0,1,.41,2.48,6.51,6.51,0,0,1-.41,2.55h0Zm0.84-5.85a2.17,2.17,0,0,0-2-1.36,2.21,2.21,0,0,0-2,1.34,6.88,6.88,0,0,0-.76,3.4,6.87,6.87,0,0,0,.69,3.29,2.19,2.19,0,0,0,1.93,1.34h0a2.26,2.26,0,0,0,2-1.29,7,7,0,0,0,.74-3.5,6.71,6.71,0,0,0-.69-3.24"/>
  </g>
  <rect class="cls-1" width="32" height="16"/>
</svg>
