<svg id="icon" xmlns="http://www.w3.org/2000/svg" width="23" height="16" viewBox="0 0 23 16">
  <defs>
    <style>
      .cls-1 {
        fill: #9fa0a0;
      }

      .cls-2 {
        fill: none;
      }
    </style>
  </defs>
  <title>icon_wifi-off-2-gray</title>
  <g>
    <path class="cls-1" d="M10.46,12.44a1.92,1.92,0,1,0,.31,1.66c-.06-.17-.11-.34-.15-.52A7.15,7.15,0,0,1,10.46,12.44Z"/>
    <path class="cls-1" d="M11.41,8.3a5.82,5.82,0,0,0-6.24.81l1,1.24a4.2,4.2,0,0,1,4.47-.6,4.37,4.37,0,0,1,.48-1.13A3.29,3.29,0,0,1,11.41,8.3Z"/>
    <path class="cls-1" d="M14.16,7.34l.84-1a9.44,9.44,0,0,0-12.15,0l1,1.25a7.8,7.8,0,0,1,9.66-.31h0A2.91,2.91,0,0,1,14.16,7.34Z"/>
    <path class="cls-1" d="M16.28,4.81l1-1.24a13.05,13.05,0,0,0-16.81,0l1,1.24a11.43,11.43,0,0,1,14.72,0Z"/>
    <path class="cls-1" d="M13.56,8.13a1.87,1.87,0,0,1,1,.24,2.05,2.05,0,0,1,.71.71,3.74,3.74,0,0,1,.45,1.15,7.1,7.1,0,0,1,.16,1.57,7,7,0,0,1-.16,1.57,3.74,3.74,0,0,1-.45,1.15,2.05,2.05,0,0,1-.71.71,2,2,0,0,1-1.9,0,2.08,2.08,0,0,1-.71-.71,3.72,3.72,0,0,1-.45-1.15,7,7,0,0,1-.16-1.57,7.09,7.09,0,0,1,.16-1.57,3.72,3.72,0,0,1,.45-1.15,2.08,2.08,0,0,1,.71-.71A1.86,1.86,0,0,1,13.56,8.13Zm1.2,3.68a7.78,7.78,0,0,0-.07-1.13,3.39,3.39,0,0,0-.23-.85,1.39,1.39,0,0,0-.38-.53A.84.84,0,0,0,13,9.3a1.39,1.39,0,0,0-.38.53,3.38,3.38,0,0,0-.23.85,7.78,7.78,0,0,0-.07,1.13,7.65,7.65,0,0,0,.07,1.12,3.42,3.42,0,0,0,.23.85,1.39,1.39,0,0,0,.38.53.84.84,0,0,0,1.05,0,1.39,1.39,0,0,0,.38-.53,3.43,3.43,0,0,0,.23-.85A7.65,7.65,0,0,0,14.76,11.81Z"/>
    <path class="cls-1" d="M16.37,8.25H19.2v1H17.4v2h1.67v1H17.4v3.12h-1Z"/>
    <path class="cls-1" d="M19.65,8.25h2.83v1h-1.8v2h1.68v1H20.68v3.12h-1Z"/>
  </g>
  <rect class="cls-2" width="23" height="16"/>
</svg>
