<svg id="レイヤー_1" data-name="レイヤー 1" xmlns="http://www.w3.org/2000/svg" width="8.25mm" height="5.64mm" viewBox="0 0 23.4 16">
  <defs>
    <style>
      .cls-1 {
        fill: none;
      }
    </style>
  </defs>
  <title>icon_btn-illum-panel-info</title>
  <rect class="cls-1" width="23.4" height="16"/>
  <g>
    <g>
      <path d="M8.55,3.7c.1,0,.1,0,.1-.1l.8-.4a.1.1,0,0,1,.1-.1.3.3,0,0,0,0-.4c-.1-.1-.2-.1-.4-.1l-.9.5a.45.45,0,0,0,0,.5A.77.77,0,0,0,8.55,3.7Z" transform="translate(0 0)"/>
      <path d="M1.25,3.1l.9.5.1.1c.1,0,.1,0,.2-.1a.31.31,0,0,0,.1-.2c0-.1-.1-.2-.1-.3l-.8-.5h-.2a.37.37,0,0,0-.3.1C1,2.8,1.15,3.1,1.25,3.1Z" transform="translate(0 0)"/>
      <path d="M2,5.6c-.1-.1-.1-.1-.2-.1l-1,.1c-.1.1-.1.1-.2.1s-.1.1-.1.2a.1.1,0,0,0,.1.1c.1.1.1.1.2.1H1l.9-.1C2,6,2,5.9,2,5.9s.1-.1.1-.2S2.15,5.6,2,5.6Z" transform="translate(0 0)"/>
      <path d="M3.15,7.6c-.1,0-.1.1-.2.1l-.6.7c-.1.1-.1.1-.1.2s0,.1.1.2a.3.3,0,0,0,.4,0l.7-.7V7.9c0-.1,0-.1-.1-.2A.31.31,0,0,0,3.15,7.6Z" transform="translate(0 0)"/>
      <path d="M5.45,8.5c-.1,0-.1,0-.2.1s-.1.1-.1.2v1a.32.32,0,0,0,.3.3c.1,0,.1,0,.2-.1s.1-.1.1-.2v-1c0-.1,0-.1-.1-.2S5.55,8.5,5.45,8.5Z" transform="translate(0 0)"/>
      <path d="M8,5.3a2.66,2.66,0,0,0-.3-1.2,3.92,3.92,0,0,0-.8-1V.4H3.85V3.2a1.78,1.78,0,0,0-.7.8,2.63,2.63,0,0,0,1.2,3.5,2.38,2.38,0,0,0,1.2.3,3,3,0,0,0,1-.2,2.1,2.1,0,0,0,.7-.5,2.41,2.41,0,0,0,.6-.8A3.55,3.55,0,0,0,8,5.3ZM4.55,1.1h1.8V2.8a3.67,3.67,0,0,0-1.8-.1Zm2.6,4.8a2.09,2.09,0,0,1-.4.6,3.12,3.12,0,0,1-.6.4,1.71,1.71,0,0,1-1.4,0,2.09,2.09,0,0,1-.6-.4,3.11,3.11,0,0,1-.4-.6,1.84,1.84,0,0,1,.4-2,1.54,1.54,0,0,1,.6-.4,1.71,1.71,0,0,1,1.4,0c.4.1.7.5,1,1a1.7,1.7,0,0,1,.1.7A1.48,1.48,0,0,1,7.15,5.9Z" transform="translate(0 0)"/>
      <path d="M8.15,7.8a.37.37,0,0,0-.3-.1c-.1,0-.1,0-.2.1s-.1.1-.1.2,0,.1.1.2l.6.7c0,.1.1.1.2.1a.54.54,0,0,0,.4-.3c0-.1,0-.1-.1-.2Z" transform="translate(0 0)"/>
      <path d="M10.15,5.9c-.1-.1-.1-.1-.2-.1L9,5.7H9a.32.32,0,0,0-.3.3.1.1,0,0,0,.1.1.1.1,0,0,0,.1.1l1,.1H10c.1,0,.1,0,.2-.1l.1-.1C10.25,6,10.25,6,10.15,5.9Z" transform="translate(0 0)"/>
    </g>
    <path d="M17.59,6.1a4.8,4.8,0,0,0-4.8,4.8,4.87,4.87,0,0,0,4.8,4.8,4.8,4.8,0,0,0,0-9.6Zm0,1.5a.9.9,0,1,1-.9.9A.9.9,0,0,1,17.59,7.6Zm1.6,6.8h-3.1v-.5l.6-.2V11l-.6-.3,2.5-.4v3.4l.6.2Z" transform="translate(0 0)"/>
    <polygon points="13.46 2 7.16 14.6 8.66 14.6 15.06 2 13.46 2"/>
  </g>
</svg>
