<svg id="icon" xmlns="http://www.w3.org/2000/svg" width="34.81" height="16" viewBox="0 0 34.81 16">
  <g>
    <path d="M16,15.33,13.74,6a.54.54,0,0,0-1-.19A4,4,0,0,1,9.24,7.3H8.41A.6.6,0,0,0,8,7.51.54.54,0,0,0,7.83,8l2,7.61a.55.55,0,0,0,.53.41h5.16a.54.54,0,0,0,.42-.21A.51.51,0,0,0,16,15.33Z"/>
    <path d="M9.49,0H0V6.57H9.49A3.29,3.29,0,0,0,9.49,0ZM9.38,5.49a2.22,2.22,0,1,1,2.21-2.22A2.21,2.21,0,0,1,9.38,5.49Z"/>
  </g>
  <g>
    <path d="M23.32,7h4.49v6.9l-.51.28a7.55,7.55,0,0,1-.76.3,9.54,9.54,0,0,1-1,.25,7.39,7.39,0,0,1-1.3.1,6.54,6.54,0,0,1-2.29-.41A5.16,5.16,0,0,1,20,13.16,6,6,0,0,1,18.72,11a9.23,9.23,0,0,1-.48-3.15,9,9,0,0,1,.49-3.15,6,6,0,0,1,1.32-2.18A5.13,5.13,0,0,1,22,1.25,6.61,6.61,0,0,1,24.29.84a9.14,9.14,0,0,1,1.22.08,7.11,7.11,0,0,1,1,.19,5.6,5.6,0,0,1,.72.23l.46.21-.12,2.11c-.16-.1-.35-.2-.57-.32a5.54,5.54,0,0,0-.73-.3,7.21,7.21,0,0,0-.89-.23,5.34,5.34,0,0,0-1-.09A3.42,3.42,0,0,0,22.89,3,3.22,3.22,0,0,0,21.71,4a4.52,4.52,0,0,0-.79,1.6,7.68,7.68,0,0,0-.29,2.27,9,9,0,0,0,.26,2.28,4.7,4.7,0,0,0,.75,1.59,3,3,0,0,0,1.12.95,3.4,3.4,0,0,0,1.43.31,4,4,0,0,0,.54,0,2.8,2.8,0,0,0,.37-.1,1,1,0,0,0,.27-.15l.25-.16V8.88h-2.3Z"/>
    <path d="M33.93,3.94a1.91,1.91,0,0,1,.54.06,1.51,1.51,0,0,1,.34.14V6.35a4,4,0,0,0-.51-.2,1.47,1.47,0,0,0-.41-.07,1.61,1.61,0,0,0-.59.13,1.66,1.66,0,0,0-.57.45,2.5,2.5,0,0,0-.42.85,4.58,4.58,0,0,0-.17,1.35v5.79H30V4.1h2.13V5.51L32.43,5a4.15,4.15,0,0,1,.43-.51,2.63,2.63,0,0,1,.49-.39A1.17,1.17,0,0,1,33.93,3.94Z"/>
  </g>
</svg>
