<svg id="レイヤー_1" data-name="レイヤー 1" xmlns="http://www.w3.org/2000/svg" width="29" height="16" viewBox="0 0 29 16">
  <defs>
    <style>
      .cls-1 {
        fill: none;
      }
    </style>
  </defs>
  <title>icon_pause-mov-servo</title>
  <g>
    <path d="M25.48,15.4V8.85h2.58V9.7H26.35v1.71h1.29v0.85H26.35V15.4H25.48Z"/>
    <path d="M2.56,9.78a3.2,3.2,0,0,1,1.2.28l0-1a4.45,4.45,0,0,0-1.31-.23,1.46,1.46,0,0,0-1.09.44,1.78,1.78,0,0,0-.47,1.29,1.94,1.94,0,0,0,.8,1.67L2.2,12.58a2.27,2.27,0,0,1,.49.42,1,1,0,0,1,.16.55,1,1,0,0,1-.22.68,0.69,0.69,0,0,1-.53.23,1.64,1.64,0,0,1-1-.38L1,15.11a1.85,1.85,0,0,0,1.12.29,1.52,1.52,0,0,0,1.18-.48,2,2,0,0,0,.48-1.45,2.15,2.15,0,0,0-.21-1,2.11,2.11,0,0,0-.65-0.68l-0.53-.39A1.59,1.59,0,0,1,2,11.06a0.86,0.86,0,0,1-.16-0.53A0.64,0.64,0,0,1,2.56,9.78ZM23.27,9H22.16l-1.85,6.41h1l0.39-1.55h1.9L24,15.41h1Zm-1.34,4,0.76-3h0l0.7,3H21.93ZM10.63,11.7a1.85,1.85,0,0,0,.26-1Q10.89,9,9.45,9H7.71v6.41H8.6V12.85H9c0.35,0,.35.22,0.45,0.67l0.47,1.89h0.94L10.26,13c-0.11-.46-0.06-0.7-0.31-0.75v0A1.06,1.06,0,0,0,10.63,11.7ZM9.19,12H8.6V9.89H9.19a0.78,0.78,0,0,1,.58.18A1.72,1.72,0,0,1,10,11,0.79,0.79,0,0,1,9.19,12Zm3.69,1.95h0L11.88,9h-1l1.48,6.41h0.94L14.83,9H13.9Zm3.54-5a1.25,1.25,0,0,0-1.09.79,5.4,5.4,0,0,0-.47,2.51,5.42,5.42,0,0,0,.47,2.51,1.15,1.15,0,0,0,2.19,0A5.36,5.36,0,0,0,18,12.2a5.34,5.34,0,0,0-.48-2.51A1.25,1.25,0,0,0,16.42,8.9Zm0,5.7c-0.55,0-.82-0.79-0.82-2.39s0.27-2.4.82-2.4,0.83,0.8.83,2.4S17,14.6,16.42,14.6ZM4.58,15.4H6.95V14.56H5.38V12.42H6.56V11.57H5.38V9.86H7V9H4.58v6.4Z"/>
    <rect x="1.16" y="0.95" width="1.02" height="5.55"/>
    <rect x="3.35" y="0.95" width="1.02" height="5.55"/>
    <path d="M10.94,3.64l-1.84.91V0.5l1.84,0.8V3.64Zm8.55,0.58a0.86,0.86,0,0,1-.07.35,1,1,0,0,1-.2.29,0.93,0.93,0,0,1-.29.2,0.9,0.9,0,0,1-.36.07H12.64a0.88,0.88,0,0,1-.36-0.07A1,1,0,0,1,12,4.86a0.93,0.93,0,0,1-.2-0.29,0.86,0.86,0,0,1-.07-0.35V1.42A0.89,0.89,0,0,1,12,.76,0.88,0.88,0,0,1,12.64.5h5.93a0.91,0.91,0,0,1,.91.92V4.23ZM13.76,5.75l-1.35,2,0.76,0.48,1.66-2.5,0,0h-1Zm3.64,0,1.34,2L18,8.26l-1.66-2.5,0,0h1Z"/>
  </g>
  <rect class="cls-1" width="29" height="16"/>
</svg>
