<svg xmlns="http://www.w3.org/2000/svg" width="30" height="16" viewBox="0 0 30 16">
  <defs>
    <style>
      .cls-1 {
        fill: none;
      }
    </style>
  </defs>
  <g id="base">
    <rect class="cls-1" width="30" height="16"/>
  </g>
  <g id="icon">
    <g>
      <polygon points="16.58 1.71 16.57 1.71 16.57 1.71 15.82 2.47 15.82 2.47 15.81 2.47 28.84 15.5 29.61 14.73 16.58 1.71"/>
      <path d="M16.62,14.28,9.16.86a.7.7,0,0,0-1.22,0L.48,14.28a.7.7,0,0,0,.61,1H16A.7.7,0,0,0,16.62,14.28Zm-6.44-8,.26-.48,1,.53-.26.48a2.49,2.49,0,0,0,0,2.28,3.63,3.63,0,0,1,0,3.42l-.27.48-1-.53.27-.48a2.57,2.57,0,0,0,0-2.41A3.54,3.54,0,0,1,10.18,6.28ZM8,6.28l.27-.48,1,.53-.27.48a2.48,2.48,0,0,0,0,2.28,3.63,3.63,0,0,1,0,3.42L8.65,13l-1-.53L8,12a2.57,2.57,0,0,0,0-2.41A3.53,3.53,0,0,1,8,6.28Zm-2.22,0L6,5.8l1,.53-.26.48a2.49,2.49,0,0,0,0,2.28,3.63,3.63,0,0,1,0,3.42L6.42,13l-1-.53L5.73,12a2.57,2.57,0,0,0,0-2.41A3.54,3.54,0,0,1,5.73,6.28Zm7.84,8.1H3.45v-1.1H13.57Z"/>
      <g>
        <path d="M27.13,10.9c.07-.83.12-1.84.12-3.42,0-1,0-2.38-.05-3a.64.64,0,0,0-.67-.65.63.63,0,0,0-.63.65V7.83a.36.36,0,0,1-.33.39.41.41,0,0,1-.41-.39V2.5a.69.69,0,0,0-.66-.7.66.66,0,0,0-.65.67V6.92a.42.42,0,0,1-.26.45Z"/>
        <path d="M19.7,7.73c0,.74,0,1.45,0,1.88-.38-.69-1.15-2.07-1.3-2.32a1,1,0,0,0-.63-.45,1,1,0,0,0-.75.16,1,1,0,0,0-.24,1.39c.18.37,2.49,4.53,2.75,5a2.4,2.4,0,0,0,1.84,1.25l3,0H25a2.2,2.2,0,0,0,1.19-.49Z"/>
        <path d="M23.14,6.91l0-5.48a.68.68,0,0,0-1.35,0V5.59Z"/>
        <path d="M21.08,4.85V2.21a.67.67,0,0,0-.63-.61.61.61,0,0,0-.68.61v.24c0,.25,0,.61-.05,1Z"/>
      </g>
    </g>
  </g>
</svg>
