<svg id="レイヤー_1" data-name="レイヤー 1" xmlns="http://www.w3.org/2000/svg" width="19" height="16" viewBox="0 0 19 16">
  <defs>
    <style>
      .cls-1 {
        fill: none;
      }
    </style>
  </defs>
  <title>icon_return</title>
  <path d="M15,4.29a5.58,5.58,0,0,1,3,3,5.43,5.43,0,0,1,.44,2.17V9.92A5.43,5.43,0,0,1,18,12.1a5.58,5.58,0,0,1-3,3,5.43,5.43,0,0,1-2.17.44H2V13.83H12.85a3.75,3.75,0,0,0,1.53-.31,4,4,0,0,0,1.24-.84,3.91,3.91,0,0,0,.83-1.24,3.82,3.82,0,0,0,.3-1.51V9.43a3.82,3.82,0,0,0-.3-1.51,3.93,3.93,0,0,0-.83-1.24,4,4,0,0,0-1.24-.84,3.75,3.75,0,0,0-1.53-.31H7.54V8.88l-7-4.19,7-4.19V3.86h5.31A5.43,5.43,0,0,1,15,4.29Z"/>
  <rect class="cls-1" width="19" height="16"/>
</svg>
