<?xml version="1.0" encoding="utf-8"?>
<!-- Generator: Adobe Illustrator 21.1.0, SVG Export Plug-In . SVG Version: 6.00 Build 0)  -->
<svg version="1.1" id="レイヤー_1" xmlns="http://www.w3.org/2000/svg" xmlns:xlink="http://www.w3.org/1999/xlink" x="0px"
	 y="0px" width="41px" height="16px" viewBox="0 0 41 16" style="enable-background:new 0 0 41 16;" xml:space="preserve">
<style type="text/css">
	.st0{fill:none;}
</style>
<title>icon_func-exp</title>
<rect class="st0" width="41" height="16"/>
<g>
	<path d="M2.9,1.8L0.6,14.1h1.3l0.5-2.8h2.4l0.5,2.8h1.3L4.2,1.8H2.9z M2.8,9.3l0.8-4.6l0.8,4.6H2.8z"/>
	<path d="M10.9,8.6c0,1,0,1.7-0.1,2.1c0,0.4-0.1,0.8-0.3,1.1s-0.4,0.4-0.8,0.4c-0.3,0-0.6-0.2-0.8-0.5c-0.2-0.3-0.3-0.7-0.4-1.2
		c0-0.3,0-1,0-2.1V1.8H7.3v6.6c0,1.4,0,2.4,0.1,3.1c0.1,0.5,0.2,0.9,0.3,1.4c0.2,0.4,0.4,0.8,0.7,1.1c0.3,0.3,0.7,0.4,1.3,0.4
		c0.5,0,0.9-0.1,1.2-0.4c0.3-0.2,0.5-0.6,0.7-1c0.2-0.4,0.3-0.9,0.4-1.5c0.1-0.6,0.1-1.7,0.1-3.1V1.8h-1.2V8.6z"/>
	<polygon points="12.9,3.9 14.7,3.9 14.7,14.1 15.9,14.1 15.9,3.9 17.7,3.9 17.7,1.8 12.9,1.8 	"/>
	<path d="M21,1.6c-0.5,0-0.9,0.2-1.3,0.5c-0.3,0.2-0.5,0.6-0.8,1.1c-0.2,0.5-0.4,1.1-0.6,1.7c-0.2,0.8-0.3,1.9-0.3,3.2
		c0,2,0.3,3.5,0.8,4.6c0.5,1.1,1.2,1.7,2.1,1.7c0.9,0,1.6-0.6,2.1-1.7c0.5-1.1,0.8-2.7,0.8-4.7c0-2-0.3-3.6-0.8-4.7
		C22.6,2.2,21.9,1.6,21,1.6z M22.2,11.1c-0.3,0.7-0.7,1.1-1.2,1.1c-0.5,0-0.9-0.4-1.2-1.1c-0.3-0.7-0.5-1.8-0.5-3.2
		c0-1.4,0.2-2.5,0.5-3.2c0.3-0.7,0.7-1.1,1.2-1.1c0.5,0,0.9,0.3,1.2,1c0.3,0.7,0.5,1.7,0.5,3.2C22.7,9.4,22.5,10.4,22.2,11.1z"/>
	<polygon points="26,4.2 24.9,4.9 29.3,7.5 	"/>
	<path d="M26.2,12.7v1.5h9.2c0.2,0,0.3,0,0.5,0l-1.4-1.4H26.2z"/>
	<path d="M39.8,7.1c-0.5-1.2-1.4-2.1-2.6-2.6c-0.6-0.2-1.2-0.4-1.8-0.4h-4.5V1.3l-2.7,1.6l2.7,2.7V5.6h4.5c0.4,0,0.9,0.1,1.3,0.3
		c0.4,0.2,0.8,0.4,1.1,0.7c0.3,0.3,0.5,0.7,0.7,1.1c0.2,0.4,0.3,0.8,0.3,1.3v0.4c0,0.4-0.1,0.9-0.3,1.3c-0.2,0.4-0.4,0.8-0.7,1.1
		c-0.2,0.2-0.3,0.3-0.5,0.4l1,1c0.7-0.5,1.2-1.2,1.5-1.9c0.3-0.6,0.4-1.2,0.4-1.9V8.9C40.2,8.3,40.1,7.7,39.8,7.1z"/>
	<rect x="30.9" y="-2" transform="matrix(0.7091 -0.7051 0.7051 0.7091 3.526 24.5708)" width="1.3" height="20"/>
</g>
</svg>
