<?xml version="1.0" encoding="utf-8"?>
<!-- Generator: Adobe Illustrator 23.0.3, SVG Export Plug-In . SVG Version: 6.00 Build 0)  -->
<svg version="1.1" id="レイヤー_1" xmlns="http://www.w3.org/2000/svg" xmlns:xlink="http://www.w3.org/1999/xlink" x="0px"
	 y="0px" width="39.7px" height="16px" viewBox="0 0 39.7 16" style="enable-background:new 0 0 39.7 16;" xml:space="preserve">
<style type="text/css">
	.st0{fill:none;}
</style>
<title>icon_func-exp</title>
<rect class="st0" width="39.7" height="16"/>
<g>
	<path d="M36.8,2.3h-4.3v1.4h4.3V2.3z M38.9,12.3h-8.5v1.4h8.6L38.9,12.3L38.9,12.3z M36.8,7.3V5.1h-4.3v2.2h-2.1l4.3,4.6l4.3-4.6
		L36.8,7.3L36.8,7.3z"/>
	<path d="M0.8,0.4h1.9l2.9,12.9l0,0L8.2,0.4h2.4l2.6,12.9l0,0l2.9-12.9H18l-3.7,15H12L9.4,2.3l0,0L6.7,15.4H4.4L0.8,0.4z M19.6,15.4
		h3.6c0.7,0,1.3-0.1,2-0.2c0.6-0.1,1.1-0.3,1.6-0.6c0.5-0.3,0.9-0.7,1.1-1.2c0.3-0.6,0.4-1.3,0.4-2c0-0.5-0.1-1-0.3-1.4
		c-0.3-0.8-0.9-1.5-1.6-1.9C26,8,25.6,7.9,25.2,7.8l0,0c0.4-0.1,0.8-0.3,1.2-0.5c0.3-0.2,0.6-0.4,0.9-0.7c0.2-0.3,0.4-0.6,0.6-1
		c0.1-0.4,0.2-0.9,0.2-1.4c0-0.6-0.1-1.2-0.4-1.8c-0.2-0.5-0.6-0.9-1-1.2c-0.4-0.3-0.9-0.6-1.4-0.7c-0.6-0.1-1.3-0.2-1.9-0.2h-3.6
		L19.6,15.4L19.6,15.4z M21.5,2.2h2c0.3,0,0.6,0,0.9,0.1c0.3,0.1,0.6,0.2,0.8,0.3c0.2,0.2,0.4,0.4,0.6,0.7C26,3.7,26.1,4,26.1,4.4
		c0,0.5-0.1,0.9-0.3,1.3c-0.2,0.3-0.4,0.6-0.8,0.7c-0.3,0.2-0.7,0.3-1.1,0.3c-0.4,0-0.9,0.1-1.3,0.1h-1.1V2.2z M21.5,8.6h1.3
		c0.4,0,0.9,0,1.3,0.1c0.4,0.1,0.8,0.2,1.1,0.4c0.3,0.2,0.6,0.5,0.8,0.8c0.2,0.4,0.3,0.9,0.3,1.4c0,0.4-0.1,0.9-0.3,1.2
		c-0.2,0.3-0.4,0.6-0.7,0.7c-0.3,0.2-0.7,0.3-1.1,0.4c-0.4,0.1-0.8,0.1-1.3,0.1h-1.5V8.6L21.5,8.6z"/>
</g>
</svg>
