<svg id="レイヤー_1" data-name="レイヤー 1" xmlns="http://www.w3.org/2000/svg" width="31" height="16" viewBox="0 0 31 16">
  <defs>
    <style>
      .cls-1 {
        fill: none;
      }
    </style>
  </defs>
  <title>icon_fps-24_00</title>
  <rect class="cls-1" width="31" height="16"/>
  <path d="M30.22,14.19a1.31,1.31,0,0,1-1.31,1.31H2.07a1.23,1.23,0,0,1-.91-0.38,1.27,1.27,0,0,1-.38-0.92V1.79A1.24,1.24,0,0,1,1.15.88,1.24,1.24,0,0,1,2.07.5H28.92a1.27,1.27,0,0,1,.92.38,1.23,1.23,0,0,1,.38.91v12.4ZM5.92,13.26V12.15H2.73A18.3,18.3,0,0,0,4,10.43a16.89,16.89,0,0,0,1-1.76A10.41,10.41,0,0,0,5.57,7a5.52,5.52,0,0,0,.22-1.47,3.4,3.4,0,0,0-.14-1,2.55,2.55,0,0,0-.41-0.81,2.06,2.06,0,0,0-.64-0.55A1.76,1.76,0,0,0,3.73,3a3.43,3.43,0,0,0-.9.14,4.3,4.3,0,0,0-1,.47L1.92,4.85a3.07,3.07,0,0,1,.79-0.57A1.78,1.78,0,0,1,3.5,4.06a1,1,0,0,1,.91.51,2.27,2.27,0,0,1,.3,1.19,6.1,6.1,0,0,1-.78,2.58,31.06,31.06,0,0,1-2.35,3.79v1.13H5.92ZM11.61,11V9.9h-0.9V3H9.46l-3,6.68V11H9.73v2.31h1V11h0.9ZM9.73,9.9H7.36L9.71,4.33h0V9.9Zm3.54,3.36V11.62H12.14v1.65h1.13Zm5.48-5.1a9.65,9.65,0,0,0-.61-3.89,1.86,1.86,0,0,0-3.56,0A9.65,9.65,0,0,0,14,8.16,9.65,9.65,0,0,0,14.58,12a1.86,1.86,0,0,0,3.56,0A9.65,9.65,0,0,0,18.75,8.16Zm-1,0a10.88,10.88,0,0,1-.33,3.16,1.16,1.16,0,0,1-1,1,1.15,1.15,0,0,1-1-1A11.17,11.17,0,0,1,15,8.16,11.17,11.17,0,0,1,15.33,5a1.15,1.15,0,0,1,1-1,1.16,1.16,0,0,1,1,1A10.88,10.88,0,0,1,17.73,8.16Zm6.1,0a9.51,9.51,0,0,0-.62-3.89,1.86,1.86,0,0,0-3.56,0A9.52,9.52,0,0,0,19,8.16,9.53,9.53,0,0,0,19.65,12a1.86,1.86,0,0,0,3.56,0A9.52,9.52,0,0,0,23.83,8.16Zm-1,0a11.2,11.2,0,0,1-.32,3.16,1,1,0,0,1-2.08,0,11.17,11.17,0,0,1-.32-3.16A11.17,11.17,0,0,1,20.4,5a1,1,0,0,1,2.08,0A11.2,11.2,0,0,1,22.79,8.16ZM29,5.94a3.24,3.24,0,0,0-.64-2.11A2.13,2.13,0,0,0,26.57,3h-2V13.26h1V9h0.7a2.51,2.51,0,0,0,2-.77A3.34,3.34,0,0,0,29,5.94Zm-1.07.13a2.18,2.18,0,0,1-.39,1.36,1.58,1.58,0,0,1-1.33.5H25.62V4.1h0.59a1.69,1.69,0,0,1,1.25.45A2.1,2.1,0,0,1,27.91,6.07Z"/>
</svg>
