<svg xmlns="http://www.w3.org/2000/svg" width="26" height="16" viewBox="0 0 26 16">
  <defs>
    <style>
      .cls-1 {
        fill: none;
      }
    </style>
  </defs>
  <g id="base">
    <rect class="cls-1" width="26" height="16"/>
  </g>
  <g id="icon">
    <g>
      <path d="M5.79,2.8H7.25V13.24H5.3l-3-7.3h0l-.15-.33a3.05,3.05,0,0,1-.13-.32l0,.49v7.46H.61V2.8H2.54l3,7.29c.06.13.1.22.12.28a.69.69,0,0,1,.06.13,1,1,0,0,1,0,.12l.06.23,0-.47Z"/>
      <path d="M16.18,7.91a1.88,1.88,0,0,1,1,.25,2.15,2.15,0,0,1,.74.73,4,4,0,0,1,.46,1.19,7.32,7.32,0,0,1,.16,1.63,7.17,7.17,0,0,1-.16,1.62,3.88,3.88,0,0,1-.46,1.18,2.1,2.1,0,0,1-.74.74,1.88,1.88,0,0,1-1,.25,1.91,1.91,0,0,1-1-.25,2.1,2.1,0,0,1-.74-.74A3.88,3.88,0,0,1,14,13.33a7.17,7.17,0,0,1-.16-1.62A7.32,7.32,0,0,1,14,10.08a4,4,0,0,1,.46-1.19,2.15,2.15,0,0,1,.74-.73A1.91,1.91,0,0,1,16.18,7.91Zm1.24,3.8a6.86,6.86,0,0,0-.08-1.17,3.13,3.13,0,0,0-.23-.87,1.3,1.3,0,0,0-.39-.55.83.83,0,0,0-1.08,0,1.3,1.3,0,0,0-.39.55,3.52,3.52,0,0,0-.23.87,8.52,8.52,0,0,0,0,2.33,3.65,3.65,0,0,0,.23.87,1.36,1.36,0,0,0,.39.55.86.86,0,0,0,1.08,0,1.36,1.36,0,0,0,.39-.55,3.23,3.23,0,0,0,.23-.87A6.89,6.89,0,0,0,17.42,11.71Z"/>
      <path d="M19.08,8H22V9H20.14v2.11h1.73v1H20.14V15.4H19.08Z"/>
      <path d="M22.47,8h2.92V9H23.53v2.11h1.73v1H23.53V15.4H22.47Z"/>
      <polygon points="21.38 2.93 18.95 2.93 18.95 0.5 17.62 0.5 17.62 2.93 15.19 2.93 15.19 4.26 17.62 4.26 17.62 6.7 18.95 6.7 18.95 4.26 21.38 4.26 21.38 2.93"/>
      <path d="M13.14,9.89c0-.15.07-.3.11-.44L12.8,8.26,13,8.14a1,1,0,0,0,.2-.15,2.12,2.12,0,0,0,.3-.3c.08-.11.16-.21.22-.31a3.45,3.45,0,0,0,.4-1.78,3.33,3.33,0,0,0-.2-1.14A2.83,2.83,0,0,0,13.67,4a5.44,5.44,0,0,0-.36-.43,3.31,3.31,0,0,0-.45-.34A2.48,2.48,0,0,0,12.33,3a2.63,2.63,0,0,0-.57-.13,4.46,4.46,0,0,0-.63,0H8.57V13.25h1.67V8.66h.95l.17,0L13,13.25h.13A9.12,9.12,0,0,1,13,11.71,7.77,7.77,0,0,1,13.14,9.89Zm-.79-3.48a1.11,1.11,0,0,1-.31.47,1.25,1.25,0,0,1-.47.25,2,2,0,0,1-.62.08h-.71v-3H11a1.55,1.55,0,0,1,1.12.37,1.45,1.45,0,0,1,.4,1.1A1.79,1.79,0,0,1,12.35,6.41Z"/>
    </g>
  </g>
</svg>
