<svg id="レイヤー_1" data-name="レイヤー 1" xmlns="http://www.w3.org/2000/svg" width="27" height="16" viewBox="0 0 27 16">
  <defs>
    <style>
      .cls-1 {
        fill: none;
      }
    </style>
  </defs>
  <title>icon_raw-w-balance</title>
  <path d="M26.13,6.56v7.31A2,2,0,0,1,25.8,15a0.94,0.94,0,0,1-.78.48H10.28A0.93,0.93,0,0,1,9.49,15a2,2,0,0,1-.32-1.16V6.56a2,2,0,0,1,.32-1.16,0.94,0.94,0,0,1,.79-0.48H25a0.94,0.94,0,0,1,.78.48A2,2,0,0,1,26.13,6.56ZM14.81,14L13,6.22H11.91L10.06,14h1l0.4-2.11h1.92L13.77,14h1Zm-2.38-6.2L13.11,11H11.73l0.68-3.2h0ZM21.3,6.22h-0.9L19.51,12.4h0L18.66,6.22H17.37L16.58,12.4h0L15.69,6.22h-1L15.94,14h1.21L18,7.76h0L18.87,14h1.2Zm3.31,7.35a2.44,2.44,0,0,0,.61-1.86,2.26,2.26,0,0,0-.3-1.2A1.11,1.11,0,0,0,24.14,10v0a1.15,1.15,0,0,0,.69-0.59,2.37,2.37,0,0,0,.25-1.14q0-2-1.52-2H21.92V14h1.65A1.48,1.48,0,0,0,24.61,13.57ZM23.24,9.34H22.85V7.44h0.36a1,1,0,0,1,.63.15,0.93,0.93,0,0,1,.3.81A0.81,0.81,0,0,1,23.24,9.34Zm1,2.32a0.91,0.91,0,0,1-1,1.08H22.85V10.48H23.3A1,1,0,0,1,24.28,11.66ZM8.63,8.56a2.62,2.62,0,0,1-1.31.33,2.58,2.58,0,0,1-1.89-.77,2.5,2.5,0,0,1-.78-1.84,2.52,2.52,0,0,1,.78-1.86,2.59,2.59,0,0,1,1.89-.77,2.59,2.59,0,0,1,1.89.77,2.82,2.82,0,0,1,.23.27,1.36,1.36,0,0,1,.84-0.29h3.47V3.67a1.06,1.06,0,0,0-.34-0.79,1.1,1.1,0,0,0-.8-0.33H10l0,0V2.18A1.62,1.62,0,0,0,9.33,1,1.8,1.8,0,0,0,8.3.5H6.36a1.76,1.76,0,0,0-1,.55,1.6,1.6,0,0,0-.66,1.13V2.53l0,0H2a1.1,1.1,0,0,0-.8.33,1.06,1.06,0,0,0-.34.79V9.38a1.08,1.08,0,0,0,.34.8,1.1,1.1,0,0,0,.8.33H8.63v-2Z"/>
  <rect class="cls-1" width="27" height="16"/>
</svg>
