<svg id="レイヤー_1" data-name="レイヤー 1" xmlns="http://www.w3.org/2000/svg" width="20" height="16" viewBox="0 0 20 16">
  <defs>
    <style>
      .cls-1 {
        fill: none;
      }
    </style>
  </defs>
  <title>icon_gps-3d</title>
  <g>
    <path d="M8.2,11.13a4.26,4.26,0,0,0-.25-1.6,3,3,0,0,0-.65-1,2.75,2.75,0,0,0-.89-0.59,9.59,9.59,0,0,0-1-.33v0a3.08,3.08,0,0,0,.76-0.22A2.73,2.73,0,0,0,7,6.79a3.05,3.05,0,0,0,.68-1A4,4,0,0,0,8,4.18,3.41,3.41,0,0,0,6.9,1.44,4.18,4.18,0,0,0,4.08.5,7.23,7.23,0,0,0,2.19.71C1.68,0.85,1.25,1,.91,1.1L1,3.34A7.43,7.43,0,0,1,2.3,2.83a4.27,4.27,0,0,1,1.25-.2,2.85,2.85,0,0,1,.79.11A1.92,1.92,0,0,1,5,3.09a1.78,1.78,0,0,1,.48.61,2,2,0,0,1,.18.87,2.11,2.11,0,0,1-.27,1.12,1.93,1.93,0,0,1-.7.68,2.91,2.91,0,0,1-1,.33,7.18,7.18,0,0,1-1.11.09H2.22v2a2.15,2.15,0,0,1,.45,0H3.19a4.07,4.07,0,0,1,.87.1,2.28,2.28,0,0,1,.82.35,2,2,0,0,1,.6.68A2.18,2.18,0,0,1,5.72,11,2.32,2.32,0,0,1,5,12.74a2.44,2.44,0,0,1-1.74.63,4.29,4.29,0,0,1-1.59-.27,10.93,10.93,0,0,1-1-.47L0.53,14.88a11.14,11.14,0,0,0,1.37.43,7.23,7.23,0,0,0,1.75.19,5.55,5.55,0,0,0,1.72-.27,3.93,3.93,0,0,0,1.45-.82,4.16,4.16,0,0,0,1-1.36A4.51,4.51,0,0,0,8.2,11.13Z"/>
    <path d="M19.47,7.88A11.85,11.85,0,0,1,19,11.19a6.77,6.77,0,0,1-1.2,2.39A4.91,4.91,0,0,1,16,15a6.31,6.31,0,0,1-2.51.48H10.1V0.5h3.34A5.54,5.54,0,0,1,15.8,1a5.62,5.62,0,0,1,1.92,1.46A6.92,6.92,0,0,1,19,4.78,9.61,9.61,0,0,1,19.47,7.88ZM17.75,8a8,8,0,0,0-.32-2.35,5.51,5.51,0,0,0-.88-1.75,3.84,3.84,0,0,0-1.31-1.09,3.56,3.56,0,0,0-1.62-.38h-1.9V13.62h1.7a3.89,3.89,0,0,0,3.21-1.37A6.75,6.75,0,0,0,17.75,8Z"/>
  </g>
  <rect class="cls-1" width="20" height="16"/>
</svg>
