<svg id="レイヤー_1" data-name="レイヤー 1" xmlns="http://www.w3.org/2000/svg" width="23" height="16" viewBox="0 0 23 16">
  <defs>
    <style>
      .cls-1 {
        fill: none;
      }
    </style>
  </defs>
  <title>icon_shutterbtn-halfpress</title>
  <path d="M4.14,1.59A5,5,0,0,1,5.42.92,6.62,6.62,0,0,1,6.88.59,14.89,14.89,0,0,1,8.55.5a16.78,16.78,0,0,1,2.84.24A16.26,16.26,0,0,1,14,1.41a12.24,12.24,0,0,1,2.25,1A7.35,7.35,0,0,1,18,3.8a17,17,0,0,1,1.21,1.54q0.56,0.8,1,1.6t0.78,1.54c0.22,0.49.42,1,.58,1.38q0.41,1.06.66,2a5.45,5.45,0,0,1,.26,1.31q0,0.34,0,.75a2.09,2.09,0,0,1-.22.78,1.51,1.51,0,0,1-.61.61,2.35,2.35,0,0,1-1.18.25,4.3,4.3,0,0,1-1.54-.33Q18,14.85,17,14.41t-1.84-.81a14.29,14.29,0,0,0-2-.67l-1.7-.42-2-.45L7.19,11.6Q6,11.37,4.94,11.19T2.8,10.87c-0.68-.09-1.3-0.16-1.85-0.2a0.43,0.43,0,0,1-.27-0.14,0.4,0.4,0,0,1-.11-0.28A11.12,11.12,0,0,1,.72,8.52a17.55,17.55,0,0,1,.46-2,14.2,14.2,0,0,1,.76-2A8.19,8.19,0,0,1,3,2.71,6.27,6.27,0,0,1,4.14,1.59ZM21.59,13.12a5.49,5.49,0,0,0-.2-1,18.59,18.59,0,0,0-.64-1.93q-0.25-.6-0.57-1.32c-0.22-.48-0.47-1-0.75-1.49s-0.6-1-.94-1.54a12.58,12.58,0,0,0-1.16-1.46,6.85,6.85,0,0,0-1.55-1.23,11.24,11.24,0,0,0-2.08-1,15,15,0,0,0-2.46-.62,16,16,0,0,0-2.67-.22,13,13,0,0,0-1.69.1,5.68,5.68,0,0,0-1.31.32,4.07,4.07,0,0,0-1,.58,5.88,5.88,0,0,0-.91.89A7.38,7.38,0,0,0,2.72,4.7a12.56,12.56,0,0,0-.67,1.76,16.15,16.15,0,0,0-.43,1.81,13.27,13.27,0,0,0-.19,1.58q1.29,0.12,2.91.38t3.27,0.58q1.65,0.33,3.17.66t2.59,0.62a14.66,14.66,0,0,1,2.11.71l1.9,0.83q0.92,0.42,1.68.73a3.65,3.65,0,0,0,1.33.31,1.89,1.89,0,0,0,.67-0.1,0.71,0.71,0,0,0,.36-0.29,1.15,1.15,0,0,0,.14-0.49C21.58,13.6,21.59,13.38,21.59,13.12ZM13.25,7.47a2.39,2.39,0,0,1-.5,1.11,3.19,3.19,0,0,1-1,.81,4,4,0,0,1-1.31.43A4.4,4.4,0,0,1,9,9.8a4.69,4.69,0,0,1-1.42-.49,3.82,3.82,0,0,1-1.08-.86,3.32,3.32,0,0,1-.64-1.09A2.44,2.44,0,0,1,6.23,5a3.2,3.2,0,0,1,1-.81,4,4,0,0,1,1.31-.43,4.79,4.79,0,0,1,1.5,0,4.69,4.69,0,0,1,1.42.49,3.84,3.84,0,0,1,1.08.86,3.34,3.34,0,0,1,.64,1.1A2.46,2.46,0,0,1,13.25,7.47Z"/>
  <rect class="cls-1" width="23" height="16"/>
</svg>
