<svg id="レイヤー_1" data-name="レイヤー 1" xmlns="http://www.w3.org/2000/svg" width="12" height="16" viewBox="0 0 12 16">
  <defs>
    <style>
      .cls-1 {
        fill: none;
      }
    </style>
  </defs>
  <title>icon_voice-memo</title>
  <path d="M11.16,8a5,5,0,0,1-.36,1.88,5.3,5.3,0,0,1-1,1.58A5.07,5.07,0,0,1,8.33,12.6a5.2,5.2,0,0,1-1.85.54v1.37H8.68a0.45,0.45,0,0,1,.27.08,0.38,0.38,0,0,1,.14.16,0.52,0.52,0,0,1,.05.24,0.53,0.53,0,0,1-.05.24A0.45,0.45,0,0,1,9,15.4a0.49,0.49,0,0,1-.27.1H3.32A0.55,0.55,0,0,1,3,15.42a0.47,0.47,0,0,1-.16-0.18,0.52,0.52,0,0,1,0-.51A0.53,0.53,0,0,1,3,14.57a0.49,0.49,0,0,1,.32-0.06H5.5V13.14a5.13,5.13,0,0,1-3.31-1.67,5.3,5.3,0,0,1-1-1.58A5,5,0,0,1,.84,8V5.63A0.69,0.69,0,0,1,1,5.36a0.4,0.4,0,0,1,.16-0.14,0.54,0.54,0,0,1,.24-0.05,0.51,0.51,0,0,1,.22.05,0.43,0.43,0,0,1,.16.13,0.46,0.46,0,0,1,.09.25V8a4.09,4.09,0,0,0,.56,2.09,4.13,4.13,0,0,0,1.53,1.52,4.17,4.17,0,0,0,5.69-1.52A4.09,4.09,0,0,0,10.16,8V5.6a0.44,0.44,0,0,1,.07-0.26,0.36,0.36,0,0,1,.15-0.13,0.58,0.58,0,0,1,.48,0,0.47,0.47,0,0,1,.17.13,0.56,0.56,0,0,1,.12.26V8ZM8.68,8a2.7,2.7,0,0,1-1.33,2.33A2.8,2.8,0,0,1,6,10.68a2.7,2.7,0,0,1-1.33-.34A2.7,2.7,0,0,1,3.32,8V3.19A2.7,2.7,0,0,1,4.66.86a2.69,2.69,0,0,1,2.69,0A2.7,2.7,0,0,1,8.68,3.19V8Z"/>
  <rect class="cls-1" width="12" height="16"/>
</svg>
