<?xml version="1.0" encoding="utf-8"?>
<!-- Generator: Adobe Illustrator 23.0.3, SVG Export Plug-In . SVG Version: 6.00 Build 0)  -->
<svg version="1.1" id="レイヤー_1" xmlns="http://www.w3.org/2000/svg" xmlns:xlink="http://www.w3.org/1999/xlink" x="0px"
	 y="0px" width="29.5px" height="16px" viewBox="0 0 29.5 16" style="enable-background:new 0 0 29.5 16;" xml:space="preserve">
<style type="text/css">
	.st0{fill:none;}
</style>
<title>icon_info_monitor</title>
<rect class="st0" width="29.5" height="16"/>
<g>
	<path d="M29,13.5c0,0.5-0.1,1-0.4,1.3c-0.3,0.4-0.6,0.5-1.1,0.5H2.2c-0.4,0-0.7-0.2-1-0.6c-0.3-0.4-0.4-0.8-0.4-1.3V2.4
		c0-0.5,0.1-1,0.4-1.3c0.3-0.4,0.6-0.5,1.1-0.5h25.3c0.4,0,0.8,0.2,1.1,0.5C28.9,1.4,29,1.9,29,2.4V13.5z M8.5,13.5L7.3,9
		C7.1,8.5,6.9,8.2,6.7,8c0.5-0.2,0.8-0.5,1.1-1c0.3-0.4,0.4-1,0.4-1.6c0-1.2-0.3-2-1-2.5C6.7,2.6,5.9,2.4,4.8,2.4H2.6v11.2h1.5V8.9
		h0.6c0.4,0,0.6,0,0.8,0.1C5.7,9.1,5.8,9.4,6,9.9l0.8,3.7H8.5z M6.7,5.5C6.7,6.5,6.2,7,5,7H4.1V4.2h1c0.5,0,0.9,0.1,1.2,0.3
		C6.6,4.7,6.7,5,6.7,5.5z M16.7,13.5L13.5,2.4h-1.3l0,0.1L9,13.5h1.4l0.7-2.7h3.4l0.7,2.7H16.7z M14.1,9.2h-2.6l1.3-4.8L14.1,9.2z
		 M22,4.2V2.4h-6v1.9h2.2v9.3h1.5V4.2H22z M27.5,13.5v-1.9h-3V8.9h2.6V7h-2.6V4.2h3V2.4h-4.4v11.2H27.5z"/>
</g>
</svg>
