<svg xmlns="http://www.w3.org/2000/svg" width="16" height="16" viewBox="0 0 16 16">
  <defs>
    <style>
      .cls-1 {
        fill: none;
      }
    </style>
  </defs>
  <g id="frame">
    <rect class="cls-1" width="16" height="16"/>
    <rect class="cls-1" width="16" height="16"/>
  </g>
  <g id="normal">
    <g>
      <path d="M12.93,8a5.69,5.69,0,0,1,.07.83A5.84,5.84,0,1,1,7.17,3V2.17a6.67,6.67,0,1,0,6.66,6.66A7.55,7.55,0,0,0,13.78,8Z" transform="translate(0 0)"/>
      <path d="M8,.5V8l1.67-.83H15.5V.5Zm1.46,6a.63.63,0,1,1,.62-.62A.63.63,0,0,1,9.46,6.54Zm0-2.08a.63.63,0,1,1,.62-.63A.63.63,0,0,1,9.46,4.46Zm0-2.08a.63.63,0,0,1-.63-.63.63.63,0,0,1,1.25,0A.63.63,0,0,1,9.46,2.38Zm5.21,4H10.92V5.5h3.75Zm0-2.08H10.92V3.42h3.75Zm0-2.08H10.92V1.33h3.75Z" transform="translate(0 0)"/>
      <path d="M9.86,8,7.17,9.35V4.67a4.17,4.17,0,1,0,4.16,4.16A4.58,4.58,0,0,0,11.25,8Z" transform="translate(0 0)"/>
    </g>
  </g>
</svg>
