<svg xmlns="http://www.w3.org/2000/svg" width="28" height="16" viewBox="0 0 28 16">
  <defs>
    <style>
      .cls-1 {
        fill: none;
      }

      .cls-2 {
        fill: blue;
      }
    </style>
  </defs>
  <g id="frame">
    <rect class="cls-1" width="28" height="16"/>
  </g>
  <g id="_b">
    <path class="cls-2" d="M27.66.5v15H.34V.5ZM26.33,1.83H1.67V14.17H26.33ZM8,11.3,6.89,8.87,10.66,7.2l1.39,2.13Zm2.47-3.15L10,8.37l-.68.3L8.54,9l-.74.32c.12.23.2.41.26.54s.12.27.21.43l.5-.26c.22-.1.45-.21.69-.34l.78-.37L11,9l-.29-.46ZM11,6.46,8.33,5.13,9.75,3.89l2.58,1.16Zm4.72,6.84H12.45l.24-3.69H15.5Zm-.53-8.51H13l.15-2.09h2Zm2,1.67L15.86,5.05l2.58-1.16,1.42,1.24Zm.37.91L21.13,9l-1,2.17L16.34,9.27Z"/>
  </g>
</svg>
