<svg id="レイヤー_1" data-name="レイヤー 1" xmlns="http://www.w3.org/2000/svg" width="18" height="20" viewBox="0 0 18 20">
  <defs>
    <style>
      .cls-1 {
        fill: none;
      }
    </style>
  </defs>
  <title>icon_input-mode</title>
  <g>
    <path d="M17.46,19.36H16.15V13.59a4.46,4.46,0,0,1-1.7,1.16V13.36a3.74,3.74,0,0,0,1.12-.75,2.85,2.85,0,0,0,.83-1.28h1.07v8Z"/>
    <path d="M1.18,17.37H0.54v-1.2H1.38l0.28-1.61H0.54v-1.2H1.87l0.37-2.13h1L2.92,13.36H4l0.36-2.13H5.4L5,13.36H5.67v1.2H4.81L4.54,16.17H5.67v1.2H4.32L4,19.5h-1l0.36-2.13h-1L1.86,19.5H0.81Zm1.54-2.81L2.44,16.17h1l0.27-1.61h-1Z"/>
    <path d="M9.82,18.25a7.65,7.65,0,0,1-3.92-1.08L6.58,16a6.43,6.43,0,0,0,7.54-.8l0.91,1A7.61,7.61,0,0,1,9.82,18.25Z"/>
    <g>
      <path d="M7.19,3.46a7.63,7.63,0,0,0-5,7.15H3.51a6.29,6.29,0,0,1,3-5.36Z"/>
      <path d="M11.94,3.3l0.45,1.56a6.31,6.31,0,0,1,3.74,5.75h1.33A7.63,7.63,0,0,0,11.94,3.3Z"/>
    </g>
    <path d="M13.12,8.49H11.61L11,6.68H8.27L7.71,8.49H6.24l2.67-8h1.46ZM10.57,5.33l-0.94-3-0.93,3h1.87Z"/>
  </g>
  <rect class="cls-1" width="18" height="20"/>
</svg>
