<svg xmlns="http://www.w3.org/2000/svg" width="19" height="16" viewBox="0 0 19 16">
  <defs>
    <style>
      .cls-1 {
        fill: none;
      }

      .cls-2 {
        fill: blue;
      }
    </style>
  </defs>
  <g id="frame">
    <rect class="cls-1" width="19" height="16"/>
  </g>
  <g id="_b">
    <g>
      <path class="cls-2" d="M7.09,11.31H1.34V9.54H7.09V8.44H1.34v-4H17.22V5.58h.08c.27,0,.49.07.69.11l.33.09V.5H.24V12.41H7.09ZM1.34,1.6H17.22V3.37H1.34Z"/>
      <path class="cls-2" d="M9.56,11.45v2.69h3.09v1.22H8V6.56h4.6V7.78h-3v2.45h2.69v1.22Z"/>
      <path class="cls-2" d="M16.75,10.34l.79.56a3.4,3.4,0,0,1,.64.61,2.61,2.61,0,0,1,.43.74,2.67,2.67,0,0,1,.15.93,2.27,2.27,0,0,1-.17.91,2.15,2.15,0,0,1-.53.74,2.53,2.53,0,0,1-.83.49,3.25,3.25,0,0,1-1.12.18,5.67,5.67,0,0,1-.85-.06,5.33,5.33,0,0,1-.69-.13,3.68,3.68,0,0,1-.48-.14.83.83,0,0,1-.24-.12L14,13.72a.93.93,0,0,0,.27.16,3.14,3.14,0,0,0,.47.17,3.4,3.4,0,0,0,.59.14,3.26,3.26,0,0,0,.62.06,1.61,1.61,0,0,0,.49-.07,1.06,1.06,0,0,0,.4-.19.91.91,0,0,0,.27-.34,1,1,0,0,0,.1-.48,1.4,1.4,0,0,0-.32-.87,3.83,3.83,0,0,0-1-.81,7.37,7.37,0,0,1-.87-.6,3.59,3.59,0,0,1-.65-.64,2.51,2.51,0,0,1-.41-.7,2.14,2.14,0,0,1-.14-.8,2.32,2.32,0,0,1,.19-1,2.08,2.08,0,0,1,.54-.73,2.33,2.33,0,0,1,.83-.47,2.87,2.87,0,0,1,1-.17,6.24,6.24,0,0,1,.78,0,6,6,0,0,1,.61.1l.42.12a1,1,0,0,1,.21.1l-.09,1.34A3.35,3.35,0,0,0,18,7.91a2,2,0,0,0-.37-.13,2.88,2.88,0,0,0-.46-.09l-.6,0a1.63,1.63,0,0,0-.45.06,1,1,0,0,0-.37.19,1.06,1.06,0,0,0-.25.33,1.22,1.22,0,0,0-.09.49,1,1,0,0,0,.1.46,1.48,1.48,0,0,0,.28.39,2.67,2.67,0,0,0,.43.37Z"/>
    </g>
  </g>
</svg>
