<svg id="レイヤー_1" data-name="レイヤー 1" xmlns="http://www.w3.org/2000/svg" width="42" height="16" viewBox="0 0 42 16">
  <defs>
    <style>
      .cls-1 {
        fill: none;
      }
    </style>
  </defs>
  <title>icon_menu</title>
  <path d="M12.78,15.25H11.19V2.48h0L7.48,15.25H5.93L2.25,2.48h0V15.25H0.63V0.5H3.26L6.74,12.78,10.15,0.5h2.63V15.25Zm7.83,0h-6.2V0.5h6.2V2.35H16V6.68h4.22V8.54H16v4.89h4.61v1.82Zm10.27,0h-2l-5-12.14h0V15.25H22.2V0.5h2.16l4.91,11.89h0V0.5h1.59V15.25Zm10.5-6.1a8.27,8.27,0,0,1-1.12,4.73,4,4,0,0,1-6.38,0,8.27,8.27,0,0,1-1.12-4.73V0.5h1.59V8.89a13.07,13.07,0,0,0,.13,1.95,5.09,5.09,0,0,0,.45,1.52,2.47,2.47,0,0,0,.84,1,2.3,2.3,0,0,0,1.3.34,2.27,2.27,0,0,0,1.28-.34,2.48,2.48,0,0,0,.84-1,5.31,5.31,0,0,0,.46-1.52,12.29,12.29,0,0,0,.14-1.95V0.5h1.59V9.16Z"/>
  <rect class="cls-1" width="42" height="16"/>
</svg>
