<svg id="レイヤー_1" data-name="レイヤー 1" xmlns="http://www.w3.org/2000/svg" width="16" height="16" viewBox="0 0 16 16">
  <defs>
    <style>
      .cls-1 {
        fill: none;
      }
    </style>
  </defs>
  <title>icon_focus-indicator</title>
  <path d="M15.51,8a7.23,7.23,0,0,1-.59,2.92,7.66,7.66,0,0,1-1.62,2.38,7.54,7.54,0,0,1-2.38,1.61A7.3,7.3,0,0,1,8,15.5a7.3,7.3,0,0,1-2.92-.59A7.54,7.54,0,0,1,2.7,13.31a7.64,7.64,0,0,1-1.62-2.38A7.21,7.21,0,0,1,.49,8a7.21,7.21,0,0,1,.59-2.92,7.64,7.64,0,0,1,4-4A7.23,7.23,0,0,1,8,.5a7.23,7.23,0,0,1,2.92.59,7.64,7.64,0,0,1,4,4A7.23,7.23,0,0,1,15.51,8Z"/>
  <rect class="cls-1" width="16" height="16"/>
</svg>
