<svg id="レイヤー_1" data-name="レイヤー 1" xmlns="http://www.w3.org/2000/svg" width="32" height="16" viewBox="0 0 32 16">
  <defs>
    <style>
      .cls-1 {
        fill: none;
      }
    </style>
  </defs>
  <title>icon_func-set-iso</title>
  <path d="M2.44,15H0.54V0.93h1.9V15Zm7-4.17a4.37,4.37,0,0,1-1,3.11,3.06,3.06,0,0,1-1.33.85,1.2,1.2,0,0,1-.36.08L6.09,15H5.57L5.31,15,5,14.92a2.43,2.43,0,0,1-1.24-.53l0.1-2.25,0.16,0.12,0.17,0.13,0.17,0.1,0.18,0.1,0.17,0.1,0.18,0.07L5.11,12.8l0.18,0.07,0.19,0,0.18,0H5.86L6,13l0.3,0,0.28-.08,0.27-.15,0.23-.21,0.18-.28,0.16-.35,0.08-.41V10.66l-0.06-.31-0.1-.26L7.24,9.84a1.16,1.16,0,0,0-.3-0.35L6.77,9.33,6.6,9.19,6.25,8.92,4.86,7.82,4.75,7.71l-0.1-.11L4.54,7.48,4.36,7.23l-0.1-.15L4.19,6.94,4.11,6.8,3.92,6.33,3.78,5.82,3.7,5.24l0-.62a5.1,5.1,0,0,1,0-.8A3.33,3.33,0,0,1,5.63,1.11l0.59-.16,0.61-.07H7.07l0.24,0L7.54,1,7.78,1,8,1,8.25,1.12,8.48,1.18,8.7,1.28,9.48,1.61l-0.1,2.1L8.69,3.39l-0.3-.16L8.08,3.1l-0.16,0L7.77,3H7.61l-0.17,0-0.16,0H7l-0.33,0L6.34,3l-0.23.15-0.19.2-0.17.23-0.11.28-0.06.3V4.49l0,0.36L5.65,5.16,5.76,5.4,5.89,5.63,6,5.78,6.12,5.91,6.25,6,6.38,6.14l0.13,0.1,2.29,2L9,8.63,9.23,9.07,9.36,9.58l0,0.15,0,0.13,0,0.42v0.57ZM17.91,7a10.8,10.8,0,0,0-.85-4,4.1,4.1,0,0,0-1.24-1.63,2.68,2.68,0,0,0-3.42.07c-1.33,1.12-2,3.25-2,6.4a11.56,11.56,0,0,0,.87,4.82c0.67,1.48,1.63,2.23,2.89,2.23a2.69,2.69,0,0,0,1.76-.66q1.69-1.42,2-5.07c0-.46,0-0.9,0-1.32S17.91,7.21,17.91,7Zm-2,3.5q-0.36,2-1.38,2.39L14.16,13l-0.39-.07A1.42,1.42,0,0,1,13,12.26a8.84,8.84,0,0,1-.8-4.39c0-.71,0-1.38.09-2A6.65,6.65,0,0,1,12.73,4a1.9,1.9,0,0,1,1-1.18l0.39-.07,0.39,0.07a1.51,1.51,0,0,1,.78.67A5.94,5.94,0,0,1,16,5.91a16.76,16.76,0,0,1,.09,2A17.54,17.54,0,0,1,15.93,10.54Zm12.78-10H23V2.37h5.7V0.5Zm2.75,13.13H20.26V15.5h11.2V13.63ZM28.71,7.06V4.21H23V7.06H20.26l5.6,6.06,5.6-6.06H28.71Z"/>
  <rect class="cls-1" width="32" height="16"/>
</svg>
