<?xml version="1.0" encoding="UTF-8"?>
<svg id="_レイヤー_1" xmlns="http://www.w3.org/2000/svg" width="55.01" height="17.86" version="1.1" viewBox="0 0 55.01 17.86">
  <!-- Generator: Adobe Illustrator 29.5.1, SVG Export Plug-In . SVG Version: 2.1.0 Build 141)  -->
  <defs>
    <style>
      .st0 {
        fill: #fff;
      }

      .st1 {
        fill: none;
      }
    </style>
  </defs>
  <g>
    <path d="M18.46,3.46c.4.17.71.48.88.88.09.2.13.41.13.63v8.89c0,.22-.04.43-.13.63-.17.4-.48.71-.88.88-.2.09-.41.13-.63.13H2.18c-.22,0-.44-.04-.64-.13-.2-.09-.39-.21-.54-.37-.14-.14-.25-.31-.33-.5-.09-.2-.13-.41-.13-.63V5c0-.23.04-.46.13-.67.17-.4.48-.71.88-.88.2-.09.42-.13.64-.13h3.54l1.27-2.18h0c.14-.28.38-.49.68-.58h.16l.16-.06h4c.2,0,.39.05.56.16.17.11.31.25.4.43h0l1.25,2.22h3.63c.21,0,.43.06.62.15ZM12.46,5.94H3.16v7h9.28v-7s.02,0,.02,0Z"/>
    <rect class="st1" width="20" height="16"/>
    <g>
      <polygon class="st0" points="23.2 7.73 15.65 16.08 17.26 17.29 23.2 7.73"/>
      <polygon class="st0" points="12.6 13.38 16.79 17.86 18.03 16.22 12.6 13.38"/>
      <path d="M22.37,8.95c-2.21,2.5-4.42,4.99-6.64,7.49.41.38.82.76,1.23,1.14,0,0,5.41-8.63,5.41-8.63Z"/>
      <polygon points="12.97 13.66 16.85 17.53 17.73 16.37 12.97 13.66"/>
    </g>
  </g>
  <path d="M54.34,14.15h-8.11v1.19h4.69v1.11h-12.8v-1.12h4.67v-1.18h-8.11V1.45h19.66v12.7ZM52.73,12.52V3.06h-16.44v9.46h16.44Z"/>
  <rect class="st1" x="34.01" y=".95" width="21" height="16"/>
  <path d="M26.58,13.45v-3.35h-3.38v-2.31h3.38v-3.35h2.25v3.35h3.38v2.31h-3.38v3.35h-2.25Z"/>
</svg>