<?xml version="1.0" encoding="utf-8"?>
<!-- Generator: Adobe Illustrator 23.0.3, SVG Export Plug-In . SVG Version: 6.00 Build 0)  -->
<svg version="1.1" id="レイヤー_1" xmlns="http://www.w3.org/2000/svg" xmlns:xlink="http://www.w3.org/1999/xlink" x="0px"
	 y="0px" width="58px" height="17px" viewBox="0 0 58 17" style="enable-background:new 0 0 58 17;" xml:space="preserve">
<style type="text/css">
	.st0{fill:#040000;}
	.st1{fill:none;}
</style>
<g>
	<path class="st0" d="M57.1,14.1c0,0.3-0.1,0.6-0.2,0.9c-0.1,0.3-0.3,0.5-0.5,0.7c-0.2,0.2-0.4,0.4-0.7,0.5
		c-0.3,0.1-0.6,0.2-0.9,0.2H3.1c-0.3,0-0.6-0.1-0.9-0.2c-0.3-0.1-0.5-0.3-0.7-0.5c-0.2-0.2-0.4-0.4-0.5-0.7
		c-0.1-0.3-0.2-0.6-0.2-0.9V2.9C0.9,2.6,1,2.3,1.1,2c0.1-0.3,0.3-0.5,0.5-0.7C1.8,1.1,2,0.9,2.3,0.8s0.6-0.2,0.9-0.2h51.7
		c0.3,0,0.6,0.1,0.9,0.2c0.3,0.1,0.5,0.3,0.7,0.5c0.2,0.2,0.4,0.4,0.5,0.7c0.1,0.3,0.2,0.6,0.2,0.9C57.1,2.9,57.1,14.1,57.1,14.1z
		 M14.6,4.6V2.8H5.9v1.8h3.2v9.5h2.3V4.6H14.6z M18.1,14.1V2.8h-2.2v11.3H18.1z M33,14.1V2.8h-3.6l-2.7,8.5h0l-2.7-8.5h-3.6v11.3
		h2.2V4.8l0,0l3,9.3h2.1l3-9.3h0v9.3C30.9,14.1,33,14.1,33,14.1z M42.3,14.1v-1.8h-4.4V9.2h4V7.4h-4V4.6h4.4V2.8h-6.6v11.3H42.3z
		 M52.8,14.1l-1.7-4.2c-0.2-0.5-0.4-0.8-0.6-1c-0.2-0.2-0.4-0.3-0.6-0.3v0c0.3,0,0.6-0.2,0.9-0.3s0.5-0.3,0.7-0.6
		c0.2-0.2,0.4-0.5,0.5-0.8c0.1-0.3,0.2-0.6,0.2-1c0-0.5-0.1-1-0.2-1.3c-0.2-0.4-0.4-0.7-0.7-0.9s-0.6-0.4-1.1-0.5
		c-0.4-0.1-0.9-0.2-1.4-0.2l-1.9,0h-2.4v11.3h2.3V9.4l0.7,0c0.4,0,0.7,0.1,0.9,0.3c0.2,0.2,0.5,0.5,0.6,0.9l1.4,3.5L52.8,14.1
		L52.8,14.1z M49.8,6.1c0,0.5-0.2,0.9-0.6,1.2c-0.4,0.3-0.9,0.4-1.5,0.4h-1v-3h1c0.7,0,1.2,0.1,1.6,0.3C49.6,5.1,49.8,5.5,49.8,6.1z
		"/>
</g>
<rect class="st1" width="58" height="17"/>
</svg>
