<?xml version="1.0" encoding="utf-8"?>
<!-- Generator: Adobe Illustrator 23.0.3, SVG Export Plug-In . SVG Version: 6.00 Build 0)  -->
<svg version="1.1" id="レイヤー_1" xmlns="http://www.w3.org/2000/svg" xmlns:xlink="http://www.w3.org/1999/xlink" x="0px"
	 y="0px" width="30.3px" height="16px" viewBox="0 0 30.3 16" style="enable-background:new 0 0 30.3 16;" xml:space="preserve">
<style type="text/css">
	.st0{fill:none;}
</style>
<title>icon_oneshot-ai-servo</title>
<rect class="st0" width="30.3" height="16"/>
<g>
	<path d="M1.5,9.8h4.1V5.6H1.5V9.8z M2.4,6.5h2.3v2.3H2.4V6.5z"/>
	<path d="M6.7,9.8h4.1V5.6H6.7V9.8z M7.6,6.5h2.3v2.3H7.6V6.5z"/>
	<path d="M6.7,4.6h4.1V0.5H6.7V4.6z M7.6,1.4h2.3v2.3H7.6V1.4z"/>
	<path d="M6.7,14.9h4.1v-4.1H6.7V14.9z M7.6,11.7h2.3V14H7.6V11.7z"/>
	<path d="M11.8,9.8H16V5.6h-4.1V9.8z M12.7,6.5h2.3v2.3h-2.3V6.5z"/>
	<polygon points="28.8,9.7 26.3,7.4 26.3,9.1 23.5,9.1 23.5,6.3 25.2,6.3 23,3.8 20.7,6.3 22.4,6.3 22.4,9.1 19.6,9.1 19.6,7.4 
		17.1,9.7 19.6,11.9 19.6,10.2 22.4,10.2 22.4,13 20.7,13 23,15.5 25.2,13 23.5,13 23.5,10.2 26.3,10.2 26.3,11.9 	"/>
</g>
</svg>
