<?xml version="1.0" encoding="utf-8"?>
<!-- Generator: Adobe Illustrator 23.0.3, SVG Export Plug-In . SVG Version: 6.00 Build 0)  -->
<svg version="1.1" id="レイヤー_1" xmlns="http://www.w3.org/2000/svg" xmlns:xlink="http://www.w3.org/1999/xlink" x="0px"
	 y="0px" width="30px" height="16px" viewBox="0 0 30 16" style="enable-background:new 0 0 30 16;" xml:space="preserve">
<style type="text/css">
	.st0{fill:none;}
</style>
<title>icon_metering-af-start</title>
<rect class="st0" width="30" height="16"/>
<g>
	<g>
		<path d="M10.7,3.6h8.6v1.1l2.1-1.6l-2.1-1.6v1.1h-8.6V1.4L8.6,3.1l2.1,1.6V3.6z M9.5,7.9H9v0.9h0.5c0.2,0,0.4,0.2,0.4,0.4V11
			c0,0.2-0.2,0.4-0.4,0.4H8.9v0.9h0.5c0.7,0,1.3-0.6,1.3-1.3V9.2C10.8,8.5,10.2,7.9,9.5,7.9z M0.6,14.6h13.5V5.7H0.6V14.6z M1.6,6.6
			h11.6v7.1H1.6V6.6z M3.3,11V9.2c0-0.2,0.2-0.4,0.4-0.4h0.5V7.9H3.8C3,7.9,2.4,8.5,2.4,9.2V11c0,0.7,0.6,1.3,1.3,1.3h0.5v-0.9H3.8
			C3.5,11.4,3.3,11.3,3.3,11z M22.6,8.4h-3.6V12h3.6V8.4z M21.8,11.1H20V9.3h1.8V11.1z M15.8,5.7v8.9h13.5V5.7H15.8z M28.4,13.7
			H16.8V6.6h11.6V13.7z"/>
	</g>
</g>
</svg>
