<svg id="icon" xmlns="http://www.w3.org/2000/svg" width="15.61" height="16" viewBox="0 0 15.61 16">
  <g>
    <polygon points="15.61 13.51 9.62 13.51 9.62 12.11 15.61 12.11 15.61 13.51 15.61 13.51"/>
    <polygon points="5.99 12.11 3.69 12.11 3.69 9.81 2.3 9.81 2.3 12.11 0 12.11 0 13.51 2.3 13.51 2.3 15.81 3.69 15.81 3.69 13.51 5.99 13.51 5.99 12.11"/>
    <polygon points="6.92 16 6.07 15.61 8.82 9.62 9.67 10.01 6.92 16 6.92 16"/>
    <g>
      <path d="M8.26,0H9.57L7.92,8.07H6.22L5,1.59l0-.16s0-.07,0-.12l-.05.28L3.69,8.07H2L.31,0H1.69L2.86,6.36l0,.15,0-.15L4.11,0H5.86L7.05,6.36l0,.15,0-.15Z"/>
      <path d="M13.92,3.88a1.88,1.88,0,0,1,.64.23,1.75,1.75,0,0,1,.48.42,1.59,1.59,0,0,1,.32.57,2.23,2.23,0,0,1,.11.7,2.11,2.11,0,0,1-.26,1.08,2,2,0,0,1-.7.7,2.82,2.82,0,0,1-1,.38,5.1,5.1,0,0,1-1.11.11H10.59V0h2.09a4.05,4.05,0,0,1,1,.12,2.45,2.45,0,0,1,.82.37,1.93,1.93,0,0,1,.55.65,2.06,2.06,0,0,1,.2.93,1.88,1.88,0,0,1-.11.65,1.73,1.73,0,0,1-.3.53,1.94,1.94,0,0,1-.46.39,2,2,0,0,1-.59.24Zm-1.31-.5a1.93,1.93,0,0,0,.51-.09,1.12,1.12,0,0,0,.38-.24,1,1,0,0,0,.25-.36,1.22,1.22,0,0,0,.09-.49,1.41,1.41,0,0,0-.08-.5,1,1,0,0,0-.24-.34,1.18,1.18,0,0,0-.39-.19,2.17,2.17,0,0,0-.54-.06H12V3.38Zm1.44,2.34a1.18,1.18,0,0,0-.44-1,1.21,1.21,0,0,0-.46-.25,1.61,1.61,0,0,0-.54-.09H12V7h.55a2.62,2.62,0,0,0,.57-.06,1.3,1.3,0,0,0,.48-.21,1,1,0,0,0,.33-.38A1.32,1.32,0,0,0,14.05,5.72Z"/>
    </g>
  </g>
</svg>
