<svg id="icon" xmlns="http://www.w3.org/2000/svg" width="22" height="16" viewBox="0 0 22 16">
  <defs>
    <style>
      .cls-1 {
        fill: none;
      }
    </style>
  </defs>
  <rect class="cls-1" width="22" height="16"/>
  <path d="M10.22,11.88H.4V.5H11.78V6.87h-.52a1.06,1.06,0,0,0-.78.35V1.79H1.69v8.8h8.53Zm11.38-4v7.6H11.26V7.9h1.81V6.35a3.36,3.36,0,0,1,6.72,0V7.9Zm-3.88,2.85a1.29,1.29,0,0,0-2.58,0,1.26,1.26,0,0,0,.64,1.09v2.08h1.3V11.84A1.26,1.26,0,0,0,17.72,10.75Zm.52-4.4a1.81,1.81,0,0,0-3.62,0V7.9h3.62Z"/>
</svg>
