<svg id="レイヤー_1" data-name="レイヤー 1" xmlns="http://www.w3.org/2000/svg" width="31" height="16" viewBox="0 0 31 16">
  <defs>
    <style>
      .cls-1 {
        fill: none;
      }
    </style>
  </defs>
  <title>icon_raw-clarity</title>
  <g>
    <g>
      <polygon points="8.36 9.7 8.36 5.17 5.74 9.7 8.36 9.7"/>
      <path d="M8.36,0.5A7.5,7.5,0,1,0,15.86,8,7.5,7.5,0,0,0,8.36.5Zm0,13.69V11H3.47L8.36,2.54V1.81A6.19,6.19,0,0,1,8.36,14.19Z"/>
      <polygon points="8.36 2.54 8.36 5.17 10.97 9.7 8.36 9.7 8.36 11.01 13.25 11.01 8.36 2.54"/>
    </g>
    <rect x="16.76" y="10.66" width="5.17" height="0.99"/>
    <polygon points="21.93 6.12 19.84 6.12 19.84 4.03 18.85 4.03 18.85 6.12 16.76 6.12 16.76 7.11 18.85 7.11 18.85 9.2 19.84 9.2 19.84 7.11 21.93 7.11 21.93 6.12"/>
    <path d="M28.86,7.85q0,3.12-1.06,4.21a0.93,0.93,0,0,1-1.45,0Q25.3,11,25.3,7.85t1.06-4.16a0.93,0.93,0,0,1,1.45,0Q28.86,4.79,28.86,7.85ZM24,7.85q0,3.46,1.34,4.85a2.25,2.25,0,0,0,3.46,0q1.34-1.38,1.34-4.85T28.81,3.06a2.25,2.25,0,0,0-3.46,0Q24,4.44,24,7.85Z"/>
  </g>
  <rect class="cls-1" width="31" height="16"/>
</svg>
