<svg id="レイヤー_1" data-name="レイヤー 1" xmlns="http://www.w3.org/2000/svg" width="33" height="16" viewBox="0 0 33 16">
  <defs>
    <style>
      .cls-1 {
        fill: none;
      }

      .cls-2 {
        fill: blue;
      }
    </style>
  </defs>
  <title>icon_pic-style-m_b</title>
  <rect class="cls-1" width="33" height="16"/>
  <path class="cls-2" d="M32.18,0.5v15H0.82V0.5H32.18ZM1.94,1.62V14.41H31.06V1.62H1.94ZM10.12,9.3L4.4,11.21,2.78,8.86,8.15,7.23Zm-6,0L4.44,9.82l0.28,0.41L5.45,10l1-.33,1.11-.37,1.1-.37L8.23,8.48,7.91,8.16l-0.69.21-1,.29L5.13,9Zm6.43-4.13L6.84,4l-2,1.21L8.63,6.52ZM11,9.57l-0.34,3.55h4.67L15,9.57H11Zm3.58-4.65-0.2-2H11.65l-0.21,2h3.17Zm2.83,1.6,3.79-1.27L19.23,4,15.56,5.17ZM16.23,9.23L21.61,11l1.44-2.1L18,7.39Zm7.07,4.38h0.93V4.13h0l2.16,9.48h0.93l2.17-9.48h0v9.48h0.93v-11H28.93l-2,9.1-2-9.1H23.31v11Z"/>
</svg>
