<?xml version="1.0" encoding="utf-8"?>
<!-- Generator: Adobe Illustrator 21.1.0, SVG Export Plug-In . SVG Version: 6.00 Build 0)  -->
<svg version="1.1" id="レイヤー_1" xmlns="http://www.w3.org/2000/svg" xmlns:xlink="http://www.w3.org/1999/xlink" x="0px"
	 y="0px" width="16px" height="16px" viewBox="0 0 16 16" style="enable-background:new 0 0 16 16;" xml:space="preserve">
<style type="text/css">
	.st0{fill:none;}
	.st1{fill:#0000FF;}
</style>
<title>icon_multi-controller</title>
<rect x="0.1" y="0" class="st0" width="16" height="16"/>
<g>
	<polygon class="st1" points="6.2,2.3 7.2,2.3 7.2,4.6 8.5,4.6 8.5,2.3 9.5,2.3 7.9,0.4 	"/>
	<polygon class="st1" points="10.6,6.2 12.2,4.6 12.9,5.3 13.1,2.7 10.6,2.9 11.3,3.6 9.6,5.2 	"/>
	<polygon class="st1" points="5.2,2.9 2.6,2.7 2.8,5.3 3.5,4.6 5.1,6.2 6.1,5.2 4.5,3.6 	"/>
	<polygon class="st1" points="4.7,7.3 2.4,7.3 2.4,6.3 0.5,8 2.4,9.7 2.4,8.7 4.7,8.7 	"/>
	<polygon class="st1" points="15.6,8 13.7,6.3 13.7,7.3 11.4,7.3 11.4,8.7 13.7,8.7 13.7,9.7 	"/>
	<polygon class="st1" points="8.5,11.4 7.2,11.4 7.2,13.7 6.2,13.7 7.9,15.6 9.5,13.7 8.5,13.7 	"/>
	<polygon class="st1" points="12.2,11.4 10.6,9.8 9.6,10.8 11.3,12.4 10.6,13.1 13.1,13.3 12.9,10.7 	"/>
	<polygon class="st1" points="5.1,9.8 3.5,11.4 2.8,10.7 2.6,13.3 5.2,13.1 4.5,12.4 6.1,10.8 	"/>
</g>
</svg>
