<svg id="icon" xmlns="http://www.w3.org/2000/svg" width="50.65" height="16" viewBox="0 0 50.65 16">
  <g>
    <circle cx="42.65" cy="8" r="8"/>
    <g>
      <path d="M3.78.31A7.63,7.63,0,0,1,6.09.63a4.6,4.6,0,0,1,1.66.93A3.93,3.93,0,0,1,8.75,3a5.48,5.48,0,0,1,.33,2,5.46,5.46,0,0,1-.33,2,3.77,3.77,0,0,1-1,1.47,4.6,4.6,0,0,1-1.66.93,7.31,7.31,0,0,1-2.31.33h-1v6H0V.31Zm0,7.24A3.47,3.47,0,0,0,5,7.37a2,2,0,0,0,.8-.52,2,2,0,0,0,.45-.8A3.53,3.53,0,0,0,6.35,5a2.7,2.7,0,0,0-.62-1.86,2.57,2.57,0,0,0-2-.7h-1V7.55Z"/>
      <path d="M18.84,8a1.36,1.36,0,0,1-.33.22l-.34.18,3.09,7.33H18.41l-2.6-6.79-.28,0H14v6.75H11.25V.31h4.19a8.72,8.72,0,0,1,1,.06,4.85,4.85,0,0,1,.95.2,4.36,4.36,0,0,1,.85.35,4.77,4.77,0,0,1,.74.5,5.15,5.15,0,0,1,.58.64,2.94,2.94,0,0,1,.43.7,4.16,4.16,0,0,1,.34,1.67,4.69,4.69,0,0,1-.66,2.62,4.49,4.49,0,0,1-.36.46A3.54,3.54,0,0,1,18.84,8ZM14,6.81h1.16a3.94,3.94,0,0,0,1-.12,2,2,0,0,0,.78-.38,1.77,1.77,0,0,0,.51-.68,2.6,2.6,0,0,0,.18-1A2,2,0,0,0,17,3a2.73,2.73,0,0,0-1.84-.55H14Z"/>
      <path d="M25.9,8.84v4.72h5.39v2.12H23.13V.31h8V2.43H25.9V6.72h4.69V8.84Z"/>
    </g>
  </g>
</svg>
