<svg id="レイヤー_1" data-name="レイヤー 1" xmlns="http://www.w3.org/2000/svg" width="39" height="16" viewBox="0 0 39 16">
  <defs>
    <style>
      .cls-1 {
        fill: #333;
      }

      .cls-2 {
        fill: #666;
      }

      .cls-3 {
        fill: #999;
      }

      .cls-4 {
        fill: #ccc;
      }

      .cls-5 {
        fill: #fff;
      }

      .cls-6 {
        fill: none;
      }
    </style>
  </defs>
  <title>icon_raw-peripheral-illum</title>
  <g>
    <polygon points="32.66 5.78 28.5 5.78 28.5 15.5 29.63 15.5 29.63 11.03 32.38 11.03 32.38 9.88 29.63 9.88 29.63 6.96 32.66 6.96 32.66 5.78"/>
    <polygon points="38.05 5.78 33.89 5.78 33.89 15.5 35.02 15.5 35.02 11.03 37.77 11.03 37.77 9.88 35.02 9.88 35.02 6.96 38.05 6.96 38.05 5.78"/>
    <path d="M25.65,13.24a1.38,1.38,0,0,1-1.19,1h0a1.36,1.36,0,0,1-1.17-1,6.83,6.83,0,0,1-.44-2.62A6.8,6.8,0,0,1,23.26,8a1.39,1.39,0,0,1,1.2-1.09A1.39,1.39,0,0,1,25.65,8a6.74,6.74,0,0,1,.42,2.56A7.05,7.05,0,0,1,25.65,13.24Zm0.87-6.07a2.27,2.27,0,0,0-2-1.4,2.3,2.3,0,0,0-2,1.39,7.21,7.21,0,0,0-.77,3.53,7.18,7.18,0,0,0,.71,3.41,2.26,2.26,0,0,0,2,1.38h0a2.31,2.31,0,0,0,2-1.32,7.25,7.25,0,0,0,.77-3.62A7.16,7.16,0,0,0,26.52,7.16Z"/>
    <polygon points="10.55 0.5 5.75 0.5 0.95 0.5 0.95 7.45 0.95 14.39 5.75 14.39 10.55 14.39 20.14 14.39 20.14 7.45 20.14 0.5 10.55 0.5"/>
    <path class="cls-1" d="M1.59,1c-0.33.23-.53,6.12-0.53,6.48s0.2,6.24.53,6.48c0.13,0.09,4.11.17,4.27,0.23s4.15,0.1,4.32.12,1.13,0,1.26,0,1.46,0,1.58,0c0.35-.05,6.24-0.18,6.48-0.35S20,7.81,20,7.45,19.83,1.2,19.5,1,14.25,0.66,13.9.61c-0.12,0-1.73,0-1.85,0s-1.74,0-1.86,0S6,0.68,5.87.74,1.72,0.88,1.59,1Z"/>
    <path class="cls-2" d="M2.23,1.44c-0.65.47-1.06,5.29-1.06,6s0.4,5.54,1.06,6c0.26,0.19,3.43.34,3.75,0.46s3.5,0.2,3.84.25,1.15,0.05,1.4.05,1.41,0,1.64-.05c0.71-.1,5.51-0.36,6-0.71,0.65-.47,1.06-5.29,1.06-6s-0.4-5.54-1.06-6c-0.49-.35-4.64-0.61-5.35-0.71-0.23,0-1.6-.05-1.85-0.05s-1.61,0-1.85.05S6.28,0.86,6,1,2.49,1.25,2.23,1.44Z"/>
    <path class="cls-3" d="M2.88,1.9c-1,.71-1.59,4.47-1.59,5.55S1.9,12.29,2.88,13c0.38,0.27,2.74.51,3.22,0.7s2.85,0.3,3.36.37a14.87,14.87,0,0,0,1.54.08c0.37,0,1.35,0,1.7-.08,1.06-.16,4.79-0.54,5.52-1.07,1-.71,1.59-4.47,1.59-5.55S19.2,2.61,18.22,1.9c-0.74-.53-4-0.91-5.09-1.07-0.35-.05-1.46-0.08-1.84-0.08s-1.49,0-1.84.08C8.95,0.91,6.55,1,6.1,1.21S3.26,1.63,2.88,1.9Z"/>
    <path class="cls-4" d="M3.52,2.37C2.21,3.31,1.4,6,1.4,7.45s0.81,4.13,2.12,5.08a16.6,16.6,0,0,0,2.7.93,20.29,20.29,0,0,0,2.87.49,13.27,13.27,0,0,0,1.68.11,14.57,14.57,0,0,0,1.76-.11c1.41-.21,4.06-0.71,5-1.42,1.31-.95,2.12-3.64,2.12-5.08s-0.81-4.14-2.12-5.08A14.17,14.17,0,0,0,12.75.95a15.89,15.89,0,0,0-3.66,0,20.52,20.52,0,0,0-2.87.5A17.17,17.17,0,0,0,3.52,2.37Z"/>
    <path class="cls-5" d="M12.37,1.06a12.63,12.63,0,0,0-3.64,0A10.43,10.43,0,0,0,4.16,2.84,5.77,5.77,0,0,0,1.51,7.45a5.78,5.78,0,0,0,2.64,4.61,10.48,10.48,0,0,0,4.57,1.77,12.49,12.49,0,0,0,3.64,0,10.47,10.47,0,0,0,4.57-1.77,5.78,5.78,0,0,0,2.65-4.61,5.77,5.77,0,0,0-2.65-4.61A10.42,10.42,0,0,0,12.37,1.06Z"/>
  </g>
  <rect class="cls-6" width="39" height="16"/>
</svg>
