<svg id="icon" xmlns="http://www.w3.org/2000/svg" width="27.77" height="16" viewBox="0 0 27.77 16">
  <polygon points="1.39 5.55 1.39 1.39 5.55 1.39 5.55 0 0 0 0 5.55 1.39 5.55"/>
  <polygon points="1.39 8.89 0 8.89 0 14.44 5.55 14.44 5.55 13.05 1.39 13.05 1.39 8.89"/>
  <g>
    <path d="M17.66,4.6,21.34,16h-2.2l-.76-2.7H14.61L13.85,16h-2.2L15.34,4.6ZM16.48,6.35s0,.06,0,.1a.68.68,0,0,0,0,.14.89.89,0,0,0,0,.15.87.87,0,0,1,0,.1L15,11.68h3L16.58,6.86Z"/>
    <path d="M22.12,4.6h5.65V6.17h-3.6V9.44h3.35V11H24.17v5H22.12Z"/>
  </g>
  <path d="M14.07,5.18a6.11,6.11,0,0,0-5.15-3.1A4.36,4.36,0,0,0,4.5,7.22a6.11,6.11,0,0,0,5.86,5.14,4.91,4.91,0,0,0,1.46-.22Z"/>
  <path d="M17.89,3.61a1,1,0,0,1,.75.68l.41,1.26h.23V0H13.72V1.39h4.17Z"/>
</svg>
