<svg id="レイヤー_1" data-name="レイヤー 1" xmlns="http://www.w3.org/2000/svg" width="18" height="18" viewBox="0 0 18 18">
  <defs>
    <style>
      .cls-1 {
        fill: none;
      }
    </style>
  </defs>
  <title>icon_ps-sharpness-f</title>
  <rect class="cls-1" width="18" height="18"/>
  <path d="M17.3,7.2H16.5l-0.1-.5-0.1-.4C16.2,6.2,16.1,6,16,5.9a3.33,3.33,0,0,1-.3-0.6c-0.1-.2-0.2-0.3-0.3-0.5V7.2H14.6V3.8L14,3.3l-0.4-.4-0.4-.3-0.6-.4v5H12V2c-0.5-.2-0.9-0.3-1.4-0.5A7.77,7.77,0,0,0,9,1.3a2.77,2.77,0,0,0-.9.1,2.92,2.92,0,0,0-.9.2H7.6V2.5H6.8V1.8l-0.5.1V2.5H6.8V3.3H6.2V4.2H6.7V5.1H6.2V6H5.4V7H5.9V6.1H6.8V7H6.2V7.9H5.4V8.8H5.9V7.9H6.8V8.8H6.2V9.7H5.4v0.9H5.9V9.7H6.8v0.9H6.2v0.9H6.7v0.9H6.2v0.9H6.7v0.9H6.2V15H5.4v0.6l0.3,0.1,0.2,0.1V15H6.8v0.9H5.9L6.3,16l0.5,0.1V15.8H7.7v0.5a5.7,5.7,0,0,0,1.3.1,6.9,6.9,0,0,0,2.5-.4v1a7.27,7.27,0,0,1-2.5.4,7.54,7.54,0,0,1-3.3-.7,9,9,0,0,1-4.5-4.5A9.19,9.19,0,0,1,.6,8.9a7.84,7.84,0,0,1,.7-3.3A9,9,0,0,1,5.8,1.1,8.84,8.84,0,0,1,9.1.4,7.17,7.17,0,0,1,12,1a8.87,8.87,0,0,1,2.5,1.4,9.52,9.52,0,0,1,1.9,2.1C16.7,5.4,17.1,6.3,17.3,7.2ZM4,14.1H4.5V13.2H4V12.3H4.5V11.4H4V10.5H4.5V9.7H4V8.8H4.5V7.9H4V7H4.5V6.1H4V5.2H4.5V4.3H4V3.4H4.5V2.9a2.36,2.36,0,0,0-.5.5V14.7H4V14.1H4Zm0.5,1h0ZM5.4,3.4H5.9V2.5H5.4V2.4l-0.3.1H5.4V3.4Zm0,1.8H5.9V4.3H5.4V5.2h0Zm0,7.1H5.9V11.4H5.4v0.9h0Zm0,1.8H5.9V13.3H5.4v0.8h0ZM7.6,3.4V4.3H6.8V3.4H7.6Zm0,1.8V6.1H6.8V5.2H7.6ZM7.6,7V7.9H6.8V7H7.6Zm0,1.7V9.6H6.8V8.8l0.8-.1h0Zm0,1.8v0.9H6.8V10.6l0.8-.1h0Zm0,1.8v0.9H6.8V12.4l0.8-.1h0Zm0,1.8V15H6.8V14.1H7.6ZM8.5,2.5V3.3H7.6V2.5H8.5Zm0,1.8V5.2H7.6V4.3H8.5Zm0,1.8V7H7.6V6.1H8.5Zm0,1.8V8.8H7.6V7.9H8.5Zm0,1.8v0.9H7.6V9.7H8.5Zm0,1.8v0.9H7.6V11.5H8.5Zm0,1.8v0.9H7.6V13.3H8.5Zm0,1.7v0.9H7.6V15H8.5Zm8.9-7.3V9.3H13.9v2.3h3.3v1.6H13.9v4.2H12.2V7.7h5.2Z"/>
</svg>
