<svg id="レイヤー_1" data-name="レイヤー 1" xmlns="http://www.w3.org/2000/svg" width="12.8" height="16" viewBox="0 0 12.8 16">
  <defs>
    <style>
      .cls-1 {
        fill: none;
      }

      .cls-2 {
        fill: #fff;
      }

      .cls-3 {
        fill: #c6c6c6;
      }
    </style>
  </defs>
  <rect class="cls-1" width="12.8" height="16"/>
  <g>
    <path class="cls-2" d="M3.93,6.34V7.41H.17V6.34Z"/>
    <path class="cls-2" d="M3.93,9.34H.28v-1H3.93v1Z"/>
    <path class="cls-2" d="M4.25,11.28H.6l-.21-1H4c0,.21.1.32.1.54S4.25,11.17,4.25,11.28Z"/>
    <path class="cls-2" d="M4.36,4.4c0,.22-.11.32-.11.54a4.52,4.52,0,0,0-.11.54H.49c0-.22.11-.33.11-.54s.11-.32.11-.54Z"/>
    <path class="cls-2" d="M5,13.21H1.35c-.1-.11-.1-.32-.21-.43S1,12.46.92,12.24H4.57c.11.22.11.32.22.54A.59.59,0,0,0,5,13.21Z"/>
    <path class="cls-2" d="M5.11,2.47a.79.79,0,0,0-.21.43c-.11.21-.22.32-.22.54H1c.11-.22.11-.33.22-.54s.1-.32.21-.54H5.11Z"/>
    <path class="cls-3" d="M8.23,16H4.68a2.47,2.47,0,0,1-1.5-.43,7.13,7.13,0,0,1-1.29-1.29H5.54a4.79,4.79,0,0,0,1.29,1.29A2.39,2.39,0,0,0,8.23,16Z"/>
    <path class="cls-3" d="M8.23,0a2.18,2.18,0,0,0-1.4.43A3.37,3.37,0,0,0,5.76,1.5H2.1A2.85,2.85,0,0,1,3.29.43,3,3,0,0,1,4.68,0Z"/>
    <path class="cls-3" d="M12.63,8a12,12,0,0,1-.32,2.79,11.9,11.9,0,0,1-.76,2.36,5.36,5.36,0,0,1-1.18,1.72,5.58,5.58,0,0,1-1.39,1A3.68,3.68,0,0,1,7,15l-.21-.21a3.93,3.93,0,0,0,.86-1.29,10.56,10.56,0,0,0,.75-1.61A9.94,9.94,0,0,0,8.87,10,13.44,13.44,0,0,0,9,7.84a14.08,14.08,0,0,0-.11-2.15A10.34,10.34,0,0,0,8.33,4a5.57,5.57,0,0,0-.64-1.61,7.2,7.2,0,0,0-.86-1.29A1.74,1.74,0,0,1,7.26.64,3.86,3.86,0,0,1,8.76,0a3.09,3.09,0,0,1,1.51.86,11.65,11.65,0,0,1,1.28,1.72,12.29,12.29,0,0,1,.86,2.47A25.55,25.55,0,0,1,12.63,8Z"/>
  </g>
</svg>
