<svg id="レイヤー_1" data-name="レイヤー 1" xmlns="http://www.w3.org/2000/svg" width="18" height="16" viewBox="0 0 18 16">
  <defs>
    <style>
      .cls-1 {
        fill: blue;
      }

      .cls-2 {
        fill: none;
      }
    </style>
  </defs>
  <title>icon_language_b</title>
  <path class="cls-1" d="M9.94,10.46H8.27v1.4l-0.78.37-0.57.26-0.47.21L7,12.93l0.59,0.29,0.8,0.38v0.56a1.31,1.31,0,0,1-.19.71,1,1,0,0,1-.43.36,1.66,1.66,0,0,1-.56.14H3a2.21,2.21,0,0,1-.89-0.18A2.36,2.36,0,0,1,.91,14a2.19,2.19,0,0,1-.18-0.9V7.69A2.21,2.21,0,0,1,.91,6.81,2.31,2.31,0,0,1,1.4,6.07a2.35,2.35,0,0,1,.73-0.49A2.21,2.21,0,0,1,3,5.39H7.22L7.4,5.5a4.18,4.18,0,0,1,1.07.8,5.58,5.58,0,0,1,.8,1,5.12,5.12,0,0,1,.5,1.15,3.85,3.85,0,0,1,.17,1.1v0.91ZM9.07,9.58a3,3,0,0,0-.15-0.9A4.41,4.41,0,0,0,8.5,7.75,4.24,4.24,0,0,0,7.84,6.9,3.46,3.46,0,0,0,7,6.28H3a1.34,1.34,0,0,0-.55.11,1.52,1.52,0,0,0-.45.3,1.4,1.4,0,0,0-.42,1v5.4a1.36,1.36,0,0,0,.42,1,1.5,1.5,0,0,0,.45.3A1.34,1.34,0,0,0,3,14.5H7a1,1,0,0,0,.26,0,0.16,0.16,0,0,0,.11-0.11,0.78,0.78,0,0,0,0-.21l-3-1.46,3-1.4V9.58h1.7Zm8.2,0.26a2.51,2.51,0,0,1-.21,1,2.65,2.65,0,0,1-1.4,1.4,2.51,2.51,0,0,1-1,.21h-1L13.14,13l-0.93.92-1.6,1.58v-3H9.16V11.6H11.5v1.79l1.8-1.79h1.35a1.66,1.66,0,0,0,.68-0.14,1.8,1.8,0,0,0,.55-0.38,1.77,1.77,0,0,0,.37-0.55,1.67,1.67,0,0,0,.14-0.68V3.13a1.67,1.67,0,0,0-.14-0.68,1.77,1.77,0,0,0-.93-0.93,1.68,1.68,0,0,0-.68-0.14h-7A1.67,1.67,0,0,0,7,1.52a1.94,1.94,0,0,0-.56.38,1.66,1.66,0,0,0-.4.54,1.74,1.74,0,0,0-.14.68v1.4H5V3.13a2.54,2.54,0,0,1,.21-1A2.65,2.65,0,0,1,5.78,1.3,2.78,2.78,0,0,1,6.59.71a2.51,2.51,0,0,1,1-.21h7a2.51,2.51,0,0,1,1,.21,2.66,2.66,0,0,1,.83.56A2.7,2.7,0,0,1,17,2.1a2.52,2.52,0,0,1,.21,1V9.84h0.08ZM7,8.37a0.77,0.77,0,1,1-.22-0.56A0.75,0.75,0,0,1,7,8.37Zm8.3-4.2H7V3.38h8.26V4.16h0Zm0,2.48H9.86a3,3,0,0,0-.27-0.4L9.28,5.86h6V6.64h0Zm0,2.48H10.79a0.72,0.72,0,0,0-.07-0.38,1.67,1.67,0,0,1-.1-0.4h4.63V9.12H15.3Z"/>
  <rect class="cls-2" width="18" height="16"/>
</svg>
