<svg id="レイヤー_1" data-name="レイヤー 1" xmlns="http://www.w3.org/2000/svg" width="86" height="16" viewBox="0 0 86 16">
  <defs>
    <style>
      .cls-1 {
        fill: none;
      }
    </style>
  </defs>
  <title>icon_calibrate</title>
  <g>
    <path d="M9.59,3.14a4.28,4.28,0,0,0-2.5-.81C4.32,2.33,2.48,4.74,2.48,8s2,5.66,4.54,5.66A5.11,5.11,0,0,0,9.64,13l0.1,2A6.41,6.41,0,0,1,7,15.5c-3.81,0-6.35-3-6.35-7.55S3.35,0.5,7,.5a5.67,5.67,0,0,1,2.71.63l-0.13,2"/>
    <path d="M16.3,0.75h1.81L23.2,15.25H21.33L20.1,11.6H14.19L13,15.25H11.15L16.3,0.75M17.15,2.7L14.75,9.89h4.8Z"/>
    <polyline points="24.73 0.75 26.47 0.75 26.47 13.41 31.51 13.41 31.51 15.25 24.73 15.25 24.73 0.75"/>
    <rect x="33.38" y="0.75" width="1.74" height="14.49"/>
    <path d="M37.28,0.75h3.29c2.48,0,4.21,1,4.21,3.66a3.22,3.22,0,0,1-2.49,3.45v0a3.18,3.18,0,0,1,2.81,3.49c0,3.11-2.15,3.86-4.58,3.86H37.28V0.75M39,6.94H40c1.68,0,3.08-.19,3.08-2.32a2,2,0,0,0-2.21-2.17H39V6.94Zm0,6.61h1.3c1.55,0,2.94-.4,2.94-2.35,0-2.24-1.64-2.56-3.11-2.56H39v4.91Z"/>
    <path d="M47,0.75h2.94c2.39,0,4.68.46,4.68,3.93A3.2,3.2,0,0,1,52.11,8V8a2.27,2.27,0,0,1,1.18,1.45l2.27,5.77h-2l-1.85-5c-0.54-1.41-1.11-1.41-2-1.41h-1v6.43H47V0.75M48.68,7h1.47c1.65,0,2.62-.88,2.62-2.26s-0.84-2.15-2.43-2.15H48.68V7Z"/>
    <path d="M61.76,0.75h1.81l5.09,14.49H66.79L65.56,11.6h-5.9l-1.23,3.65H56.61L61.76,0.75M62.61,2.7L60.21,9.89H65Z"/>
    <polyline points="71.43 2.57 67.66 2.57 67.66 0.75 76.89 0.75 76.89 2.57 73.14 2.57 73.14 15.25 71.43 15.25 71.43 2.57"/>
    <polyline points="78.61 0.75 85.36 0.75 85.36 2.57 80.33 2.57 80.33 6.82 84.91 6.82 84.91 8.64 80.33 8.64 80.33 13.41 85.36 13.41 85.36 15.25 78.61 15.25 78.61 0.75"/>
  </g>
  <rect class="cls-1" width="86" height="16"/>
</svg>
