<svg id="レイヤー_1" data-name="レイヤー 1" xmlns="http://www.w3.org/2000/svg" width="17" height="16" viewBox="0 0 17 16">
  <defs>
    <style>
      .cls-1 {
        fill: #231815;
      }
    </style>
  </defs>
  <title>名称未設定-1</title>
  <path class="cls-1" d="M8.47,0l1,3.18q.39,1.21.6,1.87l.36,1.1H17L14.26,8.08l-1.6,1.14q-.67.46-.94.68.1.32.32,1.08t.56,1.87q.37,1.21,1,3.15L11,14.08,9.41,12.94l-.94-.68-.91.68L6,14.08Q5,14.82,3.4,16l1-3.15q.37-1.21.56-1.87L5.26,9.9,0,6.15H6.53q.09-.3.24-.79t.35-1.08L7.65,2.6ZM4.24,7.59l.67.47.81.6q.47.35,1.12.79L6.42,10.8l-.29,1-.24.81.67-.47.79-.6,1.12-.82,1.13.84.82.59.67.49q-.1-.35-.26-.83l-.29-1-.39-1.36,1.11-.79q.5-.35.82-.6l.67-.47H9.45Q9.19,6.86,9,6.3t-.29-.91Q8.58,5,8.47,4.63l-.24.76q-.12.35-.29.91T7.53,7.59H4.24Z"/>
</svg>
