<svg id="レイヤー_1" data-name="レイヤー 1" xmlns="http://www.w3.org/2000/svg" width="20" height="16" viewBox="0 0 20 16">
  <defs>
    <style>
      .cls-1 {
        fill: none;
      }
    </style>
  </defs>
  <title>icon_tab-custom</title>
  <path d="M2.09,12.5v2.27H0.94V12.5H2.09ZM16.42,3.59V9.48a1.06,1.06,0,0,1-1.07,1.07H4.65A1.06,1.06,0,0,1,3.58,9.48V3.59A1.06,1.06,0,0,1,4.65,2.52H7l1.28-2h3.5l1.28,2h2.33A1.06,1.06,0,0,1,16.42,3.59ZM6.26,12.5v2.27H5.09V12.5H6.26Zm6.52-6.21a2.64,2.64,0,0,0-.22-1.07,2.81,2.81,0,0,0-1.47-1.47,2.72,2.72,0,0,0-2.15,0A2.8,2.8,0,0,0,7.46,5.21a2.71,2.71,0,0,0,0,2.15A2.8,2.8,0,0,0,8.94,8.83a2.72,2.72,0,0,0,2.15,0,2.81,2.81,0,0,0,1.47-1.47A2.64,2.64,0,0,0,12.78,6.29Zm-2,5.47V15.5H9.25V11.75h1.51Zm4.15,0.71v2.27H13.75V12.46h1.15Zm4.15,0v2.27H17.91V12.46h1.15Z"/>
  <rect class="cls-1" width="20" height="16"/>
</svg>
