<svg id="レイヤー_1" data-name="レイヤー 1" xmlns="http://www.w3.org/2000/svg" width="27" height="16" viewBox="0 0 27 16">
  <defs>
    <style>
      .cls-1 {
        fill: none;
      }
    </style>
  </defs>
  <title>icon_uhd</title>
  <rect class="cls-1" width="27" height="16"/>
  <g>
    <g>
      <rect class="cls-1" x="1.31" y="1.55" width="1.93" height="2.05"/>
      <rect class="cls-1" x="1.31" y="4.77" width="1.93" height="2.07"/>
      <path d="M0.83,0.5V11.07h1l0.44-1h-1V8.05H3.24L3.74,7V1.53H17.08V3.36h1V0.5H0.83ZM3.24,6.84H1.31V4.77H3.24V6.84Zm0-3.24H1.31V1.55H3.24V3.6Z"/>
    </g>
    <path d="M7.67,11.76V4.54H5.86L2.71,11.41v1.83H6.16V15.5H7.67V13.24h1V11.76h-1Zm-1.51,0H3.91L6.15,6.55h0v5.21Z"/>
    <polygon points="16.53 15.5 14.51 15.5 11.77 10.36 11.73 10.36 11.73 15.5 10.06 15.5 10.06 4.54 11.73 4.54 11.73 9.19 11.77 9.19 14.37 4.54 16.28 4.54 13.2 9.71 16.53 15.5"/>
    <rect x="15.5" y="8.87" width="2.6" height="0.97"/>
    <path d="M24.72,4.54h1.46v6.89a7.38,7.38,0,0,1-.2,1.86,3.45,3.45,0,0,1-.59,1.26,2.29,2.29,0,0,1-.93.72,3.51,3.51,0,0,1-2.51,0A2.29,2.29,0,0,1,21,14.55a3.46,3.46,0,0,1-.59-1.26,7.4,7.4,0,0,1-.2-1.86V4.54h1.47v6.23A8.89,8.89,0,0,0,21.77,12,3.65,3.65,0,0,0,22,13a1.54,1.54,0,0,0,.46.62,1.13,1.13,0,0,0,.7.22,1.16,1.16,0,0,0,.72-0.22A1.52,1.52,0,0,0,24.39,13a3.53,3.53,0,0,0,.25-1,9.32,9.32,0,0,0,.08-1.26V4.54Z"/>
  </g>
</svg>
