<svg id="レイヤー_1" data-name="レイヤー 1" xmlns="http://www.w3.org/2000/svg" width="17" height="16" viewBox="0 0 17 16">
  <defs>
    <style>
      .cls-1 {
        fill: none;
      }
    </style>
  </defs>
  <title>icon_wb-wf-light</title>
  <path d="M0.58,2.14l0.68-.55L3.66,4.46,3,5Zm0,11.7L3,11l0.68,0.57L1.25,14.41Zm0.18-8H16.22v4.42H0.76V5.8ZM1.65,6.67V9.33H3.2V6.67H1.65ZM4.19,1L5,0.67,6.31,4.2l-0.83.29ZM4.19,15l1.29-3.52,0.83,0.31L5,15.33ZM8.05,0.5H8.95V4.25H8.05V0.5Zm0,11.25H8.95V15.5H8.05V11.75ZM10.7,4.2L12,0.67,12.8,1,11.53,4.49Zm0,7.62,0.83-.31L12.8,15,12,15.33Zm2.63-7.35,2.43-2.87,0.67,0.55L14,5Zm0,7.09L14,11l2.43,2.86-0.67.57ZM13.8,6.67V9.33h1.55V6.67H13.8Z"/>
  <rect class="cls-1" width="17" height="16"/>
</svg>
