<svg id="レイヤー_1" data-name="レイヤー 1" xmlns="http://www.w3.org/2000/svg" width="22" height="16" viewBox="0 0 22 16">
  <defs>
    <style>
      .cls-1 {
        fill: none;
      }
    </style>
  </defs>
  <title>icon_swich-aspect</title>
  <rect class="cls-1" width="22" height="16"/>
  <g>
    <path d="M18.19,2.42V0.5H1V11.78H11.33l-0.18-.43a1,1,0,0,1-.2-0.48H4.83V1.49h9.48V3.84h1V1.49h2V3.83H17.4V3.36a1,1,0,0,1,.79-0.94h0ZM3.84,10.88H2V1.49H3.84v9.39Z"/>
    <path d="M13.09,10.76H11.91V6.1a1.3,1.3,0,0,1,1.3-1.3h5.16V3.36L21,5.53l-2.6,2.17V6.16h-5.1a0.23,0.23,0,0,0-.23.24Z"/>
    <path d="M19.72,8.1H20.9v4.66a1.3,1.3,0,0,1-1.3,1.3H14.44V15.5l-2.6-2.17,2.6-2.17V12.7h5.1a0.23,0.23,0,0,0,.23-0.24Z"/>
  </g>
</svg>
