<?xml version="1.0" encoding="utf-8"?>
<!-- Generator: Adobe Illustrator 23.0.3, SVG Export Plug-In . SVG Version: 6.00 Build 0)  -->
<svg version="1.1" id="レイヤー_1" xmlns="http://www.w3.org/2000/svg" xmlns:xlink="http://www.w3.org/1999/xlink" x="0px"
	 y="0px" width="24.09px" height="15.87px" viewBox="0 0 24.09 15.87" enable-background="new 0 0 24.09 15.87"
	 xml:space="preserve">
<g>
	<path fill="#040000" d="M10.02,11.74H8.44v3.17h-1.8v-3.17H0.79v-1.64L5.86,1h2.57v9.11h1.58V11.74z M6.64,10.11V2.64H6.6
		l-3.92,7.47H6.64z M13.32,5.05h-1.98V3.09h1.98V5.05z M13.32,13.33h-1.98v-1.98h1.98V13.33z M23.31,11.2
		c0,0.79-0.14,1.44-0.42,1.95c-0.28,0.51-0.65,0.91-1.12,1.21c-0.46,0.29-0.99,0.5-1.58,0.6c-0.59,0.11-1.2,0.16-1.83,0.16
		c-0.5,0-1.01-0.05-1.52-0.16c-0.51-0.11-0.96-0.23-1.36-0.36l0.11-1.85c0.32,0.18,0.73,0.35,1.21,0.51s1,0.24,1.54,0.24
		c0.34,0,0.69-0.04,1.05-0.12c0.37-0.08,0.7-0.21,0.99-0.4c0.29-0.19,0.54-0.43,0.73-0.74c0.19-0.31,0.29-0.68,0.29-1.13
		c0-0.52-0.09-0.95-0.26-1.29s-0.41-0.61-0.69-0.81c-0.29-0.2-0.62-0.34-1-0.42c-0.38-0.08-0.77-0.13-1.18-0.13h-1.1V6.85h1.01
		c0.32,0,0.67-0.04,1.04-0.11c0.37-0.07,0.7-0.19,1.01-0.36c0.3-0.17,0.56-0.4,0.77-0.69c0.2-0.29,0.3-0.66,0.3-1.11
		c0-0.4-0.07-0.73-0.2-1.02c-0.13-0.28-0.31-0.51-0.54-0.68c-0.23-0.17-0.49-0.3-0.79-0.38c-0.3-0.08-0.61-0.12-0.94-0.12
		c-0.58,0-1.09,0.08-1.54,0.22c-0.45,0.15-0.87,0.33-1.25,0.53l-0.11-1.76c0.42-0.17,0.91-0.32,1.48-0.44s1.13-0.19,1.67-0.19
		c0.55,0,1.08,0.08,1.57,0.23s0.94,0.38,1.31,0.69c0.38,0.31,0.68,0.71,0.9,1.18c0.22,0.47,0.33,1.04,0.33,1.7
		c0,0.43-0.07,0.83-0.22,1.19c-0.14,0.36-0.34,0.67-0.59,0.94c-0.25,0.26-0.54,0.49-0.86,0.67c-0.32,0.18-0.67,0.31-1.03,0.38v0.04
		c0.84,0.19,1.52,0.57,2.03,1.13C23.05,9.43,23.31,10.21,23.31,11.2z"/>
</g>
</svg>
