<svg id="icon" xmlns="http://www.w3.org/2000/svg" width="27" height="16" viewBox="0 0 27 16">
  <g>
    <polygon points="27 13 24 10 24 12 21.5 12 21.5 10 18.5 13 21.5 16 21.5 14 24 14 24 16 27 13"/>
    <g>
      <g>
        <path d="M21.87,2.36H12.44a.92.92,0,0,1,0-1.84h9.43a.92.92,0,1,1,0,1.84Z"/>
        <path d="M20,6.42H14a.92.92,0,0,1,0-1.84h6a.92.92,0,0,1,0,1.84Z"/>
        <path d="M18.46,10.48H13.23a.92.92,0,1,1,0-1.84h5.23a.92.92,0,1,1,0,1.84Z"/>
      </g>
      <path d="M.05,5.5A4.67,4.67,0,0,1,4.78,0a6.53,6.53,0,0,1,6.27,5.5A4.66,4.66,0,0,1,6.33,11,6.55,6.55,0,0,1,.05,5.5Z"/>
    </g>
  </g>
</svg>
