<svg xmlns="http://www.w3.org/2000/svg" width="24" height="16" viewBox="0 0 24 16">
  <defs>
    <style>
      .cls-1 {
        fill: none;
      }
    </style>
  </defs>
  <g id="base">
    <rect class="cls-1" width="24" height="16"/>
  </g>
  <g id="icon">
    <g>
      <path d="M22.83.5H.33v15H23.67V.5Zm0,14.17H1.17V1.33H22.83Z"/>
      <path d="M6.17,8.28a1.74,1.74,0,0,1,.8.18,1.63,1.63,0,0,1,.6.54A2.52,2.52,0,0,1,8,9.86a4.76,4.76,0,0,1,.13,1.19A4.6,4.6,0,0,1,8,12.22a2.52,2.52,0,0,1-.38.86,1.55,1.55,0,0,1-.6.54,1.74,1.74,0,0,1-.8.18,1.79,1.79,0,0,1-.81-.18,1.7,1.7,0,0,1-.6-.54,2.73,2.73,0,0,1-.38-.86,4.6,4.6,0,0,1-.13-1.17,4.76,4.76,0,0,1,.13-1.19A2.73,2.73,0,0,1,4.76,9a1.8,1.8,0,0,1,.6-.54A1.79,1.79,0,0,1,6.17,8.28Zm1,2.77a5.39,5.39,0,0,0-.06-.85,2.43,2.43,0,0,0-.19-.64,1.09,1.09,0,0,0-.32-.4A.72.72,0,0,0,6.17,9a.77.77,0,0,0-.45.14,1.07,1.07,0,0,0-.31.4,2.1,2.1,0,0,0-.19.64,4.36,4.36,0,0,0-.07.85,4.32,4.32,0,0,0,.07.84,2.13,2.13,0,0,0,.19.63,1,1,0,0,0,.31.4.71.71,0,0,0,.45.14.66.66,0,0,0,.44-.14,1,1,0,0,0,.32-.4,2.47,2.47,0,0,0,.19-.63A5.35,5.35,0,0,0,7.18,11.05Z"/>
      <path d="M11.54,8.37h.76v5.36h-1L9.76,10h0l-.08-.17-.06-.16v4.08H8.89V8.37h1l1.54,3.74.06.14,0,.07s0,0,0,.06l0,.12,0-.24Z"/>
      <path d="M6.19,2.29,7.75,7.64H6.81L6.49,6.38H4.9L4.58,7.64H3.65L5.2,2.29Zm-.5.82s0,0,0,0a.15.15,0,0,1,0,.07v.07a.11.11,0,0,0,0,0l-.6,2.27H6.33l-.6-2.26Z"/>
      <path d="M11.67,5h1.58v.7H11.67Z"/>
      <path d="M8.27,2.29h2.39V3H9.14V4.56h1.42V5.3H9.14V7.64H8.27Z"/>
      <path d="M18.59,7.87A3.34,3.34,0,0,1,19,8a2.81,2.81,0,0,1,.38.2,2.59,2.59,0,0,1,.36.32,1.82,1.82,0,0,1,.31.44,3.94,3.94,0,0,1,.21.61,3.7,3.7,0,0,1,.08.79,3.39,3.39,0,0,1-.18,1.13,2.4,2.4,0,0,1-.52.89,2.48,2.48,0,0,1-.88.57,3.45,3.45,0,0,1-1.25.2c-.28,0-.52,0-.74,0a4.52,4.52,0,0,1-.58-.08,3.17,3.17,0,0,1-.49-.13,2.88,2.88,0,0,1-.45-.19l.11-1.49a2.24,2.24,0,0,0,.41.2,2.78,2.78,0,0,0,.51.17,5.05,5.05,0,0,0,.56.12,3.65,3.65,0,0,0,.55,0,1.62,1.62,0,0,0,.49-.08,1,1,0,0,0,.44-.26,1.27,1.27,0,0,0,.32-.49,1.9,1.9,0,0,0,.13-.77,1.73,1.73,0,0,0-.15-.77,1.18,1.18,0,0,0-.38-.49,1.38,1.38,0,0,0-.53-.26,2.35,2.35,0,0,0-.6-.08h-.79V7.22h.85a2.48,2.48,0,0,0,.54-.06,1.37,1.37,0,0,0,.49-.22,1.24,1.24,0,0,0,.35-.45,1.62,1.62,0,0,0,.14-.72,1.93,1.93,0,0,0-.1-.63,1.15,1.15,0,0,0-.28-.44,1.18,1.18,0,0,0-.43-.26,2,2,0,0,0-.56-.08,1.77,1.77,0,0,0-.5.07,4.56,4.56,0,0,0-.52.18l-.47.22L15.44,5l-.08-1.48.25-.13a3.5,3.5,0,0,1,.49-.2,4.59,4.59,0,0,1,.67-.18A4.32,4.32,0,0,1,17.59,3a3,3,0,0,1,1.13.19,2.37,2.37,0,0,1,.82.53,2.19,2.19,0,0,1,.49.8,2.94,2.94,0,0,1,.16,1,3,3,0,0,1-.15,1,2.2,2.2,0,0,1-.4.71,1.94,1.94,0,0,1-.52.44,2.18,2.18,0,0,1-.52.21Z"/>
    </g>
  </g>
</svg>
