<svg id="レイヤー_2" data-name="レイヤー 2" xmlns="http://www.w3.org/2000/svg" width="30" height="16" viewBox="0 0 30 16">
  <defs>
    <style>
      .cls-1 {
        fill: none;
      }
    </style>
  </defs>
  <title>icon_raw_alo</title>
  <g>
    <path d="M22,10.07a4.67,4.67,0,0,1,.47,2.3A4.67,4.67,0,0,1,22,14.66a1.63,1.63,0,0,1-2.85,0,4.6,4.6,0,0,1-.48-2.29,4.74,4.74,0,0,1,.47-2.3,1.53,1.53,0,0,1,1.43-.83A1.55,1.55,0,0,1,22,10.07Zm-1,4a1.26,1.26,0,0,0,.27-.43,2.55,2.55,0,0,0,.15-.61,5.62,5.62,0,0,0,0-.72,4.18,4.18,0,0,0-.2-1.37c-.13-.38-.35-.56-.66-.56s-.53.19-.66.56a4.18,4.18,0,0,0-.2,1.37,5.37,5.37,0,0,0,0,.72,2.48,2.48,0,0,0,.15.61,1.24,1.24,0,0,0,.27.43.56.56,0,0,0,.79,0Zm3.06-3.83v1.5h1.32v1H24.06V15.5h-1V9.24h2.29V10.3Zm3.29,0v1.5h1.32v1H27.35V15.5h-1V9.24h2.29V10.3Z"/>
    <path d="M11.18,12.19H2.64a1.28,1.28,0,0,1-.5-.1,1.35,1.35,0,0,1-.42-.28,1.22,1.22,0,0,1-.28-.41,1.31,1.31,0,0,1-.1-.51V4.2a1.31,1.31,0,0,1,.1-.51,1.22,1.22,0,0,1,.28-.41A1.37,1.37,0,0,1,2.14,3a1.28,1.28,0,0,1,.5-.1h3l0,0V2.46a1.27,1.27,0,0,1,.22-.69,3.14,3.14,0,0,1,.54-.63A3,3,0,0,1,7.08.67,1.27,1.27,0,0,1,7.63.5H9.87a1.22,1.22,0,0,1,.52.18,3.57,3.57,0,0,1,.65.46,3.25,3.25,0,0,1,.55.63,1.54,1.54,0,0,1,.15.29h-.56V5.41a3.09,3.09,0,0,0-.28-.33,3,3,0,0,0-4.33,0,3.19,3.19,0,0,0-.65,1,3,3,0,0,0-.24,1.2,3,3,0,0,0,.24,1.19,3.21,3.21,0,0,0,.65,1,3,3,0,0,0,4.33,0,3.16,3.16,0,0,0,.28-.32Z"/>
    <path d="M17.36,8.2a2.35,2.35,0,0,0,3.34,0,2.3,2.3,0,0,0,.69-1.68,2.36,2.36,0,1,0-4.72,0A2.3,2.3,0,0,0,17.36,8.2Z"/>
    <path d="M17.09,4.61H12.9V4.07h4.92A2.52,2.52,0,0,0,17.09,4.61Z"/>
    <path d="M16.66,5.19a2.23,2.23,0,0,0-.24.52H12.9V5.19Z"/>
    <path d="M16.3,6.52a2.76,2.76,0,0,0,0,.3H12.9V6.28h3.41A2,2,0,0,0,16.3,6.52Z"/>
    <path d="M16.45,7.4a2.68,2.68,0,0,0,.24.52H12.9V7.4Z"/>
    <path d="M14.93,9h-2V8.51h2.58A2,2,0,0,0,14.93,9Z"/>
    <path d="M14.55,10.11v0H12.9V9.61h1.74A1.68,1.68,0,0,0,14.55,10.11Z"/>
    <rect x="12.9" y="10.72" width="1.65" height="0.52"/>
    <rect x="12.9" y="11.89" width="1.65" height="0.54"/>
    <path d="M18.08,12.43v-.06a5.34,5.34,0,0,1,.55-2.6A2.46,2.46,0,0,1,19,9.31,2,2,0,0,1,17.71,9a1.54,1.54,0,0,0-1.1-.43,1.57,1.57,0,0,0-1.29.61,1.55,1.55,0,0,0-.4,1v2.32Z"/>
    <path d="M26.08,8.62V2.69H11.8V13.82h6.42a6,6,0,0,1-.11-.74H12.53V3.44H25.36V8.62Z"/>
    <path d="M22.47,9.57a2.14,2.14,0,0,0-1.79-1,.89.89,0,0,1,.55-.09,1.59,1.59,0,0,1,1.23.59v.45Z"/>
  </g>
  <rect class="cls-1" width="30" height="16"/>
</svg>
