<svg xmlns="http://www.w3.org/2000/svg" width="16" height="16" viewBox="0 0 16 16">
  <defs>
    <style>
      .cls-1 {
        fill: none;
      }
    </style>
  </defs>
  <g id="base">
    <rect class="cls-1" width="16" height="16"/>
  </g>
  <g id="icon">
    <g>
      <path d="M7.16,4.78A3.34,3.34,0,0,1,8,4.67a3.7,3.7,0,0,1,.83.1V2.58h1.24L8,.5,5.92,2.58H7.16Z"/>
      <path d="M9.69,5.13A3.31,3.31,0,0,1,10.87,6.3l1.55-1.55.88.88V2.7H10.37l.88.88Z"/>
      <path d="M15.5,8,13.42,5.93V7.17H11.23a3.19,3.19,0,0,1,0,1.66h2.19v1.25Z"/>
      <path d="M10.87,9.7a3.31,3.31,0,0,1-1.18,1.17l1.55,1.56-.87.87H13.3V10.37l-.88.88Z"/>
      <path d="M8.83,11.23a3.7,3.7,0,0,1-.83.1,3.34,3.34,0,0,1-.84-.11v2.2H5.92L8,15.5l2.07-2.07H8.83Z"/>
      <path d="M5.13,6.31A3.42,3.42,0,0,1,6.31,5.13L4.75,3.58l.88-.88H2.7V5.63l.88-.88Z"/>
      <path d="M4.67,8a3.2,3.2,0,0,1,.11-.83H2.58V5.93L.5,8l2.08,2.08V8.83h2.2A3.2,3.2,0,0,1,4.67,8Z"/>
      <path d="M6.31,10.87A3.42,3.42,0,0,1,5.13,9.69L3.58,11.25l-.88-.88V13.3H5.63l-.87-.87Z"/>
      <circle cx="8" cy="8" r="1.67"/>
    </g>
  </g>
</svg>
