<svg id="icon" xmlns="http://www.w3.org/2000/svg" width="24.67" height="16" viewBox="0 0 24.67 16">
  <circle cx="5.16" cy="13.43" r="2.57"/>
  <path d="M22.15,13.43a2.57,2.57,0,1,1-2.56-2.56A2.57,2.57,0,0,1,22.15,13.43Z"/>
  <g>
    <path d="M7.65,5.69v.79H9a9.54,9.54,0,0,1,3.12-1.73V3.21A10.89,10.89,0,0,0,7.65,5.69Z"/>
    <path d="M24.67,3.14H21.25l-.66,1.15a11,11,0,0,0-5.31-1.48V4.27a9.49,9.49,0,0,1,4.58,1.3L18.46,8l-3.18.16v.39a1.15,1.15,0,0,1-1.15,1.14H5.59A1.15,1.15,0,0,1,4.44,8.54V7.35c-.87.27-1.68.57-2.62,1A2.54,2.54,0,0,0,.16,10.23a6.88,6.88,0,0,0-.07,2.59,1,1,0,0,0,.92,1l.46.06c0-.13,0-.27,0-.41a3.72,3.72,0,0,1,7.43,0,3,3,0,0,1-.06.61h7.11a3,3,0,0,1-.06-.61,3.72,3.72,0,0,1,7.43,0c0,.14,0,.28,0,.41l.46-.06a1,1,0,0,0,.86-1V8.32A10.69,10.69,0,0,0,23,6.14Z"/>
  </g>
  <path d="M13.22,7.63H6.5V.9h6.72ZM14.13,0H5.59V8.54h8.54V0Z"/>
</svg>
