<svg id="レイヤー_1" data-name="レイヤー 1" xmlns="http://www.w3.org/2000/svg" width="35" height="16" viewBox="0 0 35 16">
  <defs>
    <style>
      .cls-1 {
        fill: none;
      }
    </style>
  </defs>
  <title>icon_movdigi-is-enable</title>
  <path d="M2.19,1.89a0.59,0.59,0,0,1,.33-0.27,0.47,0.47,0,0,1,.41,0A0.54,0.54,0,0,1,3.2,2a0.49,0.49,0,0,1,0,.41A10,10,0,0,0,2,7.19a10.26,10.26,0,0,0,.3,2.49A9.85,9.85,0,0,0,3.15,12a0.49,0.49,0,0,1,0,.42,0.52,0.52,0,0,1-.27.32,0.49,0.49,0,0,1-.41,0,0.54,0.54,0,0,1-.33-0.28A11,11,0,0,1,.87,7.19,11,11,0,0,1,2.19,1.89Zm2.4-.64A0.55,0.55,0,0,1,4.94,1a0.51,0.51,0,0,1,.4.07,0.59,0.59,0,0,1,.25.35,0.46,0.46,0,0,1-.07.4A10.6,10.6,0,0,0,4.4,4.4,10.18,10.18,0,0,0,4,7.19,10.43,10.43,0,0,0,4.39,10a10,10,0,0,0,1.13,2.58,0.51,0.51,0,0,1,.07.42,0.59,0.59,0,0,1-.25.33,0.46,0.46,0,0,1-.4.07,0.58,0.58,0,0,1-.35-0.25,10.06,10.06,0,0,1-1.26-2.82,12,12,0,0,1,0-6.22A10,10,0,0,1,4.59,1.25ZM15,13.54a0.64,0.64,0,0,1-.21.39,0.61,0.61,0,0,1-.43.16H9.83A1,1,0,0,1,9.3,14a0.85,0.85,0,0,1-.4-0.39L5.78,7.76a0.84,0.84,0,0,1-.07-0.69,0.9,0.9,0,0,1,.44-0.54,0.84,0.84,0,0,1,.69-0.07,0.91,0.91,0,0,1,.54.44L8.64,9.28V2.07a0.61,0.61,0,0,1,.64-0.64,0.63,0.63,0,0,1,.45.18,0.6,0.6,0,0,1,.19.46V7h0.67V1.14A0.61,0.61,0,0,1,10.77.69,0.61,0.61,0,0,1,11.22.5a0.61,0.61,0,0,1,.46.19,0.63,0.63,0,0,1,.18.45V6.65l-0.08,0-0.07,0a0.7,0.7,0,0,0-.33.6v3.8a0.73,0.73,0,0,0,.33.6,0.64,0.64,0,0,0,.67.07l1.46-.57v0.36a1.26,1.26,0,0,0,.38.93,1.2,1.2,0,0,0,.86.38Zm-1-3.17-1.86.75V7.32L14,8.07v2.3ZM12.52,6.7V2.17a0.62,0.62,0,0,1,.63-0.64,0.63,0.63,0,0,1,.46.18,0.61,0.61,0,0,1,.18.46v5Zm2.6-.36a1.15,1.15,0,0,0-.59.16V4.16a0.63,0.63,0,0,1,.18-0.45,0.61,0.61,0,0,1,.46-0.19,0.64,0.64,0,0,1,.64.64V6.34H15.12Zm7.08,5.24A0.71,0.71,0,0,1,22,12a0.57,0.57,0,0,1-.39.16H15.12A0.53,0.53,0,0,1,14.73,12a0.57,0.57,0,0,1-.18-0.42V7.65a0.56,0.56,0,0,1,.18-0.41,0.53,0.53,0,0,1,.39-0.16h6.51a0.53,0.53,0,0,1,.39.16,0.56,0.56,0,0,1,.18.41v3.93Zm-4.64,1.16-1.45,2.69L15.36,15l1.24-2.3h1Zm1-6.4A10.59,10.59,0,0,0,18.15,4a9.62,9.62,0,0,0-1-2.16,0.51,0.51,0,0,1-.07-0.4,0.56,0.56,0,0,1,.25-0.35A0.55,0.55,0,0,1,17.75,1a0.56,0.56,0,0,1,.34.25,9.8,9.8,0,0,1,1.12,2.43,13,13,0,0,1,.5,2.66H18.61ZM19,12.74l1.45,2.69L21.19,15l-1.24-2.3H19Zm1.7-6.4a10.15,10.15,0,0,0-1.13-3.95,0.49,0.49,0,0,1,0-.41,0.55,0.55,0,0,1,.26-0.33,0.51,0.51,0,0,1,.42,0,0.52,0.52,0,0,1,.31.27,10.54,10.54,0,0,1,.87,2.17,11.6,11.6,0,0,1,.4,2.32l-0.07,0-0.07,0H20.68Zm7.49,3.75h-4v5.4h4V10.1Zm6-4.28V15.5H30.05V5.82h4.08Zm-0.9.91H31v7.85h2.27V6.73Z"/>
  <rect class="cls-1" width="35" height="16"/>
</svg>
