<svg id="レイヤー_1" data-name="レイヤー 1" xmlns="http://www.w3.org/2000/svg" width="16" height="16" viewBox="0 0 16 16">
  <defs>
    <style>
      .cls-1 {
        fill: none;
      }
    </style>
  </defs>
  <title>icon_magnify</title>
  <path d="M15.51,14.07L14.07,15.5,9.47,10.91a6.06,6.06,0,0,1-1.52.75,5.45,5.45,0,0,1-1.73.27A5.61,5.61,0,0,1,4,11.48,5.72,5.72,0,0,1,.94,8.43,5.61,5.61,0,0,1,.49,6.21,5.6,5.6,0,0,1,.94,4,5.67,5.67,0,0,1,2.17,2.17,5.81,5.81,0,0,1,4,.95,5.59,5.59,0,0,1,6.22.5,5.59,5.59,0,0,1,8.44.95a5.66,5.66,0,0,1,3,3,5.74,5.74,0,0,1,.18,4,6.06,6.06,0,0,1-.75,1.53ZM10.65,6.21a4.3,4.3,0,0,0-.35-1.72A4.42,4.42,0,0,0,7.94,2.13a4.43,4.43,0,0,0-3.45,0,4.61,4.61,0,0,0-1.41.95,4.39,4.39,0,0,0-1,1.41,4.41,4.41,0,0,0,0,3.45A4.53,4.53,0,0,0,4.49,10.3a4.43,4.43,0,0,0,3.45,0,4.41,4.41,0,0,0,1.41-1,4.6,4.6,0,0,0,.95-1.41A4.29,4.29,0,0,0,10.65,6.21Z"/>
  <rect class="cls-1" width="16" height="16"/>
</svg>
