<svg id="レイヤー_1" data-name="レイヤー 1" xmlns="http://www.w3.org/2000/svg" width="31" height="16" viewBox="0 0 31 16">
  <defs>
    <style>
      .cls-1 {
        fill: none;
      }
    </style>
  </defs>
  <title>icon_fps-119_9</title>
  <rect class="cls-1" width="31" height="16"/>
  <path d="M30.23,14.21a1.21,1.21,0,0,1-.1.49,1.4,1.4,0,0,1-.3.42,1.23,1.23,0,0,1-.9.38H2.06a1.25,1.25,0,0,1-.92-0.38,1.25,1.25,0,0,1-.38-0.92V1.79A1.24,1.24,0,0,1,1.15.88,1.24,1.24,0,0,1,2.06.5H28.92a1.24,1.24,0,0,1,.92.38,1.25,1.25,0,0,1,.4.92V14.21ZM5.14,13.34V3.12H4.22L2.58,4.67,3.11,5.4l1-1.13v9.07h1Zm4.72,0V3.12H9L7.33,4.67,7.85,5.4l1-1.13v9.07h1Zm6.61-5.51c0-.37,0-0.72,0-1.05s-0.05-.64-0.09-0.94a5.8,5.8,0,0,0-.41-1.51,2.3,2.3,0,0,0-.72-1A1.88,1.88,0,0,0,14.12,3a2,2,0,0,0-1.62.84,4,4,0,0,0-.67,2.53A5.06,5.06,0,0,0,12,7.6a3.63,3.63,0,0,0,.41,1,2.36,2.36,0,0,0,.65.72,1.56,1.56,0,0,0,1.85-.07,1.83,1.83,0,0,0,.61-0.9h0c0,0.3,0,.59,0,0.86s-0.06.54-.11,0.79-0.1.47-.16,0.68a2.51,2.51,0,0,1-.23.57,2,2,0,0,1-.65.83,1.39,1.39,0,0,1-.9.29A1.9,1.9,0,0,1,12.21,12l-0.05,1.19a2.86,2.86,0,0,0,1.33.29Q16.47,13.45,16.47,7.83ZM15.36,6.36a3.89,3.89,0,0,1-.07.79,3.39,3.39,0,0,1-.23.72,1.83,1.83,0,0,1-.38.5,0.79,0.79,0,0,1-.56.2,0.82,0.82,0,0,1-.57-0.2,1.43,1.43,0,0,1-.4-0.5c0-.11-0.09-0.22-0.13-0.34a2.38,2.38,0,0,1-.1-0.38,3.84,3.84,0,0,1-.07-0.79c0-.14,0-0.29,0-0.43s0-.28.05-0.41A2.38,2.38,0,0,1,13,5.14c0-.12.09-0.23,0.13-0.34a1.49,1.49,0,0,1,.4-0.5,0.9,0.9,0,0,1,.57-0.2,0.88,0.88,0,0,1,.56.2,2,2,0,0,1,.38.5,3.39,3.39,0,0,1,.23.72q0,0.2.05,0.41C15.35,6.07,15.36,6.21,15.36,6.36Zm3,7V11.71H17.26v1.63h1.13ZM23.8,7.83c0-.37,0-0.72,0-1.05s-0.05-.64-0.09-0.94S23.57,5.26,23.5,5a4,4,0,0,0-.24-0.68,2.3,2.3,0,0,0-.72-1A1.88,1.88,0,0,0,21.45,3a2,2,0,0,0-1.62.84,4,4,0,0,0-.65,2.53,5.06,5.06,0,0,0,.13,1.19,3.79,3.79,0,0,0,.4,1,2.35,2.35,0,0,0,.65.72,1.55,1.55,0,0,0,.9.27,1.41,1.41,0,0,0,1-.34,1.77,1.77,0,0,0,.61-0.9h0c0,0.3,0,.59,0,0.86a6.46,6.46,0,0,1-.1.79,7,7,0,0,1-.17.68,3.68,3.68,0,0,1-.22.57,2.22,2.22,0,0,1-.66.83,1.35,1.35,0,0,1-.88.29A1.91,1.91,0,0,1,19.56,12l-0.05,1.19a2.91,2.91,0,0,0,1.32.29Q23.8,13.45,23.8,7.83ZM22.7,6.36a3.72,3.72,0,0,1-.09.79,3.39,3.39,0,0,1-.23.72,1.4,1.4,0,0,1-.38.5,0.79,0.79,0,0,1-.56.2,0.75,0.75,0,0,1-.56-0.2,1.37,1.37,0,0,1-.4-0.5,2.84,2.84,0,0,1-.25-0.72,3.84,3.84,0,0,1-.07-0.79c0-.14,0-0.29,0-0.43s0-.28.05-0.41a2.84,2.84,0,0,1,.25-0.72,1.2,1.2,0,0,1,.4-0.5,0.83,0.83,0,0,1,.56-0.2,0.88,0.88,0,0,1,.56.2,1.27,1.27,0,0,1,.38.5,3.39,3.39,0,0,1,.23.72A4.31,4.31,0,0,1,22.7,6.36ZM28.94,6a4.25,4.25,0,0,0,0-.64,5,5,0,0,0-.12-0.57,3,3,0,0,0-.21-0.49,3.79,3.79,0,0,0-.26-0.41,2.47,2.47,0,0,0-.74-0.59,2.25,2.25,0,0,0-1-.2h-1.9V13.34h1V9.09h0.68a2.45,2.45,0,0,0,1.94-.77A3.53,3.53,0,0,0,28.94,6Zm-1.08.16a2.27,2.27,0,0,1-.36,1.35A1.49,1.49,0,0,1,26.21,8H25.65V4.22h0.58a1.65,1.65,0,0,1,1.22.43A2.2,2.2,0,0,1,27.86,6.18Z"/>
</svg>
