<svg id="レイヤー_1" data-name="レイヤー 1" xmlns="http://www.w3.org/2000/svg" width="35" height="16" viewBox="0 0 35 16">
  <defs>
    <style>
      .cls-1 {
        fill: none;
      }
    </style>
  </defs>
  <title>icon_terminal_digi</title>
  <path d="M34.28,8L29.67,10.3V8.57h-14a7.46,7.46,0,0,1,1,.88,8.73,8.73,0,0,1,.86,1,6.26,6.26,0,0,0,2.08,1.83,6.57,6.57,0,0,0,2.67.78h0.61V11.69h3.83V15.5H22.89V14.12H22.21a7.5,7.5,0,0,1-5.49-3,8.39,8.39,0,0,0-.55-0.7,8,8,0,0,0-.63-0.63,6.34,6.34,0,0,0-2.23-1.16H6.43a3,3,0,0,1-.37.92,2.79,2.79,0,0,1-.64.73,3.06,3.06,0,0,1-.85.48,2.8,2.8,0,0,1-1,.17,2.75,2.75,0,0,1-1.11-.23A2.9,2.9,0,0,1,1,9.11,2.78,2.78,0,0,1,.72,8,2.73,2.73,0,0,1,1,6.87,2.9,2.9,0,0,1,2.48,5.34,2.75,2.75,0,0,1,3.6,5.11a2.8,2.8,0,0,1,1,.18,3.06,3.06,0,0,1,.85.48,2.83,2.83,0,0,1,.64.73,3,3,0,0,1,.37.92H8.06a2.45,2.45,0,0,0,1.25-.34,3.7,3.7,0,0,0,1-.86l0.41-.41c0.22-.22.43-0.45,0.63-0.68L12,4.41A6.86,6.86,0,0,1,14.4,2.56a7.13,7.13,0,0,1,3-.65H20a1.79,1.79,0,0,1,.69-1A1.92,1.92,0,0,1,21.88.5a1.86,1.86,0,0,1,.74.15,2,2,0,0,1,.62.4,1.81,1.81,0,0,1,.41.61,1.92,1.92,0,0,1,.15.76,1.92,1.92,0,0,1-.15.76,1.8,1.8,0,0,1-.41.61,2,2,0,0,1-.62.4,1.86,1.86,0,0,1-.74.15,1.92,1.92,0,0,1-1.17-.39,1.79,1.79,0,0,1-.69-1H17.38a6.4,6.4,0,0,0-2,.31,5.39,5.39,0,0,0-1.76,1,6.57,6.57,0,0,0-.85.81L12,5.88a0.67,0.67,0,0,1-.13.16l-0.15.14L10.54,7.41H29.67V5.68Z"/>
  <rect class="cls-1" width="35" height="16"/>
</svg>
