<svg id="レイヤー_1" data-name="レイヤー 1" xmlns="http://www.w3.org/2000/svg" width="33" height="16" viewBox="0 0 33 16">
  <defs>
    <style>
      .cls-1 {
        fill: none;
      }
    </style>
  </defs>
  <title>icon_exp-sim-during</title>
  <path d="M32.48,12.83a2.68,2.68,0,0,1-2.67,2.67H3.19A2.68,2.68,0,0,1,.52,12.83V3.17A2.68,2.68,0,0,1,3.19.5H29.81a2.68,2.68,0,0,1,2.67,2.67v9.66M14.54,10h0L11,6.36a5.75,5.75,0,0,0,.18,3.79h3.63L14.54,10m0-3.91h0l3.59-3.59a5.85,5.85,0,0,0-1.63-.24,5.77,5.77,0,0,0-2.16.42V6.27L14.54,6M13.73,8h0V2.92a5.8,5.8,0,0,0-2.55,2.81L13.75,8.3a2.86,2.86,0,0,1,0-.3m2.77,2.77H11.42a5.81,5.81,0,0,0,2.81,2.55l2.57-2.57-0.3,0m2-4.72L22,9.63a5.73,5.73,0,0,0-.18-3.79H18.23L18.46,6m-2-.81h5.08a5.8,5.8,0,0,0-2.81-2.55L16.2,5.25l0.3,0m2,4.72h0l-3.59,3.59a5.75,5.75,0,0,0,1.63.24,5.81,5.81,0,0,0,2.16-.42V9.73l-0.2.23m0.81-2v5.08a5.8,5.8,0,0,0,2.55-2.81L19.25,7.7A2.53,2.53,0,0,1,19.27,8Z"/>
  <rect class="cls-1" width="33" height="16"/>
</svg>
