<svg id="レイヤー_1" data-name="レイヤー 1" xmlns="http://www.w3.org/2000/svg" width="41" height="16" viewBox="0 0 41 16">
  <defs>
    <style>
      .cls-1 {
        fill: none;
      }
    </style>
  </defs>
  <g>
    <polygon points="33.55 7.58 34.94 7.58 34.94 6.19 36.82 6.19 36.82 4.8 34.94 4.8 34.94 3.42 33.55 3.42 33.55 4.8 28.47 4.8 28.47 6.19 33.55 6.19 33.55 7.58"/>
    <polygon points="30.35 12.68 31.74 12.68 31.74 11.3 36.82 11.3 36.82 9.9 31.74 9.9 31.74 8.52 30.35 8.52 30.35 9.9 28.47 9.9 28.47 11.3 30.35 11.3 30.35 12.68"/>
    <path d="M25.28.5v15H40.1V.5ZM38.77,14.08H26.61V1.92H38.77Z"/>
  </g>
  <rect class="cls-1" width="41" height="16"/>
  <g>
    <path d="M15.31,2.92H6.17a.51.51,0,0,0-.51.51v9.14a.51.51,0,0,0,.51.51h9.14a.51.51,0,0,0,.51-.51V3.43A.51.51,0,0,0,15.31,2.92Zm-1.39,8.31-.75.83-1-.9a3.36,3.36,0,0,1-1.61.39A3.43,3.43,0,0,1,7.11,7.82a3.44,3.44,0,1,1,6.85,0A3.86,3.86,0,0,1,13,10.46Z"/>
    <path d="M10.53,5.3c-1.46,0-2,1.36-2,2.52s.52,2.51,2,2.51a1.87,1.87,0,0,0,.55-.08l-.64-.56.74-.85.84.73a3,3,0,0,0,.49-1.75C12.51,6.66,12,5.3,10.53,5.3Z"/>
    <path d="M18.71.5H2.77A1.88,1.88,0,0,0,.9,2.38V13.62A1.88,1.88,0,0,0,2.77,15.5H18.71a1.88,1.88,0,0,0,1.88-1.88V2.38A1.88,1.88,0,0,0,18.71.5ZM17,12.57a1.63,1.63,0,0,1-1.64,1.64H6.17a1.64,1.64,0,0,1-1.64-1.64V3.43A1.65,1.65,0,0,1,6.17,1.79h9.14A1.64,1.64,0,0,1,17,3.43Z"/>
  </g>
</svg>
