<svg id="レイヤー_1" data-name="レイヤー 1" xmlns="http://www.w3.org/2000/svg" width="23" height="16" viewBox="0 0 23 16">
  <defs>
    <style>
      .cls-1 {
        fill: none;
      }
    </style>
  </defs>
  <title>icon_selftimer-custom</title>
  <rect class="cls-1" width="23" height="16"/>
  <path d="M1,6.69a.9.9,0,0,1,.44-.55.9.9,0,0,1,.7-.08.86.86,0,0,1,.56.42.86.86,0,0,1,.09.7,5.25,5.25,0,0,0-.14,2,5,5,0,0,0,.63,1.87,5.16,5.16,0,0,0,1.28,1.48,4.69,4.69,0,0,0,1.82.89,5.22,5.22,0,0,0,2,.14A5.36,5.36,0,0,0,10.25,13a5.18,5.18,0,0,0,1.5-1.27,4.71,4.71,0,0,0,.92-1.81,4.9,4.9,0,0,0,.18-1.42,5.11,5.11,0,0,0-.22-1.4,5.24,5.24,0,0,0-1.49-2.37,1,1,0,0,1-.3-.64.83.83,0,0,1,.23-.66.9.9,0,0,1,.64-.3.88.88,0,0,1,.67.23,7.28,7.28,0,0,1,1.24,1.49,7.21,7.21,0,0,1,.77,1.73,7,7,0,0,1,.29,1.88,6.73,6.73,0,0,1-.25,1.93,6.65,6.65,0,0,1-1.24,2.46A7.09,7.09,0,0,1,8.6,15.43a6.7,6.7,0,0,1-2.74-.18A7,7,0,0,1,3.39,14,7,7,0,0,1,.77,9.47,6.75,6.75,0,0,1,1,6.69ZM6.23,9.12c-.21-.21-.41-.43-.58-.63s-.34-.41-.49-.61L2.78,4.71a.77.77,0,0,1,0-1.1.73.73,0,0,1,.54-.22.74.74,0,0,1,.55.22L7.05,6l.68.54c.2.18.39.35.57.54l2.29,2.3a.54.54,0,0,1-.12.18,3.84,3.84,0,0,1-.28.33l-.57.58-1,1a1.92,1.92,0,0,1-.36-.29l-.72-.68C7.26,10.15,6.81,9.71,6.23,9.12ZM9.74,2.54a2.1,2.1,0,0,1-.16.79A2.21,2.21,0,0,1,9.14,4a2.12,2.12,0,0,1-.66.44,1.92,1.92,0,0,1-.78.17,1.9,1.9,0,0,1-.79-.17A2,2,0,0,1,6.27,4a2,2,0,0,1-.44-.64,2.13,2.13,0,0,1,0-1.57,2.12,2.12,0,0,1,.44-.66A2.21,2.21,0,0,1,6.91.66,1.89,1.89,0,0,1,7.7.5a1.91,1.91,0,0,1,.78.16,2.31,2.31,0,0,1,.66.44,2.31,2.31,0,0,1,.44.66A2.09,2.09,0,0,1,9.74,2.54Zm12.47,10.9a3.25,3.25,0,0,1-.81.25,5.87,5.87,0,0,1-1,.1,3.19,3.19,0,0,1-1.19-.22,2.62,2.62,0,0,1-.88-.61,2.7,2.7,0,0,1-.56-.94,3.79,3.79,0,0,1-.19-1.18,3.54,3.54,0,0,1,.2-1.19,3,3,0,0,1,.55-1,2.67,2.67,0,0,1,.88-.63,2.77,2.77,0,0,1,1.16-.24,5.29,5.29,0,0,1,.9.08,2.83,2.83,0,0,1,.91.36l.11-1.4a4.84,4.84,0,0,0-1-.27,5.21,5.21,0,0,0-.93-.09,5.92,5.92,0,0,0-1.9.29A3.86,3.86,0,0,0,17,7.66a3.76,3.76,0,0,0-.9,1.4A5.35,5.35,0,0,0,15.82,11a4.65,4.65,0,0,0,.33,1.82,3.57,3.57,0,0,0,.94,1.3,3.82,3.82,0,0,0,1.44.76,6.36,6.36,0,0,0,1.85.26,6.22,6.22,0,0,0,1-.08l.95-.18Z"/>
</svg>
