<svg id="レイヤー_1" data-name="レイヤー 1" xmlns="http://www.w3.org/2000/svg" width="27" height="16" viewBox="0 0 27 16">
  <defs>
    <style>
      .cls-1 {
        fill: none;
      }
    </style>
  </defs>
  <title>icon_main-dial</title>
  <path d="M26.14,15.5H0.86V12.56H3.32c0-.15,0-0.27,0-0.35l0-.33-0.66-.19L1.9,11.44l-1-.3,0.8-2.83,1.08,0.3L3.62,8.85,4.24,9l0.35-.64c0.1-.19.2-0.4,0.29-0.62l-0.5-.44L3.73,6.75C3.47,6.54,3.19,6.3,2.91,6L4.82,3.79,5.67,4.5,6.34,5.07,6.82,5.49,7.4,5.05,8,4.64C7.89,4.5,7.8,4.3,7.68,4l-0.34-.8-0.43-1L9.59,1,10,2q0.19,0.41.36,0.79L10.67,3.4l0.73-.15,0.69-.15V0.5h3V3.1c0.22,0.06.44,0.11,0.64,0.14l0.64,0.14,0.3-.6L17,2c0.15-.31.32-0.63,0.5-1L20.2,2.27l-0.46,1L19.35,4l-0.27.58,0.59,0.43,0.56,0.4L20.74,5l0.67-.54,0.83-.66,1.9,2.25-0.81.69-0.66.55-0.49.41L22.52,8.4c0.1,0.2.21,0.41,0.34,0.64l0.61-.16,0.84-.23,1-.3,0.76,2.85-1,.28-0.81.23-0.65.18c0,0.14,0,.25,0,0.33l0,0.35h2.39V15.5Zm-0.62-.62V13.2H23.19c0-.26,0-0.48,0-0.67s0-.38-0.06-0.58,0-.37-0.07-0.51l2.37-.65L24.92,9.12l-2.36.66C22.4,9.38,22.22,9,22,8.61a7.37,7.37,0,0,0-.68-1.08L23.26,6,22.16,4.7,20.25,6.24a11.15,11.15,0,0,0-1-.79,9.58,9.58,0,0,0-1-.66l1.12-2.19-1.58-.73-1.1,2.23a9.55,9.55,0,0,0-2.27-.48V1.12H12.7V3.6q-0.62.07-1.23,0.19a8.37,8.37,0,0,0-1.2.34l-1-2.29-1.56.71,1,2.28c-0.37.21-.71,0.44-1,0.67a6.62,6.62,0,0,0-.92.8L4.89,4.66,3.8,6,5.67,7.62a8.89,8.89,0,0,0-.64,1,9.72,9.72,0,0,0-.5,1.11L2.11,9.07,1.67,10.72l2.39,0.71c0,0.14,0,.31-0.07.51s0,0.39-.06.58,0,0.41,0,.68H1.48v1.68H6.65L6.43,13.34A6.91,6.91,0,0,1,7,10.58,7.07,7.07,0,0,1,8.52,8.33a7.29,7.29,0,0,1,2.25-1.51,7.1,7.1,0,0,1,5.52,0A7.07,7.07,0,0,1,20,10.58a6.91,6.91,0,0,1,.56,2.76l-0.21,1.54h5.13Zm-5.47-1.54a6.36,6.36,0,0,0-.51-2.54,6.42,6.42,0,0,0-1.41-2.07,6.8,6.8,0,0,0-2.08-1.39,6.49,6.49,0,0,0-5.06,0A6.69,6.69,0,0,0,8.91,8.72a6.52,6.52,0,0,0-1.4,2.07A6.38,6.38,0,0,0,7,13.34l0.21,1.54H19.84Z"/>
  <rect class="cls-1" width="27" height="16"/>
</svg>
