<svg id="レイヤー_1" data-name="レイヤー 1" xmlns="http://www.w3.org/2000/svg" width="23" height="16" viewBox="0 0 23 16">
  <defs>
    <style>
      .cls-1 {
        fill: none;
      }
    </style>
  </defs>
  <path d="M1,6.69a.89.89,0,0,1,.43-.55,1,1,0,0,1,.71-.09.88.88,0,0,1,.56.42.92.92,0,0,1,.09.71,4.82,4.82,0,0,0-.14,2,5.14,5.14,0,0,0,1.9,3.35,4.78,4.78,0,0,0,1.82.9,5.19,5.19,0,0,0,2,.14A5.41,5.41,0,0,0,10.25,13a5.22,5.22,0,0,0,1.5-1.28,4.93,4.93,0,0,0,.92-1.81,5.26,5.26,0,0,0,.17-1.42,5.36,5.36,0,0,0-.21-1.38,4.7,4.7,0,0,0-.57-1.28,5.13,5.13,0,0,0-.92-1.11.92.92,0,0,1-.3-.63.8.8,0,0,1,.23-.67.89.89,0,0,1,.63-.29.91.91,0,0,1,.68.23,7,7,0,0,1,1.24,1.48,7.14,7.14,0,0,1,.78,1.74,7,7,0,0,1,.28,1.88,7.46,7.46,0,0,1-.25,1.93,6.77,6.77,0,0,1-1.24,2.47,6.85,6.85,0,0,1-2,1.73,7.12,7.12,0,0,1-5.3.68,7.57,7.57,0,0,1-1.72-.74,6.7,6.7,0,0,1-1.42-1.11A7.51,7.51,0,0,1,1.65,12,6.91,6.91,0,0,1,.73,8.54,6.5,6.5,0,0,1,1,6.69ZM6.24,9.12A12.28,12.28,0,0,1,5.16,7.88L2.79,4.7a.73.73,0,0,1,0-1.08.73.73,0,0,1,1.08,0L7.05,6A11.15,11.15,0,0,1,8.31,7.07l2.27,2.29a.87.87,0,0,1-.11.17,2.79,2.79,0,0,1-.29.34c-.13.15-.32.34-.55.59l-1,.95a2.34,2.34,0,0,1-.35-.29c-.17-.15-.42-.38-.73-.68S6.81,9.7,6.24,9.12Zm3.5-6.58a1.9,1.9,0,0,1-.17.79A2.21,2.21,0,0,1,9.13,4a2.06,2.06,0,0,1-.64.43,1.78,1.78,0,0,1-.79.17,1.75,1.75,0,0,1-.79-.17A2.23,2.23,0,0,1,6.26,4a2,2,0,0,1-.43-.64,2.06,2.06,0,0,1-.15-.79,2.07,2.07,0,0,1,.15-.8,2,2,0,0,1,.43-.64A2.07,2.07,0,0,1,6.91.66,1.89,1.89,0,0,1,7.7.5a2,2,0,0,1,1.43.6,2.21,2.21,0,0,1,.44.64A1.91,1.91,0,0,1,9.74,2.54ZM22.19,13.45a3.69,3.69,0,0,1-.8.24,5.11,5.11,0,0,1-1,.11,3,3,0,0,1-1.19-.23A2.34,2.34,0,0,1,18.3,13a2.61,2.61,0,0,1-.56-.94,3.54,3.54,0,0,1-.19-1.19,3.25,3.25,0,0,1,.2-1.18,2.84,2.84,0,0,1,.55-1,2.48,2.48,0,0,1,.89-.63,2.7,2.7,0,0,1,1.14-.23,4.43,4.43,0,0,1,.9.08,2.79,2.79,0,0,1,.91.35l.12-1.4a4.84,4.84,0,0,0-1-.27,6.48,6.48,0,0,0-.92-.08,5.78,5.78,0,0,0-1.92.29A3.88,3.88,0,0,0,17,7.65a3.76,3.76,0,0,0-.9,1.4,5.37,5.37,0,0,0-.32,1.9,4.68,4.68,0,0,0,.34,1.84,3.47,3.47,0,0,0,.94,1.29,3.7,3.7,0,0,0,1.44.77,6.48,6.48,0,0,0,2.8.17l.94-.17Z"/>
  <rect class="cls-1" width="23" height="16"/>
</svg>
