<svg id="レイヤー_1" data-name="レイヤー 1" xmlns="http://www.w3.org/2000/svg" width="119" height="16" viewBox="0 0 119 16">
  <defs>
    <style>
      .cls-1 {
        fill: none;
      }
    </style>
  </defs>
  <title>icon_performance-button</title>
  <g>
    <path d="M0.84,0.75H4c2.48,0,4.53,1,4.53,4.33S6.44,9.46,4.25,9.46H2.56v5.79H0.84V0.75M2.56,7.63H4.27A2.34,2.34,0,0,0,6.69,5.06,2.51,2.51,0,0,0,4,2.57H2.56V7.63Z"/>
    <polyline points="10.28 0.75 17.03 0.75 17.03 2.57 12.01 2.57 12.01 6.81 16.59 6.81 16.59 8.64 12.01 8.64 12.01 13.43 17.03 13.43 17.03 15.25 10.28 15.25 10.28 0.75"/>
    <path d="M19.08,0.75H22c2.41,0,4.68.46,4.68,3.92A3.2,3.2,0,0,1,24.22,8V8a2.25,2.25,0,0,1,1.19,1.45l2.26,5.78h-2l-1.84-5c-0.54-1.42-1.11-1.42-2-1.42h-1v6.44H19.08V0.75M20.8,7h1.48c1.65,0,2.61-.89,2.61-2.28s-0.83-2.14-2.42-2.14H20.8V7Z"/>
    <polyline points="29.02 0.75 35.42 0.75 35.42 2.57 30.76 2.57 30.76 6.81 35.22 6.81 35.22 8.64 30.76 8.64 30.76 15.25 29.02 15.25 29.02 0.75"/>
    <path d="M42.94,0.5c3.65,0,5.79,3.2,5.79,7.5s-2.12,7.5-5.79,7.5S37.13,12.4,37.13,8,39.27,0.5,42.94.5m0,13.18c2.77,0,4-2.79,4-5.68s-1.31-5.7-4-5.68S39,5,39,8,40.16,13.68,42.94,13.68Z"/>
    <path d="M50.55,0.75h3c2.38,0,4.67.46,4.67,3.92A3.2,3.2,0,0,1,55.71,8V8a2.28,2.28,0,0,1,1.17,1.45l2.28,5.78h-2l-1.83-5c-0.54-1.42-1.11-1.42-2-1.42h-1v6.44H50.55V0.75M52.28,7h1.46c1.65,0,2.62-.89,2.62-2.28s-0.83-2.14-2.44-2.14H52.28V7Z"/>
    <polyline points="60.7 0.75 63.56 0.75 67.34 12.79 71.04 0.75 73.91 0.75 73.91 15.25 72.16 15.25 72.16 2.7 72.13 2.7 68.14 15.25 66.45 15.25 62.47 2.7 62.43 2.7 62.43 15.25 60.7 15.25 60.7 0.75"/>
    <path d="M80.46,0.75h1.82l5.09,14.49H85.48l-1.23-3.65H78.34l-1.22,3.65H75.3L80.46,0.75M81.3,2.7L78.89,9.9H83.7Z"/>
    <polyline points="88.83 0.75 91.17 0.75 96.49 12.43 96.52 12.43 96.52 0.75 98.24 0.75 98.24 15.25 96.03 15.25 90.57 3.32 90.53 3.32 90.53 15.25 88.83 15.25 88.83 0.75"/>
    <path d="M109.27,3.14a4.19,4.19,0,0,0-2.48-.82c-2.79,0-4.64,2.41-4.64,5.68s2,5.68,4.56,5.68a5.15,5.15,0,0,0,2.61-.71l0.09,2a6.25,6.25,0,0,1-2.72.52c-3.83,0-6.36-3-6.36-7.56S103,0.5,106.71.5a5.63,5.63,0,0,1,2.69.62l-0.13,2"/>
    <polyline points="111.41 0.75 118.16 0.75 118.16 2.57 113.13 2.57 113.13 6.81 117.7 6.81 117.7 8.64 113.13 8.64 113.13 13.43 118.16 13.43 118.16 15.25 111.41 15.25 111.41 0.75"/>
  </g>
  <rect class="cls-1" width="119" height="16"/>
</svg>
