<svg id="レイヤー_1" data-name="レイヤー 1" xmlns="http://www.w3.org/2000/svg" width="18" height="18" viewBox="0 0 18 18">
  <defs>
    <style>
      .cls-1 {
        fill: none;
      }
    </style>
  </defs>
  <title>icon_ps-filter-effect</title>
  <rect class="cls-1" width="18" height="18"/>
  <path d="M13.1,4.9a6.79,6.79,0,0,1,3.2,2.3,5.56,5.56,0,0,1,.9,1.7,6.34,6.34,0,0,1-.2,4.5,4.83,4.83,0,0,1-1.4,2,5.71,5.71,0,0,1-2.1,1.3,7.42,7.42,0,0,1-2.5.5,6.93,6.93,0,0,1-2-.3A5.56,5.56,0,0,1,7.3,16a6.2,6.2,0,0,1-1.4-1.4A5.08,5.08,0,0,1,5,12.8a6.79,6.79,0,0,1-3.2-2.3A5,5,0,0,1,.5,7,7,7,0,0,1,1,4.5,7.23,7.23,0,0,1,4.5,1.1,7,7,0,0,1,7,.6,6.93,6.93,0,0,1,9,.9a7.57,7.57,0,0,1,1.8.9A7,7,0,0,1,13.1,4.9ZM12.4,8.2h0.1c0-.3.1-0.6,0.1-0.9H12.4V6.5h0.2l-0.2-.8V6.5H11.6V5.6h0.7l-0.7-.1V5.6H10.7V5.4c-0.3,0-.6.1-0.9,0.1l-0.9.3V6.5H8V6.2l-0.3.3H8V7.4H7.2V6.9l-0.4.4H7.2V8.2H6.3V7.9L6.2,8l-0.1.2H6.3V9.1H5.7c0,0.1-.1.3-0.1,0.4s-0.1.3-.1,0.4H6.3v0.9H5.4V10.7h0v0.4l0.1,0.4H6.3v0.8L7,12.7a2,2,0,0,0,.8-0.1H7.2V11.7H8.1v0.8l0.4-.1L9,12.3V11.7H9.9v0.2l0.2-.1c0.1,0,.1-0.1.2-0.1H9.8V10.8h0.8v0.4a2.18,2.18,0,0,0,.5-0.4H10.6V10h0.9v0.4a0.37,0.37,0,0,0,.1-0.3c0-.1.1-0.1,0.1-0.2H11.4V9.1h0.7l0.1-.5V8.2h0.2ZM11,16.6a5.38,5.38,0,0,0,2.2-.4,5.85,5.85,0,0,0,3-3,5.38,5.38,0,0,0,.4-2.2,7.72,7.72,0,0,0-.2-1.5c-0.2-.5-0.4-1-0.6-1.4a5.24,5.24,0,0,0-1-1.1,5.67,5.67,0,0,0-1.3-.8V7a6.2,6.2,0,0,1-.4,2.3A7.24,7.24,0,0,1,12,11.2a6.44,6.44,0,0,1-3.8,2.2H8l-0.5.1H6.2A4.44,4.44,0,0,0,7,14.6a5.24,5.24,0,0,0,1.1,1,8.26,8.26,0,0,0,1.3.7A5,5,0,0,0,11,16.6ZM7.2,9.1V10H6.3V9.1H7.2ZM6.3,10.8H7.2v0.9H6.3V10.8ZM8,9.1H7.2V8.2H8.1L8,9.1H8ZM7.2,10H8v0.9H7.1ZM8.9,8.2H8V7.3H8.8L8.9,8.2h0ZM8,9.1H8.9V10H8V9.1Zm0,1.7H8.9v0.9H8V10.8ZM9.8,7.3H8.9V6.5H9.8V7.3Zm-0.9.9H9.8V9.1H8.9V8.2h0Zm0,1.8H9.8v0.9H8.9V10h0ZM9.8,6.5V5.6h0.8V6.4H9.8V6.5Zm0,0.8h0.8V8.2H9.8V7.3Zm0,1.8h0.8V10H9.8V9.1Zm0.8-1.8V6.5h0.9V7.4H10.6V7.3Zm0,0.9h0.9V9.1H10.6V8.2Zm0.9-.9h0.8V8.2H11.4l0.1-.9h0Z"/>
</svg>
