<svg xmlns="http://www.w3.org/2000/svg" width="26" height="16" viewBox="0 0 26 16">
  <defs>
    <style>
      .cls-1 {
        fill: none;
      }
    </style>
  </defs>
  <g id="base">
    <rect id="Movie_size_RAW" class="cls-1" width="26" height="16"/>
  </g>
  <g id="icon">
    <g>
      <g>
        <path d="M4.72,9.11c.22.23.43.47.62.7a4.21,4.21,0,0,1,.49.75,4.63,4.63,0,0,1,.32.91,5,5,0,0,1,.12,1.16,4.12,4.12,0,0,1-.14,1.13,2.8,2.8,0,0,1-.4.91,2,2,0,0,1-.64.61,1.63,1.63,0,0,1-.85.22,2.73,2.73,0,0,1-.66-.07,3,3,0,0,1-.53-.16,2.13,2.13,0,0,1-.37-.18A.91.91,0,0,1,2.5,15l.09-1.66a.58.58,0,0,0,.21.2,2,2,0,0,0,.36.22,2.2,2.2,0,0,0,.45.17,1.59,1.59,0,0,0,.48.07.87.87,0,0,0,.68-.32A1.18,1.18,0,0,0,5,13.21a2,2,0,0,0,.07-.59,2.51,2.51,0,0,0-.24-1.08,4.31,4.31,0,0,0-.75-1,6.59,6.59,0,0,1-.67-.74A3.89,3.89,0,0,1,2.89,9a4.31,4.31,0,0,1-.32-.87,4.46,4.46,0,0,1-.1-1A4.86,4.86,0,0,1,2.61,6,2.84,2.84,0,0,1,3,5.05a2.07,2.07,0,0,1,.63-.59,1.69,1.69,0,0,1,.8-.2,2.8,2.8,0,0,1,.6,0l.47.12a2,2,0,0,1,.32.15A.64.64,0,0,1,6,4.7L5.94,6.36a2.05,2.05,0,0,0-.27-.25,1.05,1.05,0,0,0-.29-.17A1.2,1.2,0,0,0,5,5.84a3.13,3.13,0,0,0-.46,0,.8.8,0,0,0-.34.07A.68.68,0,0,0,4,6.11a1.17,1.17,0,0,0-.2.42,2.53,2.53,0,0,0-.07.6,2,2,0,0,0,.08.57A2.13,2.13,0,0,0,4,8.19a3.22,3.22,0,0,0,.33.45Z"/>
        <path d="M10.75,9.84a.78.78,0,0,1-.15.16l-.15.13,1.36,5.19H10.56L9.42,10.51l-.13,0H8.61v4.78H7.41V4.43H9.25a2.3,2.3,0,0,1,.45.05,1.23,1.23,0,0,1,.42.14,1.34,1.34,0,0,1,.37.25,2.11,2.11,0,0,1,.32.35,2.79,2.79,0,0,1,.26.45,2.56,2.56,0,0,1,.19.5,4.6,4.6,0,0,1,.15,1.18,5,5,0,0,1-.29,1.86c0,.11-.1.21-.16.32A1.69,1.69,0,0,1,10.75,9.84ZM8.61,9h.51A1.23,1.23,0,0,0,9.56,9a.92.92,0,0,0,.35-.27,1.48,1.48,0,0,0,.22-.49,3,3,0,0,0,.08-.72,2,2,0,0,0-.28-1.16.94.94,0,0,0-.81-.38H8.61Z"/>
        <path d="M15.43,4.43l2.18,10.89H16.3l-.44-2.57H13.62l-.45,2.57h-1.3L14.05,4.43Zm-.7,1.67s0,.06,0,.1,0,.09,0,.14a.66.66,0,0,0,0,.14.34.34,0,0,0,0,.09l-.84,4.62h1.77l-.83-4.6Z"/>
        <path d="M24.44,4.43h1.1L24.16,15.32H22.74l-1-8.75a1.14,1.14,0,0,1,0-.21.71.71,0,0,1,0-.16l0,.37-1,8.75H19.2L17.79,4.43H19l1,8.58,0,.21L20,13l1-8.58h1.46l1,8.58,0,.21,0-.21Z"/>
      </g>
      <path d="M3.44,11.15a8.06,8.06,0,0,1-.74-.82l-.17-.24H1.11v-2h.58a5.17,5.17,0,0,1-.1-1c0-.12,0-.22,0-.33h-.5v-2h1a3.45,3.45,0,0,1,.2-.32,2.87,2.87,0,0,1,.91-.83,1.83,1.83,0,0,1,.28-.14v-2H16.37v2h1.09V.5H.46V11.18h3ZM1.11,1.59H2.86v2H1.11Z"/>
    </g>
  </g>
</svg>
