<svg id="レイヤー_1" data-name="レイヤー 1" xmlns="http://www.w3.org/2000/svg" width="21" height="16" viewBox="0 0 21 16">
  <defs>
    <style>
      .cls-1 {
        fill: none;
      }
    </style>
  </defs>
  <title>icon_ratingmark3</title>
  <rect class="cls-1" width="21" height="16"/>
  <path d="M6.73,1.56H1.9V14.44H4.08V15.5H0.84V0.5H6.73V1.56ZM9.19,11.69L7.6,12.82l0.61,1.92L6.46,13.69,4.71,14.74,5.3,12.82,3.71,11.69l2,0L6.44,9.79l0.73,1.86Zm4-8.55L11.66,4.28l0.59,1.93L10.52,5.14,8.75,6.21,9.34,4.28,7.76,3.15l2-.05,0.72-1.84L11.23,3.1Zm4.06,8.55L15.7,12.82l0.59,1.92-1.75-1.06-1.75,1.06,0.61-1.92-1.59-1.13,2,0,0.75-1.86,0.72,1.86Zm2.86,3.81H16.92V14.44H19.1V1.56H14.27V0.5h5.89v15Z"/>
</svg>
