<svg xmlns="http://www.w3.org/2000/svg" width="22" height="16" viewBox="0 0 22 16">
  <defs>
    <style>
      .cls-1 {
        fill: none;
      }
    </style>
  </defs>
  <g id="base">
    <rect class="cls-1" width="22" height="16"/>
  </g>
  <g id="icon">
    <path d="M21,8.54,17.41,2A2.54,2.54,0,0,0,15.09.5a2.46,2.46,0,0,0-2.52,2.39V4H9.43V2.89A2.46,2.46,0,0,0,6.91.5,2.54,2.54,0,0,0,4.59,2L1,8.54A4.51,4.51,0,0,0,.3,10.93a4.56,4.56,0,1,0,9.12,0V7.6h3.14v3.33A4.56,4.56,0,1,0,21,8.54ZM4.86,14.3a3.37,3.37,0,1,1,3.38-3.37A3.37,3.37,0,0,1,4.86,14.3Zm12.28,0a3.37,3.37,0,1,1,3.37-3.37A3.37,3.37,0,0,1,17.14,14.3Z"/>
  </g>
</svg>
