<svg id="icon" xmlns="http://www.w3.org/2000/svg" width="40" height="16" viewBox="0 0 40 16">
  <defs>
    <style>
      .cls-1 {
        fill: #251e1c;
      }
    </style>
  </defs>
  <g>
    <path class="cls-1" d="M38,0H2A2,2,0,0,0,0,2V14a2,2,0,0,0,2,2H38a2,2,0,0,0,2-2V2A2,2,0,0,0,38,0ZM10.08,13.56h-2V8.66H4.83v4.9h-2V2.46h2V7H8.09V2.46h2ZM20,10.43a4.45,4.45,0,0,1-.47.92,4.07,4.07,0,0,1-.72.85,5.62,5.62,0,0,1-.82.63,4.07,4.07,0,0,1-.86.43,4.43,4.43,0,0,1-1,.23,7.87,7.87,0,0,1-1.13.07H12.29V2.46H15a6.52,6.52,0,0,1,2,.34,5.12,5.12,0,0,1,1.73,1.07A4.41,4.41,0,0,1,20,5.56,7.38,7.38,0,0,1,20.37,8,7.12,7.12,0,0,1,20,10.43Zm12.83,3.13H31v-8l-2.68,8H26.79l-2.69-8v8H22.29V2.46h2.54l2.72,8.44,2.74-8.44h2.54Zm4.34,0h-2V2.46h2Z"/>
    <path class="cls-1" d="M17.54,5.1a2.6,2.6,0,0,0-1-.81A3.71,3.71,0,0,0,15,4h-.74v8H15a3.47,3.47,0,0,0,1.56-.31,2.65,2.65,0,0,0,1-.84,3.61,3.61,0,0,0,.54-1.28A7.26,7.26,0,0,0,18.29,8a7,7,0,0,0-.18-1.65A3.47,3.47,0,0,0,17.54,5.1Z"/>
  </g>
</svg>
