<svg id="レイヤー_1" data-name="レイヤー 1" xmlns="http://www.w3.org/2000/svg" width="29" height="16" viewBox="0 0 29 16">
  <defs>
    <style>
      .cls-1 {
        fill: none;
      }
    </style>
  </defs>
  <title>icon_wb</title>
  <path d="M0.72,0.5H2.61L5.5,13.37h0L8.1,0.5h2.43l2.6,12.87h0L16.06,0.5h1.82l-3.71,15H11.95L9.34,2.39h0L6.67,15.5H4.36Zm18.79,15h3.6a11.22,11.22,0,0,0,2-.17,4.54,4.54,0,0,0,1.64-.61,3.22,3.22,0,0,0,1.13-1.22,4.15,4.15,0,0,0,.42-2A4.24,4.24,0,0,0,28,10.09a3.19,3.19,0,0,0-1.64-1.85,3.74,3.74,0,0,0-1.28-.35v0a5.06,5.06,0,0,0,1.16-.46,3.14,3.14,0,0,0,.88-0.73,3,3,0,0,0,.56-1,4.36,4.36,0,0,0,.19-1.36,4,4,0,0,0-.35-1.77,3.09,3.09,0,0,0-1-1.17A4.11,4.11,0,0,0,25.09.7,8.6,8.6,0,0,0,23.17.5H19.52v15ZM21.46,2.27h2a4.1,4.1,0,0,1,.87.1,2.21,2.21,0,0,1,.8.35,2,2,0,0,1,.59.69A2.3,2.3,0,0,1,26,4.5a2.63,2.63,0,0,1-.28,1.32,1.83,1.83,0,0,1-.75.73,3,3,0,0,1-1.1.31q-0.63.06-1.33,0.06H21.46V2.27Zm0,6.42h1.26A8.94,8.94,0,0,1,24,8.77a3.28,3.28,0,0,1,1.12.36,2.13,2.13,0,0,1,.81.8,2.7,2.7,0,0,1,.31,1.4,2.48,2.48,0,0,1-.27,1.24,2,2,0,0,1-.73.74,3.06,3.06,0,0,1-1.06.36,7.79,7.79,0,0,1-1.25.1H21.46V8.68Z"/>
  <rect class="cls-1" width="29" height="16"/>
</svg>
