<svg id="レイヤー_1" data-name="レイヤー 1" xmlns="http://www.w3.org/2000/svg" width="17" height="16" viewBox="0 0 17 16">
  <defs>
    <style>
      .cls-1 {
        fill: none;
      }
    </style>
  </defs>
  <title>icon_protect-framed</title>
  <path d="M16.4,15.5H0.6V0.5H16.4v15ZM15.2,14.18V1.78H1.77v12.4H15.2ZM14,10.56H12.87v-2H11.6v2H10.49v-2H8.07a2.35,2.35,0,0,1-2.37,1.92,2.33,2.33,0,0,1-1-.19A2.39,2.39,0,0,1,4,9.71a2.54,2.54,0,0,1-.53-0.86,3.07,3.07,0,0,1-.19-1.11,3.11,3.11,0,0,1,.19-1.12A2.54,2.54,0,0,1,4,5.76a2.41,2.41,0,0,1,.78-0.55,2.38,2.38,0,0,1,2.59.46,2.62,2.62,0,0,1,.54.75,2.79,2.79,0,0,1,.26,1H14v3.14ZM6.9,7.74a1.12,1.12,0,0,0-.35-0.89,1.24,1.24,0,0,0-.84-0.3,1.21,1.21,0,0,0-.84.3,1.12,1.12,0,0,0-.34.89,1.1,1.1,0,0,0,.34.88,1.23,1.23,0,0,0,.84.29,1.26,1.26,0,0,0,.84-0.29A1.09,1.09,0,0,0,6.9,7.74Z"/>
  <rect class="cls-1" width="17" height="16"/>
</svg>
