<?xml version="1.0" encoding="utf-8"?>
<!-- Generator: Adobe Illustrator 23.0.3, SVG Export Plug-In . SVG Version: 6.00 Build 0)  -->
<svg version="1.1" id="レイヤー_1" xmlns="http://www.w3.org/2000/svg" xmlns:xlink="http://www.w3.org/1999/xlink" x="0px"
	 y="0px" width="14.17px" height="15.87px" viewBox="0 0 14.17 15.87" enable-background="new 0 0 14.17 15.87"
	 xml:space="preserve">
<g>
	<path fill="#040000" d="M8.25,10.83c0,1.32-0.39,2.34-1.17,3.04c-0.71,0.65-1.68,0.98-2.9,0.98c-1.26,0-2.18-0.2-2.77-0.59
		l0.11-2.16c0.78,0.54,1.64,0.82,2.58,0.82c0.53,0,0.97-0.17,1.31-0.5c0.35-0.33,0.53-0.82,0.53-1.46c0-0.44-0.13-0.81-0.38-1.12
		C5.46,9.71,5.31,9.57,5.11,9.43c-0.2-0.15-0.45-0.31-0.74-0.5l-1.12-0.7c-1.32-0.82-1.98-2-1.98-3.54c0-1.14,0.38-2.05,1.15-2.72
		C3.13,1.34,4.03,1.02,5.1,1.02c0.69,0,1.54,0.16,2.53,0.48l-0.1,2.06C6.65,3.2,5.88,3.01,5.23,3.01C4.7,3.01,4.29,3.15,4,3.44
		C3.7,3.73,3.55,4.11,3.55,4.58c0,0.46,0.13,0.84,0.38,1.14c0.09,0.1,0.21,0.2,0.36,0.31C4.45,6.14,4.63,6.26,4.85,6.4l1.3,0.8
		c0.77,0.48,1.3,0.95,1.6,1.42C8.08,9.19,8.25,9.93,8.25,10.83z M12.91,14.72h-2.16V4.02l-1.63,1.7l-1.06-1.7l2.99-2.88h1.86V14.72z
		"/>
</g>
</svg>
