<svg id="レイヤー_1" data-name="レイヤー 1" xmlns="http://www.w3.org/2000/svg" width="31" height="16" viewBox="0 0 31 16">
  <defs>
    <style>
      .cls-1 {
        fill: none;
      }
    </style>
  </defs>
  <title>icon_fps-100_0</title>
  <path d="M30.23,14.21a1.26,1.26,0,0,1-.4.92,1.23,1.23,0,0,1-.9.38H2.06a1.25,1.25,0,0,1-.92-0.38,1.29,1.29,0,0,1-.38-0.92V1.79A1.24,1.24,0,0,1,1.15.88,1.24,1.24,0,0,1,2.06.5H28.92a1.24,1.24,0,0,1,.92.38,1.22,1.22,0,0,1,.4.92V14.21ZM5.14,13.34V3.12H4.22L2.58,4.67,3.12,5.4l1-1.13v9.07h1Zm6.31-5.1a10,10,0,0,0-.59-3.9A1.88,1.88,0,0,0,9.12,3,1.9,1.9,0,0,0,7.4,4.34a10,10,0,0,0-.59,3.9,9.87,9.87,0,0,0,.59,3.9,1.92,1.92,0,0,0,1.72,1.31,1.88,1.88,0,0,0,1.72-1.31A9.88,9.88,0,0,0,11.44,8.24Zm-1,0a11,11,0,0,1-.32,3.14,1.09,1.09,0,0,1-1,1,1.13,1.13,0,0,1-1-1,11,11,0,0,1-.32-3.14A11.22,11.22,0,0,1,8.14,5.1a1.14,1.14,0,0,1,1-1,1.12,1.12,0,0,1,1,1A11.23,11.23,0,0,1,10.43,8.26Zm6,0a10,10,0,0,0-.59-3.9,1.78,1.78,0,0,0-3.43,0A6.05,6.05,0,0,0,12,6a15.67,15.67,0,0,0-.14,2.26A15.65,15.65,0,0,0,12,10.51a6.05,6.05,0,0,0,.45,1.63,1.78,1.78,0,0,0,3.43,0A9.88,9.88,0,0,0,16.47,8.24Zm-1,0a11.89,11.89,0,0,1-.31,3.14,1.13,1.13,0,0,1-1,1,1.14,1.14,0,0,1-1-1,11,11,0,0,1-.32-3.14,11.22,11.22,0,0,1,.32-3.16,1.15,1.15,0,0,1,1-1,1.14,1.14,0,0,1,1,1A12,12,0,0,1,15.46,8.26Zm2.89,5.08V11.71H17.24v1.63h1.11Zm5.44-5.1a10,10,0,0,0-.59-3.9A1.91,1.91,0,0,0,21.46,3a1.87,1.87,0,0,0-1.72,1.31,10,10,0,0,0-.59,3.9,9.87,9.87,0,0,0,.59,3.9,1.87,1.87,0,0,0,1.72,1.31,1.93,1.93,0,0,0,1.74-1.31A9.88,9.88,0,0,0,23.8,8.24Zm-1,0q0,1.08-.07,1.86a6.11,6.11,0,0,1-.23,1.28,1.14,1.14,0,0,1-1,1,1.13,1.13,0,0,1-1-1,6.11,6.11,0,0,1-.23-1.28q-0.07-.78-0.07-1.86t0.07-1.88a6.12,6.12,0,0,1,.23-1.28,1.14,1.14,0,0,1,1-1,1.15,1.15,0,0,1,1,1,6.13,6.13,0,0,1,.23,1.28Q22.79,7.16,22.79,8.26ZM28.94,6a4.16,4.16,0,0,0-.16-1.2,3,3,0,0,0-.21-0.49,3.79,3.79,0,0,0-.26-0.41,2.61,2.61,0,0,0-.72-0.59,2.44,2.44,0,0,0-1-.2h-1.9V13.34h1V9.09h0.66a2.45,2.45,0,0,0,1.94-.77A3.53,3.53,0,0,0,28.94,6Zm-1.06.16a2.24,2.24,0,0,1-.38,1.35A1.49,1.49,0,0,1,26.21,8H25.67V4.22h0.56a1.65,1.65,0,0,1,1.22.43A2.22,2.22,0,0,1,27.88,6.18Z"/>
  <rect class="cls-1" width="31" height="16"/>
</svg>
