<svg id="レイヤー_1" data-name="レイヤー 1" xmlns="http://www.w3.org/2000/svg" width="26" height="16" viewBox="0 0 26 16">
  <defs>
    <style>
      .cls-1 {
        fill: none;
      }
    </style>
  </defs>
  <title>icon_info_monitor</title>
  <path d="M25.48,13.93A1.73,1.73,0,0,1,25.1,15a1.16,1.16,0,0,1-.93.46H1.83A1.15,1.15,0,0,1,.91,15a1.76,1.76,0,0,1-.4-1.12V2.07A1.62,1.62,0,0,1,.91,1,1.15,1.15,0,0,1,1.83.5H24.17A1.16,1.16,0,0,1,25.1,1a1.66,1.66,0,0,1,.38,1.12V13.93ZM4.31,12.74V3.25H3v9.49H4.31Zm6.89,0V3.25H9.87V9.86h0L7.11,3.25H5.62v9.49H6.95V6l2.82,6.77H11.2Zm5.59-7.89V3.25H12.51v9.49h1.34V8.79h2.63V7.22H13.85V4.85h2.95ZM23.31,8a5.84,5.84,0,0,0-1.15-4,2.29,2.29,0,0,0-3.48,0,5.9,5.9,0,0,0-1.15,4,5.84,5.84,0,0,0,1.15,4,2.35,2.35,0,0,0,1.73.8,2.31,2.31,0,0,0,1.74-.8A5.78,5.78,0,0,0,23.31,8ZM22.06,8a4.67,4.67,0,0,1-.57,2.59,1.22,1.22,0,0,1-2.14,0A4.8,4.8,0,0,1,18.79,8a4.78,4.78,0,0,1,.56-2.58,1.2,1.2,0,0,1,2.14,0A4.66,4.66,0,0,1,22.06,8Z"/>
  <rect class="cls-1" width="26" height="16"/>
</svg>
