<svg id="icon" xmlns="http://www.w3.org/2000/svg" width="28" height="16" viewBox="0 0 28 16">
  <g>
    <path d="M26,0H2A2,2,0,0,0,0,2V14a2,2,0,0,0,2,2H26a2,2,0,0,0,2-2V2A2,2,0,0,0,26,0ZM4.35,12H1V3H4.3V4.2H2.14V6.72H4.07V8H2.14v2.77H4.35Zm3,0L6.55,9.51,5.61,12H4.5L6,8.37,4.59,5H5.78l.77,2.27L7.36,5H8.49L7.1,8.37,8.59,12Zm5.28-2a4.34,4.34,0,0,1-.39,1.14,1.88,1.88,0,0,1-.59.7,1.23,1.23,0,0,1-.74.24.59.59,0,0,1-.32-.08,1.05,1.05,0,0,1-.27-.2,1.49,1.49,0,0,1-.23-.27,2.11,2.11,0,0,1-.18-.27V14H8.84V5H9.9v.72a3.21,3.21,0,0,1,.19-.31,2.05,2.05,0,0,1,.24-.26,1.26,1.26,0,0,1,.28-.19.83.83,0,0,1,.32-.07,1.25,1.25,0,0,1,.76.26,2,2,0,0,1,.58.72A4,4,0,0,1,12.65,7a7.51,7.51,0,0,1,.13,1.49A7.69,7.69,0,0,1,12.65,10Zm1.43,2H13v-1.7h1.06ZM18,10.67a2.26,2.26,0,0,1-.38.76,1.71,1.71,0,0,1-.6.5,1.6,1.6,0,0,1-.8.19,2.93,2.93,0,0,1-.61-.06,4.5,4.5,0,0,1-.5-.13,2.27,2.27,0,0,1-.34-.15.85.85,0,0,1-.17-.12l.08-1.37a1,1,0,0,0,.2.17,2.63,2.63,0,0,0,.34.18l.42.14a1.72,1.72,0,0,0,.44.06,1.1,1.1,0,0,0,.36-.07.8.8,0,0,0,.28-.2,1,1,0,0,0,.2-.35A1.41,1.41,0,0,0,17,9.73a1.84,1.84,0,0,0-.23-.89,3.47,3.47,0,0,0-.7-.84,5.22,5.22,0,0,1-.63-.61A4.63,4.63,0,0,1,15,6.74,3.58,3.58,0,0,1,14.66,6a3,3,0,0,1-.1-.81,3,3,0,0,1,.14-1,2.18,2.18,0,0,1,.39-.76A1.61,1.61,0,0,1,15.68,3a1.55,1.55,0,0,1,.74-.17,3.32,3.32,0,0,1,.57,0,3.64,3.64,0,0,1,.44.1,1.7,1.7,0,0,1,.29.12,1.19,1.19,0,0,1,.16.1l-.07,1.38a2.14,2.14,0,0,0-.25-.21,1.16,1.16,0,0,0-.27-.14A1.53,1.53,0,0,0,17,4.11l-.42,0a.83.83,0,0,0-.32.06.64.64,0,0,0-.27.19,1.36,1.36,0,0,0-.18.34,1.85,1.85,0,0,0-.07.51,1.4,1.4,0,0,0,.08.47,1.25,1.25,0,0,0,.2.4,2.49,2.49,0,0,0,.3.38l.4.38.57.58A3.34,3.34,0,0,1,18,8.78a4,4,0,0,1,.11,1A3.48,3.48,0,0,1,18,10.67ZM20.05,12H18.91V3h1.14Zm7.06,0h-1V5.45L24.55,12h-.88L22.14,5.46V12h-1V3h1.45L24.1,9.81,25.66,3h1.45Z"/>
    <path d="M10.75,6.07c-.27,0-.48.2-.62.61a6.25,6.25,0,0,0-.2,1.79,5.71,5.71,0,0,0,.21,1.8c.14.39.34.58.61.58s.51-.19.66-.58a5.29,5.29,0,0,0,.23-1.8,5.35,5.35,0,0,0-.23-1.81C11.26,6.26,11,6.07,10.75,6.07Z"/>
  </g>
</svg>
