<?xml version="1.0" encoding="utf-8"?>
<!-- Generator: Adobe Illustrator 23.0.3, SVG Export Plug-In . SVG Version: 6.00 Build 0)  -->
<svg version="1.1" id="レイヤー_1" xmlns="http://www.w3.org/2000/svg" xmlns:xlink="http://www.w3.org/1999/xlink" x="0px"
	 y="0px" width="12.8px" height="16px" viewBox="0 0 12.8 16" style="enable-background:new 0 0 12.8 16;" xml:space="preserve">
<style type="text/css">
	.st0{fill:none;}
</style>
<title>icon_mode-program</title>
<rect y="0" class="st0" width="12.8" height="16"/>
<g>
	<path d="M4,6.4c0,0.2,0,0.3,0,0.5c0,0.2,0,0.3,0,0.5H0.5c0-0.1,0-0.3,0-0.5c0-0.2,0-0.3,0-0.5H4z M4,9.2H0.6l0-0.9h3.4
		c0,0.2,0,0.3,0,0.5C4,8.9,4,9,4,9.2z M4.3,11H0.9l-0.2-0.9h3.4c0,0.2,0.1,0.3,0.1,0.5C4.2,10.7,4.3,10.9,4.3,11z M4.4,4.6
		c0,0.2-0.1,0.3-0.1,0.5c0,0.1-0.1,0.3-0.1,0.5H0.8c0-0.2,0.1-0.3,0.1-0.5c0-0.2,0.1-0.3,0.1-0.5H4.4z M5,12.8H1.6
		c-0.1-0.1-0.1-0.3-0.2-0.4c-0.1-0.2-0.1-0.3-0.2-0.5h3.4c0.1,0.2,0.1,0.3,0.2,0.5C4.8,12.6,4.9,12.7,5,12.8z M5.1,2.8
		C5,2.9,4.9,3.1,4.9,3.2C4.8,3.4,4.7,3.5,4.7,3.7H1.3c0.1-0.2,0.1-0.3,0.2-0.5c0.1-0.1,0.1-0.3,0.2-0.5H5.1z M8,15.4H4.7
		c-0.5,0-1-0.1-1.4-0.4c-0.4-0.3-0.8-0.7-1.2-1.2h3.4c0.4,0.5,0.7,0.9,1.2,1.2C7.1,15.3,7.6,15.4,8,15.4z M8,0.5
		c-0.5,0-0.9,0.1-1.3,0.4C6.4,1.1,6,1.4,5.7,1.9H2.3c0.3-0.5,0.7-0.8,1.1-1c0.4-0.2,0.8-0.4,1.3-0.4H8z M12.1,7.9
		c0,0.9-0.1,1.8-0.3,2.6c-0.2,0.8-0.4,1.6-0.7,2.2c-0.3,0.7-0.7,1.2-1.1,1.6c-0.4,0.4-0.9,0.7-1.3,0.9c-0.6,0-1.2-0.3-1.8-0.7
		l-0.2-0.2c0.3-0.3,0.6-0.7,0.8-1.2c0.3-0.5,0.5-1,0.7-1.5c0.2-0.6,0.3-1.1,0.4-1.8c0.1-0.6,0.1-1.3,0.1-2c0-0.7,0-1.3-0.1-2
		C8.5,5.3,8.3,4.7,8.1,4.2C8,3.6,7.7,3.1,7.5,2.7C7.2,2.2,7,1.8,6.7,1.5C6.8,1.3,7,1.2,7.1,1.1C7.5,0.8,8,0.6,8.5,0.5
		c0.5,0.1,1,0.4,1.4,0.8c0.4,0.4,0.8,1,1.2,1.6c0.3,0.7,0.6,1.4,0.8,2.3C12,6.1,12.1,7,12.1,7.9z"/>
</g>
</svg>
