<svg xmlns="http://www.w3.org/2000/svg" width="22" height="16" viewBox="0 0 22 16">
  <defs>
    <style>
      .cls-1 {
        fill: none;
      }
    </style>
  </defs>
  <g id="base">
    <rect class="cls-1" width="22" height="16"/>
  </g>
  <g id="icon">
    <g>
      <polygon points="3.5 4.07 0.52 2.69 0.53 9.12 3.5 7.72 3.5 4.07"/>
      <polygon points="7.82 11.65 5.69 15.3 7 16 9.44 11.65 7.82 11.65"/>
      <polygon points="13.19 11.65 15.32 15.3 14.01 16 11.58 11.65 13.19 11.65"/>
      <g>
        <path d="M10.44,6.43l-.22.1-.34.1-.45.07a4.39,4.39,0,0,1-.54,0,3,3,0,0,1-1.08-.19,2.36,2.36,0,0,1-.9-.61,2.84,2.84,0,0,1-.62-1,4.25,4.25,0,0,1-.23-1.51,4.86,4.86,0,0,1,.2-1.44A3.09,3.09,0,0,1,6.84.87,2.59,2.59,0,0,1,7.73.22,2.92,2.92,0,0,1,8.89,0a4.33,4.33,0,0,1,.53,0l.44.09a3.17,3.17,0,0,1,.33.11l.24.11-.06,1-.26-.15a1.8,1.8,0,0,0-.31-.14A2,2,0,0,0,9.45,1a1.84,1.84,0,0,0-1.11.11,1.42,1.42,0,0,0-.57.44,2.34,2.34,0,0,0-.36.76,3.8,3.8,0,0,0-.13,1.08,3.75,3.75,0,0,0,.15,1.14,2.2,2.2,0,0,0,.39.75,1.44,1.44,0,0,0,.57.41,1.9,1.9,0,0,0,.67.13,1.73,1.73,0,0,0,.38,0,2.36,2.36,0,0,0,.38-.1,2.52,2.52,0,0,0,.33-.13,1.33,1.33,0,0,0,.24-.12Z"/>
        <path d="M14.7,1.76a3.13,3.13,0,0,1-.1.73,4.37,4.37,0,0,1-.28.73,5.13,5.13,0,0,1-.41.72,6.51,6.51,0,0,1-.49.68c-.17.21-.34.41-.52.6l-.52.5h2.36v.92H11.06V5.75c.16-.17.33-.35.51-.56s.37-.41.56-.63.36-.45.53-.68.32-.47.46-.69a4.82,4.82,0,0,0,.31-.66,1.77,1.77,0,0,0,.12-.6,1.16,1.16,0,0,0-.19-.73.7.7,0,0,0-.6-.25,1.56,1.56,0,0,0-.35,0,2,2,0,0,0-.39.13,2.48,2.48,0,0,0-.37.17,1.82,1.82,0,0,0-.31.19l-.15-1a2.59,2.59,0,0,1,.33-.19l.41-.14L12.4,0a3.91,3.91,0,0,1,.49,0,2.34,2.34,0,0,1,.71.1,1.48,1.48,0,0,1,.58.31,1.46,1.46,0,0,1,.38.55A2.12,2.12,0,0,1,14.7,1.76Z"/>
      </g>
      <path d="M19.4,1.35a3.54,3.54,0,0,1,.91.11,2,2,0,0,1,.65.32,1.39,1.39,0,0,1,.39.51,1.79,1.79,0,0,1,0,1.34,1.39,1.39,0,0,1-.39.51,1.8,1.8,0,0,1-.65.32,3.54,3.54,0,0,1-.91.11H19V6.64H17.92V1.35Zm0,2.49a1.58,1.58,0,0,0,.47-.06.73.73,0,0,0,.31-.18.71.71,0,0,0,.18-.27A1.06,1.06,0,0,0,20.41,3a.83.83,0,0,0-.25-.64,1.06,1.06,0,0,0-.77-.24H19V3.84Z"/>
      <g>
        <path d="M8.5,4.67a.59.59,0,0,0,.21.16.84.84,0,0,0,.35.07l.2,0,.28-.08.23-.09.16-.08,1.29-.77,0,.35.2-.23c.17-.21.34-.42.5-.64a6.25,6.25,0,0,0,.4-.6,1.86,1.86,0,0,0,.1-.2H8.27a3.29,3.29,0,0,0-.09.83,3,3,0,0,0,.1.87A1.22,1.22,0,0,0,8.5,4.67Z"/>
        <path d="M15.5,2.55a1.16,1.16,0,0,1,0,.18,5.25,5.25,0,0,1-.33.88,6.17,6.17,0,0,1-.47.82,2.7,2.7,0,0,1-.27.39h1.24V7.54H10.16V7.48l-.08,0a3.79,3.79,0,0,1-.54.09,4.45,4.45,0,0,1-.65,0,3.86,3.86,0,0,1-1.4-.25,3.43,3.43,0,0,1-1.24-.83,4.06,4.06,0,0,1-.81-1.36,5.57,5.57,0,0,1-.28-1.82c0-.22,0-.43,0-.64A1.25,1.25,0,0,0,4.6,3.79V9.27a1.25,1.25,0,0,0,1.25,1.25h9.57a1.25,1.25,0,0,0,1.25-1.25V3.79A1.25,1.25,0,0,0,15.5,2.55Z"/>
      </g>
    </g>
  </g>
</svg>
