<svg xmlns="http://www.w3.org/2000/svg" width="27" height="16" viewBox="0 0 27 16">
  <defs>
    <style>
      .cls-1 {
        fill: none;
      }
    </style>
  </defs>
  <g id="base">
    <rect class="cls-1" width="27" height="16"/>
  </g>
  <g id="icon">
    <path d="M24.75.5H2.25A1.87,1.87,0,0,0,.38,2.38V13.62A1.87,1.87,0,0,0,2.25,15.5h22.5a1.87,1.87,0,0,0,1.87-1.88V2.38A1.87,1.87,0,0,0,24.75.5ZM9.33,7,7,8.11h0V3L9.33,4.07Zm2.8,6.63-1.05-.56,1.71-2.92h1.29Zm5.62,0-2-3.48h1.3l1.71,2.92Zm2.13-5.39a1,1,0,0,1-1,1H11.21a1,1,0,0,1-1-1V3.84a1,1,0,0,1,1-1h7.67a1,1,0,0,1,1,1Z"/>
  </g>
</svg>
