<svg id="レイヤー_1" data-name="レイヤー 1" xmlns="http://www.w3.org/2000/svg" width="20" height="16" viewBox="0 0 20 16">
  <defs>
    <style>
      .cls-1 {
        fill: red;
      }

      .cls-2 {
        fill: none;
      }
    </style>
  </defs>
  <title>icon_tab-shooting_b</title>
  <path class="cls-1" d="M19,4a1.61,1.61,0,0,1,.49,1.19v8.59A1.6,1.6,0,0,1,19,15a1.63,1.63,0,0,1-1.18.48H2.19A1.63,1.63,0,0,1,1,15a1.6,1.6,0,0,1-.49-1.19V5.24A1.61,1.61,0,0,1,1,4a1.63,1.63,0,0,1,1.18-.48H6.06l0,0V3a1.63,1.63,0,0,1,.29-0.89,4,4,0,0,1,.69-0.81A3.91,3.91,0,0,1,7.9.72,1.63,1.63,0,0,1,8.61.5h2.86a1.56,1.56,0,0,1,.67.23,4.57,4.57,0,0,1,.84.59,4.17,4.17,0,0,1,.71.81A1.57,1.57,0,0,1,14,3v0.5l0,0.06h3.87A1.63,1.63,0,0,1,19,4Zm-9,9a3.86,3.86,0,0,0,2.78-1.15,4.06,4.06,0,0,0,.84-1.25,3.76,3.76,0,0,0,.31-1.52,3.83,3.83,0,0,0-.31-1.53,4,4,0,0,0-.84-1.26,3.91,3.91,0,0,0-5.56,0A4.1,4.1,0,0,0,6.4,7.63,3.85,3.85,0,0,0,6.1,9.16a3.78,3.78,0,0,0,.31,1.52,4.11,4.11,0,0,0,.84,1.25A3.87,3.87,0,0,0,10,13.08Z"/>
  <rect class="cls-2" width="20" height="16"/>
</svg>
