<?xml version="1.0" encoding="utf-8"?>
<!-- Generator: Adobe Illustrator 23.0.3, SVG Export Plug-In . SVG Version: 6.00 Build 0)  -->
<svg version="1.1" id="レイヤー_1" xmlns="http://www.w3.org/2000/svg" xmlns:xlink="http://www.w3.org/1999/xlink" x="0px"
	 y="0px" width="20.7px" height="16px" viewBox="0 0 20.7 16" style="enable-background:new 0 0 20.7 16;" xml:space="preserve">
<style type="text/css">
	.st0{fill:none;}
</style>
<title>icon_oneshot-ai-servo</title>
<rect class="st0" width="20.7" height="16"/>
<g>
	<path d="M2.3,5h2l0.4,1.5h1.1l-2-6H2.7l-2,6h1.1L2.3,5z M3.2,1.6l0.8,2.6H2.4L3.2,1.6z"/>
	<polygon points="9.3,6.5 9.3,5.7 7.4,5.7 7.4,0.5 6.4,0.5 6.4,5.7 6.4,6.5 7.4,6.5 	"/>
	<polygon points="13.2,6.5 13.2,5.7 11.3,5.7 11.3,0.5 10.2,0.5 10.2,5.7 10.2,6.5 11.3,6.5 	"/>
	<path d="M6.7,13c0.2,0.2,0.4,0.3,0.7,0.4c0.3,0.1,0.6,0.1,0.9,0.1c0.3,0,0.6,0,0.9-0.1c0.3-0.1,0.5-0.2,0.7-0.4
		c0.2-0.2,0.3-0.4,0.4-0.7c0.1-0.3,0.1-0.6,0.1-1V7.3h-1v3.5c0,0.3,0,0.5-0.1,0.7c0,0.2-0.1,0.4-0.2,0.5c-0.1,0.1-0.2,0.3-0.3,0.3
		c-0.1,0.1-0.3,0.1-0.5,0.1c-0.2,0-0.4,0-0.5-0.1c-0.1-0.1-0.2-0.2-0.3-0.3c-0.1-0.1-0.1-0.3-0.2-0.5c0-0.2-0.1-0.4-0.1-0.7V7.3h-1
		v3.9c0,0.4,0,0.8,0.1,1C6.4,12.5,6.5,12.8,6.7,13z"/>
	<polygon points="13.4,13.4 13.4,8.3 14.9,8.3 14.9,7.3 10.9,7.3 10.9,8.3 12.4,8.3 12.4,13.4 	"/>
	<path d="M19.8,9.1c-0.1-0.4-0.3-0.7-0.5-1c-0.2-0.3-0.5-0.5-0.8-0.6c-0.3-0.2-0.7-0.2-1.1-0.2c-0.4,0-0.8,0.1-1.1,0.2
		c-0.3,0.2-0.6,0.4-0.8,0.6c-0.2,0.3-0.4,0.6-0.5,1c-0.1,0.4-0.2,0.8-0.2,1.3c0,0.5,0.1,0.9,0.2,1.3c0.1,0.4,0.3,0.7,0.5,1
		c0.2,0.3,0.5,0.5,0.8,0.6c0.3,0.2,0.7,0.2,1.1,0.2c0.4,0,0.8-0.1,1.1-0.2c0.3-0.2,0.6-0.4,0.8-0.7c0.2-0.3,0.4-0.6,0.5-1
		c0.1-0.4,0.2-0.8,0.2-1.3C20,9.9,19.9,9.5,19.8,9.1z M18.8,11.2c-0.1,0.3-0.1,0.5-0.3,0.7c-0.1,0.2-0.3,0.4-0.4,0.5
		c-0.2,0.1-0.4,0.2-0.7,0.2c-0.3,0-0.5-0.1-0.7-0.2c-0.2-0.1-0.3-0.3-0.4-0.5c-0.1-0.2-0.2-0.4-0.3-0.7C16,10.9,16,10.6,16,10.4
		c0-0.3,0-0.5,0.1-0.8c0.1-0.3,0.1-0.5,0.3-0.7c0.1-0.2,0.3-0.4,0.4-0.5c0.2-0.1,0.4-0.2,0.7-0.2c0.3,0,0.5,0.1,0.7,0.2
		c0.2,0.1,0.3,0.3,0.4,0.5c0.1,0.2,0.2,0.4,0.3,0.7c0.1,0.3,0.1,0.5,0.1,0.8C18.9,10.6,18.9,10.9,18.8,11.2z"/>
	<path d="M2.3,11.9h2l0.4,1.5h1.1l-2-6.2H2.8l-2,6.2h1.1L2.3,11.9z M3.3,8.4l0.8,2.7H2.5L3.3,8.4z"/>
	<rect x="1" y="14.5" width="18.7" height="0.9"/>
</g>
</svg>
