<svg id="レイヤー_1" data-name="レイヤー 1" xmlns="http://www.w3.org/2000/svg" width="18" height="18" viewBox="0 0 18 18">
  <defs>
    <style>
      .cls-1 {
        fill: #fff;
      }

      .cls-2 {
        fill: #4d4d4d;
      }

      .cls-3 {
        fill: none;
      }
    </style>
  </defs>
  <title>icon_question</title>
  <g>
    <g>
      <path class="cls-1" d="M5.7,0.33l-3.18.92L2.67,2.2V6.62h2L5.14,6.4l1.38-.67,1.21-.24a2.05,2.05,0,0,1,1.1.21h0a0.75,0.75,0,0,1,0,.33,0.9,0.9,0,0,1-.13.5L8.2,7.07l-0.91.51-2.15.65,0,1v3.44H4.85V18H11.6V12.67h-0.3V11.16l1.07-.52L14,9.39l1.12-1.8a6.37,6.37,0,0,0,.39-2.28,4.78,4.78,0,0,0-2-3.94A7.75,7.75,0,0,0,8.72,0Z"/>
      <path class="cls-2" d="M14.15,5.31a5,5,0,0,1-.3,1.8A4,4,0,0,1,13,8.47a6.08,6.08,0,0,1-1.31,1,11.4,11.4,0,0,1-1.72.83v2.3H6.42V9.23Q7.14,9,7.72,8.84a4.84,4.84,0,0,0,1.22-.66,3.21,3.21,0,0,0,.94-0.94A2.22,2.22,0,0,0,10.22,6a1.59,1.59,0,0,0-.65-1.44,3.33,3.33,0,0,0-1.84-.43,5.15,5.15,0,0,0-1.64.32,7.45,7.45,0,0,0-1.67.81H4V2.2a12.42,12.42,0,0,1,2-.57,12.49,12.49,0,0,1,2.73-.3,6.44,6.44,0,0,1,4,1.1A3.43,3.43,0,0,1,14.15,5.31ZM10.27,16.67H6.18V14h4.09v2.66Z"/>
    </g>
    <rect class="cls-3" width="18" height="18"/>
  </g>
</svg>
