<svg id="レイヤー_1" data-name="レイヤー 1" xmlns="http://www.w3.org/2000/svg" width="31" height="16" viewBox="0 0 31 16">
  <defs>
    <style>
      .cls-1 {
        fill: none;
      }

      .cls-2 {
        fill: #fff;
      }
    </style>
  </defs>
  <g id="frame">
    <rect class="cls-1" width="31" height="16"/>
  </g>
  <g id="_w" data-name=" w">
    <path class="cls-2" d="M.48,1.64V.5H8a7.11,7.11,0,0,0,.59,2.91,7.73,7.73,0,0,0,1.59,2.36,7.67,7.67,0,0,0,2.38,1.6A7.16,7.16,0,0,0,15.48,8a7.32,7.32,0,0,0,2.92-.58,7.43,7.43,0,0,0,2.35-1.6,7.58,7.58,0,0,0,1.6-2.36,7.17,7.17,0,0,0,.58-3h7.59V1.64H28a6.93,6.93,0,0,1-.1.78l-.13.78,2.38.68-.52,1.73-2.38-.68c-.11.28-.22.55-.34.82s-.24.54-.37.8L28.6,7.89l-1,1.49L25.54,8.05c-.18.24-.35.47-.54.7a7.73,7.73,0,0,1-.6.67L26,11.27l-1.36,1.17L23,10.59c-.24.17-.48.34-.73.5s-.51.32-.8.47l1,2.25-1.62.71-1-2.24c-.29.11-.57.2-.85.29s-.57.16-.88.23l.36,2.44-1.79.26-.33-2.44H14.53l-.32,2.44-1.79-.26.36-2.44c-.31-.07-.6-.14-.88-.23s-.57-.18-.85-.29l-1,2.24-1.63-.74,1-2.22c-.28-.15-.54-.31-.79-.47l-.74-.5L6.34,12.44,5,11.27,6.6,9.42A5.42,5.42,0,0,1,6,8.75c-.18-.25-.38-.46-.55-.7L3.35,9.38l-1-1.53L4.42,6.52c-.13-.26-.25-.52-.37-.78s-.24-.54-.35-.85l-2.37.72L.84,3.85l2.34-.68a4.22,4.22,0,0,0-.13-.75,4.09,4.09,0,0,1,0-.78Z" transform="translate(0 0)"/>
  </g>
  <g id="icon">
    <path class="cls-2" d="M.48,1.64V.5H8a7.11,7.11,0,0,0,.59,2.91,7.73,7.73,0,0,0,1.59,2.36,7.67,7.67,0,0,0,2.38,1.6A7.16,7.16,0,0,0,15.48,8a7.32,7.32,0,0,0,2.92-.58,7.43,7.43,0,0,0,2.35-1.6,7.58,7.58,0,0,0,1.6-2.36,7.17,7.17,0,0,0,.58-3h7.59V1.64H28a6.93,6.93,0,0,1-.1.78l-.13.78,2.38.68-.52,1.73-2.38-.68c-.11.28-.22.55-.34.82s-.24.54-.37.8L28.6,7.89l-1,1.49L25.54,8.05c-.18.24-.35.47-.54.7a7.73,7.73,0,0,1-.6.67L26,11.27l-1.36,1.17L23,10.59c-.24.17-.48.34-.73.5s-.51.32-.8.47l1,2.25-1.62.71-1-2.24c-.29.11-.57.2-.85.29s-.57.16-.88.23l.36,2.44-1.79.26-.33-2.44H14.53l-.32,2.44-1.79-.26.36-2.44c-.31-.07-.6-.14-.88-.23s-.57-.18-.85-.29l-1,2.24-1.63-.74,1-2.22c-.28-.15-.54-.31-.79-.47l-.74-.5L6.34,12.44,5,11.27,6.6,9.42A5.42,5.42,0,0,1,6,8.75c-.18-.25-.38-.46-.55-.7L3.35,9.38l-1-1.53L4.42,6.52c-.13-.26-.25-.52-.37-.78s-.24-.54-.35-.85l-2.37.72L.84,3.85l2.34-.68a4.22,4.22,0,0,0-.13-.75,4.09,4.09,0,0,1,0-.78Z" transform="translate(0 0)"/>
  </g>
</svg>
