<svg id="レイヤー_1" data-name="レイヤー 1" xmlns="http://www.w3.org/2000/svg" width="29" height="16" viewBox="0 0 29 16">
  <defs>
    <style>
      .cls-1 {
        fill: none;
      }
    </style>
  </defs>
  <title>icon_setting-off</title>
  <path d="M11,7.87a9.69,9.69,0,0,1-1.39,5.73,4.56,4.56,0,0,1-3.9,1.91A4.49,4.49,0,0,1,3.56,15a4.65,4.65,0,0,1-1.63-1.46,7.2,7.2,0,0,1-1-2.31A11.91,11.91,0,0,1,.53,8.15a9.7,9.7,0,0,1,1.4-5.73A4.56,4.56,0,0,1,5.84.5,4.42,4.42,0,0,1,8,1,4.68,4.68,0,0,1,9.59,2.48a7.3,7.3,0,0,1,1,2.31A11.91,11.91,0,0,1,11,7.87Zm-1.85,0A12.76,12.76,0,0,0,9,5.69a7.09,7.09,0,0,0-.57-1.86,3.66,3.66,0,0,0-1-1.3A2.37,2.37,0,0,0,5.84,2a2.84,2.84,0,0,0-1.33.32,2.92,2.92,0,0,0-1.09,1,6,6,0,0,0-.74,1.89A12.65,12.65,0,0,0,2.4,8.15a13.33,13.33,0,0,0,.17,2.17,7,7,0,0,0,.56,1.87,3.59,3.59,0,0,0,1,1.31,2.4,2.4,0,0,0,1.53.5A2.82,2.82,0,0,0,7,13.68a3,3,0,0,0,1.1-1,5.87,5.87,0,0,0,.75-1.89A12.74,12.74,0,0,0,9.13,7.87Zm10.7-5.62H15.28v4.7h4.33v1.6H15.28v6.81H13.51V0.64h6.32v1.6Zm8.64,0H23.92v4.7h4.33v1.6H23.92v6.81H22.15V0.64h6.32v1.6Z"/>
  <rect class="cls-1" width="29" height="16"/>
</svg>
