<?xml version="1.0" encoding="utf-8"?>
<!-- Generator: Adobe Illustrator 23.0.6, SVG Export Plug-In . SVG Version: 6.00 Build 0)  -->
<svg version="1.1" id="レイヤー_1" xmlns="http://www.w3.org/2000/svg" xmlns:xlink="http://www.w3.org/1999/xlink" x="0px"
	 y="0px" width="34px" height="16px" viewBox="0 0 34 16" style="enable-background:new 0 0 34 16;" xml:space="preserve">
<style type="text/css">
	.st0{fill:none;}
</style>
<title>icon_oneshot-ai-servo</title>
<rect class="st0" width="34" height="16"/>
<g>
	<path d="M5.7,6.9H4.8V0.7H6l1.3,4.2V0.7h0.8v6.2h-1L5.7,2.7V6.9z M9.8,4v2.1h1.7v0.8H9V0.7h2.5v0.8H9.8v1.7h1.3V4H9.8z M12.8,5.7
		c0.3,0.2,0.7,0.4,1.1,0.4c0.2,0,0.4-0.1,0.6-0.2c0.2-0.1,0.2-0.4,0.2-0.7c0-0.2-0.1-0.4-0.2-0.5c-0.1-0.1-0.3-0.2-0.5-0.4L13.5,4
		c-0.6-0.4-0.8-0.9-0.8-1.6c0-0.5,0.2-0.9,0.5-1.2s0.7-0.4,1.1-0.4c0.3,0,1,0.1,1.4,0.2v0.9c-0.4-0.2-1-0.3-1.3-0.3
		c-0.5,0-0.7,0.2-0.7,0.7c0,0.2,0.1,0.4,0.2,0.5C14,2.9,14.1,3,14.3,3.1l0.6,0.4c0.3,0.2,0.5,0.4,0.7,0.7c0.1,0.3,0.2,0.6,0.2,1
		c0,0.6-0.2,1.1-0.5,1.4C14.8,6.8,14.4,7,13.9,7S13,6.9,12.7,6.7L12.8,5.7z M17.3,6.9h-0.8V0.7h0.8v2.5h1.3V0.7h0.8v6.2h-0.8V4.4
		h-1.3V6.9z M23,1.4c0.3,0.6,0.5,1.3,0.5,2.4c0,1-0.2,1.8-0.5,2.4c-0.3,0.5-0.7,0.7-1.2,0.7s-0.9-0.2-1.2-0.7
		c-0.3-0.6-0.5-1.4-0.5-2.4s0.2-1.8,0.5-2.4c0.3-0.5,0.7-0.7,1.2-0.7C22.3,0.7,22.7,0.9,23,1.4z M22.7,3.8c0-1.5-0.3-2.3-0.9-2.3
		s-0.9,0.8-0.9,2.3s0.3,2.3,0.9,2.3C22.4,6,22.7,5.3,22.7,3.8z M24.8,1.5h-1.3V0.7h3.4v0.8h-1.3v5.4h-0.9L24.8,1.5L24.8,1.5z
		 M3.7,1.4C4,2,4.2,2.8,4.2,3.8S4,5.6,3.7,6.2C3.4,6.7,3,6.9,2.5,6.9S1.7,6.7,1.4,6.2C1,5.6,0.8,4.8,0.8,3.8S1,2,1.3,1.4
		C1.7,0.9,2,0.7,2.5,0.7S3.4,0.9,3.7,1.4z M3.4,3.8c0-1.5-0.3-2.3-0.9-2.3S1.6,2.3,1.6,3.8S1.9,6,2.5,6S3.4,5.3,3.4,3.8z"/>
	<g>
		<g>
			<path d="M6.8,9.8C7,9.8,7.6,9.9,8,10.1V9.2C7.6,9,7,8.9,6.7,8.9C6.3,8.9,5.9,9,5.6,9.3C5.3,9.6,5.1,10,5.1,10.6
				c0,0.7,0.3,1.3,0.8,1.6l0.5,0.3c0.2,0.2,0.4,0.3,0.5,0.4C7,13,7.1,13.2,7.1,13.4c0,0.3-0.1,0.5-0.2,0.7c-0.1,0.1-0.3,0.2-0.5,0.2
				c-0.4,0-0.7-0.1-1-0.4l-0.1,1c0.2,0.2,0.6,0.3,1.1,0.3s0.9-0.2,1.1-0.5C7.8,14.5,8,14,8,13.4c0-0.4-0.1-0.7-0.2-1
				c-0.1-0.2-0.3-0.4-0.6-0.7l-0.5-0.4c-0.2-0.1-0.3-0.2-0.4-0.3s-0.2-0.3-0.2-0.5C6.1,10.1,6.3,9.8,6.8,9.8z M14.2,11.7
				c0.2-0.3,0.3-0.6,0.3-1c0-1.1-0.5-1.6-1.4-1.6h-1.7v6.2h0.9v-2.5h0.4c0.3,0,0.3,0.2,0.4,0.7l0.5,1.8h0.9l-0.6-2.4
				c-0.1-0.4-0.1-0.7-0.3-0.7l0,0C13.8,12.1,14,12,14.2,11.7z M12.8,12h-0.6v-2h0.6c0.3,0,0.5,0.1,0.6,0.2c0.1,0.1,0.2,0.6,0.2,0.9
				C13.6,11.7,13.3,12,12.8,12z M17.5,9.1l-1,4.8l0,0l-1-4.8h-0.9l1.4,6.2h0.9l1.5-6.2H17.5z M20.9,9.7c-0.2-0.5-0.6-0.7-1-0.7
				s-0.8,0.3-1.1,0.8c-0.3,0.6-0.5,1.4-0.5,2.4c0,1.1,0.2,1.9,0.5,2.4s0.6,0.8,1.1,0.8c0.4,0,0.8-0.3,1.1-0.8
				c0.3-0.6,0.5-1.4,0.5-2.4C21.4,11.1,21.2,10.3,20.9,9.7z M19.9,14.5c-0.5,0-0.8-0.8-0.8-2.3c0-1.6,0.3-2.3,0.8-2.3
				s0.8,0.8,0.8,2.3C20.7,13.7,20.4,14.5,19.9,14.5z M8.5,15.3h2.3v-0.8H9.2v-2.1h1.2v-0.8H9.2V9.9h1.5V9.1H8.5V15.3z"/>
		</g>
	</g>
	<polygon points="33.2,8.1 31.2,5.9 31.2,7.5 28.3,7.5 28.3,5.9 26.3,8.1 28.3,10.4 28.3,8.8 31.2,8.8 31.2,10.4 	"/>
</g>
</svg>
