<?xml version="1.0" encoding="utf-8"?>
<!-- Generator: Adobe Illustrator 23.0.3, SVG Export Plug-In . SVG Version: 6.00 Build 0)  -->
<svg version="1.1" id="レイヤー_1" xmlns="http://www.w3.org/2000/svg" xmlns:xlink="http://www.w3.org/1999/xlink" x="0px"
	 y="0px" width="33.2px" height="16px" viewBox="0 0 33.2 16" style="enable-background:new 0 0 33.2 16;" xml:space="preserve">
<style type="text/css">
	.st0{fill:none;}
</style>
<title>icon_func-exp</title>
<rect class="st0" width="33.2" height="16"/>
<g>
	<path d="M30.4,2.3H26v1.4h4.3V2.3z M32.5,12.3h-8.5v1.4h8.6L32.5,12.3L32.5,12.3z M30.4,7.3V5.1H26v2.2h-2.1l4.3,4.6l4.3-4.6
		L30.4,7.3L30.4,7.3z"/>
	<path d="M21.3,12.6c0,0.4-0.1,0.7-0.2,1.1c-0.1,0.3-0.3,0.6-0.6,0.9c-0.3,0.3-0.6,0.5-0.9,0.6c-0.3,0.1-0.7,0.2-1.1,0.2h-15
		c-0.4,0-0.7-0.1-1.1-0.2c-0.3-0.1-0.7-0.3-0.9-0.6C1.2,14.3,1,14,0.9,13.7c-0.1-0.3-0.2-0.7-0.2-1.1V3.2c0-0.4,0-0.7,0.2-1.1
		c0.3-0.7,0.8-1.2,1.5-1.5c0.3-0.1,0.7-0.2,1.1-0.2h15c0.4,0,0.7,0.1,1.1,0.2c0.7,0.3,1.2,0.8,1.5,1.5c0.1,0.3,0.2,0.7,0.2,1.1
		L21.3,12.6L21.3,12.6z M8.8,9.9H7l1.2-3.7H4.5l1.3-4.4H3.5L1.9,7.3h3.7L4.8,9.9H3L4.7,14L8.8,9.9z M15.5,5.8V3.9h-2.3V1.6h-1.9v2.3
		H9v1.9h2.3v2.3h1.9V5.8H15.5L15.5,5.8z M20.4,3.6l-0.8-0.8l-9.7,9.7l0.8,0.8L20.4,3.6z M19.9,13.6v-1.9h-6.2v1.9L19.9,13.6
		L19.9,13.6z"/>
</g>
</svg>
