<svg id="レイヤー_1" data-name="レイヤー 1" xmlns="http://www.w3.org/2000/svg" width="25" height="16" viewBox="0 0 25 16">
  <defs>
    <style>
      .cls-1 {
        fill: none;
      }
    </style>
  </defs>
  <title>icon_j-h</title>
  <g>
    <path d="M6.54,9.8a5.17,5.17,0,0,1-1.13,3.56,3.84,3.84,0,0,1-3,1.27,4.26,4.26,0,0,1-1.44-.21v-2a2.29,2.29,0,0,0,1.32.35q2.14,0,2.14-3.3V1.55H6.54V9.8Z"/>
    <path d="M13.39,0.5l-4.3,15H7.46l4.28-15h1.66Z"/>
    <path d="M24.05,14.46H21.81V8.88H17.89v5.58H15.66V1.59h2.23V7h3.92V1.59h2.24V14.46Z"/>
  </g>
  <rect class="cls-1" width="25" height="16"/>
</svg>
