<svg id="レイヤー_1" data-name="レイヤー 1" xmlns="http://www.w3.org/2000/svg" width="78" height="16" viewBox="0 0 78 16">
  <defs>
    <style>
      .cls-1 {
        fill: none;
      }
    </style>
  </defs>
  <title>icon_d-mode</title>
  <path d="M10.58,7.88a10.6,10.6,0,0,1-.47,3.31,6.51,6.51,0,0,1-1.35,2.39A5.51,5.51,0,0,1,6.63,15a7.9,7.9,0,0,1-2.83.48H0V0.5H3.8A6.92,6.92,0,0,1,6.45,1,6.31,6.31,0,0,1,8.61,2.46a6.75,6.75,0,0,1,1.45,2.32A8.62,8.62,0,0,1,10.58,7.88ZM8.64,8a7.12,7.12,0,0,0-.36-2.35,5.3,5.3,0,0,0-1-1.75A4.25,4.25,0,0,0,5.82,2.78,4.43,4.43,0,0,0,4,2.4H1.86V13.62H3.78A4.66,4.66,0,0,0,7.4,12.25,6.2,6.2,0,0,0,8.64,8Zm13.22,7.51-2.1,0-1.94-5.19a3.68,3.68,0,0,0-.44-0.84A1.54,1.54,0,0,0,16.9,9a1.45,1.45,0,0,0-.56-0.16c-0.2,0-.43,0-0.67,0H14.58v6.64l-1.83,0v-15l3.13,0a12,12,0,0,1,1.83.14,4.22,4.22,0,0,1,1.58.56,3,3,0,0,1,1.11,1.23,4.68,4.68,0,0,1,.42,2.14,3.74,3.74,0,0,1-.21,1.27,3.46,3.46,0,0,1-.56,1,3.37,3.37,0,0,1-.83.73,3,3,0,0,1-1,.41V8a2,2,0,0,1,.68.51,4,4,0,0,1,.55,1Zm-3-10.88A2.09,2.09,0,0,0,18.24,3a2.74,2.74,0,0,0-1.91-.59H14.58V7h1.56a3,3,0,0,0,2-.63A2.17,2.17,0,0,0,18.89,4.61Zm6.59-4.09v15l-1.83,0V0.5Zm13.71,0-4.87,15H32l-4.82-15h2l3.93,13.12h0l4-13.12h1.92Zm8.59,15H40.64V0.5h7.13V2.4h-5.3V6.78H47.3v1.9H42.47v4.94h5.3v1.86Zm8-7.58a2.28,2.28,0,0,1-.19.92,2.31,2.31,0,0,1-.51.74,2.41,2.41,0,0,1-.75.49,2.44,2.44,0,0,1-1.85,0,2.26,2.26,0,0,1-.75-0.51,2.57,2.57,0,0,1-.51-0.76A2.28,2.28,0,0,1,51,7.86,2.22,2.22,0,0,1,51.18,7a2.6,2.6,0,0,1,.51-0.75,2.26,2.26,0,0,1,.75-0.51,2.38,2.38,0,0,1,.92-0.18,2.28,2.28,0,0,1,.92.19,2.36,2.36,0,0,1,.75.52,2.53,2.53,0,0,1,.51.76A2.27,2.27,0,0,1,55.73,7.9Zm13.73,7.58h-2l-1.3-3.76H59.92l-1.28,3.76H56.72l5.43-15h1.92ZM65.59,10L63,2.53,60.5,10h5.08ZM78,2.4H73V6.78h4.72v1.9L73,8.66l0,6.82H71.18V0.5H78V2.4Z"/>
  <rect class="cls-1" width="78" height="16"/>
</svg>
