<?xml version="1.0" encoding="utf-8"?>
<!-- Generator: Adobe Illustrator 23.0.3, SVG Export Plug-In . SVG Version: 6.00 Build 0)  -->
<svg version="1.1" id="レイヤー_1" xmlns="http://www.w3.org/2000/svg" xmlns:xlink="http://www.w3.org/1999/xlink" x="0px"
	 y="0px" width="20px" height="16px" viewBox="0 0 20 16" style="enable-background:new 0 0 20 16;" xml:space="preserve">
<style type="text/css">
	.st0{fill:none;}
</style>
<title>icon_continuous-shooting</title>
<rect y="0" class="st0" width="20" height="16"/>
<g>
	<path d="M16.9,14.8H3.5v-1.1h1.7L1.5,6.2L13,0.5l3.8,7.7l-3.9,2c0.2,0.3,0.4,0.8,0.6,1.4c0.2,0.6,0.3,1.3,0.4,2.2h3V14.8z
		 M15.3,7.7l-2.8-5.6L3.1,6.8l2.8,5.6L15.3,7.7z M12.7,13.7c-0.1-0.8-0.2-1.4-0.4-1.9c-0.2-0.5-0.4-0.9-0.5-1.1l-6.1,3H12.7z
		 M17.8,11.6c0,0.3,0,0.5-0.1,0.7s-0.2,0.4-0.4,0.6c-0.2,0.2-0.4,0.3-0.6,0.4c-0.2,0.1-0.5,0.1-0.7,0.1c-0.3,0-0.5,0-0.7-0.1
		c-0.2-0.1-0.4-0.2-0.6-0.4c-0.2-0.2-0.3-0.4-0.4-0.6s-0.1-0.5-0.1-0.7c0-0.2,0-0.5,0.1-0.7s0.2-0.4,0.4-0.6
		c0.2-0.2,0.4-0.3,0.6-0.4c0.2-0.1,0.5-0.1,0.7-0.1c0.2,0,0.5,0,0.7,0.1c0.2,0.1,0.4,0.2,0.6,0.4c0.2,0.2,0.3,0.4,0.4,0.6
		S17.8,11.4,17.8,11.6z M16.7,11.6c0-0.2-0.1-0.3-0.2-0.5C16.4,11.1,16.2,11,16,11c-0.2,0-0.3,0.1-0.5,0.2c-0.1,0.1-0.2,0.3-0.2,0.5
		c0,0.2,0.1,0.3,0.2,0.5c0.1,0.1,0.3,0.2,0.5,0.2c0.2,0,0.3-0.1,0.5-0.2S16.7,11.8,16.7,11.6z"/>
</g>
</svg>
