<svg id="レイヤー_1" data-name="レイヤー 1" xmlns="http://www.w3.org/2000/svg" width="33" height="16" viewBox="0 0 33 16">
  <defs>
    <style>
      .cls-1 {
        fill: none;
      }
    </style>
  </defs>
  <title>icon_pic-style-3</title>
  <rect class="cls-1" width="33" height="16"/>
  <path d="M32.16,0.5v15H0.84V0.5H32.16ZM2,1.62V14.4H31V1.62H2Zm8.17,7.67-5.7,1.9L2.8,8.84,8.16,7.23Zm-6,0L4.46,9.81l0.28,0.42L5.48,10l1-.33L7.56,9.3l1.09-.36L8.23,8.48l-0.3-.33-0.69.2-1,.29L5.16,9Zm6.41-4.14L6.86,4l-2,1.21L8.64,6.52ZM11,9.57L10.71,13.1h4.65l-0.3-3.53H11ZM14.6,4.92l-0.19-2H11.65l-0.21,2H14.6Zm2.84,1.6,3.78-1.26L19.22,4,15.56,5.17Zm-1.21,2.7L21.6,11l1.45-2.08L18,7.41ZM27.77,7.64a2.68,2.68,0,0,0,1-1.1,3.19,3.19,0,0,0,.3-1.44,2.89,2.89,0,0,0-.71-1.93,2.42,2.42,0,0,0-1.92-.84,2.33,2.33,0,0,0-1.38.39,2.72,2.72,0,0,0-.92,1.06,4.14,4.14,0,0,0-.34,1.35H25a2.1,2.1,0,0,1,.46-1.21,1.15,1.15,0,0,1,.87-0.5,1.32,1.32,0,0,1,1.07.5,2,2,0,0,1,.39,1.28,2.81,2.81,0,0,1-.21,1A1.65,1.65,0,0,1,27,7a2.37,2.37,0,0,1-1.14.21l-0.39,0-0.41-.05V8.33l0.38-.05,0.43,0,0.44,0a1.65,1.65,0,0,1,.73.14,2,2,0,0,1,.78.84,2.6,2.6,0,0,1,.25,1.26,2.47,2.47,0,0,1-.43,1.4,1.37,1.37,0,0,1-1.23.66A1.48,1.48,0,0,1,25.32,12a2.86,2.86,0,0,1-.5-1.49H23.5a4.21,4.21,0,0,0,1,2.57,2.79,2.79,0,0,0,2,.76,2.55,2.55,0,0,0,2-1,3.46,3.46,0,0,0,.84-2.29A3.47,3.47,0,0,0,29,8.95,3.14,3.14,0,0,0,27.77,7.64Z"/>
</svg>
