<svg id="レイヤー_1" data-name="レイヤー 1" xmlns="http://www.w3.org/2000/svg" width="26" height="16" viewBox="0 0 26 16">
  <defs>
    <style>
      .cls-1 {
        fill: none;
      }
    </style>
  </defs>
  <title>icon_satellite</title>
  <g>
    <path d="M12.32,8h0l-0.23-.28L16.2,4.29,13,0.5,8.87,4a1.74,1.74,0,0,0-1.25-.19,3.79,3.79,0,0,0-1.75.86A3.79,3.79,0,0,0,4.72,6.22a1.76,1.76,0,0,0,0,1.27l-4,3.39,3.18,3.79,4-3.34L8,11.61H8a1.43,1.43,0,0,0,1.14.48,2.42,2.42,0,0,0,.4,0A3.63,3.63,0,0,0,11,11.41L11.5,12l0.58-.48-0.47-.56C12.59,10,12.91,8.73,12.32,8Zm0.61-6.46L15.14,4.2l-3.53,3L9.4,4.52Zm-9,12.05L1.71,11,5.13,8.1l2.2,2.65ZM7.87,10c0,0.06,0,.11,0,0.16L5.46,7.33l-0.29.24,0.29-.24a0.89,0.89,0,0,1,0-.86,3.08,3.08,0,0,1,.93-1.25,3.07,3.07,0,0,1,1.4-.7,0.89,0.89,0,0,1,.84.19h0L11,7.56H10.78A4.08,4.08,0,0,0,7.87,10Zm3.25,0.34-0.66-.78-0.58.48,0.66,0.78a2.87,2.87,0,0,1-1.09.47,0.89,0.89,0,0,1-.84-0.19h0a0.89,0.89,0,0,1,0-.86A3.33,3.33,0,0,1,10.9,8.32l0.27,0a0.73,0.73,0,0,1,.57.21h0C12,8.84,11.83,9.64,11.13,10.36Z"/>
    <rect x="16.05" y="12.26" width="1.88" height="3.24"/>
    <rect x="19.76" y="9.21" width="1.88" height="6.29"/>
    <rect x="23.47" y="6.01" width="1.88" height="9.49"/>
  </g>
  <rect class="cls-1" width="26" height="16"/>
</svg>
