<svg id="レイヤー_1" data-name="レイヤー 1" xmlns="http://www.w3.org/2000/svg" width="21" height="16" viewBox="0 0 21 16">
  <defs>
    <style>
      .cls-1 {
        fill: none;
      }
    </style>
  </defs>
  <title>icon_mov-manual-exp</title>
  <path d="M3,9.43l-2.3,1.22V5.31L1.23,5.52,1.82,5.78,2.44,6.08,3,6.36V9.43Zm9.77,0.95a1.12,1.12,0,0,1-.39.72,1.07,1.07,0,0,1-.74.3H5.16a1.11,1.11,0,0,1-.81-0.35A1.16,1.16,0,0,1,4,10.2V6.51a1.17,1.17,0,0,1,.33-0.84,1.06,1.06,0,0,1,.81-0.36H10v5.07h2.78ZM7.66,12.22L5.6,15.5l-1-.65,1.7-2.66H7.63ZM12,14.84l-1,.66L9,12.22l0,0h1.32ZM20.25,9.5H18.65V2.09L16.36,9.5H14.74L12.48,2.08h0V9.5H10.85v-9h2.71l2,6.79,0,0,2-6.82h2.67v9Z"/>
  <rect class="cls-1" width="21" height="16"/>
</svg>
