<svg id="レイヤー_1" data-name="レイヤー 1" xmlns="http://www.w3.org/2000/svg" width="13" height="16" viewBox="0 0 13 16">
  <defs>
    <style>
      .cls-1 {
        fill: none;
      }
    </style>
  </defs>
  <title>icon_timer</title>
  <path d="M12.19,9.82A5.64,5.64,0,0,1,11.76,12a5.48,5.48,0,0,1-1.24,1.84,5.83,5.83,0,0,1-1.85,1.23,5.66,5.66,0,0,1-6.19-1.23A5.46,5.46,0,0,1,1.23,12,5.68,5.68,0,0,1,.81,9.82a5.48,5.48,0,0,1,.35-2,5.83,5.83,0,0,1,1-1.67A5.73,5.73,0,0,1,3.56,5a5.52,5.52,0,0,1,1.81-.71V3.61H3.56V2.16H5.38V1A1.82,1.82,0,0,1,6,.56a1.71,1.71,0,0,1,.72,0A1.6,1.6,0,0,1,7.61,1v1.2H9.41V3.61H7.61V4.24A5.45,5.45,0,0,1,10.52,5.8a5.49,5.49,0,0,1,1.24,1.84A5.65,5.65,0,0,1,12.19,9.82Zm-0.94.34H10.54V9.27l0.7,0a5.1,5.1,0,0,0-.43-1.54,4.67,4.67,0,0,0-.9-1.31,4.36,4.36,0,0,0-1.38-.94,5.45,5.45,0,0,0-1.61-.41V5.92H6V5.07a5,5,0,0,0-1.57.41,4.65,4.65,0,0,0-1.34.92,4.81,4.81,0,0,0-.93,1.34,4.87,4.87,0,0,0-.42,1.59H2.46v0.91H1.75a5.39,5.39,0,0,0,.41,1.6,4.35,4.35,0,0,0,.94,1.38,5,5,0,0,0,1.34.91A4.85,4.85,0,0,0,6,14.56V13.79H6.91v0.77a4.76,4.76,0,0,0,3.92-2.75A4.65,4.65,0,0,0,11.25,10.16ZM9.56,6.36l-2.28,3a0.88,0.88,0,0,1-.15,1,0.85,0.85,0,0,1-.63.25H6.34l-0.62.81L5.1,11l0.62-.8L5.64,10a0.59,0.59,0,0,1,0-.2,0.89,0.89,0,0,1,.26-0.64A0.84,0.84,0,0,1,6.5,8.86l0.07,0,0.09,0,2.28-3Z"/>
  <rect class="cls-1" width="13" height="16"/>
</svg>
