<svg id="レイヤー_1" data-name="レイヤー 1" xmlns="http://www.w3.org/2000/svg" width="44" height="16" viewBox="0 0 44 16">
  <defs>
    <style>
      .cls-1 {
        fill: none;
      }
    </style>
  </defs>
  <title>icon_info_bk</title>
  <g>
    <path d="M32.63,4.61a1.81,1.81,0,0,0-1.45.7A4.16,4.16,0,0,0,30.41,8a4.21,4.21,0,0,0,.76,2.77,1.82,1.82,0,0,0,1.45.68,1.89,1.89,0,0,0,1.48-.68A4.17,4.17,0,0,0,34.87,8,4.12,4.12,0,0,0,34.1,5.3,1.92,1.92,0,0,0,32.63,4.61Z"/>
    <path d="M41.53,0.5H2.47A1.87,1.87,0,0,0,.6,2.36V13.64A1.87,1.87,0,0,0,2.47,15.5H41.53a1.87,1.87,0,0,0,1.86-1.86V2.36A1.87,1.87,0,0,0,41.53.5ZM10.19,13.06H8.38V3h1.81V13.06Zm9.82,0H18L14.17,5.87v7.19H12.34V3h2.05l3.77,7,0,0V3H20V13.06Zm7.77-8.39h-4V7.22h3.6V8.88h-3.6v4.19H21.92V3h5.86V4.67ZM35,12.34a3.78,3.78,0,0,1-4.75,0Q28.69,11,28.69,8a5.36,5.36,0,0,1,1.57-4.32,3.73,3.73,0,0,1,4.75,0Q36.58,5,36.58,8T35,12.34Z"/>
  </g>
  <rect class="cls-1" width="44" height="16"/>
</svg>
