<svg id="レイヤー_1" data-name="レイヤー 1" xmlns="http://www.w3.org/2000/svg" width="33" height="16" viewBox="0 0 33 16">
  <defs>
    <style>
      .cls-1 {
        fill: none;
      }
    </style>
  </defs>
  <title>icon_pic-style-f</title>
  <rect class="cls-1" width="33" height="16"/>
  <path d="M32.18,0.5v15H0.82V0.5H32.18ZM1.95,1.62V14.41h29.1V1.62H1.95ZM10.13,9.3L4.41,11.2,2.77,8.84,8.15,7.23Zm-6,0L4.44,9.81l0.28,0.42L5.46,10l1-.33,1.1-.37,1.1-.36L8.23,8.48,7.9,8.16l-0.68.2-1,.29L5.14,9Zm6.43-4.13L6.85,4l-2,1.21L8.62,6.52ZM11,9.56L10.7,13.11h4.65L15,9.56H11Zm3.58-4.65-0.19-2H11.64l-0.21,2h3.18Zm2.85,1.62,3.78-1.26L19.23,4,15.56,5.17ZM16.25,9.23L21.6,11l1.46-2.09L18,7.4Zm7.34,4.37h1.35v-5h3.55V7.24H24.94V4h3.7V2.66H23.59V13.6Z"/>
</svg>
