<svg xmlns="http://www.w3.org/2000/svg" width="28" height="16" viewBox="0 0 28 16">
  <defs>
    <style>
      .cls-1 {
        fill: none;
      }
    </style>
  </defs>
  <g id="base">
    <rect class="cls-1" width="28" height="16"/>
  </g>
  <g id="icon">
    <path d="M25.25.5H2.75A1.87,1.87,0,0,0,.88,2.38V13.62A1.87,1.87,0,0,0,2.75,15.5h22.5a1.87,1.87,0,0,0,1.87-1.88V2.38A1.87,1.87,0,0,0,25.25.5ZM20,8.84H15.45l2.28,3.95-1.44.83L14,9.67l-2.28,3.95-1.45-.83,2.28-3.95H8V7.16h4.57L10.27,3.21l1.45-.83,2.28,4,2.29-3.95,1.44.83-2.28,4H20Z"/>
  </g>
</svg>
