<svg id="レイヤー_1" data-name="レイヤー 1" xmlns="http://www.w3.org/2000/svg" width="39" height="16" viewBox="0 0 39 16">
  <defs>
    <style>
      .cls-1 {
        fill: none;
      }
    </style>
  </defs>
  <title>icon_raw-distortion</title>
  <path d="M25.82,13.17a1.41,1.41,0,0,1-1.22,1.08h0a1.39,1.39,0,0,1-1.2-1.07,6.92,6.92,0,0,1-.45-2.69,7,7,0,0,1,.43-2.66A1.43,1.43,0,0,1,24.6,6.71a1.43,1.43,0,0,1,1.22,1.12,6.92,6.92,0,0,1,.43,2.62A7.21,7.21,0,0,1,25.82,13.17ZM33,5.52H28.75v10H29.9V10.9h2.82V9.72H29.9v-3H33V5.52Zm5.53,0H34.28v10h1.16V10.9h2.82V9.72H35.44v-3h3.11V5.52ZM26.71,6.94A2.32,2.32,0,0,0,24.61,5.5a2.37,2.37,0,0,0-2.08,1.43,7.41,7.41,0,0,0-.8,3.63,7.39,7.39,0,0,0,.73,3.5,2.32,2.32,0,0,0,2.06,1.42h0a2.38,2.38,0,0,0,2.1-1.36,7.45,7.45,0,0,0,.79-3.72A7.35,7.35,0,0,0,26.71,6.94ZM3,2.36l-1-1L2.92,0.5H0.46V3l0.87-.87,1,1ZM2.32,11.57l-1,1-0.87-.87v2.47H2.92L2,13.28l1-1Zm16-8.49,1-1L20.16,3V0.5H17.7l0.87,0.87-1,1Zm-0.72,9.21,1,1-0.87.87h2.47V11.69l-0.87.87-1-1ZM10.31,1.6A10.3,10.3,0,0,0,3.16,4.14v6.38A10.3,10.3,0,0,0,10.31,13a10.29,10.29,0,0,0,7.15-2.54V4.14A10.29,10.29,0,0,0,10.31,1.6ZM7,11.81A8.12,8.12,0,0,1,4,10.16V9.64H7v2.16Zm0-3H4v-3H7v3ZM7,5H4V4.49A8.14,8.14,0,0,1,7,2.84V5Zm5.74,7a11.5,11.5,0,0,1-2.45.26A11.52,11.52,0,0,1,7.86,12V9.64h4.9V12Zm0-3.19H7.86v-3h4.9v3Zm0-3.82H7.86V2.62a11.38,11.38,0,0,1,4.9,0V5Zm3.91,5.13a8.12,8.12,0,0,1-3.07,1.65V9.64h3.07v0.51Zm0-1.31H13.6v-3h3.07v3Zm0-3.82H13.6V2.84A8.15,8.15,0,0,1,16.67,4.5V5Z"/>
  <rect class="cls-1" width="39" height="16"/>
</svg>
