<?xml version="1.0" encoding="UTF-8"?>
<svg id="edge" xmlns="http://www.w3.org/2000/svg" width="28" height="16" version="1.1" viewBox="0 0 28 16">
  <!-- Generator: Adobe Illustrator 29.5.1, SVG Export Plug-In . SVG Version: 2.1.0 Build 141)  -->
  <defs>
    <style>
      .st0 {
        fill: #fff;
        stroke: #fff;
        stroke-linecap: round;
        stroke-linejoin: round;
      }
    </style>
  </defs>
  <path class="st0" d="M6.38,8.79c.73,0,1.35.43,1.65,1.04h3.44c.58,0,1.07-.47,1.07-1.06V2.97c0-.58-.48-1.07-1.07-1.07h-2.36l-.83-1.45c-.12-.23-.36-.38-.63-.38h-2.57c-.07,0-.14.02-.21.04-.19.05-.35.18-.45.36l-.82,1.44H1.29C.71,1.9.23,2.38.23,2.97v5.8c0,.59.48,1.06,1.06,1.06h3.44c.3-.61.92-1.04,1.65-1.04ZM3.69,5.62c0-1.49,1.2-2.69,2.69-2.69s2.69,1.2,2.69,2.69-1.2,2.69-2.69,2.69-2.69-1.21-2.69-2.69Z"/>
  <path class="st0" d="M15.95,14.22v-1.53c0-.25-.21-.46-.46-.46H6.84v-.82c.27-.16.46-.45.46-.79,0-.51-.41-.92-.92-.92s-.92.41-.92.92c0,.34.19.63.46.79v2.8c-.27.16-.46.45-.46.79,0,.51.41.92.92.92s.92-.41.92-.92c0-.34-.19-.63-.46-.79v-1.07h3.64v1.07c-.27.16-.46.45-.46.79,0,.51.41.92.92.92s.92-.41.92-.92c0-.34-.19-.63-.46-.79v-1.07h3.64v1.07c-.27.16-.46.45-.46.79,0,.51.41.92.92.92s.92-.41.92-.92c0-.34-.19-.63-.46-.79Z"/>
  <g>
    <path class="st0" d="M17.57,2.24l2.12,7.01h-1.27l-.43-1.66h-2.17l-.44,1.66h-1.26l2.12-7.01h1.34ZM16.9,3.32s0,.03,0,.06c0,.03,0,.06-.01.09,0,.03,0,.06-.01.09,0,.03,0,.05,0,.06l-.81,2.97h1.72l-.81-2.96-.06-.31Z"/>
    <path class="st0" d="M21.56,2.24v5.98h2.14v1.03h-3.32V2.24h1.18Z"/>
    <path class="st0" d="M25.63,2.24v5.98h2.14v1.03h-3.32V2.24h1.18Z"/>
  </g>
  <path d="M6.38,8.79c.73,0,1.35.43,1.65,1.04h3.44c.58,0,1.07-.47,1.07-1.06V2.97c0-.58-.48-1.07-1.07-1.07h-2.36l-.83-1.45c-.12-.23-.36-.38-.63-.38h-2.57c-.07,0-.14.02-.21.04-.19.05-.35.18-.45.36l-.82,1.44H1.29C.71,1.9.23,2.38.23,2.97v5.8c0,.59.48,1.06,1.06,1.06h3.44c.3-.61.92-1.04,1.65-1.04ZM3.69,5.62c0-1.49,1.2-2.69,2.69-2.69s2.69,1.2,2.69,2.69-1.2,2.69-2.69,2.69-2.69-1.21-2.69-2.69Z"/>
  <path d="M15.95,14.22v-1.53c0-.25-.21-.46-.46-.46H6.84v-.82c.27-.16.46-.45.46-.79,0-.51-.41-.92-.92-.92s-.92.41-.92.92c0,.34.19.63.46.79v2.8c-.27.16-.46.45-.46.79,0,.51.41.92.92.92s.92-.41.92-.92c0-.34-.19-.63-.46-.79v-1.07h3.64v1.07c-.27.16-.46.45-.46.79,0,.51.41.92.92.92s.92-.41.92-.92c0-.34-.19-.63-.46-.79v-1.07h3.64v1.07c-.27.16-.46.45-.46.79,0,.51.41.92.92.92s.92-.41.92-.92c0-.34-.19-.63-.46-.79Z"/>
  <g>
    <path d="M17.57,2.24l2.12,7.01h-1.27l-.43-1.66h-2.17l-.44,1.66h-1.26l2.12-7.01h1.34ZM16.9,3.32s0,.03,0,.06c0,.03,0,.06-.01.09,0,.03,0,.06-.01.09,0,.03,0,.05,0,.06l-.81,2.97h1.72l-.81-2.96-.06-.31Z"/>
    <path d="M21.56,2.24v5.98h2.14v1.03h-3.32V2.24h1.18Z"/>
    <path d="M25.63,2.24v5.98h2.14v1.03h-3.32V2.24h1.18Z"/>
  </g>
</svg>