<svg id="icon" xmlns="http://www.w3.org/2000/svg" width="38" height="16" viewBox="0 0 38 16">
  <defs>
    <style>
      .cls-1 {
        fill: none;
      }
    </style>
  </defs>
  <rect class="cls-1" width="38" height="16"/>
  <path d="M37.53,7.12v7.5H26.06V7.12H29.7V8.44a.88.88,0,0,0,.88.88h2.36a.88.88,0,0,0,.88-.88V7.12Zm-7,1.32h2.36V5h2.38L31.75,1.38,28.18,5h2.4ZM23.85.5v15H.47V.5Zm-1.1,1.1H1.57V14.4H22.75ZM4,12.85V3.06H2.67v9.79ZM7.45,5.21a1.11,1.11,0,0,0-.32.21,1.5,1.5,0,0,0-.27.29,3.5,3.5,0,0,0-.23.35V5.25H5.41v7.6H6.67V8.39a3.92,3.92,0,0,1,.07-.82A1.89,1.89,0,0,1,6.94,7a.77.77,0,0,1,.31-.33.8.8,0,0,1,.41-.1A.56.56,0,0,1,8.21,7a4.08,4.08,0,0,1,.15,1.28v4.59H9.62V7.72a4.63,4.63,0,0,0-.13-1.2,2.23,2.23,0,0,0-.37-.79,1.38,1.38,0,0,0-.56-.46,1.94,1.94,0,0,0-.73-.14A1,1,0,0,0,7.45,5.21Zm6,1.31V5.28H12.33V3l-1.27.57V5.28h-.81V6.52h.81v4.65a2.2,2.2,0,0,0,.35,1.35,1.25,1.25,0,0,0,1.07.44,1.93,1.93,0,0,0,.53-.07,1.75,1.75,0,0,0,.43-.17V11.45a1,1,0,0,1-.43.19l-.31,0a.31.31,0,0,1-.29-.2,2,2,0,0,1-.08-.68V6.52Zm2.76-1.28a1.9,1.9,0,0,0-.29.28,3.37,3.37,0,0,0-.24.37l-.2.37v-1H14.29v7.6h1.26V8.68a3.83,3.83,0,0,1,.1-1,1.94,1.94,0,0,1,.24-.61.91.91,0,0,1,.33-.32.75.75,0,0,1,.34-.09.71.71,0,0,1,.24,0l.29.15V5.28a1,1,0,0,0-.2-.11,1.11,1.11,0,0,0-.31,0A.57.57,0,0,0,16.25,5.24Zm2.78,0a3.52,3.52,0,0,0-.52.18,4.26,4.26,0,0,0-.43.22l-.28.2.13,1.33a1.43,1.43,0,0,1,.34-.3,2.43,2.43,0,0,1,.44-.26,2.64,2.64,0,0,1,.47-.17,2,2,0,0,1,.47-.06.8.8,0,0,1,.39.09.63.63,0,0,1,.25.3,2.14,2.14,0,0,1,.13.54,6,6,0,0,1,0,.81v0H20.1A3.81,3.81,0,0,0,19,8.27a2.26,2.26,0,0,0-.87.45,2.14,2.14,0,0,0-.58.79,3,3,0,0,0-.21,1.18,3.33,3.33,0,0,0,.14,1,2,2,0,0,0,.39.72,1.62,1.62,0,0,0,.58.46,1.71,1.71,0,0,0,.71.15,1.23,1.23,0,0,0,.7-.24,2.18,2.18,0,0,0,.63-.68v.76h1.23V8.11a6.63,6.63,0,0,0-.13-1.37,2.23,2.23,0,0,0-.39-.92,1.47,1.47,0,0,0-.66-.52,2.55,2.55,0,0,0-1-.17A2.1,2.1,0,0,0,19,5.21ZM20.47,9.1v.82a3.23,3.23,0,0,1-.09.81,1.63,1.63,0,0,1-.23.58,1,1,0,0,1-.35.35.93.93,0,0,1-.44.11.81.81,0,0,1-.31-.06.7.7,0,0,1-.26-.2,1.2,1.2,0,0,1-.17-.36,2,2,0,0,1-.06-.53,2.16,2.16,0,0,1,.11-.73A1,1,0,0,1,19,9.42a1.09,1.09,0,0,1,.48-.24,2.33,2.33,0,0,1,.62-.08Z"/>
</svg>
