<svg id="レイヤー_1" data-name="レイヤー 1" xmlns="http://www.w3.org/2000/svg" width="29" height="16" viewBox="0 0 29 16">
  <defs>
    <style>
      .cls-1 {
        fill: none;
      }
    </style>
  </defs>
  <title>icon_timer-10sec</title>
  <path d="M12.22,9.85a5.4,5.4,0,0,1-1.68,4,5.51,5.51,0,0,1-4,1.65,5.53,5.53,0,0,1-4-1.65,5.46,5.46,0,0,1-1.66-4,5.55,5.55,0,0,1,1.3-3.63,5.61,5.61,0,0,1,3.27-2V3.61H3.61V2.15H5.42V0.95A1.7,1.7,0,0,1,6.57.5a1.68,1.68,0,0,1,1.1.45v1.2H9.49V3.61H7.67V4.24A5.46,5.46,0,0,1,10.54,5.8,5.44,5.44,0,0,1,12.22,9.85Zm-0.93.33H10.58V9.28l0.71,0A4.62,4.62,0,0,0,7,5.09V5.94H6.05V5.09A4.81,4.81,0,0,0,3.11,6.44,4.52,4.52,0,0,0,1.76,9.31H2.49v0.93H1.76a4.57,4.57,0,0,0,1.36,3,4.69,4.69,0,0,0,2.93,1.36V13.79H7v0.78a4.64,4.64,0,0,0,3-1.38A4.56,4.56,0,0,0,11.29,10.18ZM10.72,7.95L7.4,9.7a0.78,0.78,0,0,1-.27.68,0.78,0.78,0,0,1-1.1.07l-0.93.45-0.35-.65,0.88-.5a0.84,0.84,0,0,1,.3-0.68A0.79,0.79,0,0,1,7.05,9l3.33-1.75Zm6.7,6.34h-1.5V5.22H12.62V4a7.75,7.75,0,0,0,1.26-.1A3.23,3.23,0,0,0,15,3.53a2.67,2.67,0,0,0,.82-0.73,2.8,2.8,0,0,0,.47-1.19h1.16V14.29Zm10.73-6.2c0,0.47,0,.95,0,1.45A10,10,0,0,1,27.95,11a6.61,6.61,0,0,1-.42,1.35,3.72,3.72,0,0,1-.74,1.11,3.3,3.3,0,0,1-1.16.76,5.21,5.21,0,0,1-3.39,0,3.3,3.3,0,0,1-1.16-.76,3.72,3.72,0,0,1-.74-1.11A6.61,6.61,0,0,1,19.93,11a10,10,0,0,1-.17-1.46c0-.5,0-1,0-1.45s0-1,0-1.45a10,10,0,0,1,.17-1.47,7,7,0,0,1,.42-1.36,3.67,3.67,0,0,1,.74-1.13,3.31,3.31,0,0,1,1.16-.76,5.21,5.21,0,0,1,3.39,0,3.31,3.31,0,0,1,1.16.76,3.67,3.67,0,0,1,.74,1.13,7,7,0,0,1,.42,1.36,10,10,0,0,1,.17,1.47Q28.15,7.38,28.15,8.08Zm-1.6,0q0-.46,0-1c0-.38,0-0.75-0.08-1.13a6.09,6.09,0,0,0-.23-1.1,3.41,3.41,0,0,0-.45-0.94A2.16,2.16,0,0,0,25,3.21a2.55,2.55,0,0,0-2.2,0,2.16,2.16,0,0,0-.73.66,3.41,3.41,0,0,0-.45.94,6,6,0,0,0-.23,1.1q-0.07.57-.08,1.13t0,1q0,0.71,0,1.6a6.46,6.46,0,0,0,.29,1.66,3.27,3.27,0,0,0,.78,1.31,2,2,0,0,0,1.51.53,2.24,2.24,0,0,0,1.1-.25,2.16,2.16,0,0,0,.73-0.66,3.4,3.4,0,0,0,.45-0.94,6,6,0,0,0,.23-1.1c0-.38.07-0.75,0.08-1.13S26.56,8.38,26.56,8.07Z"/>
  <rect class="cls-1" width="29" height="16"/>
</svg>
