<svg id="レイヤー_1" data-name="レイヤー 1" xmlns="http://www.w3.org/2000/svg" width="26" height="16" viewBox="0 0 26 16">
  <defs>
    <style>
      .cls-1 {
        fill: none;
      }
    </style>
  </defs>
  <path d="M.63,5.47A4.59,4.59,0,0,1,.74,3.54,4.08,4.08,0,0,1,1.58,2,4.23,4.23,0,0,1,3,.89,4.51,4.51,0,0,1,4.91.5a5.3,5.3,0,0,1,2,.39A6,6,0,0,1,8.63,2,6.38,6.38,0,0,1,9.92,3.54a5.15,5.15,0,0,1,.66,1.93,4.68,4.68,0,0,1-.11,2A4.08,4.08,0,0,1,9.63,9a4.18,4.18,0,0,1-1.44,1.07,4.5,4.5,0,0,1-1.89.39,5.3,5.3,0,0,1-2-.39A6,6,0,0,1,2.58,9,6.38,6.38,0,0,1,1.29,7.42,5.19,5.19,0,0,1,.63,5.47ZM20.38,2.64H11.84a.76.76,0,0,1-.59-.25A.8.8,0,0,1,11,1.81.82.82,0,0,1,11.84,1h8.54a.81.81,0,0,1,.6.24.79.79,0,0,1,.24.59.8.8,0,0,1-.24.58A.79.79,0,0,1,20.38,2.64Zm-7.5,7.11A5.77,5.77,0,0,1,13.11,9a5.06,5.06,0,0,1,.32-.66h-.88a.78.78,0,0,0-.59.24.85.85,0,0,0,0,1.18.78.78,0,0,0,.59.24h.28l0-.11A.43.43,0,0,1,12.88,9.75ZM18.72,6.3H13.27a.81.81,0,0,1-.59-.24.79.79,0,0,1-.24-.59.76.76,0,0,1,.24-.57.81.81,0,0,1,.59-.24h5.45a.79.79,0,0,1,.59.24.76.76,0,0,1,.24.57.82.82,0,0,1-.83.83ZM16,7.73A2,2,0,0,1,17,8a2.08,2.08,0,0,1,.74.76A3.64,3.64,0,0,1,18.23,10a7.31,7.31,0,0,1,.17,1.66,7.19,7.19,0,0,1-.17,1.66,3.89,3.89,0,0,1-.48,1.22,2,2,0,0,1-.74.74,2,2,0,0,1-1,.27,1.88,1.88,0,0,1-1-.27,2,2,0,0,1-.74-.74,3.46,3.46,0,0,1-.48-1.22,4.26,4.26,0,0,1-.13-.77,7.86,7.86,0,0,1,0-1.77,4.7,4.7,0,0,1,.13-.78,3.26,3.26,0,0,1,.48-1.21,1.76,1.76,0,0,1,.33-.43A4.23,4.23,0,0,1,15,8,2,2,0,0,1,16,7.73Zm1.27,3.88a6.19,6.19,0,0,0,0-.63,5,5,0,0,0-.06-.56,3.89,3.89,0,0,0-.23-.9,1.51,1.51,0,0,0-.4-.56.85.85,0,0,0-.55-.2.87.87,0,0,0-.55.2,1.54,1.54,0,0,0-.41.56,4.48,4.48,0,0,0-.23.9l-.06.56a6.19,6.19,0,0,0,0,.63c0,.22,0,.43,0,.64s0,.38.06.54a4.42,4.42,0,0,0,.23.91,1.43,1.43,0,0,0,.41.56.87.87,0,0,0,.55.2.85.85,0,0,0,.55-.2,1.42,1.42,0,0,0,.4-.56,3.86,3.86,0,0,0,.23-.91,4,4,0,0,0,.06-.54C17.26,12,17.27,11.83,17.27,11.61ZM19,7.84h3v1H20.05V11h1.77v1.05H20.05v3.3H19Zm3.47,0h3v1H23.51V11h1.77v1.05H23.51v3.3H22.44Z"/>
  <rect class="cls-1" width="26" height="16"/>
</svg>
