<svg xmlns="http://www.w3.org/2000/svg" width="31" height="16" viewBox="0 0 31 16">
  <defs>
    <style>
      .cls-1 {
        isolation: isolate;
      }

      .cls-2 {
        mix-blend-mode: multiply;
      }

      .cls-3 {
        fill: #231815;
      }

      .cls-4 {
        fill: none;
      }
    </style>
  </defs>
  <title>icon_balance</title>
  <g class="cls-1">
    <g id="レイヤー_1" data-name="レイヤー 1">
      <g>
        <g class="cls-2">
          <path class="cls-3" d="M25.09,6.4H24l0-.82H22.93a1.94,1.94,0,0,0-1.85,2.08,1.93,1.93,0,0,0,1.85,2.08H24v0.83h1.07a1.94,1.94,0,0,0,1.85-2.08A1.93,1.93,0,0,0,25.09,6.4Zm0.5-3.33H24V2.25H22.44c-2.61,0-4.72,2.43-4.72,5.42s2.11,5.42,4.72,5.42H24V13.9H25.6c2.61,0,4.72-2.42,4.72-5.41S28.21,3.07,25.6,3.07Zm-0.35,9.18H24V11.4H22.75a3.55,3.55,0,0,1-3.33-3.74,3.55,3.55,0,0,1,3.33-3.74H24V4.77h1.24a3.55,3.55,0,0,1,3.33,3.74A3.55,3.55,0,0,1,25.25,12.25Z"/>
        </g>
        <polygon class="cls-2" points="18.45 0.5 16.32 0.5 11.27 15.5 13.4 15.5 18.45 0.5"/>
        <path class="cls-2" d="M0.68,4.3v7.5H11.57V4.3H0.68Zm9.59,6.2H2V5.6h8.28v4.9Z"/>
      </g>
      <rect class="cls-4" width="31" height="16"/>
    </g>
  </g>
</svg>
