<svg id="レイヤー_1" data-name="レイヤー 1" xmlns="http://www.w3.org/2000/svg" width="16" height="16" viewBox="0 0 16 16">
  <defs>
    <style>
      .cls-1 {
        fill: none;
      }
    </style>
  </defs>
  <title>icon_lc-e19_a</title>
  <path d="M8,4.79L6.46,9.21H9.59L8,4.79H8m6.71-3.51A2.67,2.67,0,0,0,12.82.5H3.18A2.68,2.68,0,0,0,.5,3.18v9.65A2.68,2.68,0,0,0,3.18,15.5h9.64a2.67,2.67,0,0,0,2.68-2.68V3.18a2.67,2.67,0,0,0-.78-1.89M11.11,13.36L10.19,10.9H5.84L4.91,13.36H2.68L6.86,2.64H9.28l4.21,10.71H11.11Z"/>
  <rect class="cls-1" width="16" height="16"/>
</svg>
