<svg id="レイヤー_1" data-name="レイヤー 1" xmlns="http://www.w3.org/2000/svg" width="16" height="16" viewBox="0 0 16 16">
  <defs>
    <style>
      .cls-1 {
        fill: none;
      }

      .cls-2 {
        fill: #fff;
      }
    </style>
  </defs>
  <title>icon_caution</title>
  <rect class="cls-1" width="16" height="16"/>
  <g>
    <g>
      <polygon class="cls-2" points="5 15.3 2.8 13.2 0.8 11 0.8 5 2.8 2.8 5 0.8 11 0.8 13.2 2.8 15.3 5 15.3 11 13.2 13.2 11 15.3 5 15.3"/>
      <path d="M10.9,0.9l2.1,2,2.1,2.2v5.8l-2,2.1-2.2,2.1H5.1L3,13.1,0.9,10.9V5.1L2.9,3,5.1,0.9h5.8m0.2-.4H4.9L2.7,2.7,0.5,4.9v6.2l2.2,2.3L5,15.6h6.2l2.3-2.2,2.2-2.3V4.9L13.5,2.6,11.1,0.5h0Z"/>
    </g>
    <circle cx="8" cy="13.3" r="1.5"/>
    <path d="M8,10.6A1.18,1.18,0,0,0,9.1,9.5C9.3,7.7,9.6,4.8,9.8,3A1.71,1.71,0,0,0,8,1.3,1.58,1.58,0,0,0,6.3,3C6.5,4.8,6.8,7.7,7,9.5A1,1,0,0,0,8,10.6Z"/>
  </g>
</svg>
