<svg id="レイヤー_1" data-name="レイヤー 1" xmlns="http://www.w3.org/2000/svg" width="27" height="16" viewBox="0 0 27 16">
  <defs>
    <style>
      .cls-1 {
        fill: #fff;
      }

      .cls-2 {
        fill: none;
      }
    </style>
  </defs>
  <title>icon_btn-playback</title>
  <g>
    <path d="M26.49,13.93A1.74,1.74,0,0,1,26.1,15a1.16,1.16,0,0,1-.92.46H1.83A1.15,1.15,0,0,1,.91,15a1.76,1.76,0,0,1-.4-1.11V2.07A1.62,1.62,0,0,1,.91,1,1.15,1.15,0,0,1,1.83.5H25.17A1.15,1.15,0,0,1,26.1,1a1.67,1.67,0,0,1,.39,1.12V13.93Z"/>
    <path class="cls-1" d="M20.8,13.54H6.24V2.75H20.8V13.54Zm-0.93-1V3.69H7.19v8.89H19.87ZM17,8.14L10.89,11V5.33Z"/>
  </g>
  <rect class="cls-2" width="27" height="16"/>
</svg>
