<?xml version="1.0" encoding="utf-8"?>
<!-- Generator: Adobe Illustrator 21.1.0, SVG Export Plug-In . SVG Version: 6.00 Build 0)  -->
<svg version="1.1" id="レイヤー_1" xmlns="http://www.w3.org/2000/svg" xmlns:xlink="http://www.w3.org/1999/xlink" x="0px"
	 y="0px" width="32px" height="16px" viewBox="0 0 32 16" style="enable-background:new 0 0 32 16;" xml:space="preserve">
<style type="text/css">
	.st0{fill:#0000FF;}
	.st1{fill:none;}
</style>
<title>icon_info</title>
<path class="st0" d="M2.1,15.3H0.6V0.8h1.6V15.3z M12.1,15.3h-2l-5-11.9l0,0v11.9H3.6V0.8h2.1l4.8,11.7l0,0V0.8h1.6L12.1,15.3
	L12.1,15.3z M19.7,2.6h-4.2v4.3h4v1.8h-4v6.6h-1.6V0.8h5.8V2.6z M31.4,8c0,1-0.1,2-0.4,3c-0.2,0.8-0.5,1.6-1,2.4
	c-0.4,0.7-1,1.2-1.7,1.6c-1.4,0.7-3,0.7-4.4,0c-0.7-0.4-1.2-0.9-1.7-1.5c-0.5-0.7-0.8-1.5-1-2.4c-0.2-1-0.4-2-0.4-3c0-1,0.1-2,0.4-3
	c0.2-0.8,0.5-1.6,1-2.4c0.4-0.7,1-1.2,1.6-1.6c1.4-0.8,3.1-0.8,4.4,0c0.7,0.4,1.2,0.9,1.7,1.6c0.5,0.7,0.8,1.5,1,2.4
	C31.3,6,31.5,7,31.4,8z M29.8,8c0-0.7-0.1-1.4-0.2-2.1c-0.1-0.6-0.4-1.2-0.7-1.8c-0.3-0.5-0.7-0.9-1.1-1.3c-0.5-0.3-1-0.5-1.6-0.5
	c-0.6,0-1.1,0.2-1.6,0.5c-0.5,0.3-0.9,0.8-1.1,1.3c-0.3,0.6-0.5,1.2-0.7,1.8c-0.1,0.7-0.2,1.4-0.2,2.1c0,0.7,0.1,1.4,0.2,2.1
	c0.1,0.6,0.3,1.2,0.6,1.8c0.3,0.5,0.6,0.9,1.1,1.3c1,0.6,2.3,0.6,3.2,0c0.5-0.3,0.8-0.8,1.1-1.3c0.3-0.6,0.5-1.2,0.6-1.8
	C29.7,9.4,29.8,8.7,29.8,8z"/>
<rect class="st1" width="32" height="16"/>
</svg>
