<svg xmlns="http://www.w3.org/2000/svg" width="17" height="16" viewBox="0 0 17 16">
  <defs>
    <style>
      .cls-1 {
        fill: none;
      }

      .cls-2 {
        fill: #231815;
      }
    </style>
  </defs>
  <g id="frame">
    <rect class="cls-1" width="17" height="16"/>
  </g>
  <g id="normal">
    <g>
      <g>
        <path class="cls-2" d="M11.88,11.56a.4.4,0,0,1-.28.12h0a.4.4,0,0,1-.29-.12L9.2,9.28,9.29,9l.27-.07,2,1.68,2.52-2.34.27.11.14.28Z"/>
        <path class="cls-2" d="M11.63,15.5a4.79,4.79,0,1,1,4.79-4.79A4.8,4.8,0,0,1,11.63,15.5Zm0-8.75a4,4,0,1,0,3.95,4A4,4,0,0,0,11.63,6.75Z"/>
      </g>
      <path class="cls-2" d="M6,10.71a5,5,0,0,1,.06-.78,2.44,2.44,0,1,1,2.2-3.71,5.56,5.56,0,0,1,3.37-1.14h.12a1,1,0,0,0-1-1H8.65L7.89,2.8a.65.65,0,0,0-.57-.35H5a.65.65,0,0,0-.19,0,.64.64,0,0,0-.4.32L3.65,4.12H1.55a1,1,0,0,0-1,1v5.27a1,1,0,0,0,1,1H6Q6,11,6,10.71Z"/>
      <g>
        <path class="cls-2" d="M3.17,3.28l.5-.88a1.88,1.88,0,0,1,.16-.23H2.77a1,1,0,0,0-1,1v.15Z"/>
        <path class="cls-2" d="M12,2.17H9.87L9.11.85A.63.63,0,0,0,8.54.5H6.21A.43.43,0,0,0,6,.54a.64.64,0,0,0-.4.32l-.43.76H7.32a1.48,1.48,0,0,1,1.31.79l.5.87h1.66a1.81,1.81,0,0,1,1.8,1.8v.1l.38.07V3.13A1,1,0,0,0,12,2.17Z"/>
      </g>
    </g>
  </g>
</svg>
