<svg xmlns="http://www.w3.org/2000/svg" width="28" height="16" viewBox="0 0 28 16">
  <defs>
    <style>
      .cls-1 {
        fill: none;
      }
    </style>
  </defs>
  <g id="base">
    <rect class="cls-1" width="28" height="16"/>
  </g>
  <g id="icon">
    <g>
      <path d="M3.29,4.23H2.88v3h.41a.86.86,0,0,0,.36-.08.74.74,0,0,0,.27-.26A1.3,1.3,0,0,0,4.1,6.4a3.36,3.36,0,0,0,.07-.7,2.17,2.17,0,0,0-.23-1.1A.73.73,0,0,0,3.29,4.23Z"/>
      <path d="M7.79,4.39s0,.05,0,.09,0,.09,0,.14,0,.09,0,.13a.22.22,0,0,1,0,.09L7.08,9.26H8.5L7.83,4.85Z"/>
      <path d="M25.25.5H2.75A1.87,1.87,0,0,0,.88,2.38V13.62A1.87,1.87,0,0,0,2.75,15.5h22.5a1.87,1.87,0,0,0,1.87-1.88V2.38A1.87,1.87,0,0,0,25.25.5ZM21.73,3.78a1.41,1.41,0,0,1,2.82,0V8.47a1.41,1.41,0,1,1-2.82,0ZM4.44,13.2,3.53,8.6l-.1,0H2.88V13.2h-1V2.8H3.4a1.47,1.47,0,0,1,.36,0A1,1,0,0,1,4.09,3a1.58,1.58,0,0,1,.3.24,2,2,0,0,1,.26.34c.07.13.14.27.21.43A4.42,4.42,0,0,1,5,4.46a5.15,5.15,0,0,1,.12,1.13,5.4,5.4,0,0,1-.24,1.77,2,2,0,0,1-.12.31A2.91,2.91,0,0,1,4.6,8l-.12.15-.12.12,1.09,5Zm4.61,0-.36-2.46H6.9L6.54,13.2h-1L7.24,2.8H8.35L10.1,13.2Zm4.18-8.91H12V13.2H11V4.29H9.83V2.8h3.4Zm3.59,8.91H13.94V2.8h2.83V4.23H14.92V7.14h1.65V8.57H14.92v3.2h1.9Zm.7,0L19.31,2.84h.86l-1.8,10.32ZM26.19,8.7a3,3,0,0,1-2.58,3v1H25a.47.47,0,0,1,.46.47.46.46,0,0,1-.46.46H21.27a.46.46,0,0,1-.47-.46.47.47,0,0,1,.47-.47h1.4v-1a3,3,0,0,1-2.58-3V6.12a.47.47,0,0,1,.94,0V8.7a2.11,2.11,0,0,0,4.22,0V6.12a.47.47,0,0,1,.94,0Z"/>
    </g>
  </g>
</svg>
