<?xml version="1.0" encoding="UTF-8"?>
<svg xmlns="http://www.w3.org/2000/svg" width="19.05mm" height="5.64mm" version="1.1" viewBox="0 0 54 15.99">
  <!-- Generator: Adobe Illustrator 29.2.1, SVG Export Plug-In . SVG Version: 2.1.0 Build 116)  -->
  <defs>
    <style>
      .st0 {
        fill: #6f6f6f;
      }

      .st1 {
        fill: #848484;
      }

      .st2 {
        stroke-linecap: round;
        stroke-miterlimit: 5;
      }

      .st2, .st3, .st4, .st5 {
        fill: none;
      }

      .st2, .st4, .st5, .st6 {
        stroke: #fff;
      }

      .st2, .st4, .st6 {
        stroke-width: .75px;
      }

      .st4, .st5, .st6 {
        stroke-miterlimit: 9.98;
      }

      .st5 {
        stroke-width: 1px;
      }

      .st6 {
        fill: #fff;
      }
    </style>
  </defs>
  <g id="_レイヤー_1">
    <rect class="st3" x=".02" y="0" width="53.96" height="15.99"/>
  </g>
  <g id="_レイヤー_2" data-name="レイヤー_2">
    <path d="M14.29,12.79c0,.66-.54,1.2-1.2,1.2H3.5c-.66,0-1.19-.54-1.2-1.2V3.2c0-.66.54-1.19,1.2-1.2h9.59c.66,0,1.2.54,1.2,1.2h0v9.59ZM.62.5v14.99h52.76V.5H.62ZM14.81,13.19c0,.72-.58,1.3-1.3,1.3H3.12c-.72,0-1.29-.58-1.3-1.3V2.8c0-.72.58-1.29,1.3-1.3h10.39c.72,0,1.3.58,1.3,1.3h0v10.39ZM18.81,14.52h-2.31V1.47h2.33l-.02,13.05ZM22.51,14.52h-2.31V1.47h2.33l-.02,13.05ZM26.22,14.52h-2.31V1.47h2.33l-.02,13.05ZM29.93,14.52h-2.32V1.47h2.39l-.07,13.05ZM33.63,14.52h-2.32V1.47h2.34l-.02,13.05ZM37.33,14.52h-2.34V1.47h2.33v13.05h0ZM41.04,14.52h-2.31V1.47h2.33l-.02,13.05ZM44.75,14.52h-2.31V1.47h2.33l-.02,13.05ZM48.45,14.52h-2.32V1.47h2.34l-.02,13.05ZM52.16,14.52h-2.32V1.47h2.34l-.02,13.05Z"/>
    <polygon class="st1" points="44.75 14.52 42.44 14.52 42.44 1.47 44.77 1.47 44.75 14.52"/>
    <polygon class="st0" points="48.44 14.52 46.13 14.52 46.13 1.47 48.46 1.47 48.44 14.52"/>
    <polygon class="st0" points="52.15 14.52 49.84 14.52 49.84 1.47 52.17 1.47 52.15 14.52"/>
    <g>
      <line class="st5" x1="3.63" y1="4.05" x2="6.26" y2="4.07"/>
      <line class="st5" x1="3.63" y1="8.77" x2="6.26" y2="8.79"/>
      <line class="st5" x1="4.82" y1="7.22" x2="6.26" y2="7.24"/>
      <line class="st5" x1="4.82" y1="5.64" x2="6.26" y2="5.66"/>
      <line class="st5" x1="10.33" y1="4.2" x2="12.97" y2="4.22"/>
      <line class="st5" x1="10.33" y1="8.92" x2="12.97" y2="8.94"/>
      <line class="st5" x1="10.33" y1="7.36" x2="11.77" y2="7.39"/>
      <line class="st5" x1="10.33" y1="5.79" x2="11.77" y2="5.81"/>
    </g>
    <line class="st2" x1="8.29" y1="4.81" x2="8.29" y2="10.8"/>
    <circle class="st6" cx="8.29" cy="10.41" r=".54"/>
    <path class="st4" d="M8.29,3.29s-1.61,0-1.61,1.41v4.72c-.19.3-.3.66-.3,1.04,0,1.06.86,1.92,1.92,1.92s1.92-.86,1.92-1.92c0-.4-.12-.77-.33-1.08v-4.68c0-1.41-1.59-1.41-1.59-1.41h0Z"/>
    <path class="st4" d="M9.88,9.38"/>
  </g>
</svg>