<svg xmlns="http://www.w3.org/2000/svg" width="30" height="16" viewBox="0 0 30 16">
  <defs>
    <style>
      .cls-1 {
        fill: none;
      }

      .cls-2 {
        fill: #231f20;
      }
    </style>
  </defs>
  <g id="base">
    <rect class="cls-1" width="30" height="16"/>
  </g>
  <g id="icon">
    <g>
      <g>
        <path class="cls-2" d="M22.09,3.92V7h3.1V3.92Zm2.33,2.33H22.87V4.69h1.55Z"/>
        <path class="cls-2" d="M22.09,7.91v3h3v-3Zm2.28,2.28H22.85V8.67h1.52Z"/>
        <path class="cls-2" d="M22.09,11.9V15h3.1V11.9Zm2.33,2.32H22.87V12.67h1.55Z"/>
        <path class="cls-2" d="M18.1,7.91V11h3.11V7.91Zm2.33,2.33H18.88V8.68h1.55Z"/>
        <path class="cls-2" d="M26.08,7.91V11h3.1V7.91Zm2.33,2.33H26.86V8.68h1.55Z"/>
      </g>
      <g>
        <path class="cls-2" d="M6.46,1a10.89,10.89,0,0,0-.83,1.45,10.87,10.87,0,0,1,8.2,5.46,10.87,10.87,0,0,1-8.2,5.46,11.56,11.56,0,0,0,.83,1.45,12.46,12.46,0,0,0,9.12-6.91A12.43,12.43,0,0,0,6.46,1Z"/>
        <path class="cls-2" d="M3.48,7.91a13.4,13.4,0,0,1,.38-3.19l-3,3.19,3,3.19A13.46,13.46,0,0,1,3.48,7.91Z"/>
        <path class="cls-2" d="M6.07,7.91a7.09,7.09,0,0,0,1.25,4,7,7,0,0,0,1.25-4,7,7,0,0,0-1.25-4A7.12,7.12,0,0,0,6.07,7.91Z"/>
      </g>
    </g>
  </g>
</svg>
