<?xml version="1.0" encoding="utf-8"?>
<!-- Generator: Adobe Illustrator 23.0.3, SVG Export Plug-In . SVG Version: 6.00 Build 0)  -->
<svg version="1.1" id="レイヤー_1" xmlns="http://www.w3.org/2000/svg" xmlns:xlink="http://www.w3.org/1999/xlink" x="0px"
	 y="0px" width="29.8px" height="15.9px" viewBox="0 0 29.8 15.9" style="enable-background:new 0 0 29.8 15.9;"
	 xml:space="preserve">
<style type="text/css">
	.st0{fill:none;}
</style>
<title>icon_dial-normal</title>
<rect class="st0" width="29.8" height="15.9"/>
<g>
	<path d="M14.9,6.4c-4.8,0-8.7,3.9-8.7,8.7h1.4c0-4,3.3-7.3,7.3-7.3s7.3,3.3,7.3,7.3h1.4C23.6,10.3,19.7,6.4,14.9,6.4z"/>
	<rect x="13.9" y="0.7" width="2.1" height="3.9"/>
	<rect x="10.2" y="3.2" transform="matrix(0.866 -0.5 0.5 0.866 -0.7085 5.9494)" width="1.2" height="2.2"/>
	<rect x="3.7" y="8.8" transform="matrix(0.5 -0.866 0.866 0.5 -6.4561 8.7086)" width="1.2" height="2.2"/>
	<rect x="5.4" y="3.9" transform="matrix(0.7071 -0.7071 0.7071 0.7071 -2.2466 6.2852)" width="2.1" height="3.9"/>
	<rect x="0.4" y="13.1" width="3.9" height="2.1"/>
	<rect x="17.9" y="3.7" transform="matrix(0.5001 -0.866 0.866 0.5001 5.786 18.616)" width="2.2" height="1.2"/>
	<rect x="24.3" y="9.4" transform="matrix(0.866 -0.5 0.5 0.866 -1.5629 14.0577)" width="2.2" height="1.2"/>
	<rect x="21.4" y="4.8" transform="matrix(0.7071 -0.7071 0.7071 0.7071 2.6847 18.1905)" width="3.9" height="2.1"/>
	<rect x="25.5" y="13.1" width="3.9" height="2.1"/>
</g>
</svg>
