<svg id="icon" xmlns="http://www.w3.org/2000/svg" width="17" height="16" viewBox="0 0 17 16">
  <defs>
    <style>
      .cls-1 {
        fill: none;
      }
    </style>
  </defs>
  <g>
    <path d="M12.25,4.24h-.69V7.71h.69a2.36,2.36,0,0,0,.8-.12,1.37,1.37,0,0,0,.54-.35,1.49,1.49,0,0,0,.31-.55A2.59,2.59,0,0,0,14,6a1.81,1.81,0,0,0-.42-1.26A1.78,1.78,0,0,0,12.25,4.24Z"/>
    <path d="M15.06.5H1.94A1.88,1.88,0,0,0,.06,2.38V13.62A1.88,1.88,0,0,0,1.94,15.5H15.06a1.88,1.88,0,0,0,1.88-1.88V2.38A1.88,1.88,0,0,0,15.06.5ZM7.78,13a4,4,0,0,1-.54.16,5.8,5.8,0,0,1-.71.12,7.52,7.52,0,0,1-.86,0,4.78,4.78,0,0,1-1.73-.31,3.83,3.83,0,0,1-1.43-1,4.82,4.82,0,0,1-1-1.66A7.26,7.26,0,0,1,1.16,8a7.63,7.63,0,0,1,.32-2.29A4.84,4.84,0,0,1,2.4,4,4,4,0,0,1,3.83,3a4.75,4.75,0,0,1,1.84-.35,7.34,7.34,0,0,1,.85,0c.25,0,.48.09.69.14L7.74,3l.38.17L8,4.8l-.4-.24a4.68,4.68,0,0,0-.5-.22,4.74,4.74,0,0,0-.57-.15,3.08,3.08,0,0,0-.61-.06,2.72,2.72,0,0,0-1.15.24,2.28,2.28,0,0,0-.9.71,3.44,3.44,0,0,0-.58,1.2A6.3,6.3,0,0,0,3.11,8a6,6,0,0,0,.23,1.82A3.42,3.42,0,0,0,4,11a2.39,2.39,0,0,0,.9.66,3,3,0,0,0,1.08.2,3.26,3.26,0,0,0,.61-.07,5.25,5.25,0,0,0,.6-.16,3.52,3.52,0,0,0,.52-.21,3.6,3.6,0,0,0,.39-.19l.07,1.63A2.43,2.43,0,0,1,7.78,13ZM15.62,7.3a2.52,2.52,0,0,1-.67,1,2.89,2.89,0,0,1-1.13.63,5,5,0,0,1-1.57.22h-.69v4.07H9.7V2.81h2.55A5,5,0,0,1,13.82,3,2.89,2.89,0,0,1,15,3.66a2.52,2.52,0,0,1,.67,1A3.71,3.71,0,0,1,15.84,6,3.66,3.66,0,0,1,15.62,7.3Z"/>
  </g>
  <rect class="cls-1" width="17" height="16"/>
</svg>
