<svg id="レイヤー_1" data-name="レイヤー 1" xmlns="http://www.w3.org/2000/svg" width="33" height="16" viewBox="0 0 33 16">
  <defs>
    <style>
      .cls-1 {
        fill: none;
      }
    </style>
  </defs>
  <title>icon_pic-style-1</title>
  <path d="M32.16,0.5v15H0.84V0.5H32.16ZM2,1.62V14.4H31V1.62H2Zm8.17,7.67-5.7,1.9L2.8,8.84,8.16,7.23Zm-6,0L4.46,9.81l0.28,0.42L5.48,10l1-.33L7.56,9.3l1.09-.36L8.23,8.48l-0.3-.33-0.69.2-1,.29L5.16,9Zm6.41-4.14L6.86,4l-2,1.21L8.64,6.52Zm0.53,4.4L10.71,13.1h4.65l-0.3-3.53h-4ZM14.6,4.92l-0.19-2H11.65l-0.21,2H14.6Zm2.84,1.6,3.78-1.26L19.22,4,15.56,5.17Zm-1.21,2.7L21.6,11l1.45-2.08L18,7.41Zm9.91-6.09a2.68,2.68,0,0,1-1.1.25V4.71L25.7,4.6,26,4.51l0.12,0,0.12,0,0.12-.06,0.13-.06a1,1,0,0,0,.25-0.16V13.6H27.9V2.47h-1A2.37,2.37,0,0,1,26.14,3.13Z"/>
  <rect class="cls-1" width="33" height="16"/>
</svg>
