<svg xmlns="http://www.w3.org/2000/svg" width="26" height="16" viewBox="0 0 26 16">
  <defs>
    <style>
      .cls-1 {
        fill: none;
      }
    </style>
  </defs>
  <g id="base">
    <rect class="cls-1" width="26" height="16"/>
  </g>
  <g id="icon">
    <g>
      <g>
        <path d="M25.63,4.62v7.62a4.71,4.71,0,0,1-.23,1.6,2.8,2.8,0,0,1-.65,1.06,2.38,2.38,0,0,1-1,.59,4.09,4.09,0,0,1-2.4,0,2.3,2.3,0,0,1-1-.6,2.73,2.73,0,0,1-.65-1.06,4.59,4.59,0,0,1-.24-1.59V4.62h1.64v7.47a4,4,0,0,0,.1,1,1.8,1.8,0,0,0,.29.64,1,1,0,0,0,.45.35,1.67,1.67,0,0,0,1.14,0,1.08,1.08,0,0,0,.45-.35,1.8,1.8,0,0,0,.29-.64,4,4,0,0,0,.1-1V4.62Z"/>
        <rect x="15" y="9.06" width="2.92" height="1.26"/>
        <path d="M16.05,4.62,12.58,9.68l3.79,5.84h-2L11.5,10.83v4.69H9.82V4.62H11.5v4l2.67-4Z"/>
        <path d="M6.54,9.79a2.65,2.65,0,0,1,.59.32,2.48,2.48,0,0,1,.56.56,3,3,0,0,1,.43.82,3.53,3.53,0,0,1,.17,1.13A3.88,3.88,0,0,1,8.07,14a2.46,2.46,0,0,1-.6,1,2.29,2.29,0,0,1-.91.58,3.34,3.34,0,0,1-1.17.2,3.68,3.68,0,0,1-1.17-.19,2.51,2.51,0,0,1-.91-.57,2.57,2.57,0,0,1-.6-1,3.9,3.9,0,0,1-.22-1.35,3.47,3.47,0,0,1,.17-1.12,3.07,3.07,0,0,1,.42-.83,2.7,2.7,0,0,1,.56-.56,2.89,2.89,0,0,1,.59-.32h0a2.49,2.49,0,0,1-.5-.24,1.87,1.87,0,0,1-.51-.44,2.42,2.42,0,0,1-.4-.73,2.94,2.94,0,0,1-.16-1.05,3.42,3.42,0,0,1,.18-1.12,2.9,2.9,0,0,1,.54-.92,2.56,2.56,0,0,1,.86-.62,2.86,2.86,0,0,1,1.16-.22,2.94,2.94,0,0,1,1.19.22,2.26,2.26,0,0,1,.85.6A2.49,2.49,0,0,1,8,6.18a3.55,3.55,0,0,1,.18,1.15,2.86,2.86,0,0,1-.16,1,2.29,2.29,0,0,1-.39.71,2.41,2.41,0,0,1-.51.46A3.22,3.22,0,0,1,6.54,9.79Zm-1.15.71a1.31,1.31,0,0,0-.5.1,1.25,1.25,0,0,0-.45.35,1.56,1.56,0,0,0-.33.6,2.57,2.57,0,0,0-.13.89,2.81,2.81,0,0,0,.11.82,1.75,1.75,0,0,0,.29.58,1.22,1.22,0,0,0,.45.34,1.3,1.3,0,0,0,.56.11,1.26,1.26,0,0,0,.55-.11,1.12,1.12,0,0,0,.44-.34,1.58,1.58,0,0,0,.29-.58,2.81,2.81,0,0,0,.11-.82,2.86,2.86,0,0,0-.12-.89,1.88,1.88,0,0,0-.33-.6,1.25,1.25,0,0,0-.45-.35A1.19,1.19,0,0,0,5.39,10.5Zm1.24-3A1.88,1.88,0,0,0,6.3,6.25a1.1,1.1,0,0,0-.91-.4,1.13,1.13,0,0,0-.92.4,1.82,1.82,0,0,0-.34,1.21,2.2,2.2,0,0,0,.15.89,1.38,1.38,0,0,0,.35.51,1.13,1.13,0,0,0,.42.24,1.35,1.35,0,0,0,.34.06,1.29,1.29,0,0,0,.33-.06,1,1,0,0,0,.41-.24,1.27,1.27,0,0,0,.35-.51A2.2,2.2,0,0,0,6.63,7.46Z"/>
      </g>
      <path d="M.35.7V11.38H1.79l0-.16a4,4,0,0,1,.46-.93H1v-2h.88a4.44,4.44,0,0,1-.11-1c0-.1,0-.21,0-.31H1v-2H2.45c.09-.12.17-.24.27-.35a3.37,3.37,0,0,1,.68-.57V1.79H16.27v2h1.09V.7ZM2.74,3.75H1v-2H2.74Z"/>
    </g>
  </g>
</svg>
