<svg id="レイヤー_1" data-name="レイヤー 1" xmlns="http://www.w3.org/2000/svg" width="13" height="16" viewBox="0 0 13 16">
  <defs>
    <style>
      .cls-1 {
        fill: none;
      }
    </style>
  </defs>
  <rect class="cls-1" width="13" height="16"/>
  <path d="M1.37,15.5a.71.71,0,0,1-.51-.2.65.65,0,0,1-.19-.48V1.27A.74.74,0,0,1,.9.73.75.75,0,0,1,1.45.5h1.3V1.74H4.42V.5H5.67V1.74H7.33V.5H8.58V1.74h1.67V.5h1.3a.75.75,0,0,1,.55.23.74.74,0,0,1,.23.54V14.82a.65.65,0,0,1-.19.48.71.71,0,0,1-.51.2Zm.75-1.43h8.76V3.2H2.12ZM9,6.8a2.7,2.7,0,0,1-.15.87c-.05.15-.11.29-.16.44a2.74,2.74,0,0,1-.21.42L8.18,9q-.13.21-.3.42c-.1.14-.21.28-.32.41l-.34.39-.36.36-.36.34-.36.33-.36.27H9v1.09H4V11.53l.34-.31.36-.35c.25-.23.51-.49.77-.76l.36-.39c.12-.13.23-.27.35-.41l.34-.41c.1-.14.2-.27.28-.4a6.38,6.38,0,0,0,.44-.79,2.28,2.28,0,0,0,.13-.36A2.09,2.09,0,0,0,7.4,7a1.3,1.3,0,0,0-.26-.86,1.07,1.07,0,0,0-.82-.3,3,3,0,0,0-.49,0L5.57,6,5.31,6a5,5,0,0,0-.5.21,1.59,1.59,0,0,0-.43.23L4.17,5.26l.21-.11L4.63,5,4.9,5l.28-.07.32-.06a1.64,1.64,0,0,1,.32-.05,3.74,3.74,0,0,1,.66,0,4.17,4.17,0,0,1,.52,0l.46.08a2.36,2.36,0,0,1,.78.38,1.85,1.85,0,0,1,.52.65A2.07,2.07,0,0,1,9,6.8Z"/>
</svg>
