<svg id="レイヤー_1" data-name="レイヤー 1" xmlns="http://www.w3.org/2000/svg" width="16" height="16" viewBox="0 0 16 16">
  <defs>
    <style>
      .cls-1 {
        fill: none;
      }

      .cls-2 {
        fill: #1c1c1c;
      }
    </style>
  </defs>
  <g id="frame">
    <rect class="cls-1" width="16" height="16"/>
  </g>
  <g id="_b" data-name=" b">
    <g>
      <path class="cls-2" d="M12.12,9.52c-.18,0-.3.18-.3.44s.11.42.3.42a.25.25,0,0,0,.25-.2V9.73A.28.28,0,0,0,12.12,9.52Z"/>
      <path class="cls-2" d="M6.35,9.51c-.19,0-.27.19-.28.34H6.6C6.61,9.69,6.54,9.51,6.35,9.51Z"/>
      <path class="cls-2" d="M7.16,10.21a.18.18,0,0,0,.16.2h0a.26.26,0,0,0,.25-.18V10C7.41,10,7.16,10,7.16,10.21Z"/>
      <path class="cls-2" d="M.5.5v15h15V.5ZM3.64,10.56a.78.78,0,0,1-.37-.09V10.3a.63.63,0,0,0,.33.09c.2,0,.32-.11.32-.27s-.09-.24-.28-.32a.52.52,0,0,1-.38-.46.43.43,0,0,1,.45-.43h0A.74.74,0,0,1,4.11,9l-.05.17a.52.52,0,0,0-.27-.07.25.25,0,0,0-.28.22v0c0,.15.09.22.29.31a.55.55,0,0,1,.37.47C4.17,10.34,4,10.56,3.64,10.56Zm1.3-1H4.66v.64c0,.15,0,.22.15.22h.1v.16H4.74a.25.25,0,0,1-.21-.08.46.46,0,0,1-.08-.3V9.54H4.29V9.39h.17V9.18l.2-.07v.28h.28Zm.84,0H5.72a.29.29,0,0,0-.27.26v.72h-.2V9.39h.17V9.6h0a.34.34,0,0,1,.3-.24h0Zm0-1.43H4.44V5H5V7.67h.78Zm1,1.86H6.06c0,.31.18.42.36.42a.67.67,0,0,0,.28-.06v.15a1,1,0,0,1-.35.06A.51.51,0,0,1,5.87,10v0c0-.36.19-.62.5-.62s.43.31.43.53a.28.28,0,0,1,0,.09Zm.06-1.86H6.28V5h.57Zm.78,2.41V10.4h0a.36.36,0,0,1-.31.17A.32.32,0,0,1,7,10.24H7c0-.28.24-.42.63-.42h0c0-.11,0-.27-.24-.27a.5.5,0,0,0-.26.08V9.49a.62.62,0,0,1,.35-.1c.31,0,.4.22.4.46v.45a1.22,1.22,0,0,0,0,.27ZM7.24,5h.61l.47,2.39h.09L8.9,5h.58l-.8,3.1H8Zm2.39,5.51h-.2V9.87c0-.2-.06-.34-.22-.34A.25.25,0,0,0,9,9.71a.21.21,0,0,0,0,.11v.72H8.8V9.83c0-.17-.06-.3-.22-.3a.26.26,0,0,0-.23.2v.81h-.2V9.39h.18v.17h0a.37.37,0,0,1,.33-.2.31.31,0,0,1,.3.22H9a.44.44,0,0,1,.12-.15.39.39,0,0,1,.23-.07c.15,0,.35.11.35.47Zm.52,0H10V9.39h.2Zm-.1-1.35h0A.12.12,0,0,1,9.93,9a.13.13,0,0,1,.13-.13h0a.12.12,0,0,1,.12.12h0a.12.12,0,0,1-.09.15h0Zm1.32,1.35h-.2V9.85c0-.17-.06-.32-.24-.32a.28.28,0,0,0-.25.21v.8h-.2V9.69a1.5,1.5,0,0,0,0-.3h.18v.17h0a.4.4,0,0,1,.34-.2c.16,0,.37.1.37.47Zm.07-2.41H9.87V5h1.52v.45h-1v.83h.89v.45h-.89v.91h1Zm1.15,1.59v.66a.65.65,0,0,1-.15.52.61.61,0,0,1-.39.13.77.77,0,0,1-.34-.08v-.16a.61.61,0,0,0,.3.08c.19,0,.33-.1.33-.38v-.13h0a.33.33,0,0,1-.32.18c-.26,0-.45-.24-.45-.57a.58.58,0,0,1,.48-.61.36.36,0,0,1,.32.19h0V9.39h.18c0,.11,0,.22,0,.33Z"/>
    </g>
  </g>
</svg>
