<svg id="icon" xmlns="http://www.w3.org/2000/svg" width="50.65" height="16" viewBox="0 0 50.65 16">
  <title>Icon_PreRecording_five_sec</title>
  <g>
    <path d="M42.65,0a8,8,0,1,0,8,8A8,8,0,0,0,42.65,0Zm3,11.45A2.9,2.9,0,0,1,45,12.52a3,3,0,0,1-1.08.67,4.14,4.14,0,0,1-1.41.23,6.42,6.42,0,0,1-1-.07,7,7,0,0,1-.73-.15,3.83,3.83,0,0,1-.51-.17L40,12.9l0,0L40.05,11l.15.15a1.2,1.2,0,0,0,.23.15,3.8,3.8,0,0,0,.45.21,4.66,4.66,0,0,0,.59.19,2.82,2.82,0,0,0,1.32,0,1.42,1.42,0,0,0,.57-.27,1.39,1.39,0,0,0,.4-.55,2.37,2.37,0,0,0,.15-.93,2.27,2.27,0,0,0-.1-.69,1.66,1.66,0,0,0-.31-.56A1.44,1.44,0,0,0,43,8.33a2.27,2.27,0,0,0-1.25-.1,4.9,4.9,0,0,0-.58.11,4.39,4.39,0,0,0-.55.18,1.71,1.71,0,0,0-.42.23L40,8.88v-6h5.43V4.41H41.88V6.79l.11,0,.29-.05.31,0h.3a3.38,3.38,0,0,1,1.3.23,2.54,2.54,0,0,1,1,.68,2.92,2.92,0,0,1,.58,1.06A4.64,4.64,0,0,1,45.9,10,4.1,4.1,0,0,1,45.66,11.45Z"/>
    <g>
      <path d="M3.78.31A7.48,7.48,0,0,1,6.09.63a4.5,4.5,0,0,1,1.66.93A3.78,3.78,0,0,1,8.75,3a5.46,5.46,0,0,1,.33,2,5.43,5.43,0,0,1-.33,1.95,3.78,3.78,0,0,1-1,1.47,4.5,4.5,0,0,1-1.66.93,7.48,7.48,0,0,1-2.31.32h-1v6H0V.31Zm0,7.24a3.49,3.49,0,0,0,1.18-.18,2,2,0,0,0,.8-.51A2.08,2.08,0,0,0,6.2,6,3.55,3.55,0,0,0,6.35,5a2.68,2.68,0,0,0-.62-1.86,2.54,2.54,0,0,0-2-.7h-1V7.55Z"/>
      <path d="M18.84,7.95a1.62,1.62,0,0,1-.34.23l-.34.17,3.08,7.33H18.41l-2.6-6.79-.28,0H14v6.75H11.25V.31h4.19a8.7,8.7,0,0,1,1,.06,5.11,5.11,0,0,1,.95.2,3.92,3.92,0,0,1,.85.35,4.31,4.31,0,0,1,.74.5,5,5,0,0,1,.59.63,3.14,3.14,0,0,1,.43.71,4.22,4.22,0,0,1,.34,1.67A4.66,4.66,0,0,1,19.69,7a4.3,4.3,0,0,1-.36.46A3,3,0,0,1,18.84,7.95ZM14,6.81h1.17a4,4,0,0,0,1-.12,2.07,2.07,0,0,0,.78-.38,1.75,1.75,0,0,0,.51-.68,2.57,2.57,0,0,0,.18-1A2,2,0,0,0,17,3a2.75,2.75,0,0,0-1.83-.55H14Z"/>
      <path d="M25.9,8.84v4.72h5.4v2.12H23.13V.31h8V2.43H25.9V6.72h4.69V8.84Z"/>
    </g>
  </g>
</svg>
