<svg xmlns="http://www.w3.org/2000/svg" width="21" height="16" viewBox="0 0 21 16">
  <defs>
    <style>
      .cls-1 {
        fill: none;
      }
    </style>
  </defs>
  <g id="base">
    <rect id="Flash_mark.ai" class="cls-1" width="21" height="16"/>
  </g>
  <g id="icon">
    <path d="M9.62,10.65a5.74,5.74,0,0,1,5.29-5.72V2.26A1.76,1.76,0,0,0,13.15.5H2.56A1.76,1.76,0,0,0,.79,2.26V12.85a1.77,1.77,0,0,0,1.77,1.77h8.66A5.71,5.71,0,0,1,9.62,10.65ZM8.81,12.1H7.27V4.67L5.87,5.84,5.34,4.55,7.46,2.91H8.81Zm6.54-6.31a4.86,4.86,0,1,0,4.86,4.86A4.86,4.86,0,0,0,15.35,5.79Zm-3.53,4.86a3.57,3.57,0,0,1,.61-2l4.91,4.91a3.53,3.53,0,0,1-5.52-2.92Zm6.45,2-4.9-4.9a3.46,3.46,0,0,1,2-.61,3.53,3.53,0,0,1,3.53,3.53A3.46,3.46,0,0,1,18.27,12.63Z"/>
  </g>
</svg>
