<svg id="レイヤー_1" data-name="レイヤー 1" xmlns="http://www.w3.org/2000/svg" width="30" height="16" viewBox="0 0 30 16">
  <defs>
    <style>
      .cls-1 {
        fill: none;
      }
    </style>
  </defs>
  <title>icon_p-on</title>
  <path d="M14.87,8a9.4,9.4,0,0,1-.47,3A6.71,6.71,0,0,1,13,13.41,6.1,6.1,0,0,1,10.84,15a7.55,7.55,0,0,1-3,.55,7.54,7.54,0,0,1-3-.55,6.1,6.1,0,0,1-2.2-1.54A6.71,6.71,0,0,1,1.36,11,9.38,9.38,0,0,1,.89,8a9.21,9.21,0,0,1,.47-3A6.82,6.82,0,0,1,2.73,2.63a6.27,6.27,0,0,1,2.2-1.57,7.34,7.34,0,0,1,3-.56,7.3,7.3,0,0,1,2.94.56A6.26,6.26,0,0,1,13,2.63,6.91,6.91,0,0,1,14.39,5,9.07,9.07,0,0,1,14.87,8ZM12.66,8a7.59,7.59,0,0,0-.3-2.14A5.62,5.62,0,0,0,11.47,4,4.36,4.36,0,0,0,10,2.79a4.5,4.5,0,0,0-2.1-.47,4.49,4.49,0,0,0-2.1.47A4.44,4.44,0,0,0,4.28,4a5.37,5.37,0,0,0-.89,1.81A7.8,7.8,0,0,0,3.1,8a8.19,8.19,0,0,0,.27,2.12,5.41,5.41,0,0,0,.86,1.82,4.29,4.29,0,0,0,1.49,1.27,4.6,4.6,0,0,0,2.16.48A4.55,4.55,0,0,0,10,13.21a4.32,4.32,0,0,0,1.48-1.27,5.52,5.52,0,0,0,.86-1.82A8,8,0,0,0,12.66,8Zm16.45,7.24H26.44L19.88,3.32h0V15.24H17.78V0.75H20.6L27,12.43h0V0.75h2.06V15.24Z"/>
  <rect class="cls-1" width="30" height="16"/>
</svg>
