<svg id="レイヤー_1" data-name="レイヤー 1" xmlns="http://www.w3.org/2000/svg" width="16" height="16" viewBox="0 0 16 16">
  <defs>
    <style>
      .cls-1 {
        fill: none;
      }
    </style>
  </defs>
  <title>icon_print-type-standard</title>
  <rect class="cls-1" width="16" height="16"/>
  <path d="M15.27,8a7.34,7.34,0,0,1-2.13,5.3A6.91,6.91,0,0,1,8,15.5a6.89,6.89,0,0,1-5.13-2.2A7.34,7.34,0,0,1,.73,8,7.35,7.35,0,0,1,2.86,2.7,6.89,6.89,0,0,1,8,.5a6.91,6.91,0,0,1,5.15,2.2A7.35,7.35,0,0,1,15.27,8ZM12.34,4.81V4.33H3.1v6.93H3.64v0.45h9.24V4.81H12.34ZM11.91,8.47a0.89,0.89,0,0,1-1.08.64A3.91,3.91,0,0,1,10,9a3.51,3.51,0,0,1,.13.89,0.64,0.64,0,0,1-.42.77H3.6V4.81h8.31V8.47Z"/>
</svg>
