<svg id="レイヤー_1" data-name="レイヤー 1" xmlns="http://www.w3.org/2000/svg" width="16" height="16" viewBox="0 0 16 16">
  <defs>
    <style>
      .cls-1 {
        fill: none;
      }
    </style>
  </defs>
  <title>icon_print-type-index</title>
  <path d="M15.26,8a7.35,7.35,0,0,1-2.12,5.3A6.88,6.88,0,0,1,8,15.5a6.89,6.89,0,0,1-5.13-2.2A7.34,7.34,0,0,1,.74,8,7.34,7.34,0,0,1,2.87,2.7,6.89,6.89,0,0,1,8,.5a6.88,6.88,0,0,1,5.14,2.2A7.35,7.35,0,0,1,15.26,8ZM12.4,4.87V4.41H3.16v6.93H3.7v0.45h9.24V4.87H12.4ZM12,8.55a0.89,0.89,0,0,1-1.08.64,3.9,3.9,0,0,1-.78-0.09,3.9,3.9,0,0,1,.12.87,0.66,0.66,0,0,1-.42.78H3.65V4.89H12V8.55ZM6.23,7H4.42V8H6.23V7Zm0,1.61H4.42v1.6H6.23V8.63Zm0-3.21H4.45v1H6.26v-1Zm2.24,0H7v1h1.5v-1ZM8.59,7H7V8H8.59V7Zm0,1.61H7v1.6H8.59V8.63Zm2.53-3.21H9.33v1h1.79v-1Zm0,1.61H9.33v1h1.74V7Z"/>
  <rect class="cls-1" width="16" height="16"/>
</svg>
