<svg id="レイヤー_1" data-name="レイヤー 1" xmlns="http://www.w3.org/2000/svg" width="19" height="16" viewBox="0 0 19 16">
  <defs>
    <style>
      .cls-1 {
        fill: none;
      }
    </style>
  </defs>
  <title>icon_erase-cancel</title>
  <path d="M11.26,0.59L7,1.65,6.4,0.5,5,1l0.43,1.1L0.68,3.5l0.11,1,10.69-3ZM9.68,13.95a3.57,3.57,0,0,1-.37-1.27H8.92L8.83,14.25H7.35L7,6,7,6H9.3L9.14,8.79H9.65A2,2,0,0,1,10,7.85a0.65,0.65,0,0,1,.52-0.31v0L10.5,6h1.55V6.41A1.9,1.9,0,0,1,13.17,6l0-.58a0.55,0.55,0,0,0-.56-0.55H3.57A0.55,0.55,0,0,0,3,5.43l0.83,9.4a0.55,0.55,0,0,0,.56.55h6.51V15.1A2.47,2.47,0,0,1,9.68,13.95Zm-4.62.35L4.24,6H5.79L6.12,14.3H5.06Zm8.88-7.56a4.38,4.38,0,1,0,4.38,4.38A4.38,4.38,0,0,0,13.94,6.74Zm0,7.67a3.29,3.29,0,0,1-2.79-5l4.57,4.5A3.28,3.28,0,0,1,13.94,14.41Zm2.84-1.64L12.22,8.32A3.29,3.29,0,0,1,16.78,12.77Z"/>
  <rect class="cls-1" width="19" height="16"/>
</svg>
