<svg id="レイヤー_1" data-name="レイヤー 1" xmlns="http://www.w3.org/2000/svg" width="11" height="16" viewBox="0 0 11 16">
  <defs>
    <style>
      .cls-1 {
        fill: none;
      }
    </style>
  </defs>
  <title>icon_smartphone</title>
  <path d="M1.13,0.65A0.51,0.51,0,0,1,1.5.5h8A0.53,0.53,0,0,1,10,1V15a0.53,0.53,0,0,1-.54.54h-8a0.51,0.51,0,0,1-.37-0.15A0.52,0.52,0,0,1,1,15V1A0.52,0.52,0,0,1,1.13.65ZM9.24,1.42H1.76V12.14H9.24V1.42ZM6,13.31a0.76,0.76,0,0,0-.55-0.21,0.74,0.74,0,0,0-.53.21,0.7,0.7,0,0,0-.22.52,0.75,0.75,0,0,0,.22.55,0.73,0.73,0,0,0,.53.22,0.76,0.76,0,0,0,.77-0.77A0.69,0.69,0,0,0,6,13.31Z"/>
  <rect class="cls-1" width="11" height="16"/>
</svg>
