<svg id="レイヤー_1" data-name="レイヤー 1" xmlns="http://www.w3.org/2000/svg" width="36" height="16" viewBox="0 0 36 16">
  <defs>
    <style>
      .cls-1 {
        fill: none;
      }
    </style>
  </defs>
  <title>icon_p-off</title>
  <path d="M14.53,8a9.4,9.4,0,0,1-.47,3,6.71,6.71,0,0,1-1.37,2.37A6.1,6.1,0,0,1,10.5,15a7.55,7.55,0,0,1-3,.55,7.54,7.54,0,0,1-3-.55,6.1,6.1,0,0,1-2.2-1.54A6.71,6.71,0,0,1,1,11,9.38,9.38,0,0,1,.55,8,9.21,9.21,0,0,1,1,5,6.82,6.82,0,0,1,2.39,2.63a6.27,6.27,0,0,1,2.2-1.57,7.34,7.34,0,0,1,3-.56,7.3,7.3,0,0,1,2.94.56,6.26,6.26,0,0,1,2.2,1.57A6.91,6.91,0,0,1,14.06,5,9.07,9.07,0,0,1,14.53,8ZM12.33,8A7.59,7.59,0,0,0,12,5.85,5.62,5.62,0,0,0,11.14,4,4.36,4.36,0,0,0,9.64,2.79a4.5,4.5,0,0,0-2.1-.47,4.49,4.49,0,0,0-2.1.47A4.44,4.44,0,0,0,3.94,4a5.37,5.37,0,0,0-.89,1.81A7.8,7.8,0,0,0,2.76,8,8.19,8.19,0,0,0,3,10.11a5.41,5.41,0,0,0,.86,1.82,4.29,4.29,0,0,0,1.49,1.27,4.6,4.6,0,0,0,2.16.48,4.55,4.55,0,0,0,2.15-.48,4.32,4.32,0,0,0,1.48-1.27A5.52,5.52,0,0,0,12,10.11,8,8,0,0,0,12.33,8ZM25,2.58H19.4V6.84h5.38V8.65H19.4v6.58H17.34V0.76H25V2.58Zm10.41,0H29.8V6.84h5.4V8.65H29.8v6.58H27.73V0.76h7.71V2.58Z"/>
  <rect class="cls-1" width="36" height="16"/>
</svg>
