<svg id="レイヤー_1" data-name="レイヤー 1" xmlns="http://www.w3.org/2000/svg" width="23" height="16" viewBox="0 0 23 16">
  <defs>
    <style>
      .cls-1 {
        fill: #040000;
      }

      .cls-2 {
        fill: none;
      }
    </style>
  </defs>
  <g>
    <path class="cls-1" d="M13.54,9l2.19,6H14.42L14,13.59H11.72L11.26,15H10l2.2-6Zm-.71.91a.11.11,0,0,1,0,.05.22.22,0,0,1,0,.08s0,.05,0,.07a.35.35,0,0,1,0,.06L12,12.74h1.78l-.84-2.52Z" transform="translate(1)"/>
    <path class="cls-1" d="M20.17,10.37,18.59,15H17.3l-1.57-4.63h1.19l1,3.51,1-3.51Z" transform="translate(1)"/>
    <path class="cls-1" d="M3.9,11.12V8.45H5.07V15H3.9V12.08H2V15H.83V8.45H2v2.67Z" transform="translate(1)"/>
    <polygon class="cls-1" points="6.67 1.8 5.11 1.08 5.11 4.43 6.67 3.7 6.67 1.8"/>
    <polygon class="cls-1" points="8.92 5.76 7.81 7.66 8.49 8.03 9.77 5.76 8.92 5.76"/>
    <polygon class="cls-1" points="11.73 5.76 12.84 7.66 12.16 8.03 10.89 5.76 11.73 5.76"/>
    <rect class="cls-1" x="7.24" y="1" width="6.3" height="4.17" rx="0.65"/>
  </g>
  <rect class="cls-2" width="23" height="16"/>
</svg>
