<svg id="icon" xmlns="http://www.w3.org/2000/svg" width="28" height="16" viewBox="0 0 28 16">
  <g>
    <path d="M9.72,4.73v.08s0,.08,0,.13a.49.49,0,0,1,0,.12.22.22,0,0,1,0,.09L8.9,9.27h1.66L9.78,5.16Z"/>
    <path d="M26,0H2A2,2,0,0,0,0,2V14a2,2,0,0,0,2,2H26a2,2,0,0,0,2-2V2A2,2,0,0,0,26,0ZM3.05,13,1.19,3.24H2.4l1.15,7.21a1.72,1.72,0,0,1,.05.29c0,.12,0,.23,0,.33,0-.1,0-.21.05-.33s0-.21,0-.29L5.06,3.24H6.18L4.24,13Zm3.64,0H5.62V11.12H6.69Zm4.51,0-.42-2.3H8.69L8.27,13H7.05l2-9.71h1.29l2,9.71Zm4.08-1a1.93,1.93,0,0,1-.36.65,1.44,1.44,0,0,1-1.11.52,2,2,0,0,1-.74-.13,1.8,1.8,0,0,1-.59-.38l0-1.31a2.31,2.31,0,0,0,.36.31,1.54,1.54,0,0,0,.34.17,1.09,1.09,0,0,0,.3.07h.28a.54.54,0,0,0,.22,0,.48.48,0,0,0,.2-.15.71.71,0,0,0,.15-.26,1.07,1.07,0,0,0,.06-.39,1.25,1.25,0,0,0-.07-.45,1.27,1.27,0,0,0-.17-.35,1.93,1.93,0,0,0-.27-.3l-.34-.29a4.43,4.43,0,0,1-.39-.37,2.21,2.21,0,0,1-.36-.49,2.62,2.62,0,0,1-.27-.61,2.5,2.5,0,0,1-.1-.76,2.82,2.82,0,0,1,.11-.85,2.21,2.21,0,0,1,.33-.67,1.51,1.51,0,0,1,.49-.42A1.29,1.29,0,0,1,14,5.3a1.52,1.52,0,0,1,.44,0,1.6,1.6,0,0,1,.35.12,1.28,1.28,0,0,1,.26.16l.17.14,0,1.36a1.09,1.09,0,0,0-.24-.24,1.65,1.65,0,0,0-.59-.3,1.45,1.45,0,0,0-.28,0,1,1,0,0,0-.24,0,.41.41,0,0,0-.2.12.64.64,0,0,0-.14.23,1.35,1.35,0,0,0-.05.38,1.14,1.14,0,0,0,.06.39,1.23,1.23,0,0,0,.17.32,2.32,2.32,0,0,0,.26.3l.35.33a3.24,3.24,0,0,1,.38.37,2.23,2.23,0,0,1,.37.51,2.84,2.84,0,0,1,.27.66,2.69,2.69,0,0,1,.11.83A2.8,2.8,0,0,1,15.28,11.94Zm3.34,0a1.93,1.93,0,0,1-.36.65,1.48,1.48,0,0,1-.51.39,1.38,1.38,0,0,1-.6.13,1.92,1.92,0,0,1-.74-.13,1.84,1.84,0,0,1-.6-.38l0-1.31a1.66,1.66,0,0,0,.36.31,1.74,1.74,0,0,0,.33.17,1.25,1.25,0,0,0,.31.07h.28a.57.57,0,0,0,.22,0,.48.48,0,0,0,.2-.15.71.71,0,0,0,.15-.26,1.07,1.07,0,0,0,.06-.39,1.25,1.25,0,0,0-.07-.45,1.06,1.06,0,0,0-.18-.35,1.48,1.48,0,0,0-.26-.3l-.34-.29a4.43,4.43,0,0,1-.39-.37,2.62,2.62,0,0,1-.37-.49,3.11,3.11,0,0,1-.26-.61,2.49,2.49,0,0,1-.11-.76,2.82,2.82,0,0,1,.12-.85,2.21,2.21,0,0,1,.33-.67,1.41,1.41,0,0,1,.49-.42,1.28,1.28,0,0,1,.61-.15,1.88,1.88,0,0,1,.8.17,1.28,1.28,0,0,1,.26.16l.17.14,0,1.36a1.36,1.36,0,0,0-.24-.24A1.67,1.67,0,0,0,18,6.71a2,2,0,0,0-.31-.12,1.45,1.45,0,0,0-.28,0,1,1,0,0,0-.24,0,.41.41,0,0,0-.2.12.53.53,0,0,0-.14.23,1.35,1.35,0,0,0,0,.38,1.14,1.14,0,0,0,.06.39A1.23,1.23,0,0,0,17,8a2.32,2.32,0,0,0,.26.3l.35.33A3.24,3.24,0,0,1,18,9a2.58,2.58,0,0,1,.37.51,2.84,2.84,0,0,1,.27.66,2.69,2.69,0,0,1,.11.83A2.8,2.8,0,0,1,18.62,11.94Zm1.81,1H19.34V5.75h1.09Zm0-8.56H19.32V2.76h1.14Zm3.44,7.55a1.93,1.93,0,0,1-.36.65A1.58,1.58,0,0,1,23,13a1.38,1.38,0,0,1-.6.13,1.88,1.88,0,0,1-.74-.13,1.74,1.74,0,0,1-.6-.38l0-1.31a1.66,1.66,0,0,0,.36.31,1.3,1.3,0,0,0,.33.17,1.25,1.25,0,0,0,.31.07h.28a.57.57,0,0,0,.22,0,.55.55,0,0,0,.2-.15A.71.71,0,0,0,23,11.4,1.37,1.37,0,0,0,23,11a1.53,1.53,0,0,0-.06-.45,1.06,1.06,0,0,0-.18-.35,1.27,1.27,0,0,0-.27-.3l-.33-.29c-.13-.11-.26-.23-.4-.37a3.1,3.1,0,0,1-.36-.49,2.61,2.61,0,0,1-.26-.61,2.49,2.49,0,0,1-.11-.76,2.82,2.82,0,0,1,.12-.85,2.45,2.45,0,0,1,.32-.67A1.51,1.51,0,0,1,22,5.45a1.32,1.32,0,0,1,.62-.15,1.52,1.52,0,0,1,.44,0,1.69,1.69,0,0,1,.36.12,1.64,1.64,0,0,1,.26.16,1.22,1.22,0,0,1,.16.14l0,1.36a1,1,0,0,0-.23-.24,1.75,1.75,0,0,0-.29-.18,1.88,1.88,0,0,0-.3-.12,1.57,1.57,0,0,0-.28,0,.88.88,0,0,0-.24,0,.37.37,0,0,0-.2.12.53.53,0,0,0-.14.23,1.06,1.06,0,0,0-.05.38,1.14,1.14,0,0,0,.06.39,1,1,0,0,0,.17.32,2.32,2.32,0,0,0,.26.3l.35.33a3.24,3.24,0,0,1,.38.37,3.05,3.05,0,0,1,.37.51,2.84,2.84,0,0,1,.27.66A3,3,0,0,1,24,11,3.09,3.09,0,0,1,23.9,11.94Zm2.91-5.26h-1v4.23a2,2,0,0,0,.08.67.26.26,0,0,0,.24.2l.27,0a.81.81,0,0,0,.37-.19v1.26a1.56,1.56,0,0,1-.83.24,1,1,0,0,1-.92-.44,2.49,2.49,0,0,1-.29-1.34V6.68H24V5.45h.7V3.74l1.08-.57V5.45h1Z"/>
  </g>
</svg>
