<?xml version="1.0" encoding="utf-8"?>
<!-- Generator: Adobe Illustrator 21.1.0, SVG Export Plug-In . SVG Version: 6.00 Build 0)  -->
<svg version="1.1" id="レイヤー_1" xmlns="http://www.w3.org/2000/svg" xmlns:xlink="http://www.w3.org/1999/xlink" x="0px"
	 y="0px" width="23.8px" height="16px" viewBox="0 0 23.8 16" style="enable-background:new 0 0 23.8 16;" xml:space="preserve">
<style type="text/css">
	.st0{fill:none;}
</style>
<title>icon_summertime</title>
<rect class="st0" width="23.8" height="16"/>
<g>
	<polygon points="12.6,6.9 5.6,3.7 5.6,10.1 	"/>
	<path d="M23.5,14.7l-3.1-3.1c0.5-0.7,0.7-1.5,0.7-2.3c0-2.3-1.8-4.1-4.1-4.1C14.8,5.2,13,7,13,9.3c0,2.3,1.8,4.1,4.1,4.1
		c0.9,0,1.7-0.3,2.4-0.8l3,3L23.5,14.7z M13.9,9.3c0-1.7,1.4-3.2,3.2-3.2c1.7,0,3.2,1.4,3.2,3.2s-1.4,3.2-3.2,3.2
		C15.3,12.4,13.9,11,13.9,9.3z"/>
	<path d="M13.2,12.4H1.5v-11H16v2.9c0.3-0.1,0.6-0.1,0.9-0.1V0.5H0.6v12.9h13.6C13.8,13.1,13.5,12.8,13.2,12.4z"/>
</g>
</svg>
