<svg id="レイヤー_1" data-name="レイヤー 1" xmlns="http://www.w3.org/2000/svg" width="23" height="16" viewBox="0 0 23 16">
  <defs>
    <style>
      .cls-1 {
        fill: none;
      }
    </style>
  </defs>
  <title>icon_clean-now</title>
  <path d="M4.82,13.3a8.79,8.79,0,0,0-1.06.14,1.13,1.13,0,0,0-.59.3,1.16,1.16,0,0,0-.27.63q-0.07.41-.12,1.14-0.06-.73-0.12-1.14a1.19,1.19,0,0,0-.27-0.63,1.1,1.1,0,0,0-.59-0.3A9.12,9.12,0,0,0,.72,13.3a10.51,10.51,0,0,0,1.07-.13,1.06,1.06,0,0,0,.59-0.29,1.19,1.19,0,0,0,.27-0.63q0.07-.41.12-1.14,0.06,0.73.12,1.14a1.16,1.16,0,0,0,.27.63,1.09,1.09,0,0,0,.59.29A10.11,10.11,0,0,0,4.82,13.3Zm5.85-8.91q-1.35,0-2.29.08a8,8,0,0,0-1.56.27,2.52,2.52,0,0,0-1,.51A2.08,2.08,0,0,0,5.3,6,4.19,4.19,0,0,0,5,7.17Q5,7.83,4.94,8.68a16.09,16.09,0,0,0-.21-2.11,3.38,3.38,0,0,0-.49-1.32,1.73,1.73,0,0,0-.9-0.68,4.68,4.68,0,0,0-1.43-.18,6.83,6.83,0,0,0,1.43-.12,1.57,1.57,0,0,0,.9-0.53,2.62,2.62,0,0,0,.49-1.18A14.31,14.31,0,0,0,4.94.5Q5,1.35,5,2A3.73,3.73,0,0,0,5.32,3a1.71,1.71,0,0,0,.56.7,2.75,2.75,0,0,0,1,.41,9.21,9.21,0,0,0,1.55.19Q9.35,4.38,10.67,4.39ZM22.28,9.76a9.46,9.46,0,0,0-1.43.09,1.82,1.82,0,0,0-.9.37,1.6,1.6,0,0,0-.49.81,6.88,6.88,0,0,0-.21,1.42,8.7,8.7,0,0,0-.1-1,2.2,2.2,0,0,0-.23-0.71,1.35,1.35,0,0,0-.48-0.49A2.82,2.82,0,0,0,17.62,10v4.68H6.24v-8H17.62V9.45a2.47,2.47,0,0,0,.85-0.37,1.52,1.52,0,0,0,.48-0.56,2.47,2.47,0,0,0,.23-0.77c0-.29.07-0.63,0.09-1a8,8,0,0,0,.21,1.48,2,2,0,0,0,.49.92,1.83,1.83,0,0,0,.9.47A6.49,6.49,0,0,0,22.28,9.76Zm-5.92,3.64V9.82c-0.37,0-.78,0-1.25-0.05H13.52l1.59,0q0.7,0,1.25-.09V7.9H7.49v5.5h8.87Z"/>
  <rect class="cls-1" width="23" height="16"/>
</svg>
