<?xml version="1.0" encoding="utf-8"?>
<!-- Generator: Adobe Illustrator 23.0.6, SVG Export Plug-In . SVG Version: 6.00 Build 0)  -->
<svg version="1.1" id="レイヤー_1" xmlns="http://www.w3.org/2000/svg" xmlns:xlink="http://www.w3.org/1999/xlink" x="0px"
	 y="0px" width="19.7px" height="17.4px" viewBox="0 0 19.7 17.4" style="enable-background:new 0 0 19.7 17.4;"
	 xml:space="preserve">
<title>icon_warning_bk</title>
<g>
	<g>
		<path d="M10.6,11.7c0,0.8-0.3,1.6-0.8,2.2l-0.4-0.4C9.8,13,10,12.4,10,11.7c0-0.5-0.1-1-0.4-1.4c-0.3-0.5-0.5-1-0.5-1.6
			c0-0.8,0.3-1.6,0.8-2.2l0.4,0.4C10,7.3,9.7,8,9.7,8.7c0,0.5,0.1,0.9,0.3,1.3C10.4,10.5,10.6,11.1,10.6,11.7L10.6,11.7z"/>
		<path d="M12.4,11.7c0,0.8-0.3,1.6-0.8,2.2l-0.4-0.4c0.4-0.5,0.7-1.1,0.7-1.8c0-0.5-0.1-1-0.4-1.4c-0.3-0.5-0.5-1-0.5-1.6
			c0-0.8,0.3-1.6,0.8-2.2l0.4,0.4c-0.4,0.5-0.7,1.1-0.7,1.8c0,0.5,0.1,0.9,0.3,1.3C12.2,10.5,12.4,11.1,12.4,11.7L12.4,11.7z"/>
		<path d="M8.8,11.7c0,0.8-0.3,1.6-0.8,2.2l-0.4-0.4C8,13,8.2,12.4,8.2,11.7c0-0.5-0.1-1-0.4-1.4c-0.3-0.5-0.5-1-0.5-1.6
			c0-0.8,0.3-1.6,0.8-2.2l0.4,0.4C8.2,7.3,7.9,8,7.9,8.7C7.9,9.1,8,9.6,8.3,10C8.6,10.5,8.8,11.1,8.8,11.7L8.8,11.7z"/>
		<polygon points="5.9,14.6 14,14.6 14,15.3 5.9,15.3 5.9,14.6 		"/>
	</g>
	<path d="M19.6,15.8L10.8,0.5C10.6,0.2,10.3,0,9.9,0C9.5,0,9.1,0.2,8.9,0.5L0.1,15.8C0.1,15.9,0,16.1,0,16.3c0,0.6,0.5,1.1,1.1,1.1
		l0.6,0h16.4l0.6,0c0.6,0,1.1-0.5,1.1-1.1C19.7,16.1,19.7,15.9,19.6,15.8z M1.3,16.2L9.9,1.3l8.6,14.9H1.3z"/>
</g>
</svg>
