<svg id="レイヤー_1" data-name="レイヤー 1" xmlns="http://www.w3.org/2000/svg" width="19" height="16" viewBox="0 0 19 16">
  <defs>
    <style>
      .cls-1 {
        fill: none;
      }
    </style>
  </defs>
  <title>icon_metering-spot</title>
  <rect class="cls-1" width="19" height="16"/>
  <path d="M8.38,15.5H2a1.4,1.4,0,0,1-1-.43A1.45,1.45,0,0,1,.57,14V2A1.45,1.45,0,0,1,1,.93,1.4,1.4,0,0,1,2,.5H8.38V1.38H2a0.6,0.6,0,0,0-.6.6V14a0.6,0.6,0,0,0,.6.6H8.38V15.5ZM11.92,8a2.34,2.34,0,0,1-.19.94,2.46,2.46,0,0,1-.52.77,2.41,2.41,0,0,1-.76.51,2.38,2.38,0,0,1-.93.18,2.44,2.44,0,0,1-.94-0.18,2.38,2.38,0,0,1-.77-0.51A2.33,2.33,0,0,1,7.3,8.95,2.43,2.43,0,0,1,7.11,8a2.36,2.36,0,0,1,.69-1.69A2.45,2.45,0,0,1,8.57,5.8a2.35,2.35,0,0,1,.94-0.19,2.29,2.29,0,0,1,.93.19,2.47,2.47,0,0,1,1.28,1.28A2.29,2.29,0,0,1,11.92,8Zm6.51,6A1.44,1.44,0,0,1,18,15.07a1.41,1.41,0,0,1-1,.43H10.62V14.61H17a0.6,0.6,0,0,0,.6-0.6V2a0.6,0.6,0,0,0-.6-0.6H10.62V0.5H17a1.4,1.4,0,0,1,1,.43A1.44,1.44,0,0,1,18.43,2V14Z"/>
</svg>
