<svg id="レイヤー_1" data-name="レイヤー 1" xmlns="http://www.w3.org/2000/svg" width="19" height="16" viewBox="0 0 19 16">
  <defs>
    <style>
      .cls-1 {
        fill: none;
      }
    </style>
  </defs>
  <title>icon_wb-t-light</title>
  <path d="M1,6.55H4.8v0.9H1V6.55ZM1.9,3.13l0.45-.78,3.3,1.91L5.21,5Zm0,7.75L5.21,9,5.66,9.73l-3.3,1.91Zm3,3.26,1.91-3.29L7.53,11.3,5.63,14.58ZM13.12,5.8a3.67,3.67,0,0,1,.18,1.4A4,4,0,0,1,13,8.61a3.57,3.57,0,0,1-.83,1.17,3.88,3.88,0,0,1-1.21.76,4,4,0,0,1-2.82,0,3.88,3.88,0,0,1-1.21-.76A3.56,3.56,0,0,1,6,8.61,4,4,0,0,1,5.7,7.2a3.67,3.67,0,0,1,.18-1.4,3.74,3.74,0,0,1,.7-1.25A3.79,3.79,0,0,1,7.7,3.64a0.27,0.27,0,0,0,.16-0.16,0.32,0.32,0,0,0,.06-0.23V0.63a9.3,9.3,0,0,1,3.15,0V3.25a0.32,0.32,0,0,0,.06.23,0.44,0.44,0,0,0,.16.16,3.79,3.79,0,0,1,1.12.91A3.74,3.74,0,0,1,13.12,5.8ZM9,11.7H10v3.8H9V11.7Zm2.42-.4,0.78-.45,1.89,3.29-0.76.45Zm1.89-7,3.29-1.91L17.1,3.13,13.81,5Zm0,5.48L13.81,9l3.29,1.91-0.45.76Zm0.86-3.18H18v0.9h-3.8V6.55Z"/>
  <rect class="cls-1" width="19" height="16"/>
</svg>
