<?xml version="1.0" encoding="utf-8"?>
<!-- Generator: Adobe Illustrator 21.1.0, SVG Export Plug-In . SVG Version: 6.00 Build 0)  -->
<svg version="1.1" id="レイヤー_1" xmlns="http://www.w3.org/2000/svg" xmlns:xlink="http://www.w3.org/1999/xlink" x="0px"
	 y="0px" width="19.8px" height="16px" viewBox="0 0 19.8 16" style="enable-background:new 0 0 19.8 16;" xml:space="preserve">
<style type="text/css">
	.st0{fill:none;}
</style>
<title>icon_summertime</title>
<rect y="0" class="st0" width="19.8" height="16"/>
<g>
	<path d="M5.2,13.2c-1.9,0-3.1-1.3-3.1-1.3l-1,0.9c0.1,0.1,1.6,1.8,4.1,1.8c2.7,0,4.2-1.7,4.3-1.8l-1-0.9
		C8.5,11.9,7.4,13.2,5.2,13.2z"/>
	<polygon points="6.7,9.7 5.3,9.7 5.3,5.9 4,5.9 4,11 6.7,11 	"/>
	<circle cx="2.1" cy="5" r="1.3"/>
	<circle cx="9" cy="5" r="1.3"/>
	<path d="M19,4.2c0,0,1.1-1.3-0.3-2.7c-1.3-1.3-2.6-0.7-2.6-0.7l-2.4,2.1l3.2,3.2L19,4.2z"/>
	<rect x="11.1" y="2.9" width="2.3" height="1.3"/>
	<rect x="12.7" y="5.4" transform="matrix(0.714 -0.7001 0.7001 0.714 -0.2667 11.4259)" width="2.3" height="1.3"/>
	<rect x="15.6" y="6.8" width="1.1" height="1.5"/>
	<path d="M11.6,9c-1.1,0-1.7,1.5-1.7,3.4c0,1.9,0.6,3.4,1.7,3.4c1.1,0,1.7-1.5,1.7-3.4C13.4,10.4,12.7,9,11.6,9z M11.6,14.5
		c-0.7,0-1-1.1-1-2.2c0-1.1,0.3-2.2,1-2.2c0.7,0,1,1.1,1,2.2C12.6,13.4,12.3,14.5,11.6,14.5z"/>
	<polygon points="13.9,15.6 14.7,15.6 14.7,12.9 16.2,12.9 16.2,11.8 14.7,11.8 14.7,10.3 16.4,10.3 16.4,9.1 13.9,9.1 	"/>
	<polygon points="16.9,15.6 17.6,15.6 17.6,12.9 19.1,12.9 19.1,11.8 17.6,11.8 17.6,10.3 19.4,10.3 19.4,9.1 16.9,9.1 	"/>
</g>
</svg>
