<svg id="レイヤー_1" data-name="レイヤー 1" xmlns="http://www.w3.org/2000/svg" width="31" height="16" viewBox="0 0 31 16">
  <defs>
    <style>
      .cls-1 {
        fill: none;
      }
    </style>
  </defs>
  <title>icon_fps-29_97</title>
  <rect class="cls-1" width="31" height="16"/>
  <path d="M30.22,14.19a1.31,1.31,0,0,1-1.31,1.31H2.07a1.23,1.23,0,0,1-.91-0.38,1.27,1.27,0,0,1-.38-0.92V1.79A1.24,1.24,0,0,1,1.15.88,1.24,1.24,0,0,1,2.07.5H28.92a1.27,1.27,0,0,1,.92.38,1.23,1.23,0,0,1,.38.91v12.4ZM6,13.33V12.22H2.89a18.77,18.77,0,0,0,1.19-1.71A15.5,15.5,0,0,0,5,8.75a11.91,11.91,0,0,0,.62-1.68A5.51,5.51,0,0,0,5.86,5.6a3.38,3.38,0,0,0-.14-1,2.76,2.76,0,0,0-.4-0.82,1.93,1.93,0,0,0-.63-0.56A1.68,1.68,0,0,0,3.86,3,3,3,0,0,0,3,3.16a4.37,4.37,0,0,0-1,.47L2.1,4.92a3.18,3.18,0,0,1,.77-0.57,1.68,1.68,0,0,1,.77-0.21,0.94,0.94,0,0,1,.88.51,2.39,2.39,0,0,1,.29,1.19,6.23,6.23,0,0,1-.75,2.59,31.6,31.6,0,0,1-2.27,3.79v1.13H6Zm5.46-5.51a14.43,14.43,0,0,0-.13-2,5.77,5.77,0,0,0-.4-1.51,2.45,2.45,0,0,0-.72-1A1.72,1.72,0,0,0,9.12,3a2,2,0,0,0-1.65.85,4.08,4.08,0,0,0-.66,2.53,5.3,5.3,0,0,0,.13,1.19,3.54,3.54,0,0,0,.4,1A2.28,2.28,0,0,0,8,9.32a1.51,1.51,0,0,0,.89.27,1.49,1.49,0,0,0,1-.33,1.92,1.92,0,0,0,.61-0.92h0A9.26,9.26,0,0,1,10.36,10,4.81,4.81,0,0,1,10,11.27a2.29,2.29,0,0,1-.64.82,1.42,1.42,0,0,1-.89.3A1.9,1.9,0,0,1,7.22,12l-0.05,1.2a2.92,2.92,0,0,0,1.32.29Q11.45,13.44,11.45,7.82Zm-1.09-1.5a4,4,0,0,1-.08.81,3,3,0,0,1-.23.71,1.47,1.47,0,0,1-.39.51,0.91,0.91,0,0,1-1.13,0,1.48,1.48,0,0,1-.39-0.51,3,3,0,0,1-.23-0.71,4,4,0,0,1-.08-0.81,4.21,4.21,0,0,1,.08-0.83,3,3,0,0,1,.23-0.72,1.48,1.48,0,0,1,.39-0.51,0.91,0.91,0,0,1,1.13,0,1.48,1.48,0,0,1,.39.51,3,3,0,0,1,.23.72A4.21,4.21,0,0,1,10.35,6.32Zm3,7V11.71H12.23v1.63h1.11Zm5.42-5.51a14.43,14.43,0,0,0-.13-2,5.54,5.54,0,0,0-.41-1.51,2.51,2.51,0,0,0-.73-1A1.71,1.71,0,0,0,16.42,3a2,2,0,0,0-1.63.85,4.08,4.08,0,0,0-.66,2.53,5.3,5.3,0,0,0,.13,1.19,3.54,3.54,0,0,0,.4,1,2.28,2.28,0,0,0,.65.72,1.57,1.57,0,0,0,1.84-.06,1.9,1.9,0,0,0,.62-0.92h0A9.41,9.41,0,0,1,17.67,10a4.92,4.92,0,0,1-.39,1.27,2.29,2.29,0,0,1-.65.82,1.42,1.42,0,0,1-.89.3A2,2,0,0,1,14.52,12l0,1.2a2,2,0,0,0,.61.22,3.71,3.71,0,0,0,.72.07Q18.77,13.44,18.77,7.82Zm-1.11-1.5a4,4,0,0,1-.08.81,3,3,0,0,1-.23.71,1.48,1.48,0,0,1-.39.51,0.86,0.86,0,0,1-.56.2,0.83,0.83,0,0,1-.55-0.2,1.54,1.54,0,0,1-.38-0.51,3,3,0,0,1-.23-0.71,4.09,4.09,0,0,1-.08-0.81,4.32,4.32,0,0,1,.08-0.83,3,3,0,0,1,.23-0.72,1.55,1.55,0,0,1,.38-0.51,0.83,0.83,0,0,1,.55-0.2,0.86,0.86,0,0,1,.56.2,1.48,1.48,0,0,1,.39.51,3,3,0,0,1,.23.72A4.21,4.21,0,0,1,17.66,6.32Zm5.92-2V3.11H19.37V4.22h3.24L20,13.33h1.11ZM28.92,6a4.12,4.12,0,0,0-.16-1.21,2.63,2.63,0,0,0-.46-0.9,2.38,2.38,0,0,0-.73-0.58,2.21,2.21,0,0,0-1-.21H24.64V13.33h1V9.06h0.68a2.42,2.42,0,0,0,1.93-.76A3.39,3.39,0,0,0,28.92,6Zm-1.06.13a2.26,2.26,0,0,1-.38,1.37A1.5,1.5,0,0,1,26.19,8H25.64V4.17h0.57a1.61,1.61,0,0,1,1.22.45A2.16,2.16,0,0,1,27.86,6.14Z"/>
</svg>
