<svg xmlns="http://www.w3.org/2000/svg" width="24" height="16" viewBox="0 0 24 16">
  <defs>
    <style>
      .cls-1 {
        fill: none;
      }
    </style>
  </defs>
  <g id="base">
    <rect class="cls-1" width="24" height="16"/>
  </g>
  <g id="icon">
    <g>
      <path d="M21.76,6.59H23V15H21.58V8.2L20.3,9.27l-.48-1.18Z"/>
      <path d="M1,12.11H11V11.05l-10-6ZM2.19,7.16,8.5,10.93H2.19Z"/>
      <path d="M16.05,4.16a7.46,7.46,0,0,0-.45-2.51,9.78,9.78,0,0,0-7,0,7.23,7.23,0,0,0-.45,2.51,7.14,7.14,0,0,0,.45,2.51,9.58,9.58,0,0,0,3.5.66,9.59,9.59,0,0,0,3.51-.66A7.38,7.38,0,0,0,16.05,4.16Z"/>
      <polygon points="18.15 8.08 13.18 11.05 13.18 12.11 18.15 12.11 18.15 10.93 15.69 10.93 18.15 9.46 18.15 8.08"/>
    </g>
  </g>
</svg>
