<svg id="レイヤー_1" data-name="レイヤー 1" xmlns="http://www.w3.org/2000/svg" width="37" height="16" viewBox="0 0 37 16">
  <defs>
    <style>
      .cls-1 {
        fill: #e6e6e6;
      }

      .cls-2 {
        fill: #b3b3b3;
      }

      .cls-3 {
        fill: gray;
      }

      .cls-4 {
        fill: #4d4d4d;
      }

      .cls-5 {
        fill: #404040;
      }

      .cls-6 {
        fill: #fff;
      }

      .cls-7 {
        fill: #262626;
      }

      .cls-8 {
        fill: none;
      }
    </style>
  </defs>
  <title>icon_raw-chromatic-aberration</title>
  <g>
    <polygon points="31.28 6.08 27.26 6.08 27.26 15.5 28.35 15.5 28.35 11.16 31.01 11.16 31.01 10.05 28.35 10.05 28.35 7.23 31.28 7.23 31.28 6.08"/>
    <polygon points="36.5 6.08 32.48 6.08 32.48 15.5 33.57 15.5 33.57 11.16 36.23 11.16 36.23 10.05 33.57 10.05 33.57 7.23 36.5 7.23 36.5 6.08"/>
    <path d="M24.49,13.3a1.33,1.33,0,0,1-1.15,1h0a1.31,1.31,0,0,1-1.13-1,6.47,6.47,0,0,1-.43-2.54,6.65,6.65,0,0,1,.4-2.51,1.35,1.35,0,0,1,1.17-1.05,1.35,1.35,0,0,1,1.15,1.05,6.53,6.53,0,0,1,.4,2.48A6.81,6.81,0,0,1,24.49,13.3Zm0.84-5.88a2.19,2.19,0,0,0-2-1.36,2.23,2.23,0,0,0-2,1.35,7,7,0,0,0-.75,3.42,7,7,0,0,0,.69,3.3,2.19,2.19,0,0,0,1.94,1.34h0a2.24,2.24,0,0,0,2-1.28A7,7,0,0,0,26,10.68,6.89,6.89,0,0,0,25.33,7.42Z"/>
    <polygon class="cls-1" points="13.49 0.5 13.02 0.5 0.5 13.04 0.5 13.51 13.49 0.5"/>
    <polygon class="cls-2" points="13.49 0.5 0.5 13.51 0.5 13.99 13.96 0.5 13.49 0.5"/>
    <polygon class="cls-3" points="0.64 14.32 14.44 0.5 13.96 0.5 0.5 13.99 0.5 14.32 0.64 14.32"/>
    <polygon class="cls-4" points="1.12 14.32 14.91 0.5 14.44 0.5 0.64 14.32 1.12 14.32"/>
    <polygon class="cls-5" points="1.59 14.32 15.38 0.5 14.91 0.5 1.11 14.32 1.59 14.32"/>
    <polygon points="18.1 0.5 4.31 14.32 4.78 14.32 18.58 0.5 18.1 0.5"/>
    <polygon points="3.84 14.32 4.31 14.32 18.1 0.5 17.63 0.5 3.84 14.32"/>
    <polygon points="17.16 0.5 3.36 14.32 3.84 14.32 17.63 0.5 17.16 0.5"/>
    <polygon points="3.36 14.32 17.16 0.5 16.68 0.5 2.89 14.32 3.36 14.32"/>
    <polygon points="2.89 14.32 16.68 0.5 14.91 0.5 1.12 14.32 2.89 14.32"/>
    <polygon class="cls-6" points="3.48 0.5 3.1 0.5 0.5 3.11 0.5 3.49 3.48 0.5"/>
    <polygon class="cls-1" points="3.48 0.5 0.5 3.49 0.5 3.88 3.85 0.5 3.48 0.5"/>
    <polygon class="cls-2" points="4.23 0.5 3.85 0.5 0.5 3.88 0.5 4.26 4.23 0.5"/>
    <polygon class="cls-3" points="0.5 4.64 4.61 0.5 4.23 0.5 0.5 4.26 0.5 4.64"/>
    <polygon class="cls-4" points="0.5 5.02 4.99 0.5 4.61 0.5 0.5 4.64 0.5 5.02"/>
    <polygon points="8.27 0.5 0.5 8.32 0.5 8.7 8.65 0.5 8.27 0.5"/>
    <polygon points="0.5 7.94 0.5 8.32 8.27 0.5 7.89 0.5 0.5 7.94"/>
    <polygon points="7.52 0.5 0.5 7.56 0.5 7.94 7.89 0.5 7.52 0.5"/>
    <polygon points="0.5 7.56 7.52 0.5 7.14 0.5 0.5 7.18 0.5 7.56"/>
    <polygon points="0.5 7.18 7.14 0.5 6.76 0.5 0.5 6.79 0.5 7.18"/>
    <polygon points="0.5 6.79 6.76 0.5 4.99 0.5 0.5 5.02 0.5 6.79"/>
    <polygon class="cls-6" points="18.98 4.83 18.98 4.46 9.12 14.32 9.5 14.32 18.98 4.83"/>
    <polygon class="cls-1" points="9.88 14.32 18.98 5.21 18.98 4.83 9.5 14.32 9.88 14.32"/>
    <polygon class="cls-2" points="10.25 14.32 18.98 5.59 18.98 5.21 9.88 14.32 10.25 14.32"/>
    <polygon class="cls-3" points="10.63 14.32 18.98 5.97 18.98 5.59 10.25 14.32 10.63 14.32"/>
    <polygon class="cls-4" points="11.01 14.32 18.98 6.35 18.98 5.97 10.63 14.32 11.01 14.32"/>
    <polygon points="14.4 14.32 14.78 14.32 18.98 10.09 18.98 9.71 14.4 14.32"/>
    <polygon points="14.4 14.32 18.98 9.71 18.98 9.33 14.03 14.32 14.4 14.32"/>
    <polygon points="14.03 14.32 18.98 9.33 18.98 8.95 13.65 14.32 14.03 14.32"/>
    <polygon points="13.65 14.32 18.98 8.95 18.98 8.57 13.27 14.32 13.65 14.32"/>
    <polygon points="13.27 14.32 18.98 8.57 18.98 8.2 12.89 14.32 13.27 14.32"/>
    <g>
      <polygon points="12.89 14.32 18.98 8.2 18.98 6.73 11.39 14.32 12.89 14.32"/>
      <polygon class="cls-7" points="11.01 14.32 11.39 14.32 18.98 6.73 18.98 6.35 11.01 14.32"/>
    </g>
  </g>
  <rect class="cls-8" width="37" height="16"/>
</svg>
