<?xml version="1.0" encoding="UTF-8"?>
<svg id="edge" xmlns="http://www.w3.org/2000/svg" width="18" height="16" version="1.1" viewBox="0 0 18 16">
  <!-- Generator: Adobe Illustrator 29.5.1, SVG Export Plug-In . SVG Version: 2.1.0 Build 141)  -->
  <defs>
    <style>
      .st0 {
        fill: #fff;
        stroke: #fff;
        stroke-linecap: round;
        stroke-linejoin: round;
      }
    </style>
  </defs>
  <path class="st0" d="M16.58,1.91h1.17v7.96h-1.33V3.43l-1.22,1.02-.46-1.12,1.84-1.42Z"/>
  <path class="st0" d="M6.42,8.79c.73,0,1.35.43,1.65,1.04h3.45c.59,0,1.07-.48,1.07-1.07V2.95c0-.59-.48-1.07-1.07-1.07h-2.37l-.84-1.46c-.12-.23-.36-.38-.63-.38h-2.58c-.07,0-.14.02-.21.04-.19.05-.35.18-.45.36l-.82,1.44H1.31C.73,1.88.24,2.36.24,2.95v5.82c0,.59.48,1.07,1.07,1.07h3.46c.3-.62.92-1.04,1.65-1.04ZM3.72,5.61c0-1.49,1.21-2.7,2.7-2.7s2.7,1.21,2.7,2.7-1.21,2.7-2.7,2.7-2.7-1.21-2.7-2.7Z"/>
  <path class="st0" d="M16.03,14.25v-1.53c0-.25-.21-.46-.46-.46H6.88v-.82c.27-.16.46-.45.46-.79,0-.51-.41-.92-.92-.92s-.92.41-.92.92c0,.34.19.63.46.79v2.82c-.27.16-.46.45-.46.79,0,.51.41.92.92.92s.92-.41.92-.92c0-.34-.19-.63-.46-.79v-1.07h3.65v1.07c-.27.16-.46.45-.46.79,0,.51.41.92.92.92s.92-.41.92-.92c0-.34-.19-.63-.46-.79v-1.07h3.65v1.07c-.27.16-.46.45-.46.79,0,.51.41.92.92.92s.92-.41.92-.92c0-.34-.19-.63-.46-.79Z"/>
  <path d="M16.58,1.91h1.17v7.96h-1.33V3.43l-1.22,1.02-.46-1.12,1.84-1.42Z"/>
  <path d="M6.42,8.79c.73,0,1.35.43,1.65,1.04h3.45c.59,0,1.07-.48,1.07-1.07V2.95c0-.59-.48-1.07-1.07-1.07h-2.37l-.84-1.46c-.12-.23-.36-.38-.63-.38h-2.58c-.07,0-.14.02-.21.04-.19.05-.35.18-.45.36l-.82,1.44H1.31C.73,1.88.24,2.36.24,2.95v5.82c0,.59.48,1.07,1.07,1.07h3.46c.3-.62.92-1.04,1.65-1.04ZM3.72,5.61c0-1.49,1.21-2.7,2.7-2.7s2.7,1.21,2.7,2.7-1.21,2.7-2.7,2.7-2.7-1.21-2.7-2.7Z"/>
  <path d="M16.03,14.25v-1.53c0-.25-.21-.46-.46-.46H6.88v-.82c.27-.16.46-.45.46-.79,0-.51-.41-.92-.92-.92s-.92.41-.92.92c0,.34.19.63.46.79v2.82c-.27.16-.46.45-.46.79,0,.51.41.92.92.92s.92-.41.92-.92c0-.34-.19-.63-.46-.79v-1.07h3.65v1.07c-.27.16-.46.45-.46.79,0,.51.41.92.92.92s.92-.41.92-.92c0-.34-.19-.63-.46-.79v-1.07h3.65v1.07c-.27.16-.46.45-.46.79,0,.51.41.92.92.92s.92-.41.92-.92c0-.34-.19-.63-.46-.79Z"/>
</svg>