<?xml version="1.0" encoding="utf-8"?>
<!-- Generator: Adobe Illustrator 23.0.3, SVG Export Plug-In . SVG Version: 6.00 Build 0)  -->
<svg version="1.1" id="レイヤー_1" xmlns="http://www.w3.org/2000/svg" xmlns:xlink="http://www.w3.org/1999/xlink" x="0px"
	 y="0px" width="19px" height="16px" viewBox="0 0 19 16" style="enable-background:new 0 0 19 16;" xml:space="preserve">
<style type="text/css">
	.st0{fill:none;}
</style>
<title>icon_oneshot-ai-servo</title>
<rect class="st0" width="19" height="16"/>
<g>
	<g>
		<path d="M13.1,0.6v6.7h4.1V6.2c0,0-2.2,0-3,0c0-0.9,0-5.6,0-5.6H13.1z"/>
	</g>
	<path d="M12.3,1.7V0.6H8.8H8.3v6.7h4V6.2c0,0-2.1,0-2.9,0c0-0.3,0-1.1,0-1.9H12V3.2H9.4c0-0.6,0-1.2,0-1.5
		C10.2,1.7,12.3,1.7,12.3,1.7z"/>
	<g>
		<path d="M12.7,8.7v6.7h4.1v-1.1c0,0-2.2,0-3,0c0-0.9,0-5.6,0-5.6H12.7z"/>
	</g>
	<path d="M12,9.9V8.8H8.5H7.9v6.7h4v-1.1c0,0-2.1,0-2.9,0c0-0.3,0-1.1,0-1.9h2.6v-1.1H9c0-0.6,0-1.2,0-1.5C9.8,9.9,12,9.9,12,9.9z"
		/>
	<path d="M6.7,9.9V8.8H3.3H2.7v6.7h1.1c0,0,0-1.5,0-3h2.6v-1.1H3.8c0-0.7,0-1.2,0-1.5C4.6,9.9,6.7,9.9,6.7,9.9z"/>
	<path d="M6.5,7.3h1.2L5.6,0.6H5.2H4.3H4L1.8,7.3H3l0.5-1.5H6L6.5,7.3z M3.9,4.7L4.8,2l0.9,2.7H3.9z"/>
</g>
</svg>
