<svg id="レイヤー_1" data-name="レイヤー 1" xmlns="http://www.w3.org/2000/svg" width="16" height="16" viewBox="0 0 16 16">
  <defs>
    <style>
      .cls-1 {
        fill: none;
      }
    </style>
  </defs>
  <title>icon_type-of-file_1</title>
  <g>
    <path d="M8.39,1.68V1.91l0,0h1.81a0.62,0.62,0,0,1,.31.06,0.69,0.69,0,0,1,.24.16,0.71,0.71,0,0,1,.18.26,0.69,0.69,0,0,1,.06.31v4a0.68,0.68,0,0,1-.06.31,1,1,0,0,1-.18.26,1,1,0,0,1-.24.16,0.7,0.7,0,0,1-.31.06H2.84a0.69,0.69,0,0,1-.31-0.06,0.94,0.94,0,0,1-.24-0.16,1,1,0,0,1-.18-0.26A0.68,0.68,0,0,1,2,6.76v-4a0.69,0.69,0,0,1,.06-0.31,0.71,0.71,0,0,1,.18-0.26A0.69,0.69,0,0,1,2.53,2a0.62,0.62,0,0,1,.31-0.06H4.65l0,0V1.68a0.86,0.86,0,0,1,.13-0.42A2.28,2.28,0,0,1,5.13.87l0.18-.15L5.52,0.6A0.77,0.77,0,0,1,5.85.5H7.21a0.55,0.55,0,0,1,.31.11,1.8,1.8,0,0,1,.4.28,2,2,0,0,1,.32.37A0.79,0.79,0,0,1,8.39,1.68ZM6.51,6.42a1.82,1.82,0,0,0,.73-0.15l0.33-.17a0.75,0.75,0,0,0,.25-0.23,0.75,0.75,0,0,0,.23-0.25,3.54,3.54,0,0,0,.17-0.33,1.78,1.78,0,0,0,.15-0.71,1.82,1.82,0,0,0-.15-0.73Q8.14,3.67,8.05,3.52a0.76,0.76,0,0,0-.23-0.25A0.76,0.76,0,0,0,7.57,3L7.24,2.86a1.82,1.82,0,0,0-.73-0.14,1.78,1.78,0,0,0-.71.14,1.9,1.9,0,0,0-.6.4,1.84,1.84,0,0,0-.39.58,1.82,1.82,0,0,0-.15.73,1.78,1.78,0,0,0,.15.71,1.84,1.84,0,0,0,.39.58,1.9,1.9,0,0,0,.6.4A1.78,1.78,0,0,0,6.51,6.42Zm-0.62,2L7.58,9.1v2.17l-1.69.85V8.38Zm9.57,0.83V11.8a1.25,1.25,0,0,1-.08.33,0.69,0.69,0,0,1-.17.27,0.79,0.79,0,0,1-.27.17,0.69,0.69,0,0,1-.33.06H9.15a0.69,0.69,0,0,1-.33-0.06l-0.14-.08-0.13-.09a1,1,0,0,1-.19-0.27A0.75,0.75,0,0,1,8.3,11.8V9.21a0.68,0.68,0,0,1,.06-0.33,0.78,0.78,0,0,1,.17-0.27l0.14-.1,0.14-.07a0.68,0.68,0,0,1,.33-0.06h5.46a0.68,0.68,0,0,1,.33.06,1.34,1.34,0,0,1,.27.17,0.69,0.69,0,0,1,.17.27A1.25,1.25,0,0,1,15.46,9.21Zm-4.28,4,0,0h-1L8.95,15,9.65,15.5Zm1.36,0,0,0h1L14.77,15l-0.69.46Z"/>
    <polygon points="2.89 15.5 1.84 15.5 1.84 10.28 1.06 10.92 0.54 10.07 1.97 8.8 2.89 8.8 2.89 15.5"/>
  </g>
  <rect class="cls-1" width="16" height="16"/>
</svg>
