<?xml version="1.0" encoding="utf-8"?>
<!-- Generator: Adobe Illustrator 21.1.0, SVG Export Plug-In . SVG Version: 6.00 Build 0)  -->
<svg version="1.1" id="レイヤー_1" xmlns="http://www.w3.org/2000/svg" xmlns:xlink="http://www.w3.org/1999/xlink" x="0px"
	 y="0px" width="16.4px" height="16px" viewBox="0 0 16.4 16" style="enable-background:new 0 0 16.4 16;" xml:space="preserve">
<style type="text/css">
	.st0{fill:none;}
</style>
<title>icon_btn-m-fn</title>
<rect class="st0" width="16.4" height="16"/>
<g>
	<path d="M15.8,8c0-4.2-3.4-7.6-7.6-7.6S0.6,3.8,0.6,8s3.4,7.6,7.6,7.6S15.8,12.2,15.8,8z M8.2,2.8c0.8,0,1.5,0.7,1.5,1.5
		C9.6,5,9,5.7,8.2,5.7C7.4,5.7,6.7,5,6.7,4.2C6.7,3.4,7.4,2.8,8.2,2.8z M10.6,13.5H5.7v-0.9l1-0.3V8.2l-1-0.6L9.6,7v5.3l1,0.4V13.5z
		"/>
</g>
</svg>
