<svg id="icon" xmlns="http://www.w3.org/2000/svg" width="29" height="16" viewBox="0 0 29 16">
  <defs>
    <style>
      .cls-1 {
        fill: none;
      }
    </style>
  </defs>
  <g>
    <path d="M.38.5v15H28.62V.5ZM27.51,14.4h-26V1.6h26Z"/>
    <g>
      <path d="M3.09,12.91V3.11H4.68v9.8Z"/>
      <path d="M9.28,5.19a2.5,2.5,0,0,1,.88.14,1.62,1.62,0,0,1,.68.45,2.35,2.35,0,0,1,.44.8,4.1,4.1,0,0,1,.15,1.19v5.14H9.92V8.32A3.41,3.41,0,0,0,9.74,7a.66.66,0,0,0-.66-.42,1.18,1.18,0,0,0-.5.11,1,1,0,0,0-.37.33A1.52,1.52,0,0,0,8,7.62a3.34,3.34,0,0,0-.09.83v4.46H6.38V5.3H7.85v.81a4,4,0,0,1,.27-.34,1.83,1.83,0,0,1,.32-.3,1.79,1.79,0,0,1,.39-.2A1.12,1.12,0,0,1,9.28,5.19Z"/>
      <path d="M14.68,6.58v4.27a1.58,1.58,0,0,0,.1.68.38.38,0,0,0,.35.19l.37,0a1.37,1.37,0,0,0,.52-.2v1.28a3.53,3.53,0,0,1-.52.17,3.48,3.48,0,0,1-.64.07,1.65,1.65,0,0,1-1.28-.45,1.87,1.87,0,0,1-.41-1.34V6.58h-1V5.34h1V3.62L14.68,3v2.3h1.4V6.58Z"/>
      <path d="M19.79,5.19a1.22,1.22,0,0,1,.37,0,1,1,0,0,1,.23.1V6.92A2.82,2.82,0,0,0,20,6.78a.92.92,0,0,0-.28,0,1,1,0,0,0-.41.09,1.08,1.08,0,0,0-.39.33,1.65,1.65,0,0,0-.29.61,3.33,3.33,0,0,0-.12,1v4.18H17V5.3h1.47v1c.07-.12.15-.24.24-.37A2.8,2.8,0,0,1,19,5.58a1.31,1.31,0,0,1,.35-.28A.69.69,0,0,1,19.79,5.19Z"/>
      <path d="M23.4,5.19a3.65,3.65,0,0,1,1.16.16,1.92,1.92,0,0,1,.8.52,2.28,2.28,0,0,1,.46.92A5.49,5.49,0,0,1,26,8.17v4.74H24.5v-.76a2.54,2.54,0,0,1-.75.68,1.74,1.74,0,0,1-.84.24,2.39,2.39,0,0,1-.86-.16,1.92,1.92,0,0,1-.7-.45,2.17,2.17,0,0,1-.46-.73,2.7,2.7,0,0,1-.17-1A2.47,2.47,0,0,1,21,9.57a2.23,2.23,0,0,1,.69-.8,3,3,0,0,1,1-.45A6,6,0,0,1,24,8.18h.44v0a4.62,4.62,0,0,0-.06-.81,1.5,1.5,0,0,0-.16-.54.72.72,0,0,0-.3-.3,1.06,1.06,0,0,0-.47-.09,2.24,2.24,0,0,0-.55.07,3.86,3.86,0,0,0-.58.17,3.11,3.11,0,0,0-.52.25,2.91,2.91,0,0,0-.41.3l-.16-1.32a3.88,3.88,0,0,1,.34-.2,3.7,3.7,0,0,1,.52-.22,3.75,3.75,0,0,1,.62-.19A3.08,3.08,0,0,1,23.4,5.19Zm.58,4a3.54,3.54,0,0,0-.75.07,1.63,1.63,0,0,0-.57.24,1.23,1.23,0,0,0-.37.47,1.77,1.77,0,0,0-.13.73,1.6,1.6,0,0,0,.08.53.89.89,0,0,0,.2.36.79.79,0,0,0,.31.2,1.16,1.16,0,0,0,.37.07,1.18,1.18,0,0,0,.53-.12,1.13,1.13,0,0,0,.42-.34,1.84,1.84,0,0,0,.28-.58,2.8,2.8,0,0,0,.1-.81V9.16Z"/>
    </g>
  </g>
  <rect class="cls-1" width="29" height="16"/>
</svg>
