<svg xmlns="http://www.w3.org/2000/svg" width="41" height="16" viewBox="0 0 41 16">
  <g id="icon">
    <g>
      <path d="M15.93,5.49a1,1,0,0,0-.93.68,4.87,4.87,0,0,0-.31,2,4.79,4.79,0,0,0,.31,2,1,1,0,0,0,.93.65,1.07,1.07,0,0,0,1-.64,4.58,4.58,0,0,0,.34-2,4.6,4.6,0,0,0-.34-2A1.08,1.08,0,0,0,15.93,5.49Z"/>
      <path d="M39,0H2A2,2,0,0,0,0,2V14a2,2,0,0,0,2,2H39a2,2,0,0,0,2-2V2A2,2,0,0,0,39,0ZM6.36,12.58h-5V1.48H6.28V3H3.05V6.12H5.93V7.65H3.05v3.4H6.36Zm4.51,0-1.23-3-1.41,3H6.57L8.76,8.16,6.71,4H8.5L9.64,6.76,10.85,4h1.7L10.47,8.16l2.22,4.42Zm7.88-2.74a3.69,3.69,0,0,1-.57,1.25,2.4,2.4,0,0,1-.88.78,2.35,2.35,0,0,1-1.12.27,1.27,1.27,0,0,1-.47-.09,1.62,1.62,0,0,1-.41-.22,2.43,2.43,0,0,1-.34-.3,3.65,3.65,0,0,1-.27-.3v3.94H13.07V4.27h1.57v.8a3.17,3.17,0,0,1,.3-.34,2.34,2.34,0,0,1,.35-.29,1.65,1.65,0,0,1,.42-.21,1.5,1.5,0,0,1,.47-.08,2.3,2.3,0,0,1,1.14.29,2.56,2.56,0,0,1,.88.8,3.85,3.85,0,0,1,.56,1.26A6.43,6.43,0,0,1,19,8.15,6.25,6.25,0,0,1,18.75,9.84Zm2.15,2.74H19.31V10.49H20.9ZM26.46,11a2.92,2.92,0,0,1-.56.93,2.73,2.73,0,0,1-.9.62,3,3,0,0,1-1.19.22,5.29,5.29,0,0,1-.92-.07,5.55,5.55,0,0,1-.74-.16,3.69,3.69,0,0,1-.52-.19,1.13,1.13,0,0,1-.25-.14l.13-1.69a.9.9,0,0,0,.28.21,4.11,4.11,0,0,0,.51.22,5.79,5.79,0,0,0,.63.18,3.91,3.91,0,0,0,.67.07,1.6,1.6,0,0,0,.53-.09,1,1,0,0,0,.43-.25,1.31,1.31,0,0,0,.29-.42,1.57,1.57,0,0,0,.1-.6,1.93,1.93,0,0,0-.34-1.1,4.47,4.47,0,0,0-1.05-1A8.14,8.14,0,0,1,22.62,7a5.2,5.2,0,0,1-.7-.81,3.48,3.48,0,0,1-.43-.89,3,3,0,0,1-.16-1A3.34,3.34,0,0,1,21.54,3a2.72,2.72,0,0,1,.58-.93,2.74,2.74,0,0,1,.89-.6,2.89,2.89,0,0,1,1.11-.21,5.57,5.57,0,0,1,.85.06,6.43,6.43,0,0,1,.65.12,3.16,3.16,0,0,1,.44.15,1,1,0,0,1,.23.13l-.1,1.68a4,4,0,0,0-.37-.25A2.54,2.54,0,0,0,25.41,3a3.26,3.26,0,0,0-.49-.1,6.18,6.18,0,0,0-.65,0A1.5,1.5,0,0,0,23.8,3a1,1,0,0,0-.4.23,1.22,1.22,0,0,0-.27.43,1.81,1.81,0,0,0-.1.61,1.59,1.59,0,0,0,.11.59,1.8,1.8,0,0,0,.3.49,3.33,3.33,0,0,0,.46.46l.59.48c.3.24.59.48.85.71a3.85,3.85,0,0,1,.69.77,3.67,3.67,0,0,1,.46.93,3.83,3.83,0,0,1,.16,1.18A3.34,3.34,0,0,1,26.46,11Zm3.08,1.59h-1.7V1.48h1.7Zm10.55,0H38.55v-8l-2.28,8H35l-2.28-8v8H31.13V1.48h2.16L35.6,9.92l2.33-8.44h2.16Z"/>
    </g>
  </g>
</svg>
