<svg id="レイヤー_1" data-name="レイヤー 1" xmlns="http://www.w3.org/2000/svg" width="16" height="16" viewBox="0 0 16 16">
  <defs>
    <style>
      .cls-1 {
        fill: none;
      }
    </style>
  </defs>
  <title>icon_flash-no-exp</title>
  <path d="M15.49,12.71a2.61,2.61,0,0,1-.83,2,2.69,2.69,0,0,1-2,.82H3.32a2.71,2.71,0,0,1-2-.82,2.61,2.61,0,0,1-.83-2V3.31a2.78,2.78,0,0,1,.83-2,2.73,2.73,0,0,1,2-.83h9.34a2.71,2.71,0,0,1,2,.83,2.8,2.8,0,0,1,.83,2v9.38Zm-4-2.76H9.66l1.16-3.63H7.15L8.5,1.92H6.18L4.5,7.42H8.24L7.45,9.95H5.62l1.74,4.16Z"/>
  <rect class="cls-1" width="16" height="16"/>
</svg>
