<svg id="レイヤー_1" data-name="レイヤー 1" xmlns="http://www.w3.org/2000/svg" width="21" height="16" viewBox="0 0 21 16">
  <defs>
    <style>
      .cls-1 {
        fill: none;
      }
    </style>
  </defs>
  <title>icon_mov</title>
  <path d="M4,2V6.57L0.45,8.34V0.5ZM20.55,2.27V7.71a1.65,1.65,0,0,1-.14.67,1.82,1.82,0,0,1-.94.94,1.68,1.68,0,0,1-.69.14H7.3a1.68,1.68,0,0,1-.69-0.14,1.82,1.82,0,0,1-.94-0.94,1.62,1.62,0,0,1-.14-0.67V2.27a1.8,1.8,0,0,1,.13-0.69A1.7,1.7,0,0,1,6,1,1.85,1.85,0,0,1,6.6.64,1.76,1.76,0,0,1,7.3.5H18.78a1.7,1.7,0,0,1,.69.14,1.82,1.82,0,0,1,.94.94A1.7,1.7,0,0,1,20.55,2.27Zm-9,8.36h-2l-2.6,3.93L8.35,15.5l3.21-4.84Zm3,0h2l2.59,3.93-1.47.94-3.21-4.84Z"/>
  <rect class="cls-1" width="21" height="16"/>
</svg>
