<svg id="レイヤー_1" data-name="レイヤー 1" xmlns="http://www.w3.org/2000/svg" width="13" height="16" viewBox="0 0 13 16">
  <defs>
    <style>
      .cls-1 {
        fill: none;
      }

      .cls-2 {
        fill: #231815;
      }
    </style>
  </defs>
  <rect class="cls-1" width="13" height="16"/>
  <g>
    <path class="cls-2" d="M.67,1.48V14.64a.85.85,0,0,0,.84.85h9.93a.84.84,0,0,0,.84-.85h0V1.48a1,1,0,0,0-1-1h-.55V2h-2V.54H7.39V2H5.48V.54H4.19V2H2.29V.54H1.63A1,1,0,0,0,.67,1.48ZM10.79,3.62V13.94H2.22V3.62Z" transform="translate(-0.01 0.01)"/>
    <polygon class="cls-2" points="4.07 6.62 4.9 7.62 6.33 6.57 6.33 12.48 8.01 12.48 8.01 4.82 6.52 4.82 4.07 6.62"/>
  </g>
</svg>
