<svg id="icon" xmlns="http://www.w3.org/2000/svg" width="25" height="16" viewBox="0 0 25 16">
  <defs>
    <style>
      .cls-1 {
        fill: #231815;
      }

      .cls-2 {
        fill: none;
      }
    </style>
  </defs>
  <g>
    <g>
      <path class="cls-1" d="M9,9h3.57v1H10.24v1.61h2.22v1H10.24V15.4H9Z"/>
      <path class="cls-1" d="M13.18,9.75V8.62h1.21V9.75Zm0,5.65V10.46h1.17V15.4Z"/>
      <path class="cls-1" d="M17.92,10.31a1.76,1.76,0,0,1,.75.15,1.51,1.51,0,0,1,.53.44,2.05,2.05,0,0,1,.32.7,3.83,3.83,0,0,1,.11.93V15.4H18.45V12.58a2.86,2.86,0,0,0,0-.53,1.41,1.41,0,0,0-.13-.41.82.82,0,0,0-.25-.27.74.74,0,0,0-.38-.09,1,1,0,0,0-.47.11,1,1,0,0,0-.35.3,1.31,1.31,0,0,0-.22.46,2.14,2.14,0,0,0-.08.58V15.4H15.36v-5h1.08v.75a1.63,1.63,0,0,1,.59-.63A1.75,1.75,0,0,1,17.92,10.31Z"/>
      <path class="cls-1" d="M22.43,10.31a2.25,2.25,0,0,1,1,.2,1.65,1.65,0,0,1,.67.55,2.42,2.42,0,0,1,.38.88,5.17,5.17,0,0,1,.12,1.16v.2H21.43a2,2,0,0,0,.13.6,1.19,1.19,0,0,0,.28.4,1,1,0,0,0,.39.24,1.51,1.51,0,0,0,.48.07,2.32,2.32,0,0,0,.46,0,2.47,2.47,0,0,0,.41-.09l.34-.13.27-.15,0,1a3.2,3.2,0,0,1-.63.24,3.42,3.42,0,0,1-.91.1,2.8,2.8,0,0,1-1-.18,2,2,0,0,1-.77-.52A2.16,2.16,0,0,1,20.4,14a3.31,3.31,0,0,1-.16-1.08,3.75,3.75,0,0,1,.14-1,2.2,2.2,0,0,1,.42-.82,2,2,0,0,1,.68-.56A2.18,2.18,0,0,1,22.43,10.31Zm0,.86a.79.79,0,0,0-.45.12.92.92,0,0,0-.31.31,1.23,1.23,0,0,0-.19.42,2.46,2.46,0,0,0-.09.44h2c0-.14,0-.28-.07-.43a1.67,1.67,0,0,0-.16-.41,1,1,0,0,0-.29-.32A.7.7,0,0,0,22.46,11.17Z"/>
    </g>
    <path class="cls-1" d="M23.72,1.41a2.84,2.84,0,0,1,.65,1.1,5.35,5.35,0,0,1,.21,1.58,5.26,5.26,0,0,1-.21,1.56,3.11,3.11,0,0,1-.26.6,3,3,0,0,1-.39.54,4.28,4.28,0,0,1-.46.42,2.27,2.27,0,0,1-.48.27,2.39,2.39,0,0,1-.54.15,4,4,0,0,1-.63,0H20.09V.5h1.52a3.17,3.17,0,0,1,1.14.22A2.9,2.9,0,0,1,23.72,1.41ZM21.2,6.69h.41a1.75,1.75,0,0,0,.87-.2A1.55,1.55,0,0,0,23,5.94a2.49,2.49,0,0,0,.3-.82,6.63,6.63,0,0,0,.08-1A5.06,5.06,0,0,0,23.32,3,2.36,2.36,0,0,0,23,2.21a1.58,1.58,0,0,0-.56-.53,1.8,1.8,0,0,0-.84-.19H21.2Z"/>
    <rect class="cls-1" x="16.34" y="3.47" width="2.11" height="0.91"/>
    <path class="cls-1" d="M17.15.5,14.5,3.86l2.9,3.87H15.86L13.67,4.62V7.73H12.38V.5h1.29V3.13l2-2.63Z"/>
    <path class="cls-1" d="M10.94,2.42a3.13,3.13,0,0,1-.11.79,4.34,4.34,0,0,1-.3.8c-.13.26-.28.52-.44.78a8.11,8.11,0,0,1-.54.73A7.3,7.3,0,0,1,9,6.18c-.2.2-.38.38-.57.55H11v1H7v-1l.56-.61.6-.69c.2-.24.4-.49.58-.74A8.14,8.14,0,0,0,9.22,4a4.62,4.62,0,0,0,.34-.72,1.83,1.83,0,0,0,.13-.65,1.29,1.29,0,0,0-.21-.8.76.76,0,0,0-.65-.27,1.89,1.89,0,0,0-.38.05A3.38,3.38,0,0,0,8,1.71l-.41.19a2.37,2.37,0,0,0-.33.21L7.12,1A2.56,2.56,0,0,1,7.49.8,2.52,2.52,0,0,1,7.93.64a4,4,0,0,1,.5-.1A3.27,3.27,0,0,1,9,.5a2.77,2.77,0,0,1,.78.11,1.5,1.5,0,0,1,.62.34,1.51,1.51,0,0,1,.42.59A2.35,2.35,0,0,1,10.94,2.42Z"/>
    <path class="cls-1" d="M6.3.92H.42v10.2H8.18v-1H3.33V2H6.42L6.3,1.11A.61.61,0,0,1,6.3.92ZM2.71,10.08H1V8.21H2.71ZM2.71,7H1V5.08H2.71Zm0-3.13H1V2H2.71Z"/>
  </g>
  <rect class="cls-2" width="25" height="16"/>
</svg>
