<svg id="レイヤー_1" data-name="レイヤー 1" xmlns="http://www.w3.org/2000/svg" width="21" height="16" viewBox="0 0 21 16">
  <defs>
    <style>
      .cls-1 {
        fill: none;
      }
    </style>
  </defs>
  <title>icon_ratingmark5</title>
  <rect class="cls-1" width="21" height="16"/>
  <path d="M4.08,15.5H0.84V0.5H4.08V1.56H1.9V14.44H4.08V15.5ZM9.19,3.15L7.6,4.28,8.19,6.21,6.44,5.14,4.71,6.21,5.3,4.28,3.71,3.14l2,0L6.46,1.26,7.19,3.1Zm0,8.53L7.6,12.82l0.61,1.92L6.46,13.69,4.71,14.74,5.3,12.82,3.71,11.69l2,0L6.44,9.79l0.75,1.86Zm4.06-4.26L11.66,8.54l0.59,1.93L10.5,9.41,8.75,10.47,9.34,8.54,7.76,7.41l2,0,0.75-1.84,0.72,1.84Zm4-4.29L15.7,4.28l0.59,1.93L14.56,5.14,12.81,6.21,13.4,4.28,11.81,3.15l2-.05,0.73-1.84L15.27,3.1Zm0,8.55L15.7,12.82l0.59,1.92-1.75-1.06-1.75,1.06,0.61-1.92-1.59-1.13,2,0,0.75-1.86,0.72,1.86Zm2.86,3.81H16.92V14.44H19.1V1.56H16.92V0.5h3.24v15Z"/>
</svg>
