<svg id="レイヤー_1" data-name="レイヤー 1" xmlns="http://www.w3.org/2000/svg" width="24" height="16" viewBox="0 0 24 16">
  <defs>
    <style>
      .cls-1 {
        fill: none;
      }
    </style>
  </defs>
  <title>icon_raw-noise-reduction</title>
  <path d="M19.87,9V15.5H17.21V9h2.66Zm3.39-3.43v10H20.6v-10h2.66Zm-1.78.73v8.52H22.4V6.27H21.48Zm-4.81,6.2v3H14v-3h2.66ZM5.84,11.06L2.38,3.53v7.53H0.74V0.5H2.6L6,7.84V0.5H7.59V11.06H5.84Zm7.93,0-1-3.19a2.52,2.52,0,0,0-.43-0.92,1,1,0,0,0-.75-0.26H11v4.37H9.25V0.5h1.88a7.24,7.24,0,0,1,2.72.38A2.25,2.25,0,0,1,15.2,3.15a3.2,3.2,0,0,1-.5,1.75,1.9,1.9,0,0,1-1.29.87v0A1.43,1.43,0,0,1,14.34,7l1.37,4.1H13.77ZM11.55,2H11V5h0.56Q13.4,5,13.4,3.42a1.31,1.31,0,0,0-.6-1.24A2.73,2.73,0,0,0,11.55,2Z"/>
  <rect class="cls-1" width="24" height="16"/>
</svg>
