<svg xmlns="http://www.w3.org/2000/svg" width="18" height="16" viewBox="0 0 18 16">
  <defs>
    <style>
      .cls-1 {
        fill: none;
      }
    </style>
  </defs>
  <g id="frame">
    <rect class="cls-1" width="18" height="16"/>
  </g>
  <g id="icon">
    <path d="M16,0a1.92,1.92,0,0,1,.79.16,1.81,1.81,0,0,1,.63.43,1.93,1.93,0,0,1,.42.63A2,2,0,0,1,18,2V14a2,2,0,0,1-.16.77,1.93,1.93,0,0,1-.42.63,1.81,1.81,0,0,1-.63.43A1.92,1.92,0,0,1,16,16H2a1.88,1.88,0,0,1-.78-.16,1.81,1.81,0,0,1-.63-.43,2,2,0,0,1-.43-.63A2,2,0,0,1,0,14V2a2,2,0,0,1,.16-.77A2,2,0,0,1,.59.59,1.81,1.81,0,0,1,1.22.16,1.88,1.88,0,0,1,2,0Zm1.14,3.4a1.47,1.47,0,0,0-.45-1.08,1.5,1.5,0,0,0-1.08-.44H2.41a1.5,1.5,0,0,0-1.08.44A1.47,1.47,0,0,0,.88,3.4v9.2a1.47,1.47,0,0,0,.45,1.08,1.5,1.5,0,0,0,1.08.44h13.2a1.5,1.5,0,0,0,1.08-.44,1.47,1.47,0,0,0,.45-1.08Zm-1.53-.08s.06,0,.06.08v9.2c0,.05,0,.08-.06.08H2.41c-.06,0-.08,0-.08-.08V3.4s0-.08.08-.08ZM6.39,7.09H3.6V8.91H6.39Zm4-2.89H7.6V6h2.8Zm0,2.89H7.6V8.91h2.8Zm0,2.91H7.6v1.8h2.8Zm4-2.91H11.61V8.91H14.4Z"/>
  </g>
</svg>
