<svg xmlns="http://www.w3.org/2000/svg" width="24" height="16" viewBox="0 0 24 16">
  <defs>
    <style>
      .cls-1 {
        fill: none;
      }
    </style>
  </defs>
  <g id="base">
    <rect class="cls-1" width="24" height="16"/>
  </g>
  <g id="icon">
    <g>
      <circle cx="8.69" cy="5.79" r="3.31"/>
      <path d="M13.1,8.38A7,7,0,0,1,8.65,10c-3.83,0-6-3-6.65-4.2C2.69,4.61,4.82,1.6,8.65,1.6a7.52,7.52,0,0,1,5.67,2.75A2.51,2.51,0,0,1,15.48,4,8.77,8.77,0,0,0,8.65.5C3.19.5.75,5.79.75,5.79s2.44,5.3,7.9,5.3A8,8,0,0,0,13.1,9.74Z"/>
      <path d="M23.25,5.57l-2.65-2V4.91H15.53A1.54,1.54,0,0,0,14,6.46v4.63h1.32V6.46a.22.22,0,0,1,.22-.22H20.6V7.56Z"/>
      <path d="M14,13.51l2.64,2V14.18h5.08a1.55,1.55,0,0,0,1.54-1.55V8H21.93v4.63a.22.22,0,0,1-.22.22H16.63V11.53Z"/>
      <path d="M23.25,5.57l-2.65-2V4.91H15.53A1.54,1.54,0,0,0,14,6.46v4.63h1.32V6.46a.22.22,0,0,1,.22-.22H20.6V7.56Z"/>
      <path d="M14,13.51l2.64,2V14.18h5.08a1.55,1.55,0,0,0,1.54-1.55V8H21.93v4.63a.22.22,0,0,1-.22.22H16.63V11.53Z"/>
    </g>
  </g>
</svg>
