<svg id="icon" xmlns="http://www.w3.org/2000/svg" width="22" height="16" viewBox="0 0 22 16">
  <defs>
    <style>
      .cls-1 {
        fill: none;
      }
    </style>
  </defs>
  <path d="M8.25,8.25H4.75V4.75h3.5ZM9.5,3.5h-6v6h6v-6ZM19.75,8.15V6.66a3.25,3.25,0,0,0-6.5,0V8.15H11.5V15.5h10V8.15ZM17.12,12v2H15.87V12a1.21,1.21,0,0,1-.62-1.05,1.25,1.25,0,0,1,2.5,0A1.2,1.2,0,0,1,17.12,12Zm1.13-3.81h-3.5V6.66a1.75,1.75,0,0,1,3.5,0Zm-7.75,3.1H1.75V1.75h9.5V7.19a1,1,0,0,1,.25,0h.75V6.66a4.08,4.08,0,0,1,.25-1.4V.5H.5v12h10Z"/>
  <rect class="cls-1" width="22" height="16"/>
</svg>
