<svg id="レイヤー_1" data-name="レイヤー 1" xmlns="http://www.w3.org/2000/svg" width="37" height="16" viewBox="0 0 37 16">
  <defs>
    <style>
      .cls-1 {
        fill: none;
      }
    </style>
  </defs>
  <title>icon_raw-diffraction</title>
  <g>
    <polyline points="31.26 6.07 27.23 6.07 27.23 15.5 28.32 15.5 28.32 11.16 30.98 11.16 30.98 10.05 28.32 10.05 28.32 7.21 31.26 7.21 31.26 6.07"/>
    <polyline points="36.47 6.07 32.45 6.07 32.45 15.5 33.55 15.5 33.55 11.16 36.21 11.16 36.21 10.05 33.55 10.05 33.55 7.21 36.47 7.21 36.47 6.07"/>
    <path d="M24.46,13.29a1.31,1.31,0,0,1-1.15,1h0a1.32,1.32,0,0,1-1.12-1,6.58,6.58,0,0,1-.42-2.54,6.75,6.75,0,0,1,.39-2.52A1.36,1.36,0,0,1,23.31,7.2a1.33,1.33,0,0,1,1.15,1.05,6.35,6.35,0,0,1,.41,2.49,6.53,6.53,0,0,1-.41,2.56h0ZM25.3,7.42a2.18,2.18,0,0,0-2-1.36,2.21,2.21,0,0,0-2,1.35,6.9,6.9,0,0,0-.76,3.41,6.89,6.89,0,0,0,.69,3.3,2.19,2.19,0,0,0,1.94,1.35h0a2.27,2.27,0,0,0,2-1.29A7.06,7.06,0,0,0,26,10.67a6.74,6.74,0,0,0-.69-3.25"/>
    <path d="M8.2,13.61V9.56L4.57,13.19A6.61,6.61,0,0,0,8.2,13.61Z"/>
    <path d="M9.62,13.22a6.52,6.52,0,0,0,2.18-1.45,5.39,5.39,0,0,0,.53-0.61L9.62,9.54v3.68Z"/>
    <path d="M1,4.54A6.63,6.63,0,0,0,.61,8.17H4.67Z"/>
    <path d="M11.8,2.43A6.8,6.8,0,0,0,11,1.74L8.11,4.61H9.56L12.29,3A6.43,6.43,0,0,0,11.8,2.43Z"/>
    <path d="M1,9.6a6.46,6.46,0,0,0,1.45,2.18,6.57,6.57,0,0,0,.82.69L6.15,9.6H1Z"/>
    <path d="M6.06,0.59V4.64L9.69,1A6.61,6.61,0,0,0,6.06.59Z"/>
    <path d="M4.64,1A6.51,6.51,0,0,0,2.46,2.43a6.43,6.43,0,0,0-.69.82L4.64,6.12V1Z"/>
    <path d="M13.62,8.31a6.6,6.6,0,0,0,0-2.28h-0.4l-1.71,1Z"/>
    <path d="M16.95,11.43L9.66,7,17,2.65l0.71,1.14,1.64-3.2-3.6.06,0.62,1L8.19,6.53,7.34,7l9,5.4L15.66,13.5l3.59,0.05-1.65-3.2Z"/>
  </g>
  <rect class="cls-1" width="37" height="16"/>
</svg>
