<svg id="レイヤー_1" data-name="レイヤー 1" xmlns="http://www.w3.org/2000/svg" width="18" height="18" viewBox="0 0 18 18">
  <defs>
    <style>
      .cls-1 {
        fill: none;
      }
    </style>
  </defs>
  <title>icon_ps-sharpness-s</title>
  <rect class="cls-1" width="18" height="18"/>
  <path d="M17.3,7.3l-0.8-.2-0.1-.4c0-.1-0.1-0.3-0.1-0.4S16.2,6,16.1,5.8l-0.3-.6c-0.1-.2-0.2-0.3-0.3-0.5V6.8H14.7v-3l-0.6-.5a1.51,1.51,0,0,1-.4-0.4l-0.4-.3-0.6-.4V7.6L12,8.1V2c-0.5-.2-0.9-0.3-1.4-0.5a7.72,7.72,0,0,0-1.5-.2,2.77,2.77,0,0,0-.9.1,2.92,2.92,0,0,0-.9.2H7.7V2.5H6.8V1.8H6.5l-0.2.1V2.5H6.8V3.4H6.3V4.3H6.8V5.2H6.3V6.1H5.5V7H5.9V6.1H6.8V7H6.3V7.9H5.4V8.8H5.8V7.9H6.7V8.8H6.3V9.7H5.4v0.9H5.8v-1H6.7v0.9H6.3v0.9H6.8v0.9H6.3v0.9H6.8v0.9H6.3V15H5.4v0.6l0.2,0.1,0.2,0.1V15H6.7v0.9H6L6.4,16l0.4,0.1V15.8H7.7v0.5l0.7,0.1H9.1a5.7,5.7,0,0,0,1.3-.1l1.2-.3v0.9a7.46,7.46,0,0,1-2.6.4,7.84,7.84,0,0,1-3.3-.7,9,9,0,0,1-4.5-4.5A8.66,8.66,0,0,1,.6,8.9a7.84,7.84,0,0,1,.7-3.3A9,9,0,0,1,5.8,1.1,8.84,8.84,0,0,1,9.1.4,7.17,7.17,0,0,1,12,1a8.87,8.87,0,0,1,2.5,1.4,7.19,7.19,0,0,1,1.8,2.1A11.86,11.86,0,0,1,17.3,7.3ZM4,14.1H4.5V13.2H4V12.4H4.5V11.5H4V10.6H4.5v-1H4V8.8H4.5V7.9H4V7H4.5V6.1H4V5.2H4.5V4.3H4V3.4H4.5V2.9l-0.2.2L4,3.4V14.1H4ZM5.4,3.4H5.8V2.5H5.4V2.4l-0.1.1H5.5V3.4H5.4Zm0,1.8H5.8V4.3H5.4V5.2h0Zm0,7.1H5.8V11.5H5.4v0.8h0Zm0,1.7H5.8V13.2H5.4V14h0ZM7.7,3.4V4.3H6.8V3.4H7.7Zm0,1.8V6.1H6.8V5.2H7.7Zm0,1.7V7.8H6.8V7l0.9-.1h0Zm0,1.8V9.6H6.8V8.8l0.9-.1h0Zm0,1.8v0.9H6.8V10.5H7.7Zm0,1.8v0.9H6.8V12.3H7.7Zm0,1.8V15H6.8V14.1H7.7ZM8.6,2.5V3.4H7.7V2.5H8.6Zm0,1.8V5.2H7.7V4.3H8.6Zm0,1.8V7H7.7V6.1H8.6Zm0,1.8V8.8H7.7V7.9H8.6Zm0,1.8v0.9H7.7v-1L8.6,9.7h0Zm0,1.7v0.9H7.7V11.4H8.6Zm0,1.8v0.9H7.7V13.2H8.6Zm0,1.8v0.9H7.7V15H8.6Zm8.3-.5a3,3,0,0,1-.8,2.2,3.09,3.09,0,0,1-2.3.8L12.1,17l0.2-1.7,0.3,0.2,0.2,0.1,0.4,0.1a2.27,2.27,0,0,0,.4.1h1a0.52,0.52,0,0,0,.4-0.2,1.38,1.38,0,0,0,.3-0.4,1.27,1.27,0,0,0,.1-0.6,1.09,1.09,0,0,0-.4-0.9,3.33,3.33,0,0,0-1-.6l-0.7-.4a2.65,2.65,0,0,1-.6-0.5,2.18,2.18,0,0,1-.5-0.8,3.18,3.18,0,0,1-.2-1.3,2.88,2.88,0,0,1,.7-2,2.37,2.37,0,0,1,2-.7,2.77,2.77,0,0,1,.9.1,6.89,6.89,0,0,1,.8.3l0.2,0.1L16.4,9.6l-0.3-.1a4.88,4.88,0,0,1-.7-0.3,1.48,1.48,0,0,0-.7-0.1H14.3c-0.1,0-.3.1-0.4,0.1l-0.3.3a1.27,1.27,0,0,0-.1.6,0.78,0.78,0,0,0,.3.7l0.9,0.6,0.7,0.4a4.35,4.35,0,0,1,.7.6,2.18,2.18,0,0,1,.5.8,1.67,1.67,0,0,1,.3,1.3h0Z"/>
</svg>
