<svg xmlns="http://www.w3.org/2000/svg" width="27" height="16" viewBox="0 0 27 16">
  <defs>
    <style>
      .cls-1 {
        fill: none;
      }

      .cls-2 {
        fill: blue;
      }
    </style>
  </defs>
  <g id="frame">
    <rect class="cls-1" width="27" height="16"/>
  </g>
  <g id="_b">
    <path class="cls-2" d="M22.48,7.35A3.9,3.9,0,0,0,22.71,6,4,4,0,0,0,17,2.31a4.19,4.19,0,0,1,.08,1.18A3.26,3.26,0,0,1,16.56,5,5.53,5.53,0,0,0,16,2.87,5.1,5.1,0,0,0,6.32,4.62h0A5.69,5.69,0,0,0,6.32,16H22a4.34,4.34,0,0,0,.45-8.65Z"/>
  </g>
</svg>
