<?xml version="1.0" encoding="utf-8"?>
<!-- Generator: Adobe Illustrator 23.0.3, SVG Export Plug-In . SVG Version: 6.00 Build 0)  -->
<svg version="1.1" id="レイヤー_1" xmlns="http://www.w3.org/2000/svg" xmlns:xlink="http://www.w3.org/1999/xlink" x="0px"
	 y="0px" width="21.4px" height="16px" viewBox="0 0 21.4 16" style="enable-background:new 0 0 21.4 16;" xml:space="preserve">
<style type="text/css">
	.st0{fill:none;}
</style>
<title>icon_summertime</title>
<rect y="0" class="st0" width="21.4" height="16"/>
<g>
	<path d="M9.3,3.6v7.2c1.2,0,2.2-1.5,2.2-3.5V7C11.5,5.1,10.5,3.6,9.3,3.6z"/>
	<path d="M13.7,3.4h-0.2V7h0.2C14.4,7,15,6.2,15,5.3V5.1C15,4.2,14.4,3.4,13.7,3.4z"/>
	<path d="M19.5,0.4H0.3v13.4h19.2V0.4z M3.3,12.4H1.2v-2.1h2.1V12.4z M3.3,8.2H1.2V6.1h2.1V8.2z M3.3,4H1.2V1.9h2.1V4z M7.7,12.1
		H6.9V7.9H5.1v4.2H4.3V2.3h0.8v4.2h1.8V2.3h0.8C7.7,2.3,7.7,12.1,7.7,12.1z M12.3,7.3c0,2.6-1.3,4.8-3,4.8H9l0,0H8.5V2.3H9l0,0h0.3
		c1.7,0,3,2.1,3,4.8V7.3z M15.2,12.1L14.5,8c-0.2,0.1-0.5,0.2-0.8,0.2h-0.2v3.9h-0.8V2.3h0.4h0.4h0.2c1.1,0,2.1,1.3,2.1,2.9v0.2
		c0,0.8-0.2,1.4-0.6,2l0.8,4.8L15.2,12.1L15.2,12.1z M18.8,12.4h-2.1v-2.1h2.1V12.4z M18.8,8.2h-2.1V6.1h2.1V8.2z M18.8,4h-2.1V1.9
		h2.1V4z"/>
	<polygon points="20.4,2.4 20.4,14.9 2.5,14.9 2.5,15.7 21.2,15.7 21.2,2.4 	"/>
</g>
</svg>
