<svg id="レイヤー_1" data-name="レイヤー 1" xmlns="http://www.w3.org/2000/svg" width="16" height="16" viewBox="0 0 16 16">
  <defs>
    <style>
      .cls-1 {
        fill: #de8e25;
      }

      .cls-2 {
        fill: none;
      }
    </style>
  </defs>
  <title>icon_internal-links_hov</title>
  <g>
    <path class="cls-1" d="M13.55,5.75v5.92a1.86,1.86,0,0,1-1.87,1.87H4.25a1.86,1.86,0,0,1-1.87-1.87V4.32A1.86,1.86,0,0,1,4.25,2.45h5.92l1.87-1.87A1.08,1.08,0,0,0,11.68.5H4.25A3.78,3.78,0,0,0,.5,4.32v7.35A3.78,3.78,0,0,0,4.25,15.5H11.6a3.84,3.84,0,0,0,3.82-3.83h0V4.32a0.56,0.56,0,0,0-.08-0.37Z"/>
    <path class="cls-1" d="M15.2,0.8a1,1,0,0,0-1.35,0L6.5,8.15V5.6a1,1,0,0,0-2,0v4.8a1,1,0,0,0,1,1h4.8a1,1,0,0,0,0-2H7.93l7.35-7.35A0.94,0.94,0,0,0,15.2.8h0"/>
  </g>
  <rect class="cls-2" width="16" height="16"/>
</svg>
