<svg id="レイヤー_1" data-name="レイヤー 1" xmlns="http://www.w3.org/2000/svg" width="31" height="16" viewBox="0 0 31 16">
  <defs>
    <style>
      .cls-1 {
        fill: none;
      }
    </style>
  </defs>
  <title>icon_fps-23_98</title>
  <rect class="cls-1" width="31" height="16"/>
  <path d="M30.22,14.19a1.31,1.31,0,0,1-1.31,1.31H2.07a1.23,1.23,0,0,1-.91-0.38,1.27,1.27,0,0,1-.38-0.92V1.79A1.24,1.24,0,0,1,1.15.88,1.24,1.24,0,0,1,2.07.5H28.92a1.27,1.27,0,0,1,.92.38,1.23,1.23,0,0,1,.38.91v12.4ZM6.08,13.35V12.24H2.91a18.27,18.27,0,0,0,1.23-1.72,15.79,15.79,0,0,0,1-1.76,11,11,0,0,0,.63-1.67A5.59,5.59,0,0,0,6,5.6a3.41,3.41,0,0,0-.14-1A2.55,2.55,0,0,0,5.4,3.78a2.08,2.08,0,0,0-.64-0.55A1.76,1.76,0,0,0,3.89,3,3.16,3.16,0,0,0,3,3.18a4.66,4.66,0,0,0-1,.46L2.1,4.92a3,3,0,0,1,.79-0.57,1.79,1.79,0,0,1,.79-0.21,1,1,0,0,1,.9.51,2.38,2.38,0,0,1,.29,1.21,6.16,6.16,0,0,1-.77,2.58,31.07,31.07,0,0,1-2.33,3.79v1.13h4.3Zm5.14-2.85a3.32,3.32,0,0,0-.41-1.68A1.6,1.6,0,0,0,9.64,8V8a1.87,1.87,0,0,0,1.07-.75,2.76,2.76,0,0,0,.43-1.65A3.16,3.16,0,0,0,11,4.45a2.37,2.37,0,0,0-.48-0.8,1.86,1.86,0,0,0-.72-0.47A2.56,2.56,0,0,0,8.87,3a4.44,4.44,0,0,0-.94.1,3.08,3.08,0,0,0-.87.33l0.11,1.2a3,3,0,0,1,.76-0.42,2.1,2.1,0,0,1,.74-0.15,1.34,1.34,0,0,1,1,.46,1.74,1.74,0,0,1,.41,1.21,1.82,1.82,0,0,1-.47,1.31,1.9,1.9,0,0,1-1.44.5H7.78V8.61H8.55a1.49,1.49,0,0,1,1.17.47,1.83,1.83,0,0,1,.42,1.26,2.16,2.16,0,0,1-.5,1.5,1.54,1.54,0,0,1-1.18.55,2.76,2.76,0,0,1-1.56-.59L6.81,13.07a3.3,3.3,0,0,0,.81.29,4.26,4.26,0,0,0,.94.11,2.72,2.72,0,0,0,1.16-.23,2.32,2.32,0,0,0,.83-0.64,2.66,2.66,0,0,0,.49-0.94A4,4,0,0,0,11.21,10.51Zm2.17,2.85V11.71H12.27v1.65h1.11Zm5.46-5.53a13.4,13.4,0,0,0-.13-2,5.72,5.72,0,0,0-.42-1.51,2.37,2.37,0,0,0-.74-1A1.83,1.83,0,0,0,16.44,3a2,2,0,0,0-.93.22,2.15,2.15,0,0,0-.75.64,3.09,3.09,0,0,0-.5,1.06,5.47,5.47,0,0,0-.18,1.48,4.87,4.87,0,0,0,.14,1.18,3.72,3.72,0,0,0,.41,1,2.23,2.23,0,0,0,.66.72,1.65,1.65,0,0,0,1.9-.06,2,2,0,0,0,.64-0.92h0A8.78,8.78,0,0,1,17.71,10a5,5,0,0,1-.41,1.28,2.3,2.3,0,0,1-.66.83,1.46,1.46,0,0,1-.9.3A1.94,1.94,0,0,1,14.49,12l-0.05,1.2a2.79,2.79,0,0,0,.64.22,3.23,3.23,0,0,0,.72.08Q18.84,13.46,18.84,7.82Zm-1.15-1.5a4.12,4.12,0,0,1-.08.81,2.75,2.75,0,0,1-.24.72,1.57,1.57,0,0,1-.4.51,0.91,0.91,0,0,1-1.13,0,1.59,1.59,0,0,1-.4-0.51,2.77,2.77,0,0,1-.24-0.72,4.18,4.18,0,0,1,0-1.63,2.77,2.77,0,0,1,.24-0.72,1.59,1.59,0,0,1,.4-0.51,0.91,0.91,0,0,1,1.13,0,1.57,1.57,0,0,1,.4.51,2.75,2.75,0,0,1,.24.72A4.13,4.13,0,0,1,17.69,6.32Zm6.17,4.33A2.89,2.89,0,0,0,23.46,9a2.84,2.84,0,0,0-1.11-1A2.57,2.57,0,0,0,23.4,6.88a3.45,3.45,0,0,0,.3-1.37,3,3,0,0,0-.14-0.91,2.4,2.4,0,0,0-.43-0.8,2.21,2.21,0,0,0-.7-0.56A2,2,0,0,0,21.49,3a2,2,0,0,0-.94.22,2.24,2.24,0,0,0-.69.56,2.39,2.39,0,0,0-.43.8,3,3,0,0,0-.14.91,3.45,3.45,0,0,0,.3,1.37,2.57,2.57,0,0,0,1.06,1.17,2.84,2.84,0,0,0-1.11,1,2.89,2.89,0,0,0-.41,1.6,3.74,3.74,0,0,0,.16,1.11,2.65,2.65,0,0,0,.47.89,2.18,2.18,0,0,0,.74.59,2.41,2.41,0,0,0,2,0,2.29,2.29,0,0,0,.75-0.59,2.58,2.58,0,0,0,.47-0.89A3.72,3.72,0,0,0,23.87,10.65Zm-1-.05a2.19,2.19,0,0,1-.36,1.31,1.1,1.1,0,0,1-.93.5,1.18,1.18,0,0,1-1-.56,2.35,2.35,0,0,1-.38-1.33,2.1,2.1,0,0,1,.25-1,3.26,3.26,0,0,1,1-1,3.39,3.39,0,0,1,1.08.93A2,2,0,0,1,22.85,10.6ZM22.69,5.51a2.13,2.13,0,0,1-.3,1.09,4,4,0,0,1-.79.95,2.48,2.48,0,0,1-1-.92,2.13,2.13,0,0,1-.28-1,1.72,1.72,0,0,1,.34-1.07,1,1,0,0,1,.84-0.45,1,1,0,0,1,.86.43A1.57,1.57,0,0,1,22.69,5.51ZM29,6a3.24,3.24,0,0,0-.64-2.11,2.14,2.14,0,0,0-.73-0.59,2.41,2.41,0,0,0-1-.2h-2V13.35h1V9.07h0.68a2.51,2.51,0,0,0,2-.77A3.34,3.34,0,0,0,29,6Zm-1.07.11a2.22,2.22,0,0,1-.38,1.37A1.57,1.57,0,0,1,26.21,8H25.66V4.19h0.59a1.66,1.66,0,0,1,1.24.45A2.11,2.11,0,0,1,27.93,6.14Z"/>
</svg>
