<svg xmlns="http://www.w3.org/2000/svg" width="31" height="16.22" viewBox="0 0 31 16.22">
  <defs>
    <style>
      .cls-1 {
        fill: none;
      }
    </style>
  </defs>
  <g id="base">
    <rect class="cls-1" width="31" height="16"/>
  </g>
  <g id="icon">
    <g>
      <g>
        <path d="M10.74,15.26a4.35,4.35,0,0,1-.51.23,5.15,5.15,0,0,1-.8.24c-.31.07-.65.13-1,.18A12.3,12.3,0,0,1,7.12,16a7,7,0,0,1-2.54-.46A5.63,5.63,0,0,1,2.47,14.1,6.91,6.91,0,0,1,1,11.65,10.4,10.4,0,0,1,.49,8.1,10.83,10.83,0,0,1,1,4.73,6.91,6.91,0,0,1,2.32,2.26,5.72,5.72,0,0,1,4.41.74,6.82,6.82,0,0,1,7.12.22,7.91,7.91,0,0,1,8.36.3a8,8,0,0,1,1,.2,5.58,5.58,0,0,1,.79.27l.54.24-.14,2.38c-.17-.11-.36-.23-.59-.35a5.52,5.52,0,0,0-.73-.32,7.21,7.21,0,0,0-.83-.22,4.43,4.43,0,0,0-.9-.09,4.1,4.1,0,0,0-1.7.35,3.47,3.47,0,0,0-1.32,1,5.21,5.21,0,0,0-.85,1.77,9.49,9.49,0,0,0-.3,2.53,9,9,0,0,0,.35,2.67,4.81,4.81,0,0,0,.91,1.75,3.33,3.33,0,0,0,1.32,1,4.48,4.48,0,0,0,1.59.29,4,4,0,0,0,.89-.1,7.54,7.54,0,0,0,.88-.23c.28-.09.54-.2.77-.3s.43-.21.57-.29Z"/>
        <path d="M17.5,13.61H15.27c.4-.35.81-.75,1.23-1.18s.83-.91,1.23-1.41.78-1,1.15-1.58a14.09,14.09,0,0,0,.95-1.68A9.7,9.7,0,0,0,20.47,6a6.29,6.29,0,0,0,.24-1.7,5,5,0,0,0-.32-1.88,3.42,3.42,0,0,0-.89-1.28A3.53,3.53,0,0,0,18.15.45,5.69,5.69,0,0,0,16.47.22,7.33,7.33,0,0,0,15.32.3a7.65,7.65,0,0,0-1.08.22,5.73,5.73,0,0,0-1,.34,5,5,0,0,0-.77.42l.34,2.39a4.72,4.72,0,0,1,.72-.44,8.76,8.76,0,0,1,.88-.4,6.82,6.82,0,0,1,.91-.29,3.71,3.71,0,0,1,.82-.11,1.66,1.66,0,0,1,1.4.59A2.73,2.73,0,0,1,18,4.73a4,4,0,0,1-.28,1.4A10.32,10.32,0,0,1,17,7.68a18,18,0,0,1-1.07,1.61c-.4.54-.82,1.07-1.25,1.59s-.86,1-1.29,1.49l-1.2,1.3v2.09h4.51Z"/>
      </g>
      <g>
        <path d="M22.31,8.57l2.82,7.65H23.44l-.58-1.81H20l-.59,1.81H17.71l2.82-7.65Zm-.9,1.17s0,0,0,.07,0,.06,0,.09,0,.07,0,.1a.15.15,0,0,1,0,.07l-1.08,3.24h2.29l-1.08-3.23Z"/>
        <path d="M30.82,10.28l-2,5.94H27.14l-2-5.94h1.53L28,14.78l1.31-4.5Z"/>
      </g>
    </g>
  </g>
</svg>
