<svg xmlns="http://www.w3.org/2000/svg" width="12.92" height="16" viewBox="0 0 12.92 16">
  <g id="icon">
    <g>
      <path d="M1.3,5.2H3.47v.61H0V5.18L2.12,2.86H0V2.24H3.42v.63Z"/>
      <path d="M6.13,4.11h2.8V5H4.45V4.08L7.19.85H4.5V0H8.86V.88Z"/>
      <path d="M.17,15.32l.24.35.35.24.43.09H11.81l.43-.09.35-.24.24-.35.09-.43V8.84l-.09-.43-.24-.35-.35-.24-.43-.09H9.39l-.86-1.5L8.34,6l-.27-.13-.22-.05H5.17l-.38.11-.27.29-.14.24L3.66,7.73H1.19l-.43.09-.35.24-.24.35-.09.43v6.05ZM6.5,8.8a2.81,2.81,0,1,1-2.81,2.81A2.81,2.81,0,0,1,6.5,8.8Z"/>
    </g>
  </g>
</svg>
