<svg id="レイヤー_1" data-name="レイヤー 1" xmlns="http://www.w3.org/2000/svg" width="70" height="16" viewBox="0 0 70 16">
  <defs>
    <style>
      .cls-1 {
        fill: none;
      }
    </style>
  </defs>
  <title>icon_unlock-btn-pressed</title>
  <g>
    <g>
      <path d="M0.53,0.75H2.45V9.12c0,2.47.52,4.09,2,4.09s2-1.62,2-4.09V0.75H8.33V10c0,3.89-1.45,5.49-3.9,5.49S0.53,13.9.53,10V0.75Z"/>
      <path d="M10.39,0.75h2.36l3.64,10.84h0V0.75h1.84v14.5H15.9L12.25,4.41h0V15.25H10.39V0.75Z"/>
      <path d="M20.37,0.75h1.92V13H26v2.29H20.37V0.75Z"/>
      <path d="M31.43,0.5c3,0,4.68,3.08,4.68,7.46s-1.66,7.54-4.68,7.54S26.75,12.41,26.75,8,28.39,0.5,31.43.5Zm0,12.71c2,0,2.68-2.64,2.68-5.25s-0.78-5.18-2.68-5.18S28.75,5.4,28.75,8,29.47,13.21,31.43,13.21Z"/>
      <path d="M44.82,15a6.72,6.72,0,0,1-2.18.45c-3.09,0-5.24-2.35-5.24-7.25S39.4,0.5,42.65.5a4.44,4.44,0,0,1,2.16.6L44.67,3.56a2.93,2.93,0,0,0-2.07-.77c-2,0-3.2,2.29-3.2,5.25s1.2,5.18,3.24,5.18a3.8,3.8,0,0,0,2.09-.6Z"/>
      <path d="M46.23,0.75h1.92V7L51.6,0.75H54L50,7.58l4.09,7.67h-2.5L48.18,8.52h0v6.73H46.23V0.75Z"/>
    </g>
    <rect x="56.5" y="13.88" width="12.97" height="1.43"/>
    <path d="M65.6,6.93V4.21H60.37V6.93h-3.3l6.06,5.77L68.9,6.93H65.6Zm0-6.17H60.37V3H65.6V0.77Z"/>
  </g>
  <rect class="cls-1" width="70" height="16"/>
</svg>
