<svg id="レイヤー_1" data-name="レイヤー 1" xmlns="http://www.w3.org/2000/svg" width="16" height="16" viewBox="0 0 16 16">
  <defs>
    <style>
      .cls-1 {
        fill: none;
      }
    </style>
  </defs>
  <title>icon_protect</title>
  <g>
    <path d="M15.5,11.73H14V8.92H12.23v2.81H10.69V8.92H7.43a3.7,3.7,0,0,1-1.24,2A3.32,3.32,0,0,1,4,11.73a3.33,3.33,0,0,1-2.5-1.08A3.67,3.67,0,0,1,.5,8a3.72,3.72,0,0,1,1-2.64A3.31,3.31,0,0,1,4,4.27a3.23,3.23,0,0,1,2.18.82,3.78,3.78,0,0,1,1.23,2H15.5v4.6ZM6,8a1.88,1.88,0,0,0-.57-1.38A2,2,0,0,0,4,6.06a1.94,1.94,0,0,0-1.4.57A1.88,1.88,0,0,0,2,8a1.86,1.86,0,0,0,.57,1.37A1.94,1.94,0,0,0,4,10a2,2,0,0,0,1.4-.57A1.81,1.81,0,0,0,6,8Z"/>
    <rect class="cls-1" width="16" height="16"/>
  </g>
</svg>
