<svg id="icon" xmlns="http://www.w3.org/2000/svg" width="18" height="16" viewBox="0 0 18 16">
  <g>
    <path d="M2.88,1.44A1.44,1.44,0,1,1,1.44,0,1.43,1.43,0,0,1,2.88,1.44Z"/>
    <path d="M12.4,1.44A1.44,1.44,0,1,1,11,0,1.44,1.44,0,0,1,12.4,1.44Z"/>
    <polygon points="4.1 2.48 4.1 9.59 7.88 9.59 7.88 7.81 5.88 7.81 5.88 2.48 4.1 2.48"/>
    <path d="M10.05,11.51c0-.18,0-.36,0-.53a6.66,6.66,0,0,1-8.54-.67L.27,11.56A8.4,8.4,0,0,0,10.18,13,8.58,8.58,0,0,1,10.05,11.51Z"/>
    <path d="M14.53,7A3.39,3.39,0,0,1,16,7.3a2.89,2.89,0,0,1,1.09.87,4,4,0,0,1,.69,1.41A7,7,0,0,1,18,11.51a6.88,6.88,0,0,1-.24,1.91,4,4,0,0,1-.69,1.41A2.89,2.89,0,0,1,16,15.7a3.39,3.39,0,0,1-1.45.3,3.43,3.43,0,0,1-1.46-.3A3,3,0,0,1,12,14.83a4,4,0,0,1-.69-1.41,6.88,6.88,0,0,1-.24-1.91,7,7,0,0,1,.24-1.93A4,4,0,0,1,12,8.17a3,3,0,0,1,1.09-.87A3.43,3.43,0,0,1,14.53,7Zm1.83,4.51a7.32,7.32,0,0,0-.11-1.39,3.53,3.53,0,0,0-.34-1,1.85,1.85,0,0,0-.58-.65,1.52,1.52,0,0,0-1.61,0,1.73,1.73,0,0,0-.57.65,3.53,3.53,0,0,0-.35,1,8.71,8.71,0,0,0,0,2.76,3.46,3.46,0,0,0,.35,1,1.69,1.69,0,0,0,.57.66,1.52,1.52,0,0,0,1.61,0,1.8,1.8,0,0,0,.58-.66,3.46,3.46,0,0,0,.34-1A7.24,7.24,0,0,0,16.36,11.51Z"/>
  </g>
</svg>
