<svg id="レイヤー_1" data-name="レイヤー 1" xmlns="http://www.w3.org/2000/svg" width="23" height="16" viewBox="0 0 23 16">
  <defs>
    <style>
      .cls-1 {
        fill: none;
      }
    </style>
  </defs>
  <title>icon_timer-06sec</title>
  <path d="M12.25,9.83A5.64,5.64,0,0,1,11.82,12a5.46,5.46,0,0,1-1.24,1.84,5.82,5.82,0,0,1-1.85,1.23,5.65,5.65,0,0,1-6.18-1.23A5.46,5.46,0,0,1,1.29,12,5.67,5.67,0,0,1,.87,9.83a5.49,5.49,0,0,1,.35-2,5.84,5.84,0,0,1,1-1.67A5.75,5.75,0,0,1,3.63,5a5.52,5.52,0,0,1,1.81-.71V3.62H3.62V2.16H5.44V1A1.81,1.81,0,0,1,6.1.57a1.69,1.69,0,0,1,.72,0A1.6,1.6,0,0,1,7.67,1v1.2h1.8V3.62H7.67V4.25a5.44,5.44,0,0,1,2.91,1.56,5.47,5.47,0,0,1,1.24,1.84A5.65,5.65,0,0,1,12.25,9.83Zm-0.94.34H10.59V9.28l0.7,0a5.08,5.08,0,0,0-.43-1.54A4.66,4.66,0,0,0,10,6.42a4.36,4.36,0,0,0-1.38-.94A5.45,5.45,0,0,0,7,5.07V5.93H6.07V5.08A5,5,0,0,0,4.5,5.5a4.65,4.65,0,0,0-1.34.92,4.81,4.81,0,0,0-.93,1.34,4.87,4.87,0,0,0-.42,1.58H2.53v0.91H1.81a5.38,5.38,0,0,0,.41,1.59,4.34,4.34,0,0,0,.94,1.38,5,5,0,0,0,1.34.91,4.84,4.84,0,0,0,1.57.42V13.79H7v0.76a4.76,4.76,0,0,0,3.92-2.75A4.66,4.66,0,0,0,11.3,10.17ZM9.61,6.37l-2.27,3a0.87,0.87,0,0,1-.15,1,0.85,0.85,0,0,1-.63.25H6.4l-0.62.81L5.16,11l0.62-.8A1.81,1.81,0,0,1,5.7,10a0.58,0.58,0,0,1,0-.2,0.89,0.89,0,0,1,.26-0.64,0.84,0.84,0,0,1,.63-0.27l0.07,0,0.09,0L9,5.9Zm12.51,3.77a4.59,4.59,0,0,1-1.09,3,4,4,0,0,1-3.2,1.3,4.11,4.11,0,0,1-3-1.32q-1.27-1.33-1.27-4.5a12.25,12.25,0,0,1,.57-4q1.12-3.12,4-3.12A3.49,3.49,0,0,1,21,2.66a3.72,3.72,0,0,1,.83,2.24H20.31a3,3,0,0,0-.44-1.17,2,2,0,0,0-1.74-.8A2.4,2.4,0,0,0,16,4.17a7.09,7.09,0,0,0-.88,3.49A3.37,3.37,0,0,1,15.77,7a3.54,3.54,0,0,1,2.44-.84,4.18,4.18,0,0,1,2.76,1A3.78,3.78,0,0,1,22.13,10.14Zm-1.66.13a3.49,3.49,0,0,0-.55-1.82,2.17,2.17,0,0,0-2-.88,2.61,2.61,0,0,0-1.77.68,2.5,2.5,0,0,0-.76,2,3,3,0,0,0,.7,2A2.37,2.37,0,0,0,18,13.1a2.22,2.22,0,0,0,1.87-.85A3.27,3.27,0,0,0,20.47,10.27Z"/>
  <rect class="cls-1" width="23" height="16"/>
</svg>
