<svg id="icon" xmlns="http://www.w3.org/2000/svg" width="16" height="16" viewBox="0 0 16 16">
  <path d="M8,0a8,8,0,1,0,8,8A8,8,0,0,0,8,0ZM7.37,1.31V2.9h0A4.84,4.84,0,0,0,6,3.29l0,0L5.19,1.9A6.71,6.71,0,0,1,7.37,1.31ZM1.91,5.17,3.28,6l0,0a5,5,0,0,0-.4,1.44H1.31A6.54,6.54,0,0,1,1.91,5.17Zm0,5.63a6.87,6.87,0,0,1-.58-2.21H2.9a4.84,4.84,0,0,0,.39,1.47l0-.05Zm3,1.3-.79,1.38a6.7,6.7,0,0,1-1.61-1.62l1.37-.8h0a5.27,5.27,0,0,0,1.06,1Zm-1-7.18v0L2.53,4.11a6.53,6.53,0,0,1,1.6-1.59l.79,1.37h0A5.08,5.08,0,0,0,3.9,4.92ZM5.19,14.1,6,12.72H6a5.1,5.1,0,0,0,1.45.39h0v1.59A6.82,6.82,0,0,1,5.19,14.1Zm8.89-9a7,7,0,0,1,.61,2.19h-1.6a5,5,0,0,0-.38-1.39ZM8.6,1.31a6.7,6.7,0,0,1,2.18.58L10,3.26A5.36,5.36,0,0,0,8.6,2.9Zm0,13.38V13.1h0a4.9,4.9,0,0,0,1.42-.39l.79,1.37A6.53,6.53,0,0,1,8.63,14.69Zm3.21-12.2a6.75,6.75,0,0,1,1.61,1.59l-1.37.8a5.47,5.47,0,0,0-1-1Zm.06,11-.79-1.37a5.08,5.08,0,0,0,1-1.05l1.38.79A6.74,6.74,0,0,1,11.9,13.46ZM12.74,10a5.21,5.21,0,0,0,.37-1.42h1.58a6.61,6.61,0,0,1-.57,2.21Z"/>
</svg>
