<svg id="レイヤー_1" data-name="レイヤー 1" xmlns="http://www.w3.org/2000/svg" width="21" height="16" viewBox="0 0 21 16">
  <defs>
    <style>
      .cls-1 {
        fill: none;
      }
    </style>
  </defs>
  <title>icon_data-transfer</title>
  <path d="M1.25,12.06l4.39-1.73A0.55,0.55,0,0,0,6,9.9a0.54,0.54,0,0,0-.2-0.51,0.53,0.53,0,0,0-.54-0.08l-2.37.94,3.4-4.14a1,1,0,0,1,.79-0.36,1,1,0,0,1,.77.41l3.73,5.18a2.13,2.13,0,0,0,3.38.11l4.09-5L18.57,9a0.53,0.53,0,0,0,.18.52,0.55,0.55,0,0,0,.54.1,0.54,0.54,0,0,0,.35-0.42l0.85-4.64a0.55,0.55,0,0,0-.74-0.61L15.36,5.67A0.54,0.54,0,0,0,15,6.1a0.55,0.55,0,0,0,.74.59l2.37-.94-3.4,4.13a1,1,0,0,1-1.57-.05L9.43,4.65a2.12,2.12,0,0,0-3.37-.11L2,9.52,2.44,7a0.55,0.55,0,0,0-.19-0.51,0.54,0.54,0,0,0-.54-0.1,0.53,0.53,0,0,0-.35.42L0.51,11.46A0.55,0.55,0,0,0,1.25,12.06Z"/>
  <rect class="cls-1" width="21" height="16"/>
</svg>
