<svg id="icon" xmlns="http://www.w3.org/2000/svg" width="25.14" height="16" viewBox="0 0 25.14 16">
  <g>
    <path d="M20.29,0h-7V4.88h7a2.44,2.44,0,1,0,0-4.88Zm-.08,4.08a1.65,1.65,0,1,1,1.65-1.65A1.64,1.64,0,0,1,20.21,4.08Z"/>
    <path d="M25.13,11.39,23.45,4.48a.4.4,0,0,0-.3-.29,3.35,3.35,0,0,1-2.86,1.6H19.06a.66.66,0,0,0,0,.14l1.46,5.65a.4.4,0,0,0,.39.31h3.82a.42.42,0,0,0,.32-.16A.41.41,0,0,0,25.13,11.39Z"/>
  </g>
  <g>
    <path d="M4.23,11.69a.82.82,0,1,0,0,1.63.82.82,0,0,0,0-1.63Z"/>
    <rect x="6.27" y="11.89" width="7.07" height="1.22"/>
    <path d="M4.23,8.64a.82.82,0,0,0-.82.81.82.82,0,0,0,.82.82A.82.82,0,0,0,5,9.45.81.81,0,0,0,4.23,8.64Z"/>
    <rect x="6.27" y="8.84" width="7.07" height="1.22"/>
    <path d="M13.26,5.79a.92.92,0,0,1-.92-.91V3.2H1.83A1.83,1.83,0,0,0,0,5v9.14A1.83,1.83,0,0,0,1.83,16H15.54a1.83,1.83,0,0,0,1.83-1.83V5.79ZM15.49,14a1.19,1.19,0,0,1-1.18,1.17H3.06A1.17,1.17,0,0,1,1.89,14V7.63A1.17,1.17,0,0,1,3.06,6.45H5.21L6.29,4.56v0a.94.94,0,0,1,.59-.48A1.27,1.27,0,0,1,7.17,4h3a1,1,0,0,1,.84.51v0l1.09,1.91h2.19a1.19,1.19,0,0,1,1.18,1.18Z"/>
  </g>
</svg>
