<svg id="レイヤー_1" data-name="レイヤー 1" xmlns="http://www.w3.org/2000/svg" width="94" height="16" viewBox="0 0 94 16">
  <defs>
    <style>
      .cls-1 {
        fill: none;
      }
    </style>
  </defs>
  <title>icon_terminal_hdmi</title>
  <path d="M8.73,0.76h2.63V15.26H8.73V8.91H3.49v6.35H0.88V0.76H3.49V6.61H8.73V0.76Zm12.1,0.32a6.08,6.08,0,0,1,2.41,1.14,5.64,5.64,0,0,1,1.65,2.23A9,9,0,0,1,25.49,8a9,9,0,0,1-.61,3.58,5.63,5.63,0,0,1-1.65,2.23,6,6,0,0,1-2.41,1.14,12.52,12.52,0,0,1-2.86.32H14.38V0.76H18A12.6,12.6,0,0,1,20.82,1.07ZM20.06,12.65a4.08,4.08,0,0,0,1.37-1,4.83,4.83,0,0,0,1-1.57A5.77,5.77,0,0,0,22.76,8a5.72,5.72,0,0,0-.36-2.1,4.71,4.71,0,0,0-1-1.56,4.24,4.24,0,0,0-1.37-1A3.89,3.89,0,0,0,18.47,3H17V13h1.46A4,4,0,0,0,20.06,12.65ZM40,3.29l-3.52,12H33.94l-3.5-12,0,0V15.26H27.89V0.76h4.2l3.1,11h0l3.1-11h4.2V15.26H40v-12h0Zm8,12H45.31V0.76h2.63V15.26ZM61.72,15.5A6.64,6.64,0,0,1,58.94,15a5.43,5.43,0,0,1-2-1.54A6.81,6.81,0,0,1,55.72,11a10.68,10.68,0,0,1-.41-3,10.4,10.4,0,0,1,.42-3A6.86,6.86,0,0,1,57,2.58,5.49,5.49,0,0,1,59,1,6.57,6.57,0,0,1,61.72.5,6.42,6.42,0,0,1,64.44,1a5.64,5.64,0,0,1,2,1.54A6.79,6.79,0,0,1,67.68,5a10.31,10.31,0,0,1,.42,3,10.32,10.32,0,0,1-.42,3,7,7,0,0,1-1.23,2.38,5.58,5.58,0,0,1-2,1.56A6.37,6.37,0,0,1,61.72,15.5Zm0-12.7A3,3,0,0,0,60,3.25,3.65,3.65,0,0,0,58.9,4.42a5.43,5.43,0,0,0-.66,1.66A8.62,8.62,0,0,0,58,8a9.16,9.16,0,0,0,.2,1.93,5.53,5.53,0,0,0,.64,1.68A3.57,3.57,0,0,0,60,12.78a3.06,3.06,0,0,0,1.71.46,3,3,0,0,0,1.7-.46,3.61,3.61,0,0,0,1.13-1.2,5.53,5.53,0,0,0,.64-1.68A9.21,9.21,0,0,0,65.39,8a8.62,8.62,0,0,0-.21-1.9,5.47,5.47,0,0,0-.66-1.66,3.65,3.65,0,0,0-1.14-1.18A3,3,0,0,0,61.72,2.8Zm16.73-2h2.61V10a7.58,7.58,0,0,1-.37,2.5,4.25,4.25,0,0,1-1,1.7,4.18,4.18,0,0,1-1.67,1,8.27,8.27,0,0,1-4.49,0,4.18,4.18,0,0,1-1.67-1,4.26,4.26,0,0,1-1-1.7A7.6,7.6,0,0,1,70.4,10V0.76H73V9.13a9,9,0,0,0,.15,1.69,4,4,0,0,0,.47,1.29,2.25,2.25,0,0,0,.83.83,2.5,2.5,0,0,0,1.26.29A2.6,2.6,0,0,0,77,12.95a2.24,2.24,0,0,0,.84-0.83,3.86,3.86,0,0,0,.46-1.29,9.46,9.46,0,0,0,.14-1.69V0.76Zm4.56,0H93.12V3H89.38V15.26H86.75V3H83V0.76Z"/>
  <rect class="cls-1" width="94" height="16"/>
</svg>
