<svg id="レイヤー_1" data-name="レイヤー 1" xmlns="http://www.w3.org/2000/svg" width="16" height="16" viewBox="0 0 16 16">
  <defs>
    <style>
      .cls-1 {
        fill: none;
      }
    </style>
  </defs>
  <title>icon_af-spotsingle</title>
  <path d="M15.59,1.29V14.71a0.8,0.8,0,0,1-.79.79H1.21a0.76,0.76,0,0,1-.56-0.23,0.77,0.77,0,0,1-.23-0.56V1.29A0.77,0.77,0,0,1,.65.73,0.76,0.76,0,0,1,1.21.5H14.79a0.76,0.76,0,0,1,.56.23A0.76,0.76,0,0,1,15.59,1.29ZM14.12,13.91V2.06A0.27,0.27,0,0,0,14,1.86a0.25,0.25,0,0,0-.18-0.08H2.12a0.24,0.24,0,0,0-.28.28V13.91a0.24,0.24,0,0,0,.28.26H13.86A0.27,0.27,0,0,0,14,14.1,0.24,0.24,0,0,0,14.12,13.91ZM10.78,6.08v4a0.8,0.8,0,0,1-.79.8H6a0.79,0.79,0,0,1-.58-0.23,0.77,0.77,0,0,1-.23-0.56v-4A0.8,0.8,0,0,1,6,5.27h4a0.76,0.76,0,0,1,.56.23A0.78,0.78,0,0,1,10.78,6.08ZM9.31,9.26V6.83a0.24,0.24,0,0,0-.08-0.18A0.27,0.27,0,0,0,9,6.57H6.88a0.25,0.25,0,0,0-.18.08,0.24,0.24,0,0,0-.08.18V9.26a0.27,0.27,0,0,0,.26.26H9a0.27,0.27,0,0,0,.2-0.08A0.25,0.25,0,0,0,9.31,9.26Z"/>
  <rect class="cls-1" width="16" height="16"/>
</svg>
