<svg id="icon" xmlns="http://www.w3.org/2000/svg" width="14.7" height="16" viewBox="0 0 14.7 16">
  <g>
    <path d="M.26,6.6a7.45,7.45,0,0,0,5.15,9.13,7.33,7.33,0,0,0,9-5.2A7.49,7.49,0,0,0,12.26,3a1,1,0,0,0-1.37.07A1,1,0,0,0,11,4.49,5.53,5.53,0,0,1,12.57,10,5.41,5.41,0,1,1,2.14,7.12,1,1,0,0,0,.26,6.6Z"/>
    <path d="M9.49,2.17A2.14,2.14,0,1,0,7.35,4.33,2.16,2.16,0,0,0,9.49,2.17Z"/>
    <path d="M6.65,5.85,3.31,3.31a.81.81,0,0,0-1.15,0l0,0h0a.79.79,0,0,0,0,1.15L4.66,7.84A13,13,0,0,0,5.81,9.15l2.44,2.42h0c.34-.32.7-.67,1.07-1s.73-.73,1.05-1.07h0L8,7A12,12,0,0,0,6.65,5.85Z"/>
  </g>
</svg>
