<svg xmlns="http://www.w3.org/2000/svg" width="18" height="16" viewBox="0 0 18 16">
  <defs>
    <style>
      .cls-1 {
        fill: none;
      }

      .cls-2 {
        fill: #fff;
      }
    </style>
  </defs>
  <g id="frame">
    <rect class="cls-1" width="18" height="16"/>
  </g>
  <g id="_w">
    <path class="cls-2" d="M10.9,11.89A7,7,0,0,0,11.12,13H.23V11.89H2.37V10.67H9.5v1.22ZM6.11,9.21,1.62,4.72H4.25V2.81H8V4.72H10.6ZM8,1.65H4.25V.5H8Zm9.82,13.44-.13.06-.18.06-.19.07-.26.08-.29.05-.32.05c-.12,0-.24,0-.37,0h-.39a4,4,0,0,1-1.47-.27,3.23,3.23,0,0,1-1.25-.83A4.46,4.46,0,0,1,12.07,13a6.48,6.48,0,0,1-.3-2.08,6.68,6.68,0,0,1,.27-2,4.28,4.28,0,0,1,.79-1.44,3.28,3.28,0,0,1,1.23-.88,3.71,3.71,0,0,1,1.58-.31H16a1.29,1.29,0,0,1,.35,0l.31.06.29.06.25.07.2.08.19.09a.4.4,0,0,1,.13.07l-.07,1.39L17.51,8a.56.56,0,0,0-.17-.09l-.22-.11a1,1,0,0,0-.21-.09l-.25-.06-.24-.07a3.29,3.29,0,0,0-.54,0,2.61,2.61,0,0,0-1,.2,2.26,2.26,0,0,0-.78.61,2.56,2.56,0,0,0-.49,1.05,5.13,5.13,0,0,0-.18,1.47,5.7,5.7,0,0,0,.2,1.57,3.54,3.54,0,0,0,.54,1A1.89,1.89,0,0,0,15,14a2.25,2.25,0,0,0,.92.18,3.15,3.15,0,0,0,.52-.05l.27-.08.25-.07a1.06,1.06,0,0,0,.25-.09l.2-.09a.68.68,0,0,0,.19-.08l.16-.08Z"/>
  </g>
</svg>
