<svg id="レイヤー_1" data-name="レイヤー 1" xmlns="http://www.w3.org/2000/svg" width="20" height="16" viewBox="0 0 20 16">
  <defs>
    <style>
      .cls-1 {
        fill: none;
      }
    </style>
  </defs>
  <title>icon_live-view</title>
  <path d="M18.46,3.46a1.68,1.68,0,0,1,.88.88,1.58,1.58,0,0,1,.13.63v8.89a1.58,1.58,0,0,1-.13.63,1.68,1.68,0,0,1-.88.88,1.59,1.59,0,0,1-.63.13H2.18a1.6,1.6,0,0,1-.64-0.13A1.67,1.67,0,0,1,1,15,1.64,1.64,0,0,1,.67,14.5a1.58,1.58,0,0,1-.13-0.63V5A1.58,1.58,0,0,1,.67,4.33a1.68,1.68,0,0,1,.88-0.88,1.6,1.6,0,0,1,.64-0.13H5.73L7,1.14l0,0A1.14,1.14,0,0,1,7.68.56l0.16,0L8,0.5h4a1,1,0,0,1,.56.16,1.13,1.13,0,0,1,.4.43l0,0,1.25,2.22h3.63A1.59,1.59,0,0,1,18.46,3.46Zm-6,2.48H3.16v7h9.28v-7Z"/>
  <rect class="cls-1" width="20" height="16"/>
</svg>
