<svg id="レイヤー_1" data-name="レイヤー 1" xmlns="http://www.w3.org/2000/svg" width="34" height="16" viewBox="0 0 34 16">
  <defs>
    <style>
      .cls-1 {
        fill: none;
      }
    </style>
  </defs>
  <title>icon_af-off</title>
  <g>
    <path d="M3.23,0.62H4.81l2.6,14.73H6L5.38,12.2H2.6L2,15.35H0.6ZM4,3.3L3,10.14H5Z"/>
    <polygon points="8.15 15.35 9.75 15.35 9.75 8.95 12.05 8.95 12.05 6.98 9.75 6.98 9.75 2.42 12.02 2.42 12.02 0.5 8.15 0.5 8.15 15.35"/>
    <polygon points="23.85 15.35 25.46 15.35 25.46 8.95 27.76 8.95 27.76 6.98 25.46 6.98 25.46 2.42 27.72 2.42 27.72 0.5 23.85 0.5 23.85 15.35"/>
    <polygon points="29.49 15.35 31.1 15.35 31.1 8.95 33.4 8.95 33.4 6.98 31.1 6.98 31.1 2.42 33.36 2.42 33.36 0.5 29.49 0.5 29.49 15.35"/>
    <rect x="12.94" y="7" width="2.54" height="1.8"/>
    <path d="M19.42,15.5c-2,0-3.11-3.25-3.11-7.39,0-4.35,1.27-7.6,3.21-7.6s3.13,3.34,3.13,7.35c0,4.78-1.3,7.65-3.23,7.65h0Zm0.08-2.61c1,0,1.59-2.09,1.59-4.93,0-2.61-.56-4.85-1.59-4.85S17.89,5.31,17.89,8s0.6,4.87,1.6,4.87h0Z"/>
  </g>
  <rect class="cls-1" width="34" height="16"/>
</svg>
