<svg xmlns="http://www.w3.org/2000/svg" width="21" height="16" viewBox="0 0 21 16">
  <defs>
    <style>
      .cls-1 {
        fill: none;
      }
    </style>
  </defs>
  <g id="base">
    <rect id="Flash_mark.ai" class="cls-1" width="21" height="16"/>
  </g>
  <g id="icon">
    <path d="M11.22,14.62H2.56A1.77,1.77,0,0,1,.79,12.85V2.26A1.76,1.76,0,0,1,2.56.5H13.15a1.76,1.76,0,0,1,1.76,1.76V4.93a5.74,5.74,0,0,0-5.29,5.72.76.76,0,0,0,0,.15H7a9.59,9.59,0,0,0,.73-.71,10.08,10.08,0,0,0,.74-.84,11.58,11.58,0,0,0,.69-.95,7.85,7.85,0,0,0,.57-1,5.17,5.17,0,0,0,.39-1,3.58,3.58,0,0,0,.14-1,3,3,0,0,0-.19-1.13,2.06,2.06,0,0,0-.54-.77A2.27,2.27,0,0,0,8.7,2.9a3.56,3.56,0,0,0-1-.13,5.12,5.12,0,0,0-.69,0A6.2,6.2,0,0,0,6.36,3a3.3,3.3,0,0,0-.58.2,2.51,2.51,0,0,0-.46.26l.21,1.43A3.22,3.22,0,0,1,6,4.57a4.9,4.9,0,0,1,.52-.24A4.3,4.3,0,0,1,7,4.16a2.33,2.33,0,0,1,.49-.06,1,1,0,0,1,.84.35,1.63,1.63,0,0,1,.27,1,2.44,2.44,0,0,1-.16.84A6.07,6.07,0,0,1,8,7.24c-.19.32-.4.64-.64,1s-.49.64-.75,1-.52.61-.78.89l-.72.78V12.1H9.81A5.72,5.72,0,0,0,11.22,14.62Zm9-4a4.86,4.86,0,1,1-4.86-4.86A4.86,4.86,0,0,1,20.21,10.65Zm-4.86,3.53a3.57,3.57,0,0,0,2-.61L12.43,8.66a3.53,3.53,0,0,0,2.92,5.52Zm3.53-3.53a3.53,3.53,0,0,0-3.53-3.53,3.46,3.46,0,0,0-2,.61l4.9,4.9A3.46,3.46,0,0,0,18.88,10.65Z"/>
  </g>
</svg>
