<svg xmlns="http://www.w3.org/2000/svg" width="16" height="16" viewBox="0 0 16 16">
  <defs>
    <style>
      .cls-1 {
        fill: none;
      }

      .cls-2 {
        fill-rule: evenodd;
      }
    </style>
  </defs>
  <g id="base">
    <rect class="cls-1" width="16" height="16"/>
  </g>
  <g id="icon">
    <g>
      <path class="cls-2" d="M14.91,10.93A7.51,7.51,0,0,0,15.5,8a7.33,7.33,0,0,0-.14-1.41H10.57Z"/>
      <path class="cls-2" d="M1.05,10.81A7.48,7.48,0,0,0,3.79,14.2l3.39-3.39Z"/>
      <path class="cls-2" d="M1.09,5.07A7.51,7.51,0,0,0,.5,8,7.33,7.33,0,0,0,.64,9.41H5.43Z"/>
      <path class="cls-2" d="M12.21,1.8,8.82,5.19H15A7.48,7.48,0,0,0,12.21,1.8Z"/>
      <path class="cls-2" d="M10.81,8.82V15a7.48,7.48,0,0,0,3.39-2.74Z"/>
      <path class="cls-2" d="M9.41,10.57,5.07,14.91A7.51,7.51,0,0,0,8,15.5a7.33,7.33,0,0,0,1.41-.14Z"/>
      <path class="cls-2" d="M6.59,5.43l4.34-4.34A7.51,7.51,0,0,0,8,.5,7.33,7.33,0,0,0,6.59.64Z"/>
      <path class="cls-2" d="M5.19,7.18V1.05A7.48,7.48,0,0,0,1.8,3.79Z"/>
    </g>
  </g>
</svg>
