<svg id="レイヤー_1" data-name="レイヤー 1" xmlns="http://www.w3.org/2000/svg" width="21" height="16" viewBox="0 0 21 16">
  <defs>
    <style>
      .cls-1 {
        fill: none;
      }
    </style>
  </defs>
  <title>icon_one-touch-img-quality</title>
  <path d="M3.25,13.47A2.26,2.26,0,0,1,2.78,15a1.34,1.34,0,0,1-1.08.48,1.9,1.9,0,0,1-.82-0.16v-1a1.41,1.41,0,0,0,.53.12q0.69,0,.69-1V8.78H3.25v4.69ZM5.1,4.65a1,1,0,0,0-.69-0.78v0a1.31,1.31,0,0,0,.88-0.5,1.66,1.66,0,0,0,.34-1.07A1.62,1.62,0,0,0,3.73.51H1.3v6.7H2.47V4.45H3.19a0.86,0.86,0,0,1,.88.7L4.7,7.21H5.93ZM3.4,3.29H2.47V1.71H3.4c0.68,0,1,.06,1,0.7S4.08,3.29,3.4,3.29ZM6.69,8.78H4.82v6.66H6V13.09H6.69a1.82,1.82,0,0,0,2.06-2A2,2,0,0,0,6.69,8.78ZM6.47,11.9H6V9.95H6.47A1,1,0,0,1,7.54,11C7.54,11.77,7.19,11.9,6.47,11.9Zm3.6-11.4H8.69L6.38,7.2H7.65L8.14,5.64H10.5L11,7.2h1.3Zm-1.67,4,1-2.95h0l0.87,2.95H8.4Zm5,11H9.92V8.78h3.53V9.95H11.12v1.57H13v1.17H11.12v1.57h2.33v1.17ZM20.12,0.51l-1.48,6.7H17.09L16,1.71h0l-1.12,5.5H13.32l-1.44-6.7h1.22l1,5.16h0l1.08-5.16H16.8l1.06,5.16h0l1-5.16h1.19ZM19.33,15.09a5.47,5.47,0,0,1-1.92.37A3.08,3.08,0,0,1,15,14.58a3.5,3.5,0,0,1-.84-2.43,3.19,3.19,0,0,1,3.34-3.43,2.66,2.66,0,0,1,1.4.44v1.57a2,2,0,0,0-3.59,1.36,2,2,0,0,0,2.08,2.26,1.44,1.44,0,0,0,.71-0.13V12.7H17V11.52h2.36v3.57Z"/>
  <rect class="cls-1" width="21" height="16"/>
</svg>
