<svg id="レイヤー_1" data-name="レイヤー 1" xmlns="http://www.w3.org/2000/svg" width="31" height="16" viewBox="0 0 31 16">
  <defs>
    <style>
      .cls-1 {
        fill: none;
      }
    </style>
  </defs>
  <title>icon_func-picstyle</title>
  <path d="M11.39,9.88L3,12.68,0.6,9.22,8.5,6.85ZM3.47,11.26l5.77-1.9L8.14,8.21,2.53,9.9ZM12,3.82L6.57,2.15l-3,1.79L9.2,5.79Zm0.76,6.48L12.24,15.5h6.84l-0.46-5.21H12.73ZM18,3.45L17.72,0.5H13.64l-0.3,2.95H18Zm4.19,2.35,5.56-1.85-3-1.79-5.4,1.66Zm-1.78,4,7.88,2.63L30.4,9.34,23,7.1Z"/>
  <rect class="cls-1" width="31" height="16"/>
</svg>
