<?xml version="1.0" encoding="utf-8"?>
<!-- Generator: Adobe Illustrator 21.1.0, SVG Export Plug-In . SVG Version: 6.00 Build 0)  -->
<svg version="1.1" id="レイヤー_1" xmlns="http://www.w3.org/2000/svg" xmlns:xlink="http://www.w3.org/1999/xlink" x="0px"
	 y="0px" width="52px" height="16px" viewBox="0 0 52 16" style="enable-background:new 0 0 52 16;" xml:space="preserve">
<style type="text/css">
	.st0{fill:#0000FF;}
	.st1{fill:none;}
</style>
<title>icon_mode</title>
<path class="st0" d="M14.4,15.2h-1.8V2.7l0,0L8.5,15.2H6.8L2.7,2.7l0,0v12.6H0.9V0.7h2.9l3.9,12.1l3.8-12.1h2.9V15.2z M28.8,8
	c0,1-0.1,2-0.4,3c-0.2,0.9-0.6,1.7-1.2,2.4c-0.5,0.6-1.1,1.2-1.9,1.5c-0.8,0.4-1.6,0.6-2.5,0.6c-0.9,0-1.7-0.2-2.5-0.6
	c-0.7-0.4-1.4-0.9-1.9-1.5c-0.5-0.7-0.9-1.5-1.1-2.4c-0.3-1-0.4-2-0.4-3c0-1,0.1-2,0.4-3c0.2-0.9,0.6-1.7,1.2-2.4
	C19,2,19.6,1.4,20.4,1c1.6-0.7,3.4-0.7,5,0c0.7,0.4,1.4,0.9,1.9,1.6c0.5,0.7,0.9,1.5,1.2,2.4C28.7,6,28.8,7,28.8,8z M27,8
	c0-0.7-0.1-1.4-0.3-2.1c-0.1-0.6-0.4-1.3-0.8-1.8c-0.3-0.5-0.8-0.9-1.3-1.3c-0.5-0.3-1.2-0.5-1.8-0.5c-0.6,0-1.2,0.1-1.8,0.5
	c-0.5,0.3-1,0.7-1.3,1.3c-0.4,0.6-0.6,1.2-0.8,1.8c-0.2,0.7-0.2,1.4-0.2,2.1c0,0.7,0.1,1.4,0.2,2.1c0.1,0.6,0.4,1.3,0.7,1.8
	c0.3,0.5,0.8,0.9,1.3,1.3c0.6,0.3,1.2,0.5,1.8,0.5c0.6,0,1.3-0.1,1.8-0.5c0.5-0.3,1-0.8,1.3-1.3c0.3-0.6,0.6-1.2,0.7-1.8
	C26.9,9.4,27,8.7,27,8z M41.5,7.9c0,1.1-0.1,2.2-0.5,3.2c-0.3,0.9-0.7,1.6-1.3,2.3c-0.6,0.6-1.3,1.1-2.1,1.4
	c-0.9,0.3-1.8,0.5-2.7,0.5h-3.7V0.7h3.6c0.9,0,1.8,0.2,2.6,0.5c0.8,0.3,1.5,0.8,2.1,1.4c0.6,0.6,1.1,1.4,1.4,2.2
	C41.3,5.8,41.5,6.8,41.5,7.9z M39.6,8c0-0.8-0.1-1.5-0.3-2.3c-0.2-0.6-0.6-1.2-1-1.7c-0.4-0.5-0.9-0.8-1.4-1.1
	c-0.6-0.2-1.2-0.4-1.8-0.4h-2v10.8h1.9c1.3,0.1,2.6-0.4,3.5-1.3C39.3,10.9,39.7,9.5,39.6,8z M51.1,15.3h-6.9V0.7h6.9v1.8H46v4.3h4.7
	v1.8H46v4.8h5.1V15.3L51.1,15.3z"/>
<rect y="0" class="st1" width="52" height="16"/>
</svg>
