<svg xmlns="http://www.w3.org/2000/svg" width="38" height="16" viewBox="0 0 38 16">
  <defs>
    <style>
      .cls-1 {
        fill: none;
      }
    </style>
  </defs>
  <g id="base">
    <rect class="cls-1" width="38" height="16"/>
  </g>
  <g id="icon">
    <path d="M36.94,2.75v10.5A1.75,1.75,0,0,1,35.19,15H2.81a1.75,1.75,0,0,1-1.75-1.75V2.75A1.75,1.75,0,0,1,2.81,1H35.19A1.75,1.75,0,0,1,36.94,2.75ZM3.86,3.33a2.79,2.79,0,0,0-.9,1A5.54,5.54,0,0,0,2.4,5.86,10.63,10.63,0,0,0,2.2,8a10.42,10.42,0,0,0,.2,2.13A5.54,5.54,0,0,0,3,11.71a2.79,2.79,0,0,0,.9,1,2.21,2.21,0,0,0,1.2.33,2.2,2.2,0,0,0,1.19-.33,2.61,2.61,0,0,0,.9-1,5.25,5.25,0,0,0,.56-1.57A9.76,9.76,0,0,0,7.91,8a10,10,0,0,0-.2-2.15,5.25,5.25,0,0,0-.56-1.57,2.61,2.61,0,0,0-.9-1A2.2,2.2,0,0,0,5.06,3,2.21,2.21,0,0,0,3.86,3.33Zm2.61,6.2a4.61,4.61,0,0,1-.28,1.15,1.92,1.92,0,0,1-.47.73,1,1,0,0,1-1.33,0,1.92,1.92,0,0,1-.47-.73,4.61,4.61,0,0,1-.28-1.15,11.75,11.75,0,0,1,0-3.06,4.7,4.7,0,0,1,.28-1.16,2,2,0,0,1,.47-.72,1,1,0,0,1,1.33,0,2,2,0,0,1,.47.72,4.7,4.7,0,0,1,.28,1.16A10.12,10.12,0,0,1,6.57,8,10,10,0,0,1,6.47,9.53Zm4.83.8a1.92,1.92,0,0,0-.05.29q0,.18-.06.33,0-.15-.06-.33a1.92,1.92,0,0,0-.05-.29L9.77,3.19H8.39l2.12,9.62h1.36l2.19-9.62H12.79Zm3.76,2.48h1.3V8.6h2.1V7.27h-2.1V4.52h2.26V3.19H15.06Zm9.31-2.48c0,.08,0,.18-.06.29s0,.23,0,.33q0-.15-.06-.33c0-.11,0-.21-.06-.29L22.83,3.19H21.45l2.13,9.62h1.35l2.2-9.62H25.86ZM29,11H27.75v1.83H29ZM32.1,3.19l-2.32,9.62h1.39l.48-2.27H34l.48,2.27h1.39L33.57,3.19Zm.78,1.9.89,4.07H31.89l.89-4.08a.34.34,0,0,1,0-.09s0-.08,0-.12a.49.49,0,0,0,0-.12.34.34,0,0,0,0-.09Z"/>
  </g>
</svg>
