<svg id="レイヤー_1" data-name="レイヤー 1" xmlns="http://www.w3.org/2000/svg" width="16" height="16" viewBox="0 0 16 16">
  <defs>
    <style>
      .cls-1 {
        fill: none;
      }
    </style>
  </defs>
  <title>icon_set</title>
  <path d="M8,0.5A7.51,7.51,0,0,1,15.51,8h-0.7a6.82,6.82,0,0,0-9.43-6.3A6.81,6.81,0,0,0,1.18,8a6.7,6.7,0,0,0,.52,2.61,6.63,6.63,0,0,0,1.48,2.19A6.81,6.81,0,0,0,8,14.8a6.69,6.69,0,0,0,2.62-.53,7,7,0,0,0,2.21-1.47,6.65,6.65,0,0,0,1.48-2.19A6.71,6.71,0,0,0,14.82,8h0.7a7.42,7.42,0,0,1-.57,2.86,7.29,7.29,0,0,1-1.63,2.42,7.53,7.53,0,0,1-8.18,1.63A7.41,7.41,0,0,1,2.69,13.3a7.29,7.29,0,0,1-1.63-2.42A7.51,7.51,0,0,1,2.69,2.7,7.5,7.5,0,0,1,8,.5ZM5,5.62a2.47,2.47,0,0,0-.53-0.14,3.66,3.66,0,0,0-.51,0,1.78,1.78,0,0,0-1.11.34,1.19,1.19,0,0,0-.45,1,1.15,1.15,0,0,0,.16.63A1.52,1.52,0,0,0,3,7.84a2.82,2.82,0,0,0,.5.29L4,8.39a1.46,1.46,0,0,1,.39.31,0.66,0.66,0,0,1,.16.45,0.67,0.67,0,0,1-.1.37,0.81,0.81,0,0,1-.24.25,1.06,1.06,0,0,1-.31.14,1.14,1.14,0,0,1-.31,0A2,2,0,0,1,3,9.87a3.38,3.38,0,0,1-.46-0.16l-0.07.67L3,10.52a2.16,2.16,0,0,0,.51.06,2.79,2.79,0,0,0,.69-0.08,1.59,1.59,0,0,0,.56-0.26A1.31,1.31,0,0,0,5.1,9.78a1.47,1.47,0,0,0,.14-0.68,1.32,1.32,0,0,0-.16-0.68A1.62,1.62,0,0,0,4.69,8a2.71,2.71,0,0,0-.5-0.31L3.7,7.41a1.92,1.92,0,0,1-.39-0.28,0.52,0.52,0,0,1-.16-0.4,0.52,0.52,0,0,1,.27-0.52A1.27,1.27,0,0,1,4,6.07a1.84,1.84,0,0,1,.46,0L4.91,6.28ZM6.22,10.5H8.94V9.87h-2V8.23H8.76V7.6H6.92V6.16h2V5.53H6.22v5Zm5.15,0h0.7V6.16h1.52V5.53H9.87V6.16h1.5V10.5Z"/>
  <rect class="cls-1" width="16" height="16"/>
</svg>
