<svg id="レイヤー_1" data-name="レイヤー 1" xmlns="http://www.w3.org/2000/svg" width="16" height="16" viewBox="0 0 16 16">
  <defs>
    <style>
      .cls-1 {
        fill: none;
      }
    </style>
  </defs>
  <title>icon_summertime-off</title>
  <path d="M3.28,7.61c0,0.13,0,.27,0,0.4a3.36,3.36,0,0,0,0,.41c0,0.13,0,.26.06,0.39H0.46V7.23H3.33C3.31,7.35,3.29,7.48,3.28,7.61ZM3.22,2.14l2,2-0.31.24a3.21,3.21,0,0,0-.29.26A2.24,2.24,0,0,0,4.38,5l-0.24.32-2-2Zm2,9.72-2,2L2.1,12.77l2-2A4.33,4.33,0,0,0,5.27,11.86ZM9.39,4.71a3.69,3.69,0,0,1,1.14.77,3.64,3.64,0,0,1,.77,1.14A3.46,3.46,0,0,1,11.58,8a3.36,3.36,0,0,1-.28,1.4H10.06v0.87a2.2,2.2,0,0,0-.71-0.64,1.84,1.84,0,0,0-.91-0.23,1.92,1.92,0,0,0-1,.26,2.15,2.15,0,0,0-.74.75,3.14,3.14,0,0,0-.17.38,4.35,4.35,0,0,0-.14.44A3.71,3.71,0,0,1,4.94,9.94a3.6,3.6,0,0,1-.27-3.32A3.63,3.63,0,0,1,6.58,4.71,3.52,3.52,0,0,1,8,4.42,3.47,3.47,0,0,1,9.39,4.71Zm0.31,6a4.05,4.05,0,0,1,.43,2,4.06,4.06,0,0,1-.43,2,1.43,1.43,0,0,1-2.51,0,4.06,4.06,0,0,1-.43-2,4.11,4.11,0,0,1,.42-2A1.35,1.35,0,0,1,8.43,10,1.37,1.37,0,0,1,9.69,10.72ZM8.78,0.5H7.19V3.37A4.68,4.68,0,0,1,8,3.31a4.57,4.57,0,0,1,.79.06V0.5Zm0,13.79A1.11,1.11,0,0,0,9,13.91a2.25,2.25,0,0,0,.13-0.53,5,5,0,0,0,0-.63A3.68,3.68,0,0,0,9,11.54a0.59,0.59,0,0,0-1.17,0,3.71,3.71,0,0,0-.17,1.2,4.73,4.73,0,0,0,0,.63,2.19,2.19,0,0,0,.13.53,1.09,1.09,0,0,0,.24.38A0.49,0.49,0,0,0,8.78,14.29ZM12.64,10v0.93H11.47v1.32h1.17v0.9H11.47V15.5H10.62V10h2Zm0.11-7.85,1.12,1.12-2,2L11.58,5l-0.27-.3A3.22,3.22,0,0,0,11,4.42l-0.31-.24Zm2.76,5.09V8.82H12.64c0-.14,0-0.27,0-0.39s0-.26,0-0.41,0-.27,0-0.4,0-.26,0-0.39h2.87Zm0,2.76v0.93H14.37v1.32h1.17v0.9H14.37V15.5H13.51V10h2Z"/>
  <rect class="cls-1" width="16" height="16"/>
</svg>
