<svg xmlns="http://www.w3.org/2000/svg" width="41" height="16" viewBox="0 0 41 16">
  <defs>
    <style>
      .cls-1 {
        fill: none;
      }

      .cls-2 {
        fill: #231815;
      }
    </style>
  </defs>
  <g id="base">
    <rect id="Pre_conti_shoot" class="cls-1" width="41" height="16"/>
  </g>
  <g id="icon">
    <g>
      <g>
        <path class="cls-2" d="M3.09,2.91a5,5,0,0,1,1.57.22,3.12,3.12,0,0,1,1.12.63,2.58,2.58,0,0,1,.68,1,3.66,3.66,0,0,1,.22,1.32A3.66,3.66,0,0,1,6.46,7.4a2.58,2.58,0,0,1-.68,1A3.12,3.12,0,0,1,4.66,9a5,5,0,0,1-1.57.22h-.7v4.07H.53V2.91Zm0,4.9a2.36,2.36,0,0,0,.8-.12,1.34,1.34,0,0,0,.55-.35,1.3,1.3,0,0,0,.3-.54,2.32,2.32,0,0,0,.1-.72,1.83,1.83,0,0,0-.42-1.26,1.71,1.71,0,0,0-1.33-.47H2.39V7.81Z"/>
        <path class="cls-2" d="M13.3,8.08a.87.87,0,0,1-.23.16l-.23.11,2.09,5H13l-1.76-4.6-.19,0H10v4.57H8.15V2.91H11a5.22,5.22,0,0,1,.69,0,3.15,3.15,0,0,1,.64.14,2.6,2.6,0,0,1,.58.23,3.35,3.35,0,0,1,.5.34,3.28,3.28,0,0,1,.4.43,2,2,0,0,1,.29.48,2.93,2.93,0,0,1,.23,1.13,3.17,3.17,0,0,1-.45,1.78l-.24.31A1.9,1.9,0,0,1,13.3,8.08ZM10,7.31h.79a2.4,2.4,0,0,0,.68-.08A1.45,1.45,0,0,0,12,7a1.25,1.25,0,0,0,.35-.46,1.86,1.86,0,0,0,.12-.7A1.35,1.35,0,0,0,12,4.72a1.84,1.84,0,0,0-1.24-.37H10Z"/>
        <path class="cls-2" d="M18.08,8.69v3.2h3.65v1.43H16.2V2.91h5.45V4.35H18.08V7.26h3.18V8.69Z"/>
      </g>
      <path class="cls-2" d="M33.05,1,29.31.5l.5,1.24a8.88,8.88,0,0,0-4.88,8.14H23.79v1h3.34v-1H26A7.83,7.83,0,0,1,30.2,2.7L30.72,4Z"/>
      <polygon class="cls-2" points="35.15 10.28 34.11 10.28 34.21 6.53 34.63 6.12 35.05 6.53 35.15 10.28"/>
      <path class="cls-2" d="M39,4.1a.63.63,0,0,0-.88.11L37.52,5l1,.77L39.14,5A.62.62,0,0,0,39,4.1Z"/>
      <path class="cls-2" d="M35.15,3.85V2.79H36.3v-1H33V2.79h1.15V3.85a5.84,5.84,0,1,0,1,0ZM34.63,14.5a4.84,4.84,0,1,1,4.84-4.84A4.84,4.84,0,0,1,34.63,14.5Z"/>
    </g>
  </g>
</svg>
