<svg id="icon" xmlns="http://www.w3.org/2000/svg" width="21" height="16" viewBox="0 0 21 16">
  <defs>
    <style>
      .cls-1 {
        fill: none;
      }
    </style>
  </defs>
  <path d="M6.33,15.5H9.67V12.17H6.33Zm1-2.29H8.63v1.25H7.38Zm5.41-4.67h-.62V6.33h1.14a3.38,3.38,0,0,0-.52,1.8ZM9.67.5H6.33V3.83H9.67Zm-1,2.29H7.38V1.54H8.63ZM.5,9.67H3.83V6.33H.5Zm1-2.29H2.79V8.62H1.54Zm3.54,3.54h5.84V5.08H5.08Zm1-4.8H9.88V9.88H6.13ZM19,9.38V8.13a2.71,2.71,0,0,0-5.41,0V9.38H12.17V15.5H20.5V9.38Zm-2.19,3.17v1.67h-1V12.55a1,1,0,0,1-.52-.88,1,1,0,0,1,2.09,0A1,1,0,0,1,16.85,12.55Zm.94-3.17H14.88V8.13a1.46,1.46,0,0,1,2.91,0Z"/>
  <rect class="cls-1" width="21" height="16"/>
</svg>
