<svg id="icon" xmlns="http://www.w3.org/2000/svg" width="21" height="16" viewBox="0 0 21 16">
  <defs>
    <style>
      .cls-1 {
        fill: none;
      }
    </style>
  </defs>
  <path d="M12.79,8.54h-.62V6.33h1.14a3.38,3.38,0,0,0-.52,1.8ZM15.5,3.83H12.17V.5H15.5Zm-1-2.29H13.21V2.79h1.25ZM.5,6.33H3.83V9.67H.5Zm1,2.29H2.79V7.38H1.54ZM5.08,5.08h5.84v5.84H5.08Zm1,4.8H9.88V6.12H6.13Zm.2,2.29H9.67V15.5H6.33Zm1,2.29H8.63V13.21H7.38ZM9.67,3.83H6.33V.5H9.67Zm-1-2.29H7.38V2.79H8.63ZM.5,12.17H3.83V15.5H.5Zm1,2.29H2.79V13.21H1.54ZM.5.5H3.83V3.83H.5Zm1,2.29H2.79V1.54H1.54Zm19,6.59V15.5H12.17V9.38h1.46V8.13a2.71,2.71,0,0,1,5.41,0V9.38Zm-3.12,2.29a1,1,0,0,0-2.09,0,1,1,0,0,0,.52.88v1.67h1V12.55A1,1,0,0,0,17.38,11.67Zm.41-3.54a1.46,1.46,0,0,0-2.91,0V9.38h2.91Z"/>
  <rect class="cls-1" width="21" height="16"/>
</svg>
