<svg id="icon" xmlns="http://www.w3.org/2000/svg" width="31" height="16" viewBox="0 0 31 16">
  <defs>
    <style>
      .cls-1 {
        fill: none;
      }
    </style>
  </defs>
  <g>
    <path d="M27.88,2.17A9,9,0,0,1,26.77,4a21.22,21.22,0,0,1-3.06,3,9.1,9.1,0,0,0,3.8-1.39,8.32,8.32,0,0,0,2-1.83l1.12,1.13V1H26.74Z"/>
    <path d="M9.82,9.91a3.2,3.2,0,0,1-1.92.63A3.28,3.28,0,1,1,7.9,4a3.25,3.25,0,0,1,2.4,1,.9.9,0,0,1,.51-.15h4.57V4l-.1-.51L15,3.12l-.41-.28-.51-.1H11.26L10.26,1,10,.71,9.73.55,9.47.5H6.34L5.9.62,5.58,1l-.16.27-.85,1.5H1.7l-.5.1-.41.28-.28.41L.4,4v7.05l.11.5L.79,12l.41.28.5.1H9.82Z"/>
    <g>
      <path d="M10.81,5.88h4.77V7.21h-3V10h2.82v1.33H12.55V15.5H10.81Z"/>
      <path d="M19.4,5.88a4.79,4.79,0,0,1,1.45.2,2.82,2.82,0,0,1,1,.58,2.4,2.4,0,0,1,.63.93,3.55,3.55,0,0,1,.2,1.22,3.59,3.59,0,0,1-.2,1.22,2.37,2.37,0,0,1-.63.92,2.69,2.69,0,0,1-1,.58,4.48,4.48,0,0,1-1.45.21h-.64V15.5H17V5.88Zm0,4.53a2.31,2.31,0,0,0,.74-.11,1.35,1.35,0,0,0,.5-.32,1.27,1.27,0,0,0,.28-.51,2,2,0,0,0,.1-.66,1.66,1.66,0,0,0-.39-1.16,1.58,1.58,0,0,0-1.23-.44h-.64v3.2Z"/>
    </g>
  </g>
  <rect class="cls-1" width="31" height="16"/>
</svg>
