<?xml version="1.0" encoding="utf-8"?>
<!-- Generator: Adobe Illustrator 23.0.3, SVG Export Plug-In . SVG Version: 6.00 Build 0)  -->
<svg version="1.1" id="レイヤー_1" xmlns="http://www.w3.org/2000/svg" xmlns:xlink="http://www.w3.org/1999/xlink" x="0px"
	 y="0px" width="22px" height="16px" viewBox="0 0 22 16" style="enable-background:new 0 0 22 16;" xml:space="preserve">
<style type="text/css">
	.st0{fill:none;}
</style>
<title>icon_af-frame-button</title>
<rect y="0" class="st0" width="22" height="16"/>
<path d="M11.8,10.8H2.9V1.6h12.4v5.7h1.2V1.6c0-0.6-0.5-1.1-1.1-1.1H2.9C2.3,0.5,1.8,1,1.8,1.6v9.3c0,0.6,0.5,1.1,1.1,1.1h10.9
	L11.8,10.8z"/>
<path d="M11.8,10.8H2.9V1.6h12.4v5.7h1.2V1.6c0-0.6-0.5-1.1-1.1-1.1H2.9C2.3,0.5,1.8,1,1.8,1.6v9.3c0,0.6,0.5,1.1,1.1,1.1h10.9
	L11.8,10.8z"/>
<path d="M16.5,10.9v-0.8h-1.2v0.8h-0.9V12h0.9C16,12,16.5,11.5,16.5,10.9z"/>
<path d="M9.1,8.5h0.2l2.5-1.6V4H6.5v4.5H9.1z M7.6,5.1h3v1.7v0.4h-3V5.1z"/>
<path d="M17,8h-3V6.6l-4,2.3l4,2.3v-2h3c1.4,0,2.6,1.2,2.6,2.6s-1.2,2.6-2.6,2.6h-6.1v1.2H17c2.1,0,3.7-1.7,3.7-3.7S19,8,17,8z"/>
</svg>
