<svg xmlns="http://www.w3.org/2000/svg" width="17" height="16" viewBox="0 0 17 16">
  <defs>
    <style>
      .cls-1 {
        fill: none;
      }

      .cls-2 {
        opacity: 0.2;
      }

      .cls-3 {
        opacity: 0.25;
      }

      .cls-4 {
        opacity: 0.4;
      }

      .cls-5 {
        opacity: 0.5;
      }

      .cls-6 {
        opacity: 0.6;
      }
    </style>
  </defs>
  <g id="base">
    <rect class="cls-1" width="17" height="16"/>
  </g>
  <g id="icon">
    <g>
      <path d="M3.92,11.73A5.1,5.1,0,0,0,7,13.54a.37.37,0,0,1,.31.51.59.59,0,0,1-.6.39,5.75,5.75,0,0,1-3.56-2.09A5.79,5.79,0,0,1,2,8.4a.6.6,0,0,1,.53-.49.37.37,0,0,1,.42.42,5.13,5.13,0,0,0,1,3.4"/>
      <path d="M2.58,12.78A6,6,0,0,0,5,14.62a.38.38,0,0,1,.18.57.57.57,0,0,1-.65.29A6.65,6.65,0,0,1,1.78,13.4,6.36,6.36,0,0,1,.43,10.24a.56.56,0,0,1,.43-.56.39.39,0,0,1,.51.32,6.13,6.13,0,0,0,1.21,2.78"/>
      <path d="M13.08,4.27A5.1,5.1,0,0,0,10,2.46.37.37,0,0,1,9.72,2a.59.59,0,0,1,.6-.39,5.75,5.75,0,0,1,3.56,2.09,5.79,5.79,0,0,1,1.17,4,.6.6,0,0,1-.53.49.37.37,0,0,1-.42-.42,5.13,5.13,0,0,0-1-3.4"/>
      <path d="M14.42,3.22A6,6,0,0,0,12,1.38a.38.38,0,0,1-.18-.57.57.57,0,0,1,.65-.29A6.65,6.65,0,0,1,15.22,2.6a6.36,6.36,0,0,1,1.35,3.16.56.56,0,0,1-.43.56A.39.39,0,0,1,15.63,6a6.13,6.13,0,0,0-1.21-2.78"/>
      <path class="cls-2" d="M13.09,8a4,4,0,0,0-4-4.66A5.54,5.54,0,0,0,3.78,8a4,4,0,0,0,4,4.66A5.54,5.54,0,0,0,13.09,8Z"/>
      <path class="cls-2" d="M13,8A3.85,3.85,0,0,0,9.07,3.47,5.38,5.38,0,0,0,3.91,8,3.85,3.85,0,0,0,7.8,12.53,5.38,5.38,0,0,0,13,8Z"/>
      <path class="cls-3" d="M12.76,8A3.67,3.67,0,0,0,9,3.68,5.15,5.15,0,0,0,4.11,8a3.67,3.67,0,0,0,3.72,4.32A5.15,5.15,0,0,0,12.76,8Z"/>
      <path class="cls-3" d="M12.55,8A3.5,3.5,0,0,0,9,3.88,4.9,4.9,0,0,0,4.32,8a3.5,3.5,0,0,0,3.54,4.12A4.9,4.9,0,0,0,12.55,8Z"/>
      <path class="cls-3" d="M12.35,8A3.33,3.33,0,0,0,9,4.09,4.65,4.65,0,0,0,4.53,8a3.32,3.32,0,0,0,3.36,3.91A4.67,4.67,0,0,0,12.35,8Z"/>
      <path class="cls-4" d="M12.14,8A3.14,3.14,0,0,0,9,4.3,4.4,4.4,0,0,0,4.73,8a3.14,3.14,0,0,0,3.18,3.7A4.4,4.4,0,0,0,12.14,8Z"/>
      <path class="cls-5" d="M11.93,8a3,3,0,0,0-3-3.5,4.16,4.16,0,0,0-4,3.5,3,3,0,0,0,3,3.5A4.16,4.16,0,0,0,11.93,8Z"/>
      <path class="cls-6" d="M11.73,8A2.79,2.79,0,0,0,8.9,4.71,3.92,3.92,0,0,0,5.14,8,2.79,2.79,0,0,0,8,11.29,3.92,3.92,0,0,0,11.73,8Z"/>
    </g>
  </g>
</svg>
