<svg id="レイヤー_1" data-name="レイヤー 1" xmlns="http://www.w3.org/2000/svg" width="19" height="16" viewBox="0 0 19 16">
  <defs>
    <style>
      .cls-1 {
        fill: none;
      }
    </style>
  </defs>
  <title>icon_imgprocessing-saved</title>
  <path d="M18.45,13.78H6.33l1.09-1.09h9.93V1.59H1.64V12.68H2L1.68,13a1,1,0,0,0-.32.76H0.55V0.5h17.9V13.78ZM8.34,11L4,15.33a0.48,0.48,0,0,1-.37.17,0.53,0.53,0,0,1-.39-0.17L2.06,14.17a0.58,0.58,0,0,1,0-.78L6.4,9.09a0.48,0.48,0,0,1,.37-0.17,0.53,0.53,0,0,1,.39.17l1.18,1.18a0.51,0.51,0,0,1,.15.37A0.56,0.56,0,0,1,8.34,11Zm2.57-3.38a2.19,2.19,0,0,1-.44.88,2,2,0,0,1-.7.55,1.75,1.75,0,0,1-.8.17A1.31,1.31,0,0,1,8.22,9a1.54,1.54,0,0,1-.41-0.44A2,2,0,0,1,7.59,8,2.86,2.86,0,0,1,7.5,7.4a2.29,2.29,0,0,1,.06-0.59A1.15,1.15,0,0,1,8,6.16a1.91,1.91,0,0,1,.6-0.31l0.61-.18a0.72,0.72,0,0,0,.42-0.28,1.24,1.24,0,0,0,.18-0.61c0-.23,0-0.46,0-0.67a3.28,3.28,0,0,1,0-.55A0.28,0.28,0,0,1,10,3.28a0.41,0.41,0,0,1,.41.22,2.16,2.16,0,0,1,.28.68,7,7,0,0,1,.17.94q0.06,0.52.07,1T11,7A3.2,3.2,0,0,1,10.91,7.64Z"/>
  <rect class="cls-1" width="19" height="16"/>
</svg>
