<svg id="レイヤー_1" data-name="レイヤー 1" xmlns="http://www.w3.org/2000/svg" width="52" height="16" viewBox="0 0 52 16">
  <defs>
    <style>
      .cls-1 {
        fill: none;
      }
    </style>
  </defs>
  <title>icon_mode</title>
  <path d="M14.41,15.25H12.64V2.7h0L8.54,15.25H6.8L2.71,2.7h0V15.25H0.91V0.73H3.82L7.7,12.82,11.5,0.73h2.91V15.25ZM28.82,8a10.82,10.82,0,0,1-.4,3,7.15,7.15,0,0,1-1.16,2.37,5.35,5.35,0,0,1-1.86,1.54,5.52,5.52,0,0,1-2.51.55,5.57,5.57,0,0,1-2.52-.55,5.33,5.33,0,0,1-1.87-1.54A7.18,7.18,0,0,1,17.35,11a10.82,10.82,0,0,1-.4-3,10.62,10.62,0,0,1,.4-3,7.39,7.39,0,0,1,1.16-2.38,5.32,5.32,0,0,1,1.87-1.57,5.88,5.88,0,0,1,5,0,5.32,5.32,0,0,1,1.87,1.57A7.36,7.36,0,0,1,28.42,5,10.62,10.62,0,0,1,28.82,8ZM26.95,8a8.9,8.9,0,0,0-.25-2.13,5.84,5.84,0,0,0-.76-1.81,4.05,4.05,0,0,0-1.27-1.26,3.3,3.3,0,0,0-1.78-.47,3.35,3.35,0,0,0-1.79.47,4,4,0,0,0-1.28,1.26,5.84,5.84,0,0,0-.76,1.81A8.9,8.9,0,0,0,18.82,8a9.34,9.34,0,0,0,.23,2.1,5.71,5.71,0,0,0,.73,1.81,4,4,0,0,0,1.27,1.27,3.39,3.39,0,0,0,1.84.48,3.34,3.34,0,0,0,1.83-.48A4,4,0,0,0,26,11.91a5.74,5.74,0,0,0,.73-1.81A9.34,9.34,0,0,0,26.95,8Zm14.5-.12a10.2,10.2,0,0,1-.45,3.2,6.3,6.3,0,0,1-1.3,2.31,5.33,5.33,0,0,1-2.07,1.4,7.67,7.67,0,0,1-2.74.46H31.23V0.73h3.64a6.78,6.78,0,0,1,2.57.48,6,6,0,0,1,2.09,1.4,6.57,6.57,0,0,1,1.4,2.25A8.42,8.42,0,0,1,41.45,7.88ZM39.57,8a6.84,6.84,0,0,0-.35-2.26,5.09,5.09,0,0,0-1-1.69,4.09,4.09,0,0,0-1.43-1.06,4.3,4.3,0,0,0-1.77-.37H33V13.41h1.86a4.52,4.52,0,0,0,3.5-1.32A6,6,0,0,0,39.57,8Zm11.52,7.29H44.2V0.73h6.89V2.57H45.95V6.82h4.7V8.66h-4.7v4.75h5.14v1.84Z"/>
  <rect class="cls-1" width="52" height="16"/>
</svg>
