<svg id="レイヤー_1" data-name="レイヤー 1" xmlns="http://www.w3.org/2000/svg" width="33" height="16" viewBox="0 0 33 16">
  <defs>
    <style>
      .cls-1 {
        fill: none;
      }
    </style>
  </defs>
  <title>icon_pic-style-a</title>
  <rect class="cls-1" width="33" height="16"/>
  <path d="M32.46,16H1.11V1H32.46V16Zm-1.14-1.1V2.05H2.25v12.8H31.33ZM10.41,9.75L4.7,11.65,3.07,9.3,8.44,7.69ZM8.94,9.37L8.21,8.61l-2.07.62-1.75.53L5,10.69ZM10.8,5.62L8.92,7,5.13,5.71l2-1.21Zm4.85,7.94H11L11.33,10h4ZM14.9,5.36H11.72l0.21-2h2.77Zm6.62,0.36L17.74,7,15.85,5.62,19.52,4.5Zm1.83,3.68L21.9,11.47,16.53,9.68l1.76-1.81Zm7.52,4.85H29.39l-0.55-1.87c-0.13-.45-0.23-0.78-0.28-1s-0.11-.42-0.12-0.48H25a4.54,4.54,0,0,0-.12.48l-0.27,1-0.5,1.87h-1.4L26,2.92h1.33ZM28,9.46L27.89,9l-0.26-.88q-0.17-.58-0.45-1.59c-0.11-.37-0.2-0.7-0.28-1s-0.15-.58-0.21-0.84c-0.06.27-.12,0.55-0.17,0.84s-0.12.56-.19,0.83l-0.5,1.7L25.56,9l-0.14.48H28Z" transform="translate(-0.29 -0.45)"/>
</svg>
