<svg id="レイヤー_1" data-name="レイヤー 1" xmlns="http://www.w3.org/2000/svg" width="44" height="16" viewBox="0 0 44 16">
  <defs>
    <style>
      .cls-1 {
        fill: none;
      }
    </style>
  </defs>
  <title>icon_quality-craw</title>
  <path d="M8.84,2.54L8.78,4.3a3.24,3.24,0,0,0-2.11-.77,3.4,3.4,0,0,0-1.54.37,4.34,4.34,0,0,0-1.3,1,4.92,4.92,0,0,0-.9,1.48,4.85,4.85,0,0,0-.34,1.81A4.78,4.78,0,0,0,2.93,10a5,5,0,0,0,.9,1.48,4.26,4.26,0,0,0,1.3,1,3.4,3.4,0,0,0,1.54.37,3,3,0,0,0,1.15-.22,4,4,0,0,0,1-.61v1.86a2.86,2.86,0,0,1-1.4.65,10.08,10.08,0,0,1-1.6.12,4.38,4.38,0,0,1-2.07-.51,5.46,5.46,0,0,1-1.68-1.37,6.59,6.59,0,0,1-1.13-2,7.5,7.5,0,0,1-.41-2.5A7.51,7.51,0,0,1,1,5.72a6.6,6.6,0,0,1,1.13-2A5.46,5.46,0,0,1,3.77,2.31,4.4,4.4,0,0,1,5.84,1.8a11.33,11.33,0,0,1,1.6.11A2.77,2.77,0,0,1,8.84,2.54Zm34.61-.77V14.25a1.19,1.19,0,0,1-.37.89,1.24,1.24,0,0,1-.9.36H11.45a1.27,1.27,0,0,1-.91-0.36,1.18,1.18,0,0,1-.38-0.89V1.77a1.21,1.21,0,0,1,.38-0.9A1.26,1.26,0,0,1,11.45.5H42.18A1.25,1.25,0,0,1,43.45,1.77ZM16.83,10.55l1,3.35h1.84L18.34,9.6A7.48,7.48,0,0,0,18,8.83a0.7,0.7,0,0,0-.53-0.42V8.35A1.4,1.4,0,0,0,18.16,8a2.1,2.1,0,0,0,.53-0.61A2.69,2.69,0,0,0,18.88,7C18.94,6.89,19,6.74,19,6.58a4.26,4.26,0,0,0,.11-1A2.94,2.94,0,0,0,18.8,4a2.61,2.61,0,0,0-.9-0.83A2.48,2.48,0,0,0,17.31,3a5.45,5.45,0,0,0-.66-0.11L16,2.83l-0.64,0H13.54V13.9h1.64V9.32h0.53a0.83,0.83,0,0,1,.72.28,3.66,3.66,0,0,1,.2.39A3.8,3.8,0,0,1,16.83,10.55Zm0.62-4.67a2,2,0,0,1-.17.9,1,1,0,0,1-.4.5,1.51,1.51,0,0,1-.55.22L16,7.53H15.18V4.36H16a0.84,0.84,0,0,1,.32,0,1.41,1.41,0,0,1,.28.06,1.39,1.39,0,0,1,.27.12l0.2,0.18a1.15,1.15,0,0,1,.2.29A1.77,1.77,0,0,1,17.46,5.89Zm8.75,5.64,0.7,2.37h1.8L25.51,2.82H23.67L20.49,13.9h1.69l0.72-2.37h3.31ZM24.54,4.76h0l1.19,4.89H23.36ZM37.13,13.9h2.1L41.34,2.82H39.76l-1.54,9.06h0L36.76,2.82H34.56l-1.4,9.06h0L31.63,2.82H29.9L32.06,13.9h2.11l1.47-9.14h0Z"/>
  <rect class="cls-1" width="44" height="16"/>
</svg>
