<svg xmlns="http://www.w3.org/2000/svg" width="16" height="16" viewBox="0 0 16 16">
  <defs>
    <style>
      .cls-1 {
        fill: none;
      }

      .cls-2 {
        fill: #fff;
      }
    </style>
  </defs>
  <g id="Frame">
    <rect class="cls-1" width="16" height="16"/>
  </g>
  <g id="_w">
    <path class="cls-2" d="M8,0a8,8,0,1,0,8,8A8,8,0,0,0,8,0ZM7.37,1.31V2.9h0A4.67,4.67,0,0,0,6,3.29H6L5.19,1.9A6.66,6.66,0,0,1,7.37,1.31ZM1.91,5.17,3.28,6h0a5.14,5.14,0,0,0-.4,1.44H1.31A6.37,6.37,0,0,1,1.91,5.17Zm0,5.63a6.82,6.82,0,0,1-.58-2.21H2.9a4.71,4.71,0,0,0,.39,1.47V10Zm3,1.3-.79,1.38a6.52,6.52,0,0,1-1.61-1.62l1.37-.8h0a5.29,5.29,0,0,0,1.06,1Zm-1-7.18h0L2.53,4.11a6.53,6.53,0,0,1,1.6-1.59l.79,1.37h0a5,5,0,0,0-1,1ZM5.19,14.1,6,12.72H6a5.19,5.19,0,0,0,1.45.39h0V14.7A6.82,6.82,0,0,1,5.19,14.1Zm8.89-9a6.94,6.94,0,0,1,.61,2.19h-1.6a5.12,5.12,0,0,0-.38-1.39ZM8.6,1.31a6.65,6.65,0,0,1,2.18.58L10,3.26A5.65,5.65,0,0,0,8.6,2.9Zm0,13.38V13.1h0A5,5,0,0,0,10,12.71l.79,1.37a6.39,6.39,0,0,1-2.18.61Zm3.21-12.2a6.75,6.75,0,0,1,1.61,1.59l-1.37.8a5.26,5.26,0,0,0-1-1Zm.06,11-.79-1.37a5,5,0,0,0,1-1l1.38.79a6.59,6.59,0,0,1-1.56,1.6ZM12.74,10a5.31,5.31,0,0,0,.37-1.42h1.58a6.56,6.56,0,0,1-.57,2.21Z"/>
  </g>
</svg>
