<?xml version="1.0" encoding="utf-8"?>
<!-- Generator: Adobe Illustrator 23.0.3, SVG Export Plug-In . SVG Version: 6.00 Build 0)  -->
<svg version="1.1" id="レイヤー_1" xmlns="http://www.w3.org/2000/svg" xmlns:xlink="http://www.w3.org/1999/xlink" x="0px"
	 y="0px" width="27.5px" height="16px" viewBox="0 0 27.5 16" style="enable-background:new 0 0 27.5 16;" xml:space="preserve">
<style type="text/css">
	.st0{fill:none;}
</style>
<title>icon_tab-shooting</title>
<rect class="st0" width="27.5" height="16"/>
<g>
	<circle cx="14.2" cy="10.7" r="1.9"/>
	<rect x="9.6" y="10.3" width="1.7" height="0.9"/>
	<rect x="17.3" y="10.3" width="1.7" height="0.9"/>
	<rect x="10.7" y="13.1" transform="matrix(0.7071 -0.7071 0.7071 0.7071 -6.1562 12.1374)" width="1.7" height="0.9"/>
	<rect x="16.1" y="7.6" transform="matrix(0.7071 -0.7071 0.7071 0.7071 -0.7263 14.3869)" width="1.7" height="0.9"/>
	<rect x="13.8" y="13.8" width="0.9" height="1.7"/>
	<rect x="13.8" y="6.1" width="0.9" height="1.7"/>
	<rect x="16.6" y="12.6" transform="matrix(0.7071 -0.7071 0.7071 0.7071 -4.5659 15.9773)" width="0.9" height="1.7"/>
	<rect x="11.1" y="7.2" transform="matrix(0.7071 -0.7071 0.7071 0.7071 -2.3167 10.5474)" width="0.9" height="1.7"/>
	<polygon points="23.7,5.9 20.6,10 22.5,10 22.5,15.5 24.8,15.5 24.8,10 26.8,10 	"/>
	<path d="M2.1,13.7V4c0-0.2,0.1-0.3,0.3-0.3H16c0.2,0,0.3,0.1,0.3,0.3v1.8h1.5V4c0-1-0.8-1.8-1.8-1.8h-3l-1.4-1.8H6.7L5.3,2.3H2.4
		C1.4,2.3,0.7,3,0.7,4v9.7c0,1,0.8,1.8,1.8,1.8h7V14h-7C2.3,14,2.1,13.9,2.1,13.7z"/>
</g>
</svg>
