<svg id="レイヤー_1" data-name="レイヤー 1" xmlns="http://www.w3.org/2000/svg" width="57" height="16" viewBox="0 0 57 16">
  <defs>
    <style>
      .cls-1 {
        fill: none;
      }
    </style>
  </defs>
  <title>icon_oneshot</title>
  <path d="M6.15,0.93a3.91,3.91,0,0,1,1.3,1.35,7.92,7.92,0,0,1,.9,2.34A15,15,0,0,1,8.69,8a15,15,0,0,1-.33,3.38,7.79,7.79,0,0,1-.9,2.33,4,4,0,0,1-1.3,1.34,3,3,0,0,1-1.53.43,3,3,0,0,1-1.53-.43,3.91,3.91,0,0,1-1.31-1.34,7.75,7.75,0,0,1-.9-2.33A14.89,14.89,0,0,1,.55,8,14.91,14.91,0,0,1,.88,4.62a7.88,7.88,0,0,1,.9-2.34A3.87,3.87,0,0,1,3.09.93,3,3,0,0,1,4.63.5,3,3,0,0,1,6.15.93ZM6.76,8a16.17,16.17,0,0,0-.17-2.55,7.08,7.08,0,0,0-.46-1.69,2.31,2.31,0,0,0-.68-0.94,1.35,1.35,0,0,0-.82-0.29,1.38,1.38,0,0,0-.84.29,2.31,2.31,0,0,0-.68.94,7.09,7.09,0,0,0-.46,1.69A16,16,0,0,0,2.48,8a15.86,15.86,0,0,0,.17,2.54,7.09,7.09,0,0,0,.46,1.69,2.31,2.31,0,0,0,.68.94,1.37,1.37,0,0,0,.84.29,1.35,1.35,0,0,0,.82-0.29,2.31,2.31,0,0,0,.68-0.94,7.08,7.08,0,0,0,.46-1.69A16.05,16.05,0,0,0,6.76,8ZM17,15.28H14.74L11.34,3.93h0V15.28H9.63V0.7h2.22l3.39,11.46h0V0.7H17V15.28Zm6.71,0H18.17V0.7h5.38V2.85H20V6.73h3.3V8.86H20v4.31h3.65v2.11ZM33,11.11a6.45,6.45,0,0,1-.26,1.94A3.92,3.92,0,0,1,32,14.42a3,3,0,0,1-1.09.81,3.43,3.43,0,0,1-1.35.27,3.67,3.67,0,0,1-2.33-.63l0.11-2.38a2.64,2.64,0,0,0,.34.28,3.48,3.48,0,0,0,.5.29,3.55,3.55,0,0,0,.61.23,2.71,2.71,0,0,0,.71.09,1.45,1.45,0,0,0,1.08-.5,2.27,2.27,0,0,0,.47-1.6A2.07,2.07,0,0,0,30.72,10a5.23,5.23,0,0,0-1-1l-1-.76a4.32,4.32,0,0,1-1.21-1.51,5.22,5.22,0,0,1-.45-2.32,5.22,5.22,0,0,1,.26-1.72,3.66,3.66,0,0,1,.7-1.24,2.9,2.9,0,0,1,1-.75A3,3,0,0,1,30.31.5a3.83,3.83,0,0,1,1.37.22L32.46,1,32.37,3.26c-0.23-.13-0.5-0.27-0.8-0.42a2.6,2.6,0,0,0-1.11-.22,1.25,1.25,0,0,0-1.07.48A2,2,0,0,0,29,4.34a2.38,2.38,0,0,0,.09.7,2.09,2.09,0,0,0,.24.51,1.78,1.78,0,0,0,.34.4l0.42,0.35,1.1,0.88a6.8,6.8,0,0,1,.78.73,3.44,3.44,0,0,1,.55.82,4.15,4.15,0,0,1,.32,1A7.33,7.33,0,0,1,33,11.11Zm7.71,4.17H38.82V8.86h-3v6.43H33.91V0.7h1.88V6.64h3V0.7h1.88V15.28ZM47.31,0.93a3.9,3.9,0,0,1,1.3,1.35,7.88,7.88,0,0,1,.9,2.34A14.91,14.91,0,0,1,49.85,8a14.89,14.89,0,0,1-.33,3.38,7.75,7.75,0,0,1-.9,2.33,3.94,3.94,0,0,1-1.3,1.34,3,3,0,0,1-1.52.43,3,3,0,0,1-1.54-.43,3.91,3.91,0,0,1-1.31-1.34,7.79,7.79,0,0,1-.9-2.33A14.89,14.89,0,0,1,41.7,8,14.91,14.91,0,0,1,42,4.62a7.92,7.92,0,0,1,.9-2.34A3.86,3.86,0,0,1,44.25.93,3,3,0,0,1,45.78.5,3,3,0,0,1,47.31.93ZM47.91,8a16,16,0,0,0-.17-2.55,7.09,7.09,0,0,0-.46-1.69,2.31,2.31,0,0,0-.68-0.94,1.35,1.35,0,0,0-.82-0.29,1.38,1.38,0,0,0-.84.29,2.3,2.3,0,0,0-.68.94,7.08,7.08,0,0,0-.46,1.69A16,16,0,0,0,43.64,8a15.88,15.88,0,0,0,.17,2.54,7.08,7.08,0,0,0,.46,1.69,2.3,2.3,0,0,0,.68.94,1.37,1.37,0,0,0,.84.29,1.35,1.35,0,0,0,.82-0.29,2.31,2.31,0,0,0,.68-0.94,7.09,7.09,0,0,0,.46-1.69A15.86,15.86,0,0,0,47.91,8Zm8.54-5.16H54.18V15.28H52.3V2.85H50V0.7h6.43V2.85Z"/>
  <rect class="cls-1" width="57" height="16"/>
</svg>
