<svg id="レイヤー_1" data-name="レイヤー 1" xmlns="http://www.w3.org/2000/svg" width="15" height="16" viewBox="0 0 15 16">
  <defs>
    <style>
      .cls-1 {
        fill: none;
      }
    </style>
  </defs>
  <title>icon_mexp-exit</title>
  <path d="M7.72,14.55l-0.95.95L4.1,12.83,1.44,15.5l-0.95-.95,2.66-2.64L0.49,9.24l0.95-.93L4.1,11,6.77,8.31,7.72,9.24,5,11.91ZM4.94,2.74L4.28,3.89H3V9L2.43,8.4,1.89,7.86V2.74h3ZM2.27,11.91l-0.38.38V11.52L2.1,11.74Zm2.39,2.36H3.56l0.54-.54L4.35,14ZM8.47,5H5.65L7.06,2.6Zm6-1.1a3.68,3.68,0,0,1-.33,1.37c-0.05.11-.1,0.21-0.14,0.28l-0.14.23a6.77,6.77,0,0,1-.54.69c-0.22.25-.48,0.52-0.78,0.81l1.85,1.86H9.19V4l1.86,1.71a6.31,6.31,0,0,0,.54-0.5,2.29,2.29,0,0,0,.63-0.84,3.13,3.13,0,0,0,.14-0.69,1.88,1.88,0,0,0-.27-0.87A4.44,4.44,0,0,0,9.75,1.05,7.7,7.7,0,0,0,6.88.5a18.74,18.74,0,0,1,5,.49,3,3,0,0,1,.59.24q0.32,0.16.71,0.42a3.36,3.36,0,0,1,.95,1A2.49,2.49,0,0,1,14.51,3.94Zm-2.3,10.33H8.32l-0.51-.51-0.63-.63h3.89V10.39h1.14v3.87Z"/>
  <rect class="cls-1" width="15" height="16"/>
</svg>
