<svg id="レイヤー_1" data-name="レイヤー 1" xmlns="http://www.w3.org/2000/svg" width="23" height="16" viewBox="0 0 23 16">
  <defs>
    <style>
      .cls-1 {
        fill: none;
      }
    </style>
  </defs>
  <title>icon_mode-mov-aperture</title>
  <path d="M3.18,5.35V8.77L0.83,10.1V4.19ZM13.47,8L14,9.61a1.35,1.35,0,0,1-.35.91,1.06,1.06,0,0,1-.81.41H5.34a1.08,1.08,0,0,1-.83-0.41,1.24,1.24,0,0,1-.33-0.91V5.52a1.4,1.4,0,0,1,.33-0.95,1,1,0,0,1,.83-0.38h5.08l-2,5.42h3.16L12.17,8h1.3ZM8.1,11.81l0,0L6,15.46l-1-.72,1.71-2.93H8.1ZM14.54,0.5l3,8.1H15.73l-0.6-1.78h-3L11.45,8.6H9.64l3.07-8.1h1.83ZM11.4,11.81l1.69,3-1,.74L10,11.86l0.05-.05H11.4Zm1.16-6.32h2.09l-1-3h0Zm8-2.74h1.61l-2,5.85h-1.8l-2-5.85h1.67l1.24,4h0Z"/>
  <rect class="cls-1" width="23" height="16"/>
</svg>
