<?xml version="1.0" encoding="utf-8"?>
<!-- Generator: Adobe Illustrator 23.0.3, SVG Export Plug-In . SVG Version: 6.00 Build 0)  -->
<svg version="1.1" id="レイヤー_1" xmlns="http://www.w3.org/2000/svg" xmlns:xlink="http://www.w3.org/1999/xlink" x="0px"
	 y="0px" width="19px" height="16px" viewBox="0 0 19 16" style="enable-background:new 0 0 19 16;" xml:space="preserve">
<style type="text/css">
	.st0{fill:none;}
</style>
<title>icon_tab-shooting</title>
<rect class="st0" width="19" height="16"/>
<g>
	<path d="M13.2,7.4H8.7l-1-1.7H4.4L3.4,7.4H2.2c-0.6,0-1,0.5-1,1v6.1c0,0.6,0.5,1,1,1h11c0.6,0,1-0.5,1-1V8.4
		C14.2,7.8,13.8,7.4,13.2,7.4z M4.8,6.4h2.3v1.4H4.8V6.4z M12.2,14.4h-10V8.8h10V14.4z"/>
	<polygon points="12.1,5.7 9.9,5.7 12.1,3.3 12.1,2.7 8.9,2.7 8.9,3.3 11.1,3.3 8.9,5.7 8.9,6.3 12.1,6.3 	"/>
	<polygon points="17.8,0.5 13.3,0.5 13.3,1.3 16.3,1.3 13.3,4.6 13.3,5.3 17.8,5.3 17.8,4.6 14.7,4.6 17.8,1.3 	"/>
</g>
</svg>
