<svg id="レイヤー_1" data-name="レイヤー 1" xmlns="http://www.w3.org/2000/svg" width="39" height="16" viewBox="0 0 39 16">
  <defs>
    <style>
      .cls-1 {
        fill: none;
      }
    </style>
  </defs>
  <title>icon_regi-recall-func</title>
  <g>
    <path d="M27.45,3.1H22.92L22.76,2a1.45,1.45,0,0,0-1.5-1.4H16.05A1.45,1.45,0,0,0,14.55,2L14.41,3.1h-4A1.4,1.4,0,0,0,9,4.51V14.1a1.4,1.4,0,0,0,1.4,1.4h17a1.4,1.4,0,0,0,1.39-1.4V4.51A1.4,1.4,0,0,0,27.45,3.1ZM18.93,13a4,4,0,1,1,4-4A4,4,0,0,1,18.93,13Z"/>
    <path d="M38.24,1.12H33.39l1.46,1.46a13.47,13.47,0,0,1-2.23,3,12,12,0,0,1-3,2.33,6,6,0,0,0,3.23-.76A12.08,12.08,0,0,0,36.5,4.23L38.24,6V1.12Z"/>
    <path d="M7.54,9.11V4.27L6.08,5.73a13.25,13.25,0,0,1-3-2.23A12,12,0,0,1,.78.5a6,6,0,0,0,.76,3.23A12.05,12.05,0,0,0,4.43,7.38L2.7,9.11H7.54Z"/>
  </g>
  <rect class="cls-1" width="39" height="16"/>
</svg>
