<svg id="レイヤー_1" data-name="レイヤー 1" xmlns="http://www.w3.org/2000/svg" width="40" height="16" viewBox="0 0 40 16">
  <defs>
    <style>
      .cls-1 {
        fill: none;
      }
    </style>
  </defs>
  <title>icon_cal-lamp</title>
  <g>
    <path d="M11.62,3.13a5.8,5.8,0,0,0-3-.8A5.39,5.39,0,0,0,3,8a5.41,5.41,0,0,0,5.46,5.66A7,7,0,0,0,11.68,13l0.13,2a8.89,8.89,0,0,1-3.31.53c-4.6,0-7.64-3-7.64-7.55S4.09,0.5,8.51.5a8.11,8.11,0,0,1,3.27.62l-0.17,2"/>
    <path d="M20.12,0.75H22.3l6.13,14.49H26.18l-1.48-3.66H17.59L16.1,15.24H13.93L20.12,0.75m1,1.95L18.26,9.88H24Z"/>
    <polyline points="31.02 0.75 33.09 0.75 33.09 13.43 39.15 13.43 39.15 15.24 31.02 15.24 31.02 0.75"/>
  </g>
  <rect class="cls-1" width="40" height="16"/>
</svg>
