<?xml version="1.0" encoding="utf-8"?>
<!-- Generator: Adobe Illustrator 23.0.3, SVG Export Plug-In . SVG Version: 6.00 Build 0)  -->
<svg version="1.1" id="レイヤー_1" xmlns="http://www.w3.org/2000/svg" xmlns:xlink="http://www.w3.org/1999/xlink" x="0px"
	 y="0px" width="34px" height="16px" viewBox="0 0 34 16" style="enable-background:new 0 0 34 16;" xml:space="preserve">
<style type="text/css">
	.st0{fill:none;}
</style>
<title>icon_oneshot-ai-servo</title>
<rect x="0" y="0" class="st0" width="34" height="16"/>
<g>
	<path d="M6.6,2.8C6.4,2.4,6.1,2.1,5.8,1.9C5.4,1.6,5,1.5,4.5,1.5H1v13.1h1.7V9.9h1.8c0.5,0,0.9-0.1,1.3-0.4C6.1,9.3,6.4,9,6.6,8.6
		C6.8,8.2,7,7.8,7.1,7.3c0.1-0.5,0.1-1,0.1-1.6c0-0.5,0-1-0.1-1.6C7,3.6,6.8,3.2,6.6,2.8z M5.4,6.7C5.4,7,5.2,7.2,5.1,7.3
		C5,7.4,4.8,7.5,4.6,7.6C4.4,7.6,4.2,7.7,4,7.7H2.7V3.7H4c0.2,0,0.4,0,0.6,0.1c0.2,0,0.3,0.1,0.5,0.3c0.1,0.1,0.2,0.3,0.3,0.6
		c0.1,0.3,0.1,0.6,0.1,1S5.5,6.5,5.4,6.7z"/>
	<path d="M18.8,1.5l-3.4,13.1h2l0.7-2.9h3.3l0.7,2.9h2L20.8,1.5H18.8z M18.6,9.5l1.2-4.8h0l1.1,4.8H18.6z"/>
	<polygon points="9.8,1.5 8.7,1.5 8.7,14.6 9.8,14.6 10.5,14.6 14.1,14.6 14.1,12.7 10.5,12.7 10.5,8.7 14.1,8.7 14.1,6.8 10.5,6.8 
		10.5,3.4 14.1,3.4 14.1,1.5 10.5,1.5 	"/>
	<polygon points="33,14.6 28.4,7.7 32.4,1.7 30.3,1.7 27.2,6.2 27.2,1.5 25.4,1.5 25.4,14.6 27.2,14.6 27.2,9.3 30.9,14.6 	"/>
</g>
</svg>
