<?xml version="1.0" encoding="utf-8"?>
<!-- Generator: Adobe Illustrator 21.1.0, SVG Export Plug-In . SVG Version: 6.00 Build 0)  -->
<svg version="1.1" id="レイヤー_1" xmlns="http://www.w3.org/2000/svg" xmlns:xlink="http://www.w3.org/1999/xlink" x="0px"
	 y="0px" width="20.9px" height="16px" viewBox="0 0 20.9 16" style="enable-background:new 0 0 20.9 16;" xml:space="preserve">
<style type="text/css">
	.st0{fill:none;}
</style>
<title>icon_modedial-c1</title>
<rect class="st0" width="20.9" height="16"/>
<g>
	<path d="M6.1,6.2c0.3,0.3,0.6,0.5,0.9,0.7c0.4,0.2,0.8,0.3,1.3,0.3c0.3,0,0.6,0,0.8-0.1c0.3,0,0.5-0.1,0.6-0.2L9.8,5.8
		C9.6,5.9,9.5,6,9.3,6.1C9.1,6.1,8.8,6.2,8.5,6.2C8.3,6.2,8,6.1,7.8,6C7.6,6,7.4,5.8,7.2,5.6C7,5.4,6.9,5.2,6.8,4.9
		C6.7,4.6,6.7,4.3,6.7,3.8c0-0.4,0.1-0.8,0.2-1.1C6.9,2.5,7,2.2,7.2,2c0.2-0.2,0.4-0.3,0.6-0.4C8,1.5,8.3,1.5,8.5,1.5
		c0.3,0,0.6,0,0.8,0.1c0.2,0.1,0.4,0.2,0.5,0.2l0.1-1.1c-0.1,0-0.3-0.1-0.6-0.2C9,0.6,8.7,0.5,8.4,0.5c-0.5,0-0.9,0.1-1.3,0.3
		C6.7,0.9,6.4,1.2,6.1,1.5C5.9,1.8,5.7,2.1,5.6,2.5C5.4,2.9,5.4,3.4,5.4,3.8c0,0.5,0.1,0.9,0.2,1.3C5.7,5.6,5.9,5.9,6.1,6.2z"/>
	<path d="M11.4,1.5c0.2-0.1,0.4-0.1,0.6-0.1c0.1,0,0.3,0,0.4,0c0.1,0,0.2,0.1,0.3,0.2c0.1,0.1,0.2,0.2,0.2,0.3
		C13,2,13.1,2.2,13.1,2.3c0,0.2,0,0.4-0.1,0.5c-0.1,0.1-0.2,0.2-0.3,0.3c-0.1,0.1-0.3,0.1-0.5,0.1c-0.2,0-0.4,0-0.6,0h-0.2v0.9
		c0.1,0,0.1,0,0.2,0c0.1,0,0.2,0,0.3,0c0.1,0,0.3,0,0.4,0c0.1,0,0.3,0.1,0.4,0.2c0.1,0.1,0.2,0.2,0.3,0.3C13,4.8,13.1,5,13.1,5.1
		c0,0.3-0.1,0.6-0.3,0.8c-0.2,0.2-0.5,0.3-0.9,0.3c-0.3,0-0.6,0-0.8-0.1C10.8,6,10.7,6,10.5,5.9l-0.1,1C10.7,7,10.9,7,11.2,7.1
		c0.3,0.1,0.5,0.1,0.9,0.1c0.3,0,0.6,0,0.9-0.1c0.3-0.1,0.5-0.2,0.7-0.4c0.2-0.2,0.4-0.4,0.5-0.6c0.1-0.2,0.2-0.5,0.2-0.8
		c0-0.3,0-0.5-0.1-0.7c-0.1-0.2-0.2-0.3-0.3-0.4c-0.1-0.1-0.3-0.2-0.4-0.3c-0.2-0.1-0.3-0.1-0.5-0.1v0c0.1,0,0.2,0,0.4-0.1
		c0.1-0.1,0.3-0.1,0.4-0.2C13.9,3.2,14,3,14.1,2.9c0.1-0.2,0.1-0.4,0.1-0.7c0-0.5-0.2-0.9-0.5-1.2s-0.8-0.4-1.4-0.4
		c-0.4,0-0.7,0-1,0.1c-0.3,0.1-0.5,0.1-0.6,0.2l0.1,1C10.9,1.7,11.1,1.6,11.4,1.5z"/>
	<path d="M20.4,2.6c-0.1-0.2-0.1-0.4-0.3-0.5c-0.1-0.1-0.3-0.3-0.4-0.4c-0.2-0.1-0.4-0.1-0.7-0.1h-1.9v5h0.9V4.8h1
		c0.3,0,0.5,0,0.7-0.1c0.2-0.1,0.3-0.2,0.4-0.4c0.1-0.1,0.2-0.3,0.3-0.5c0.1-0.2,0.1-0.4,0.1-0.6C20.5,3,20.5,2.8,20.4,2.6z
		 M19.6,3.6c0,0.1-0.1,0.2-0.2,0.2c-0.1,0.1-0.2,0.1-0.3,0.1c-0.1,0-0.2,0-0.3,0h-0.7V2.5h0.7c0.1,0,0.2,0,0.3,0
		c0.1,0,0.2,0.1,0.3,0.1c0.1,0.1,0.1,0.1,0.2,0.2c0,0.1,0.1,0.2,0.1,0.4C19.6,3.4,19.6,3.5,19.6,3.6z"/>
	<path d="M8.9,2.2c-0.1,0-0.6-0.1-1,0C7.8,2.3,7.7,2.4,7.6,2.5C7.5,2.6,7.4,2.8,7.4,3c0,0,0,0,0,0C7.3,3.2,7.2,3.5,7.2,3.8
		c0,0.3,0,0.6,0.1,0.9c0.1,0.2,0.2,0.4,0.3,0.5C7.7,5.3,7.8,5.4,8,5.5c0.4,0.2,0.9,0.1,1,0c0.1,0,0.2-0.1,0.3-0.2l0.6-0.4l0,0
		l0.4-0.3l0,0.4l0.5,0.2c0.1,0.1,0.3,0.1,0.5,0.2c0.3,0.1,0.8,0.1,1-0.1c0,0,0.1-0.1,0.1-0.3l-0.1-0.2c-0.1,0-0.1-0.1-0.2-0.1
		c-0.1,0-0.2,0-0.3,0h-0.3L10.7,5l-0.1-0.8V3V2.7h0.8c0.2,0,0.3,0,0.5,0c0.1,0,0.2,0,0.3-0.1l0.1-0.2l-0.2-0.2c-0.2-0.1-0.4,0-0.7,0
		c-0.2,0-0.4,0.1-0.5,0.2l-0.6,0.3l0,0.2L9.4,2.4C9.3,2.4,9.1,2.3,8.9,2.2z"/>
	<path d="M14.6,3c0,0.1,0,0.1-0.1,0.2c-0.1,0.2-0.2,0.3-0.3,0.5c0.2,0.2,0.3,0.4,0.4,0.6c0.1,0.3,0.2,0.6,0.2,1
		c0,0.4-0.1,0.8-0.3,1.2C14.5,6.7,14.2,7,14,7.2c-0.3,0.2-0.6,0.4-1,0.5c-0.3,0.1-0.7,0.1-1,0.1c-0.4,0-0.7,0-1-0.1
		c-0.3-0.1-0.5-0.1-0.8-0.2l-0.1,0l-0.1,0C9.9,7.6,9.6,7.7,9.3,7.7C8.4,7.9,7.5,7.8,6.7,7.5C6.3,7.3,5.9,7,5.6,6.6
		C5.3,6.3,5,5.8,4.9,5.4c-0.2-0.5-0.2-1-0.2-1.5c0-0.1,0-0.1,0-0.2C4.5,3.9,4.4,4.1,4.4,4.4V9c0,0.2,0,0.4,0.1,0.6
		C4.6,9.7,4.7,9.9,4.8,10c0.1,0.1,0.3,0.2,0.4,0.3c0.2,0.1,0.3,0.1,0.5,0.1h8.7c0.2,0,0.4,0,0.5-0.1c0.2-0.1,0.3-0.2,0.4-0.3
		c0.1-0.1,0.2-0.3,0.3-0.5c0.1-0.2,0.1-0.4,0.1-0.6V4.4c0-0.4-0.1-0.8-0.4-1.1C15.2,3.1,14.9,3,14.6,3z"/>
	<polygon points="0.6,9.5 3.3,8.1 3.3,4.3 0.6,3 	"/>
	<polygon points="11.3,11.5 11.2,11.5 13.6,15.5 14.7,14.8 12.8,11.5 	"/>
	<polygon points="7.4,11.5 5.5,14.8 6.6,15.5 9,11.5 9,11.5 	"/>
</g>
</svg>
