<svg id="icon" xmlns="http://www.w3.org/2000/svg" width="21" height="16" viewBox="0 0 21 16">
  <defs>
    <style>
      .cls-1 {
        fill: none;
      }
    </style>
  </defs>
  <title>icon_wi-fi-error</title>
  <g>
    <path d="M18.24,9.5H15.76L14,11.26v2.49l1.76,1.76h2.49L20,13.74V11.26ZM17,10c.35,0,.52.2.52.6,0,.12,0,.4-.08.84l-.28,2.1h-.32l-.28-2.1c-.06-.44-.08-.71-.08-.84Q16.48,10,17,10Zm0,5a.55.55,0,1,1,.55-.55A.55.55,0,0,1,17,15Z"/>
    <g>
      <path d="M11,13.22a1.87,1.87,0,1,0-1.87,1.87A1.87,1.87,0,0,0,11,13.22"/>
      <path d="M9.17,9.12a4.08,4.08,0,0,1,2.63,1l1-1.21a5.66,5.66,0,0,0-7.29,0l1,1.21a4.08,4.08,0,0,1,2.63-1"/>
      <path d="M9.17,5.6a7.58,7.58,0,0,1,4.89,1.78l1-1.21a9.18,9.18,0,0,0-11.82,0l1,1.21A7.58,7.58,0,0,1,9.17,5.6"/>
      <path d="M9.17,2.08a11.08,11.08,0,0,1,7.15,2.61l1-1.21A12.69,12.69,0,0,0,1,3.48L2,4.69A11.09,11.09,0,0,1,9.17,2.08"/>
    </g>
  </g>
  <rect class="cls-1" width="21" height="16"/>
</svg>
