<?xml version="1.0" encoding="UTF-8"?>
<svg id="edge" xmlns="http://www.w3.org/2000/svg" width="19.5" height="16" version="1.1" viewBox="0 0 19.5 16">
  <!-- Generator: Adobe Illustrator 29.5.1, SVG Export Plug-In . SVG Version: 2.1.0 Build 141)  -->
  <defs>
    <style>
      .st0, .st1 {
        stroke: #fff;
        stroke-linejoin: round;
        stroke-width: 1.08px;
      }

      .st1 {
        stroke-linecap: round;
      }
    </style>
  </defs>
  <path class="st1" d="M6.36,8.79c.73,0,1.35.43,1.65,1.04h3.45c.59,0,1.07-.48,1.07-1.07V2.95c0-.59-.48-1.07-1.07-1.07h-2.37l-.84-1.46c-.12-.23-.36-.38-.63-.38h-2.58c-.07,0-.14.02-.21.04-.19.05-.35.18-.45.36l-.82,1.44H1.25C.67,1.88.19,2.36.19,2.95v5.82c0,.59.48,1.07,1.07,1.07h3.46c.3-.62.92-1.04,1.65-1.04ZM3.67,5.61c0-1.49,1.21-2.7,2.7-2.7s2.7,1.21,2.7,2.7-1.21,2.7-2.7,2.7-2.7-1.21-2.7-2.7Z"/>
  <path class="st1" d="M15.97,14.25v-1.53c0-.25-.21-.46-.46-.46H6.83v-.82c.27-.16.46-.45.46-.79,0-.51-.41-.92-.92-.92s-.92.41-.92.92c0,.34.19.63.46.79v2.82c-.27.16-.46.45-.46.79,0,.51.41.92.92.92s.92-.41.92-.92c0-.34-.19-.63-.46-.79v-1.07h3.65v1.07c-.27.16-.46.45-.46.79,0,.51.41.92.92.92s.92-.41.92-.92c0-.34-.19-.63-.46-.79v-1.07h3.65v1.07c-.27.16-.46.45-.46.79,0,.51.41.92.92.92s.92-.41.92-.92c0-.34-.19-.63-.46-.79Z"/>
  <path class="st0" d="M18.52,1.91v5.3h.79v1.05h-.79v1.61h-1.26v-1.61h-3.13v-1.23l2.83-5.12h1.55ZM17.26,3.61c-.14.27-.3.56-.47.87-.17.31-.35.62-.52.94s-.35.63-.52.94c-.17.31-.33.6-.47.87h1.98v-3.61Z"/>
  <path d="M6.36,8.79c.73,0,1.35.43,1.65,1.04h3.45c.59,0,1.07-.48,1.07-1.07V2.95c0-.59-.48-1.07-1.07-1.07h-2.37l-.84-1.46c-.12-.23-.36-.38-.63-.38h-2.58c-.07,0-.14.02-.21.04-.19.05-.35.18-.45.36l-.82,1.44H1.25C.67,1.88.19,2.36.19,2.95v5.82c0,.59.48,1.07,1.07,1.07h3.46c.3-.62.92-1.04,1.65-1.04ZM3.67,5.61c0-1.49,1.21-2.7,2.7-2.7s2.7,1.21,2.7,2.7-1.21,2.7-2.7,2.7-2.7-1.21-2.7-2.7Z"/>
  <path d="M15.97,14.25v-1.53c0-.25-.21-.46-.46-.46H6.83v-.82c.27-.16.46-.45.46-.79,0-.51-.41-.92-.92-.92s-.92.41-.92.92c0,.34.19.63.46.79v2.82c-.27.16-.46.45-.46.79,0,.51.41.92.92.92s.92-.41.92-.92c0-.34-.19-.63-.46-.79v-1.07h3.65v1.07c-.27.16-.46.45-.46.79,0,.51.41.92.92.92s.92-.41.92-.92c0-.34-.19-.63-.46-.79v-1.07h3.65v1.07c-.27.16-.46.45-.46.79,0,.51.41.92.92.92s.92-.41.92-.92c0-.34-.19-.63-.46-.79Z"/>
  <path d="M18.52,1.91v5.3h.79v1.05h-.79v1.61h-1.26v-1.61h-3.13v-1.23l2.83-5.12h1.55ZM17.26,3.61c-.14.27-.3.56-.47.87-.17.31-.35.62-.52.94s-.35.63-.52.94c-.17.31-.33.6-.47.87h1.98v-3.61Z"/>
</svg>