<svg id="レイヤー_1" data-name="レイヤー 1" xmlns="http://www.w3.org/2000/svg" width="30" height="16" viewBox="0 0 30 16">
  <defs>
    <style>
      .cls-1 {
        fill: none;
      }
    </style>
  </defs>
  <title>icon_one-touch-img-quality-h</title>
  <path d="M27.74,4.06V7.2H24.23V4.06H22.66v7.85h1.58V8.77h3.51v3.14h1.58V4.06H27.74ZM3,13.47A2.26,2.26,0,0,1,2.58,15a1.34,1.34,0,0,1-1.08.48,1.86,1.86,0,0,1-.82-0.17v-1a1.41,1.41,0,0,0,.53.12c0.46,0,.69-0.32.69-1V8.78H3v4.69ZM4.89,4.65A1,1,0,0,0,4.2,3.87v0a1.32,1.32,0,0,0,.88-0.5,1.68,1.68,0,0,0,.34-1.07A1.62,1.62,0,0,0,3.53.51H1.09v6.7H2.26V4.45H3a0.86,0.86,0,0,1,.88.7L4.49,7.21H5.72ZM3.19,3.29H2.26V1.72H3.19c0.68,0,1,.06,1,0.7S3.87,3.29,3.19,3.29ZM6.48,8.78H4.61v6.65h1.2V13.08H6.48a1.81,1.81,0,0,0,2.06-2A2,2,0,0,0,6.48,8.78ZM6.26,11.9H5.82V9.95H6.26A1,1,0,0,1,7.33,11C7.33,11.77,7,11.9,6.26,11.9ZM9.86,0.5H8.49L6.17,7.2H7.44L7.93,5.64h2.36L10.78,7.2h1.31Zm-1.67,4,1-2.94h0L10,4.47H8.19Zm5,11H9.71V8.78h3.53V9.95H10.91v1.57h1.93v1.17H10.91v1.57h2.33v1.17ZM19.91,0.51l-1.48,6.7H16.88L15.82,1.71h0L14.66,7.21H13.12l-1.44-6.7H12.9l1,5.16h0L15,0.51h1.58l1.06,5.16h0l1-5.16h1.19ZM19.12,15.09a5.4,5.4,0,0,1-1.92.37,3.08,3.08,0,0,1-2.36-.88A3.51,3.51,0,0,1,14,12.15a3.19,3.19,0,0,1,3.34-3.43,2.66,2.66,0,0,1,1.4.44v1.57a2,2,0,0,0-3.59,1.36,2,2,0,0,0,2.08,2.26,1.43,1.43,0,0,0,.7-0.13V12.7H16.76V11.52h2.36v3.57Z"/>
  <rect class="cls-1" width="30" height="16"/>
</svg>
