<svg id="レイヤー_1" data-name="レイヤー 1" xmlns="http://www.w3.org/2000/svg" width="31" height="16" viewBox="0 0 31 16">
  <defs>
    <style>
      .cls-1 {
        fill: none;
      }
    </style>
  </defs>
  <title>icon_fps-50_00</title>
  <rect class="cls-1" width="31" height="16"/>
  <path d="M30.22,14.19a1.31,1.31,0,0,1-1.31,1.31H2.07a1.23,1.23,0,0,1-.91-0.38,1.27,1.27,0,0,1-.38-0.92V1.79A1.24,1.24,0,0,1,1.15.88,1.24,1.24,0,0,1,2.07.5H28.92a1.27,1.27,0,0,1,.92.38,1.23,1.23,0,0,1,.38.91v12.4ZM6.2,9.92A4.49,4.49,0,0,0,6,8.59a3,3,0,0,0-.48-1,2,2,0,0,0-.7-0.57A1.93,1.93,0,0,0,4,6.87a3,3,0,0,0-.46,0A1.6,1.6,0,0,0,3.11,7V4.17h2.7V3.11H2.14V8.25A6.6,6.6,0,0,1,2.86,8a2.35,2.35,0,0,1,.61-0.08,1.5,1.5,0,0,1,1.24.55,2.51,2.51,0,0,1,.44,1.6,2.86,2.86,0,0,1-.45,1.65,1.4,1.4,0,0,1-1.22.65,1.86,1.86,0,0,1-.73-0.17,2.91,2.91,0,0,1-.64-0.37l0,1.18a3.39,3.39,0,0,0,.76.3,3.09,3.09,0,0,0,.8.11,2.17,2.17,0,0,0,1.92-1A4.49,4.49,0,0,0,6.2,9.92Zm5.25-1.68a9.89,9.89,0,0,0-.59-3.89A1.87,1.87,0,0,0,9.14,3,1.88,1.88,0,0,0,7.41,4.34a9.76,9.76,0,0,0-.6,3.89,9.76,9.76,0,0,0,.6,3.89,1.88,1.88,0,0,0,1.73,1.32,1.87,1.87,0,0,0,1.72-1.32A9.89,9.89,0,0,0,11.45,8.23Zm-1,0a11.5,11.5,0,0,1-.31,3.16,1.13,1.13,0,0,1-1,1,1.14,1.14,0,0,1-1-1,11.13,11.13,0,0,1-.32-3.16,11.23,11.23,0,0,1,.32-3.17,1.14,1.14,0,0,1,1-1,1.13,1.13,0,0,1,1,1A11.6,11.6,0,0,1,10.44,8.23Zm2.9,5.1V11.71H12.23v1.63h1.11Zm5.42-5.1a9.79,9.79,0,0,0-.6-3.89A1.89,1.89,0,0,0,16.44,3a1.87,1.87,0,0,0-1.72,1.32,9.89,9.89,0,0,0-.59,3.89,9.89,9.89,0,0,0,.59,3.89,1.87,1.87,0,0,0,1.72,1.32,1.89,1.89,0,0,0,1.73-1.32A9.79,9.79,0,0,0,18.77,8.23Zm-1,0a11.13,11.13,0,0,1-.32,3.16,1.14,1.14,0,0,1-1,1,1.13,1.13,0,0,1-1-1,11.5,11.5,0,0,1-.31-3.16,11.6,11.6,0,0,1,.31-3.17,1.13,1.13,0,0,1,1-1,1.14,1.14,0,0,1,1,1A11.23,11.23,0,0,1,17.77,8.23Zm6,0a9.79,9.79,0,0,0-.6-3.89,1.79,1.79,0,0,0-3.45,0,9.92,9.92,0,0,0-.59,3.89,9.93,9.93,0,0,0,.59,3.89,1.79,1.79,0,0,0,3.45,0A9.79,9.79,0,0,0,23.8,8.23Zm-1,0a11.14,11.14,0,0,1-.32,3.16,1.14,1.14,0,0,1-1,1,1.13,1.13,0,0,1-1-1,11.5,11.5,0,0,1-.31-3.16,11.6,11.6,0,0,1,.31-3.17,1.13,1.13,0,0,1,1-1,1.14,1.14,0,0,1,1,1A11.24,11.24,0,0,1,22.79,8.23ZM28.92,6a4.12,4.12,0,0,0-.16-1.21,2.63,2.63,0,0,0-.46-0.9,2.38,2.38,0,0,0-.73-0.58,2.21,2.21,0,0,0-1-.21H24.64V13.33h1V9.07h0.68a2.41,2.41,0,0,0,1.93-.77A3.43,3.43,0,0,0,28.92,6Zm-1.06.13a2.26,2.26,0,0,1-.38,1.37A1.5,1.5,0,0,1,26.19,8H25.64V4.17h0.57a1.61,1.61,0,0,1,1.22.45A2.16,2.16,0,0,1,27.86,6.14Z"/>
</svg>
