<?xml version="1.0" encoding="UTF-8"?>
<svg id="_レイヤー_1" data-name="レイヤー 1" xmlns="http://www.w3.org/2000/svg" width="22.49" height="16" viewBox="0 0 22.49 16">
  <defs>
    <style>
      .cls-1 {
        fill: #fff;
      }

      .cls-2 {
        fill: none;
      }
    </style>
  </defs>
  <rect class="cls-2" width="22.49" height="16"/>
  <rect x=".95" y=".59" width="20.87" height="14.94" rx="1.58" ry="1.58"/>
  <path class="cls-1" d="m11.29,13.24h-2.62l-2.68-4.56c-.05-.09-.13-.28-.24-.58h-.03v5.14h-2.07V2.74h2.07v4.97h.03c.05-.14.14-.33.26-.59l2.54-4.38h2.47l-3.21,5.01,3.49,5.49Z"/>
  <path class="cls-1" d="m13.21,13.49v-.88l1.04-1.1c2.49-2.59,3.61-3.96,3.63-5.56,0-1.08-.48-2.08-1.93-2.08-.88,0-1.62.49-2.07.9l-.42-1.01c.67-.62,1.63-1.08,2.76-1.08,2.1,0,2.98,1.57,2.98,3.09,0,1.96-1.3,3.55-3.36,5.71l-.78.79v.03h4.38v1.19h-6.23Z"/>
</svg>