<svg id="レイヤー_1" data-name="レイヤー 1" xmlns="http://www.w3.org/2000/svg" width="16" height="16" viewBox="0 0 16 16">
  <defs>
    <style>
      .cls-1 {
        fill: none;
      }
    </style>
  </defs>
  <title>icon_sub-dial</title>
  <path d="M15.5,8a7.23,7.23,0,0,1-.59,2.91,7.53,7.53,0,0,1-4,4A7.22,7.22,0,0,1,8,15.5a7.27,7.27,0,0,1-2.92-.59A7.68,7.68,0,0,1,2.7,13.3a7.55,7.55,0,0,1-1.61-2.38A7.25,7.25,0,0,1,.5,8,7.3,7.3,0,0,1,1.09,5.1a7.58,7.58,0,0,1,4-4A7.27,7.27,0,0,1,8,.5a7.22,7.22,0,0,1,2.91.59A7.53,7.53,0,0,1,13.3,2.7,7.67,7.67,0,0,1,14.91,5.1,7.28,7.28,0,0,1,15.5,8Zm-0.64.14H12.41V7.83h2.45a7,7,0,0,0-.13-1.19,6.36,6.36,0,0,0-.33-1.1l-2.27.92L12,6.17l2.27-.92a6.93,6.93,0,0,0-1.38-2L11.17,5l-0.23-.23L12.68,3a6.64,6.64,0,0,0-2-1.3L9.77,4l-0.3-.11,0.94-2.27a6.74,6.74,0,0,0-1.09-.3,7.2,7.2,0,0,0-1.15-.12V3.59H7.85V1.17a7.11,7.11,0,0,0-1.24.14,7.62,7.62,0,0,0-1.16.33L6.38,3.89,6.09,4,5.17,1.77a6.47,6.47,0,0,0-1,.57,8,8,0,0,0-.89.72L5,4.77,4.77,5,3,3.29a6.14,6.14,0,0,0-.74.9,6.33,6.33,0,0,0-.57,1.05L4,6.17l-0.12.3L1.62,5.55a6.55,6.55,0,0,0-.47,2.29H3.59V8.15H1.15a6.75,6.75,0,0,0,.14,1.2,7.12,7.12,0,0,0,.33,1.13l2.24-.94L4,9.85l-2.26.92A6.16,6.16,0,0,0,3,12.65L4.7,11,4.92,11.2l-1.71,1.7a8.35,8.35,0,0,0,.92.74,6.78,6.78,0,0,0,1,.59L6.09,12l0.3,0.12L5.45,14.36a6.41,6.41,0,0,0,2.39.48V12.41H8.17v2.44a7.2,7.2,0,0,0,1.15-.12,6.62,6.62,0,0,0,1.09-.3L9.47,12.17,9.77,12,10.7,14.3a6.32,6.32,0,0,0,2-1.36L11,11.24,11.24,11,13,12.73a6.45,6.45,0,0,0,1.33-2L12,9.85l0.12-.3,2.27,0.94a6.73,6.73,0,0,0,.33-1.13A7.24,7.24,0,0,0,14.86,8.15Z"/>
  <rect class="cls-1" width="16" height="16"/>
</svg>
