<svg xmlns="http://www.w3.org/2000/svg" width="23" height="16" viewBox="0 0 23 16">
  <defs>
    <style>
      .cls-1 {
        fill: none;
      }
    </style>
  </defs>
  <g id="base">
    <rect id="AF_mode_single_spot_detail" class="cls-1" width="23" height="16"/>
  </g>
  <g id="icon">
    <g>
      <g>
        <path d="M3.32,15.57a.6.6,0,0,1-.63-.6.54.54,0,0,1,.59-.57H5.4V13.22A5.23,5.23,0,0,1,.76,8V5.68a.63.63,0,0,1,.6-.56.57.57,0,0,1,.57.52V8A4.05,4.05,0,0,0,6,12.09a4.14,4.14,0,0,0,2-.54A4.07,4.07,0,0,0,10,8V5.65a.54.54,0,0,1,.56-.54.61.61,0,0,1,.61.53V8a5.23,5.23,0,0,1-4.64,5.18V14.4H8.64A.57.57,0,0,1,9.2,15a.62.62,0,0,1-.54.6H3.32Z"/>
        <path d="M8.64,3.23a2.66,2.66,0,0,0-5.32,0V8A2.66,2.66,0,0,0,8.64,8Z"/>
      </g>
      <g>
        <rect x="12.9" y="14.42" width="9.34" height="1.15"/>
        <polygon points="19.43 6.93 15.7 6.93 15.7 9.82 13.21 9.82 17.57 13.85 21.92 9.82 19.43 9.82 19.43 6.93"/>
      </g>
    </g>
  </g>
</svg>
