<svg id="レイヤー_1" data-name="レイヤー 1" xmlns="http://www.w3.org/2000/svg" width="30" height="16" viewBox="0 0 30 16">
  <defs>
    <style>
      .cls-1 {
        fill: none;
      }
    </style>
  </defs>
  <title>icon_lens-off</title>
  <path d="M11.34,7.87A9.41,9.41,0,0,1,9.9,13.59,4.81,4.81,0,0,1,5.83,15.5a4.67,4.67,0,0,1-3.91-2A7.07,7.07,0,0,1,.85,11.22,11.47,11.47,0,0,1,.47,8.15,9.41,9.41,0,0,1,1.93,2.43,4.82,4.82,0,0,1,6,.5,4.75,4.75,0,0,1,8.21,1,4.81,4.81,0,0,1,9.9,2.48,7.17,7.17,0,0,1,11,4.8,11.47,11.47,0,0,1,11.34,7.87Zm-1.93,0a12.28,12.28,0,0,0-.19-2.17,6.89,6.89,0,0,0-.59-1.86,3.68,3.68,0,0,0-1.05-1.3A2.53,2.53,0,0,0,6,2a3,3,0,0,0-1.39.32,3,3,0,0,0-1.13,1A5.87,5.87,0,0,0,2.7,5.29a12.17,12.17,0,0,0-.29,2.86,12.83,12.83,0,0,0,.18,2.17,6.76,6.76,0,0,0,.59,1.87,3.62,3.62,0,0,0,1.06,1.31,2.57,2.57,0,0,0,1.59.5,3,3,0,0,0,1.37-.32,3.06,3.06,0,0,0,1.14-1,5.74,5.74,0,0,0,.78-1.89A12.26,12.26,0,0,0,9.42,7.87ZM20.55,2.25H15.81v4.7h4.5v1.6h-4.5v6.81H14V0.64h6.57v1.6Zm9,0H24.8v4.7h4.5v1.6H24.8v6.81H23V0.64h6.57v1.6Z"/>
  <rect class="cls-1" width="30" height="16"/>
</svg>
