<svg id="レイヤー_1" data-name="レイヤー 1" xmlns="http://www.w3.org/2000/svg" width="27" height="16" viewBox="0 0 27 16">
  <defs>
    <style>
      .cls-1 {
        fill: none;
      }
    </style>
  </defs>
  <title>icon_dci</title>
  <g>
    <g>
      <rect class="cls-1" x="1.35" y="1.55" width="1.92" height="2.04"/>
      <rect class="cls-1" x="1.35" y="4.76" width="1.92" height="2.06"/>
      <path d="M0.87,0.5V11h1l0.44-1h-1V8H3.28l0.5-1.09V1.53H17.07V3.35h1V0.5H0.87ZM3.28,6.82H1.35V4.76H3.28V6.82Zm0-3.23H1.35v-2H3.28v2Z"/>
    </g>
    <path d="M7.7,11.72V4.52H5.89L2.75,11.37v1.82H6.19v2.25H7.7V13.19h1V11.72h-1Zm-1.51,0H3.94L6.17,6.53h0v5.19Z"/>
    <polygon points="16.51 15.44 14.51 15.44 11.78 10.32 11.73 10.32 11.73 15.44 10.07 15.44 10.07 4.52 11.73 4.52 11.73 9.16 11.78 9.16 14.37 4.52 16.27 4.52 13.2 9.67 16.51 15.44"/>
    <rect x="15.49" y="8.84" width="2.59" height="0.96"/>
    <path d="M25.12,5.9a3.43,3.43,0,0,0-3-1.38H20v11h2.16a3.78,3.78,0,0,0,1.59-.33,3.33,3.33,0,0,0,1.26-1,5.1,5.1,0,0,0,.82-1.71,8.79,8.79,0,0,0,.3-2.42A7,7,0,0,0,25.12,5.9Zm-1.2,7A2,2,0,0,1,22,14H21.52V6.07H22a2,2,0,0,1,1.89,1.07,5.89,5.89,0,0,1,.6,2.88A5.89,5.89,0,0,1,23.92,12.9Z"/>
  </g>
  <rect class="cls-1" width="27" height="16"/>
</svg>
