<svg id="icon" xmlns="http://www.w3.org/2000/svg" width="18.06" height="16" viewBox="0 0 18.06 16">
  <g>
    <polygon points="5.14 14.57 1.43 14.57 1.43 1.43 5.14 1.43 5.14 0 0 0 0 16 5.14 16 5.14 14.57"/>
    <polygon points="12.92 1.43 16.64 1.43 16.64 14.57 12.92 14.57 12.92 16 18.07 16 18.07 0 12.92 0 12.92 1.43"/>
  </g>
  <path d="M9,10.54c.25-.26.49-.54.73-.83a11.06,11.06,0,0,0,.67-.93,7,7,0,0,0,.56-1,5.63,5.63,0,0,0,.38-1,3.5,3.5,0,0,0,.14-1,2.78,2.78,0,0,0-.19-1.1,2.1,2.1,0,0,0-.52-.76,2.21,2.21,0,0,0-.8-.43,3.41,3.41,0,0,0-1-.14,5.06,5.06,0,0,0-.68,0,5.84,5.84,0,0,0-.63.13,4.23,4.23,0,0,0-.57.2A3.14,3.14,0,0,0,6.69,4l.2,1.41a3.84,3.84,0,0,1,.42-.27l.52-.23a4,4,0,0,1,.53-.17,2.25,2.25,0,0,1,.49-.06A1,1,0,0,1,9.67,5a1.6,1.6,0,0,1,.26,1,2.33,2.33,0,0,1-.16.82,5.81,5.81,0,0,1-.44.91,10.25,10.25,0,0,1-.62.95c-.24.32-.49.63-.74.94s-.51.6-.76.87l-.71.77V12.5h5.06V11.23H8.31A9.18,9.18,0,0,0,9,10.54Z"/>
</svg>
