<svg xmlns="http://www.w3.org/2000/svg" width="16" height="16" viewBox="0 0 16 16">
  <defs>
    <style>
      .cls-1 {
        fill: none;
      }

      .cls-2 {
        fill: blue;
      }
    </style>
  </defs>
  <g id="frame">
    <rect class="cls-1" width="16" height="16"/>
  </g>
  <g id="_b">
    <g>
      <g>
        <g>
          <path d="M6.93,8.18,9.05,15.5H7.78l-.44-1.73H5.17L4.73,15.5H3.46L5.58,8.18ZM6.25,9.31s0,0,0,.06a.28.28,0,0,0,0,.09s0,.07,0,.1,0,0,0,.06l-.81,3.1H7.12L6.3,9.63Z"/>
          <path d="M11.36,8.18a3,3,0,0,1,1,.16,1.9,1.9,0,0,1,.71.44,1.92,1.92,0,0,1,.43.7,3,3,0,0,1,.14.93,2.93,2.93,0,0,1-.14.93,1.92,1.92,0,0,1-.43.7,1.9,1.9,0,0,1-.71.44,2.78,2.78,0,0,1-1,.16h-.44V15.5H9.74V8.18Zm0,3.45a1.29,1.29,0,0,0,.51-.09.76.76,0,0,0,.34-.24,1.07,1.07,0,0,0,.2-.38,2,2,0,0,0,.06-.51,1.34,1.34,0,0,0-.27-.88,1,1,0,0,0-.84-.34h-.43v2.44Z"/>
          <path d="M14.56,15.5V8.18h1.19V15.5Z"/>
        </g>
        <g>
          <path class="cls-2" d="M6.93,8.18,9.05,15.5H7.78l-.44-1.73H5.17L4.73,15.5H3.46L5.58,8.18ZM6.25,9.31s0,0,0,.06a.28.28,0,0,0,0,.09s0,.07,0,.1,0,0,0,.06l-.81,3.1H7.12L6.3,9.63Z"/>
          <path class="cls-2" d="M11.36,8.18a3,3,0,0,1,1,.16,1.9,1.9,0,0,1,.71.44,1.92,1.92,0,0,1,.43.7,3,3,0,0,1,.14.93,2.93,2.93,0,0,1-.14.93,1.92,1.92,0,0,1-.43.7,1.9,1.9,0,0,1-.71.44,2.78,2.78,0,0,1-1,.16h-.44V15.5H9.74V8.18Zm0,3.45a1.29,1.29,0,0,0,.51-.09.76.76,0,0,0,.34-.24,1.07,1.07,0,0,0,.2-.38,2,2,0,0,0,.06-.51,1.34,1.34,0,0,0-.27-.88,1,1,0,0,0-.84-.34h-.43v2.44Z"/>
          <path class="cls-2" d="M14.56,15.5V8.18h1.19V15.5Z"/>
        </g>
      </g>
      <path class="cls-2" d="M4.73,8a2.58,2.58,0,1,1,3-.12l0,.09.56,1.9h.53V8.18a.88.88,0,0,1,.88-.87h1.62a3.64,3.64,0,0,1,.67.05V3.28a1,1,0,0,0-1-1H8.76L8,.86A.69.69,0,0,0,7.36.5H4.9a.71.71,0,0,0-.2,0,.72.72,0,0,0-.43.34L3.49,2.26H1.27a1,1,0,0,0-1,1V8.83a1,1,0,0,0,1,1H4.19Z"/>
    </g>
  </g>
</svg>
