<svg id="icon" xmlns="http://www.w3.org/2000/svg" width="18.06" height="16" viewBox="0 0 18.06 16">
  <g>
    <polygon points="5.14 14.57 1.43 14.57 1.43 1.43 5.14 1.43 5.14 0 0 0 0 16 5.14 16 5.14 14.57"/>
    <polygon points="12.92 1.43 16.64 1.43 16.64 14.57 12.92 14.57 12.92 16 18.06 16 18.06 0 12.92 0 12.92 1.43"/>
  </g>
  <path d="M11.32,8.81A1.64,1.64,0,0,0,11,8.4a2.48,2.48,0,0,0-.37-.29,2.26,2.26,0,0,0-.39-.18,2.8,2.8,0,0,0-.36-.1h0a2.13,2.13,0,0,0,.53-.19,2,2,0,0,0,.94-1,2.59,2.59,0,0,0,.15-.93,2.45,2.45,0,0,0-.16-.91,2.16,2.16,0,0,0-.5-.73A2.43,2.43,0,0,0,10,3.53a3.41,3.41,0,0,0-1.16-.18A5.46,5.46,0,0,0,8,3.42a4.81,4.81,0,0,0-.68.17,3.94,3.94,0,0,0-.5.18l-.26.12.09,1.36A2.12,2.12,0,0,1,7,5.06a2.9,2.9,0,0,1,.47-.21A4.64,4.64,0,0,1,8,4.69a1.89,1.89,0,0,1,.51-.07,2,2,0,0,1,.56.08,1.15,1.15,0,0,1,.44.23,1.06,1.06,0,0,1,.29.4,1.5,1.5,0,0,1,.1.58,1.48,1.48,0,0,1-.14.67,1.07,1.07,0,0,1-.36.4,1.18,1.18,0,0,1-.49.2,2.64,2.64,0,0,1-.55.06H7.53V8.45h.81A3.08,3.08,0,0,1,9,8.52a1.65,1.65,0,0,1,.54.24,1.12,1.12,0,0,1,.38.45,1.45,1.45,0,0,1,.15.7,1.81,1.81,0,0,1-.12.71,1.32,1.32,0,0,1-.33.45,1.22,1.22,0,0,1-.45.24,1.73,1.73,0,0,1-.5.07,3.78,3.78,0,0,1-.56,0,5.67,5.67,0,0,1-.57-.1L7,11.08l-.42-.18-.1,1.36a4.13,4.13,0,0,0,.45.17,3.33,3.33,0,0,0,.5.12,3.53,3.53,0,0,0,.59.07q.33,0,.75,0A4,4,0,0,0,10,12.46a2.5,2.5,0,0,0,.9-.53,2.08,2.08,0,0,0,.53-.8,2.91,2.91,0,0,0,.18-1,3.26,3.26,0,0,0-.08-.73A2.52,2.52,0,0,0,11.32,8.81Z"/>
</svg>
