<svg id="レイヤー_1" data-name="レイヤー 1" xmlns="http://www.w3.org/2000/svg" width="30" height="16" viewBox="0 0 30 16">
  <defs>
    <style>
      .cls-1 {
        fill: none;
      }
    </style>
  </defs>
  <title>icon_metering-af-start</title>
  <g>
    <path d="M8.53,4.41A2,2,0,0,0,6.48,6.47,2,2,0,0,0,8.53,8.52a2.06,2.06,0,0,0,2.05-2.06A2,2,0,0,0,10,5,2,2,0,0,0,8.53,4.41Zm4,1.33a4,4,0,0,0-4-3.32,3.92,3.92,0,0,0-2.59.94A3.89,3.89,0,0,0,4.56,5.75H5.78a2.82,2.82,0,0,1,1-1.54,2.83,2.83,0,0,1,3.48,0,2.78,2.78,0,0,1,1,1.54h1.21ZM16,0.88A1.25,1.25,0,0,0,15.08.5H9.46V1.43h5.41a0.51,0.51,0,0,1,.51.51V7.33l1-3.75V1.81A1.26,1.26,0,0,0,16,.88ZM1.8,11.36A0.49,0.49,0,0,1,1.65,11V1.94A0.48,0.48,0,0,1,1.8,1.58a0.5,0.5,0,0,1,.36-0.15H7.58V0.5H2A1.25,1.25,0,0,0,1,.88a1.26,1.26,0,0,0-.38.92v9.32a1.25,1.25,0,0,0,.38.92,1.27,1.27,0,0,0,.92.38H7.58V11.51H2.17A0.5,0.5,0,0,1,1.8,11.36Zm7.66,1.08h4.43l0.26-.93H9.47v0.93Zm3-5.26H11.28A2.85,2.85,0,0,1,8.53,9.31a2.75,2.75,0,0,1-1.75-.6,2.79,2.79,0,0,1-1-1.54H4.56A3.88,3.88,0,0,0,5.94,9.55a4,4,0,0,0,5.18,0A3.9,3.9,0,0,0,12.49,7.17Z"/>
    <path d="M17.78,2.71H19.6l3,12.79H21l-0.72-2.74H17L16.32,15.5H14.75ZM18.65,5L17.49,11h2.32Z"/>
    <polygon points="24.59 15.5 26.44 15.5 26.44 9.58 29.09 9.58 29.09 7.88 26.44 7.88 26.44 4.62 29.33 4.62 29.33 2.6 24.59 2.6 24.59 15.5"/>
  </g>
  <rect class="cls-1" width="30" height="16"/>
</svg>
