<svg xmlns="http://www.w3.org/2000/svg" width="41" height="16" viewBox="0 0 41 16">
  <defs>
    <style>
      .cls-1 {
        isolation: isolate;
      }

      .cls-2 {
        mix-blend-mode: multiply;
      }

      .cls-3 {
        fill: none;
      }
    </style>
  </defs>
  <title>icon_le-mf-1shot-d</title>
  <g class="cls-1">
    <g id="レイヤー_1" data-name="レイヤー 1">
      <g>
        <g>
          <g class="cls-2">
            <path d="M8.73,6H7.58l0-1H6.41a2.24,2.24,0,0,0-2,2.5,2.24,2.24,0,0,0,2,2.5H7.59v1H8.73a2.24,2.24,0,0,0,2-2.5A2.24,2.24,0,0,0,8.73,6ZM9.28,2H7.57V1H5.88C3.07,1,.8,3.92.8,7.51S3.07,14,5.88,14H7.59v1H9.28c2.8,0,5.08-2.91,5.08-6.5S12.08,2,9.28,2ZM8.9,13H7.58V12H6.21c-2,0-3.59-2-3.59-4.48S4.23,3,6.21,3H7.57V4H8.9c2,0,3.58,2,3.58,4.49S10.89,13,8.9,13Z"/>
          </g>
          <g>
            <polygon points="19.49 6.6 15.6 6.6 15.6 8.68 19.49 8.68 19.49 10.87 22.48 7.64 19.49 4.41 19.49 6.6"/>
            <path d="M28.25,2.79a2.35,2.35,0,0,0-1.68-.72,2.63,2.63,0,0,0-2.3,1.52,8.1,8.1,0,0,0-.85,4,9,9,0,0,0,.36,2.57,4.58,4.58,0,0,0,1.09,2,2.34,2.34,0,0,0,1.7.75,2.39,2.39,0,0,0,1.63-.67,4.2,4.2,0,0,0,1.13-1.92,9.44,9.44,0,0,0,.39-2.8,9.64,9.64,0,0,0-.37-2.77A4.44,4.44,0,0,0,28.25,2.79Zm-0.35,7.61a1.41,1.41,0,0,1-2.66,0,5.7,5.7,0,0,1-.57-2.77,6.18,6.18,0,0,1,.59-3.14,1.58,1.58,0,0,1,1.32-.88,1.29,1.29,0,0,1,1,.44,3.09,3.09,0,0,1,.69,1.34,7.9,7.9,0,0,1,.25,2.1A6.07,6.07,0,0,1,27.91,10.39Z"/>
            <polygon points="30.4 12.72 31.62 12.72 31.62 8.14 34.51 8.14 34.51 6.55 31.62 6.55 31.62 3.83 34.95 3.83 34.95 2.24 30.4 2.24 30.4 12.72"/>
            <polygon points="40.2 3.83 40.2 2.24 35.65 2.24 35.65 12.72 36.87 12.72 36.87 8.14 39.76 8.14 39.76 6.55 36.87 6.55 36.87 3.83 40.2 3.83"/>
          </g>
        </g>
        <rect class="cls-3" width="41" height="16"/>
      </g>
    </g>
  </g>
</svg>
