<svg xmlns="http://www.w3.org/2000/svg" width="39" height="16" viewBox="0 0 39 16">
  <defs>
    <style>
      .cls-1 {
        isolation: isolate;
      }

      .cls-2 {
        mix-blend-mode: multiply;
      }

      .cls-3 {
        fill: none;
      }
    </style>
  </defs>
  <title>icon_le-mf-1shot-e</title>
  <g class="cls-1">
    <g id="レイヤー_1" data-name="レイヤー 1">
      <g>
        <g>
          <g class="cls-2">
            <path d="M8.77,6H7.62l0-1H6.45a2.24,2.24,0,0,0-2,2.5,2.24,2.24,0,0,0,2,2.5H7.63v1H8.77a2.24,2.24,0,0,0,2-2.5A2.24,2.24,0,0,0,8.77,6ZM9.32,2H7.61V1H5.92C3.11,1,.84,3.92.84,7.51S3.11,14,5.92,14H7.63v1H9.32c2.8,0,5.08-2.91,5.08-6.5S12.12,2,9.32,2ZM8.94,13H7.62V12H6.25c-2,0-3.59-2-3.59-4.48S4.27,3,6.25,3H7.61V4H8.94c2,0,3.58,2,3.58,4.49S10.93,13,8.94,13Z"/>
          </g>
          <g>
            <polygon points="19.53 6.6 15.64 6.6 15.64 8.68 19.53 8.68 19.53 10.87 22.52 7.64 19.53 4.41 19.53 6.6"/>
            <path d="M30.09,3.2a2.76,2.76,0,0,0-1.82-.68A2.91,2.91,0,0,0,25.78,4a6.87,6.87,0,0,0-.94,3.84,7.51,7.51,0,0,0,.4,2.45,4.24,4.24,0,0,0,1.2,1.87,2.73,2.73,0,0,0,1.84.7A2.83,2.83,0,0,0,30,12.19a4,4,0,0,0,1.24-1.83,7.85,7.85,0,0,0,.43-2.67,8.05,8.05,0,0,0-.4-2.64A4.16,4.16,0,0,0,30.09,3.2Zm-0.34,7.22a1.66,1.66,0,0,1-3,0,4.73,4.73,0,0,1-.62-2.61,5.16,5.16,0,0,1,.64-3A1.8,1.8,0,0,1,28.28,4a1.55,1.55,0,0,1,1.07.43A2.79,2.79,0,0,1,30.1,5.7a6.54,6.54,0,0,1,.27,2A5.06,5.06,0,0,1,29.75,10.42Z"/>
            <polygon points="36.9 2.69 36.9 9.5 33.74 2.81 33.69 2.69 32.44 2.69 32.44 12.66 33.7 12.66 33.7 5.84 36.86 12.55 36.91 12.66 38.16 12.66 38.16 2.69 36.9 2.69"/>
          </g>
        </g>
        <rect class="cls-3" width="39" height="16"/>
      </g>
    </g>
  </g>
</svg>
