<svg xmlns="http://www.w3.org/2000/svg" width="17" height="16" viewBox="0 0 17 16">
  <defs>
    <style>
      .cls-1 {
        fill: none;
      }

      .cls-2 {
        opacity: 0.2;
      }

      .cls-3 {
        opacity: 0.25;
      }

      .cls-4 {
        opacity: 0.4;
      }

      .cls-5 {
        opacity: 0.5;
      }

      .cls-6 {
        opacity: 0.6;
      }
    </style>
  </defs>
  <g id="base">
    <rect class="cls-1" width="17" height="16"/>
  </g>
  <g id="icon">
    <g>
      <path d="M4,11.56a5,5,0,0,0,3,1.79.36.36,0,0,1,.3.5.59.59,0,0,1-.59.39,5.69,5.69,0,0,1-3.51-2.06A5.7,5.7,0,0,1,2,8.28a.6.6,0,0,1,.52-.48.36.36,0,0,1,.41.41,5.07,5.07,0,0,0,1,3.35"/>
      <path d="M2.63,12.6A5.85,5.85,0,0,0,5,14.41a.38.38,0,0,1,.17.57.55.55,0,0,1-.63.28,6.37,6.37,0,0,1-2.7-2A6.35,6.35,0,0,1,.51,10.1a.57.57,0,0,1,.43-.55.37.37,0,0,1,.5.31A5.82,5.82,0,0,0,2.63,12.6"/>
      <path d="M14.3,3.18a5.92,5.92,0,0,0-2.37-1.81.37.37,0,0,1-.18-.56.57.57,0,0,1,.64-.29,6.4,6.4,0,0,1,2.7,2.05,6.52,6.52,0,0,1,1.33,3.11.56.56,0,0,1-.43.55.37.37,0,0,1-.5-.31A6,6,0,0,0,14.3,3.18"/>
      <path d="M14.45,8.53H11.56l-2,2v2.89l2,2h2.89l2-2V10.57ZM13,9.15c.42,0,.63.25.63.73a8.92,8.92,0,0,1-.1.94l-.32,2.41h-.43l-.32-2.41c-.06-.5-.09-.81-.09-.94C12.38,9.4,12.59,9.15,13,9.15Zm0,5.72a.66.66,0,1,1,0-1.32.66.66,0,0,1,0,1.32Z"/>
      <path class="cls-2" d="M8.67,10.57a.84.84,0,0,1,.25-.6l2-2a.86.86,0,0,1,.6-.25H13A3.88,3.88,0,0,0,9,3.3,5.47,5.47,0,0,0,3.81,7.89a3.89,3.89,0,0,0,3.94,4.59,4.63,4.63,0,0,0,.92-.09Z"/>
      <path class="cls-2" d="M8.67,10.57a.84.84,0,0,1,.25-.6l2-2a.86.86,0,0,1,.6-.25h1.32A3.77,3.77,0,0,0,9,3.43,5.3,5.3,0,0,0,3.94,7.89a3.78,3.78,0,0,0,3.83,4.46,4.43,4.43,0,0,0,.9-.09Z"/>
      <path class="cls-3" d="M8.67,10.57a.84.84,0,0,1,.25-.6l2-2a.86.86,0,0,1,.6-.25h1.12A3.61,3.61,0,0,0,9,3.63,5.07,5.07,0,0,0,4.14,7.89,3.62,3.62,0,0,0,7.8,12.15a4.14,4.14,0,0,0,.87-.09Z"/>
      <path class="cls-3" d="M8.67,10.57a.84.84,0,0,1,.25-.6l2-2a.86.86,0,0,1,.6-.25h.91A3.42,3.42,0,0,0,9,3.84,4.83,4.83,0,0,0,4.34,7.89,3.45,3.45,0,0,0,7.83,12a3.86,3.86,0,0,0,.84-.09Z"/>
      <path class="cls-3" d="M8.67,10.57a.84.84,0,0,1,.25-.6l2-2a.86.86,0,0,1,.6-.25h.71A3.25,3.25,0,0,0,8.94,4,4.57,4.57,0,0,0,4.55,7.89a3.27,3.27,0,0,0,3.31,3.85,4.36,4.36,0,0,0,.81-.08Z"/>
      <path class="cls-4" d="M8.67,10.57a.84.84,0,0,1,.25-.6l2-2a.86.86,0,0,1,.6-.25h.51A3.08,3.08,0,0,0,8.91,4.24,4.35,4.35,0,0,0,4.75,7.89a3.1,3.1,0,0,0,3.14,3.65,4,4,0,0,0,.78-.08Z"/>
      <path class="cls-5" d="M8.67,10.57a.84.84,0,0,1,.25-.6l2-2a.86.86,0,0,1,.6-.25h.31a2.92,2.92,0,0,0-3-3.24A4.11,4.11,0,0,0,5,7.89a2.92,2.92,0,0,0,3,3.45,3.16,3.16,0,0,0,.76-.09Z"/>
      <path class="cls-6" d="M8.67,10.57a.84.84,0,0,1,.25-.6l2-2a.86.86,0,0,1,.6-.25h.1a2.73,2.73,0,0,0-2.8-3A3.87,3.87,0,0,0,5.15,7.89a2.76,2.76,0,0,0,2.79,3.25,2.92,2.92,0,0,0,.73-.09Z"/>
      <path d="M10,2.43a5,5,0,0,1,3,1.79,4.94,4.94,0,0,1,1,3.35s0,.07,0,.11h.46a.94.94,0,0,1,.34.07.42.42,0,0,0,.12-.25,5.7,5.7,0,0,0-1.15-3.9,5.68,5.68,0,0,0-3.5-2.06.58.58,0,0,0-.59.39A.36.36,0,0,0,10,2.43Z"/>
    </g>
  </g>
</svg>
