<svg xmlns="http://www.w3.org/2000/svg" width="17" height="15" viewBox="0 0 17 15">
  <defs>
    <style>
      .cls-1 {
        fill: none;
      }

      .cls-2 {
        fill: #fff;
      }
    </style>
  </defs>
  <g id="base">
    <rect class="cls-1" width="17" height="15"/>
  </g>
  <g id="_w">
    <path class="cls-2" d="M16,7.5a12.62,12.62,0,0,1-9.24,7A13.3,13.3,0,0,1,5.9,13,11,11,0,0,0,14.21,7.5,11,11,0,0,0,5.9,2,13.3,13.3,0,0,1,6.74.5,12.62,12.62,0,0,1,16,7.5ZM3.72,7.5a13.23,13.23,0,0,1,.39-3.23L1,7.5l3.09,3.23A13.23,13.23,0,0,1,3.72,7.5Zm2.63,0a7.14,7.14,0,0,0,1.27,4.07,7.2,7.2,0,0,0,0-8.14A7.14,7.14,0,0,0,6.35,7.5Z" transform="translate(0 0)"/>
  </g>
</svg>
