<svg id="レイヤー_1" data-name="レイヤー 1" xmlns="http://www.w3.org/2000/svg" width="18" height="18" viewBox="0 0 18 18">
  <defs>
    <style>
      .cls-1 {
        fill: none;
      }
    </style>
  </defs>
  <title>icon_ps-sharpness</title>
  <path d="M9,0.6a7.84,7.84,0,0,1,3.3.7,9,9,0,0,1,4.5,4.5,8.84,8.84,0,0,1,.7,3.3,7.84,7.84,0,0,1-.7,3.3,8.27,8.27,0,0,1-4.5,4.5,9.28,9.28,0,0,1-3.3.7,7.54,7.54,0,0,1-3.3-.7,9,9,0,0,1-4.5-4.5A8.84,8.84,0,0,1,.5,9.1a7.84,7.84,0,0,1,.7-3.3A8.27,8.27,0,0,1,5.7,1.3,7.54,7.54,0,0,1,9,.6ZM4.4,3.4V3a0.38,0.38,0,0,0-.2.2l-0.3.2V14.7h0V14.2H4.4V13.3H4V12.4H4.5V11.5H4V10.6H4.5V9.7H4V8.8H4.5V7.9H4V7H4.5V6.1H4V5.2H4.5V4.3H4v-1H4.4V3.4ZM4.4,15h0Zm3.2,0.9v0.5a5.9,5.9,0,0,0,1.4.2,8,8,0,0,0,3-.6V2c-0.5-.2-0.9-0.3-1.4-0.5A9.15,9.15,0,0,0,9,1.4a2.77,2.77,0,0,0-.9.1,2.92,2.92,0,0,0-.9.2H7.6V2.6H6.7V1.8l-0.5.1V2.5H6.7V3.3H6.2V4.2H6.7V5.1H6.2V6H5.3V7H5.8V6.1H6.7V7H6.2V7.9H5.3V8.8H5.8V7.9H6.7V8.8H6.2V9.7H5.3v0.9H5.8V9.7H6.7v0.9H6.2v0.9H6.7v0.9H6.2v0.9H6.7v0.9H6.2V15H5.3v0.6l0.2,0.1,0.2,0.1V15H6.6v0.9H5.9L6.3,16l0.4,0.1V15.8l0.9,0.1h0ZM5.3,2.5h0ZM5.8,3.4V2.5H5.3V3.3H5.8V3.4Zm-0.5.9V5.2H5.8V4.3H5.3Zm0.5,8.1V11.5H5.3v0.9H5.8Zm-0.5.9v0.9H5.8V13.3H5.3ZM7.6,3.4V4.3H6.7V3.4H7.6Zm0,2.7H6.7V5.2H7.6V6.1h0Zm0,1.8H6.7V7H7.6V7.9Zm0,1.8H6.7V8.8H7.6V9.7h0Zm0,0.9v0.9H6.7V10.6H7.6Zm0,1.8v0.9H6.7V12.4H7.6Zm0,2.6H6.7V14.1H7.6V15h0ZM8.5,3.4H7.6V2.5H8.5V3.4Zm0,1.8H7.6V4.3H8.5V5.2h0Zm0,0.9V7H7.6V6.1H8.5Zm0,1.8V8.8H7.6V7.9H8.5Zm0,1.7v0.9H7.6V9.7l0.9-.1h0Zm0,2.7H7.6V11.4H8.5v0.9h0Zm0,1.8H7.6V13.3H8.5v0.8h0Zm0,0.9v0.9H7.6V15H8.5Zm4-12.8V15.7a7.78,7.78,0,0,0,2.4-2h0V4.3a8.25,8.25,0,0,0-2.4-2.1h0Zm3.7,9V6.8c-0.1-.2-0.1-0.4-0.2-0.6a1.42,1.42,0,0,0-.2-0.6v6.8a1.42,1.42,0,0,0,.2-0.6,0.85,0.85,0,0,0,.2-0.6h0Z"/>
  <rect class="cls-1" width="18" height="18"/>
</svg>
