<?xml version="1.0" encoding="utf-8"?>
<!-- Generator: Adobe Illustrator 23.0.3, SVG Export Plug-In . SVG Version: 6.00 Build 0)  -->
<svg version="1.1" id="レイヤー_1" xmlns="http://www.w3.org/2000/svg" xmlns:xlink="http://www.w3.org/1999/xlink" x="0px"
	 y="0px" width="16px" height="16px" viewBox="0 0 16 16" style="enable-background:new 0 0 16 16;" xml:space="preserve">
<style type="text/css">
	.st0{fill:none;}
</style>
<title>icon_quick</title>
<rect y="0" class="st0" width="16" height="16"/>
<g>
	<path d="M15.4,1.6c-0.2-0.5-0.5-0.8-1-1c-0.2-0.1-0.5-0.2-0.7-0.1H2.4c-0.3,0-0.5,0-0.7,0.1C1.4,0.7,1.2,0.9,1,1
		C0.8,1.2,0.7,1.4,0.6,1.6C0.5,1.9,0.5,2.1,0.5,2.4v11.3c0,0.3,0,0.5,0.2,0.7c0.2,0.4,0.6,0.8,1,1c0.2,0.1,0.5,0.2,0.7,0.2h11.3
		c0.3,0,0.5,0,0.7-0.2c0.2-0.1,0.4-0.2,0.6-0.4c0.2-0.2,0.3-0.4,0.4-0.6c0.1-0.2,0.2-0.5,0.2-0.7l0,0V2.4
		C15.5,2.1,15.5,1.9,15.4,1.6z M12.2,12.6l-0.8,0.8L10,12.2c-0.4,0.2-0.7,0.4-1.1,0.4c-0.4,0.1-0.8,0.1-1.1,0.1
		c-0.7,0-1.4-0.1-2-0.4c-0.6-0.3-1.1-0.7-1.4-1.1c-0.4-0.5-0.6-1-0.8-1.6C3.3,9,3.2,8.4,3.2,7.7s0.1-1.4,0.3-2S4,4.6,4.4,4.1
		c0.4-0.4,0.8-0.8,1.4-1C6.4,2.8,7,2.7,7.7,2.7S9,2.8,9.6,3.1c0.6,0.3,1.1,0.7,1.4,1.1c0.4,0.4,0.7,1,1,1.5c0.2,0.6,0.3,1.3,0.3,2
		s-0.1,1.4-0.3,2s-0.6,1.2-1,1.7L12.2,12.6z"/>
	<path d="M10,5.2C9.8,4.9,9.5,4.6,9.1,4.4C8.7,4.2,8.2,4,7.8,4.1C7.3,4,6.8,4.2,6.4,4.4C6.1,4.6,5.8,4.9,5.5,5.2
		C5.3,5.5,5.1,5.9,5,6.3C4.9,6.8,4.8,7.2,4.8,7.7s0,1,0.2,1.4c0.1,0.4,0.3,0.8,0.5,1.1S6,10.8,6.4,11s0.9,0.3,1.3,0.3
		c0.2,0,0.4,0,0.6,0c0.2,0,0.4-0.1,0.5-0.2l-1-1l0.8-0.9l1.1,1C10,9.8,10.2,9.4,10.4,9c0.1-0.5,0.2-0.9,0.2-1.4l0,0
		c0-0.5-0.1-0.9-0.2-1.3C10.4,6,10.2,5.6,10,5.2z"/>
</g>
</svg>
