<svg id="icon" xmlns="http://www.w3.org/2000/svg" width="50.65" height="16" viewBox="0 0 50.65 16">
  <g>
    <g>
      <path d="M3.78.31A7.63,7.63,0,0,1,6.09.63a4.6,4.6,0,0,1,1.66.93A3.93,3.93,0,0,1,8.75,3a5.48,5.48,0,0,1,.33,2,5.46,5.46,0,0,1-.33,2,3.77,3.77,0,0,1-1,1.47,4.6,4.6,0,0,1-1.66.93,7.31,7.31,0,0,1-2.31.33h-1v6H0V.31Zm0,7.24A3.47,3.47,0,0,0,5,7.37a2,2,0,0,0,.8-.52,2,2,0,0,0,.45-.8A3.53,3.53,0,0,0,6.35,5a2.7,2.7,0,0,0-.62-1.86,2.57,2.57,0,0,0-2-.7h-1V7.55Z"/>
      <path d="M18.84,8a1.36,1.36,0,0,1-.33.22l-.34.18,3.09,7.33H18.41l-2.6-6.79-.28,0H14v6.75H11.25V.31h4.19a8.72,8.72,0,0,1,1,.06,4.85,4.85,0,0,1,.95.2,4.36,4.36,0,0,1,.85.35,4.77,4.77,0,0,1,.74.5,5.15,5.15,0,0,1,.58.64,2.94,2.94,0,0,1,.43.7,4.16,4.16,0,0,1,.34,1.67,4.69,4.69,0,0,1-.66,2.62,4.49,4.49,0,0,1-.36.46A3.54,3.54,0,0,1,18.84,8ZM14,6.81h1.16a3.94,3.94,0,0,0,1-.12,2,2,0,0,0,.78-.38,1.77,1.77,0,0,0,.51-.68,2.6,2.6,0,0,0,.18-1A2,2,0,0,0,17,3a2.73,2.73,0,0,0-1.84-.55H14Z"/>
      <path d="M25.9,8.84v4.72h5.39v2.12H23.13V.31h8V2.43H25.9V6.72h4.69V8.84Z"/>
    </g>
    <path d="M42.65,0a8,8,0,1,0,8,8A8,8,0,0,0,42.65,0Zm3,11.59a2.47,2.47,0,0,1-.63.95,2.78,2.78,0,0,1-1.06.62,4.43,4.43,0,0,1-1.48.22l-.85,0a6.45,6.45,0,0,1-.69-.09,3.28,3.28,0,0,1-.58-.14,4.36,4.36,0,0,1-.53-.2l-.06,0,.14-1.76.13.07a2.53,2.53,0,0,0,.46.2,4.57,4.57,0,0,0,.59.17,6.06,6.06,0,0,0,.64.12,2.82,2.82,0,0,0,1.16,0,1.38,1.38,0,0,0,.48-.25,1.36,1.36,0,0,0,.35-.48,1.92,1.92,0,0,0,.13-.78,1.52,1.52,0,0,0-.16-.75,1.28,1.28,0,0,0-.41-.48,1.61,1.61,0,0,0-.58-.26A3.05,3.05,0,0,0,42,8.61H41V7h1.08A3.15,3.15,0,0,0,42.7,7a1.32,1.32,0,0,0,.53-.22,1.14,1.14,0,0,0,.38-.43,1.47,1.47,0,0,0,.15-.71A1.64,1.64,0,0,0,43.65,5a1.11,1.11,0,0,0-.3-.43,1.16,1.16,0,0,0-.47-.24,2.19,2.19,0,0,0-1.17,0,5.76,5.76,0,0,0-.59.18,5.27,5.27,0,0,0-.53.23l-.4.21L40.06,5,40,3.27l0,0a1.61,1.61,0,0,1,.31-.16,4.41,4.41,0,0,1,.57-.21,6.41,6.41,0,0,1,.8-.18,4.87,4.87,0,0,1,1-.08,4.26,4.26,0,0,1,1.35.2,2.86,2.86,0,0,1,1,.58,2.28,2.28,0,0,1,.59.87,2.82,2.82,0,0,1,.2,1.06,3,3,0,0,1-.19,1.1,2.46,2.46,0,0,1-.48.77,2.26,2.26,0,0,1-.62.47,2.58,2.58,0,0,1-.31.13l.09,0a2.73,2.73,0,0,1,.46.22,2.21,2.21,0,0,1,.43.34,1.8,1.8,0,0,1,.37.48,2.84,2.84,0,0,1,.26.66,3.63,3.63,0,0,1,.09.85A3.57,3.57,0,0,1,45.65,11.59Z"/>
  </g>
</svg>
