<?xml version="1.0" encoding="utf-8"?>
<!-- Generator: Adobe Illustrator 23.0.3, SVG Export Plug-In . SVG Version: 6.00 Build 0)  -->
<svg version="1.1" id="レイヤー_1" xmlns="http://www.w3.org/2000/svg" xmlns:xlink="http://www.w3.org/1999/xlink" x="0px"
	 y="0px" width="15.9px" height="16px" viewBox="0 0 15.9 16" style="enable-background:new 0 0 15.9 16;" xml:space="preserve">
<style type="text/css">
	.st0{fill:none;}
</style>
<title>icon_card1_2</title>
<rect y="0" class="st0" width="15.9" height="16"/>
<g>
	<path d="M13.7,14.3c0,0.3-0.1,0.6-0.4,0.8c-0.2,0.2-0.5,0.4-0.9,0.4h-9c-0.3,0-0.6-0.1-0.9-0.4s-0.4-0.5-0.4-0.8V1.7
		c0-0.3,0.1-0.6,0.4-0.9S3,0.5,3.4,0.5h5.8c0.6,0.6,1.1,1.1,1.5,1.5s0.8,0.8,1.1,1.1s0.6,0.6,0.8,0.8s0.4,0.4,0.6,0.6
		C13.5,4.8,13.7,5,13.7,5V14.3z M12.6,5.5c-1-1-1.7-1.7-2.2-2.2C9.8,2.7,9.5,2.4,9.2,2.1C9,1.8,8.8,1.7,8.8,1.6H3.4H3.3l0,0v12.6
		l0.1,0.1h9.1c0,0,0.1,0,0.1-0.1V5.5z M10,11.9H5.5v-1.1c0.2-0.2,0.4-0.4,0.7-0.7c0.3-0.3,0.7-0.6,1-1S7.8,8.4,8.1,8
		c0.3-0.4,0.4-0.7,0.4-1S8.4,6.5,8.1,6.3C7.9,6.1,7.6,6.1,7.4,6.1s-0.6,0-0.9,0.1C6.3,6.3,6,6.5,5.8,6.6L5.7,5.5C6.3,5.2,7,5,7.7,5
		c0.6,0,1.2,0.2,1.6,0.5C9.6,5.8,9.8,6.3,9.8,7c0,0.4-0.1,0.7-0.2,1.1C9.4,8.4,9.2,8.7,9,9c-0.3,0.4-0.6,0.7-0.9,1
		c-0.3,0.3-0.6,0.6-0.9,0.9H10V11.9z"/>
</g>
</svg>
