<svg id="レイヤー_1" data-name="レイヤー 1" xmlns="http://www.w3.org/2000/svg" width="27" height="16" viewBox="0 0 27 16">
  <defs>
    <style>
      .cls-1 {
        fill: none;
      }
    </style>
  </defs>
  <path d="M1.41,10.12a.85.85,0,0,1-.6-.24.85.85,0,0,1,0-1.2.82.82,0,0,1,.6-.25.79.79,0,0,1,.6.25.84.84,0,0,1-.6,1.44ZM3,4.76,5.25,6.45l.46.36.41.39L7.68,8.79,6.3,10.17,4.71,8.61q-.21-.21-.39-.42T4,7.74L2.28,5.53a.53.53,0,0,1-.17-.37.58.58,0,0,1,.17-.4.5.5,0,0,1,.37-.16A.52.52,0,0,1,3,4.76Zm.57,8.92a.8.8,0,0,1-.61.25.8.8,0,0,1-.59-.25.82.82,0,0,1,0-1.2.84.84,0,0,1,1.2,0,.87.87,0,0,1,.26.6A.79.79,0,0,1,3.6,13.68ZM5.94,3.91a.82.82,0,0,1,.25-.61.85.85,0,0,1,1.2,0,.86.86,0,0,1,.25.61.82.82,0,0,1-.25.59.84.84,0,0,1-1.2,0A.78.78,0,0,1,5.94,3.91Zm0,10.75a.82.82,0,0,1,.25-.61.85.85,0,0,1,1.2,0,.86.86,0,0,1,.25.61.82.82,0,0,1-.25.59.84.84,0,0,1-1.2,0A.78.78,0,0,1,5.94,14.66Zm5.25-8.57a.8.8,0,0,1-.6.25.85.85,0,0,1-.85-.85A.85.85,0,0,1,10,4.88a.82.82,0,0,1,.6-.25.8.8,0,0,1,.6.25.87.87,0,0,1,.26.61A.83.83,0,0,1,11.19,6.09ZM10,13.68a.85.85,0,0,1,.6-1.45.8.8,0,0,1,.6.25.82.82,0,0,1,0,1.2.81.81,0,0,1-.6.26A.83.83,0,0,1,10,13.68Zm2.18-3.56a.81.81,0,0,1-.59-.24.84.84,0,0,1,0-1.2.78.78,0,0,1,.59-.25.82.82,0,0,1,.6.25.82.82,0,0,1,0,1.2A.85.85,0,0,1,12.17,10.12Zm4.06-8.43v2.8L13.9,5.58v-5Zm10.21-.33V5.85a.85.85,0,0,1-.86.85H17.94a.81.81,0,0,1-.61-.25.79.79,0,0,1-.25-.6V1.36a.82.82,0,0,1,.25-.6A.82.82,0,0,1,17.94.5h7.64a.83.83,0,0,1,.61.26A.86.86,0,0,1,26.44,1.36Zm-6.91,6.2h1.3L18.9,10.92l-1-.57Zm4.46,0,1.62,2.79-1,.57L22.68,7.56Z"/>
  <rect class="cls-1" width="27" height="16"/>
</svg>
