<svg id="レイヤー_1" data-name="レイヤー 1" xmlns="http://www.w3.org/2000/svg" width="30" height="26" viewBox="0 0 30 26">
  <defs>
    <style>
      .cls-1 {
        fill: #fff;
      }

      .cls-2 {
        fill: none;
      }
    </style>
  </defs>
  <title>icon_warning</title>
  <path class="cls-1" d="M29.62,23.64c0.85,1.5-.06,2.36-1.09,2.36h-27c-1.26,0-2.12-1.27-1-3L13.68,1.35C14.51,0,15.77-.77,16.86,1.17Zm-1.91.45-0.06.09-12.28-22L2.17,24ZM15,19.31a1.72,1.72,0,0,1,1.73,1.74A1.76,1.76,0,0,1,15,22.79a1.81,1.81,0,0,1-1.77-1.74A1.77,1.77,0,0,1,15,19.31m2.21-10.9s-0.44,2.56-.77,5c-0.35,2.86-.29,4.48-1.44,4.48S13.77,14,13.77,13.34c0-.15-0.38-4.71-0.38-4.92a1.92,1.92,0,0,1,2-1.86,2.1,2.1,0,0,1,1.88,1.86"/>
  <rect class="cls-2" width="30" height="26"/>
</svg>
