<svg id="artwork" xmlns="http://www.w3.org/2000/svg" width="43" height="16" viewBox="0 0 43 16">
  <defs>
    <style>
      .cls-1 {
        fill: #231815;
      }

      .cls-2 {
        fill: none;
      }
    </style>
  </defs>
  <g>
    <path class="cls-1" d="M6.41,12.13h0C6.61,11,7.19,8.12,9,.75h3.22v14.5h-2V8c0-1,.05-3.74.1-5.28h0c-.3,1.48-.92,4.2-2.91,12.55H5.45C3.42,6.94,2.82,3.89,2.63,2.7h0C2.66,4.24,2.66,7,2.66,8v7.27h-2V.75H3.92C5.71,8.15,6.26,11,6.41,12.13Z"/>
    <path class="cls-1" d="M17.87,7V9.12h-4V7Z"/>
    <path class="cls-1" d="M25.58.75V3H21.7V6.77h3.72V9H21.7v6.27H19.58V.75Z"/>
    <path class="cls-1" d="M33.89,8.1v7.15H31.84V8.58c0-1.37-.4-2.1-1.22-2.1a1.36,1.36,0,0,0-1.28,1A4.59,4.59,0,0,0,29.11,9v6.23H27.05V6.32c0-.58,0-1.27-.06-1.77h1.9l0,1.58H29a2.48,2.48,0,0,1,2.4-1.83C33.15,4.3,33.89,5.82,33.89,8.1Z"/>
    <path class="cls-1" d="M36.91,8.85V6.77a4.1,4.1,0,0,0,.57,0c1.82,0,2.62-.88,2.62-2.27a1.73,1.73,0,0,0-1.94-1.89,4.63,4.63,0,0,0-2.35.69l-.1-2.21A6,6,0,0,1,38.34.5c2.38,0,3.89,1.31,3.89,3.68,0,2-1,3.2-2.43,3.47v.06c1.57.21,2.55,1.58,2.55,3.59a4,4,0,0,1-4.3,4.2A7.26,7.26,0,0,1,35.41,15l.13-2.26a5.55,5.55,0,0,0,2.38.6,2.05,2.05,0,0,0,2.26-2.24c0-1.5-.83-2.29-2.68-2.29C37.34,8.83,37.15,8.83,36.91,8.85Z"/>
  </g>
  <rect class="cls-2" width="43" height="16"/>
</svg>
