<svg id="レイヤー_1" data-name="レイヤー 1" xmlns="http://www.w3.org/2000/svg" width="27" height="16" viewBox="0 0 27 16">
  <defs>
    <style>
      .cls-1 {
        fill: none;
      }
    </style>
  </defs>
  <title>icon_image-quality-fhd</title>
  <path d="M18.19,3.42h-1V1.56H3.56v8.72H4v1H0.59V0.5h17.6V3.42ZM3,3.67V1.57h-2v2.1H3ZM3,7V4.86h-2V7H3Zm0,3.32V8.18h-2v2.1H3ZM9.73,6.09h-3v3H9.6V10.7H6.7v4.8H5v-11H9.73V6.09ZM17.5,15.5H15.76V10.63H13V15.5H11.23v-11H13V9h2.8V4.46H17.5v11ZM26.41,10a8.08,8.08,0,0,1-.33,2.43,4.53,4.53,0,0,1-.94,1.69,4.11,4.11,0,0,1-1.43,1,4.71,4.71,0,0,1-1.81.35H19.43v-11H21.9a4.1,4.1,0,0,1,3.37,1.38A6.46,6.46,0,0,1,26.41,10Zm-1.83,0a5.38,5.38,0,0,0-.69-2.9A2.34,2.34,0,0,0,21.75,6H21.16v7.92h0.59a2.38,2.38,0,0,0,2.15-1.06A5.35,5.35,0,0,0,24.58,10Z"/>
  <rect class="cls-1" width="27" height="16"/>
</svg>
