<?xml version="1.0" encoding="utf-8"?>
<!-- Generator: Adobe Illustrator 23.0.3, SVG Export Plug-In . SVG Version: 6.00 Build 0)  -->
<svg version="1.1" id="レイヤー_1" xmlns="http://www.w3.org/2000/svg" xmlns:xlink="http://www.w3.org/1999/xlink" x="0px"
	 y="0px" width="30px" height="16px" viewBox="0 0 30 16" style="enable-background:new 0 0 30 16;" xml:space="preserve">
<style type="text/css">
	.st0{fill:none;}
</style>
<title>icon_bt-lv9-1</title>
<rect y="0" class="st0" width="30" height="16"/>
<g id="icon_1_">
	<path d="M15.2,11.8l0.3-1h8.2V5.1H8.2v5.7h8.6l-0.3,1H7.3V9.9h-2V6.1h2v-2h17.3v7.7L15.2,11.8 M7.3,8.7V7.2H6.2v1.5H7.3"/>
</g>
<g id="icon">
	<g>
		<path d="M4.3,8.5H1.2V8.1h3.1V8.5z M6.8,12.5l-2.2,2.1l-0.3-0.3l2.2-2.1L6.8,12.5z M6.9,3.7L6.6,4L4.4,1.9l0.3-0.3L6.9,3.7z
			 M16.2,3.6h-0.4v-3h0.4V3.6z M16.2,15.7h-0.4v-3h0.4V15.7z M27.9,2.1l-2.2,2.1l-0.3-0.3l2.2-2.1L27.9,2.1z M27.9,14.2l-0.3,0.3
			l-2.2-2.1l0.3-0.3L27.9,14.2z M29,8.5h-3.1V8.1H29V8.5z"/>
	</g>
</g>
</svg>
