<svg id="レイヤー_1" data-name="レイヤー 1" xmlns="http://www.w3.org/2000/svg" width="20" height="16" viewBox="0 0 20 16">
  <defs>
    <style>
      .cls-1 {
        fill: none;
      }
    </style>
  </defs>
  <title>icon_gps-2d</title>
  <g>
    <path d="M8.12,15.5l0-2.16H3.3l0.47-.58q0.83-1,1.6-2.08a21.37,21.37,0,0,0,1.36-2.1,12,12,0,0,0,.94-2.1A6.48,6.48,0,0,0,8,4.43a5.6,5.6,0,0,0-.2-1.53,3.21,3.21,0,0,0-.66-1.25A3.29,3.29,0,0,0,6,.81,4.53,4.53,0,0,0,4.17.5,6.68,6.68,0,0,0,2.12.76a5.22,5.22,0,0,0-1.25.57L1.1,3.78c0.1-.1.24-0.22,0.39-0.35A3.3,3.3,0,0,1,2,3.07,4.2,4.2,0,0,1,2.8,2.78a3.47,3.47,0,0,1,1-.12,1.67,1.67,0,0,1,1.29.56,2.38,2.38,0,0,1,.5,1.64,4.6,4.6,0,0,1-.35,1.71,11.33,11.33,0,0,1-.92,1.8Q3.72,9.28,3,10.21L1.57,12.06l-1,1.26V15.5H8.12Z"/>
    <path d="M19.42,7.88A11.85,11.85,0,0,1,19,11.19a6.77,6.77,0,0,1-1.2,2.39A4.91,4.91,0,0,1,15.91,15a6.31,6.31,0,0,1-2.51.48H10.06V0.5H13.4A5.54,5.54,0,0,1,15.75,1a5.62,5.62,0,0,1,1.92,1.46A6.92,6.92,0,0,1,19,4.78,9.61,9.61,0,0,1,19.42,7.88ZM17.7,8a8,8,0,0,0-.32-2.35,5.51,5.51,0,0,0-.88-1.75A3.84,3.84,0,0,0,15.2,2.78a3.56,3.56,0,0,0-1.62-.38h-1.9V13.62h1.7a3.89,3.89,0,0,0,3.21-1.37A6.75,6.75,0,0,0,17.7,8Z"/>
  </g>
  <rect class="cls-1" width="20" height="16"/>
</svg>
