<svg id="icon" xmlns="http://www.w3.org/2000/svg" width="18" height="16" viewBox="0 0 18 16">
  <defs>
    <style>
      .cls-1 {
        fill: #040000;
      }

      .cls-2 {
        fill: none;
      }
    </style>
  </defs>
  <title>icon_wi-fi-on</title>
  <g>
    <path class="cls-1" d="M10.92,13.58A1.92,1.92,0,1,0,9,15.5a1.92,1.92,0,0,0,1.92-1.92"/>
    <path class="cls-1" d="M9,9.37a4.19,4.19,0,0,1,2.71,1l1-1.24a5.82,5.82,0,0,0-7.5,0l1,1.24A4.19,4.19,0,0,1,9,9.37"/>
    <path class="cls-1" d="M9,5.75a7.79,7.79,0,0,1,5,1.84l1-1.25a9.44,9.44,0,0,0-12.15,0L4,7.58A7.79,7.79,0,0,1,9,5.75"/>
    <path class="cls-1" d="M9,2.13a11.4,11.4,0,0,1,7.36,2.68l1-1.24a13,13,0,0,0-16.8,0l1,1.24A11.4,11.4,0,0,1,9,2.13"/>
  </g>
  <rect class="cls-2" width="18" height="16"/>
</svg>
