<svg id="icon" xmlns="http://www.w3.org/2000/svg" width="27.81" height="16" viewBox="0 0 27.81 16">
  <g>
    <path d="M3.66,7.2A9.47,9.47,0,0,1,5.38,1.77a.67.67,0,0,0-.1-1,.69.69,0,0,0-1,.1,10.57,10.57,0,0,0-2,6.29,10.65,10.65,0,0,0,2,6.3.68.68,0,0,0,1,.09.67.67,0,0,0,.1-1A9.4,9.4,0,0,1,3.66,7.2Z"/>
    <path d="M1.37,7.2a11.52,11.52,0,0,1,1-4.81.68.68,0,0,0-.28-.92.69.69,0,0,0-.93.29A12.5,12.5,0,0,0,0,7.2a12.52,12.52,0,0,0,1.18,5.45.7.7,0,0,0,.93.29A.69.69,0,0,0,2.39,12,11.46,11.46,0,0,1,1.37,7.2Z"/>
    <path d="M18.84,10.85a11.08,11.08,0,0,1-.2,2.2,5.84,5.84,0,0,1-.55,1.61,2.82,2.82,0,0,1-.89,1A2.09,2.09,0,0,1,16,16a2.07,2.07,0,0,1-1.18-.34,2.73,2.73,0,0,1-.89-1,5.52,5.52,0,0,1-.56-1.61,11.13,11.13,0,0,1-.19-2.2,11.2,11.2,0,0,1,.19-2.2A5.52,5.52,0,0,1,14,7a2.69,2.69,0,0,1,.89-1A2.07,2.07,0,0,1,16,5.71a2.09,2.09,0,0,1,1.18.34,2.78,2.78,0,0,1,.89,1,5.84,5.84,0,0,1,.55,1.61A11.15,11.15,0,0,1,18.84,10.85Zm-1.39,0a13.3,13.3,0,0,0-.08-1.47,5.83,5.83,0,0,0-.27-1.19,2.28,2.28,0,0,0-.45-.79A.85.85,0,0,0,16,7.11a.87.87,0,0,0-.64.29,2.12,2.12,0,0,0-.44.79,5.83,5.83,0,0,0-.27,1.19,11.16,11.16,0,0,0-.09,1.47,11.16,11.16,0,0,0,.09,1.47,5.83,5.83,0,0,0,.27,1.19,2.17,2.17,0,0,0,.44.8.86.86,0,0,0,.64.28.84.84,0,0,0,.63-.28,2.33,2.33,0,0,0,.45-.8,5.83,5.83,0,0,0,.27-1.19A13.3,13.3,0,0,0,17.45,10.85Z"/>
    <path d="M19.73,15.85v-10h3.65V7.29h-2.3V9.92h2.16v1.44H21.08v4.49Z"/>
    <path d="M21.25,4.86h1.39a11,11,0,0,0-1-3.1.68.68,0,0,0-.92-.29.69.69,0,0,0-.29.92A9.88,9.88,0,0,1,21.25,4.86Z"/>
    <path d="M24.16,15.85v-10h3.65V7.29h-2.3V9.92h2.16v1.44H25.51v4.49Z"/>
    <path d="M18.89,4.86h1.4A10.23,10.23,0,0,0,18.52.91a.69.69,0,0,0-1-.1.68.68,0,0,0-.1,1A9.08,9.08,0,0,1,18.89,4.86Z"/>
    <g>
      <path d="M16,4.71l.25,0c0-.37,0-.69,0-.93a.67.67,0,0,0-.7-.67.65.65,0,0,0-.65.68V4.92A3.18,3.18,0,0,1,16,4.71Z"/>
      <path d="M12.42,13.24a12.16,12.16,0,0,1-.22-2.39,12.24,12.24,0,0,1,.22-2.39,6.32,6.32,0,0,1,.66-1.9,3.83,3.83,0,0,1,1.07-1.24V1.78a.72.72,0,0,0-.69-.72.68.68,0,0,0-.67.69V6.36c0,.38-.23.48-.37.48a.46.46,0,0,1-.37-.44V.68a.7.7,0,0,0-1.39,0V6.41a.38.38,0,1,1-.76,0V1.48A.68.68,0,0,0,9.27.85a.64.64,0,0,0-.71.64v.25c0,.57-.09,1.78-.09,2.8,0,1.21,0,3.6.07,4.6C8.14,8.42,7.34,7,7.18,6.74a1,1,0,0,0-.65-.46,1,1,0,0,0-.77.16,1.06,1.06,0,0,0-.24,1.44c.18.38,2.57,4.69,2.84,5.2a2.47,2.47,0,0,0,1.9,1.29l2.48,0A7.1,7.1,0,0,1,12.42,13.24Z"/>
    </g>
  </g>
</svg>
