<?xml version="1.0" encoding="UTF-8"?>
<svg id="_レイヤー_1" data-name="レイヤー 1" xmlns="http://www.w3.org/2000/svg" width="22.49" height="16" viewBox="0 0 22.49 16">
  <defs>
    <style>
      .cls-1 {
        fill: #fff;
      }

      .cls-2 {
        fill: none;
      }
    </style>
  </defs>
  <rect class="cls-2" width="22.49" height="16"/>
  <rect x=".95" y=".59" width="20.87" height="14.94" rx="1.58" ry="1.58"/>
  <path class="cls-1" d="m11.29,13.24h-2.62l-2.68-4.56c-.05-.09-.13-.28-.24-.58h-.03v5.14h-2.07V2.74h2.07v4.97h.03c.05-.14.14-.33.26-.59l2.54-4.38h2.47l-3.21,5.01,3.49,5.49Z"/>
  <path class="cls-1" d="m13.78,11.76c.38.26,1.25.67,2.16.67,1.7,0,2.22-1.18,2.21-2.06-.01-1.49-1.25-2.13-2.52-2.13h-.74v-1.08h.74c.96,0,2.17-.54,2.17-1.8,0-.85-.5-1.6-1.71-1.6-.78,0-1.53.38-1.95.7l-.34-1.05c.51-.41,1.5-.82,2.55-.82,1.92,0,2.79,1.24,2.79,2.54,0,1.1-.6,2.03-1.8,2.5v.03c1.2.26,2.17,1.24,2.17,2.73,0,1.7-1.21,3.19-3.55,3.19-1.09,0-2.05-.38-2.54-.72l.36-1.11Z"/>
</svg>