<svg xmlns="http://www.w3.org/2000/svg" width="29" height="16" viewBox="0 0 29 16">
  <defs>
    <style>
      .cls-1 {
        isolation: isolate;
      }

      .cls-2 {
        mix-blend-mode: multiply;
      }

      .cls-3 {
        fill: none;
      }
    </style>
  </defs>
  <title>icon_le-mf-1shot-em</title>
  <g class="cls-1">
    <g id="レイヤー_1" data-name="レイヤー 1">
      <g>
        <g class="cls-2">
          <path d="M6.66,6.73H5.81V6H5A1.64,1.64,0,0,0,3.49,7.83,1.64,1.64,0,0,0,5,9.66H5.82v0.73H6.66A1.65,1.65,0,0,0,8.12,8.56,1.64,1.64,0,0,0,6.66,6.73Zm0.4-2.93H5.8V3.07H4.56C2.51,3.07.84,5.21,0.84,7.84s1.67,4.77,3.73,4.77H5.82v0.72H7.06c2.06,0,3.73-2.13,3.73-4.77S9.12,3.79,7.06,3.79ZM6.78,11.87h-1V11.12h-1c-1.45,0-2.63-1.47-2.63-3.29S3.36,4.54,4.81,4.54h1V5.29h1c1.45,0,2.63,1.47,2.63,3.29S8.24,11.87,6.78,11.87Z"/>
        </g>
        <g>
          <polygon points="14.55 7.17 11.7 7.17 11.7 8.7 14.55 8.7 14.55 10.3 16.75 7.93 14.55 5.57 14.55 7.17"/>
          <path d="M22.27,8.83a2.09,2.09,0,0,0-1.32-.47,2.15,2.15,0,0,0-1.82,1A4.58,4.58,0,0,0,18.44,12a5,5,0,0,0,.29,1.7A2.92,2.92,0,0,0,19.61,15a2,2,0,0,0,1.34.49,2.12,2.12,0,0,0,1.28-.44,2.76,2.76,0,0,0,.91-1.27,5.21,5.21,0,0,0,.31-1.85,5.3,5.3,0,0,0-.3-1.83A2.87,2.87,0,0,0,22.27,8.83Zm-0.24,5a1.25,1.25,0,0,1-2.17,0,3.13,3.13,0,0,1-.45-1.8,3.4,3.4,0,0,1,.47-2A1.33,1.33,0,0,1,21,9.41a1.17,1.17,0,0,1,.78.3,1.91,1.91,0,0,1,.55.87,4.3,4.3,0,0,1,.2,1.36A3.33,3.33,0,0,1,22,13.82Z"/>
          <polygon points="27.24 8.48 27.24 13.19 24.94 8.56 24.89 8.48 23.99 8.48 23.99 15.39 24.91 15.39 24.91 10.68 27.21 15.31 27.26 15.39 28.16 15.39 28.16 8.48 27.24 8.48"/>
          <path d="M22.56,6.91a3.18,3.18,0,0,0,1.75-.53L26,8.06l0.84-.84L25.17,5.55A3.2,3.2,0,1,0,22.56,6.91Zm0-5.56A2.36,2.36,0,1,1,20.2,3.7,2.36,2.36,0,0,1,22.56,1.35Z"/>
          <polygon points="22.11 5.59 22.86 5.59 22.86 4.07 24.38 4.07 24.38 3.33 22.86 3.33 22.86 1.81 22.11 1.81 22.11 3.33 20.59 3.33 20.59 4.07 22.11 4.07 22.11 5.59"/>
        </g>
      </g>
      <rect class="cls-3" width="29" height="16"/>
    </g>
  </g>
</svg>
