<svg xmlns="http://www.w3.org/2000/svg" width="19" height="16" viewBox="0 0 19 16">
  <defs>
    <style>
      .cls-1 {
        fill: none;
      }
    </style>
  </defs>
  <g id="base">
    <rect class="cls-1" width="19" height="16"/>
  </g>
  <g id="icon">
    <g>
      <path d="M.42,8.29l.2.29.28.2.36.07H7.91V6.93s-.08-.38.62-.39a9.23,9.23,0,0,1,2.34.83V3l-.08-.35-.19-.29-.29-.19L10,2.07H8L7.27.84,7.11.65,6.9.54,6.72.5H4.52L4.21.59,4,.83,3.87,1l-.59,1h-2L.9,2.15l-.28.19-.2.29L.35,3v5ZM5.61,3a2.3,2.3,0,1,1-2.3,2.3A2.3,2.3,0,0,1,5.61,3Z"/>
      <g>
        <polygon points="10.45 8.07 8.59 7.21 8.59 11.21 8.6 11.21 10.45 10.34 10.45 8.07"/>
        <polygon points="13.14 12.79 11.81 15.06 12.63 15.5 14.15 12.79 13.14 12.79"/>
        <polygon points="16.49 12.79 17.81 15.06 17 15.5 15.48 12.79 16.49 12.79"/>
        <rect x="11.14" y="7.12" width="7.52" height="4.97" rx="0.78"/>
      </g>
    </g>
  </g>
</svg>
