<svg xmlns="http://www.w3.org/2000/svg" width="27" height="16" viewBox="0 0 27 16">
  <defs>
    <style>
      .cls-1 {
        fill: none;
      }
    </style>
  </defs>
  <g id="base">
    <rect id="Button_M_Fn2_w60" class="cls-1" width="27" height="16"/>
  </g>
  <g id="icon">
    <path d="M24.75.5H2.25A1.87,1.87,0,0,0,.38,2.38V13.62A1.87,1.87,0,0,0,2.25,15.5h22.5a1.87,1.87,0,0,0,1.87-1.88V2.38A1.87,1.87,0,0,0,24.75.5Zm-16,12.71H7.57V5.69L5.76,13.21h-1L2.9,5.7v7.51H1.68V2.81H3.39l1.84,7.91L7.08,2.81H8.79Zm3.12-4.48H9.45V7.37h2.46Zm4.38-4.49H13.93v3h2.2V8.66h-2.2v4.55H12.58V2.81h3.71Zm4.76,9H19.76V8.34A4.54,4.54,0,0,0,19.61,7a.58.58,0,0,0-.56-.45.74.74,0,0,0-.42.12.84.84,0,0,0-.32.35,1.91,1.91,0,0,0-.2.6,4.41,4.41,0,0,0-.07.88v4.73H16.75V5.14H18V6a3.61,3.61,0,0,1,.23-.36,1.63,1.63,0,0,1,.27-.31,1.19,1.19,0,0,1,.33-.22A.86.86,0,0,1,19.22,5a1.78,1.78,0,0,1,.74.15,1.4,1.4,0,0,1,.58.48,2.48,2.48,0,0,1,.37.85,5.12,5.12,0,0,1,.14,1.27Zm4.7-1.58a2.51,2.51,0,0,1-.44.93,2.13,2.13,0,0,1-.75.61,2.47,2.47,0,0,1-1.06.21l-.62,0-.49-.08a4.13,4.13,0,0,1-.42-.14l-.38-.2.09-1.58a1.9,1.9,0,0,0,.35.21,2.89,2.89,0,0,0,.44.18,3.59,3.59,0,0,0,.47.12,2.59,2.59,0,0,0,.47.05,1.24,1.24,0,0,0,.41-.08,1.1,1.1,0,0,0,.38-.28,1.49,1.49,0,0,0,.27-.52,2.7,2.7,0,0,0,.1-.82,2.31,2.31,0,0,0-.12-.81,1.4,1.4,0,0,0-.32-.52,1.35,1.35,0,0,0-.45-.28,1.81,1.81,0,0,0-.51-.08h-.68V7.13h.73a1.88,1.88,0,0,0,.46-.06,1,1,0,0,0,.41-.24,1.27,1.27,0,0,0,.3-.47,2.31,2.31,0,0,0,.11-.76,2.24,2.24,0,0,0-.08-.67,1.38,1.38,0,0,0-.24-.47,1,1,0,0,0-.36-.27,1.24,1.24,0,0,0-.48-.09,1.35,1.35,0,0,0-.42.08,2.44,2.44,0,0,0-.44.19,3.64,3.64,0,0,0-.39.23l-.3.23-.07-1.57.22-.15.41-.2a3.81,3.81,0,0,1,.57-.19,3.1,3.1,0,0,1,.69-.08,2.19,2.19,0,0,1,1,.2,2,2,0,0,1,.7.57,2.53,2.53,0,0,1,.41.84,3.6,3.6,0,0,1,.14,1,3.8,3.8,0,0,1-.13,1.08,2.91,2.91,0,0,1-.33.75,1.8,1.8,0,0,1-.45.46,1.44,1.44,0,0,1-.44.23h0a1.21,1.21,0,0,1,.3.11,1.52,1.52,0,0,1,.33.21,2.49,2.49,0,0,1,.31.33,2.3,2.3,0,0,1,.25.47,2.78,2.78,0,0,1,.18.65,4.15,4.15,0,0,1,.07.83A4.61,4.61,0,0,1,25.75,11.63Z"/>
  </g>
</svg>
