<?xml version="1.0" encoding="utf-8"?>
<!-- Generator: Adobe Illustrator 23.0.3, SVG Export Plug-In . SVG Version: 6.00 Build 0)  -->
<svg version="1.1" id="レイヤー_1" xmlns="http://www.w3.org/2000/svg" xmlns:xlink="http://www.w3.org/1999/xlink" x="0px"
	 y="0px" width="20.98px" height="15.87px" viewBox="0 0 20.98 15.87" enable-background="new 0 0 20.98 15.87"
	 xml:space="preserve">
<g>
	<path fill="#040000" d="M11.24,3.69H1.26v9.17H4.3v0.96H0.28V2.71h0.48h10.48V3.69z M6.63,15.26H5.62V8.94L4.55,9.95L4.02,9.21
		l1.71-1.52h0.9V15.26z M10.47,15.26H9.35v-1.22h1.12V15.26z M18.84,3.82c0,0.46-0.09,0.89-0.26,1.3c-0.18,0.41-0.42,0.76-0.72,1.06
		c-0.3,0.3-0.66,0.54-1.06,0.72s-0.84,0.26-1.3,0.26c-0.47,0-0.91-0.09-1.31-0.26s-0.76-0.42-1.06-0.72
		c-0.3-0.3-0.54-0.66-0.71-1.06c-0.18-0.41-0.26-0.84-0.26-1.3c0-0.46,0.09-0.89,0.26-1.3s0.41-0.76,0.71-1.06
		c0.3-0.3,0.65-0.54,1.06-0.72c0.41-0.18,0.84-0.26,1.31-0.26c0.46,0,0.89,0.09,1.3,0.26c0.41,0.18,0.76,0.42,1.06,0.72
		c0.3,0.3,0.54,0.66,0.72,1.06C18.75,2.93,18.84,3.36,18.84,3.82z M16.86,12.91c0,0.38-0.06,0.73-0.18,1.04s-0.27,0.57-0.47,0.78
		c-0.2,0.21-0.43,0.38-0.71,0.5c-0.28,0.12-0.58,0.18-0.9,0.18c-0.49,0-0.89-0.11-1.2-0.33c-0.31-0.22-0.55-0.5-0.72-0.85
		c-0.17-0.35-0.29-0.74-0.35-1.17c-0.06-0.43-0.1-0.86-0.1-1.29c0-0.51,0.05-1.02,0.14-1.53c0.09-0.51,0.24-0.96,0.46-1.35
		c0.21-0.39,0.5-0.71,0.87-0.96c0.37-0.25,0.83-0.37,1.38-0.37c0.12,0,0.25,0.01,0.39,0.02c0.14,0.01,0.28,0.03,0.42,0.06
		c0.13,0.03,0.26,0.05,0.38,0.08c0.12,0.03,0.21,0.06,0.27,0.09l-0.14,0.96c-0.37-0.21-0.79-0.32-1.25-0.32
		c-0.33,0-0.62,0.07-0.86,0.22s-0.44,0.35-0.61,0.61s-0.29,0.55-0.37,0.89s-0.13,0.69-0.14,1.05h0.03c0.23-0.26,0.47-0.44,0.72-0.54
		s0.52-0.16,0.82-0.16c0.34,0,0.64,0.06,0.9,0.18c0.26,0.12,0.48,0.29,0.66,0.5c0.18,0.21,0.32,0.47,0.41,0.76
		C16.81,12.25,16.86,12.56,16.86,12.91z M18.06,3.82c0-0.35-0.07-0.68-0.2-0.99c-0.13-0.31-0.32-0.58-0.55-0.82
		c-0.23-0.23-0.51-0.42-0.82-0.55c-0.31-0.13-0.64-0.2-0.99-0.2c-0.35,0-0.69,0.07-1,0.2c-0.32,0.13-0.59,0.32-0.82,0.55
		c-0.23,0.23-0.42,0.51-0.55,0.82c-0.13,0.31-0.2,0.64-0.2,0.99s0.07,0.68,0.2,0.99c0.13,0.31,0.32,0.58,0.55,0.82
		c0.23,0.23,0.51,0.42,0.82,0.55c0.31,0.13,0.65,0.2,1,0.2c0.35,0,0.68-0.07,0.99-0.2c0.31-0.13,0.58-0.32,0.82-0.55
		c0.23-0.23,0.42-0.51,0.55-0.82C17.99,4.5,18.06,4.17,18.06,3.82z M15.78,12.92c0-0.17-0.02-0.35-0.07-0.53
		c-0.05-0.18-0.12-0.35-0.22-0.5c-0.1-0.15-0.22-0.27-0.37-0.36s-0.32-0.14-0.51-0.14c-0.43,0-0.75,0.15-0.98,0.44
		c-0.22,0.29-0.34,0.65-0.34,1.08c0,0.18,0.03,0.37,0.08,0.55c0.05,0.19,0.13,0.35,0.23,0.5c0.1,0.15,0.23,0.27,0.38,0.38
		c0.15,0.1,0.33,0.15,0.54,0.15c0.21,0,0.4-0.04,0.55-0.14s0.29-0.21,0.39-0.36s0.18-0.32,0.23-0.5S15.78,13.12,15.78,12.92z
		 M17.32,4.2h-3.66V3.42h3.66V4.2z M15.88,5.64H15.1V1.99h0.78V5.64z M20.7,8.14l-0.8,0.85l-2.69-2.53l0.8-0.85L20.7,8.14z"/>
</g>
</svg>
