<svg id="レイヤー_1" data-name="レイヤー 1" xmlns="http://www.w3.org/2000/svg" width="24" height="16" viewBox="0 0 24 16">
  <defs>
    <style>
      .cls-1 {
        fill: none;
      }
    </style>
  </defs>
  <title>icon_focal-plane</title>
  <path d="M23.46,9.13H19.39a7.32,7.32,0,0,1-2.5,4.55A7.19,7.19,0,0,1,12,15.5a7.18,7.18,0,0,1-4.87-1.82A7.4,7.4,0,0,1,4.61,9.13H0.54V6.87H4.61A7.4,7.4,0,0,1,7.13,2.32,7.17,7.17,0,0,1,12,.5a7.2,7.2,0,0,1,4.88,1.82,7.3,7.3,0,0,1,2.5,4.56h4.07V9.13ZM8.72,3.93A5.13,5.13,0,0,0,6.9,6.87H17.1a5.13,5.13,0,0,0-1.82-2.94A5,5,0,0,0,12,2.77,5,5,0,0,0,8.72,3.93Zm6.56,8.14A5.13,5.13,0,0,0,17.1,9.13H6.9a5.13,5.13,0,0,0,1.82,2.94A5,5,0,0,0,12,13.23,5,5,0,0,0,15.28,12.07Z"/>
  <rect class="cls-1" width="24" height="16"/>
</svg>
