<?xml version="1.0" encoding="utf-8"?>
<!-- Generator: Adobe Illustrator 23.0.3, SVG Export Plug-In . SVG Version: 6.00 Build 0)  -->
<svg version="1.1" id="レイヤー_1" xmlns="http://www.w3.org/2000/svg" xmlns:xlink="http://www.w3.org/1999/xlink" x="0px"
	 y="0px" width="20px" height="16px" viewBox="0 0 20 16" style="enable-background:new 0 0 20 16;" xml:space="preserve">
<style type="text/css">
	.st0{fill:none;}
</style>
<title>icon_mov-vol</title>
<rect class="st0" width="20" height="16"/>
<g>
	<polygon points="1.4,5.1 1.4,11 4.9,11 9.7,15.5 9.7,0.8 5.3,5.1 	"/>
	<path d="M15.5,8c0-2.1-1.1-4-3-5l-0.7,1.2C13.2,5,14.1,6.5,14.1,8c0,1.6-0.8,3-2.2,3.8l0.7,1.2C14.4,12,15.5,10.1,15.5,8z"/>
	<path d="M14.4,0.5l-0.8,1.2c2.2,1.4,3.5,3.7,3.5,6.3c0,2.5-1.3,4.9-3.4,6.2l0.8,1.2c2.5-1.6,4.1-4.4,4.1-7.4
		C18.6,5,17,2.2,14.4,0.5z"/>
</g>
</svg>
