<?xml version="1.0" encoding="utf-8"?>
<!-- Generator: Adobe Illustrator 21.1.0, SVG Export Plug-In . SVG Version: 6.00 Build 0)  -->
<svg version="1.1" id="レイヤー_1" xmlns="http://www.w3.org/2000/svg" xmlns:xlink="http://www.w3.org/1999/xlink" x="0px"
	 y="0px" width="24px" height="16px" viewBox="0 0 24 16" style="enable-background:new 0 0 24 16;" xml:space="preserve">
<style type="text/css">
	.st0{fill:#0000FF;}
	.st1{fill:none;}
</style>
<title>icon_mode-mov-shutter</title>
<path class="st0" d="M3.3,5.3v3.5L0.9,10V4L3.3,5.3z M11.1,9.6h3.2c0,0.3-0.1,0.7-0.4,0.9c-0.2,0.2-0.5,0.4-0.8,0.4H5.4
	c-0.3,0-0.6-0.1-0.8-0.4c-0.2-0.3-0.3-0.6-0.3-0.9V5.4c0-0.4,0.1-0.7,0.3-1C4.8,4.2,5.1,4.1,5.4,4h5.7L11.1,9.6z M8.2,11.8L8.2,11.8
	l-2.1,3.7l-1-0.7l1.7-3L8.2,11.8L8.2,11.8z M16.8,0.5V2h-2.5v6.7h-1.8V2h-2.5V0.5H16.8L16.8,0.5z M11.6,11.8l1.7,3l-1,0.8l-2.1-3.7
	l0.1-0.1L11.6,11.8L11.6,11.8z M21.5,2.8h1.6l-2,5.9h-1.8l-2-5.9H19l1.3,4l0,0L21.5,2.8z"/>
<rect y="0" class="st1" width="24" height="16"/>
</svg>
