<svg xmlns="http://www.w3.org/2000/svg" width="22" height="16" viewBox="0 0 22 16">
  <defs>
    <style>
      .cls-1 {
        fill: none;
      }
    </style>
  </defs>
  <g id="base">
    <rect class="cls-1" width="22" height="16"/>
  </g>
  <g id="icon">
    <g>
      <polygon points="3.5 4.07 0.52 2.69 0.53 9.12 3.5 7.72 3.5 4.07"/>
      <polygon points="7.82 11.65 5.69 15.3 7 16 9.44 11.65 7.82 11.65"/>
      <polygon points="13.19 11.65 15.32 15.3 14.01 16 11.58 11.65 13.19 11.65"/>
      <g>
        <path d="M10.44,6.43l-.22.1-.34.1-.45.07a4.39,4.39,0,0,1-.54,0,3,3,0,0,1-1.08-.19,2.36,2.36,0,0,1-.9-.61,2.84,2.84,0,0,1-.62-1,4.25,4.25,0,0,1-.23-1.51,4.86,4.86,0,0,1,.2-1.44A3.09,3.09,0,0,1,6.84.87,2.59,2.59,0,0,1,7.73.22,2.92,2.92,0,0,1,8.89,0a4.33,4.33,0,0,1,.53,0l.44.09a3.17,3.17,0,0,1,.33.11l.24.11-.06,1-.26-.15a1.8,1.8,0,0,0-.31-.14A2,2,0,0,0,9.45,1a1.84,1.84,0,0,0-1.11.11,1.42,1.42,0,0,0-.57.44,2.34,2.34,0,0,0-.36.76,3.8,3.8,0,0,0-.13,1.08,3.75,3.75,0,0,0,.15,1.14,2.2,2.2,0,0,0,.39.75,1.44,1.44,0,0,0,.57.41,1.9,1.9,0,0,0,.67.13,1.73,1.73,0,0,0,.38,0,2.36,2.36,0,0,0,.38-.1,2.52,2.52,0,0,0,.33-.13,1.33,1.33,0,0,0,.24-.12Z"/>
        <path d="M12.79.11h1V6.64h-1.1V1.35l-1,.84-.37-.92Z"/>
      </g>
      <path d="M19.4,1.35a3.54,3.54,0,0,1,.91.11,2,2,0,0,1,.65.32,1.39,1.39,0,0,1,.39.51,1.6,1.6,0,0,1,.13.67,1.6,1.6,0,0,1-.13.67,1.39,1.39,0,0,1-.39.51,1.8,1.8,0,0,1-.65.32,3.54,3.54,0,0,1-.91.11H19V6.64H17.92V1.35Zm0,2.49a1.58,1.58,0,0,0,.47-.06.73.73,0,0,0,.31-.18.71.71,0,0,0,.18-.27A1.06,1.06,0,0,0,20.41,3a.83.83,0,0,0-.25-.64,1,1,0,0,0-.77-.24H19V3.84Z"/>
      <path d="M15.42,2.54h-.77v5H11.76V3.28l-.46.39-.46-1.13H8.27a3.29,3.29,0,0,0-.09.83,3,3,0,0,0,.1.87,1.22,1.22,0,0,0,.22.43.59.59,0,0,0,.21.16.84.84,0,0,0,.35.07l.2,0,.28-.08.23-.09.16-.08,1.29-.77.14,3.07-.47.27a2.82,2.82,0,0,1-.34.16,4.18,4.18,0,0,1-1,.23,4.45,4.45,0,0,1-.65,0,3.86,3.86,0,0,1-1.4-.25,3.43,3.43,0,0,1-1.24-.83,4.06,4.06,0,0,1-.81-1.36,5.57,5.57,0,0,1-.28-1.82c0-.22,0-.43,0-.64A1.25,1.25,0,0,0,4.6,3.79V9.27a1.25,1.25,0,0,0,1.25,1.25h9.57a1.25,1.25,0,0,0,1.25-1.25V3.79A1.25,1.25,0,0,0,15.42,2.54Z"/>
    </g>
  </g>
</svg>
