<svg xmlns="http://www.w3.org/2000/svg" width="11" height="16" viewBox="0 0 11 16">
  <defs>
    <style>
      .cls-1 {
        fill: none;
      }

      .cls-2 {
        fill: blue;
      }
    </style>
  </defs>
  <g id="frame">
    <rect class="cls-1" width="11" height="16"/>
  </g>
  <g id="_b">
    <path class="cls-2" d="M1.13.65A.51.51,0,0,1,1.5.5h8A.52.52,0,0,1,10,1V15a.53.53,0,0,1-.52.54h-8a.51.51,0,0,1-.37-.15A.53.53,0,0,1,1,15V1A.51.51,0,0,1,1.13.65Zm8.11.77H1.76V12.14H9.24ZM6,13.31a.76.76,0,0,0-.55-.21.74.74,0,0,0-.53.21.71.71,0,0,0-.22.52.72.72,0,0,0,.22.55.75.75,0,0,0,.53.22.76.76,0,0,0,.77-.75v0A.71.71,0,0,0,6,13.31Z"/>
  </g>
</svg>
