<svg id="レイヤー_1" data-name="レイヤー 1" xmlns="http://www.w3.org/2000/svg" width="19" height="16" viewBox="0 0 19 16">
  <defs>
    <style>
      .cls-1 {
        fill: none;
      }
    </style>
  </defs>
  <path d="M258.55,293.24a1,1,0,0,1,.51.15,1.23,1.23,0,0,1,.36.36l1.56,2.48h4.32a1.65,1.65,0,0,1,1.15.44,1.42,1.42,0,0,1,.47,1.07v9a1.4,1.4,0,0,1-.47,1.06,1.61,1.61,0,0,1-1.15.44H250.2a1.61,1.61,0,0,1-1.15-.44,1.4,1.4,0,0,1-.47-1.06v-9a1.42,1.42,0,0,1,.47-1.07,1.65,1.65,0,0,1,1.15-.44h1.63l1.56-2.48a.88.88,0,0,1,.35-.34,1.8,1.8,0,0,1,.51-.17Zm-4.07,1.25c-.29.49-.57.92-.82,1.31l-.58.95-.31.5a1,1,0,0,1-.17.18.41.41,0,0,1-.25.05H250.2a.24.24,0,0,0-.27.26v9c0,.17.09.25.27.25h15.1c.18,0,.27-.08.27-.25v-9a.24.24,0,0,0-.27-.26h-4.85a.39.39,0,0,1-.24-.05.75.75,0,0,1-.18-.18l-.31-.5c-.17-.29-.37-.61-.58-.95s-.53-.82-.82-1.31ZM258.3,296v2.28h-3.8V296Z" transform="translate(-248.25 -292.74)"/>
  <rect class="cls-1" width="19" height="16"/>
</svg>
