<svg id="icon" xmlns="http://www.w3.org/2000/svg" width="22" height="16" viewBox="0 0 22 16">
  <defs>
    <style>
      .cls-1 {
        fill: none;
      }
    </style>
  </defs>
  <g>
    <path d="M1.29,5.86H3.87v.9H.14v-1l2.5-4.27H.25V.6H3.8v1Z"/>
    <path d="M6.93.5A2.38,2.38,0,0,1,8,.71a2,2,0,0,1,.77.61,2.82,2.82,0,0,1,.48,1,4.61,4.61,0,0,1,.17,1.35A4.73,4.73,0,0,1,9.2,5a2.86,2.86,0,0,1-.48,1A2,2,0,0,1,8,6.63a2.38,2.38,0,0,1-1,.21,2.4,2.4,0,0,1-1-.21A2.07,2.07,0,0,1,5.13,6a2.86,2.86,0,0,1-.48-1,4.73,4.73,0,0,1-.17-1.36,4.61,4.61,0,0,1,.17-1.35,2.82,2.82,0,0,1,.48-1A2.07,2.07,0,0,1,5.9.71,2.4,2.4,0,0,1,6.93.5ZM8.22,3.67a5.68,5.68,0,0,0-.08-1A2.32,2.32,0,0,0,7.9,2a1.32,1.32,0,0,0-.41-.46,1,1,0,0,0-.56-.16,1,1,0,0,0-.57.16A1.32,1.32,0,0,0,6,2a2.61,2.61,0,0,0-.24.73,5.68,5.68,0,0,0-.08,1,5.59,5.59,0,0,0,.08,1A2.61,2.61,0,0,0,6,5.37a1.24,1.24,0,0,0,.41.46A1,1,0,0,0,6.93,6a1,1,0,0,0,.56-.16,1.24,1.24,0,0,0,.41-.46,2.32,2.32,0,0,0,.24-.73A5.59,5.59,0,0,0,8.22,3.67Z"/>
    <path d="M12.55.5a2.46,2.46,0,0,1,1,.21,2,2,0,0,1,.76.61,3,3,0,0,1,.49,1A5,5,0,0,1,15,3.67,5.11,5.11,0,0,1,14.83,5a3.06,3.06,0,0,1-.49,1,2,2,0,0,1-.76.61,2.63,2.63,0,0,1-2.06,0A2,2,0,0,1,10.76,6a2.7,2.7,0,0,1-.49-1,5.11,5.11,0,0,1-.17-1.36,5,5,0,0,1,.17-1.35,2.67,2.67,0,0,1,.49-1,2,2,0,0,1,.76-.61A2.46,2.46,0,0,1,12.55.5Zm1.29,3.17a4.82,4.82,0,0,0-.08-1A2.32,2.32,0,0,0,13.52,2a1.3,1.3,0,0,0-.4-.46,1,1,0,0,0-.57-.16,1,1,0,0,0-.57.16,1.21,1.21,0,0,0-.4.46,2.6,2.6,0,0,0-.25.73,5.68,5.68,0,0,0-.08,1,5.59,5.59,0,0,0,.08,1,2.6,2.6,0,0,0,.25.73,1.14,1.14,0,0,0,.4.46,1,1,0,0,0,.57.16,1,1,0,0,0,.57-.16,1.21,1.21,0,0,0,.4-.46,2.32,2.32,0,0,0,.24-.73A4.75,4.75,0,0,0,13.84,3.67Z"/>
    <path d="M20.45.6h1.41V6.76h-1V2.3L19.37,6.76h-.86L17,2.31V6.76H16V.6h1.41l1.5,4.68Z"/>
    <path d="M7.55,9.34h1L7.29,15.5H6l-.94-4.95a.53.53,0,0,0,0-.11v-.1l0,.21L4.07,15.5H2.78L1.49,9.34H2.55l.89,4.85v.12l0-.12.92-4.85H5.72l.91,4.85,0,.12,0-.12Z"/>
    <path d="M9.42,15.5V9.34h1.11V15.5Z"/>
    <path d="M15.45,10.13a2.36,2.36,0,0,1,.66.93,4.09,4.09,0,0,1,.21,1.36,3.89,3.89,0,0,1-.21,1.34,2.46,2.46,0,0,1-.26.51,2.22,2.22,0,0,1-.4.47,2.75,2.75,0,0,1-.45.35,2.39,2.39,0,0,1-.48.24,3,3,0,0,1-.54.13,4,4,0,0,1-.62,0H11.84V9.34h1.52a3.34,3.34,0,0,1,1.13.2A2.72,2.72,0,0,1,15.45,10.13ZM13,14.65h.41a2,2,0,0,0,.86-.17,1.43,1.43,0,0,0,.56-.47,1.75,1.75,0,0,0,.29-.71,4,4,0,0,0,.09-.88,3.68,3.68,0,0,0-.1-.91,1.87,1.87,0,0,0-.31-.7,1.55,1.55,0,0,0-.56-.45,2.08,2.08,0,0,0-.83-.17H13Z"/>
    <path d="M18.49,12.76v1.89h2.16v.85H17.38V9.34H20.6v.85H18.49v1.72h1.88v.85Z"/>
  </g>
  <rect class="cls-1" width="22" height="16"/>
</svg>
