<?xml version="1.0" encoding="utf-8"?>
<!-- Generator: Adobe Illustrator 21.1.0, SVG Export Plug-In . SVG Version: 6.00 Build 0)  -->
<svg version="1.1" id="レイヤー_1" xmlns="http://www.w3.org/2000/svg" xmlns:xlink="http://www.w3.org/1999/xlink" x="0px"
	 y="0px" width="20.1px" height="16px" viewBox="0 0 20.1 16" style="enable-background:new 0 0 20.1 16;" xml:space="preserve">
<style type="text/css">
	.st0{fill:none;}
</style>
<title>icon_modedial-c1</title>
<rect class="st0" width="20.1" height="16"/>
<g>
	<path d="M3.1,9.6l-2.3,1.2V5.5l2.3,1.1V9.6z M12.8,10.5c0,0.3-0.2,0.5-0.4,0.7c-0.2,0.2-0.5,0.3-0.7,0.3H5.2
		c-0.3,0-0.6-0.1-0.8-0.3c-0.2-0.2-0.3-0.5-0.3-0.8V6.7c0-0.3,0.1-0.6,0.3-0.9c0.2-0.2,0.5-0.3,0.8-0.3H11l-1.6,5H12.8z M7.7,12.4
		l-2,3.3l-1-0.6l1.7-2.6L7.7,12.4L7.7,12.4z M12,15l-1,0.7L9,12.4l0,0h1.3L12,15z M17,9.7h-1.5l-0.6-2h-2.2l-0.6,2h-1.5L13,2.2h0.1
		h1.4h0.1L17,9.7z M14.6,6.7l-0.8-2.5L13,6.7H14.6z M19.6,3.5h-1.5v1.7h-1V3.5h-1.5V2.4h1.5V0.7h1v1.7h1.5V3.5z"/>
</g>
</svg>
