<svg id="レイヤー_1" data-name="レイヤー 1" xmlns="http://www.w3.org/2000/svg" width="40" height="16" viewBox="0 0 40 16">
  <defs>
    <style>
      .cls-1 {
        fill: none;
      }
    </style>
  </defs>
  <title>icon_jpeg_com</title>
  <rect class="cls-1" width="40" height="16"/>
  <rect class="cls-1" x="3.4" width="33.2" height="16"/>
  <g>
    <path d="M4.91,11V0.7H3V11q0,2.1-1.19,2.1a1.78,1.78,0,0,1-.9-0.32v2.32a2.7,2.7,0,0,0,1.39.35,2.13,2.13,0,0,0,1.86-1A6.2,6.2,0,0,0,4.91,11Zm8-5.87q0-4.42-3.35-4.42h-3V15.24H8.51V9.54H9.61A2.88,2.88,0,0,0,12.1,8.36,5.42,5.42,0,0,0,13,5.13Zm-2,0A2.1,2.1,0,0,1,9.64,7.49a1.14,1.14,0,0,1-.44,0H8.48V2.73H9.2c0.84-.2,1.65.58,1.79,1.73a2.89,2.89,0,0,1,0,.66Zm8.93,10.13V13.11H16.12V8.81h3.44V6.71H16.12V2.83h3.64V0.7H14.19V15.24h5.72Zm9.16-.54V7.1H25.64v2h1.63v4a2.84,2.84,0,0,1-1.14.22,2.48,2.48,0,0,1-2.27-1.43,8.16,8.16,0,0,1-.8-4,7.63,7.63,0,0,1,.82-3.79,2.62,2.62,0,0,1,2.37-1.55,3.71,3.71,0,0,1,2.44.89L28.78,1A4.92,4.92,0,0,0,26.21.51a4.33,4.33,0,0,0-3.85,2.05A9.63,9.63,0,0,0,21,8a9.64,9.64,0,0,0,1.33,5.37,4.37,4.37,0,0,0,3.88,2.13,4.75,4.75,0,0,0,2.86-.8h0Z"/>
    <path d="M39.06,13.89H30.33V15.5h8.81l-0.08-1.61h0ZM36.33,8.14V0.5H33V8.14h-1.6l3.27,5.29,3.27-5.29h-1.6Z"/>
  </g>
</svg>
