<svg xmlns="http://www.w3.org/2000/svg" width="11" height="16" viewBox="0 0 11 16">
  <defs>
    <style>
      .cls-1 {
        fill: none;
      }
    </style>
  </defs>
  <g id="レイヤー_2" data-name="レイヤー 2">
    <rect class="cls-1" width="11" height="16"/>
  </g>
  <g id="レイヤー_1" data-name="レイヤー 1">
    <g>
      <path d="M4.47,8.83a2.11,2.11,0,0,0-1.32-.47,2.15,2.15,0,0,0-1.82,1A4.49,4.49,0,0,0,.64,12a4.71,4.71,0,0,0,.29,1.7A3,3,0,0,0,1.81,15a2,2,0,0,0,1.34.49,2.13,2.13,0,0,0,1.28-.44,2.75,2.75,0,0,0,.91-1.27,5.1,5.1,0,0,0,.31-1.85,5.22,5.22,0,0,0-.3-1.84A2.87,2.87,0,0,0,4.47,8.83Zm-.24,5a1.25,1.25,0,0,1-1.71.46,1.27,1.27,0,0,1-.46-.46A3.08,3.08,0,0,1,1.61,12a3.39,3.39,0,0,1,.47-2A1.33,1.33,0,0,1,3.2,9.41a1.17,1.17,0,0,1,.78.3,2,2,0,0,1,.55.87A4.21,4.21,0,0,1,4.73,12a3.31,3.31,0,0,1-.53,1.88Z"/>
      <polygon points="9.45 8.48 9.45 13.2 7.14 8.56 7.09 8.48 6.19 8.48 6.19 15.4 7.12 15.4 7.12 10.68 9.42 15.32 9.47 15.4 10.37 15.4 10.37 8.48 9.45 8.48"/>
      <path d="M4.76,6.91a3.19,3.19,0,0,0,1.75-.53l1.7,1.68.84-.84L7.37,5.55A3.21,3.21,0,1,0,4.76,6.91Zm0-5.57A2.37,2.37,0,1,1,2.4,3.7h0A2.36,2.36,0,0,1,4.76,1.34Z"/>
      <polygon points="4.31 5.59 5.06 5.59 5.06 4.07 6.58 4.07 6.58 3.32 5.06 3.32 5.06 1.8 4.31 1.8 4.31 3.32 2.79 3.32 2.79 4.07 4.31 4.07 4.31 5.59"/>
    </g>
  </g>
</svg>
