<svg id="レイヤー_1" data-name="レイヤー 1" xmlns="http://www.w3.org/2000/svg" width="18" height="18" viewBox="0 0 18 18">
  <defs>
    <style>
      .cls-1 {
        fill: none;
      }
    </style>
  </defs>
  <title>icon_ps-toning-effect</title>
  <rect class="cls-1" width="18" height="18"/>
  <path d="M14.4,2.6a10.44,10.44,0,0,1,2.3,2.8A8.63,8.63,0,0,1,17.5,9a7.84,7.84,0,0,1-.7,3.3,9,9,0,0,1-4.5,4.5,9.28,9.28,0,0,1-3.3.7,7.54,7.54,0,0,1-3.3-.7,9,9,0,0,1-4.5-4.5A8.84,8.84,0,0,1,.5,9a7.54,7.54,0,0,1,.7-3.3A9,9,0,0,1,5.7,1.2,7.45,7.45,0,0,1,9,.6a9.29,9.29,0,0,1,2.9.5A10.37,10.37,0,0,1,14.4,2.6ZM9,16.6a8,8,0,0,0,3-.6,7.76,7.76,0,0,0,2.4-1.6A7.76,7.76,0,0,0,16,12a7.31,7.31,0,0,0,.6-3A8.15,8.15,0,0,0,16,5.9a6.09,6.09,0,0,0-1.8-2.4H13.5V2.9l-0.2-.2L13,2.6H11.7V1.9A8.08,8.08,0,0,0,9,1.4,8,8,0,0,0,6,2,7.65,7.65,0,0,0,2,6.1,7.17,7.17,0,0,0,1.4,9,8,8,0,0,0,2,12a7.76,7.76,0,0,0,1.6,2.4A7.73,7.73,0,0,0,9,16.6ZM6.4,11.5H8.2v0.8H3.7V11.4l2.7,0.1h0Zm1.8-.8H10v0.9H5.4V10.7H8.2ZM6.4,9.8v-1H7.3v1.8H6.4V9.8h0ZM7.3,8H8.2V8.9H7.3V8h0ZM9,7.1V8H8.2V7.1H9ZM9.9,7.9h1.8V9.7H10.8v0.9H8.2V8.8H9V7.9H9.9Zm0.9-1.7h1.8V7H9V6.2h1.8Zm0-.9V6.2H9.9V4.4h0.9V5.3h0ZM9.9,7.1h1.8V8H9.9V7.1h0Zm1.8-4.5V3.5H10.8V2.6h0.9Zm0,0.9V4.4H10.8V3.5h0.9Zm0,2.6V5.3h0.9V6.2l-0.9-.1h0Zm0.9-1.8V3.5h0.9V5.3H12.6v-1h0Z"/>
</svg>
