<?xml version="1.0" encoding="UTF-8"?>
<svg id="edge" xmlns="http://www.w3.org/2000/svg" width="18.74" height="16.06" version="1.1" viewBox="0 0 18.74 16.06">
  <!-- Generator: Adobe Illustrator 29.5.1, SVG Export Plug-In . SVG Version: 2.1.0 Build 141)  -->
  <defs>
    <style>
      .st0 {
        stroke-linecap: round;
      }

      .st0, .st1 {
        stroke: #fff;
        stroke-linejoin: round;
        stroke-width: 1.11px;
      }
    </style>
  </defs>
  <path class="st0" d="M6.09,8.83c.73,0,1.36.43,1.66,1.05h3.47c.59,0,1.07-.48,1.07-1.07V2.96c0-.59-.49-1.07-1.07-1.07h-2.38l-.84-1.46c-.12-.24-.36-.38-.63-.38h-2.59c-.07,0-.14.02-.21.04-.19.05-.35.18-.45.36l-.82,1.45H.96C.38,1.89-.11,2.37-.11,2.96v5.84c0,.59.48,1.07,1.07,1.07h3.47c.3-.62.93-1.05,1.66-1.05ZM3.38,5.63c0-1.5,1.21-2.71,2.71-2.71s2.71,1.21,2.71,2.71-1.21,2.71-2.71,2.71-2.71-1.22-2.71-2.71Z"/>
  <path class="st0" d="M15.73,14.3v-1.54c0-.26-.21-.46-.46-.46H6.55v-.82c.28-.16.46-.46.46-.8,0-.51-.41-.92-.92-.92s-.92.41-.92.92c0,.34.19.64.46.8v2.82c-.28.16-.46.46-.46.8,0,.51.41.92.92.92s.92-.41.92-.92c0-.34-.19-.64-.46-.8v-1.08h3.66v1.08c-.28.16-.46.45-.46.8,0,.51.41.92.92.92s.92-.41.92-.92c0-.34-.19-.64-.46-.8v-1.08h3.66v1.08c-.28.16-.46.46-.46.8,0,.51.41.92.92.92s.92-.41.92-.92c0-.34-.19-.64-.46-.8Z"/>
  <path class="st1" d="M16.6,4.87c.37,0,.69.06.97.17.28.12.52.28.71.5.19.22.33.48.43.79.1.31.14.65.14,1.03,0,.4-.06.76-.18,1.08-.12.32-.29.58-.51.8-.22.22-.49.38-.81.5-.32.11-.67.17-1.06.17-.27,0-.52-.02-.73-.05-.21-.03-.4-.07-.56-.11-.16-.04-.28-.08-.38-.13-.1-.04-.17-.07-.2-.1l.07-1.22s.09.07.19.13c.1.06.22.11.35.17.14.06.29.1.46.15.17.04.34.06.51.06.18,0,.37-.02.54-.06.18-.04.33-.11.47-.22.13-.11.24-.26.33-.45.08-.19.12-.44.12-.74,0-.19-.03-.38-.08-.55-.06-.17-.14-.33-.25-.46-.11-.13-.25-.23-.42-.31-.17-.08-.36-.11-.59-.11-.12,0-.26,0-.41.03-.15.02-.3.05-.45.09-.15.04-.29.09-.43.14-.14.06-.25.12-.34.19V1.92h4.03v1.06h-2.76v2s.1-.04.17-.05c.07-.02.14-.03.22-.04.08-.01.15-.02.23-.02.08,0,.15,0,.22,0Z"/>
  <path d="M6.09,8.83c.73,0,1.36.43,1.66,1.05h3.47c.59,0,1.07-.48,1.07-1.07V2.96c0-.59-.49-1.07-1.07-1.07h-2.38l-.84-1.46c-.12-.24-.36-.38-.63-.38h-2.59c-.07,0-.14.02-.21.04-.19.05-.35.18-.45.36l-.82,1.45H.96C.38,1.89-.11,2.37-.11,2.96v5.84c0,.59.48,1.07,1.07,1.07h3.47c.3-.62.93-1.05,1.66-1.05ZM3.38,5.63c0-1.5,1.21-2.71,2.71-2.71s2.71,1.21,2.71,2.71-1.21,2.71-2.71,2.71-2.71-1.22-2.71-2.71Z"/>
  <path d="M15.73,14.3v-1.54c0-.26-.21-.46-.46-.46H6.55v-.82c.28-.16.46-.46.46-.8,0-.51-.41-.92-.92-.92s-.92.41-.92.92c0,.34.19.64.46.8v2.82c-.28.16-.46.46-.46.8,0,.51.41.92.92.92s.92-.41.92-.92c0-.34-.19-.64-.46-.8v-1.08h3.66v1.08c-.28.16-.46.45-.46.8,0,.51.41.92.92.92s.92-.41.92-.92c0-.34-.19-.64-.46-.8v-1.08h3.66v1.08c-.28.16-.46.46-.46.8,0,.51.41.92.92.92s.92-.41.92-.92c0-.34-.19-.64-.46-.8Z"/>
  <path d="M16.6,4.87c.37,0,.69.06.97.17.28.12.52.28.71.5.19.22.33.48.43.79.1.31.14.65.14,1.03,0,.4-.06.76-.18,1.08-.12.32-.29.58-.51.8-.22.22-.49.38-.81.5-.32.11-.67.17-1.06.17-.27,0-.52-.02-.73-.05-.21-.03-.4-.07-.56-.11-.16-.04-.28-.08-.38-.13-.1-.04-.17-.07-.2-.1l.07-1.22s.09.07.19.13c.1.06.22.11.35.17.14.06.29.1.46.15.17.04.34.06.51.06.18,0,.37-.02.54-.06.18-.04.33-.11.47-.22.13-.11.24-.26.33-.45.08-.19.12-.44.12-.74,0-.19-.03-.38-.08-.55-.06-.17-.14-.33-.25-.46-.11-.13-.25-.23-.42-.31-.17-.08-.36-.11-.59-.11-.12,0-.26,0-.41.03-.15.02-.3.05-.45.09-.15.04-.29.09-.43.14-.14.06-.25.12-.34.19V1.92h4.03v1.06h-2.76v2s.1-.04.17-.05c.07-.02.14-.03.22-.04.08-.01.15-.02.23-.02.08,0,.15,0,.22,0Z"/>
</svg>