<svg xmlns="http://www.w3.org/2000/svg" width="27" height="16" viewBox="0 0 27 16">
  <defs>
    <style>
      .cls-1 {
        fill: none;
      }
    </style>
  </defs>
  <g id="base">
    <rect class="cls-1" width="27" height="16"/>
  </g>
  <g id="icon">
    <g>
      <path d="M14.7,4.69V2.49H12.3v2.2a3.48,3.48,0,0,1,1.2-.21A3.53,3.53,0,0,1,14.7,4.69Z"/>
      <path d="M13.5,5.53A2.45,2.45,0,1,0,16,8h0A2.45,2.45,0,0,0,13.5,5.53Z"/>
      <path d="M24.75.5H2.25A1.87,1.87,0,0,0,.38,2.38V13.62A1.87,1.87,0,0,0,2.25,15.5h22.5a1.87,1.87,0,0,0,1.87-1.88V2.38A1.87,1.87,0,0,0,24.75.5Zm-7.2,4.66,1.09-.63a.37.37,0,0,1,.21-.06.42.42,0,0,1,.42.42.44.44,0,0,1-.21.37L18,5.88a.42.42,0,0,1-.63-.36A.41.41,0,0,1,17.55,5.16Zm-9.4-.69a.37.37,0,0,1,.21.06l1.09.63a.41.41,0,0,1,.21.36.42.42,0,0,1-.42.42A.37.37,0,0,1,9,5.88L7.94,5.25a.41.41,0,0,1-.21-.36A.42.42,0,0,1,8.15,4.47Zm.58,4.77-1.24.22H7.41A.42.42,0,0,1,7,9.05a.4.4,0,0,1,.34-.41l1.24-.22h.08a.42.42,0,0,1,.07.83ZM10.66,12l-.81,1a.44.44,0,0,1-.32.15.42.42,0,0,1-.42-.42.45.45,0,0,1,.1-.27l.81-1a.41.41,0,0,1,.32-.15.42.42,0,0,1,.42.42A.37.37,0,0,1,10.66,12Zm3.26,2.15a.42.42,0,0,1-.84,0V12.89a.42.42,0,0,1,.84,0Zm-.42-2.68a3.49,3.49,0,0,1-2.1-6.29V1.44h4.2V5.18a3.49,3.49,0,0,1-2.1,6.29Zm4,1.65a.42.42,0,0,1-.32-.15l-.81-1a.41.41,0,0,1,.32-.68.41.41,0,0,1,.32.15l.81,1a.41.41,0,0,1,.1.27A.42.42,0,0,1,17.47,13.12Zm2.11-3.65h-.07l-1.24-.22a.42.42,0,0,1,.07-.83h.07l1.24.22a.41.41,0,0,1,.35.41A.42.42,0,0,1,19.58,9.47Z"/>
    </g>
  </g>
</svg>
