<svg id="レイヤー_1" data-name="レイヤー 1" xmlns="http://www.w3.org/2000/svg" width="33" height="16" viewBox="0 0 33 16">
  <defs>
    <style>
      .cls-1 {
        fill: none;
      }
    </style>
  </defs>
  <title>icon_btn-set</title>
  <path d="M29.81,0.5H3.19A2.68,2.68,0,0,0,.52,3.17v9.66A2.68,2.68,0,0,0,3.19,15.5H29.81a2.68,2.68,0,0,0,2.67-2.67V3.17A2.68,2.68,0,0,0,29.81.5M7.6,13.62A4.52,4.52,0,0,1,5.54,13V11.29a3.92,3.92,0,0,0,2.23.83,2,2,0,0,0,1.3-.29,1.56,1.56,0,0,0,.67-1.35A2,2,0,0,0,8.63,8.81,14,14,0,0,1,6.47,7.57,2.86,2.86,0,0,1,5.3,5.34a2.72,2.72,0,0,1,.9-2.18,3.82,3.82,0,0,1,2.47-.78,4.69,4.69,0,0,1,2.14.52v1.7a3.77,3.77,0,0,0-2.09-.72c-1.17,0-1.91.34-1.91,1.3A2,2,0,0,0,8,6.75C9,7.34,10,7.9,10,8a3,3,0,0,1,1.21,2.42q0,3.23-3.66,3.23M19.4,4H15.06V7.07h4V8.46h-4V12H19.4v1.52H13.5V2.46h5.9V4m9.27,0h-3v9.53H24.16V4h-3V2.46h7.47V4Z"/>
  <rect class="cls-1" width="33" height="16"/>
</svg>
