<svg id="レイヤー_1" data-name="レイヤー 1" xmlns="http://www.w3.org/2000/svg" width="16" height="16" viewBox="0 0 16 16">
  <defs>
    <style>
      .cls-1 {
        fill: none;
      }
    </style>
  </defs>
  <title>icon_wb-daylight</title>
  <path d="M3.86,8.4H0.49V7.62H3.86V8.4ZM4.61,5.59l-0.39.69L1.3,4.6l0.39-.69Zm0,4.84L1.69,12.11,1.3,11.42,4.22,9.73ZM6.27,4.21l-0.69.41L3.9,1.7l0.69-.39Zm0,7.58-1.68,2.9L3.9,14.3l1.68-2.9ZM11.11,9.3a3.21,3.21,0,0,1-.74,1.08,3.19,3.19,0,0,1-1.08.74,3.39,3.39,0,0,1-2.58,0,3.19,3.19,0,0,1-1.08-.74A3.17,3.17,0,0,1,4.89,9.3,3.32,3.32,0,0,1,4.64,8,3.24,3.24,0,0,1,4.9,6.72a3.39,3.39,0,0,1,.73-1.08A3.19,3.19,0,0,1,6.71,4.9a3.39,3.39,0,0,1,2.58,0,3.19,3.19,0,0,1,1.08.74,3.21,3.21,0,0,1,.74,1.08A3.39,3.39,0,0,1,11.11,9.3ZM8.39,3.86H7.61V0.5H8.39V3.86Zm0,11.64H7.61V12.15H8.39V15.5ZM12.1,1.7L10.42,4.61,9.73,4.21l1.68-2.9Zm0,12.6-0.69.39-1.68-2.9,0.69-.39Zm2.6-9.7L11.8,6.28l-0.41-.69,2.91-1.68Zm0,6.82-0.39.69-2.91-1.68,0.41-.69Zm0.81-3H12.15V7.62h3.36V8.4Z"/>
  <rect class="cls-1" width="16" height="16"/>
</svg>
