<svg id="icon" xmlns="http://www.w3.org/2000/svg" width="22" height="16" viewBox="0 0 22 16">
  <defs>
    <style>
      .cls-1 {
        fill: none;
      }
    </style>
  </defs>
  <g>
    <g>
      <path d="M18.74,12.06l-.67-3a1.08,1.08,0,0,0-.89-.84l-4.7-.71a3.67,3.67,0,0,0-1.1,0A1.6,1.6,0,0,1,9.82,9.08,1.51,1.51,0,0,1,9,8.81L6.3,10.9,4,8.91A1.06,1.06,0,0,0,2.51,9a1.09,1.09,0,0,0,.11,1.53l2.94,2.57a1,1,0,0,0,1.35,0L9,11.57l1.28,2.68h5.59l-2-4.34,2.27.34.51,2.29a1.08,1.08,0,0,0,1,.85,1,1,0,0,0,.24,0A1.08,1.08,0,0,0,18.74,12.06Z"/>
      <path d="M9.11,1.71A2.69,2.69,0,1,0,11.77,4.4,2.67,2.67,0,0,0,9.11,1.71Z"/>
    </g>
    <polygon points="1.21 4.67 1.21 1.54 4.33 1.54 4.33 0.5 0.17 0.5 0.17 4.67 1.21 4.67"/>
    <polygon points="1.21 11.33 0.17 11.33 0.17 15.5 4.33 15.5 4.33 14.46 1.21 14.46 1.21 11.33"/>
    <polygon points="20.79 14.46 17.67 14.46 17.67 15.5 21.83 15.5 21.83 11.33 20.79 11.33 20.79 14.46"/>
    <polygon points="17.67 0.5 17.67 1.54 20.79 1.54 20.79 4.67 21.83 4.67 21.83 0.5 17.67 0.5"/>
  </g>
  <rect class="cls-1" width="22" height="16"/>
</svg>
