<svg id="icon" xmlns="http://www.w3.org/2000/svg" width="29" height="16" viewBox="0 0 29 16">
  <defs>
    <style>
      .cls-1 {
        fill: none;
      }
    </style>
  </defs>
  <g>
    <path d="M.38.5v15H28.62V.5ZM27.51,14.4h-26V1.6h26Z"/>
    <g>
      <path d="M4.11,3.12v8.36H6.67v1.43h-4V3.12Z"/>
      <path d="M10.31,7.41h2.76v5l-.32.2a2.83,2.83,0,0,1-.46.22,4.34,4.34,0,0,1-.63.18,3.87,3.87,0,0,1-.79.07,3.52,3.52,0,0,1-1.41-.29,3.13,3.13,0,0,1-1.17-.92,4.38,4.38,0,0,1-.8-1.57A7.54,7.54,0,0,1,7.19,8a7.68,7.68,0,0,1,.3-2.28A4.65,4.65,0,0,1,8.3,4.16a3.24,3.24,0,0,1,1.19-.91A3.59,3.59,0,0,1,10.9,3a5.81,5.81,0,0,1,.76,0c.22,0,.42.09.6.14a4.26,4.26,0,0,1,.44.16,2.13,2.13,0,0,1,.28.16L12.91,5l-.35-.23a4.71,4.71,0,0,0-.45-.22,4.26,4.26,0,0,0-.54-.16,2.59,2.59,0,0,0-.63-.07,1.92,1.92,0,0,0-.89.22,2.13,2.13,0,0,0-.73.68,3.69,3.69,0,0,0-.48,1.15A6.72,6.72,0,0,0,8.66,8a7.23,7.23,0,0,0,.16,1.64,3.68,3.68,0,0,0,.46,1.15,2,2,0,0,0,.69.68,1.76,1.76,0,0,0,.87.22,1.42,1.42,0,0,0,.33,0,1,1,0,0,0,.23-.07.69.69,0,0,0,.17-.1l.15-.12V8.76H10.31Z"/>
      <path d="M17.27,3a2.63,2.63,0,0,1,1.31.33,2.84,2.84,0,0,1,1,1,5,5,0,0,1,.62,1.58A10,10,0,0,1,20.38,8a9.85,9.85,0,0,1-.21,2.15,5,5,0,0,1-.62,1.58,2.84,2.84,0,0,1-1,1,2.63,2.63,0,0,1-1.31.33A2.6,2.6,0,0,1,16,12.72a2.84,2.84,0,0,1-1-1,5,5,0,0,1-.62-1.58A9.24,9.24,0,0,1,14.15,8a9.38,9.38,0,0,1,.22-2.16A5,5,0,0,1,15,4.27a2.84,2.84,0,0,1,1-1A2.6,2.6,0,0,1,17.27,3ZM18.92,8a11.87,11.87,0,0,0-.1-1.55,5,5,0,0,0-.31-1.16A1.88,1.88,0,0,0,18,4.57a1.12,1.12,0,0,0-.72-.26,1.08,1.08,0,0,0-.72.26A1.88,1.88,0,0,0,16,5.3a4.51,4.51,0,0,0-.31,1.16A10.35,10.35,0,0,0,15.62,8a10.3,10.3,0,0,0,.1,1.54A4.75,4.75,0,0,0,16,10.71a1.92,1.92,0,0,0,.52.74,1.07,1.07,0,0,0,.72.25,1.11,1.11,0,0,0,.72-.25,1.92,1.92,0,0,0,.52-.74,5.24,5.24,0,0,0,.31-1.16A11.83,11.83,0,0,0,18.92,8Z"/>
      <path d="M23.61,3.12a3.28,3.28,0,0,1,1.18.2,2.26,2.26,0,0,1,.85.6,2.57,2.57,0,0,1,.5.94,4,4,0,0,1,.17,1.24,4,4,0,0,1-.17,1.24,2.57,2.57,0,0,1-.5.94,2.14,2.14,0,0,1-.85.59,3.07,3.07,0,0,1-1.18.21h-.52v3.83h-1.4V3.12Zm0,4.61a1.58,1.58,0,0,0,.61-.11,1.11,1.11,0,0,0,.41-.33,1.59,1.59,0,0,0,.23-.51,2.84,2.84,0,0,0,.07-.68,2,2,0,0,0-.31-1.18,1.16,1.16,0,0,0-1-.45h-.51V7.73Z"/>
    </g>
  </g>
  <rect class="cls-1" width="29" height="16"/>
</svg>
