<svg id="レイヤー_1" data-name="レイヤー 1" xmlns="http://www.w3.org/2000/svg" width="17.83" height="17" viewBox="0 0 17.83 17">
  <defs>
    <style>
      .cls-1 {
        fill: #fff;
      }
    </style>
  </defs>
  <title>icon_hint</title>
  <g>
    <polygon points="0 8.6 3.1 8.6 3.1 9.15 0 9.15 0 8.6 0 8.6"/>
    <polygon points="14.66 8.6 17.82 8.6 17.82 9.15 14.66 9.15 14.66 8.6 14.66 8.6"/>
    <polygon points="8.6 0 9.15 0 9.15 3.17 8.6 3.17 8.6 0 8.6 0"/>
    <polygon points="4.2 1.38 4.68 1.1 6.26 3.85 5.78 4.13 4.2 1.38 4.2 1.38"/>
    <polygon points="0.96 4.75 1.24 4.27 3.99 5.85 3.72 6.33 0.96 4.75 0.96 4.75"/>
    <polygon points="13.7 1.45 13.28 1.17 11.7 3.92 12.11 4.2 13.7 1.45 13.7 1.45"/>
    <polygon points="16.93 4.82 16.72 4.34 13.97 5.92 14.25 6.4 16.93 4.82 16.93 4.82"/>
    <polygon points="1.1 13.01 3.85 11.43 4.13 11.91 1.38 13.49 1.1 13.01 1.1 13.01"/>
    <polygon points="16.72 12.87 14.04 11.36 13.77 11.77 16.45 13.35 16.72 12.87 16.72 12.87"/>
    <path d="M11.42,15.62A1.49,1.49,0,0,1,10.19,17s-1.5,0-2.48,0a1.57,1.57,0,0,1-1.24-1.24V12A4.71,4.71,0,0,1,4.54,8.33,4.4,4.4,0,0,1,8.95,4a4.29,4.29,0,0,1,4.41,4.27,4.15,4.15,0,0,1-1.93,3.65v3.72h0Z"/>
    <path class="cls-1" d="M10.74,13.77H7.09V11.7a4.47,4.47,0,0,1-1.24-1.24,3.89,3.89,0,0,1-.62-2.13A3.65,3.65,0,0,1,8.88,4.68a3.58,3.58,0,0,1,3.72,3.58,4.31,4.31,0,0,1-1.86,3.44v2.07h0Z"/>
    <path d="M8,13.77H8v-5a0.9,0.9,0,0,1,.89-0.89,0.93,0.93,0,0,1,1,.89v5H9.36V8.47c0-.16-0.23-0.19-0.41-0.21s-0.44,0-.41.21v5.3H8Z"/>
    <path d="M8.95,8.19h0a0.53,0.53,0,0,1,.14.41V8.81a0.51,0.51,0,0,1-.14.41,0.38,0.38,0,0,1-.21-0.41V8.6a0.39,0.39,0,0,1,.21-0.41h0Z"/>
  </g>
</svg>
