<svg id="レイヤー_1" data-name="レイヤー 1" xmlns="http://www.w3.org/2000/svg" width="30" height="16" viewBox="0 0 30 16">
  <defs>
    <style>
      .cls-1 {
        fill: none;
      }
    </style>
  </defs>
  <title>icon_raw-pic-style</title>
  <path d="M29.14,4.6V15.5H8.68V4.6H29.14ZM9.41,5.41v9.27h19V5.41h-19ZM14.75,11L11,12.37,10,10.66l3.51-1.17Zm-3.52.68,2.55-1-0.48-.55-2.5.84ZM15,8l-2.39-.81-1.31.88L13.78,9Zm0.35,3.18-0.22,2.58h3L18,11.18H15.35ZM17.69,7.8L17.56,6.36H15.75L15.61,7.8h2.08ZM19.53,9L22,8.06,20.7,7.18,18.3,8Zm-0.79,2,3.5,1.3,1-1.51L19.89,9.62ZM27.1,6.32A4.13,4.13,0,0,0,25.58,6a2.38,2.38,0,0,0-1.64.56,2,2,0,0,0-.66,1.61,2,2,0,0,0,.8,1.68l1.47,0.86a1.42,1.42,0,0,1,.8,1.21,1.17,1.17,0,0,1-.49,1,1.49,1.49,0,0,1-.92.3,3.69,3.69,0,0,1-1.49-.39l-0.1,1.06a4.55,4.55,0,0,0,1.46.34,2.84,2.84,0,0,0,1.85-.56,2.17,2.17,0,0,0,.77-1.82,2.29,2.29,0,0,0-.79-1.81c-0.06-.05-0.56-0.35-1.48-0.9a1.29,1.29,0,0,1-.79-1.07A1,1,0,0,1,25.61,7,3.49,3.49,0,0,1,27,7.36Zm-19,2.57a2.83,2.83,0,0,1-.76.1,2.61,2.61,0,0,1-1.91-.78,2.53,2.53,0,0,1-.78-1.87,2.54,2.54,0,0,1,.78-1.88,2.61,2.61,0,0,1,1.91-.78,2.63,2.63,0,0,1,1.39.37h5.11V3.7a1.07,1.07,0,0,0-.34-0.79,1.12,1.12,0,0,0-.81-0.33H10.08l0,0V2.2a1.64,1.64,0,0,0-.69-1.15,1.82,1.82,0,0,0-1-.55h-2a1.77,1.77,0,0,0-1.06.55A1.62,1.62,0,0,0,4.69,2.2V2.55l0,0H2a1.12,1.12,0,0,0-.81.33,1.08,1.08,0,0,0-.34.79V9.49a1.09,1.09,0,0,0,.34.81,1.12,1.12,0,0,0,.81.33H8.14V8.89Z"/>
  <rect class="cls-1" width="30" height="16"/>
</svg>
