<svg id="icon" xmlns="http://www.w3.org/2000/svg" width="30" height="16" viewBox="0 0 30 16">
  <defs>
    <style>
      .cls-1 {
        fill: none;
      }
    </style>
  </defs>
  <g>
    <path d="M4.86,4.73A9,9,0,0,1,3,3.62,20.07,20.07,0,0,1,.06.56,9.17,9.17,0,0,0,1.45,4.37a8.11,8.11,0,0,0,1.83,2L2.15,7.45H6V3.59Z"/>
    <path d="M17,9.91a3.2,3.2,0,0,1-1.92.63,3.28,3.28,0,1,1,0-6.55,3.25,3.25,0,0,1,2.4,1A.9.9,0,0,1,18,4.89H22.6V4l-.1-.51-.28-.41-.42-.28-.5-.1H18.48L17.48,1,17.26.71,17,.55,16.69.5H13.56l-.44.12L12.8,1l-.16.27-.85,1.5H8.92l-.51.1L8,3.12l-.27.41L7.62,4v7.05l.11.5L8,12l.41.28.51.1H17Z"/>
    <g>
      <path d="M18,5.88H22.8V7.21h-3V10h2.83v1.33H19.76V15.5H18Z"/>
      <path d="M26.62,5.88a4.84,4.84,0,0,1,1.45.2,2.9,2.9,0,0,1,1,.58,2.28,2.28,0,0,1,.62.93,3.32,3.32,0,0,1,.21,1.22A3.36,3.36,0,0,1,29.73,10a2.24,2.24,0,0,1-.62.92,2.76,2.76,0,0,1-1,.58,4.52,4.52,0,0,1-1.45.21H26V15.5H24.26V5.88Zm0,4.53a2.35,2.35,0,0,0,.74-.11,1.35,1.35,0,0,0,.5-.32,1.27,1.27,0,0,0,.28-.51,2.29,2.29,0,0,0,.09-.66,1.66,1.66,0,0,0-.39-1.16,1.54,1.54,0,0,0-1.22-.44H26v3.2Z"/>
    </g>
  </g>
  <rect class="cls-1" width="30" height="16"/>
</svg>
