<svg id="レイヤー_2" data-name="レイヤー 2" xmlns="http://www.w3.org/2000/svg" width="26" height="16" viewBox="0 0 26 16">
  <defs>
    <style>
      .cls-1 {
        fill: none;
      }
    </style>
  </defs>
  <title>icon_scn-panning</title>
  <g>
    <path d="M15.15,10.49l0.06,0H15.12Z"/>
    <path d="M11.3,9.88l0.35,1.31a2,2,0,0,1,.42-0.68l0.11-.09A1.61,1.61,0,0,0,11.3,9.88Z"/>
    <circle cx="3.97" cy="11.47" r="1.62"/>
    <polygon points="16.67 0.5 1.16 0.5 0.99 1.92 16.51 1.92 16.67 0.5"/>
    <path d="M6.55,3.34H0.83L0.65,4.76H4.19A6.57,6.57,0,0,1,6.55,3.34Z"/>
    <path d="M16.18,4.76l0.2-1.42h-5.9a7.08,7.08,0,0,1,2.31,1.42h3.38Z"/>
    <path d="M8.39,8.86a1,1,0,0,1,.48-0.41,1.36,1.36,0,0,1,.42-0.09c0.2,0,.57,0,0.75,0a1.53,1.53,0,0,1,.43.08,1,1,0,0,1,.51.41,1.29,1.29,0,0,1,.07.18A2.44,2.44,0,0,1,13,10a2.43,2.43,0,0,1,1.11-.05,2.49,2.49,0,0,1,.39.11,1.94,1.94,0,0,1,.34.16,1.43,1.43,0,0,1,.27.2l0,0h0.09a2,2,0,0,1,.34-0.26L15.68,9H13.85a8,8,0,0,0-.49-1.44h2.49L16,6.16H12.5A5.19,5.19,0,0,0,8.56,4,5,5,0,0,0,4,7.19a4.31,4.31,0,0,0-3.3,4.12H1.43A2.45,2.45,0,0,1,4,9,2.45,2.45,0,0,1,6.5,11.32H7.68L8.26,9.19A1.31,1.31,0,0,1,8.39,8.86ZM5.8,7.54A2.48,2.48,0,0,1,8.51,5.39a2.48,2.48,0,0,1,2.71,2.16H5.8Z"/>
    <path d="M11.85,14.92a2.08,2.08,0,0,1,.06.27,0.2,0.2,0,0,1,0,.15,0.21,0.21,0,0,1-.15.06H11.15l-0.16,0a0.14,0.14,0,0,1-.08-0.06,0.36,0.36,0,0,1,0-.1L10.55,14H8.74l-0.3,1.22a0.44,0.44,0,0,1,0,.11,0.17,0.17,0,0,1-.08.07l-0.15,0H7.64a0.19,0.19,0,0,1-.13-0.07,0.23,0.23,0,0,1,0-.16,2,2,0,0,1,.06-0.27L9,9.4a0.53,0.53,0,0,1,.05-0.13,0.19,0.19,0,0,1,.1-0.08l0.18,0H10l0.2,0a0.19,0.19,0,0,1,.1.08,0.54,0.54,0,0,1,.05.14ZM9.64,10.36h0L9,13h1.37Z"/>
    <path d="M14.81,14a1.8,1.8,0,0,1-.11.64,1.23,1.23,0,0,1-.76.75,1.78,1.78,0,0,1-1.23,0l-0.22-.11a0.6,0.6,0,0,1-.13-0.11A0.38,0.38,0,0,1,12.29,15a1.72,1.72,0,0,1,0-.32c0-.09,0-0.17,0-0.22a0.68,0.68,0,0,1,0-.13,0.13,0.13,0,0,1,0-.07l0.06,0a0.24,0.24,0,0,1,.12.06l0.2,0.13L13,14.56a1,1,0,0,0,.36.06,0.7,0.7,0,0,0,.23,0,0.51,0.51,0,0,0,.17-0.1,0.39,0.39,0,0,0,.11-0.16,0.61,0.61,0,0,0,0-.22,0.43,0.43,0,0,0-.07-0.25,0.66,0.66,0,0,0-.18-0.18l-0.26-.14-0.29-.15L12.8,13.2a1.21,1.21,0,0,1-.26-0.26,1.29,1.29,0,0,1-.18-0.37,1.72,1.72,0,0,1-.07-0.52,1.66,1.66,0,0,1,.09-0.56,1.24,1.24,0,0,1,.27-0.44,1.2,1.2,0,0,1,.43-0.28,1.5,1.5,0,0,1,.56-0.1,1.58,1.58,0,0,1,.3,0l0.27,0.07,0.2,0.09L14.53,11a0.22,0.22,0,0,1,.05.07,0.42,0.42,0,0,1,0,.09s0,0.08,0,.13,0,0.11,0,.18,0,0.16,0,.21a0.66,0.66,0,0,1,0,.13,0.11,0.11,0,0,1,0,.06l-0.05,0a0.22,0.22,0,0,1-.1,0l-0.18-.11L14,11.57a1,1,0,0,0-.32,0,0.65,0.65,0,0,0-.22,0,0.39,0.39,0,0,0-.15.1,0.4,0.4,0,0,0-.09.15,0.53,0.53,0,0,0,0,.18,0.43,0.43,0,0,0,.07.25,0.7,0.7,0,0,0,.19.18l0.26,0.14L14,12.7l0.3,0.19a1.2,1.2,0,0,1,.26.26,1.27,1.27,0,0,1,.19.37A1.6,1.6,0,0,1,14.81,14Z"/>
    <path d="M17.85,14a1.8,1.8,0,0,1-.11.64,1.23,1.23,0,0,1-.76.75,1.78,1.78,0,0,1-1.23,0l-0.22-.11a0.6,0.6,0,0,1-.13-0.11A0.38,0.38,0,0,1,15.34,15a1.72,1.72,0,0,1,0-.32c0-.09,0-0.17,0-0.22a0.68,0.68,0,0,1,0-.13,0.13,0.13,0,0,1,0-.07l0.06,0a0.24,0.24,0,0,1,.12.06l0.2,0.13L16,14.56a1,1,0,0,0,.36.06,0.7,0.7,0,0,0,.23,0,0.51,0.51,0,0,0,.17-0.1,0.39,0.39,0,0,0,.11-0.16,0.61,0.61,0,0,0,0-.22,0.43,0.43,0,0,0-.07-0.25,0.66,0.66,0,0,0-.18-0.18l-0.26-.14-0.29-.15-0.29-.19a1.21,1.21,0,0,1-.26-0.26,1.29,1.29,0,0,1-.18-0.37,1.72,1.72,0,0,1-.07-0.52,1.66,1.66,0,0,1,.09-0.56,1.24,1.24,0,0,1,.27-0.44,1.2,1.2,0,0,1,.43-0.28,1.5,1.5,0,0,1,.56-0.1,1.58,1.58,0,0,1,.3,0l0.27,0.07,0.2,0.09L17.57,11a0.22,0.22,0,0,1,.05.07,0.42,0.42,0,0,1,0,.09s0,0.08,0,.13,0,0.11,0,.18,0,0.16,0,.21a0.66,0.66,0,0,1,0,.13,0.11,0.11,0,0,1,0,.06l-0.05,0a0.22,0.22,0,0,1-.1,0l-0.18-.11L17,11.57a1,1,0,0,0-.32,0,0.65,0.65,0,0,0-.22,0,0.39,0.39,0,0,0-.15.1,0.4,0.4,0,0,0-.09.15,0.53,0.53,0,0,0,0,.18,0.43,0.43,0,0,0,.07.25,0.7,0.7,0,0,0,.19.18l0.26,0.14L17,12.7l0.3,0.19a1.2,1.2,0,0,1,.26.26,1.27,1.27,0,0,1,.19.37A1.6,1.6,0,0,1,17.85,14Z"/>
    <path d="M19.56,9.49a0.81,0.81,0,0,1-.12.5,0.74,0.74,0,0,1-.85,0,0.79,0.79,0,0,1-.11-0.49A0.83,0.83,0,0,1,18.6,9a0.72,0.72,0,0,1,.85,0A0.79,0.79,0,0,1,19.56,9.49Zm-0.07,5.73a0.15,0.15,0,0,1,0,.08,0.16,0.16,0,0,1-.08.06l-0.14,0H18.8l-0.14,0a0.16,0.16,0,0,1-.08-0.06,0.16,0.16,0,0,1,0-.08V11a0.16,0.16,0,0,1,0-.08,0.17,0.17,0,0,1,.08-0.06l0.14,0h0.45l0.14,0a0.17,0.17,0,0,1,.08.06,0.15,0.15,0,0,1,0,.08v4.27Z"/>
    <path d="M22.77,14a1.8,1.8,0,0,1-.11.64,1.23,1.23,0,0,1-.76.75,1.78,1.78,0,0,1-1.23,0l-0.22-.11a0.6,0.6,0,0,1-.13-0.11A0.38,0.38,0,0,1,20.25,15a1.72,1.72,0,0,1,0-.32c0-.09,0-0.17,0-0.22a0.68,0.68,0,0,1,0-.13,0.13,0.13,0,0,1,0-.07l0.06,0a0.24,0.24,0,0,1,.12.06l0.2,0.13L21,14.56a1,1,0,0,0,.36.06,0.7,0.7,0,0,0,.23,0,0.51,0.51,0,0,0,.17-0.1,0.39,0.39,0,0,0,.11-0.16,0.61,0.61,0,0,0,0-.22,0.43,0.43,0,0,0-.07-0.25,0.66,0.66,0,0,0-.18-0.18l-0.26-.14-0.29-.15-0.29-.19a1.21,1.21,0,0,1-.26-0.26,1.29,1.29,0,0,1-.18-0.37,1.72,1.72,0,0,1-.07-0.52,1.66,1.66,0,0,1,.09-0.56,1.24,1.24,0,0,1,.27-0.44A1.2,1.2,0,0,1,21,10.77a1.5,1.5,0,0,1,.56-0.1,1.58,1.58,0,0,1,.3,0l0.27,0.07,0.2,0.09L22.49,11a0.22,0.22,0,0,1,.05.07,0.42,0.42,0,0,1,0,.09s0,0.08,0,.13,0,0.11,0,.18,0,0.16,0,.21a0.66,0.66,0,0,1,0,.13,0.11,0.11,0,0,1,0,.06l-0.05,0a0.22,0.22,0,0,1-.1,0l-0.18-.11-0.25-.11a1,1,0,0,0-.32,0,0.65,0.65,0,0,0-.22,0,0.39,0.39,0,0,0-.15.1,0.4,0.4,0,0,0-.09.15,0.53,0.53,0,0,0,0,.18,0.43,0.43,0,0,0,.07.25,0.7,0.7,0,0,0,.19.18l0.26,0.14,0.3,0.15,0.3,0.19a1.2,1.2,0,0,1,.26.26,1.27,1.27,0,0,1,.19.37A1.6,1.6,0,0,1,22.77,14Z"/>
    <path d="M25.35,14.8a1.9,1.9,0,0,1,0,.32,0.41,0.41,0,0,1-.05.16,0.31,0.31,0,0,1-.1.08L25,15.43l-0.19,0H24.63a1.19,1.19,0,0,1-.48-0.09,0.81,0.81,0,0,1-.34-0.28,1.3,1.3,0,0,1-.2-0.48A3.21,3.21,0,0,1,23.54,14V11.76h-0.4A0.13,0.13,0,0,1,23,11.65a1.35,1.35,0,0,1,0-.38c0-.09,0-0.17,0-0.24a0.72,0.72,0,0,1,0-.15,0.18,0.18,0,0,1,0-.08l0.06,0h0.39v-1a0.18,0.18,0,0,1,0-.09,0.16,0.16,0,0,1,.07-0.07l0.15,0h0.45l0.14,0a0.16,0.16,0,0,1,.1.15v1H25.2l0.06,0a0.18,0.18,0,0,1,0,.08,0.72,0.72,0,0,1,0,.15c0,0.06,0,.14,0,0.24a1.34,1.34,0,0,1,0,.38,0.13,0.13,0,0,1-.11.11H24.48v2a1.24,1.24,0,0,0,.09.53,0.31,0.31,0,0,0,.3.18l0.13,0,0.11,0,0.08,0,0.06,0,0,0a0.13,0.13,0,0,1,0,.07s0,0.08,0,.14A2.13,2.13,0,0,1,25.35,14.8Z"/>
  </g>
  <rect class="cls-1" width="26" height="16"/>
</svg>
