<?xml version="1.0" encoding="utf-8"?>
<!-- Generator: Adobe Illustrator 23.0.3, SVG Export Plug-In . SVG Version: 6.00 Build 0)  -->
<svg version="1.1" id="レイヤー_1" xmlns="http://www.w3.org/2000/svg" xmlns:xlink="http://www.w3.org/1999/xlink" x="0px"
	 y="0px" width="37.98px" height="15.87px" viewBox="0 0 37.98 15.87" enable-background="new 0 0 37.98 15.87"
	 xml:space="preserve">
<g>
	<path fill="#040000" d="M7.78,2.79H2.97v3.94h4.59v1.7H2.97v6.14H1.18V1.08h6.6V2.79z M19.12,9c0,1.9-0.39,3.35-1.17,4.33
		c-0.78,0.98-1.9,1.47-3.35,1.47c-1.44,0-2.55-0.49-3.33-1.47c-0.78-0.98-1.17-2.42-1.17-4.33V1.08h1.67v7.67
		c0,0.65,0.05,1.24,0.14,1.78c0.1,0.54,0.25,1,0.48,1.38c0.22,0.38,0.51,0.68,0.88,0.89c0.36,0.22,0.81,0.32,1.34,0.32
		c0.54,0,1-0.11,1.36-0.32c0.36-0.21,0.65-0.51,0.88-0.89c0.22-0.38,0.38-0.84,0.48-1.38s0.14-1.13,0.14-1.78V1.08h1.67V9z
		 M28.27,14.58h-6.53V1.08h1.67v11.8h4.86V14.58z M36.8,14.58h-6.7V1.08h1.72v11.8h4.98V14.58z"/>
</g>
</svg>
