<svg id="レイヤー_1" data-name="レイヤー 1" xmlns="http://www.w3.org/2000/svg" width="15" height="16" viewBox="0 0 15 16">
  <defs>
    <style>
      .cls-1 {
        fill: none;
      }
    </style>
  </defs>
  <title>icon_mexp-save-exit</title>
  <rect class="cls-1" width="15" height="16"/>
  <path d="M0.63,15.5V2.93H4L3.23,4.2H1.88v10h8.75v-3h1.25V15.5H0.63ZM4.71,5.43L6.26,2.79,7.8,5.43H4.71Zm9.66-1.18a3.1,3.1,0,0,1-.08.67,4.69,4.69,0,0,1-.28.83,2.37,2.37,0,0,1-.14.3,2.77,2.77,0,0,1-.16.25,12,12,0,0,1-1.43,1.65l2,2H8.58V4.3l2,1.88q0.4-.35.59-0.54a2.42,2.42,0,0,0,.67-0.9A3.44,3.44,0,0,0,12,4,2,2,0,0,0,11.74,3,4.73,4.73,0,0,0,9.19,1.11,8.39,8.39,0,0,0,6.06.5,20.36,20.36,0,0,1,11.49,1a5.49,5.49,0,0,1,1.4.72,3.23,3.23,0,0,1,1.05,1.05A2.74,2.74,0,0,1,14.37,4.25Z"/>
</svg>
