<svg id="レイヤー_1" data-name="レイヤー 1" xmlns="http://www.w3.org/2000/svg" width="54" height="16" viewBox="0 0 54 16">
  <defs>
    <style>
      .cls-1 {
        fill: none;
      }
    </style>
  </defs>
  <title>icon_jpeg-heif</title>
  <g>
    <path d="M3.81,10.85A6.2,6.2,0,0,1,3.19,14a1.62,1.62,0,0,1-1.45,1,1.84,1.84,0,0,1-1.09-.33V12.51a1.38,1.38,0,0,0,.71.25q0.92,0,.92-1.91V1.43H3.81v9.42ZM8.4,1.44H5.91V14.81H7.51V10.09H8.4q2.75,0,2.75-4.11C11.15,3.29,10.23,1.44,8.4,1.44ZM8.11,7.69H7.51V3.78H8.11Q9.54,3.78,9.54,6C9.54,7.44,9.07,7.69,8.11,7.69Zm9.32,7.11H12.71V1.44h4.71V3.78H14.32V6.93h2.57V9.29H14.32v3.16h3.11v2.36Zm7.85-.69a5.88,5.88,0,0,1-2.74.75,3.8,3.8,0,0,1-3.36-1.78A9,9,0,0,1,18,8.21c0-4.22,1.93-6.9,4.75-6.9a3.12,3.12,0,0,1,2,.89V5.36a2.75,2.75,0,0,0-2-1.59c-1.83,0-3.11,1.23-3.11,4.33s1.19,4.55,3,4.55a1.56,1.56,0,0,0,1-.25V9.31H21.92V6.94h3.36v7.18Z"/>
    <path d="M37.59,14.94H36V9H32.81v6H31.21V1.32h1.59v5.5H36V1.32h1.59V14.94Zm6.56,0H39.44V1.32h4.69V3.47H41V6.82h2.83V9H41v3.83h3.12v2.15Zm3.08,0H45.63V1.32h1.59V14.94ZM53.35,3.47H50.52V6.82h2.69V9H50.52v6H48.93V1.32h4.42V3.47Z"/>
    <polygon points="30.38 0.5 27.41 15.5 26.15 15.5 29.12 0.5 30.38 0.5"/>
  </g>
  <rect class="cls-1" width="54" height="16"/>
</svg>
