<svg xmlns="http://www.w3.org/2000/svg" width="16" height="16" viewBox="0 0 16 16">
  <defs>
    <style>
      .cls-1 {
        fill: none;
      }
    </style>
  </defs>
  <g id="base">
    <rect id="Flash_mark.ai" class="cls-1" width="16" height="16"/>
  </g>
  <g id="icon">
    <path d="M13.62.5H2.38A1.88,1.88,0,0,0,.5,2.38V13.62A1.88,1.88,0,0,0,2.38,15.5H13.62a1.88,1.88,0,0,0,1.88-1.88V2.38A1.88,1.88,0,0,0,13.62.5Zm-3,12.32H5.11V11.49l.76-.83c.28-.3.56-.62.83-.95s.54-.67.8-1,.48-.69.68-1a7.33,7.33,0,0,0,.47-1,2.57,2.57,0,0,0,.18-.9,1.77,1.77,0,0,0-.29-1.09,1,1,0,0,0-.89-.37,2,2,0,0,0-.52.07,5.58,5.58,0,0,0-.58.18A4.79,4.79,0,0,0,6,4.83a2.8,2.8,0,0,0-.46.28L5.31,3.59a2.51,2.51,0,0,1,.49-.27,3.66,3.66,0,0,1,.61-.22A5,5,0,0,1,7.1,3a4.48,4.48,0,0,1,.73,0,4.09,4.09,0,0,1,1.08.14,2.35,2.35,0,0,1,.85.47,2,2,0,0,1,.57.82,3.07,3.07,0,0,1,.21,1.2,4.07,4.07,0,0,1-.15,1.08A7,7,0,0,1,10,7.72a10.46,10.46,0,0,1-.61,1.07c-.23.35-.48.69-.73,1s-.52.61-.79.89-.53.53-.78.76h3.52Z"/>
  </g>
</svg>
