<svg id="レイヤー_1" data-name="レイヤー 1" xmlns="http://www.w3.org/2000/svg" width="23" height="16" viewBox="0 0 23 16">
  <defs>
    <style>
      .cls-1 {
        fill: none;
      }
    </style>
  </defs>
  <title>icon_mov-frame-grab</title>
  <path d="M11.66,2.31l2.19,8.17L2.91,13.43,0.72,5.24l10.47-2.8Zm1,7.48L11,3.51l-0.9.23-1.63.44-2,.54-2,.54-1.63.44-0.9.23L3.6,12.23,4.5,12l1.63-.44,2-.54,2-.54L11.76,10Zm9.63-9.3v15h-1V14.72H19.76V15.5h-1V12.22h-7.4V15.5h-1V14.72H8.86V15.5h-1V12.89l1-.26v1.12h1.56V12.22H10.36l3.65-1h4.77V4.68H13.09l-0.26-1h5.94V0.5h1V1.19h1.56V0.5h1Zm-10.9,0V1.59l-0.4.1-1.76.47H8.86v0.1l-1,.26v-2h1V1.19h1.56V0.5h1Zm8.38,3.2h1.56V2.16H19.76V3.7Zm0,2.52h1.56V4.68H19.76V6.22Zm0,2.51h1.56V7.19H19.76V8.73Zm0,2.52h1.56V9.71H19.76v1.54Zm0,2.5h1.56V12.22H19.76v1.54Z"/>
  <rect class="cls-1" width="23" height="16"/>
</svg>
