<svg xmlns="http://www.w3.org/2000/svg" width="31" height="16" viewBox="0 0 31 16">
  <defs>
    <style>
      .cls-1 {
        fill: none;
      }
    </style>
  </defs>
  <g id="base">
    <rect class="cls-1" width="31" height="16"/>
  </g>
  <g id="icon">
    <g>
      <g>
        <path d="M10.94,15a4.26,4.26,0,0,1-.51.24,7,7,0,0,1-.79.23,7.14,7.14,0,0,1-1.05.18,10,10,0,0,1-1.27.07,6.92,6.92,0,0,1-2.53-.46,5.47,5.47,0,0,1-2.12-1.42,7.06,7.06,0,0,1-1.44-2.45A10.4,10.4,0,0,1,.69,7.88a10.81,10.81,0,0,1,.48-3.36A7,7,0,0,1,2.52,2.05,5.75,5.75,0,0,1,4.61.52,6.82,6.82,0,0,1,7.32,0,9.34,9.34,0,0,1,8.56.08a6.53,6.53,0,0,1,1,.21,7.33,7.33,0,0,1,.79.26c.22.09.4.18.55.25l-.14,2.38a4.75,4.75,0,0,0-.6-.35,4.46,4.46,0,0,0-.73-.32,6.7,6.7,0,0,0-.83-.23,5.29,5.29,0,0,0-.9-.08A4.13,4.13,0,0,0,6,2.54a3.5,3.5,0,0,0-1.32,1,5,5,0,0,0-.85,1.77,9.36,9.36,0,0,0-.3,2.52,8.87,8.87,0,0,0,.35,2.67,5,5,0,0,0,.91,1.76,3.36,3.36,0,0,0,1.33,1,4.23,4.23,0,0,0,1.58.3,4.67,4.67,0,0,0,.89-.1,7.71,7.71,0,0,0,.89-.24,6.87,6.87,0,0,0,.77-.3,5.55,5.55,0,0,0,.56-.29Z"/>
        <polygon points="17.8 10.55 17.8 7.25 18.71 7.25 18.71 0.25 16.46 0.25 12.93 2.97 13.81 5.13 16.14 3.17 16.14 15.55 18.71 15.55 18.71 10.55 17.8 10.55"/>
      </g>
      <g>
        <path d="M18.9,8.35h5.47v1.1H22.42V16H20.83V9.45H18.9Z"/>
        <path d="M30.31,10.06l-2,5.94H26.64l-2-5.94h1.53l1.32,4.5,1.32-4.5Z"/>
      </g>
    </g>
  </g>
</svg>
