<svg id="レイヤー_1" data-name="レイヤー 1" xmlns="http://www.w3.org/2000/svg" width="17" height="16" viewBox="0 0 17 16">
  <defs>
    <style>
      .cls-1 {
        fill: none;
      }
    </style>
  </defs>
  <title>icon_playback_movie_file</title>
  <path d="M3.54,5.16L0.8,6.5v-6L3.54,1.69V5.16ZM9.32,15.5V12.44H0.82v2.31H7.73V15.5H9.32Zm-1.6-1.59H1.55V13.23H7.72v0.68ZM16.18,6a1.34,1.34,0,0,1-1.35,1.35H6A1.34,1.34,0,0,1,4.69,6V1.85a1.31,1.31,0,0,1,.39-1A1.29,1.29,0,0,1,6,.5h8.79a1.29,1.29,0,0,1,1,.4,1.32,1.32,0,0,1,.39,1V6ZM7.72,8.25l-2,3L6.85,12,9.3,8.28l0,0H7.72Zm8.48,4.19H9.67v0.79h5.8v0.68H9.67v0.84H16.2V12.44ZM13.11,8.25l2,3L14,12,11.52,8.28l0,0h1.55Z"/>
  <rect class="cls-1" width="17" height="16"/>
</svg>
