<?xml version="1.0" encoding="utf-8"?>
<!-- Generator: Adobe Illustrator 21.1.0, SVG Export Plug-In . SVG Version: 6.00 Build 0)  -->
<svg version="1.1" id="レイヤー_1" xmlns="http://www.w3.org/2000/svg" xmlns:xlink="http://www.w3.org/1999/xlink" x="0px"
	 y="0px" width="23.4px" height="16px" viewBox="0 0 23.4 16" style="enable-background:new 0 0 23.4 16;" xml:space="preserve">
<style type="text/css">
	.st0{fill:none;}
</style>
<title>icon_btn-m-fn</title>
<rect class="st0" width="23.4" height="16"/>
<g>
	<path d="M21.4,9.3c0.1,0,0.1,0,0.1-0.1l0.8-0.4c0-0.1,0.1-0.1,0.1-0.1c0.1-0.1,0.1-0.3,0-0.4c-0.1-0.1-0.2-0.1-0.4-0.1l-0.9,0.5
		c-0.1,0.1-0.1,0.3,0,0.5C21.3,9.3,21.4,9.3,21.4,9.3z"/>
	<path d="M14.3,8.2c-0.1,0-0.2,0-0.3,0.1c-0.1,0.1,0,0.4,0.1,0.4L15,9.2c0.1,0.1,0.1,0.1,0.1,0.1c0.1,0,0.1,0,0.2-0.1
		C15.4,9.1,15.4,9,15.4,9c0-0.1-0.1-0.2-0.1-0.3l-0.8-0.5C14.4,8.2,14.4,8.2,14.3,8.2z"/>
	<path d="M14.9,11.2c-0.1-0.1-0.1-0.1-0.2-0.1l-1,0.1c-0.1,0.1-0.1,0.1-0.2,0.1c-0.1,0.1-0.1,0.1-0.1,0.2c0,0.1,0.1,0.1,0.1,0.1
		c0.1,0.1,0.1,0.1,0.2,0.1h0.1l0.9-0.1c0.1,0,0.1-0.1,0.2-0.1c0.1-0.1,0.1-0.1,0.1-0.2C15.1,11.3,15,11.2,14.9,11.2z"/>
	<path d="M16,13.2c-0.1,0-0.1,0.1-0.2,0.1L15.2,14c-0.1,0.1-0.1,0.1-0.1,0.2c0,0.1,0,0.1,0.1,0.2c0.1,0.1,0.3,0.1,0.4,0l0.7-0.7
		c0,0,0-0.1,0-0.2c0-0.1,0-0.1-0.1-0.2C16.1,13.2,16,13.2,16,13.2z"/>
	<path d="M18.3,14.1c-0.1,0-0.1,0-0.2,0.1C18,14.2,18,14.3,18,14.4v0.9c0,0.1,0,0.1,0,0.1c0,0.1,0.1,0.3,0.3,0.3
		c0.1,0,0.1,0,0.2-0.1c0.1-0.1,0.1-0.1,0.1-0.2v-1c0-0.1,0-0.1-0.1-0.2C18.4,14.1,18.4,14.1,18.3,14.1z"/>
	<path d="M20.9,10.9c0-0.4-0.1-0.8-0.3-1.2c-0.2-0.4-0.5-0.7-0.8-1V6h-3.1v2.8C16.4,9,16.1,9.3,16,9.6c-0.6,1.3-0.1,2.9,1.2,3.5
		c0.4,0.2,0.7,0.3,1.2,0.3c0.4,0,0.7-0.1,1-0.2c0.3-0.1,0.6-0.4,0.7-0.5c0.3-0.2,0.4-0.5,0.6-0.8C20.8,11.6,20.9,11.2,20.9,10.9z
		 M17.4,6.7h1.8v1.7c-0.6-0.2-1.2-0.2-1.8-0.1V6.7z M20,11.5c-0.1,0.2-0.2,0.4-0.4,0.6c-0.1,0.1-0.4,0.3-0.6,0.4
		c-0.4,0.2-1,0.2-1.4,0c-0.2-0.1-0.4-0.2-0.6-0.4c-0.1-0.1-0.3-0.4-0.4-0.6c-0.3-0.7-0.1-1.5,0.4-2c0.1-0.1,0.3-0.3,0.6-0.4
		c0.4-0.2,1-0.2,1.4,0c0.4,0.1,0.7,0.5,1,1c0.1,0.2,0.1,0.5,0.1,0.7C20.1,11.1,20.1,11.3,20,11.5z"/>
	<path d="M21,13.4c-0.1-0.1-0.2-0.1-0.3-0.1c-0.1,0-0.1,0-0.2,0.1c-0.1,0.1-0.1,0.1-0.1,0.2c0,0.1,0,0.1,0.1,0.2l0.6,0.7
		c0,0.1,0.1,0.1,0.2,0.1c0.1,0,0.3-0.1,0.4-0.3c0-0.1,0-0.1-0.1-0.2L21,13.4z"/>
	<path d="M23.1,11.7c0-0.1,0-0.1-0.1-0.2c-0.1-0.1-0.1-0.1-0.2-0.1l-0.9-0.1h-0.1c-0.1,0-0.3,0.1-0.3,0.3c0,0.1,0.1,0.1,0.1,0.1
		c0,0.1,0.1,0.1,0.1,0.1l1,0.1h0.1c0.1,0,0.1,0,0.2-0.1C23.1,11.7,23.1,11.7,23.1,11.7z"/>
	<path d="M10.2,5.2c0-2.6-2.1-4.8-4.8-4.8S0.6,2.6,0.6,5.2S2.8,10,5.4,10S10.2,7.9,10.2,5.2z M5.4,1.9c0.5,0,0.9,0.4,0.9,0.9
		c0,0.5-0.4,0.9-0.9,0.9c-0.5,0-0.9-0.4-0.9-0.9C4.5,2.3,4.9,1.9,5.4,1.9z M7,8.7H3.9V8.2l0.6-0.2V5.3L3.9,5l2.5-0.4v3.4L7,8.2V8.7z
		"/>
	<polygon points="14.4,2 8.1,14.6 9.6,14.6 16,2 	"/>
</g>
</svg>
