<svg id="レイヤー_1" data-name="レイヤー 1" xmlns="http://www.w3.org/2000/svg" width="16" height="16" viewBox="0 0 16 16">
  <defs>
    <style>
      .cls-1 {
        fill: #211e1f;
      }

      .cls-2 {
        fill: none;
      }
    </style>
  </defs>
  <title>icon_lc-e19_b</title>
  <path class="cls-1" d="M7.75,8.57h-1v3.1h1c1,0,2.21-.25,2.21-1.49,0-1.4-1.14-1.61-2.21-1.61m1.89-2.9c0-1.24-1.09-1.33-2.07-1.33H6.73V7H7.61c0.91,0,2-.2,2-1.31m5.08-4.38A2.68,2.68,0,0,0,12.82.5H3.18A2.68,2.68,0,0,0,.5,3.18v9.65A2.67,2.67,0,0,0,3.18,15.5h9.65a2.67,2.67,0,0,0,2.68-2.68V3.18a2.67,2.67,0,0,0-.78-1.89M8.33,13.36H4.58V2.64H8.33c1.38,0,3.45.4,3.45,2.75a2.4,2.4,0,0,1-2.14,2.4v0a2.49,2.49,0,0,1,2.46,2.44c0,2.7-2.43,3.1-3.78,3.1"/>
  <rect class="cls-2" width="16" height="16"/>
</svg>
