<svg id="レイヤー_1" data-name="レイヤー 1" xmlns="http://www.w3.org/2000/svg" width="33" height="16" viewBox="0 0 33 16">
  <defs>
    <style>
      .cls-1 {
        fill: none;
      }
    </style>
  </defs>
  <title>icon_pic-style-p</title>
  <rect class="cls-1" width="33" height="16"/>
  <path d="M32.16,0.5v15H0.84V0.5H32.16ZM2,1.63V14.41h29.1V1.63H2Zm8.19,7.66L4.41,11.2,2.8,8.84,8.16,7.23Zm-6,0,0.36,0.5,0.28,0.42L5.47,10l1-.33,1.11-.37,1.09-.36L8.24,8.48,7.92,8.16l-0.69.2-1,.29L5.15,9Zm6.43-4.14L6.86,4.05l-2,1.2,3.8,1.27ZM11,9.57l-0.33,3.54h4.65L15,9.57H11ZM14.61,4.9l-0.17-2H11.66l-0.21,2h3.16Zm2.84,1.61,3.78-1.27-2-1.2L15.56,5.16ZM16.24,9.22L21.6,11l1.46-2.1L18,7.4Zm7.41-6.56h2.64a6.24,6.24,0,0,1,1.46.17,3.34,3.34,0,0,1,1.2.54,2.63,2.63,0,0,1,.81,1,3.55,3.55,0,0,1,.3,1.56,3.5,3.5,0,0,1-.3,1.54,2.85,2.85,0,0,1-.8,1A3.13,3.13,0,0,1,27.82,9a5,5,0,0,1-1.32.17H25.08v4.37H23.65V2.67Zm1.44,5.18h1.44a2.64,2.64,0,0,0,.68-0.09,1.84,1.84,0,0,0,.65-0.32,1.71,1.71,0,0,0,.49-0.6,2,2,0,0,0,.19-0.91,1.65,1.65,0,0,0-.77-1.46A2.51,2.51,0,0,0,27,4.14,2.75,2.75,0,0,0,26.32,4H25.08V7.85Z"/>
</svg>
