<svg id="レイヤー_1" data-name="レイヤー 1" xmlns="http://www.w3.org/2000/svg" width="41" height="16" viewBox="0 0 41 16">
  <defs>
    <style>
      .cls-1 {
        fill: none;
      }
    </style>
  </defs>
  <title>icon_menu_bk</title>
  <path d="M40.33,13.72a1.71,1.71,0,0,1-.14.7,1.85,1.85,0,0,1-.39.57,1.72,1.72,0,0,1-.57.38,1.79,1.79,0,0,1-.7.14H2.47a1.79,1.79,0,0,1-.7-0.14A1.73,1.73,0,0,1,1.2,15a1.85,1.85,0,0,1-.39-0.57,1.71,1.71,0,0,1-.14-0.7V2.3A1.74,1.74,0,0,1,1.19,1,1.74,1.74,0,0,1,2.47.5H38.53A1.74,1.74,0,0,1,39.81,1a1.74,1.74,0,0,1,.52,1.28V13.72Zm-28.47-.07v-11H9.2L7.63,11.3h0L6,2.64H3.35v11H5V4.44h0l1.6,9.2h1.8l1.62-9.2h0v9.2h1.73Zm8.43,0v-2H15.41V8.84H19.7V6.91H15.41V4.59h4.65V2.64H13.59v11h6.7Zm8.54,0v-11H27.14v7.63h0L23.61,2.64H21.68v11h1.71V5.79h0L27,13.64h1.82Zm8.81-3.87V2.64H35.76V9.86a2.58,2.58,0,0,1-.41,1.57A1.61,1.61,0,0,1,34,12a1.41,1.41,0,0,1-1.09-.52,2.54,2.54,0,0,1-.46-1.69V2.64H30.56V9.92a6.7,6.7,0,0,0,.15,1.49,3.23,3.23,0,0,0,.51,1.17,2.8,2.8,0,0,0,.65.68,3.2,3.2,0,0,0,.74.4,3.46,3.46,0,0,0,.74.2,4.42,4.42,0,0,0,.67.05,3.56,3.56,0,0,0,2.64-1A4.33,4.33,0,0,0,37.63,9.77Z"/>
  <rect class="cls-1" width="41" height="16"/>
</svg>
