<svg id="レイヤー_1" data-name="レイヤー 1" xmlns="http://www.w3.org/2000/svg" width="13" height="16" viewBox="0 0 13 16">
  <defs>
    <style>
      .cls-1 {
        fill: none;
      }
    </style>
  </defs>
  <title>icon_mode-c</title>
  <path d="M12.14,15q-0.8.2-1.64,0.33a10.6,10.6,0,0,1-1.66.13,11.29,11.29,0,0,1-3.23-.44,6.9,6.9,0,0,1-2.53-1.34,6,6,0,0,1-1.64-2.26A8.12,8.12,0,0,1,.86,8.25a9.2,9.2,0,0,1,.55-3.3A6.62,6.62,0,0,1,3,2.51,6.67,6.67,0,0,1,5.5,1,10.42,10.42,0,0,1,10.44.64a8,8,0,0,1,1.69.47L11.91,3.55a5.61,5.61,0,0,0-1.6-.62,7.94,7.94,0,0,0-1.54-.15,4.94,4.94,0,0,0-2,.4A4.45,4.45,0,0,0,5.21,4.3,5,5,0,0,0,4.23,6a6.16,6.16,0,0,0-.34,2.08,6,6,0,0,0,.34,2.05,4.8,4.8,0,0,0,1,1.64,4.4,4.4,0,0,0,1.55,1.09,5.26,5.26,0,0,0,2.08.39,8.57,8.57,0,0,0,.87,0q0.45,0,.87-0.12a8.09,8.09,0,0,0,.8-0.19A2.81,2.81,0,0,0,12,12.62Z"/>
  <rect class="cls-1" width="13" height="16"/>
</svg>
