<svg xmlns="http://www.w3.org/2000/svg" width="38" height="16" viewBox="0 0 38 16">
  <defs>
    <style>
      .cls-1 {
        fill: none;
      }
    </style>
  </defs>
  <g id="base">
    <rect class="cls-1" width="38" height="16"/>
  </g>
  <g id="icon">
    <g>
      <g>
        <path d="M30.29,1a8.18,8.18,0,0,0-.62,1.08,8.07,8.07,0,0,1,6.1,4.06,8.09,8.09,0,0,1-6.1,4.06,8.75,8.75,0,0,0,.62,1.07,9.25,9.25,0,0,0,6.78-5.13A9.24,9.24,0,0,0,30.29,1Z"/>
        <path d="M28.07,6.14a9.74,9.74,0,0,1,.29-2.37L26.09,6.14l2.27,2.37A9.8,9.8,0,0,1,28.07,6.14Z"/>
        <path d="M30,6.14a5.26,5.26,0,0,0,.93,3,5.26,5.26,0,0,0,0-6A5.3,5.3,0,0,0,30,6.14Z"/>
      </g>
      <g>
        <path d="M15.94,5.24,19.09,15H17.2l-.64-2.31H13.33L12.68,15H10.8L14,5.24Zm-1,1.5s0,0,0,.08,0,.09,0,.13,0,.08,0,.12,0,.07,0,.09L13.66,11.3h2.56L15,7.17Z"/>
        <path d="M19.76,5.24h4.83V6.59H21.52V9.38h2.86v1.35H21.52V15H19.76Z"/>
      </g>
      <g>
        <path d="M1.89,10.6v-8a.29.29,0,0,1,.29-.3H6.8v-1H2.18A1.26,1.26,0,0,0,.93,2.56v8a1.25,1.25,0,0,0,1.25,1.25H6.8V10.9H2.18A.3.3,0,0,1,1.89,10.6Z"/>
        <path d="M10.27,5.8h.89a3.45,3.45,0,0,0-6.73,0h.9a2.59,2.59,0,0,1,4.94,0Z"/>
        <path d="M11.16,7.35h-.89a2.59,2.59,0,0,1-4.94,0h-.9a3.45,3.45,0,0,0,6.73,0Z"/>
        <path d="M6.19,6.57h0A1.61,1.61,0,1,0,7.8,5,1.6,1.6,0,0,0,6.19,6.58Z"/>
        <polygon points="11.2 10.9 8.8 10.9 8.8 11.85 10.89 11.85 11.2 10.9"/>
        <path d="M13.71,2.56v1.8h.95V2.56A1.26,1.26,0,0,0,13.41,1.3H8.8v1h4.61A.3.3,0,0,1,13.71,2.56Z"/>
      </g>
    </g>
  </g>
</svg>
