<svg xmlns="http://www.w3.org/2000/svg" width="28" height="16" viewBox="0 0 28 16">
  <defs>
    <style>
      .cls-1 {
        fill: none;
      }

      .cls-2 {
        fill: blue;
      }
    </style>
  </defs>
  <g id="frame">
    <rect class="cls-1" width="28" height="16"/>
  </g>
  <g id="_b">
    <path class="cls-2" d="M6.79.5a.51.51,0,0,1,.3.1.73.73,0,0,1,.22.24l1,1.66h2.65a1,1,0,0,1,.71.29,1,1,0,0,1,.29.71v6a1,1,0,0,1-.29.7,1,1,0,0,1-.71.29H1.65a1,1,0,0,1-.7-.29,1,1,0,0,1-.29-.7v-6A1,1,0,0,1,1,2.79a1,1,0,0,1,.7-.29h1l1-1.66A.64.64,0,0,1,3.83.6a.47.47,0,0,1,.3-.1Zm-2.51.83L3.23,3.15a.45.45,0,0,1-.11.14.21.21,0,0,1-.15,0H1.65a.15.15,0,0,0-.16.17v6a.14.14,0,0,0,.16.16h9.27a.14.14,0,0,0,.16-.16v-6c0-.11-.05-.17-.16-.17h-3a.25.25,0,0,1-.24-.18,3,3,0,0,1-.2-.32c-.11-.2-.23-.4-.36-.62s-.32-.55-.5-.88ZM8.17,8.84H2.32V4.25H8.17ZM15.66,1.4,13.27,14.6h-.93L14.73,1.4Zm6.55,4.1a.53.53,0,0,1,.32.1.73.73,0,0,1,.22.24l.94,1.66h2.66a1,1,0,0,1,1,1v6a1,1,0,0,1-1,1H17.08a1,1,0,0,1-.71-.29,1,1,0,0,1-.29-.7v-6a1,1,0,0,1,.29-.71,1,1,0,0,1,.71-.29h1L19,5.84a.73.73,0,0,1,.22-.24.51.51,0,0,1,.32-.1Zm-2.51.83c-.2.33-.36.62-.5.88s-.25.43-.35.63a3.45,3.45,0,0,1-.19.33.45.45,0,0,1-.12.12.2.2,0,0,1-.14,0H17.08c-.11,0-.16.06-.16.17v6a.14.14,0,0,0,.16.16h9.27a.14.14,0,0,0,.16-.16v-6a.15.15,0,0,0-.16-.17h-3a.2.2,0,0,1-.14,0,.32.32,0,0,1-.1-.12,2,2,0,0,1-.19-.33l-.36-.63c-.16-.26-.32-.55-.51-.88Zm.13.83h2.09V8.84H19.83Z"/>
  </g>
</svg>
