<svg xmlns="http://www.w3.org/2000/svg" width="17" height="16" viewBox="0 0 17 16">
  <defs>
    <style>
      .cls-1 {
        isolation: isolate;
      }

      .cls-2 {
        mix-blend-mode: multiply;
      }

      .cls-3 {
        fill: #231815;
      }

      .cls-4 {
        fill: none;
      }
    </style>
  </defs>
  <title>icon_focus-priority</title>
  <g class="cls-1">
    <g id="レイヤー_1" data-name="レイヤー 1">
      <g class="cls-2">
        <path class="cls-3" d="M9.57,6.33H8.5l0-.82H7.42A1.93,1.93,0,0,0,5.57,7.59,1.93,1.93,0,0,0,7.42,9.67H8.51v0.83H9.57a1.94,1.94,0,0,0,1.85-2.08A1.93,1.93,0,0,0,9.57,6.33ZM10.08,3H8.49V2.18H6.92C4.31,2.18,2.2,4.6,2.2,7.59S4.31,13,6.92,13h1.6v0.81h1.56c2.61,0,4.72-2.42,4.72-5.41S12.69,3,10.08,3ZM9.73,12.17H8.5V11.32H7.23A3.55,3.55,0,0,1,3.9,7.59,3.55,3.55,0,0,1,7.23,3.85H8.49V4.7H9.73a3.55,3.55,0,0,1,3.33,3.74A3.55,3.55,0,0,1,9.73,12.17Z"/>
      </g>
      <rect class="cls-4" width="17" height="16"/>
    </g>
  </g>
</svg>
