<svg id="レイヤー_1" data-name="レイヤー 1" xmlns="http://www.w3.org/2000/svg" width="18" height="18" viewBox="0 0 18 18">
  <defs>
    <style>
      .cls-1 {
        fill: none;
      }
    </style>
  </defs>
  <title>icon_ps-color-tone</title>
  <path d="M9,0.6a7.54,7.54,0,0,1,3.3.7,9,9,0,0,1,4.5,4.5,8.84,8.84,0,0,1,.7,3.3,7.84,7.84,0,0,1-.7,3.3,9,9,0,0,1-4.5,4.5,9.28,9.28,0,0,1-3.3.7H8.3l-0.6-.1H7.4C7,17.3,6.6,17.2,6.2,17a3.7,3.7,0,0,1-1.1-.5H4.8V16.2a8.48,8.48,0,0,1-3.9-5A5.38,5.38,0,0,1,.5,9a7.84,7.84,0,0,1,.7-3.3A9,9,0,0,1,5.7,1.2,9.19,9.19,0,0,1,9,.6Zm5.1,13.3v0.7l0.3-.3,0.3-.3-0.6-.1V13.1H15v0.6a9.41,9.41,0,0,0,1.2-2.2A7.27,7.27,0,0,0,16.6,9,8,8,0,0,0,16,6a7.46,7.46,0,0,0-4-4,8,8,0,0,0-3-.6V8.9H9V9.7H8.3l-0.1.1v0.7H7.5l-0.1.1v0.7H6.6l-0.1.1v0.7H5.8l-0.1.1v0.7H4.9L4.8,13v0.7H4.1L4,13.8v0.6l0.1,0.1H4.8v0.6L5,15.2l0.2,0.1H5.5v0.2l0.8,0.3V15.3H7.2v0.8H8.1v0.1l0.4,0.1H9V16.2H9.9v0.1h0V15.4h0.8v0.8l0.4-.1,0.4-.1V15.5h0.8v0.1l0.1-.1,0.1-.1H12.3V14.6h0.8v0.5a0.53,0.53,0,0,1,.3-0.2l0.3-.3H13.1V13.8h1v0.1Zm-8.5,0v0.8H4.8V13.9H5.6Zm0.9,0H5.6V13.1H6.5v0.8h0Zm-0.9.9H6.5v0.8H5.6V14.8Zm1.7-1.7H6.5V12.2H7.4l-0.1.9h0ZM6.5,14H7.4v0.8H6.5V14h0Zm1.7-1.7H7.4V11.4H8.2v0.9h0Zm0,1.7H7.4V13.1H8.2V14h0Zm0,0.8v0.8H7.4V14.8H8.2ZM9,11.4H8.2V10.5H9v0.9H9Zm0,1.7H8.2V12.2H9v0.9H9ZM8.2,14H9v0.8H8.2V14h0Zm0,1.6H9v0.8H8.2V15.6h0ZM9.9,8V8.9H9V8H9.9Zm0,2.5H9V9.7H9.9v0.8Zm0,1.7H9V11.4H9.9v0.8h0ZM9,13.1H9.9V14H9V13.1Zm0,1.7H9.9v0.8H9V14.8Zm1.7-5.9V9.7H9.9V8.9h0.8Zm0,2.5H9.9V10.5h0.8v0.9h0Zm-0.8.9h0.8v0.8H9.9V12.3h0Zm0,1.7h0.8v0.8H9.9V14h0Zm1.7-3.4H10.7V9.7h0.8l0.1,0.9h0Zm-0.9.8h0.8v0.9H10.6l0.1-.9h0Zm0,1.7h0.8V14H10.6l0.1-.9h0Zm0,1.7h0.8v0.8H10.6l0.1-.8h0Zm1.7-3.4H11.6V10.5h0.8v0.9h0Zm-0.8.9h0.8v0.8H11.6V12.3h0Zm0,1.7h0.8v0.8H11.6V14h0Zm1.7-1.7H12.4V11.4h0.8l0.1,0.9h0Zm-0.9.8h0.8V14H12.4V13.1Zm0.8-.8H14v0.8H13.2V12.3h0Z"/>
  <rect class="cls-1" width="18" height="18"/>
</svg>
