<svg xmlns="http://www.w3.org/2000/svg" width="24" height="16" viewBox="0 0 24 16">
  <defs>
    <style>
      .cls-1 {
        fill: none;
      }
    </style>
  </defs>
  <g id="base">
    <rect class="cls-1" width="24" height="16"/>
  </g>
  <g id="icon">
    <g>
      <path d="M22.83.5H.33v15H23.67V.5Zm0,14.17H1.17V1.33H22.83Z"/>
      <path d="M6.17,8.28a1.74,1.74,0,0,1,.8.18,1.63,1.63,0,0,1,.6.54A2.52,2.52,0,0,1,8,9.86a4.76,4.76,0,0,1,.13,1.19A4.6,4.6,0,0,1,8,12.22a2.52,2.52,0,0,1-.38.86,1.55,1.55,0,0,1-.6.54,1.74,1.74,0,0,1-.8.18,1.79,1.79,0,0,1-.81-.18,1.7,1.7,0,0,1-.6-.54,2.73,2.73,0,0,1-.38-.86,4.6,4.6,0,0,1-.13-1.17,4.76,4.76,0,0,1,.13-1.19A2.73,2.73,0,0,1,4.76,9a1.8,1.8,0,0,1,.6-.54A1.79,1.79,0,0,1,6.17,8.28Zm1,2.77a5.39,5.39,0,0,0-.06-.85,2.43,2.43,0,0,0-.19-.64,1.09,1.09,0,0,0-.32-.4A.72.72,0,0,0,6.17,9a.77.77,0,0,0-.45.14,1.07,1.07,0,0,0-.31.4,2.1,2.1,0,0,0-.19.64,4.36,4.36,0,0,0-.07.85,4.32,4.32,0,0,0,.07.84,2.13,2.13,0,0,0,.19.63,1,1,0,0,0,.31.4.71.71,0,0,0,.45.14.66.66,0,0,0,.44-.14,1,1,0,0,0,.32-.4,2.47,2.47,0,0,0,.19-.63A5.35,5.35,0,0,0,7.18,11.05Z"/>
      <path d="M11.54,8.37h.76v5.36h-1L9.76,10h0l-.08-.17-.06-.16v4.08H8.89V8.37h1l1.54,3.74.06.14,0,.07s0,0,0,.06l0,.12,0-.24Z"/>
      <path d="M6.19,2.29,7.75,7.64H6.81L6.49,6.38H4.9L4.58,7.64H3.65L5.2,2.29Zm-.5.82s0,0,0,0a.15.15,0,0,1,0,.07v.07a.11.11,0,0,0,0,0l-.6,2.27H6.33l-.6-2.26Z"/>
      <path d="M11.67,5h1.58v.7H11.67Z"/>
      <path d="M8.27,2.29h2.39V3H9.14V4.56h1.42V5.3H9.14V7.64H8.27Z"/>
      <path d="M14.9,4.3V2.84H20V4.36l-2.59,8.7H15.71L18.44,4.3Z"/>
    </g>
  </g>
</svg>
