<svg id="レイヤー_1" data-name="レイヤー 1" xmlns="http://www.w3.org/2000/svg" width="32" height="16" viewBox="0 0 32 16">
  <defs>
    <style>
      .cls-1 {
        fill: none;
      }
    </style>
  </defs>
  <title>icon_info</title>
  <path d="M2.13,15.25H0.56V0.75H2.13V15.25Zm10,0h-2l-5-11.92h0V15.25H3.64V0.75H5.76l4.83,11.7h0V0.75h1.57V15.25ZM19.7,2.56H15.47V6.84h4V8.66h-4v6.59H13.9V0.75h5.8V2.56ZM31.44,8a12.19,12.19,0,0,1-.35,3,7.61,7.61,0,0,1-1,2.37A4.81,4.81,0,0,1,28.42,15,4.82,4.82,0,0,1,24,15a4.88,4.88,0,0,1-1.66-1.54,7.47,7.47,0,0,1-1-2.37,12.19,12.19,0,0,1-.35-3,11.68,11.68,0,0,1,.36-3,7.85,7.85,0,0,1,1-2.38A5,5,0,0,1,24,1.07a4.59,4.59,0,0,1,4.44,0,5.1,5.1,0,0,1,1.66,1.58,7.58,7.58,0,0,1,1,2.38A12,12,0,0,1,31.44,8ZM29.78,8a9.73,9.73,0,0,0-.23-2.13,6.43,6.43,0,0,0-.68-1.81,3.88,3.88,0,0,0-1.12-1.26,2.64,2.64,0,0,0-1.57-.48,2.68,2.68,0,0,0-1.58.48,3.84,3.84,0,0,0-1.13,1.26,6.26,6.26,0,0,0-.67,1.81A10.09,10.09,0,0,0,22.59,8a10.45,10.45,0,0,0,.21,2.12,6.56,6.56,0,0,0,.64,1.81,3.73,3.73,0,0,0,1.11,1.28,3,3,0,0,0,3.24,0,3.82,3.82,0,0,0,1.12-1.28,6.34,6.34,0,0,0,.65-1.81A10.4,10.4,0,0,0,29.78,8Z"/>
  <rect class="cls-1" width="32" height="16"/>
</svg>
