<svg id="レイヤー_1" data-name="レイヤー 1" xmlns="http://www.w3.org/2000/svg" width="25" height="16" viewBox="0 0 25 16">
  <defs>
    <style>
      .cls-1 {
        fill: blue;
      }

      .cls-2 {
        fill: none;
      }
    </style>
  </defs>
  <title>icon_wb-color-temp_b</title>
  <path class="cls-1" d="M24.18,13.51a1.91,1.91,0,0,1-.16.78,2,2,0,0,1-.44.63,2.13,2.13,0,0,1-.64.43,1.91,1.91,0,0,1-.78.16H2.82A2,2,0,0,1,2,15.34a2,2,0,0,1-.64-0.43A2,2,0,0,1,1,14.29a1.91,1.91,0,0,1-.16-0.78v-11A2,2,0,0,1,1,1.72,2,2,0,0,1,2,.66,2,2,0,0,1,2.82.5H22.17A1.9,1.9,0,0,1,23,.66a2.16,2.16,0,0,1,.64.43,2,2,0,0,1,.59,1.42v11Zm-3.49.33L13.2,7.68l7.2-5.52H16.08l-6.32,5v-5H6.25V13.84H9.76V8.43H9.81l6.29,5.41h4.59Z"/>
  <rect class="cls-2" width="25" height="16"/>
</svg>
