<svg id="icon" xmlns="http://www.w3.org/2000/svg" width="22.46" height="15.44" viewBox="0 0 22.46 15.44">
  <defs>
    <style>
      .cls-1, .cls-2 {
        fill: #fff;
        stroke: #fff;
        stroke-miterlimit: 10;
      }

      .cls-1 {
        stroke-width: 0.88px;
      }

      .cls-2 {
        stroke-width: 0.88px;
      }
    </style>
  </defs>
  <g>
    <g>
      <polygon points="2.92 4.11 0 2.76 0 9.05 0.01 9.05 2.92 7.68 2.92 4.11"/>
      <polygon points="7.16 11.17 5.07 14.75 6.35 15.44 8.74 11.18 7.16 11.17"/>
      <polygon points="12.05 11.17 14.14 14.75 12.85 15.44 10.46 11.18 12.05 11.17"/>
      <rect x="3.73" y="2.61" width="11.82" height="7.81" rx="1.22"/>
    </g>
    <g>
      <path class="cls-1" d="M19.06,6.48l-.21.09a1.89,1.89,0,0,1-.31.1l-.42.07a3.89,3.89,0,0,1-.51,0,2.87,2.87,0,0,1-1-.18A2.28,2.28,0,0,1,15.76,6a2.76,2.76,0,0,1-.57-1A3.94,3.94,0,0,1,15,3.63a4.21,4.21,0,0,1,.19-1.34,2.94,2.94,0,0,1,.54-1,2.24,2.24,0,0,1,.83-.6A2.74,2.74,0,0,1,17.61.49a3.84,3.84,0,0,1,.5,0,3.53,3.53,0,0,1,.4.08,2,2,0,0,1,.32.11,1.56,1.56,0,0,1,.22.1L19,1.75l-.24-.14a1.58,1.58,0,0,0-.29-.12,1.59,1.59,0,0,0-.33-.09,1.42,1.42,0,0,0-.36,0,1.64,1.64,0,0,0-.67.14,1.34,1.34,0,0,0-.53.42,2.08,2.08,0,0,0-.34.7,3.78,3.78,0,0,0-.12,1,3.58,3.58,0,0,0,.14,1.06,2,2,0,0,0,.36.7,1.28,1.28,0,0,0,.53.38,1.68,1.68,0,0,0,.63.12,1.47,1.47,0,0,0,.36,0,2,2,0,0,0,.35-.09l.31-.12L19,5.52Z" transform="translate(-0.99 -0.05)"/>
      <path d="M19.06,6.48l-.21.09a1.89,1.89,0,0,1-.31.1l-.42.07a3.89,3.89,0,0,1-.51,0,2.87,2.87,0,0,1-1-.18A2.28,2.28,0,0,1,15.76,6a2.76,2.76,0,0,1-.57-1A3.94,3.94,0,0,1,15,3.63a4.21,4.21,0,0,1,.19-1.34,2.94,2.94,0,0,1,.54-1,2.24,2.24,0,0,1,.83-.6A2.74,2.74,0,0,1,17.61.49a3.84,3.84,0,0,1,.5,0,3.53,3.53,0,0,1,.4.08,2,2,0,0,1,.32.11,1.56,1.56,0,0,1,.22.1L19,1.75l-.24-.14a1.58,1.58,0,0,0-.29-.12,1.59,1.59,0,0,0-.33-.09,1.42,1.42,0,0,0-.36,0,1.64,1.64,0,0,0-.67.14,1.34,1.34,0,0,0-.53.42,2.08,2.08,0,0,0-.34.7,3.78,3.78,0,0,0-.12,1,3.58,3.58,0,0,0,.14,1.06,2,2,0,0,0,.36.7,1.28,1.28,0,0,0,.53.38,1.68,1.68,0,0,0,.63.12,1.47,1.47,0,0,0,.36,0,2,2,0,0,0,.35-.09l.31-.12L19,5.52Z" transform="translate(-0.99 -0.05)"/>
    </g>
    <g>
      <path class="cls-2" d="M21.84,3.53a1.36,1.36,0,0,1,.25.07l.26.12a1.5,1.5,0,0,1,.25.19,1.21,1.21,0,0,1,.21.28,1.31,1.31,0,0,1,.14.38,1.75,1.75,0,0,1,.06.48,2,2,0,0,1-.12.71,1.42,1.42,0,0,1-.36.54,1.73,1.73,0,0,1-.61.36,2.75,2.75,0,0,1-.86.12h-.5l-.4,0a2.44,2.44,0,0,1-.34-.08,2,2,0,0,1-.31-.12l.08-.92a1.87,1.87,0,0,0,.28.13l.35.1.39.07.37,0a1.27,1.27,0,0,0,.34,0,.67.67,0,0,0,.3-.16,1,1,0,0,0,.23-.3,1.36,1.36,0,0,0,.08-.49.94.94,0,0,0-.1-.47.77.77,0,0,0-.26-.3A1,1,0,0,0,21.21,4a2,2,0,0,0-.42,0h-.55V3.13h.59a1.55,1.55,0,0,0,.37,0A.79.79,0,0,0,21.54,3a.64.64,0,0,0,.24-.27,1,1,0,0,0,.1-.45,1.13,1.13,0,0,0-.07-.39.68.68,0,0,0-.2-.27.75.75,0,0,0-.29-.16,1.6,1.6,0,0,0-.39,0,1.37,1.37,0,0,0-.34,0l-.36.11-.32.14-.24.13L19.62.87l.17-.09.34-.12a3.91,3.91,0,0,1,.46-.11A3.33,3.33,0,0,1,21.15.5a2.28,2.28,0,0,1,.78.12,1.54,1.54,0,0,1,.56.33,1.31,1.31,0,0,1,.34.5,1.54,1.54,0,0,1,.12.61,1.65,1.65,0,0,1-.11.63,1.37,1.37,0,0,1-.27.44,1.14,1.14,0,0,1-.36.27,1.58,1.58,0,0,1-.36.13Z" transform="translate(-0.99 -0.05)"/>
      <path d="M21.84,3.53a1.36,1.36,0,0,1,.25.07l.26.12a1.5,1.5,0,0,1,.25.19,1.21,1.21,0,0,1,.21.28,1.31,1.31,0,0,1,.14.38,1.75,1.75,0,0,1,.06.48,2,2,0,0,1-.12.71,1.42,1.42,0,0,1-.36.54,1.73,1.73,0,0,1-.61.36,2.75,2.75,0,0,1-.86.12h-.5l-.4,0a2.44,2.44,0,0,1-.34-.08,2,2,0,0,1-.31-.12l.08-.92a1.87,1.87,0,0,0,.28.13l.35.1.39.07.37,0a1.27,1.27,0,0,0,.34,0,.67.67,0,0,0,.3-.16,1,1,0,0,0,.23-.3,1.36,1.36,0,0,0,.08-.49.94.94,0,0,0-.1-.47.77.77,0,0,0-.26-.3A1,1,0,0,0,21.21,4a2,2,0,0,0-.42,0h-.55V3.13h.59a1.55,1.55,0,0,0,.37,0A.79.79,0,0,0,21.54,3a.64.64,0,0,0,.24-.27,1,1,0,0,0,.1-.45,1.13,1.13,0,0,0-.07-.39.68.68,0,0,0-.2-.27.75.75,0,0,0-.29-.16,1.6,1.6,0,0,0-.39,0,1.37,1.37,0,0,0-.34,0l-.36.11-.32.14-.24.13L19.62.87l.17-.09.34-.12a3.91,3.91,0,0,1,.46-.11A3.33,3.33,0,0,1,21.15.5a2.28,2.28,0,0,1,.78.12,1.54,1.54,0,0,1,.56.33,1.31,1.31,0,0,1,.34.5,1.54,1.54,0,0,1,.12.61,1.65,1.65,0,0,1-.11.63,1.37,1.37,0,0,1-.27.44,1.14,1.14,0,0,1-.36.27,1.58,1.58,0,0,1-.36.13Z" transform="translate(-0.99 -0.05)"/>
    </g>
  </g>
</svg>
