<svg id="レイヤー_1" data-name="レイヤー 1" xmlns="http://www.w3.org/2000/svg" width="24" height="16" viewBox="0 0 24 16">
  <defs>
    <style>
      .cls-1 {
        fill: none;
      }
    </style>
  </defs>
  <title>icon_setting-on</title>
  <g>
    <path d="M11.09,7.87a9.69,9.69,0,0,1-1.39,5.73,4.56,4.56,0,0,1-3.9,1.91A4.49,4.49,0,0,1,3.66,15,4.65,4.65,0,0,1,2,13.54a7.2,7.2,0,0,1-1-2.31A11.91,11.91,0,0,1,.63,8.15,9.7,9.7,0,0,1,2,2.43,4.56,4.56,0,0,1,5.95.5,4.42,4.42,0,0,1,8.08,1,4.68,4.68,0,0,1,9.69,2.48a7.3,7.3,0,0,1,1,2.31A11.91,11.91,0,0,1,11.09,7.87Zm-1.85,0a12.76,12.76,0,0,0-.18-2.17,7.09,7.09,0,0,0-.57-1.86,3.66,3.66,0,0,0-1-1.3A2.37,2.37,0,0,0,5.95,2a2.84,2.84,0,0,0-1.33.32,2.92,2.92,0,0,0-1.09,1,6,6,0,0,0-.74,1.89A12.65,12.65,0,0,0,2.5,8.15a13.33,13.33,0,0,0,.17,2.17,7,7,0,0,0,.56,1.87,3.59,3.59,0,0,0,1,1.31,2.4,2.4,0,0,0,1.53.5,2.82,2.82,0,0,0,1.32-.32,3,3,0,0,0,1.1-1A5.87,5.87,0,0,0,9,10.75,12.74,12.74,0,0,0,9.24,7.87Z"/>
    <polygon points="23.37 15.5 21.03 15.5 15.32 3.17 15.27 3.17 15.27 15.5 13.47 15.5 13.47 0.5 15.93 0.5 21.49 12.59 21.54 12.59 21.54 0.5 23.37 0.5 23.37 15.5"/>
  </g>
  <rect class="cls-1" width="24" height="16"/>
</svg>
