<svg id="レイヤー_1" data-name="レイヤー 1" xmlns="http://www.w3.org/2000/svg" width="20" height="20" viewBox="0 0 20 20">
  <defs>
    <style>
      .cls-1 {
        fill: #fff;
      }

      .cls-2 {
        fill: none;
      }
    </style>
  </defs>
  <title>icon_page-top</title>
  <g>
    <path class="cls-1" d="M10,11.71L4.56,17.15a1.92,1.92,0,0,1-2.7.13A1.92,1.92,0,0,1,2,14.58L8.59,8a2,2,0,0,1,2.83,0l6.6,6.6a1.83,1.83,0,1,1-2.57,2.57Z"/>
    <path class="cls-1" d="M18.64,3.73a1.5,1.5,0,0,1-1.5,1.5H2.86a1.5,1.5,0,0,1-1.5-1.5h0a1.5,1.5,0,0,1,1.5-1.5H17.14a1.5,1.5,0,0,1,1.5,1.5h0Z"/>
  </g>
  <rect class="cls-2" width="20" height="20"/>
</svg>
