<?xml version="1.0" encoding="utf-8"?>
<!-- Generator: Adobe Illustrator 23.0.3, SVG Export Plug-In . SVG Version: 6.00 Build 0)  -->
<svg version="1.1" id="レイヤー_1" xmlns="http://www.w3.org/2000/svg" xmlns:xlink="http://www.w3.org/1999/xlink" x="0px"
	 y="0px" width="23px" height="16px" viewBox="0 0 23 16" enable-background="new 0 0 23 16" xml:space="preserve">
<title>icon_timer-06sec</title>
<rect y="0" fill="none" width="23" height="16"/>
<g>
	<path d="M12.28,9.83c0,1.61-0.57,2.96-1.7,4.06c-1.11,1.1-2.45,1.65-4.03,1.65c-1.6,0-2.95-0.55-4.05-1.65
		c-1.12-1.12-1.68-2.48-1.68-4.06c0-1.37,0.44-2.58,1.31-3.62C3,5.16,4.09,4.5,5.42,4.22V3.58H3.6V2.12h1.82V0.91
		C5.77,0.6,6.15,0.45,6.57,0.45c0.39,0,0.75,0.15,1.09,0.46v1.21h1.8v1.46h-1.8v0.65c1.12,0.22,2.1,0.74,2.92,1.56
		C11.72,6.92,12.28,8.27,12.28,9.83z M11.33,10.17H10.6v-0.9h0.73c-0.13-1.13-0.59-2.08-1.36-2.86c-0.79-0.79-1.8-1.24-3.01-1.34
		v0.85H6.04V5.07c-1.16,0.1-2.12,0.55-2.89,1.34c-0.8,0.8-1.26,1.78-1.38,2.92h0.71v0.92H1.78c0.1,1.2,0.56,2.19,1.36,2.97
		c0.8,0.81,1.77,1.26,2.91,1.36v-0.76h0.92v0.76c1.16-0.07,2.16-0.53,3.01-1.38C10.8,12.35,11.25,11.34,11.33,10.17z M10.38,7.23
		L7.4,9.59c0.03,0.13,0.03,0.26,0,0.41C7.28,10.45,7,10.67,6.55,10.67c-0.06,0-0.18-0.02-0.37-0.07l-0.8,0.63l-0.51-0.61l0.82-0.63
		C5.64,9.84,5.64,9.7,5.67,9.58c0.1-0.48,0.4-0.71,0.88-0.71c0.05,0,0.11,0.01,0.2,0.03C6.79,8.93,6.85,8.97,6.93,9l2.94-2.4
		L10.38,7.23z M22.19,10.53c0,1.12-0.35,2.04-1.04,2.77c-0.76,0.83-1.85,1.24-3.28,1.24c-1.21,0-2.23-0.32-3.06-0.97
		c-0.87-0.7-1.31-1.71-1.31-3.03c0-1.47,0.72-2.51,2.16-3.11c-1.13-0.44-1.7-1.26-1.7-2.46c0-0.85,0.26-1.6,0.78-2.24
		c0.7-0.84,1.72-1.26,3.06-1.26c1.29,0,2.29,0.36,3.01,1.09c0.61,0.61,0.92,1.34,0.92,2.18c0,1.24-0.54,2.13-1.63,2.69
		C21.5,8.02,22.19,9.06,22.19,10.53z M20.49,10.7c0-0.82-0.26-1.45-0.78-1.89c-0.47-0.41-1.1-0.61-1.87-0.61
		c-0.85,0-1.51,0.25-1.99,0.75c-0.43,0.43-0.65,0.97-0.65,1.61c0,0.65,0.18,1.2,0.54,1.67c0.49,0.59,1.21,0.88,2.18,0.88
		C19.64,13.11,20.49,12.31,20.49,10.7z M20.09,4.8c0-0.48-0.16-0.89-0.49-1.24c-0.43-0.45-1.05-0.68-1.87-0.68
		c-0.76,0-1.33,0.24-1.7,0.71c-0.28,0.33-0.43,0.76-0.43,1.29c0,0.58,0.23,1.05,0.68,1.43c0.44,0.35,0.96,0.53,1.55,0.53
		c0.67,0,1.21-0.19,1.63-0.58C19.88,5.87,20.09,5.38,20.09,4.8z"/>
</g>
</svg>
