<svg id="レイヤー_1" data-name="レイヤー 1" xmlns="http://www.w3.org/2000/svg" width="16" height="16" viewBox="0 0 16 16">
  <defs>
    <style>
      .cls-1 {
        fill: none;
      }
    </style>
  </defs>
  <title>icon_quick</title>
  <path d="M15.51,13.63a1.8,1.8,0,0,1-.15.73,2,2,0,0,1-.4.59,1.92,1.92,0,0,1-.6.4,1.81,1.81,0,0,1-.73.15H2.37a1.78,1.78,0,0,1-.73-0.15,1.9,1.9,0,0,1-1-1,1.78,1.78,0,0,1-.15-0.73V2.37A1.8,1.8,0,0,1,.64,1.65,1.92,1.92,0,0,1,1,1.05,1.94,1.94,0,0,1,1.63.65,1.78,1.78,0,0,1,2.37.5H13.64a1.81,1.81,0,0,1,.73.15,1.87,1.87,0,0,1,1,1,1.82,1.82,0,0,1,.15.73V13.63Zm-1.1,0V2.37a0.77,0.77,0,0,0-.77-0.77H2.37a0.78,0.78,0,0,0-.77.77V13.63a0.77,0.77,0,0,0,.77.77H13.64A0.77,0.77,0,0,0,14.4,13.63ZM11.84,7.76a5.68,5.68,0,0,1-.29,1.77,3.61,3.61,0,0,1-.92,1.5l1.1,1L11,12.77,9.75,11.69a3.55,3.55,0,0,1-1,.39,4.38,4.38,0,0,1-1,.12A4,4,0,0,1,6,11.85a3.76,3.76,0,0,1-1.28-1A4.25,4.25,0,0,1,4,9.48a5.28,5.28,0,0,1-.28-1.72A5.22,5.22,0,0,1,4,6a4.36,4.36,0,0,1,.8-1.42A3.71,3.71,0,0,1,6,3.66a4,4,0,0,1,1.71-.35,4,4,0,0,1,1.71.35,3.73,3.73,0,0,1,1.28,1A4.36,4.36,0,0,1,11.56,6,5.18,5.18,0,0,1,11.84,7.76Zm-1.49,0a4.92,4.92,0,0,0-.14-1.19,3.08,3.08,0,0,0-.46-1A2.46,2.46,0,0,0,8.93,4.8a2.34,2.34,0,0,0-1.17-.28,2.34,2.34,0,0,0-1.17.28,2.39,2.39,0,0,0-.8.73,3.29,3.29,0,0,0-.46,1,4.69,4.69,0,0,0-.15,1.19A4.75,4.75,0,0,0,5.33,9a3.28,3.28,0,0,0,.46,1,2.37,2.37,0,0,0,.8.73A2.33,2.33,0,0,0,7.76,11a2.69,2.69,0,0,0,.49,0,1.7,1.7,0,0,0,.46-0.15L7.85,10l0.73-.83,1,0.92A2.82,2.82,0,0,0,10.18,9,5,5,0,0,0,10.34,7.75Z"/>
  <rect class="cls-1" width="16" height="16"/>
</svg>
