<svg id="レイヤー_1" data-name="レイヤー 1" xmlns="http://www.w3.org/2000/svg" width="20" height="16" viewBox="0 0 20 16">
  <defs>
    <style>
      .cls-1 {
        fill: none;
      }
    </style>
  </defs>
  <title>icon_new-folder</title>
  <g>
    <polygon points="10.13 9.41 13.74 9.41 13.74 6.26 17.35 6.26 17.35 9.41 18.94 9.41 18.94 2.1 9.62 2.1 8.29 0.5 2.73 0.5 0.46 2.85 0.46 14.13 13.74 14.13 13.74 13.02 10.13 13.02 10.13 9.41"/>
    <rect x="17.35" y="13.02" width="1.6" height="1.11"/>
    <polygon points="16.33 10.48 16.33 7.27 14.53 7.27 14.53 10.48 11.31 10.48 11.31 12.29 14.53 12.29 14.53 15.5 16.33 15.5 16.33 12.29 19.55 12.29 19.55 10.48 16.33 10.48"/>
  </g>
  <rect class="cls-1" width="20" height="16"/>
</svg>
