<?xml version="1.0" encoding="utf-8"?>
<!-- Generator: Adobe Illustrator 21.1.0, SVG Export Plug-In . SVG Version: 6.00 Build 0)  -->
<svg version="1.1" id="レイヤー_1" xmlns="http://www.w3.org/2000/svg" xmlns:xlink="http://www.w3.org/1999/xlink" x="0px"
	 y="0px" width="21px" height="16px" viewBox="0 0 21 16" style="enable-background:new 0 0 21 16;" xml:space="preserve">
<style type="text/css">
	.st0{fill:none;}
</style>
<title>icon_summertime</title>
<rect class="st0" width="21" height="16"/>
<g>
	<polygon class="st0" points="12.1,1.6 1.7,12 1.7,14.3 3.1,14.3 15.8,1.6 	"/>
	<polygon class="st0" points="1.7,1.6 1.7,4.8 4.9,1.6 	"/>
	<polygon class="st0" points="6.6,1.6 1.7,6.5 1.7,10.3 10.4,1.6 	"/>
	<polygon class="st0" points="19.3,1.6 17.5,1.6 4.8,14.3 8.7,14.3 19.3,3.7 	"/>
	<polygon class="st0" points="15.5,14.3 19.3,14.3 19.3,10.6 	"/>
	<polygon class="st0" points="19.3,5.4 10.4,14.3 13.8,14.3 19.3,8.8 	"/>
	<path d="M17.8,0.4H17h-3.7h-1.7H7.9H6.1H0.5V6v1.7v3.7V13v2.5h1.9h1.2h3.8h1.7h3.4h1.7h6.2V9.3V7.6V4.2V2.8V0.4H17.8z M1.7,1.6h3.2
		L1.7,4.8V1.6z M1.7,6.5l4.9-4.9h3.7l-8.7,8.7V6.5z M1.7,14.3V12L12.1,1.6h3.7L3.1,14.3H1.7z M19.3,14.3h-3.8l3.8-3.8V14.3z
		 M19.3,8.8l-5.5,5.5h-3.4l8.9-8.9V8.8z M19.3,3.7L8.7,14.3H4.8L17.5,1.6h1.7V3.7z"/>
</g>
</svg>
