<?xml version="1.0" encoding="utf-8"?>
<!-- Generator: Adobe Illustrator 23.0.3, SVG Export Plug-In . SVG Version: 6.00 Build 0)  -->
<svg version="1.1" id="レイヤー_1" xmlns="http://www.w3.org/2000/svg" xmlns:xlink="http://www.w3.org/1999/xlink" x="0px"
	 y="0px" width="26px" height="16px" viewBox="0 0 26 16" style="enable-background:new 0 0 26 16;" xml:space="preserve">
<style type="text/css">
	.st0{fill:#0000FF;}
	.st1{fill:none;}
</style>
<title>icon_shooting-high2</title>
<path class="st0" d="M12.2,9.6H0.5V0.5h11.8V9.6z M10.6,7.9V2.2H2.1v5.8H10.6z M14.8,12.2H3.1v-1.5h10.2V3.1h1.5
	C14.8,3.1,14.8,12.2,14.8,12.2z M17.5,14.8H5.7v-1.5h10.2V5.7h1.5L17.5,14.8L17.5,14.8z M25.5,15.5h-1.5v-3.2h-3.3v3.2h-1.4V7.8h1.4
	V11h3.3V7.8h1.5C25.5,7.8,25.5,15.5,25.5,15.5z"/>
<rect y="0" class="st1" width="26" height="16"/>
</svg>
