<svg xmlns="http://www.w3.org/2000/svg" width="40" height="16" viewBox="0 0 40 16">
  <defs>
    <style>
      .cls-1 {
        fill: none;
      }
    </style>
  </defs>
  <g id="base">
    <rect id="Image_transfer" class="cls-1" width="40" height="16"/>
  </g>
  <g id="icon">
    <g>
      <g>
        <polygon points="14.38 11.75 14.38 13.63 5.27 13.63 5.27 5.59 14.38 5.59 14.38 7.46 15.71 7.46 15.71 4.34 15.71 4.25 3.93 4.25 3.93 14.96 15.71 14.96 15.71 14.87 15.71 11.75 14.38 11.75"/>
        <polygon points="2.86 10.41 2.05 10.41 2.05 2.38 11.16 2.38 11.16 3.18 12.5 3.18 12.5 1.04 0.71 1.04 0.71 11.75 2.86 11.75 2.86 10.41"/>
        <polygon points="20 9.61 16.79 6.39 16.79 8.54 9.82 8.54 9.82 10.68 16.79 10.68 16.79 12.82 20 9.61"/>
      </g>
      <g>
        <path d="M36.45,1.67V9.33H24.62V1.67H36.45M37.62.5H23.45v10H37.62V.5Z"/>
        <path d="M36.86,12.92l.62,1.41H23.59l.62-1.41H36.86m.76-1.17H23.45L21.79,15.5h17.5l-1.67-3.75Z"/>
      </g>
    </g>
  </g>
</svg>
