<svg id="レイヤー_1" data-name="レイヤー 1" xmlns="http://www.w3.org/2000/svg" width="53" height="16" viewBox="0 0 53 16">
  <defs>
    <style>
      .cls-1 {
        fill: none;
      }
    </style>
  </defs>
  <title>icon_lv-mov-on</title>
  <g>
    <path d="M37.54,2V6.57l-3.2,1.77V0.5ZM52.33,2.27V7.71a1.81,1.81,0,0,1-.13.67,1.86,1.86,0,0,1-.34.56,1.64,1.64,0,0,1-.5.38,1.37,1.37,0,0,1-.62.14H40.47a1.37,1.37,0,0,1-.62-0.14,1.64,1.64,0,0,1-.5-0.38A1.86,1.86,0,0,1,39,8.38a1.79,1.79,0,0,1-.13-0.67V2.27A2,2,0,0,1,39,1.58,1.73,1.73,0,0,1,39.34,1,1.65,1.65,0,0,1,39.84.64,1.44,1.44,0,0,1,40.47.5H50.74a1.39,1.39,0,0,1,.62.14,1.69,1.69,0,0,1,.5.38,1.9,1.9,0,0,1,.34.56A1.87,1.87,0,0,1,52.33,2.27Zm-8.1,8.36H42.42l-2.33,3.93,1.32,0.94,2.87-4.84Zm2.69,0h1.81L51,14.56l-1.32.94-2.87-4.84Z"/>
    <path d="M19.14,4a1.61,1.61,0,0,1,.49,1.19v8.59A1.6,1.6,0,0,1,19.14,15,1.63,1.63,0,0,1,18,15.5H2.34A1.63,1.63,0,0,1,1.17,15a1.6,1.6,0,0,1-.49-1.19V5.24A1.61,1.61,0,0,1,1.17,4a1.63,1.63,0,0,1,1.18-.48H6.21l0,0V3a1.63,1.63,0,0,1,.29-0.89,4,4,0,0,1,.69-0.81A3.91,3.91,0,0,1,8.05.72,1.63,1.63,0,0,1,8.76.5h2.86a1.56,1.56,0,0,1,.67.23,4.57,4.57,0,0,1,.84.59,4.17,4.17,0,0,1,.71.81,1.57,1.57,0,0,1,.3.87v0.5l0,0.06H18A1.63,1.63,0,0,1,19.14,4Zm-9,9a3.86,3.86,0,0,0,2.78-1.15,4.06,4.06,0,0,0,.84-1.25,3.76,3.76,0,0,0,.31-1.52,3.83,3.83,0,0,0-.31-1.53,4,4,0,0,0-.84-1.26,3.91,3.91,0,0,0-5.56,0,4.1,4.1,0,0,0-.84,1.26,3.85,3.85,0,0,0-.31,1.53,3.78,3.78,0,0,0,.31,1.52,4.11,4.11,0,0,0,.84,1.25A3.87,3.87,0,0,0,10.17,13.08Z"/>
    <polygon points="28.74 7.33 25.58 7.33 25.58 4.48 21.38 8.68 25.58 12.87 25.58 10.03 28.74 10.03 28.74 12.87 32.94 8.68 28.74 4.48 28.74 7.33"/>
  </g>
  <rect class="cls-1" width="53" height="16"/>
</svg>
