<svg id="レイヤー_1" data-name="レイヤー 1" xmlns="http://www.w3.org/2000/svg" width="17" height="16" viewBox="0 0 17 16">
  <defs>
    <style>
      .cls-1 {
        fill: none;
      }
    </style>
  </defs>
  <title>icon_remote-ctrl</title>
  <rect class="cls-1" width="17" height="16"/>
  <path d="M4,.68a2.29,2.29,0,0,1,.73.49,2.34,2.34,0,0,1,.49.73,2.09,2.09,0,0,1,.19.89v2a2.12,2.12,0,0,1-.19.91,2.55,2.55,0,0,1-.49.72A2.46,2.46,0,0,1,4,6.89a2.23,2.23,0,0,1-.88.18H3a2.25,2.25,0,0,1-.89-.18,2.55,2.55,0,0,1-.72-.49,2.55,2.55,0,0,1-.49-.72,2.12,2.12,0,0,1-.19-.91v-2A2.09,2.09,0,0,1,.85,1.9,2.3,2.3,0,0,1,2.06.68,2.25,2.25,0,0,1,3,.5h.13A2.23,2.23,0,0,1,4,.68Zm0,0a2.29,2.29,0,0,1,.73.49,2.34,2.34,0,0,1,.49.73,2.09,2.09,0,0,1,.19.89v2a2.12,2.12,0,0,1-.19.91,2.55,2.55,0,0,1-.49.72A2.46,2.46,0,0,1,4,6.89a2.23,2.23,0,0,1-.88.18H3a2.25,2.25,0,0,1-.89-.18,2.55,2.55,0,0,1-.72-.49,2.55,2.55,0,0,1-.49-.72,2.12,2.12,0,0,1-.19-.91v-2A2.09,2.09,0,0,1,.85,1.9,2.3,2.3,0,0,1,2.06.68,2.25,2.25,0,0,1,3,.5h.13A2.23,2.23,0,0,1,4,.68ZM4.62,5,3.49,3.85,4.61,2.73,2.84.94V3.18L2,2.34l-.39.39L2.72,3.85,1.6,4.94,2,5.33l.85-.85V6.56Zm0,0L3.49,3.85,4.61,2.73,2.84.94V3.18L2,2.34l-.39.39L2.72,3.85,1.6,4.94,2,5.33l.85-.85V6.56Zm7.63,5L7.4,14.75a2.45,2.45,0,0,1-.85.57,2.62,2.62,0,0,1-1,.18,2.73,2.73,0,0,1-1-.18,2.06,2.06,0,0,1-.83-.57l-.35-.32a2.52,2.52,0,0,1-.56-.85,2.64,2.64,0,0,1-.18-1,2.72,2.72,0,0,1,.18-1,2.38,2.38,0,0,1,.56-.84L8.3,6a.24.24,0,0,1,.18-.1.26.26,0,0,1,.19.1l3.58,3.59A.24.24,0,0,1,12.25,9.91Zm0-.36a.24.24,0,0,1,0,.36L7.4,14.75a2.45,2.45,0,0,1-.85.57,2.62,2.62,0,0,1-1,.18,2.73,2.73,0,0,1-1-.18,2.06,2.06,0,0,1-.83-.57l-.35-.32a2.52,2.52,0,0,1-.56-.85,2.64,2.64,0,0,1-.18-1,2.72,2.72,0,0,1,.18-1,2.38,2.38,0,0,1,.56-.84L8.3,6a.24.24,0,0,1,.18-.1.26.26,0,0,1,.19.1,9.37,9.37,0,0,0,.68.92,10.76,10.76,0,0,0,.87.94c.32.31.65.61,1,.91A12.87,12.87,0,0,0,12.25,9.55ZM3.84,2.73l-.47.45V2.26Zm0,0-.47.45V2.26ZM3.37,4.48l.46.46-.46.42Zm0,0,.46.46-.46.42Zm4.68,7.18a1.48,1.48,0,0,0,1.08-.43,1.42,1.42,0,0,0,.43-1.06,1.49,1.49,0,0,0-.43-1.08,1.46,1.46,0,0,0-1.08-.45A1.44,1.44,0,0,0,7,9.09a1.5,1.5,0,0,0-.44,1.08A1.43,1.43,0,0,0,7,11.23,1.46,1.46,0,0,0,8.05,11.66Zm0,0a1.48,1.48,0,0,0,1.08-.43,1.42,1.42,0,0,0,.43-1.06,1.49,1.49,0,0,0-.43-1.08,1.46,1.46,0,0,0-1.08-.45A1.44,1.44,0,0,0,7,9.09a1.5,1.5,0,0,0-.44,1.08A1.43,1.43,0,0,0,7,11.23,1.46,1.46,0,0,0,8.05,11.66ZM12.7,7.13a2.31,2.31,0,0,0-.6-1,2.13,2.13,0,0,0-1-.6l-.25.86a1.34,1.34,0,0,1,.63.36,1.32,1.32,0,0,1,.36.64Zm0,0a2.31,2.31,0,0,0-.6-1,2.13,2.13,0,0,0-1-.6l-.25.86a1.34,1.34,0,0,1,.63.36,1.32,1.32,0,0,1,.36.64Zm1.82-.49a4,4,0,0,0-1.09-1.87,4.1,4.1,0,0,0-1.85-1.08l-.26.87a3.32,3.32,0,0,1,1.49.85,3.23,3.23,0,0,1,.85,1.46Zm0,0a4,4,0,0,0-1.09-1.87,4.1,4.1,0,0,0-1.85-1.08l-.26.87a3.32,3.32,0,0,1,1.49.85,3.23,3.23,0,0,1,.85,1.46Zm1.82-.5a6.14,6.14,0,0,0-1.57-2.7,5.85,5.85,0,0,0-2.69-1.56l-.26.86a5.09,5.09,0,0,1,2.31,1.34,5,5,0,0,1,1.33,2.29Zm0,0a6.14,6.14,0,0,0-1.57-2.7,5.85,5.85,0,0,0-2.69-1.56l-.26.86a5.09,5.09,0,0,1,2.31,1.34,5,5,0,0,1,1.33,2.29Z"/>
</svg>
