<svg id="レイヤー_1" data-name="レイヤー 1" xmlns="http://www.w3.org/2000/svg" width="13" height="16" viewBox="0 0 13 16">
  <defs>
    <style>
      .cls-1 {
        fill: none;
      }
    </style>
  </defs>
  <title>icon_terminal_hp</title>
  <path d="M12.24,6.25a5,5,0,0,1-.1,1L11.66,10l0,0.07-0.05,0-0.94-.15L11.1,7.05q0-.2,0-0.4c0-.14,0-0.27,0-0.4a4.5,4.5,0,0,0-.37-1.82A4.68,4.68,0,0,0,8.31,1.94a4.64,4.64,0,0,0-3.63,0A4.68,4.68,0,0,0,2.2,4.42a4.52,4.52,0,0,0-.37,1.82c0,0.13,0,.27,0,0.4s0,0.27.05,0.4L2.38,9.84l-1,.24L0.84,7.24A3.5,3.5,0,0,1,.77,6.75c0-.17,0-0.33,0-0.5A5.54,5.54,0,0,1,1.21,4,5.83,5.83,0,0,1,4.27,1,5.71,5.71,0,0,1,8.73,1,5.8,5.8,0,0,1,11.79,4,5.52,5.52,0,0,1,12.24,6.25Zm-7.94,9-1,.25H3.27l0-.05-0.17-.94-0.86.22L1.66,11.89l1-.24L2.44,10.8l1-.24Zm7-3.43-0.44,2.86-1-.12-0.08.89,0,0.05H9.67l-0.94-.17,0.77-4.72,1,0.12-0.12,1Z"/>
  <rect class="cls-1" width="13" height="16"/>
</svg>
