<svg id="レイヤー_1" data-name="レイヤー 1" xmlns="http://www.w3.org/2000/svg" width="35" height="16" viewBox="0 0 35 16">
  <defs>
    <style>
      .cls-1 {
        fill: none;
      }
    </style>
  </defs>
  <title>icon_movdigi-is-enhanced</title>
  <path d="M2.19,1.89a0.51,0.51,0,0,1,.33-0.27,0.56,0.56,0,0,1,.41,0A0.54,0.54,0,0,1,3.2,2a0.49,0.49,0,0,1,0,.41A9.87,9.87,0,0,0,2.26,4.7,10.27,10.27,0,0,0,2,7.19,10,10,0,0,0,3.15,12a0.47,0.47,0,0,1,0,.41,0.59,0.59,0,0,1-.27.33,0.47,0.47,0,0,1-.41,0,0.59,0.59,0,0,1-.33-0.27A11,11,0,0,1,.87,7.19,11,11,0,0,1,2.19,1.89Zm2.4-.64A0.58,0.58,0,0,1,4.94,1a0.45,0.45,0,0,1,.4.07,0.6,0.6,0,0,1,.25.33,0.51,0.51,0,0,1-.07.42A10,10,0,0,0,4.39,4.4,10.43,10.43,0,0,0,4,7.19,10.18,10.18,0,0,0,4.4,10a10.6,10.6,0,0,0,1.12,2.58,0.46,0.46,0,0,1,.07.4,0.59,0.59,0,0,1-.25.35,0.51,0.51,0,0,1-.4.07,0.55,0.55,0,0,1-.35-0.25,10,10,0,0,1-1.26-2.84,12,12,0,0,1,0-6.22A10.07,10.07,0,0,1,4.59,1.25ZM15,13.52a0.67,0.67,0,0,1-.21.4,0.6,0.6,0,0,1-.43.17H9.83A1,1,0,0,1,9.29,14a0.82,0.82,0,0,1-.39-0.38L5.78,7.76a0.84,0.84,0,0,1-.07-0.69,0.9,0.9,0,0,1,.44-0.54,0.84,0.84,0,0,1,.69-0.07,0.91,0.91,0,0,1,.54.44L8.64,9.27V2.07a0.61,0.61,0,0,1,.64-0.64,0.63,0.63,0,0,1,.45.18,0.6,0.6,0,0,1,.19.46V7h0.67V1.14A0.61,0.61,0,0,1,10.77.69,0.61,0.61,0,0,1,11.22.5a0.61,0.61,0,0,1,.46.19,0.63,0.63,0,0,1,.18.45V6.65l-0.07,0a0.1,0.1,0,0,0-.07,0,0.73,0.73,0,0,0-.33.6v3.82a0.69,0.69,0,0,0,.33.59,0.61,0.61,0,0,0,.33.13,0.75,0.75,0,0,0,.35,0l1.46-.59v0.38a1.24,1.24,0,0,0,.38.91,1.26,1.26,0,0,0,.86.39Zm-1-3.17-1.86.75V7.31L14,8.06v2.3ZM12.52,6.69V2.17a0.62,0.62,0,0,1,.63-0.64,0.63,0.63,0,0,1,.46.18,0.61,0.61,0,0,1,.18.46v5Zm2.6-.34a1.15,1.15,0,0,0-.59.16V4.16a0.63,0.63,0,0,1,.18-0.45,0.61,0.61,0,0,1,.46-0.19,0.64,0.64,0,0,1,.64.64V6.34H15.12Zm7.08,5.24A0.56,0.56,0,0,1,22,12a0.54,0.54,0,0,1-.39.18H15.12A0.55,0.55,0,0,1,14.73,12a0.56,0.56,0,0,1-.18-0.41v-4a0.62,0.62,0,0,1,.57-0.57h6.51a0.62,0.62,0,0,1,.57.57v4Zm-4.64,1.16-1.45,2.69L15.36,15l1.24-2.3h1Zm1-6.4a10.17,10.17,0,0,0-1.45-4.52,0.49,0.49,0,0,1-.07-0.41,0.59,0.59,0,0,1,.25-0.34A0.48,0.48,0,0,1,17.75,1a0.59,0.59,0,0,1,.34.25,10.13,10.13,0,0,1,1.12,2.44,12.81,12.81,0,0,1,.5,2.65H18.61ZM19,12.74l1.45,2.69L21.19,15l-1.24-2.3H19Zm1.7-6.4a10.41,10.41,0,0,0-1.13-3.95,0.51,0.51,0,0,1,0-.42,0.5,0.5,0,0,1,.26-0.32,0.52,0.52,0,0,1,.42,0,0.55,0.55,0,0,1,.32.28,11.55,11.55,0,0,1,.86,2.16,11.12,11.12,0,0,1,.41,2.33l-0.15,0H20.68Zm7.49,3.75h-4v5.4h4V10.1Zm6-4.28V15.5H30.05V5.82h4.08Z"/>
  <rect class="cls-1" width="35" height="16"/>
</svg>
