<?xml version="1.0" encoding="utf-8"?>
<!-- Generator: Adobe Illustrator 23.0.3, SVG Export Plug-In . SVG Version: 6.00 Build 0)  -->
<svg version="1.1" id="レイヤー_1" xmlns="http://www.w3.org/2000/svg" xmlns:xlink="http://www.w3.org/1999/xlink" x="0px"
	 y="0px" width="23.5px" height="16px" viewBox="0 0 23.5 16" style="enable-background:new 0 0 23.5 16;" xml:space="preserve">
<style type="text/css">
	.st0{fill:none;}
</style>
<title>icon_tab-shooting</title>
<rect class="st0" width="23.5" height="16"/>
<g>
	<path d="M12.5,0.8h-1.4c-1.9,0-7.8,0-7.8,6.7v0.7c0,6.7,5.9,6.7,7.8,6.7h1.4c1.9,0,7.8,0,7.8-6.7V7.6C20.3,0.8,14.4,0.8,12.5,0.8z
		 M18.7,8.3c0,3.6-1.9,5.1-6.2,5.1h-1.4c-4.3,0-6.2-1.5-6.2-5.1V7.6c0-3.6,1.9-5.1,6.2-5.1h1.4c4.3,0,6.2,1.5,6.2,5.1V8.3z"/>
	<rect x="0.6" y="0.5" width="1.6" height="14.9"/>
	<rect x="21.3" y="0.5" width="1.6" height="14.9"/>
</g>
</svg>
