<svg id="レイヤー_1" data-name="レイヤー 1" xmlns="http://www.w3.org/2000/svg" width="54" height="16" viewBox="0 0 54 16">
  <defs>
    <style>
      .cls-1 {
        fill: blue;
      }

      .cls-2 {
        fill: none;
      }
    </style>
  </defs>
  <title>icon_af-on_b</title>
  <path class="cls-1" d="M5.94,0.74H7.79L13,15.24H11.08L9.82,11.6h-6L2.53,15.24H0.67Zm0.85,2L4.34,9.9H9.27Zm7.88,12.53h1.76V8.64H21V6.82H16.44V2.59h4.79V0.74H14.68v14.5ZM23.17,6.9h4.54V8.49H23.17V6.9ZM29.31,8a10.61,10.61,0,0,1,.4-3,7.32,7.32,0,0,1,1.16-2.37,5.46,5.46,0,0,1,8.74,0A7.26,7.26,0,0,1,40.78,5a10.56,10.56,0,0,1,.4,3,10.86,10.86,0,0,1-.4,3,7.14,7.14,0,0,1-1.16,2.37A5.25,5.25,0,0,1,37.77,15a6,6,0,0,1-5,0,5.22,5.22,0,0,1-1.87-1.54A7.2,7.2,0,0,1,29.71,11,10.92,10.92,0,0,1,29.31,8Zm1.88,0a9.43,9.43,0,0,0,.24,2.11,6,6,0,0,0,.73,1.82,3.92,3.92,0,0,0,1.26,1.28,3.42,3.42,0,0,0,1.85.48,3.38,3.38,0,0,0,1.83-.48,3.92,3.92,0,0,0,1.26-1.28,6,6,0,0,0,.73-1.82A9.35,9.35,0,0,0,39.32,8a8.92,8.92,0,0,0-.25-2.12,6,6,0,0,0-.76-1.82A3.94,3.94,0,0,0,37,2.8a3.31,3.31,0,0,0-1.77-.47,3.35,3.35,0,0,0-1.79.47A4,4,0,0,0,32.2,4.06a6,6,0,0,0-.76,1.82A8.84,8.84,0,0,0,31.19,8Zm12.49,7.24h1.76V3.34h0l5.58,11.9h2.26V0.74H51.57V12.44h0L46.09,0.74h-2.4v14.5Z"/>
  <rect class="cls-2" width="54" height="16"/>
</svg>
