<svg xmlns="http://www.w3.org/2000/svg" width="30.4" height="16" viewBox="0 0 30.4 16">
  <defs>
    <style>
      .cls-1 {
        fill: none;
      }

      .cls-2 {
        fill: #231f20;
      }
    </style>
  </defs>
  <g id="base">
    <rect class="cls-1" width="30.4" height="16"/>
  </g>
  <g id="icon">
    <g>
      <g>
        <path class="cls-2" d="M9.61,5.12H5.49V1H9.61Zm-3.09-1H8.58V2H6.52Z"/>
        <path class="cls-2" d="M9.61,10.06H5.49V5.94H9.61ZM6.52,9H8.58V7H6.52Z"/>
        <path class="cls-2" d="M14.55,10.06H10.44V5.94h4.11ZM11.47,9h2V7h-2Z"/>
        <path class="cls-2" d="M4.67,10.06H.55V5.94H4.67ZM1.58,9H3.64V7H1.58Z"/>
        <path class="cls-2" d="M9.61,15H5.49V10.88H9.61ZM6.52,14H8.58V11.91H6.52Z"/>
      </g>
      <g>
        <g>
          <path class="cls-2" d="M20.06,8.83h.85a2.46,2.46,0,0,1,4.7,0h.85a3.28,3.28,0,0,0-6.4,0Z"/>
          <path class="cls-2" d="M23.26,12a2.46,2.46,0,0,1-2.35-1.72h-.85a3.29,3.29,0,0,0,6.4,0h-.85A2.47,2.47,0,0,1,23.26,12Z"/>
          <path class="cls-2" d="M24.79,9.57a1.53,1.53,0,0,0-3.06,0h0a1.53,1.53,0,1,0,3.06,0Z"/>
        </g>
        <g>
          <path class="cls-2" d="M22.32,13.65H17.93a.32.32,0,0,1-.32-.32V5.8a.31.31,0,0,1,.32-.31h4.39V4.55H17.93A1.25,1.25,0,0,0,16.67,5.8v7.53a1.26,1.26,0,0,0,1.26,1.26h4.39Z"/>
          <path class="cls-2" d="M28.59,4.55H24.2v.94h4.39a.32.32,0,0,1,.32.31v7.53a.33.33,0,0,1-.32.32H24.2v.94h4.39a1.27,1.27,0,0,0,1.26-1.26V5.8A1.26,1.26,0,0,0,28.59,4.55Z"/>
        </g>
      </g>
    </g>
  </g>
</svg>
