<svg id="レイヤー_1" data-name="レイヤー 1" xmlns="http://www.w3.org/2000/svg" width="27" height="16" viewBox="0 0 27 16">
  <defs>
    <style>
      .cls-1 {
        fill: #fff;
      }

      .cls-2 {
        fill: none;
      }
    </style>
  </defs>
  <title>icon_btn-erase</title>
  <g>
    <path d="M26.49,13.93A1.74,1.74,0,0,1,26.1,15a1.15,1.15,0,0,1-.92.46H1.83A1.15,1.15,0,0,1,.91,15a1.76,1.76,0,0,1-.4-1.11V2.07A1.62,1.62,0,0,1,.91,1,1.15,1.15,0,0,1,1.83.5H25.17A1.15,1.15,0,0,1,26.1,1a1.67,1.67,0,0,1,.39,1.12V13.93Z"/>
    <path class="cls-1" d="M16,2.88A0.14,0.14,0,0,1,16,3a0.19,0.19,0,0,1-.11.08l-7.48,2a0.12,0.12,0,0,1-.12,0A0.17,0.17,0,0,1,8.2,5L8.12,4.75a0.16,0.16,0,0,1,.12-0.21l3.13-.86L11.2,3a0.23,0.23,0,0,1,0-.19,0.22,0.22,0,0,1,.15-0.11l0.73-.2a0.22,0.22,0,0,1,.19,0,0.23,0.23,0,0,1,.12.16l0.18,0.66,3.14-.86a0.12,0.12,0,0,1,.12,0,0.22,0.22,0,0,1,.08.11Zm1,3.48-0.64,6.8a0.5,0.5,0,0,1-.5.51h-5a0.5,0.5,0,0,1-.5-0.51L9.79,6.35A0.52,0.52,0,0,1,9.93,6a0.48,0.48,0,0,1,.36-0.15h6.26A0.49,0.49,0,0,1,16.9,6,0.48,0.48,0,0,1,17,6.35ZM12.2,13L11.91,6.53H10.47L11.09,13H12.2Zm2.06-6.46H12.58L12.86,13H14Zm2.1,0H14.92L14.64,13h1.11Z"/>
  </g>
  <rect class="cls-2" width="27" height="16"/>
</svg>
