<svg id="レイヤー_1" data-name="レイヤー 1" xmlns="http://www.w3.org/2000/svg" width="19" height="16" viewBox="0 0 19 16">
  <defs>
    <style>
      .cls-1 {
        fill: none;
      }
    </style>
  </defs>
  <title>icon_metering-center</title>
  <path d="M8.38,15.5H2a1.4,1.4,0,0,1-1-.43A1.45,1.45,0,0,1,.57,14V2A1.45,1.45,0,0,1,1,.93,1.4,1.4,0,0,1,2,.5H8.38V1.38H2a0.6,0.6,0,0,0-.6.6V14a0.6,0.6,0,0,0,.6.6H8.38V15.5Zm10-1.49A1.44,1.44,0,0,1,18,15.07a1.41,1.41,0,0,1-1,.43H10.62V14.61H17a0.6,0.6,0,0,0,.6-0.6V2a0.6,0.6,0,0,0-.6-0.6H10.62V0.5H17a1.4,1.4,0,0,1,1,.43A1.44,1.44,0,0,1,18.43,2V14Z"/>
  <rect class="cls-1" width="19" height="16"/>
</svg>
