<?xml version="1.0" encoding="UTF-8"?>
<svg id="temp" xmlns="http://www.w3.org/2000/svg" width="6mm" height="5.64mm" version="1.1" viewBox="0 0 17 16">
  <!-- Generator: Adobe Illustrator 29.2.1, SVG Export Plug-In . SVG Version: 2.1.0 Build 116)  -->
  <defs>
    <style>
      .st0, .st1, .st2, .st3 {
        stroke: #fff;
      }

      .st0, .st1, .st4, .st3 {
        stroke-miterlimit: 10;
      }

      .st0, .st2, .st4, .st3 {
        stroke-width: .75px;
      }

      .st1, .st2, .st3 {
        fill: #fff;
      }

      .st2 {
        stroke-linecap: round;
        stroke-miterlimit: 5;
      }

      .st4 {
        stroke: #000;
      }
    </style>
  </defs>
  <rect class="st4" x="1.42" y=".85" width="14.17" height="14.17" rx="1.42" ry="1.42"/>
  <line class="st1" x1="2.98" y1="9.21" x2="6.09" y2="9.24"/>
  <line class="st1" x1="10.91" y1="9.21" x2="14.03" y2="9.24"/>
  <path class="st0" d="M8.5,2.44s-1.9,0-1.9,1.67v5.57c-.23.35-.36.78-.36,1.23,0,1.25,1.02,2.27,2.27,2.27s2.27-1.02,2.27-2.27c0-.47-.14-.91-.39-1.28v-5.53c0-1.67-1.88-1.67-1.88-1.67Z"/>
  <line class="st2" x1="8.5" y1="9.23" x2="8.5" y2="10.65"/>
  <circle class="st3" cx="8.5" cy="10.86" r=".64"/>
  <path class="st3" d="M10.38,9.23"/>
</svg>