<svg xmlns="http://www.w3.org/2000/svg" width="27" height="16" viewBox="0 0 27 16">
  <defs>
    <style>
      .cls-1 {
        fill: none;
      }
    </style>
  </defs>
  <g id="base">
    <rect class="cls-1" width="27" height="16"/>
  </g>
  <g id="icon">
    <g>
      <path d="M24.75.5H2.25A1.87,1.87,0,0,0,.38,2.38V13.62A1.87,1.87,0,0,0,2.25,15.5h22.5a1.87,1.87,0,0,0,1.87-1.88V2.38A1.87,1.87,0,0,0,24.75.5ZM21.7,12.67a1.42,1.42,0,0,1-1.42,1.42H6.72A1.42,1.42,0,0,1,5.3,12.67V3.33A1.41,1.41,0,0,1,6.72,1.91H20.28A1.41,1.41,0,0,1,21.7,3.33Z"/>
      <path d="M20.28,3.13H6.72a.21.21,0,0,0-.21.2v9.34a.22.22,0,0,0,.21.21H20.28a.21.21,0,0,0,.2-.21V3.33A.2.2,0,0,0,20.28,3.13ZM10.69,8.94H7.88V7.06h2.81Zm4.22,2.81H12.09V9.88h2.82Zm0-2.81H12.09V7.06h2.82Zm0-2.82H12.09V4.25h2.82Zm4.21,2.82H16.31V7.06h2.81Z"/>
    </g>
  </g>
</svg>
