<?xml version="1.0" encoding="UTF-8"?>
<svg id="edge" xmlns="http://www.w3.org/2000/svg" width="35.5" height="16" version="1.1" viewBox="0 0 35.5 16">
  <!-- Generator: Adobe Illustrator 29.5.1, SVG Export Plug-In . SVG Version: 2.1.0 Build 141)  -->
  <defs>
    <style>
      .st0 {
        stroke: #fff;
        stroke-linecap: round;
        stroke-linejoin: round;
      }
    </style>
  </defs>
  <path class="st0" d="M6.46,8.79c.73,0,1.35.43,1.65,1.04h3.45c.59,0,1.07-.48,1.07-1.07V2.95c0-.59-.48-1.07-1.07-1.07h-2.37l-.84-1.46c-.12-.23-.36-.38-.63-.38h-2.58c-.07,0-.14.02-.21.04-.19.05-.35.18-.45.36l-.82,1.44H1.34c-.59,0-1.07.48-1.07,1.07v5.82c0,.59.48,1.07,1.07,1.07h3.46c.3-.62.92-1.04,1.65-1.04ZM3.76,5.61c0-1.49,1.21-2.7,2.7-2.7s2.7,1.21,2.7,2.7-1.21,2.7-2.7,2.7-2.7-1.21-2.7-2.7Z"/>
  <path class="st0" d="M16.06,14.25v-1.53c0-.25-.21-.46-.46-.46H6.92v-.82c.27-.16.46-.45.46-.79,0-.51-.41-.92-.92-.92s-.92.41-.92.92c0,.34.19.63.46.79v2.82c-.27.16-.46.45-.46.79,0,.51.41.92.92.92s.92-.41.92-.92c0-.34-.19-.63-.46-.79v-1.07h3.65v1.07c-.27.16-.46.45-.46.79,0,.51.41.92.92.92s.92-.41.92-.92c0-.34-.19-.63-.46-.79v-1.07h3.65v1.07c-.27.16-.46.45-.46.79,0,.51.41.92.92.92s.92-.41.92-.92c0-.34-.19-.63-.46-.79Z"/>
  <g>
    <path class="st0" d="M18.65,2.12h1.03v7.03h-1.37l-2.08-4.92h0c-.04-.08-.07-.15-.1-.22-.03-.07-.06-.15-.09-.22l.02.33v5.03h-1.03V2.12h1.35l2.1,4.91c.04.09.07.15.09.19.02.04.03.07.04.09,0,.02.01.05.02.08,0,.03.02.08.05.16l-.02-.32V2.12Z"/>
    <path class="st0" d="M22.91,2.01c.41,0,.77.08,1.1.24.32.16.6.39.82.7.22.31.4.69.52,1.14.12.45.18.97.18,1.55s-.06,1.1-.18,1.54-.29.83-.52,1.13c-.22.31-.5.54-.82.7-.32.16-.69.24-1.1.24s-.77-.08-1.1-.24c-.32-.16-.6-.39-.82-.7-.23-.31-.4-.68-.52-1.13s-.18-.96-.18-1.54.06-1.1.18-1.55c.12-.45.29-.83.52-1.14.23-.31.5-.54.82-.7.32-.16.69-.24,1.1-.24ZM24.29,5.64c0-.42-.03-.79-.09-1.12-.06-.33-.14-.61-.26-.83-.12-.23-.26-.4-.43-.52-.17-.12-.38-.18-.61-.18s-.43.06-.61.18c-.17.12-.32.3-.43.52-.12.23-.2.51-.26.83-.06.33-.09.7-.09,1.12s.03.78.09,1.1c.06.33.14.6.26.83.12.23.26.4.43.53.17.12.38.18.61.18s.43-.06.61-.18c.17-.12.32-.3.43-.53.12-.23.2-.51.26-.83.06-.33.09-.69.09-1.1Z"/>
    <path class="st0" d="M29.77,2.12h1.03v7.03h-1.37l-2.08-4.92h0c-.04-.08-.07-.15-.1-.22-.03-.07-.06-.15-.09-.22l.02.33v5.03h-1.03V2.12h1.35l2.1,4.91c.04.09.07.15.09.19.02.04.03.07.04.09,0,.02.01.05.02.08,0,.03.02.08.05.16l-.02-.32V2.12Z"/>
    <path class="st0" d="M32.91,6.03v2.16h2.31v.97h-3.5V2.12h3.44v.97h-2.26v1.97h2.01v.97h-2.01Z"/>
  </g>
  <path d="M6.46,8.79c.73,0,1.35.43,1.65,1.04h3.45c.59,0,1.07-.48,1.07-1.07V2.95c0-.59-.48-1.07-1.07-1.07h-2.37l-.84-1.46c-.12-.23-.36-.38-.63-.38h-2.58c-.07,0-.14.02-.21.04-.19.05-.35.18-.45.36l-.82,1.44H1.34c-.59,0-1.07.48-1.07,1.07v5.82c0,.59.48,1.07,1.07,1.07h3.46c.3-.62.92-1.04,1.65-1.04ZM3.76,5.61c0-1.49,1.21-2.7,2.7-2.7s2.7,1.21,2.7,2.7-1.21,2.7-2.7,2.7-2.7-1.21-2.7-2.7Z"/>
  <path d="M16.06,14.25v-1.53c0-.25-.21-.46-.46-.46H6.92v-.82c.27-.16.46-.45.46-.79,0-.51-.41-.92-.92-.92s-.92.41-.92.92c0,.34.19.63.46.79v2.82c-.27.16-.46.45-.46.79,0,.51.41.92.92.92s.92-.41.92-.92c0-.34-.19-.63-.46-.79v-1.07h3.65v1.07c-.27.16-.46.45-.46.79,0,.51.41.92.92.92s.92-.41.92-.92c0-.34-.19-.63-.46-.79v-1.07h3.65v1.07c-.27.16-.46.45-.46.79,0,.51.41.92.92.92s.92-.41.92-.92c0-.34-.19-.63-.46-.79Z"/>
  <g>
    <path d="M18.65,2.12h1.03v7.03h-1.37l-2.08-4.92h0c-.04-.08-.07-.15-.1-.22-.03-.07-.06-.15-.09-.22l.02.33v5.03h-1.03V2.12h1.35l2.1,4.91c.04.09.07.15.09.19.02.04.03.07.04.09,0,.02.01.05.02.08,0,.03.02.08.05.16l-.02-.32V2.12Z"/>
    <path d="M22.91,2.01c.41,0,.77.08,1.1.24.32.16.6.39.82.7.22.31.4.69.52,1.14.12.45.18.97.18,1.55s-.06,1.1-.18,1.54-.29.83-.52,1.13c-.22.31-.5.54-.82.7-.32.16-.69.24-1.1.24s-.77-.08-1.1-.24c-.32-.16-.6-.39-.82-.7-.23-.31-.4-.68-.52-1.13s-.18-.96-.18-1.54.06-1.1.18-1.55c.12-.45.29-.83.52-1.14.23-.31.5-.54.82-.7.32-.16.69-.24,1.1-.24ZM24.29,5.64c0-.42-.03-.79-.09-1.12-.06-.33-.14-.61-.26-.83-.12-.23-.26-.4-.43-.52-.17-.12-.38-.18-.61-.18s-.43.06-.61.18c-.17.12-.32.3-.43.52-.12.23-.2.51-.26.83-.06.33-.09.7-.09,1.12s.03.78.09,1.1c.06.33.14.6.26.83.12.23.26.4.43.53.17.12.38.18.61.18s.43-.06.61-.18c.17-.12.32-.3.43-.53.12-.23.2-.51.26-.83.06-.33.09-.69.09-1.1Z"/>
    <path d="M29.77,2.12h1.03v7.03h-1.37l-2.08-4.92h0c-.04-.08-.07-.15-.1-.22-.03-.07-.06-.15-.09-.22l.02.33v5.03h-1.03V2.12h1.35l2.1,4.91c.04.09.07.15.09.19.02.04.03.07.04.09,0,.02.01.05.02.08,0,.03.02.08.05.16l-.02-.32V2.12Z"/>
    <path d="M32.91,6.03v2.16h2.31v.97h-3.5V2.12h3.44v.97h-2.26v1.97h2.01v.97h-2.01Z"/>
  </g>
</svg>