<?xml version="1.0" encoding="utf-8"?>
<!-- Generator: Adobe Illustrator 23.0.3, SVG Export Plug-In . SVG Version: 6.00 Build 0)  -->
<svg version="1.1" id="レイヤー_1" xmlns="http://www.w3.org/2000/svg" xmlns:xlink="http://www.w3.org/1999/xlink" x="0px"
	 y="0px" width="21.8px" height="15.9px" viewBox="0 0 21.8 15.9" style="enable-background:new 0 0 21.8 15.9;"
	 xml:space="preserve">
<style type="text/css">
	.st0{fill:none;}
</style>
<title>icon_dial-normal</title>
<rect x="-0.3" y="0" class="st0" width="21.8" height="15.9"/>
<g>
	<path d="M12.7,7.5c-4.4,0-8.1,3.6-8.1,8h1.3c0-3.7,3-6.7,6.8-6.7s6.8,3,6.8,6.7h1.3C20.7,11.1,17.1,7.5,12.7,7.5z"/>
	<path d="M0.5,15.5h2.3c0-1,0.1-1.9,0.4-2.8l-2.1-1C0.7,12.9,0.5,14.2,0.5,15.5z"/>
	<path d="M4.4,6.6c-1.2,1.1-2.2,2.5-2.9,4l2,1.1C4.1,10.4,4.9,9.2,6,8.3L4.4,6.6z"/>
	<path d="M12.8,5.6c2.4,0,4.8,0.8,6.6,2.4c0.3,0.3,0.5,0.6,0.7,0.9l-2.2-8.5l-2.7,3.2c-0.7-0.2-1.5-0.3-2.5-0.3
		c-2.8,0-5.3,0.9-7.4,2.4l1.5,1.8C8.5,6.3,10.6,5.6,12.8,5.6z"/>
</g>
</svg>
