<svg id="レイヤー_1" data-name="レイヤー 1" xmlns="http://www.w3.org/2000/svg" width="31" height="16" viewBox="0 0 31 16">
  <defs>
    <style>
      .cls-1 {
        fill: none;
      }
    </style>
  </defs>
  <title>icon_fps-59_94</title>
  <rect class="cls-1" width="31" height="16"/>
  <path d="M30.21,14.19a1.31,1.31,0,0,1-1.31,1.31H2.07a1.23,1.23,0,0,1-.91-0.38,1.27,1.27,0,0,1-.38-0.92V1.79A1.24,1.24,0,0,1,1.16.88,1.24,1.24,0,0,1,2.07.5H28.91a1.27,1.27,0,0,1,.92.38,1.23,1.23,0,0,1,.38.91v12.4Zm-24-4.28A4.49,4.49,0,0,0,6,8.59a3,3,0,0,0-.48-1,2,2,0,0,0-.7-0.57A1.93,1.93,0,0,0,4,6.87a3,3,0,0,0-.46,0A1.6,1.6,0,0,0,3.11,7V4.17h2.7V3.11H2.15V8.25A6.6,6.6,0,0,1,2.86,8a2.35,2.35,0,0,1,.61-0.08,1.5,1.5,0,0,1,1.24.55,2.51,2.51,0,0,1,.44,1.6,2.86,2.86,0,0,1-.45,1.65,1.4,1.4,0,0,1-1.22.65,1.86,1.86,0,0,1-.73-0.17,2.91,2.91,0,0,1-.64-0.37l0,1.18a3.39,3.39,0,0,0,.76.3,3.09,3.09,0,0,0,.8.11,2.17,2.17,0,0,0,1.92-1A4.49,4.49,0,0,0,6.21,9.92Zm5.25-2.09a14.43,14.43,0,0,0-.13-2,5.77,5.77,0,0,0-.4-1.51,2.34,2.34,0,0,0-.72-1A1.79,1.79,0,0,0,9.11,3a2,2,0,0,0-1.63.84A4,4,0,0,0,6.82,6.4,5.16,5.16,0,0,0,7,7.58a3.55,3.55,0,0,0,.4,1A2.31,2.31,0,0,0,8,9.31a1.6,1.6,0,0,0,1.85-.06,1.89,1.89,0,0,0,.61-0.91h0A9.26,9.26,0,0,1,10.37,10,4.81,4.81,0,0,1,10,11.27a2.29,2.29,0,0,1-.64.82,1.42,1.42,0,0,1-.89.3A1.9,1.9,0,0,1,7.23,12l-0.05,1.2a2.92,2.92,0,0,0,1.32.29Q11.46,13.44,11.46,7.82Zm-1.11-1.5a4,4,0,0,1-.08.81,3,3,0,0,1-.23.71,1.54,1.54,0,0,1-.38.51,0.83,0.83,0,0,1-.55.2,0.86,0.86,0,0,1-.56-0.2,1.48,1.48,0,0,1-.39-0.51A3,3,0,0,1,7.9,7.12a4,4,0,0,1-.08-0.81A4.21,4.21,0,0,1,7.9,5.49a3,3,0,0,1,.23-0.72,1.48,1.48,0,0,1,.39-0.51,0.86,0.86,0,0,1,.56-0.2,0.83,0.83,0,0,1,.55.2,1.55,1.55,0,0,1,.38.51,3,3,0,0,1,.23.72A4.21,4.21,0,0,1,10.35,6.32Zm3,7V11.69H12.24v1.65h1.11Zm5.42-5.51a14.43,14.43,0,0,0-.13-2,5.54,5.54,0,0,0-.41-1.51,2.44,2.44,0,0,0-.73-1A1.75,1.75,0,0,0,16.43,3a2,2,0,0,0-1.63.84,4,4,0,0,0-.66,2.53,5.16,5.16,0,0,0,.13,1.18,3.55,3.55,0,0,0,.4,1,2.31,2.31,0,0,0,.65.71,1.59,1.59,0,0,0,1.84-.06,1.87,1.87,0,0,0,.62-0.91h0A9.41,9.41,0,0,1,17.67,10a4.92,4.92,0,0,1-.39,1.27,2.29,2.29,0,0,1-.65.82,1.42,1.42,0,0,1-.89.3A2,2,0,0,1,14.53,12l0,1.2a2,2,0,0,0,.61.22,3.71,3.71,0,0,0,.72.07Q18.78,13.44,18.78,7.82Zm-1.11-1.5a4,4,0,0,1-.08.81,3,3,0,0,1-.23.71,1.48,1.48,0,0,1-.39.51,0.86,0.86,0,0,1-.56.2,0.83,0.83,0,0,1-.55-0.2,1.54,1.54,0,0,1-.38-0.51,3,3,0,0,1-.23-0.71,4.09,4.09,0,0,1-.08-0.81,4.32,4.32,0,0,1,.08-0.83,3,3,0,0,1,.23-0.72,1.55,1.55,0,0,1,.38-0.51,0.83,0.83,0,0,1,.55-0.2,0.86,0.86,0,0,1,.56.2,1.48,1.48,0,0,1,.39.51,3,3,0,0,1,.23.72A4.21,4.21,0,0,1,17.67,6.32ZM24,11V10H23.09V3.11H21.87L19,9.79V11h3.13v2.31h0.95V11H24ZM22.14,10H19.85L22.1,4.4h0V10Zm7-3.94a3.24,3.24,0,0,0-.64-2.11,2.18,2.18,0,0,0-.7-0.58,2.2,2.2,0,0,0-1-.21H24.9V13.33h1V9.07h0.68a2.41,2.41,0,0,0,1.93-.77A3.43,3.43,0,0,0,29.16,6Zm-1.06.13a2.26,2.26,0,0,1-.38,1.37A1.5,1.5,0,0,1,26.44,8H25.88V4.17h0.57a1.62,1.62,0,0,1,1.21.45A2.14,2.14,0,0,1,28.1,6.14Z"/>
</svg>
