<svg id="レイヤー_1" data-name="レイヤー 1" xmlns="http://www.w3.org/2000/svg" width="31" height="16" viewBox="0 0 31 16">
  <defs>
    <style>
      .cls-1 {
        fill: none;
      }
    </style>
  </defs>
  <title>icon_iso</title>
  <path d="M2.88,15.25H0.81V0.75H2.88v14.5ZM12.44,2.67a5.51,5.51,0,0,0-.63-0.19,6,6,0,0,0-.64-0.11,7.07,7.07,0,0,0-.74,0,4.64,4.64,0,0,0-.89.09,2.47,2.47,0,0,0-.81.31,1.8,1.8,0,0,0-.59.59,1.76,1.76,0,0,0-.23.94,1.53,1.53,0,0,0,.46,1.14,5,5,0,0,0,1.15.82Q10.21,6.61,11,7a7.71,7.71,0,0,1,1.51.9A4.57,4.57,0,0,1,13.69,9.2a3.87,3.87,0,0,1,.46,2,4.31,4.31,0,0,1-.42,2,3.68,3.68,0,0,1-1.14,1.34,4.89,4.89,0,0,1-1.69.76,8.52,8.52,0,0,1-2.06.24,6.08,6.08,0,0,1-1.5-.19Q6.6,15.13,5.88,14.9L6.07,13,6.69,13.2q0.35,0.13.75,0.23C7.71,13.5,8,13.56,8.27,13.6a4.93,4.93,0,0,0,.82.07A3.76,3.76,0,0,0,10,13.54,3,3,0,0,0,11,13.13a2.33,2.33,0,0,0,.7-0.74,2.06,2.06,0,0,0,.27-1.09A1.89,1.89,0,0,0,11.47,10a4.39,4.39,0,0,0-1.15-.89Q9.63,8.72,8.81,8.36a8.14,8.14,0,0,1-1.5-.85A4.4,4.4,0,0,1,6.16,6.3,3.37,3.37,0,0,1,5.7,4.45a3.83,3.83,0,0,1,.36-1.7A3.55,3.55,0,0,1,7,1.51,4.33,4.33,0,0,1,8.51.76,6.34,6.34,0,0,1,10.35.5,9.65,9.65,0,0,1,11.9.63a8.8,8.8,0,0,1,1.56.4l-0.3,1.91ZM30.19,8a9.36,9.36,0,0,1-.47,3,6.72,6.72,0,0,1-1.36,2.37A6.1,6.1,0,0,1,26.16,15a7.57,7.57,0,0,1-3,.55,7.51,7.51,0,0,1-3-.55,6.11,6.11,0,0,1-2.19-1.54A6.72,6.72,0,0,1,16.69,11a9.36,9.36,0,0,1-.47-3,9.18,9.18,0,0,1,.47-3,6.93,6.93,0,0,1,1.36-2.38,6.18,6.18,0,0,1,2.19-1.58A7.32,7.32,0,0,1,23.19.5a7.32,7.32,0,0,1,2.95.57,6.28,6.28,0,0,1,2.21,1.58A6.85,6.85,0,0,1,29.72,5,9.18,9.18,0,0,1,30.19,8ZM28,8a7.71,7.71,0,0,0-.29-2.13,5.41,5.41,0,0,0-.89-1.81A4.71,4.71,0,0,0,21.1,2.81a4.4,4.4,0,0,0-1.49,1.26,5.63,5.63,0,0,0-.89,1.81A7.5,7.5,0,0,0,18.41,8a8,8,0,0,0,.28,2.1,5.44,5.44,0,0,0,.86,1.82A4.32,4.32,0,0,0,21,13.2a4.55,4.55,0,0,0,2.16.48,4.54,4.54,0,0,0,2.16-.48,4.34,4.34,0,0,0,1.49-1.27,5.47,5.47,0,0,0,.86-1.82A8.08,8.08,0,0,0,28,8Z"/>
  <rect class="cls-1" width="31" height="16"/>
</svg>
