<svg id="レイヤー_1" data-name="レイヤー 1" xmlns="http://www.w3.org/2000/svg" width="39" height="16" viewBox="0 0 39 16">
  <defs>
    <style>
      .cls-1 {
        fill: none;
      }
    </style>
  </defs>
  <title>icon_raw-light</title>
  <g>
    <path d="M22.75.69a1.79,1.79,0,0,1,.46.51,2.65,2.65,0,0,1,.31.75,3.7,3.7,0,0,1,.11.93V13.16a3.52,3.52,0,0,1-.11.9,2.63,2.63,0,0,1-.31.74,1.78,1.78,0,0,1-.46.51,1,1,0,0,1-.57.19H1.69a1,1,0,0,1-.57-.19,1.63,1.63,0,0,1-.46-.51,2.76,2.76,0,0,1-.3-.74,3.52,3.52,0,0,1-.11-.9V2.88A3.7,3.7,0,0,1,.35,2a2.78,2.78,0,0,1,.3-.75A1.64,1.64,0,0,1,1.12.69,1,1,0,0,1,1.69.5H22.19A1,1,0,0,1,22.75.69ZM7,13.21l-1-4a5.16,5.16,0,0,0-.27-.74.59.59,0,0,0-.42-.4V8a1.13,1.13,0,0,0,.56-.3,2.05,2.05,0,0,0,.41-.58,3.42,3.42,0,0,0,.27-.78,4.22,4.22,0,0,0,.1-.93A3.12,3.12,0,0,0,6.31,4a1.92,1.92,0,0,0-.7-.8,2.53,2.53,0,0,0-1-.31,8.74,8.74,0,0,0-1.07-.07H2.15V13.21H3.46V8.92h.42a.61.61,0,0,1,.57.27,3.33,3.33,0,0,1,.31.89l.78,3.14H7ZM4.36,4.29a.92.92,0,0,1,.41.19,1.1,1.1,0,0,1,.32.43,2,2,0,0,1,.13.78,2.33,2.33,0,0,1-.13.84A1.16,1.16,0,0,1,4.77,7a1,1,0,0,1-.44.2,2.67,2.67,0,0,1-.49,0H3.46v-3h.42A3.33,3.33,0,0,1,4.36,4.29Zm9.59,8.92L11.42,2.82H9.95L7.42,13.21H8.75L9.34,11H12l.56,2.22h1.43ZM10.67,4.65l.95,4.59H9.71l1-4.59ZM22.61,2.82H21.35l-1.22,8.49h0L19,2.82H17.24l-1.11,8.49h0L14.9,2.82H13.56l1.69,10.39h1.69l1.16-8.56h0l1.16,8.56h1.69Z"/>
    <g>
      <polygon points="25.89 2.21 24.71 2.21 24.71 1.03 25.88 1.03 25.88 2.21 25.89 2.21"/>
      <polygon points="25.89 4.59 24.71 4.59 24.71 3.43 25.88 3.43 25.88 4.59 25.89 4.59"/>
      <polygon points="25.89 6.98 24.71 6.98 24.71 5.81 25.88 5.81 25.88 6.98 25.89 6.98"/>
      <polygon points="25.89 9.36 24.71 9.36 24.71 8.19 25.88 8.19 25.88 9.37 25.89 9.36"/>
      <rect x="24.74" y="10.6" width="13.99" height="4.9"/>
      <rect x="27.26" y="1.03" width="1.18" height="1.18"/>
      <polygon points="35.16 4.44 31.77 8.12 28.36 4.43 30.58 4.43 30.58 0.5 32.93 0.5 32.93 4.43 35.16 4.43 35.16 4.44"/>
      <rect x="35.09" y="1.03" width="1.18" height="1.18"/>
      <polygon points="38.8 2.21 37.62 2.21 37.62 1.03 38.78 1.03 38.78 2.21 38.8 2.21"/>
      <rect x="37.61" y="3.43" width="1.18" height="1.17"/>
      <rect x="37.61" y="5.81" width="1.18" height="1.17"/>
      <polygon points="38.79 9.36 37.61 9.36 37.61 8.19 38.79 8.19 38.79 9.37 38.79 9.36"/>
    </g>
  </g>
  <rect class="cls-1" width="39" height="16"/>
</svg>
