<svg id="icon" xmlns="http://www.w3.org/2000/svg" width="25" height="16" viewBox="0 0 25 16">
  <defs>
    <style>
      .cls-1 {
        fill: #231916;
      }

      .cls-2 {
        fill: none;
      }
    </style>
  </defs>
  <g>
    <g>
      <path class="cls-1" d="M9,9h3.57v1H10.24v1.61h2.22v1H10.24V15.4H9Z"/>
      <path class="cls-1" d="M13.18,9.75V8.62h1.21V9.75Zm0,5.65V10.46h1.17V15.4Z"/>
      <path class="cls-1" d="M17.92,10.31a1.73,1.73,0,0,1,.75.15,1.51,1.51,0,0,1,.53.44,2.05,2.05,0,0,1,.32.7,3.83,3.83,0,0,1,.11.93V15.4H18.45V12.58a2.86,2.86,0,0,0,0-.53,1.41,1.41,0,0,0-.13-.41.82.82,0,0,0-.25-.27.74.74,0,0,0-.38-.09,1,1,0,0,0-.47.11,1,1,0,0,0-.35.3,1.31,1.31,0,0,0-.22.46,2.14,2.14,0,0,0-.08.58V15.4H15.36v-5h1.08v.75a1.63,1.63,0,0,1,.59-.63A1.75,1.75,0,0,1,17.92,10.31Z"/>
      <path class="cls-1" d="M22.43,10.31a2.25,2.25,0,0,1,1,.2,1.65,1.65,0,0,1,.67.55,2.42,2.42,0,0,1,.38.88,5.17,5.17,0,0,1,.12,1.16v.2H21.43a2,2,0,0,0,.13.6,1.19,1.19,0,0,0,.28.4,1.06,1.06,0,0,0,.39.24,1.51,1.51,0,0,0,.48.07,2.32,2.32,0,0,0,.46,0,2.47,2.47,0,0,0,.41-.09l.34-.13.27-.15,0,1a3.2,3.2,0,0,1-.63.24,3.42,3.42,0,0,1-.91.1,2.8,2.8,0,0,1-1-.18,2,2,0,0,1-.77-.52A2.16,2.16,0,0,1,20.4,14a3.31,3.31,0,0,1-.16-1.08,3.75,3.75,0,0,1,.14-1,2.2,2.2,0,0,1,.42-.82,2,2,0,0,1,.68-.56A2.18,2.18,0,0,1,22.43,10.31Zm0,.86a.79.79,0,0,0-.45.12.92.92,0,0,0-.31.31,1.23,1.23,0,0,0-.19.42,1.78,1.78,0,0,0-.08.44h2a3.49,3.49,0,0,0-.07-.43,1.67,1.67,0,0,0-.16-.41,1,1,0,0,0-.29-.32A.7.7,0,0,0,22.46,11.17Z"/>
    </g>
    <g>
      <path class="cls-1" d="M24.58.5V5.55a2.58,2.58,0,0,1-.19,1.06,1.86,1.86,0,0,1-.5.71,2,2,0,0,1-.77.39,3.74,3.74,0,0,1-1.88,0,2,2,0,0,1-.77-.39A2.09,2.09,0,0,1,20,6.61a2.76,2.76,0,0,1-.18-1.06V.5h1.28v5a2.35,2.35,0,0,0,.08.65,1.26,1.26,0,0,0,.23.43,1,1,0,0,0,.36.23,1.48,1.48,0,0,0,.9,0A.93.93,0,0,0,23,6.54a1.11,1.11,0,0,0,.23-.43,2,2,0,0,0,.08-.65V.5Z"/>
      <rect class="cls-1" x="16.34" y="3.47" width="2.11" height="0.91"/>
      <path class="cls-1" d="M17.15.5,14.5,3.86l2.9,3.87H15.86L13.67,4.62V7.73H12.38V.5h1.29V3.13l2-2.63Z"/>
      <path class="cls-1" d="M10.61.5V5.32h.71v.95h-.71V7.73H9.48V6.27H6.67V5.15L9.21.5ZM9.48,2l-.42.79-.47.85-.47.85-.42.79H9.48Z"/>
    </g>
    <path class="cls-1" d="M8.18,10.08H3.33V2H7.47L8,.92H.42v10.2H8.18Zm-5.47,0H1V8.21H2.71ZM2.71,7H1V5.08H2.71Zm0-3.13H1V2H2.71Z"/>
  </g>
  <rect class="cls-2" width="25" height="16"/>
</svg>
