<svg xmlns="http://www.w3.org/2000/svg" width="27" height="16" viewBox="0 0 27 16">
  <defs>
    <style>
      .cls-1 {
        fill: none;
      }
    </style>
  </defs>
  <g id="base">
    <rect class="cls-1" width="27" height="16"/>
  </g>
  <g id="icon">
    <g>
      <path d="M24.75.5H2.25A1.87,1.87,0,0,0,.38,2.38V13.62A1.87,1.87,0,0,0,2.25,15.5h22.5a1.87,1.87,0,0,0,1.87-1.88V2.38A1.87,1.87,0,0,0,24.75.5ZM8.57,13.21H7.38V5.68L5.62,13.21h-1L2.84,5.7v7.51H1.65V2.81H3.32L5.1,10.72,6.9,2.81H8.57Zm6.26-2.92A6.11,6.11,0,0,1,14.25,12a2.82,2.82,0,0,1-.91,1,2.27,2.27,0,0,1-2.42,0A2.91,2.91,0,0,1,10,12a6.11,6.11,0,0,1-.58-1.68A11.86,11.86,0,0,1,9.23,8a12.08,12.08,0,0,1,.2-2.3A6,6,0,0,1,10,4a2.91,2.91,0,0,1,.91-1,2.27,2.27,0,0,1,2.42,0,2.82,2.82,0,0,1,.91,1,6,6,0,0,1,.58,1.68A12.08,12.08,0,0,1,15,8,11.86,11.86,0,0,1,14.83,10.29Zm5.94,0a4.94,4.94,0,0,1-.31.86,3.92,3.92,0,0,1-.47.79,4.06,4.06,0,0,1-.54.6,2.68,2.68,0,0,1-.57.4,2.47,2.47,0,0,1-.63.22,4.18,4.18,0,0,1-.74.06h-1.8V2.81h1.8a3,3,0,0,1,1.35.32,3.36,3.36,0,0,1,1.13,1,4.58,4.58,0,0,1,.78,1.58A9.91,9.91,0,0,1,21,8,9.58,9.58,0,0,1,20.77,10.28Zm4.85,2.93H21.75V2.81h3.81V4.24h-2.5V7.15h2.23V8.59H23.06v3.19h2.56Z"/>
      <path d="M19.16,5.28a2,2,0,0,0-.67-.76,1.82,1.82,0,0,0-1-.28H17v7.54h.49a1.73,1.73,0,0,0,1-.29,2.11,2.11,0,0,0,.66-.8,3.88,3.88,0,0,0,.35-1.19A9.93,9.93,0,0,0,19.65,8a9.21,9.21,0,0,0-.12-1.55A4.09,4.09,0,0,0,19.16,5.28Z"/>
      <path d="M13.28,5.12a2.17,2.17,0,0,0-.48-.78,1,1,0,0,0-1.34,0,2.17,2.17,0,0,0-.48.78,5.27,5.27,0,0,0-.29,1.24A13.44,13.44,0,0,0,10.6,8a13.33,13.33,0,0,0,.09,1.63A5.3,5.3,0,0,0,11,10.87a2.08,2.08,0,0,0,.48.78.94.94,0,0,0,1.34,0,2.08,2.08,0,0,0,.48-.78,5.87,5.87,0,0,0,.29-1.23A13.33,13.33,0,0,0,13.66,8a13.44,13.44,0,0,0-.09-1.65A5.82,5.82,0,0,0,13.28,5.12Z"/>
    </g>
  </g>
</svg>
