<svg xmlns="http://www.w3.org/2000/svg" width="22" height="16" viewBox="0 0 22 16">
  <defs>
    <style>
      .cls-1 {
        fill: none;
      }

      .cls-2 {
        fill: blue;
      }
    </style>
  </defs>
  <g id="base">
    <rect class="cls-1" width="22" height="16"/>
  </g>
  <g id="レイヤー_4" data-name="レイヤー 4">
    <g>
      <polygon class="cls-2" points="15.33 12.04 15.33 14.06 5.52 14.06 5.52 5.4 15.33 5.4 15.33 7.42 16.77 7.42 16.77 4.06 16.77 3.96 4.08 3.96 4.08 15.5 16.77 15.5 16.77 15.4 16.77 12.04 15.33 12.04"/>
      <polygon class="cls-2" points="2.92 10.6 2.06 10.6 2.06 1.94 11.87 1.94 11.87 2.81 13.31 2.81 13.31 0.5 0.61 0.5 0.61 12.04 2.92 12.04 2.92 10.6"/>
      <polygon class="cls-2" points="21.39 9.73 17.92 6.27 17.92 8.58 10.42 8.58 10.42 10.88 17.92 10.88 17.92 13.19 21.39 9.73"/>
    </g>
  </g>
</svg>
