<svg id="レイヤー_1" data-name="レイヤー 1" xmlns="http://www.w3.org/2000/svg" width="33" height="16" viewBox="0 0 33 16">
  <defs>
    <style>
      .cls-1 {
        fill: none;
      }
    </style>
  </defs>
  <title>icon_pic-style-s</title>
  <rect class="cls-1" width="33" height="16"/>
  <path d="M32.17,0.5v15H0.83V0.5H32.17ZM2,1.62V14.4H31.06V1.62H2ZM10.13,9.3L4.42,11.2,2.79,8.85,8.16,7.24Zm-6,0,0.36,0.5,0.28,0.43L5.47,10l1-.34,1.11-.37,1.09-.36L8.23,8.49l-0.3-.33-0.69.21-1,.29L5.15,9Zm6.42-4.14L6.86,4.06l-2,1.21L8.64,6.53Zm0.54,4.39-0.34,3.56h4.66l-0.3-3.56h-4Zm3.55-4.66-0.19-2H11.66l-0.21,2h3.16Zm2.85,1.62,3.79-1.26-2-1.21L15.57,5.17Zm-1.21,2.7L21.62,11l1.46-2.08L18,7.41ZM29,2.86a7,7,0,0,0-1.18-.29,7.33,7.33,0,0,0-1.15-.1,4.73,4.73,0,0,0-1.39.2,3.36,3.36,0,0,0-1.11.57,2.69,2.69,0,0,0-.75.93,2.88,2.88,0,0,0-.27,1.29,2.54,2.54,0,0,0,.35,1.39,3.3,3.3,0,0,0,.87.92,5.83,5.83,0,0,0,1.14.63A11.55,11.55,0,0,1,26.68,9a3.3,3.3,0,0,1,.87.68,1.45,1.45,0,0,1,.35,1,1.49,1.49,0,0,1-.21.82,1.84,1.84,0,0,1-.53.55,2.29,2.29,0,0,1-.69.31,2.81,2.81,0,0,1-.71.1,4.54,4.54,0,0,1-1.24-.18,8.08,8.08,0,0,1-1-.35l-0.16,1.46a10.85,10.85,0,0,0,1.11.33,4.89,4.89,0,0,0,1.13.13,6.5,6.5,0,0,0,1.55-.18A3.6,3.6,0,0,0,28.38,13a2.81,2.81,0,0,0,.86-1,3.3,3.3,0,0,0,.31-1.5A2.9,2.9,0,0,0,29.21,9a3.37,3.37,0,0,0-.87-1,6.29,6.29,0,0,0-1.13-.69Q26.6,7.08,26.08,6.8a3.73,3.73,0,0,1-.87-0.61,1.16,1.16,0,0,1-.35-0.87A1.32,1.32,0,0,1,25,4.61a1.39,1.39,0,0,1,.45-0.45,1.81,1.81,0,0,1,.61-0.23,3.57,3.57,0,0,1,.66-0.06l0.55,0L27.8,4a3.78,3.78,0,0,1,.48.14l0.54,0.2Z"/>
</svg>
