<svg xmlns="http://www.w3.org/2000/svg" width="26" height="16" viewBox="0 0 26 16">
  <defs>
    <style>
      .cls-1 {
        fill: none;
      }

      .cls-2 {
        fill: #231f20;
      }
    </style>
  </defs>
  <g id="base">
    <rect class="cls-1" width="26" height="16"/>
  </g>
  <g id="icon">
    <g>
      <g>
        <path class="cls-2" d="M15.84,7.43a1.91,1.91,0,0,1,1,.25,2.12,2.12,0,0,1,.73.73A3.7,3.7,0,0,1,18,9.6a7.13,7.13,0,0,1,.17,1.62A7,7,0,0,1,18,12.83,3.7,3.7,0,0,1,17.55,14a2.12,2.12,0,0,1-.73.73,2,2,0,0,1-2,0,2.12,2.12,0,0,1-.73-.73,3.94,3.94,0,0,1-.47-1.19,7.69,7.69,0,0,1-.16-1.61,7.79,7.79,0,0,1,.16-1.62,3.94,3.94,0,0,1,.47-1.19,2.12,2.12,0,0,1,.73-.73A1.91,1.91,0,0,1,15.84,7.43Zm1.24,3.79A8,8,0,0,0,17,10.06a3.61,3.61,0,0,0-.23-.88,1.42,1.42,0,0,0-.39-.54.83.83,0,0,0-1.08,0,1.32,1.32,0,0,0-.39.54,3.61,3.61,0,0,0-.23.88,8,8,0,0,0-.08,1.16,7.88,7.88,0,0,0,.08,1.15,3.52,3.52,0,0,0,.23.87,1.4,1.4,0,0,0,.39.56.86.86,0,0,0,1.08,0,1.51,1.51,0,0,0,.39-.56,3.52,3.52,0,0,0,.23-.87A7.88,7.88,0,0,0,17.08,11.22Z"/>
        <path class="cls-2" d="M18.73,7.55h2.91v1H19.79v2.11h1.72v1H19.79V14.9H18.73Z"/>
        <path class="cls-2" d="M22.11,7.55H25v1H23.17v2.11h1.72v1H23.17V14.9H22.11Z"/>
      </g>
      <path class="cls-2" d="M13.09,8.51a3.79,3.79,0,0,1,.29-.57,2.93,2.93,0,0,1,1-1,2,2,0,0,1,.36-.17H9.56l2.79-4.86L10.81,1,8,5.85,5.26,1l-1.53.88L6.52,6.74H1V8.51H6.52L3.73,13.37l1.53.88L8,9.4l2.77,4.85,1.54-.88L9.56,8.51Z"/>
    </g>
  </g>
</svg>
