<svg xmlns="http://www.w3.org/2000/svg" width="25" height="16" viewBox="0 0 25 16">
  <defs>
    <style>
      .cls-1 {
        fill: none;
      }

      .cls-2 {
        fill: #231f20;
      }
    </style>
  </defs>
  <g id="base">
    <rect class="cls-1" width="25" height="16"/>
  </g>
  <g id="icon">
    <g>
      <g>
        <path class="cls-2" d="M6,1.94a10,10,0,0,0-.73,1.27A9.53,9.53,0,0,1,12.43,8a9.53,9.53,0,0,1-7.19,4.79A10,10,0,0,0,6,14.06,10.9,10.9,0,0,0,14,8,10.9,10.9,0,0,0,6,1.94Z"/>
        <path class="cls-2" d="M3.35,8a11.79,11.79,0,0,1,.34-2.8L1,8l2.67,2.8A11.79,11.79,0,0,1,3.35,8Z"/>
        <path class="cls-2" d="M5.63,8a6.18,6.18,0,0,0,1.1,3.52,6.23,6.23,0,0,0,0-7A6.18,6.18,0,0,0,5.63,8Z"/>
      </g>
      <g>
        <path class="cls-2" d="M18.9,7.22V9.56h2.34V7.22ZM20.65,9H19.49V7.81h1.16Z"/>
        <path class="cls-2" d="M18.9,9.94v2.34h2.34V9.94Zm1.75,1.75H19.49V10.53h1.16Z"/>
        <path class="cls-2" d="M18.9,12.67V15h2.34V12.67Zm1.75,1.75H19.49V13.25h1.16Z"/>
        <path class="cls-2" d="M16.18,9.94v2.34h2.34V9.94Zm1.75,1.75H16.77V10.53h1.16Z"/>
        <path class="cls-2" d="M21.63,9.94v2.34H24V9.94Zm1.75,1.75H22.21V10.53h1.17Z"/>
      </g>
      <g>
        <path class="cls-2" d="M19,1,20.8,6.44H19.74l-.36-1.28h-1.8l-.36,1.28h-1L17.93,1Zm-.56.84s0,0,0,0,0,.05,0,.07,0,.05,0,.07a.43.43,0,0,1,0,0l-.67,2.31H19.2l-.68-2.3Z"/>
        <path class="cls-2" d="M21.29,1H24v.75H22.27V3.31h1.6v.75h-1.6V6.44h-1Z"/>
      </g>
    </g>
  </g>
</svg>
