<svg id="レイヤー_1" data-name="レイヤー 1" xmlns="http://www.w3.org/2000/svg" width="17" height="16" viewBox="0 0 17 16">
  <defs>
    <style>
      .cls-1 {
        fill: none;
      }
    </style>
  </defs>
  <rect class="cls-1" width="17" height="16"/>
  <path d="M5,14.61a.34.34,0,0,1,.22.23.47.47,0,0,1,0,.36.49.49,0,0,1-.28.25.5.5,0,0,1-.36,0l-.29-.13A5.6,5.6,0,0,1,3.57,15a6.67,6.67,0,0,1-.87-.63,7.19,7.19,0,0,1-.92-1,5.41,5.41,0,0,1-.71-1.13,8.18,8.18,0,0,1-.41-1,6.2,6.2,0,0,1-.18-.72,3,3,0,0,1,0-.31.4.4,0,0,1,.1-.34.59.59,0,0,1,.33-.21.4.4,0,0,1,.34,0,.34.34,0,0,1,.17.28,4.74,4.74,0,0,0,.21.88,6.39,6.39,0,0,0,.36.89,4.6,4.6,0,0,0,.63,1,6.18,6.18,0,0,0,.82.86,6.94,6.94,0,0,0,.77.56c.24.14.43.24.58.31Zm2-1.07a.39.39,0,0,1,.28.17.38.38,0,0,1,0,.33.68.68,0,0,1-.25.31.47.47,0,0,1-.36.09l-.39-.07a4.88,4.88,0,0,1-.89-.3,8.39,8.39,0,0,1-1.14-.63,4.81,4.81,0,0,1-1.13-1.09A4.76,4.76,0,0,1,2.35,11,7.78,7.78,0,0,1,2,9.73a4,4,0,0,1-.06-.93c0-.25,0-.38,0-.4a.62.62,0,0,1,.19-.33.57.57,0,0,1,.33-.16A.42.42,0,0,1,2.81,8a.35.35,0,0,1,.09.31A6.35,6.35,0,0,0,3,9.45a6.14,6.14,0,0,0,.29,1.09,4.6,4.6,0,0,0,.67,1.19,4.16,4.16,0,0,0,1,.94,7.16,7.16,0,0,0,1,.54,3.81,3.81,0,0,0,.76.26ZM4.46,9.19H3.94V8.65h.52ZM4.51,8H4V7.44h.52Zm-.3,1.9h.51v.51H4.21ZM4.78,7H4.26V6.47h.52Zm0,3.69h.5v.51h-.5ZM5.38,6H4.86V5.52h.52Zm6.86.72h-.45a2.67,2.67,0,0,1,.1.63h.35V8h-.38a6.23,6.23,0,0,1-.15.62l.53,0v.64h-.62v.6H11s0,0,0,0v.59h-.64v.6H9.8v.62H9.16v-.55l-.3.06-.31.07v.42H8v-.4a2.53,2.53,0,0,1-.64-.09v.49H6.73v-.62H6.11v-.52L6,10.46H5.51V9.84H4.89v-.6h.45a3.41,3.41,0,0,1-.1-.64H4.89V8h.39a3.39,3.39,0,0,1,.15-.61H4.89V6.76h.62V6.17H6.1s0,0,0,0h0V5.55h.62V5h.59V4.33H8v.55a1.37,1.37,0,0,1,.29-.07l.3-.06V4.33h.61v.39a2.76,2.76,0,0,1,.64.1V4.33h.58V5H11v.52l0,0,0,0h.52v.62h.62ZM5.9,11.29v.51H5.38v-.51ZM6,5.37H5.43v-.5H6ZM6.6,4.8H6.08V4.3H6.6Zm.12,7.06v.51H6.21v-.51Zm.8-7.65H7V3.69h.52Zm-.15,7.85h.54v.52H7.37ZM8.53,4H8V3.46h.52Zm.06,8h.52v.52H8.59ZM9.75,4H9.21V3.43h.54ZM9.63,11.8h.5v.52h-.5Zm.69-10.23.39.07a4.88,4.88,0,0,1,.89.3,8.54,8.54,0,0,1,1.14.64,5,5,0,0,1,1.14,1.08A4.81,4.81,0,0,1,14.65,5,8.16,8.16,0,0,1,15,6.28a4,4,0,0,1,.06.93c0,.25,0,.38,0,.4a.62.62,0,0,1-.19.33.57.57,0,0,1-.33.16A.42.42,0,0,1,14.19,8a.35.35,0,0,1-.09-.31A6.35,6.35,0,0,0,14,6.56a6.14,6.14,0,0,0-.29-1.09,4.6,4.6,0,0,0-.67-1.19,4.16,4.16,0,0,0-1-.94,7.16,7.16,0,0,0-1-.54A5.91,5.91,0,0,0,10,2.47a.39.39,0,0,1-.27-.17.35.35,0,0,1,0-.33A.7.7,0,0,1,10,1.66.48.48,0,0,1,10.32,1.57Zm.6,2.07v.51h-.5l0-.51Zm-.39,7.55h.52v.52h-.52Zm.66-.57h.52v.52h-.52Zm.57-5.9h-.52V4.21h.52Zm0,5.25h.52v.52h-.52Zm3.46-7.36a5.41,5.41,0,0,1,.71,1.13,8.18,8.18,0,0,1,.41,1,5.82,5.82,0,0,1,.18.73c0,.19,0,.29,0,.3a.4.4,0,0,1-.1.34.59.59,0,0,1-.33.21.4.4,0,0,1-.34,0A.34.34,0,0,1,15.62,6s0-.09,0-.26a4.38,4.38,0,0,0-.17-.63,6.39,6.39,0,0,0-.36-.89,4.55,4.55,0,0,0-.63-1,6.18,6.18,0,0,0-.82-.86,6.94,6.94,0,0,0-.77-.56c-.24-.14-.43-.24-.58-.31L12,1.4a.34.34,0,0,1-.22-.23.47.47,0,0,1,.05-.36.59.59,0,0,1,.28-.26.45.45,0,0,1,.36,0l.28.13a4.93,4.93,0,0,1,.67.35,6.67,6.67,0,0,1,.87.63A7.19,7.19,0,0,1,15.22,2.61ZM12.36,5.33h-.52V4.82h.52Zm0,3.69h.52v.52h-.52Zm.57-2.87h-.52v-.5h.52Zm-.3,1.9h.52v.5h-.52Zm0-1.24h.52v.53h-.52Z"/>
</svg>
