<svg xmlns="http://www.w3.org/2000/svg" width="18.4" height="16" viewBox="0 0 18.4 16">
  <defs>
    <style>
      .cls-1 {
        fill: none;
      }
    </style>
  </defs>
  <g id="base">
    <rect class="cls-1" width="18.4" height="16"/>
  </g>
  <g id="icon">
    <g>
      <path d="M2.53,5.43H4.45L4.83,6.8H6L4.08,1H2.9L1,6.8H2.15Zm.92-3.29a.11.11,0,0,1,0-.05.22.22,0,0,1,0-.08.17.17,0,0,1,0-.07V1.89l0,.26L4.25,4.6H2.73Z"/>
      <polygon points="7.19 4.26 8.89 4.26 8.89 3.46 7.19 3.46 7.19 1.8 9.01 1.8 9.01 1 6.14 1 6.14 6.8 7.19 6.8 7.19 4.26"/>
      <polygon points="3.27 13.61 1.85 9.2 0.52 9.2 0.52 15 1.47 15 1.47 10.81 2.87 15 3.68 15 5.08 10.81 5.08 15 6.03 15 6.03 9.2 4.7 9.2 3.27 13.61"/>
      <polygon points="6.83 15 7.88 15 7.88 12.46 9.58 12.46 9.58 11.66 7.88 11.66 7.88 10 9.71 10 9.71 9.2 6.83 9.2 6.83 15"/>
      <polygon points="17.88 8 15.37 5.49 15.37 7.16 13.28 7.16 13.28 5.49 10.77 8 13.28 10.5 13.28 8.83 15.37 8.83 15.37 10.5 17.88 8"/>
    </g>
  </g>
</svg>
