<svg id="icon" xmlns="http://www.w3.org/2000/svg" width="25" height="16" viewBox="0 0 25 16">
  <defs>
    <style>
      .cls-1 {
        fill: #231815;
      }

      .cls-2 {
        fill: none;
      }
    </style>
  </defs>
  <g>
    <path class="cls-1" d="M8.15,10H3.26V1.85H10V.8H.32V11.09H8.15ZM2.63,10H1V8.15H2.63Zm0-3.15H1V5H2.63Zm0-3.15H1V1.85H2.63Z"/>
    <path class="cls-1" d="M9,8.92h3.6v1H10.22v1.62h2.24v1H10.22V15.4H9Z"/>
    <path class="cls-1" d="M13.19,9.7V8.57H14.4V9.7Zm0,5.7v-5h1.19v5Z"/>
    <path class="cls-1" d="M18,10.27a1.79,1.79,0,0,1,.75.15,1.44,1.44,0,0,1,.53.45,2.05,2.05,0,0,1,.32.7,3.42,3.42,0,0,1,.11.94V15.4H18.5V12.56a3,3,0,0,0,0-.54,1.16,1.16,0,0,0-.14-.41.6.6,0,0,0-.25-.27.74.74,0,0,0-.38-.09.93.93,0,0,0-.47.11,1,1,0,0,0-.36.3,1.51,1.51,0,0,0-.22.46,2.22,2.22,0,0,0-.07.59V15.4H15.38v-5h1.09v.75a1.71,1.71,0,0,1,.59-.63A1.83,1.83,0,0,1,18,10.27Z"/>
    <path class="cls-1" d="M22.5,10.27a2.35,2.35,0,0,1,1,.2,1.74,1.74,0,0,1,.67.56,2.36,2.36,0,0,1,.39.88,5.29,5.29,0,0,1,.12,1.18v.19H21.5a1.91,1.91,0,0,0,.13.6,1.47,1.47,0,0,0,.28.42,1.23,1.23,0,0,0,.4.23,1.51,1.51,0,0,0,.48.08,3.28,3.28,0,0,0,.46,0,3.52,3.52,0,0,0,.41-.1l.35-.13.27-.15,0,1a3.2,3.2,0,0,1-.63.24,3.55,3.55,0,0,1-.92.1,2.89,2.89,0,0,1-1.05-.18,2.14,2.14,0,0,1-.78-.52,2.45,2.45,0,0,1-.47-.82,3.42,3.42,0,0,1-.16-1.09,3.77,3.77,0,0,1,.14-1,2.5,2.5,0,0,1,.42-.83,2.1,2.1,0,0,1,.69-.56A2.18,2.18,0,0,1,22.5,10.27Zm0,.87a.85.85,0,0,0-.46.12.92.92,0,0,0-.31.31,1.59,1.59,0,0,0-.19.42,2.46,2.46,0,0,0-.09.44h2a2.3,2.3,0,0,0-.07-.42,1.6,1.6,0,0,0-.16-.42.89.89,0,0,0-.29-.32A.7.7,0,0,0,22.54,11.14Z"/>
    <path class="cls-1" d="M10.82.5h3v1H11.93V3.57h1.8v1h-1.8V7.73H10.82Z"/>
    <path class="cls-1" d="M17.71,3.47V.5H18.8V7.73H17.71V4.54H15.9V7.73H14.8V.5h1.1v3Z"/>
    <path class="cls-1" d="M23.73,1.42a2.81,2.81,0,0,1,.66,1.1,5.49,5.49,0,0,1,.2,1.59,5.32,5.32,0,0,1-.2,1.58,3.11,3.11,0,0,1-.26.6,2.67,2.67,0,0,1-.4.55,3.46,3.46,0,0,1-.45.42,2.87,2.87,0,0,1-.48.28,2.39,2.39,0,0,1-.54.15,3.87,3.87,0,0,1-.62,0H20.12V.5h1.52a3.07,3.07,0,0,1,1.13.22A3,3,0,0,1,23.73,1.42Zm-2.5,5.32h.41a1.74,1.74,0,0,0,.86-.2A1.58,1.58,0,0,0,23.06,6a2.26,2.26,0,0,0,.29-.83,5.6,5.6,0,0,0,.09-1A5.06,5.06,0,0,0,23.34,3,2.42,2.42,0,0,0,23,2.22a1.58,1.58,0,0,0-.56-.53,1.78,1.78,0,0,0-.83-.19h-.41Z"/>
  </g>
  <rect class="cls-2" width="25" height="16"/>
</svg>
