<svg xmlns="http://www.w3.org/2000/svg" width="17" height="16" viewBox="0 0 17 16">
  <defs>
    <style>
      .cls-1 {
        fill: none;
      }

      .cls-2 {
        fill: blue;
      }
    </style>
  </defs>
  <g id="frame">
    <rect class="cls-1" width="17" height="16"/>
  </g>
  <g id="_b">
    <path class="cls-2" d="M4,.68a2.23,2.23,0,0,1,.73.49,2.4,2.4,0,0,1,.49.73,2.09,2.09,0,0,1,.19.89v2a2.22,2.22,0,0,1-.19.91,2.55,2.55,0,0,1-.49.72A2.34,2.34,0,0,1,4,6.89a2.23,2.23,0,0,1-.88.18H3a2.25,2.25,0,0,1-.89-.18,2.55,2.55,0,0,1-.72-.49A2.55,2.55,0,0,1,.9,5.68a2.22,2.22,0,0,1-.19-.91v-2A2,2,0,0,1,.85,1.9,2.29,2.29,0,0,1,2.06.68,2.19,2.19,0,0,1,3,.5h.13A2.15,2.15,0,0,1,4,.68Zm0,0a2.23,2.23,0,0,1,.73.49,2.4,2.4,0,0,1,.49.73,2.09,2.09,0,0,1,.19.89v2a2.22,2.22,0,0,1-.19.91,2.55,2.55,0,0,1-.49.72A2.34,2.34,0,0,1,4,6.89a2.23,2.23,0,0,1-.88.18H3a2.25,2.25,0,0,1-.89-.18,2.55,2.55,0,0,1-.72-.49A2.55,2.55,0,0,1,.9,5.68a2.22,2.22,0,0,1-.19-.91v-2A2,2,0,0,1,.85,1.9,2.29,2.29,0,0,1,2.06.68,2.19,2.19,0,0,1,3,.5h.13A2.15,2.15,0,0,1,4,.68ZM4.62,5,3.49,3.85,4.61,2.73,2.84.94V3.18L2,2.34l-.39.39L2.72,3.85,1.6,4.94l.4.39.85-.85V6.56Zm0,0L3.49,3.85,4.61,2.73,2.84.94V3.18L2,2.34l-.39.39L2.72,3.85,1.6,4.94l.4.39.85-.85V6.56Zm7.63,5L7.4,14.75a2.45,2.45,0,0,1-.85.57,2.64,2.64,0,0,1-1,.18,2.85,2.85,0,0,1-1-.18,2.06,2.06,0,0,1-.83-.57l-.35-.32a2.57,2.57,0,0,1-.56-.85,2.64,2.64,0,0,1-.18-1,2.85,2.85,0,0,1,.18-1,2.38,2.38,0,0,1,.56-.84L8.3,6a.22.22,0,0,1,.18-.1.26.26,0,0,1,.19.1l3.58,3.59a.24.24,0,0,1,0,.32Zm0-.36a.24.24,0,0,1,0,.34l0,0L7.4,14.75a2.45,2.45,0,0,1-.85.57,2.64,2.64,0,0,1-1,.18,2.85,2.85,0,0,1-1-.18,2.06,2.06,0,0,1-.83-.57l-.35-.32a2.57,2.57,0,0,1-.56-.85,2.64,2.64,0,0,1-.18-1,2.85,2.85,0,0,1,.18-1,2.38,2.38,0,0,1,.56-.84L8.3,6a.22.22,0,0,1,.18-.1.26.26,0,0,1,.19.1,8.73,8.73,0,0,0,.68.92,11,11,0,0,0,.87.94c.32.31.65.61,1,.91a11.14,11.14,0,0,0,1,.78ZM3.84,2.73l-.47.45V2.26Zm0,0-.47.45V2.26ZM3.37,4.48l.46.46-.46.42Zm0,0,.46.46-.46.42Zm4.68,7.18a1.51,1.51,0,0,0,1.08-.43,1.41,1.41,0,0,0,.43-1.06,1.51,1.51,0,0,0-.43-1.08,1.46,1.46,0,0,0-1.08-.45A1.43,1.43,0,0,0,7,9.09a1.48,1.48,0,0,0-.44,1.08A1.42,1.42,0,0,0,7,11.23,1.48,1.48,0,0,0,8.05,11.66Zm0,0a1.51,1.51,0,0,0,1.08-.43,1.41,1.41,0,0,0,.43-1.06,1.51,1.51,0,0,0-.43-1.08,1.46,1.46,0,0,0-1.08-.45A1.43,1.43,0,0,0,7,9.09a1.48,1.48,0,0,0-.44,1.08A1.42,1.42,0,0,0,7,11.23,1.48,1.48,0,0,0,8.05,11.66ZM12.7,7.13a2.34,2.34,0,0,0-.6-1,2.11,2.11,0,0,0-1-.6l-.25.86a1.29,1.29,0,0,1,.63.36,1.32,1.32,0,0,1,.36.64Zm0,0a2.34,2.34,0,0,0-.6-1,2.11,2.11,0,0,0-1-.6l-.25.86a1.29,1.29,0,0,1,.63.36,1.32,1.32,0,0,1,.36.64Zm1.82-.49a4,4,0,0,0-1.09-1.87,4.09,4.09,0,0,0-1.85-1.08l-.26.87a3.32,3.32,0,0,1,1.49.85,3.23,3.23,0,0,1,.85,1.46Zm0,0a4,4,0,0,0-1.09-1.87,4.09,4.09,0,0,0-1.85-1.08l-.26.87a3.32,3.32,0,0,1,1.49.85,3.23,3.23,0,0,1,.85,1.46Zm1.82-.5a6.1,6.1,0,0,0-1.57-2.7,5.9,5.9,0,0,0-2.69-1.56l-.26.86a5.09,5.09,0,0,1,2.31,1.34,5,5,0,0,1,1.33,2.29Zm0,0a6.1,6.1,0,0,0-1.57-2.7,5.9,5.9,0,0,0-2.69-1.56l-.26.86a5.09,5.09,0,0,1,2.31,1.34,5,5,0,0,1,1.33,2.29Z"/>
  </g>
</svg>
