<svg id="レイヤー_1" data-name="レイヤー 1" xmlns="http://www.w3.org/2000/svg" width="56" height="16" viewBox="0 0 56 16">
  <defs>
    <style>
      .cls-1 {
        fill: none;
      }
    </style>
  </defs>
  <title>icon_servo-af</title>
  <path d="M8.85,11.12a4.63,4.63,0,0,1-.38,1.94,3.77,3.77,0,0,1-1,1.36,4.44,4.44,0,0,1-1.55.81A6.67,6.67,0,0,1,4,15.5a6.58,6.58,0,0,1-3.32-.65l0.14-2.37a5.71,5.71,0,0,0,.51.28,6.1,6.1,0,0,0,.72.3,6.86,6.86,0,0,0,.87.24,5,5,0,0,0,1,.1,2.84,2.84,0,0,0,.84-0.12,1.89,1.89,0,0,0,1.2-1,2.24,2.24,0,0,0,.18-1A2,2,0,0,0,6,10.58,1.57,1.57,0,0,0,5.63,10,3.5,3.5,0,0,0,5,9.55C4.8,9.4,4.52,9.23,4.21,9.06L2.85,8.3A5.08,5.08,0,0,1,1.11,6.79,4,4,0,0,1,.47,4.46,3.83,3.83,0,0,1,.84,2.74a3.59,3.59,0,0,1,1-1.24A4.41,4.41,0,0,1,3.29.75,6,6,0,0,1,5,.5,7.75,7.75,0,0,1,7,.71Q7.79,0.92,8.1,1L8,3.26C7.66,3.13,7.27,3,6.84,2.85a5.07,5.07,0,0,0-1.59-.22,2.12,2.12,0,0,0-1.5.48,1.61,1.61,0,0,0-.51,1.23,1.75,1.75,0,0,0,.13.72,1.9,1.9,0,0,0,.34.52A2.15,2.15,0,0,0,4.19,6L4.78,6.32,6.33,7.19a10.66,10.66,0,0,1,1.11.73,3.55,3.55,0,0,1,.79.83,3.42,3.42,0,0,1,.47,1A5,5,0,0,1,8.85,11.12Zm5.22,2h5.2v2.11H11.4V0.73h7.67V2.84h-5V6.72h4.71V8.86H14.07v4.29ZM29.38,9.74l1.9,5.54H28.43L27,10.56a2.14,2.14,0,0,0-.79-1.21A2.27,2.27,0,0,0,25,9H24.38v6.25H21.69V0.71h4.56A6.45,6.45,0,0,1,28,.94a3.76,3.76,0,0,1,1.38.7,3.12,3.12,0,0,1,.89,1.2,4.37,4.37,0,0,1,.31,1.74,3.84,3.84,0,0,1-.21,1.3,3.22,3.22,0,0,1-.58,1,3.09,3.09,0,0,1-.9.72A3.71,3.71,0,0,1,27.78,8V8a2.33,2.33,0,0,1,.42.11,1.4,1.4,0,0,1,.42.26,2.15,2.15,0,0,1,.4.5A4.29,4.29,0,0,1,29.38,9.74ZM27.84,4.85a2.86,2.86,0,0,0-.16-1,1.44,1.44,0,0,0-.46-0.64,1.77,1.77,0,0,0-.75-0.32,5.36,5.36,0,0,0-1-.09H24.38v4.3h1.08a2.59,2.59,0,0,0,1.72-.55A2.06,2.06,0,0,0,27.84,4.85ZM37.42,12l3-11.25H43.2L38.76,15.27H35.93L31.55,0.71h2.86l3,11.25h0.05ZM55.53,8A10.55,10.55,0,0,1,55,11.4a6.71,6.71,0,0,1-1.29,2.32,5.05,5.05,0,0,1-1.85,1.34,5.7,5.7,0,0,1-4.37,0,5.13,5.13,0,0,1-1.86-1.34,6.63,6.63,0,0,1-1.29-2.32A10.55,10.55,0,0,1,43.9,8a10.57,10.57,0,0,1,.48-3.38,6.72,6.72,0,0,1,1.29-2.34A5.09,5.09,0,0,1,47.54.94a5.7,5.7,0,0,1,4.37,0,5,5,0,0,1,1.85,1.35A6.8,6.8,0,0,1,55,4.63,10.57,10.57,0,0,1,55.53,8ZM52.77,8a11.77,11.77,0,0,0-.24-2.55,5.21,5.21,0,0,0-.66-1.69,2.61,2.61,0,0,0-1-.93,2.51,2.51,0,0,0-3.35.93,5.38,5.38,0,0,0-.65,1.69A11.78,11.78,0,0,0,46.66,8a11.76,11.76,0,0,0,.24,2.55,5.35,5.35,0,0,0,.65,1.69,2.55,2.55,0,0,0,3.35.94,2.6,2.6,0,0,0,1-.94,5.18,5.18,0,0,0,.66-1.69A11.75,11.75,0,0,0,52.77,8Z"/>
  <rect class="cls-1" width="56" height="16"/>
</svg>
