<?xml version="1.0" encoding="utf-8"?>
<!-- Generator: Adobe Illustrator 23.0.3, SVG Export Plug-In . SVG Version: 6.00 Build 0)  -->
<svg version="1.1" id="レイヤー_1" xmlns="http://www.w3.org/2000/svg" xmlns:xlink="http://www.w3.org/1999/xlink" x="0px"
	 y="0px" width="39.7px" height="16.4px" viewBox="0 0 39.7 16.4" style="enable-background:new 0 0 39.7 16.4;"
	 xml:space="preserve">
<style type="text/css">
	.st0{fill:#0000FF;}
	.st1{fill:none;}
</style>
<g>
	<path class="st0" d="M9.8,15.8H7.5l-1.8-5.2C5.5,9.9,5.2,9.5,5,9.4S4.5,9.3,4,9.3H3.1v6.5h-2V0.7h3c1.4,0,2.5,0.2,3.2,0.7
		c1,0.7,1.5,1.8,1.5,3.5c0,0.8-0.2,1.6-0.6,2.2C7.8,7.6,7.3,8,6.7,8.3C7,8.5,7.3,9,7.5,9.7L9.8,15.8z M6.7,4.9c0-1.3-0.7-2-2.1-2
		H3.1v4h1.2c0.8,0,1.3-0.2,1.7-0.5C6.5,6.1,6.7,5.6,6.7,4.9z M22.4,15.8h-2.2L19,12h-5.4l-1.2,3.7h-2.1l5.1-15.1h2L22.4,15.8z
		 M18.4,9.9l-2-6.5l-2.1,6.5H18.4z M30.3,3h-3.6v12.8h-2V3h-3.6V0.7h9.2V3z M38.6,15.8h-6.9V0.7h6.9V3h-4.8v3.9h4.4v2.2h-4.4v4.4
		h4.8V15.8z"/>
</g>
<rect y="0" class="st1" width="39.7" height="16.4"/>
</svg>
