<svg id="レイヤー_1" data-name="レイヤー 1" xmlns="http://www.w3.org/2000/svg" width="33" height="16" viewBox="0 0 33 16">
  <defs>
    <style>
      .cls-1 {
        fill: none;
      }
    </style>
  </defs>
  <title>icon_pic-style-l</title>
  <rect class="cls-1" width="33" height="16"/>
  <path d="M32.16,0.5v15H0.84V0.5H32.16ZM2,1.62V14.4H31V1.62H2Zm8.17,7.67-5.71,1.9L2.8,8.85,8.16,7.23Zm-6,0L4.45,9.81l0.28,0.41L5.47,10l1-.33,1.11-.36,1.09-.36L8.23,8.47,7.92,8.15l-0.69.21-1,.29L5.15,9Zm6.42-4.13L6.86,4l-2,1.21L8.63,6.51ZM11,9.56L10.7,13.1h4.66L15,9.56H11Zm3.58-4.64-0.2-2H11.66l-0.21,2h3.17Zm2.83,1.6,3.79-1.26L19.22,4,15.56,5.16ZM16.23,9.22L21.61,11,23,8.92,18,7.39Zm7.49,4.38h5.71V12.21H25.18V2.65H23.73V13.6Z"/>
</svg>
