<svg xmlns="http://www.w3.org/2000/svg" width="24" height="16" viewBox="0 0 24 16">
  <defs>
    <style>
      .cls-1 {
        fill: none;
      }
    </style>
  </defs>
  <g id="base">
    <rect class="cls-1" width="24" height="16"/>
  </g>
  <g id="icon">
    <g>
      <polygon points="23.79 10.36 21.66 8.23 21.66 9.78 19.14 9.78 19.14 7.26 20.69 7.26 18.55 5.13 16.42 7.26 17.97 7.26 17.97 9.78 15.45 9.78 15.45 8.23 13.31 10.36 15.45 12.5 15.45 10.95 17.97 10.95 17.97 13.47 16.42 13.47 18.55 15.6 20.69 13.47 19.14 13.47 19.14 10.95 21.66 10.95 21.66 12.5 23.79 10.36"/>
      <g>
        <path d="M12.79,8.6a1.6,1.6,0,0,0,.36.58l.09.07,1.44-1.43a1,1,0,0,1,0-.17,9.55,9.55,0,0,0,.07-1.26,9.77,9.77,0,0,0-.07-1.28,4.27,4.27,0,0,0-.23-1,1.55,1.55,0,0,0-.36-.57.71.71,0,0,0-1,0,1.55,1.55,0,0,0-.36.57,4.17,4.17,0,0,0-.22,1,9.63,9.63,0,0,0-.08,1.28,9.43,9.43,0,0,0,.08,1.26A4.17,4.17,0,0,0,12.79,8.6Z"/>
        <path d="M12.72,11a.83.83,0,0,1-.23-.69,2.57,2.57,0,0,1-.63-.74,4.76,4.76,0,0,1-.47-1.34,8.85,8.85,0,0,1-.16-1.8,8.89,8.89,0,0,1,.16-1.81,4.76,4.76,0,0,1,.47-1.34,2.31,2.31,0,0,1,.76-.84,1.92,1.92,0,0,1,2,0,2.23,2.23,0,0,1,.76.84,4.76,4.76,0,0,1,.47,1.34A8.89,8.89,0,0,1,16,6.39v.06l.38-.38V2.24h1.35l.67,2.06a.84.84,0,0,1,.71.23l.49.5V2.24h1.08V6.11l.56.56V2A1.4,1.4,0,0,0,19.86.6h-18A1.4,1.4,0,0,0,.41,2v8.8a1.4,1.4,0,0,0,1.42,1.38h12.1ZM9,3.53H7.15V5.69H8.86V7H7.15v3.56H4.62L4.24,8.62H2.44l-.39,1.92H.75l1.93-8.3H4l1.93,8.29V2.24H9ZM11,7H9.15V5.81H11Z"/>
        <polygon points="2.68 7.29 3.34 4.13 4 7.29 2.68 7.29"/>
      </g>
    </g>
  </g>
</svg>
