<svg id="レイヤー_1" data-name="レイヤー 1" xmlns="http://www.w3.org/2000/svg" width="40" height="16" viewBox="0 0 40 16">
  <defs>
    <style>
      .cls-1 {
        fill: none;
      }
    </style>
  </defs>
  <title>icon_auto</title>
  <g>
    <path d="M0.78,15.36L4.11,0.64H6.43L9.7,15.36H7.58L7,12.21H3.54L3,15.36H0.78ZM4,10H6.55L5.27,3.86Z"/>
    <path d="M11,0.64H13.1V9.57q0,3.07,1.6,3.5a1.58,1.58,0,0,0,1.73-.79,5.88,5.88,0,0,0,.45-2.71V0.71h2.05V9.64q0,3.36-1.22,4.71a3.25,3.25,0,0,1-2.5,1.14,3.53,3.53,0,0,1-2.76-1.14A6.86,6.86,0,0,1,11,9.64v-9Z"/>
    <path d="M20.29,3V0.64h8.15V3h-3V15.36H23.37V3H20.29Z"/>
    <path d="M29.6,8.07a10.36,10.36,0,0,1,1.28-5.29A4.11,4.11,0,0,1,34.41.5a3.9,3.9,0,0,1,3.47,2.14,10.64,10.64,0,0,1,1.35,5.5,9.68,9.68,0,0,1-1.41,5.43,3.92,3.92,0,0,1-3.4,1.93,4,4,0,0,1-3.47-2.07A9.66,9.66,0,0,1,29.6,8.07Zm2.25-.71a10.15,10.15,0,0,0,.71,4.79,2,2,0,0,0,1.86,1.36,1.91,1.91,0,0,0,1.67-1.07A7.61,7.61,0,0,0,37,8.79a11.16,11.16,0,0,0-.58-4.43q-0.77-1.78-1.86-1.79a2.18,2.18,0,0,0-2,1.43A8.46,8.46,0,0,0,31.84,7.36Z"/>
  </g>
  <rect class="cls-1" width="40" height="16"/>
</svg>
