<svg id="レイヤー_1" data-name="レイヤー 1" xmlns="http://www.w3.org/2000/svg" width="52" height="16" viewBox="0 0 52 16">
  <defs>
    <style>
      .cls-1 {
        fill: #040000;
      }

      .cls-2 {
        fill: none;
      }
    </style>
  </defs>
  <title>icon_hdr-pq</title>
  <g>
    <path class="cls-1" d="M24.51,4.39H23.76V7.3h0.75A1.46,1.46,0,1,0,24.51,4.39Z"/>
    <path class="cls-1" d="M14.69,4.27H14.43v7.58h0.27a3.64,3.64,0,0,0,3.63-3.63V7.89A3.64,3.64,0,0,0,14.69,4.27Z"/>
    <path class="cls-1" d="M36.43,4.39H35.69V7.3h0.75A1.46,1.46,0,1,0,36.43,4.39Z"/>
    <path class="cls-1" d="M49,0.5H3A2.37,2.37,0,0,0,.61,2.86V13.14A2.37,2.37,0,0,0,3,15.5H47.4l-1.64-2.13a3.91,3.91,0,0,1-.65.06,4.55,4.55,0,0,1-4.31-4.72V7.29A4.55,4.55,0,0,1,45.1,2.57a4.55,4.55,0,0,1,4.31,4.72V8.71a4.81,4.81,0,0,1-2.3,4.17l2,2.61a2.36,2.36,0,0,0,2.26-2.35V2.86A2.37,2.37,0,0,0,49,.5ZM10.17,7.06v6.44h-2V9.06h-3v4.43h-2V2.63h2V7.06h3V2.63h2V7.06Zm10,1.24a5.21,5.21,0,0,1-5.2,5.2h-2.6V2.63H15a5.21,5.21,0,0,1,5.2,5.2V8.3Zm6.73,5.2L25.07,9.06H23.76v4.43h-2V2.63h3.31a3.27,3.27,0,0,1,3.31,3.22,3.2,3.2,0,0,1-1.51,2.69l2.1,5h-2ZM37,9.06h-1.3v4.43h-2V2.63H37a3.27,3.27,0,0,1,3.31,3.22A3.27,3.27,0,0,1,37,9.06Z"/>
    <path class="cls-1" d="M47.23,7.29c0-1.82-1-3.31-2.13-3.31S43,5.47,43,7.29V8.71c0,1.82,1,3.31,2.13,3.31s2.13-1.49,2.13-3.31V7.29Z"/>
  </g>
  <rect class="cls-2" width="52" height="16"/>
</svg>
