<svg id="icon" xmlns="http://www.w3.org/2000/svg" width="31" height="16" viewBox="0 0 31 16">
  <defs>
    <style>
      .cls-1 {
        fill: none;
      }
    </style>
  </defs>
  <g>
    <rect x="20.5" y="12.42" width="10" height="1.25"/>
    <rect x="23.5" y="2.42" width="4" height="1.25"/>
    <polygon points="30.37 6.98 27.5 6.98 27.5 4.92 23.5 4.92 23.5 6.98 20.65 6.98 25.51 11.83 30.37 6.98"/>
    <g>
      <path d="M.5.5V10.81H13.76V.5ZM12.34,9.41H1.92V1.91H12.34Z"/>
      <polygon points="14.71 3.31 14.71 11.75 3.34 11.75 3.34 13.16 16.13 13.16 16.13 3.31 14.71 3.31"/>
      <polygon points="17.08 6.13 17.08 14.09 6.18 14.09 6.18 15.5 18.5 15.5 18.5 6.13 17.08 6.13"/>
    </g>
  </g>
  <rect class="cls-1" width="31" height="16"/>
</svg>
