<?xml version="1.0" encoding="utf-8"?>
<!-- Generator: Adobe Illustrator 23.0.3, SVG Export Plug-In . SVG Version: 6.00 Build 0)  -->
<svg version="1.1" id="レイヤー_1" xmlns="http://www.w3.org/2000/svg" xmlns:xlink="http://www.w3.org/1999/xlink" x="0px"
	 y="0px" width="21px" height="16px" viewBox="0 0 21 16" style="enable-background:new 0 0 21 16;" xml:space="preserve">
<style type="text/css">
	.st0{fill:none;}
</style>
<title>icon_raw-auto-light-opt</title>
<rect class="st0" width="21" height="16"/>
<g>
	<path d="M8.4,7.9C9,8.6,9.7,8.9,10.6,8.9c0.9,0,1.6-0.3,2.3-0.9c0.6-0.6,0.9-1.4,0.9-2.3c0-0.9-0.3-1.6-0.9-2.3
		c-0.6-0.6-1.4-0.9-2.3-0.9C9.7,2.5,9,2.8,8.4,3.4C7.7,4,7.4,4.8,7.4,5.7C7.4,6.5,7.7,7.3,8.4,7.9z"/>
	<polygon points="20.1,0.5 20.1,15.5 19.2,15.5 19.2,1.5 1.9,1.5 1.9,14.5 20.1,14.5 20.1,15.5 0.9,15.5 0.9,0.5 	"/>
	<path d="M15.8,13.6H5.1v-3.1c0-0.4,0.2-0.9,0.5-1.3c0.4-0.5,1-0.8,1.7-0.8c0.3-0.1,0.8,0.1,1.5,0.6c0.4,0.3,1,0.5,1.7,0.5
		c0.6,0,1.1-0.2,1.5-0.5c0.7-0.5,1.2-0.7,1.5-0.6c0.6,0,1.2,0.3,1.7,0.8c0.4,0.5,0.6,0.9,0.6,1.3V13.6z"/>
	<path d="M8,3.1H2.4V2.4H9C8.6,2.5,8.3,2.8,8,3.1z"/>
	<path d="M7.4,3.9C7.3,4.1,7.2,4.3,7.1,4.6H2.4V3.9H7.4z"/>
	<path d="M6.9,5.7c0,0.1,0,0.3,0,0.4H2.4V5.3H7C6.9,5.5,6.9,5.6,6.9,5.7z"/>
	<path d="M7.1,6.8c0.1,0.2,0.2,0.5,0.3,0.7H2.4V6.8H7.1z"/>
	<path d="M5.1,9H2.4V8.3h3.5C5.5,8.5,5.3,8.8,5.1,9z"/>
	<path d="M4.6,10.5L4.6,10.5l-2.2,0V9.8h2.3C4.6,10.1,4.6,10.3,4.6,10.5z"/>
	<rect x="2.4" y="11.3" width="2.2" height="0.7"/>
	<rect x="2.4" y="12.9" width="2.2" height="0.7"/>
</g>
</svg>
