<?xml version="1.0" encoding="UTF-8"?>
<svg id="edge" xmlns="http://www.w3.org/2000/svg" width="19.5" height="16" version="1.1" viewBox="0 0 19.5 16">
  <!-- Generator: Adobe Illustrator 29.5.1, SVG Export Plug-In . SVG Version: 2.1.0 Build 141)  -->
  <defs>
    <style>
      .st0, .st1 {
        stroke: #fff;
        stroke-linejoin: round;
      }

      .st1 {
        stroke-linecap: round;
      }
    </style>
  </defs>
  <path class="st1" d="M6.48,8.79c.73,0,1.35.43,1.65,1.04h3.45c.59,0,1.07-.48,1.07-1.07V2.95c0-.59-.48-1.07-1.07-1.07h-2.37l-.84-1.46c-.12-.23-.36-.38-.63-.38h-2.58c-.07,0-.14.02-.21.04-.19.05-.35.18-.45.36l-.82,1.44H1.37c-.59,0-1.07.48-1.07,1.07v5.82c0,.59.48,1.07,1.07,1.07h3.46c.3-.62.92-1.04,1.65-1.04ZM3.78,5.61c0-1.49,1.21-2.7,2.7-2.7s2.7,1.21,2.7,2.7-1.21,2.7-2.7,2.7-2.7-1.21-2.7-2.7Z"/>
  <path class="st1" d="M16.09,14.25v-1.53c0-.25-.21-.46-.46-.46H6.94v-.82c.27-.16.46-.45.46-.79,0-.51-.41-.92-.92-.92s-.92.41-.92.92c0,.34.19.63.46.79v2.82c-.27.16-.46.45-.46.79,0,.51.41.92.92.92s.92-.41.92-.92c0-.34-.19-.63-.46-.79v-1.07h3.65v1.07c-.27.16-.46.45-.46.79,0,.51.41.92.92.92s.92-.41.92-.92c0-.34-.19-.63-.46-.79v-1.07h3.65v1.07c-.27.16-.46.45-.46.79,0,.51.41.92.92.92s.92-.41.92-.92c0-.34-.19-.63-.46-.79Z"/>
  <path class="st0" d="M17.72,5.75c.1.02.2.05.31.08.11.04.22.09.33.16.11.07.22.15.32.24.1.1.19.21.27.35.08.14.14.3.18.48.05.18.07.39.07.62,0,.33-.05.62-.15.89-.1.27-.25.5-.46.69-.2.19-.46.34-.77.45-.31.11-.68.16-1.09.16-.24,0-.45,0-.64-.02-.19-.01-.36-.03-.51-.06-.15-.03-.3-.06-.43-.1-.13-.04-.26-.09-.39-.15l.09-1.17c.1.05.22.11.36.16.14.05.29.09.45.13.16.04.32.07.49.09.17.02.33.03.48.03.14,0,.28-.02.43-.06.14-.04.27-.11.39-.2.11-.1.21-.22.28-.39.07-.16.11-.36.11-.61s-.04-.44-.13-.6c-.09-.16-.2-.29-.33-.38-.14-.1-.29-.16-.46-.2-.17-.04-.35-.06-.52-.06h-.69v-1.04h.74c.16,0,.31-.02.47-.05.16-.03.3-.09.43-.17.12-.09.23-.2.31-.35.08-.15.12-.34.12-.57,0-.19-.03-.36-.09-.5-.06-.14-.14-.25-.24-.34-.1-.09-.23-.16-.38-.2-.15-.04-.31-.06-.49-.06-.14,0-.28.02-.44.06-.15.04-.3.08-.45.14-.15.05-.28.11-.41.18-.12.06-.22.12-.3.17l-.07-1.16s.11-.06.22-.11c.11-.05.26-.1.43-.15.17-.05.37-.1.59-.14.22-.04.46-.06.71-.06.38,0,.71.05.99.15.28.1.52.24.71.42.19.18.33.39.43.63.1.24.14.5.14.78,0,.31-.05.58-.14.8-.09.22-.2.41-.34.55-.14.15-.29.26-.45.34-.16.08-.31.14-.46.17h-.01Z"/>
  <path d="M6.48,8.79c.73,0,1.35.43,1.65,1.04h3.45c.59,0,1.07-.48,1.07-1.07V2.95c0-.59-.48-1.07-1.07-1.07h-2.37l-.84-1.46c-.12-.23-.36-.38-.63-.38h-2.58c-.07,0-.14.02-.21.04-.19.05-.35.18-.45.36l-.82,1.44H1.37c-.59,0-1.07.48-1.07,1.07v5.82c0,.59.48,1.07,1.07,1.07h3.46c.3-.62.92-1.04,1.65-1.04ZM3.78,5.61c0-1.49,1.21-2.7,2.7-2.7s2.7,1.21,2.7,2.7-1.21,2.7-2.7,2.7-2.7-1.21-2.7-2.7Z"/>
  <path d="M16.09,14.25v-1.53c0-.25-.21-.46-.46-.46H6.94v-.82c.27-.16.46-.45.46-.79,0-.51-.41-.92-.92-.92s-.92.41-.92.92c0,.34.19.63.46.79v2.82c-.27.16-.46.45-.46.79,0,.51.41.92.92.92s.92-.41.92-.92c0-.34-.19-.63-.46-.79v-1.07h3.65v1.07c-.27.16-.46.45-.46.79,0,.51.41.92.92.92s.92-.41.92-.92c0-.34-.19-.63-.46-.79v-1.07h3.65v1.07c-.27.16-.46.45-.46.79,0,.51.41.92.92.92s.92-.41.92-.92c0-.34-.19-.63-.46-.79Z"/>
  <path d="M17.72,5.75c.1.02.2.05.31.08.11.04.22.09.33.16.11.07.22.15.32.24.1.1.19.21.27.35.08.14.14.3.18.48.05.18.07.39.07.62,0,.33-.05.62-.15.89-.1.27-.25.5-.46.69-.2.19-.46.34-.77.45-.31.11-.68.16-1.09.16-.24,0-.45,0-.64-.02-.19-.01-.36-.03-.51-.06-.15-.03-.3-.06-.43-.1-.13-.04-.26-.09-.39-.15l.09-1.17c.1.05.22.11.36.16.14.05.29.09.45.13.16.04.32.07.49.09.17.02.33.03.48.03.14,0,.28-.02.43-.06.14-.04.27-.11.39-.2.11-.1.21-.22.28-.39.07-.16.11-.36.11-.61s-.04-.44-.13-.6c-.09-.16-.2-.29-.33-.38-.14-.1-.29-.16-.46-.2-.17-.04-.35-.06-.52-.06h-.69v-1.04h.74c.16,0,.31-.02.47-.05.16-.03.3-.09.43-.17.12-.09.23-.2.31-.35.08-.15.12-.34.12-.57,0-.19-.03-.36-.09-.5-.06-.14-.14-.25-.24-.34-.1-.09-.23-.16-.38-.2-.15-.04-.31-.06-.49-.06-.14,0-.28.02-.44.06-.15.04-.3.08-.45.14-.15.05-.28.11-.41.18-.12.06-.22.12-.3.17l-.07-1.16s.11-.06.22-.11c.11-.05.26-.1.43-.15.17-.05.37-.1.59-.14.22-.04.46-.06.71-.06.38,0,.71.05.99.15.28.1.52.24.71.42.19.18.33.39.43.63.1.24.14.5.14.78,0,.31-.05.58-.14.8-.09.22-.2.41-.34.55-.14.15-.29.26-.45.34-.16.08-.31.14-.46.17h-.01Z"/>
</svg>