<svg id="レイヤー_1" data-name="レイヤー 1" xmlns="http://www.w3.org/2000/svg" width="38" height="16" viewBox="0 0 38 16">
  <defs>
    <style>
      .cls-1 {
        fill: none;
      }
    </style>
  </defs>
  <title>icon_input-mode2</title>
  <g>
    <path d="M35.48,0.5a5.29,5.29,0,0,1-1.54,2.37,7,7,0,0,1-2.07,1.38V6.83A8.28,8.28,0,0,0,35,4.68V15.39h2.44V0.5h-2Z"/>
    <path d="M5.49,0.66l-5,14.84H3.26l1.05-3.37H9.4l1.11,3.37H13.3L8.21,0.66H5.49Zm-0.39,9,1.72-5.5,1.75,5.5H5.1Z"/>
    <polygon points="23.55 6.29 19.61 6.29 19.61 2.74 14.39 7.97 19.61 13.2 19.61 9.65 23.55 9.65 23.55 13.2 28.77 7.97 23.55 2.74 23.55 6.29"/>
  </g>
  <rect class="cls-1" width="38" height="16"/>
</svg>
