<svg id="レイヤー_1" data-name="レイヤー 1" xmlns="http://www.w3.org/2000/svg" width="52" height="16" viewBox="0 0 52 16">
  <defs>
    <style>
      .cls-1 {
        fill: none;
      }
    </style>
  </defs>
  <title>icon_multi-f-lock</title>
  <path d="M8.68,15.25H0.51V0.75H2.6V13.43H8.68v1.82ZM24.15,8a9.41,9.41,0,0,1-.47,3,6.72,6.72,0,0,1-1.36,2.37A6.1,6.1,0,0,1,20.13,15a7.55,7.55,0,0,1-3,.55,7.55,7.55,0,0,1-3-.55A6.15,6.15,0,0,1,12,13.42,6.63,6.63,0,0,1,10.65,11a9.41,9.41,0,0,1-.47-3,9.24,9.24,0,0,1,.47-3A6.82,6.82,0,0,1,12,2.64a6.25,6.25,0,0,1,2.2-1.57,7.35,7.35,0,0,1,3-.57,7.3,7.3,0,0,1,2.94.57,6.28,6.28,0,0,1,2.2,1.57A6.84,6.84,0,0,1,23.69,5,9.24,9.24,0,0,1,24.15,8ZM21.95,8a7.79,7.79,0,0,0-.29-2.14,5.35,5.35,0,0,0-.89-1.81A4.55,4.55,0,0,0,19.27,2.8a4.38,4.38,0,0,0-2.09-.48,4.43,4.43,0,0,0-2.1.48,4.52,4.52,0,0,0-1.5,1.26,5.37,5.37,0,0,0-.89,1.81A7.79,7.79,0,0,0,12.39,8a8.07,8.07,0,0,0,.27,2.11,5.42,5.42,0,0,0,.86,1.81A4.3,4.3,0,0,0,15,13.2a4.6,4.6,0,0,0,2.16.48,4.56,4.56,0,0,0,2.16-.48,4.32,4.32,0,0,0,1.48-1.27,5.42,5.42,0,0,0,.86-1.81A8.07,8.07,0,0,0,21.95,8Zm15.37,7a6.48,6.48,0,0,1-1.76.42Q34.65,15.5,34,15.5A8.81,8.81,0,0,1,30.86,15a6.87,6.87,0,0,1-2.41-1.51,6.66,6.66,0,0,1-1.56-2.39,8.56,8.56,0,0,1-.55-3.14,7.79,7.79,0,0,1,.58-3,6.88,6.88,0,0,1,1.6-2.35A7.07,7.07,0,0,1,31,1,8.69,8.69,0,0,1,34,.5a10.22,10.22,0,0,1,1.66.13,6.52,6.52,0,0,1,1.61.49l-0.18,2a6,6,0,0,0-5.27-.38,5.15,5.15,0,0,0-2.9,3A6.28,6.28,0,0,0,28.55,8,6,6,0,0,0,29,10.33a5.43,5.43,0,0,0,1.17,1.79,5.24,5.24,0,0,0,1.74,1.15,5.6,5.6,0,0,0,2.13.41q0.39,0,.83,0a6.83,6.83,0,0,0,.87-0.14,7.66,7.66,0,0,0,.8-0.23A4.17,4.17,0,0,0,37.19,13Zm14.17,0.26h-3L42,8.15v7.1H39.9V0.75H42V7.13l6.2-6.38H51L44.12,7.62Z"/>
  <rect class="cls-1" width="52" height="16"/>
</svg>
