<svg id="レイヤー_1" data-name="レイヤー 1" xmlns="http://www.w3.org/2000/svg" width="19" height="16" viewBox="0 0 19 16">
  <defs>
    <style>
      .cls-1 {
        fill: none;
      }
    </style>
  </defs>
  <title>icon_horizontal-only</title>
  <path d="M16.81,2.89H13.42L11.94,0.5H7L5.59,2.89H2.39A1.34,1.34,0,0,0,.95,4.1V14.29A1.34,1.34,0,0,0,2.39,15.5H16.61a1.34,1.34,0,0,0,1.44-1.21V4.1A1.29,1.29,0,0,0,16.81,2.89Zm-4.88,8.17H2.17V4.54h9.76v6.51ZM14,6.15a1.21,1.21,0,1,1,1.21-1.21A1.21,1.21,0,0,1,14,6.15Z"/>
  <rect class="cls-1" width="19" height="16"/>
</svg>
