<svg id="レイヤー_1" data-name="レイヤー 1" xmlns="http://www.w3.org/2000/svg" width="20" height="20.01" viewBox="0 0 20 20.01">
  <defs>
    <style>
      .cls-1 {
        fill: #fff;
      }

      .cls-2 {
        fill: none;
      }
    </style>
  </defs>
  <title>icon_search</title>
  <path class="cls-1" d="M12.6,0A7.45,7.45,0,0,0,5.2,7.4a7.29,7.29,0,0,0,1.5,4.4L0.4,18.1a1.09,1.09,0,0,0,0,1.5,0.67,0.67,0,0,0,.7.4,0.78,0.78,0,0,0,.7-0.3l6.3-6.3a7.53,7.53,0,0,0,4.4,1.5,7.45,7.45,0,0,0,7.4-7.4A7.32,7.32,0,0,0,12.76,0H12.6Zm0,12.7a5.3,5.3,0,1,1,5.3-5.3,5.3,5.3,0,0,1-5.3,5.3h0Z"/>
  <rect class="cls-2" width="20" height="20"/>
</svg>
