<svg id="レイヤー_1" data-name="レイヤー 1" xmlns="http://www.w3.org/2000/svg" width="13" height="16" viewBox="0 0 13 16">
  <defs>
    <style>
      .cls-1 {
        fill: none;
      }
    </style>
  </defs>
  <title>icon_erase</title>
  <path d="M11.11,1a0.19,0.19,0,0,1,0,.17,0.26,0.26,0,0,1-.14.11L0.89,4A0.19,0.19,0,0,1,.73,4,0.24,0.24,0,0,1,.62,3.89L0.52,3.53A0.22,0.22,0,0,1,.68,3.24l4.2-1.16L4.66,1.2a0.3,0.3,0,0,1,0-.26A0.3,0.3,0,0,1,4.88.8l1-.27a0.38,0.38,0,0,1,.26,0,0.29,0.29,0,0,1,.16.2L6.52,1.65l4.22-1.14a0.17,0.17,0,0,1,.16,0A0.28,0.28,0,0,1,11,.68ZM12.49,5.7l-0.85,9.12a0.66,0.66,0,0,1-.2.48,0.65,0.65,0,0,1-.48.19H4.3a0.66,0.66,0,0,1-.67-0.68L2.75,5.7a0.67,0.67,0,0,1,.2-0.49A0.64,0.64,0,0,1,3.43,5h8.39A0.67,0.67,0,0,1,12.49,5.7ZM6,14.59L5.62,5.93h-2l0.83,8.66H6ZM8.75,5.93H6.5l0.37,8.66H8.36Zm2.82,0H9.64L9.28,14.59h1.49Z"/>
  <rect class="cls-1" width="13" height="16"/>
</svg>
