<svg xmlns="http://www.w3.org/2000/svg" width="41" height="16" viewBox="0 0 41 16">
  <defs>
    <style>
      .cls-1 {
        fill: none;
      }

      .cls-2 {
        fill: blue;
      }
    </style>
  </defs>
  <g id="frame">
    <rect class="cls-1" width="41" height="16"/>
  </g>
  <g id="_b">
    <g>
      <path class="cls-2" d="M27,.5H3.13A2.36,2.36,0,0,0,.76,2.85V13.13A2.36,2.36,0,0,0,3.11,15.5H27a2.37,2.37,0,0,0,2.37-2.37V2.87A2.37,2.37,0,0,0,27,.5ZM8.64,13.58,8,11H4.8l-.68,2.58H2.5l3-11.17H7.31l3.07,11.17Zm10.47,0h-2L15.68,4.66h0l-1.39,8.93h-2L10.17,2.42h1.65l1.45,8.93h0L14.6,2.42h2.13l1.38,8.93h0l1.46-8.93h1.52Zm5.79,0H22.16V2.42h2.73c1,0,2.52.42,2.52,2.87a2.36,2.36,0,0,1-1.55,2.49h0a2.32,2.32,0,0,1,1.79,2.55c0,2.84-1.77,3.25-2.76,3.25Z"/>
      <polygon class="cls-2" points="6.38 4.66 5.25 9.27 7.53 9.27 6.4 4.66 6.38 4.66"/>
      <polygon class="cls-2" points="37.5 11.34 37.48 11.34 36.22 2.42 34.27 2.42 33.04 11.34 33.02 11.34 31.68 2.42 30.17 2.42 32.08 13.58 33.93 13.58 35.21 4.66 35.23 4.66 36.52 13.58 38.38 13.58 40.24 2.42 38.85 2.42 37.5 11.34"/>
      <path class="cls-2" d="M24.47,8.59h-.74v3.23h.74a1.41,1.41,0,0,0,1.6-1.21,1.29,1.29,0,0,0,0-.34A1.42,1.42,0,0,0,25,8.6,1.35,1.35,0,0,0,24.47,8.59Z"/>
      <path class="cls-2" d="M25.84,5.57a1.24,1.24,0,0,0-1.51-1.39h-.6V6.93h.64a1.28,1.28,0,0,0,1.46-1A1.61,1.61,0,0,0,25.84,5.57Z"/>
    </g>
  </g>
</svg>
