<svg xmlns="http://www.w3.org/2000/svg" width="31" height="16" viewBox="0 0 31 16">
  <defs>
    <style>
      .cls-1 {
        fill: none;
      }
    </style>
  </defs>
  <g id="frame">
    <rect class="cls-1" width="31" height="16"/>
  </g>
  <g id="icon">
    <path d="M.48,1.64V.5H8a7.24,7.24,0,0,0,.59,2.91,7.55,7.55,0,0,0,1.59,2.36,7.67,7.67,0,0,0,2.38,1.6A7.24,7.24,0,0,0,15.48,8a7.28,7.28,0,0,0,2.92-.58,7.53,7.53,0,0,0,2.35-1.6,7.41,7.41,0,0,0,1.6-2.36A7.24,7.24,0,0,0,22.93.5h7.59V1.64H28a6.93,6.93,0,0,1-.1.78l-.13.78,2.38.68-.52,1.73-2.38-.68c-.11.28-.22.55-.34.82s-.24.54-.37.8L28.6,7.89l-1,1.49L25.54,8.05c-.18.24-.35.47-.54.7a7.4,7.4,0,0,1-.6.67L26,11.27l-1.36,1.17L23,10.59c-.24.17-.48.34-.73.5s-.51.32-.8.47l1,2.25-1.62.71-1-2.24c-.29.11-.57.2-.85.29s-.57.16-.88.23l.36,2.44-1.79.26-.33-2.44-.47,0H15l-.47,0-.32,2.44-1.79-.26.36-2.44c-.31-.07-.6-.14-.88-.23s-.57-.18-.85-.29l-1,2.24-1.63-.74,1-2.22c-.28-.15-.54-.31-.79-.47l-.74-.5L6.34,12.44,5,11.27,6.6,9.42C6.38,9.2,6.18,9,6,8.75s-.38-.46-.55-.7L3.35,9.38l-1-1.53L4.42,6.52c-.13-.26-.25-.52-.37-.78s-.24-.54-.35-.85l-2.37.72L.84,3.85l2.34-.68c0-.24-.08-.49-.13-.75S3,1.9,3,1.64Z"/>
  </g>
</svg>
