<svg id="レイヤー_1" data-name="レイヤー 1" xmlns="http://www.w3.org/2000/svg" width="41" height="16" viewBox="0 0 41 16">
  <defs>
    <style>
      .cls-1 {
        fill: #030000;
      }

      .cls-2 {
        fill: none;
      }
    </style>
  </defs>
  <title>icon_wb-auto-w</title>
  <g>
    <path class="cls-1" d="M27,0.5H3.13A2.36,2.36,0,0,0,.76,2.87V13.13A2.36,2.36,0,0,0,3.13,15.5H27a2.37,2.37,0,0,0,2.37-2.37V2.87A2.37,2.37,0,0,0,27,.5ZM8.64,13.58L8,11H4.8L4.12,13.58H2.5l3-11.17H7.31l3.07,11.17H8.64Zm10.47,0h-2L15.68,4.66h0l-1.39,8.93h-2L10.17,2.42h1.65l1.45,8.93h0l1.33-8.93h2.13l1.38,8.93h0l1.46-8.93h1.52Zm5.79,0H22.16V2.42h2.73c1,0,2.52.42,2.52,2.87a2.35,2.35,0,0,1-1.55,2.49v0a2.32,2.32,0,0,1,1.79,2.55C27.65,13.17,25.88,13.58,24.89,13.58Z"/>
    <polygon class="cls-1" points="6.38 4.66 5.25 9.27 7.53 9.27 6.4 4.66 6.38 4.66"/>
    <polygon class="cls-1" points="37.5 11.34 37.48 11.34 36.22 2.42 34.27 2.42 33.04 11.34 33.02 11.34 31.68 2.42 30.17 2.42 32.08 13.58 33.93 13.58 35.21 4.66 35.23 4.66 36.52 13.58 38.38 13.58 40.24 2.42 38.85 2.42 37.5 11.34"/>
    <path class="cls-1" d="M24.47,8.59H23.73v3.23h0.74a1.42,1.42,0,0,0,1.61-1.55A1.42,1.42,0,0,0,24.47,8.59Z"/>
    <path class="cls-1" d="M25.84,5.57a1.24,1.24,0,0,0-1.51-1.39h-0.6V6.93h0.64A1.27,1.27,0,0,0,25.84,5.57Z"/>
  </g>
  <rect class="cls-2" width="41" height="16"/>
</svg>
