<svg xmlns="http://www.w3.org/2000/svg" width="27" height="16" viewBox="0 0 27 16">
  <defs>
    <style>
      .cls-1 {
        fill: none;
      }
    </style>
  </defs>
  <g id="base">
    <rect id="Movie_size_RAW" class="cls-1" width="27" height="16"/>
  </g>
  <g id="icon">
    <g>
      <path d="M.81.5V11.31H4.3v-1.1H3.9V1.6h13v2H18V.5Zm2.43,9.71H1.47v-2H3.24Zm0-3.31H1.47v-2H3.24Zm0-3.31H1.47v-2H3.24Z"/>
      <path d="M9.05,10a1.25,1.25,0,0,1-.17.16l-.17.12,1.57,5.26H8.83L7.51,10.63l-.15,0H6.57V15.5H5.18v-11H7.31a3,3,0,0,1,.52,0,2.13,2.13,0,0,1,.49.15,1.6,1.6,0,0,1,.43.25,2.11,2.11,0,0,1,.37.36,2.52,2.52,0,0,1,.3.45,2.25,2.25,0,0,1,.22.51,3.94,3.94,0,0,1,.17,1.19,4.5,4.5,0,0,1-.33,1.88,2.68,2.68,0,0,1-.18.33A2.51,2.51,0,0,1,9.05,10ZM6.57,9.14h.59a1.72,1.72,0,0,0,.52-.08,1,1,0,0,0,.39-.28,1.22,1.22,0,0,0,.26-.48,2.65,2.65,0,0,0,.1-.74A1.78,1.78,0,0,0,8.1,6.39,1.16,1.16,0,0,0,7.16,6H6.57Z"/>
      <path d="M14.47,4.48,17,15.5H15.48L15,12.89H12.38l-.52,2.61H10.35l2.52-11Zm-.81,1.69s0,0,0,.1,0,.09,0,.14,0,.09,0,.14a.22.22,0,0,1,0,.09l-1,4.68H14.7l-1-4.66Z"/>
      <path d="M24.92,4.48h1.27l-1.6,11H23l-1.2-8.86c0-.09,0-.16,0-.21V6.26l-.05.38L20.49,15.5H18.85l-1.64-11h1.35l1.13,8.68,0,.21,0-.21L20.9,4.48h1.69l1.15,8.68,0,.21,0-.21Z"/>
    </g>
  </g>
</svg>
