<svg id="レイヤー_1" data-name="レイヤー 1" xmlns="http://www.w3.org/2000/svg" width="21" height="16" viewBox="0 0 21 16">
  <defs>
    <style>
      .cls-1 {
        fill: none;
      }
    </style>
  </defs>
  <title>icon_frame-unlock</title>
  <g>
    <path d="M5.35,0.5V1.1H1.18V5.27H0.58V0.5H5.35Zm0,1.58v0.6H2.76V5.27H2.16V2.08h3.2Z"/>
    <path d="M12.95,0.5h0.3V5.27h-0.6V1.1H8.48V0.5h4.47ZM11.37,2.08h0.3V5.27h-0.6V2.68H8.47V2.08h2.9Z"/>
    <path d="M0.88,13.23H0.58V8.46h0.6v4.17H5.35v0.6H0.88Zm1.58-1.58H2.16V8.46h0.6V11h2.6v0.6H2.47Z"/>
    <path d="M11.89,8.53a5.91,5.91,0,0,1,.62,3,5.91,5.91,0,0,1-.62,2.94,2,2,0,0,1-1.84,1.08,2,2,0,0,1-1.82-1.08,5.91,5.91,0,0,1-.62-2.94,6,6,0,0,1,.61-3,2,2,0,0,1,1.83-1.07A2,2,0,0,1,11.89,8.53Zm-1.33,5.2a1.62,1.62,0,0,0,.35-0.55,3.28,3.28,0,0,0,.19-0.78,7.23,7.23,0,0,0,.06-0.92,5.37,5.37,0,0,0-.25-1.76,0.86,0.86,0,0,0-1.7,0A5.4,5.4,0,0,0,9,11.48,6.9,6.9,0,0,0,9,12.4a3.19,3.19,0,0,0,.19.78,1.59,1.59,0,0,0,.35.55A0.72,0.72,0,0,0,10.56,13.73Zm5.63-6.27V8.81h-1.7v1.93h1.7v1.31h-1.7V15.5H13.25v-8h2.94Zm4.21,0V8.81H18.72v1.93h1.7v1.31h-1.7V15.5H17.46v-8H20.4Z"/>
  </g>
  <rect class="cls-1" width="21" height="16"/>
</svg>
