<svg xmlns="http://www.w3.org/2000/svg" width="27" height="16" viewBox="0 0 27 16">
  <defs>
    <style>
      .cls-1 {
        fill: none;
      }
    </style>
  </defs>
  <g id="base">
    <rect class="cls-1" width="27" height="16"/>
  </g>
  <g id="icon">
    <path d="M24.75.5H2.25A1.87,1.87,0,0,0,.38,2.38V13.62A1.87,1.87,0,0,0,2.25,15.5h22.5a1.87,1.87,0,0,0,1.87-1.88V2.38A1.87,1.87,0,0,0,24.75.5ZM9,11.72a2.4,2.4,0,0,1-.62.87,3.07,3.07,0,0,1-1,.58,3.89,3.89,0,0,1-1.32.21,7.84,7.84,0,0,1-1-.06c-.31-.05-.59-.1-.82-.16A4.54,4.54,0,0,1,3.68,13a1.54,1.54,0,0,1-.28-.13l.14-1.59a.94.94,0,0,0,.32.19,3,3,0,0,0,.56.21,5.8,5.8,0,0,0,.69.17,4.71,4.71,0,0,0,.74.06,2.2,2.2,0,0,0,.58-.07,1.23,1.23,0,0,0,.47-.24.94.94,0,0,0,.32-.39,1.26,1.26,0,0,0,.12-.57A1.64,1.64,0,0,0,7,9.6a4.38,4.38,0,0,0-1.16-1,10.88,10.88,0,0,1-1-.71A4.63,4.63,0,0,1,4,7.17a3,3,0,0,1-.48-.83,2.49,2.49,0,0,1-.17-.94,2.83,2.83,0,0,1,.23-1.14,2.52,2.52,0,0,1,.64-.87,2.88,2.88,0,0,1,1-.55,3.55,3.55,0,0,1,1.24-.2,8.7,8.7,0,0,1,.93,0,6,6,0,0,1,.72.12A3,3,0,0,1,8.57,3a1.7,1.7,0,0,1,.25.11L8.71,4.65a2.25,2.25,0,0,0-.42-.24,2.52,2.52,0,0,0-.44-.17,4.21,4.21,0,0,0-.55-.09c-.2,0-.44,0-.71,0a1.77,1.77,0,0,0-.52.07,1.07,1.07,0,0,0-.44.22,1.24,1.24,0,0,0-.3.4,1.43,1.43,0,0,0-.11.58,1.19,1.19,0,0,0,.12.54,2,2,0,0,0,.33.47,3.83,3.83,0,0,0,.51.43c.2.14.41.29.65.44s.65.45.94.67a4,4,0,0,1,.76.72,3,3,0,0,1,.69,2A2.82,2.82,0,0,1,9,11.72Zm7.5,1.49H11V2.81h5.45V4.24H12.85V7.15H16V8.59H12.85v3.19H16.5ZM24,4.3H21.7v8.91H19.81V4.3H17.5V2.81H24Z"/>
  </g>
</svg>
