<?xml version="1.0" encoding="utf-8"?>
<!-- Generator: Adobe Illustrator 21.1.0, SVG Export Plug-In . SVG Version: 6.00 Build 0)  -->
<svg version="1.1" id="レイヤー_1" xmlns="http://www.w3.org/2000/svg" xmlns:xlink="http://www.w3.org/1999/xlink" x="0px"
	 y="0px" width="26.6px" height="16px" viewBox="0 0 26.6 16" style="enable-background:new 0 0 26.6 16;" xml:space="preserve">
<style type="text/css">
	.st0{fill:none;}
</style>
<title>icon_summertime</title>
<rect class="st0" width="26.6" height="16"/>
<g>
	<path d="M16.4,4.8h-1.7h-0.1l-3.5,10.5h1.8l0.8-2.3h3.7l0.8,2.3h1.8L16.4,4.8L16.4,4.8z M14.3,11.3l1.3-3.8l1.3,3.8H14.3z"/>
	<polygon points="26,6.5 26,4.8 22.5,4.8 21.5,4.8 20.8,4.8 20.8,15.3 22.5,15.3 22.5,11.1 26,11.1 26,9.4 22.5,9.4 22.5,6.5 	"/>
	<path d="M12.2,10.5c0,0-1.2,0.4-2.5,0.4c-6.2,0-7.8-3.9-8.1-4.7c0.2-0.7,1.7-4.5,7.6-4.5c3,0,5.3,2.5,5.3,2.5l1.3,0
		C15.7,4,12.9,0.7,9.2,0.7C2.1,0.7,0.7,6,0.7,6l0,0.1l0,0.1c0,0.1,1.6,5.5,9,5.5c1.4,0,2.1-0.2,2.1-0.2L12.2,10.5z"/>
	<circle cx="9" cy="6.2" r="3.6"/>
</g>
</svg>
