<svg id="レイヤー_1" data-name="レイヤー 1" xmlns="http://www.w3.org/2000/svg" width="16" height="16" viewBox="0 0 16 16">
  <defs>
    <style>
      .cls-1 {
        fill: blue;
      }

      .cls-2 {
        fill: none;
      }
    </style>
  </defs>
  <title>icon_panel-illum_b</title>
  <path class="cls-1" d="M2.47,8.47a0.48,0.48,0,0,1,.34.14A0.45,0.45,0,0,1,3,9a0.46,0.46,0,0,1-.11.3,0.47,0.47,0,0,1-.29.17l-1.42.26H1A0.47,0.47,0,0,1,.7,9.54,0.45,0.45,0,0,1,.57,9.21,0.48,0.48,0,0,1,.68,8.9,0.46,0.46,0,0,1,1,8.73l1.42-.24H2.47Zm1.15-3.3a0.47,0.47,0,0,1-.13.34,0.46,0.46,0,0,1-.35.14,0.45,0.45,0,0,1-.24-0.07L1.65,4.87a0.49,0.49,0,0,1-.11-0.76A0.44,0.44,0,0,1,1.88,4,0.41,0.41,0,0,1,2.12,4L3.37,4.75A0.47,0.47,0,0,1,3.61,5.17Zm0.77,6.63a0.47,0.47,0,0,1,.35.13,0.47,0.47,0,0,1,.13.35,0.46,0.46,0,0,1-.11.29l-0.93,1.1a0.47,0.47,0,0,1-.71,0A0.48,0.48,0,0,1,3,13.38a0.49,0.49,0,0,1,.12-0.32L4,12A0.44,0.44,0,0,1,4.38,11.81Zm6-7V0.5H5.6V4.78A3.91,3.91,0,0,0,4.42,6.19,4,4,0,0,0,8,12a3.91,3.91,0,0,0,1.55-.31,4,4,0,0,0,1.27-.85,4.06,4.06,0,0,0,.86-1.27A3.88,3.88,0,0,0,12,8a4,4,0,0,0-.41-1.79A3.92,3.92,0,0,0,10.4,4.78ZM10.79,8a2.73,2.73,0,0,1-.22,1.08A2.77,2.77,0,0,1,10,10a2.81,2.81,0,0,1-.89.6,2.83,2.83,0,0,1-2.18,0A2.85,2.85,0,0,1,6,10a2.82,2.82,0,0,1-.6-0.89A2.79,2.79,0,0,1,6,6a2.92,2.92,0,0,1,.89-0.6,2.83,2.83,0,0,1,2.18,0,2.76,2.76,0,0,1,1.48,1.49A2.73,2.73,0,0,1,10.79,8V8ZM6.63,1.71H9.37V4.22a4,4,0,0,0-2.74,0V1.71Zm1,11.53A0.46,0.46,0,0,1,8,13.1a0.48,0.48,0,0,1,.34.14,0.46,0.46,0,0,1,.14.35V15a0.46,0.46,0,0,1-.14.35A0.48,0.48,0,0,1,8,15.5,0.46,0.46,0,0,1,7.52,15V13.59A0.47,0.47,0,0,1,7.65,13.24Zm3.48-.95a0.47,0.47,0,0,1,.14-0.35,0.45,0.45,0,0,1,.33-0.13A0.46,0.46,0,0,1,12,12l0.92,1.09a0.5,0.5,0,0,1,.12.32,0.48,0.48,0,0,1-.86.3l-0.92-1.1A0.39,0.39,0,0,1,11.14,12.29Zm1.73-6.63a0.45,0.45,0,0,1-.35-0.14,0.49,0.49,0,0,1,.11-0.76L13.86,4a0.46,0.46,0,0,1,.59.07,0.49,0.49,0,0,1-.11.76l-1.24.71A0.45,0.45,0,0,1,12.87,5.66Zm0.29,3.6A0.46,0.46,0,0,1,13.05,9a0.46,0.46,0,0,1,.48-0.48h0.07L15,8.73a0.46,0.46,0,0,1,.29.17,0.48,0.48,0,0,1,.11.32,0.44,0.44,0,0,1-.14.33,0.48,0.48,0,0,1-.34.14H14.86l-1.42-.26A0.46,0.46,0,0,1,13.16,9.26Z"/>
  <rect class="cls-2" width="16" height="16"/>
</svg>
