<?xml version="1.0" encoding="utf-8"?>
<!-- Generator: Adobe Illustrator 23.0.3, SVG Export Plug-In . SVG Version: 6.00 Build 0)  -->
<svg version="1.1" id="レイヤー_1" xmlns="http://www.w3.org/2000/svg" xmlns:xlink="http://www.w3.org/1999/xlink" x="0px"
	 y="0px" width="27px" height="16px" viewBox="0 0 27 16" style="enable-background:new 0 0 27 16;" xml:space="preserve">
<style type="text/css">
	.st0{fill:#0000FF;}
	.st1{fill:none;}
</style>
<title>icon_main-dial</title>
<path class="st0" d="M0.9,0.5h25.3v2.9h-2.5c0,0.1,0,0.3,0,0.4v0.3l0.7,0.2l0.8,0.3l1,0.3l-0.8,2.8l-1.1-0.3l-0.8-0.2L22.8,7
	l-0.4,0.6c-0.1,0.2-0.2,0.4-0.3,0.6l0.5,0.4l0.6,0.6c0.3,0.2,0.5,0.4,0.8,0.8l-1.9,2.2l-0.8-0.7l-0.7-0.6l-0.5-0.4l-0.6,0.4L19,11.4
	c0.1,0.1,0.2,0.3,0.3,0.6l0.3,0.8l0.4,1L17.4,15L17,14c-0.1-0.3-0.2-0.5-0.4-0.8l-0.3-0.6l-0.7,0.2l-0.7,0.1v2.6h-3v-2.6
	c-0.2-0.1-0.4-0.1-0.6-0.1l-0.6-0.1l-0.3,0.6L10,14c-0.1,0.3-0.3,0.6-0.5,1l-2.7-1.3l0.5-1L7.6,12l0.3-0.6L7.3,11l-0.6-0.4L6.3,11
	l-0.7,0.5l-0.8,0.7L2.9,9.9l0.8-0.7l0.7-0.6l0.5-0.4L4.5,7.6C4.4,7.4,4.3,7.2,4.1,7L3.5,7.1L2.7,7.3l-1,0.3L0.9,4.8l1-0.3l0.8-0.2
	l0.6-0.2c0-0.1,0-0.3,0-0.3V3.4H1V0.5H0.9z M1.5,1.1v1.7h2.3c0,0.3,0,0.5,0,0.7s0,0.4,0.1,0.6s0,0.4,0.1,0.5L1.6,5.2l0.5,1.7
	l2.4-0.7C4.6,6.6,4.8,7,5,7.4c0.2,0.4,0.4,0.7,0.7,1.1L3.7,10l1.1,1.3l1.9-1.5c0.3,0.3,0.7,0.5,1,0.8c0.3,0.2,0.7,0.5,1,0.7
	l-1.1,2.2l1.6,0.7l1.1-2.2c0.7,0.3,1.5,0.4,2.3,0.5v2.5h1.7v-2.5c0.4,0,0.8-0.1,1.2-0.2c0.4-0.1,0.8-0.2,1.2-0.3l1,2.3l1.6-0.7
	l-1-2.3c0.4-0.2,0.7-0.4,1-0.7c0.3-0.2,0.6-0.5,0.9-0.8l1.9,1.6l1.1-1.3l-1.9-1.6c0.2-0.3,0.4-0.7,0.6-1c0.2-0.4,0.4-0.7,0.5-1.1
	l2.4,0.7l0.4-1.7l-2.4-0.7c0-0.1,0-0.3,0.1-0.5c0.1-0.2,0-0.4,0.1-0.6s0-0.4,0-0.7h2.4V1.1h-5.2l0.2,1.5c0,0.9-0.2,1.9-0.6,2.8
	c-0.4,0.8-0.9,1.6-1.5,2.3c-0.6,0.6-1.4,1.2-2.3,1.5c-1.8,0.7-3.8,0.7-5.5,0C9,8.5,7.7,7.1,7,5.4C6.6,4.5,6.4,3.6,6.4,2.7l0.2-1.5
	H1.5L1.5,1.1z M7,2.7c0,0.9,0.2,1.7,0.5,2.5C7.8,6,8.3,6.7,8.9,7.3c0.6,0.6,1.3,1.1,2.1,1.4c1.6,0.7,3.4,0.7,5.1,0
	c0.8-0.3,1.5-0.8,2.1-1.4c0.6-0.6,1.1-1.3,1.4-2.1C19.8,4.4,20,3.5,20,2.7l-0.2-1.5H7.2L7,2.7z"/>
<rect y="0" class="st1" width="27" height="16"/>
</svg>
