<?xml version="1.0" encoding="utf-8"?>
<!-- Generator: Adobe Illustrator 23.0.3, SVG Export Plug-In . SVG Version: 6.00 Build 0)  -->
<svg version="1.1" id="レイヤー_1" xmlns="http://www.w3.org/2000/svg" xmlns:xlink="http://www.w3.org/1999/xlink" x="0px"
	 y="0px" width="36px" height="16px" viewBox="0 0 36 16" style="enable-background:new 0 0 36 16;" xml:space="preserve">
<style type="text/css">
	.st0{fill:none;}
</style>
<title>icon_func-exp</title>
<rect class="st0" width="36" height="16"/>
<g>
	<path d="M33.2,2.3h-4.3v1.4h4.3V2.3z M35.3,12.3h-8.5v1.4h8.6L35.3,12.3L35.3,12.3z M33.2,7.3V5.1h-4.3v2.2h-2.1l4.3,4.6l4.3-4.6
		L33.2,7.3L33.2,7.3z"/>
	<path d="M24,13.5c0,0.3-0.1,0.5-0.2,0.8c-0.1,0.2-0.3,0.5-0.4,0.6c-0.2,0.2-0.4,0.3-0.6,0.4c-0.2,0.1-0.5,0.2-0.8,0.2H2.6
		c-0.3,0-0.6-0.1-0.8-0.2c-0.2-0.1-0.5-0.2-0.6-0.4c-0.2-0.2-0.3-0.4-0.4-0.6c-0.1-0.2-0.2-0.5-0.2-0.8v-11c0-0.3,0.1-0.5,0.2-0.8
		c0.2-0.5,0.5-0.8,1-1.1c0.3-0.1,0.5-0.2,0.8-0.2H22c0.3,0,0.6,0,0.8,0.2c0.2,0.1,0.5,0.2,0.6,0.4c0.4,0.4,0.6,0.9,0.6,1.4L24,13.5
		L24,13.5z M20.5,13.8L13,7.6l7.2-5.5h-4.3l-6.3,5v-5H6.1v11.7h3.5V8.4h0.1l6.3,5.4H20.5z"/>
</g>
</svg>
