<svg xmlns="http://www.w3.org/2000/svg" width="18" height="16" viewBox="0 0 18 16">
  <defs>
    <style>
      .cls-1 {
        fill: none;
      }
    </style>
  </defs>
  <g id="base">
    <rect id="Erase_default_voicememo" class="cls-1" width="18" height="16"/>
  </g>
  <g id="icon">
    <g>
      <path d="M16.56,9.36,16.31,9s1.47-1.43.58-2.87a7.41,7.41,0,0,0-2.66-2.35v6.69h0A1.69,1.69,0,0,1,13,11.81a1.51,1.51,0,0,1-2-.69c-.21-.65.34-1.41,1.22-1.69a2.05,2.05,0,0,1,1.15,0V1h.86a3.81,3.81,0,0,0,1.23,2.24c1.1,1,2.31,2,2.31,3.3A3.45,3.45,0,0,1,16.56,9.36Z"/>
      <path d="M10.85,1.05,10.76.7a.28.28,0,0,0-.34-.19L6.28,1.62,6.06.79A.4.4,0,0,0,5.59.52l-1,.27a.36.36,0,0,0-.27.46l.22.84L.43,3.22a.29.29,0,0,0-.19.34l.1.35a.27.27,0,0,0,.26.2H.67l10-2.71A.28.28,0,0,0,10.85,1.05Z"/>
      <path d="M10.64,12.16l-.22,2.33H9L9.39,6h1.83l-.3,3.18a3.17,3.17,0,0,1,1-.57h0l.28-2.89A.73.73,0,0,0,11.53,5H3.18a.73.73,0,0,0-.72.73l.86,9.07A.72.72,0,0,0,4,15.5h6.63a.72.72,0,0,0,.72-.72l.19-2.08A2.2,2.2,0,0,1,10.64,12.16ZM4.28,14.49,3.47,6H5.31l.38,8.51Zm3.76,0H6.66L6.3,6H8.41Z"/>
    </g>
  </g>
</svg>
