<svg id="レイヤー_1" data-name="レイヤー 1" xmlns="http://www.w3.org/2000/svg" width="14" height="16" viewBox="0 0 14 16">
  <defs>
    <style>
      .cls-1 {
        fill: none;
      }
    </style>
  </defs>
  <title>icon_checkmark</title>
  <path d="M1.35,7a1.49,1.49,0,0,1,.53-0.1A1.28,1.28,0,0,1,3,7.57l2.22,3.87a0.73,0.73,0,0,0,.57.47,0.8,0.8,0,0,0,.65-0.6q0.18-.43,2.68-4.87t2.62-4.62A3.27,3.27,0,0,1,12.88.5c0.13,0,.2.09,0.2,0.27a1.36,1.36,0,0,1-.15.53l-0.3.62q-2.47,6-5.3,12.9a1,1,0,0,1-1,.68,1.55,1.55,0,0,1-1.22-.83L2.9,11.45A30.7,30.7,0,0,1,1.06,8.7,1.92,1.92,0,0,1,.92,8,1.32,1.32,0,0,1,1.35,7Z"/>
  <rect class="cls-1" width="14" height="16"/>
</svg>
