<?xml version="1.0" encoding="utf-8"?>
<!-- Generator: Adobe Illustrator 23.0.3, SVG Export Plug-In . SVG Version: 6.00 Build 0)  -->
<svg version="1.1" id="レイヤー_1" xmlns="http://www.w3.org/2000/svg" xmlns:xlink="http://www.w3.org/1999/xlink" x="0px"
	 y="0px" width="23.81px" height="18.43px" viewBox="0 0 23.81 18.43" enable-background="new 0 0 23.81 18.43"
	 xml:space="preserve">
<path d="M11.24,2.08v9.22H0.76V2.08H11.24z M2.4,9.67h7.22V3.71H2.4V9.67z M13.4,4.78v8.67H3.48v-1.07h8.85v-7.6H13.4z M15.56,7.5
	v8.13H6.19v-1.06h8.3V7.5H15.56z"/>
<polygon points="22.81,1.17 22.81,9.26 21.18,9.26 21.18,5.72 17.96,5.72 17.96,9.26 16.33,9.26 16.33,1.17 17.96,1.17 17.96,4.47 
	21.18,4.47 21.18,1.17 "/>
<polygon points="23.05,13.09 20.3,13.09 20.3,10.34 18.88,10.34 18.88,13.09 16.13,13.09 16.13,14.51 18.88,14.51 18.88,17.26 
	20.3,17.26 20.3,14.51 23.05,14.51 "/>
</svg>
