<svg xmlns="http://www.w3.org/2000/svg" width="16" height="16" viewBox="0 0 16 16">
  <defs>
    <style>
      .cls-1 {
        fill: none;
      }
    </style>
  </defs>
  <g id="frame">
    <rect class="cls-1" width="16" height="16"/>
  </g>
  <g id="icon">
    <polygon points="4.9 1.2 1.1 1.2 1.1 5 0.4 5 0.4 0.5 4.9 0.5 4.9 1.2"/>
    <polygon points="4.9 2.5 2.4 2.5 2.4 5 1.7 5 1.7 1.8 4.9 1.8 4.9 2.5"/>
    <polygon points="10.8 0.5 15.3 0.5 15.3 5 14.6 5 14.6 1.2 10.8 1.2 10.8 0.5"/>
    <polygon points="10.8 1.8 14 1.8 14 5 13.3 5 13.3 2.5 10.8 2.5 10.8 1.8"/>
    <polygon points="4.9 15.5 0.4 15.5 0.4 11 1.1 11 1.1 14.8 4.9 14.8 4.9 15.5"/>
    <polygon points="4.9 14.2 1.7 14.2 1.7 11 2.4 11 2.4 13.5 4.9 13.5 4.9 14.2"/>
    <polygon points="10.8 14.8 14.6 14.8 14.6 11 15.3 11 15.3 15.5 10.8 15.5 10.8 14.8"/>
    <polygon points="10.8 13.5 13.3 13.5 13.3 11 14 11 14 14.2 10.8 14.2 10.8 13.5"/>
  </g>
</svg>
