<svg id="レイヤー_1" data-name="レイヤー 1" xmlns="http://www.w3.org/2000/svg" width="33" height="16" viewBox="0 0 33 16">
  <defs>
    <style>
      .cls-1 {
        fill: none;
      }
    </style>
  </defs>
  <title>icon_pic-style-n</title>
  <path d="M32.17,0.5v15H0.83V0.5H32.17ZM2,1.62V14.4H31V1.62H2ZM10.13,9.3L4.42,11.2,2.79,8.85,8.16,7.24Zm-6,0L4.46,9.81l0.28,0.41L5.47,10l1-.33,1.11-.36,1.09-.36L8.23,8.48l-0.3-.32-0.69.2-1,.29L5.15,9Zm6.42-4.12L6.86,4l-2,1.23L8.64,6.52ZM11,9.56l-0.32,3.56h4.66l-0.3-3.56H11Zm3.57-4.66-0.19-2H11.66l-0.21,2h3.16Zm2.84,1.62,3.79-1.26L19.23,4,15.57,5.17Zm-1.21,2.7L21.61,11l1.46-2.1L18,7.39Zm7.23,4.37h1.14v-9h0.05l3.65,9h1.47V2.65H28.65v8.82h0L25.06,2.65H23.48V13.6Z"/>
  <rect class="cls-1" width="33" height="16"/>
</svg>
