<svg id="レイヤー_1" data-name="レイヤー 1" xmlns="http://www.w3.org/2000/svg" width="22" height="16" viewBox="0 0 22 16">
  <defs>
    <style>
      .cls-1 {
        fill: none;
      }
    </style>
  </defs>
  <title>icon_af-frame-button</title>
  <path d="M21,13.77a1.6,1.6,0,0,1-.14.66,1.77,1.77,0,0,1-.38.55,1.8,1.8,0,0,1-.56.38,1.74,1.74,0,0,1-.69.14H2.73a1.67,1.67,0,0,1-.68-0.14A1.79,1.79,0,0,1,1.5,15a1.77,1.77,0,0,1-.38-0.55A1.6,1.6,0,0,1,1,13.77V2.25A1.68,1.68,0,0,1,1.49,1,1.68,1.68,0,0,1,2.73.5H19.25a1.71,1.71,0,0,1,.69.14A1.82,1.82,0,0,1,20.5,1a1.8,1.8,0,0,1,.38.55,1.65,1.65,0,0,1,.14.68V13.77Zm-1.5,0V2.25a0.22,0.22,0,0,0-.08-0.17A0.24,0.24,0,0,0,19.27,2H2.73a0.25,0.25,0,0,0-.17.07,0.22,0.22,0,0,0-.08.17V13.77a0.22,0.22,0,0,0,.08.17,0.25,0.25,0,0,0,.17.07H19.27a0.24,0.24,0,0,0,.16-0.07A0.22,0.22,0,0,0,19.51,13.77ZM7.74,9.13H4.23V6.89H7.74V9.13Zm5-3.62H9.24V3.26h3.51V5.51Zm0,3.62H9.24V6.89h3.51V9.13Zm0,3.63H9.24V10.51h3.51v2.25Zm5-3.63H14.26V6.89h3.51V9.13Z"/>
  <rect class="cls-1" width="22" height="16"/>
</svg>
