<svg id="レイヤー_1" data-name="レイヤー 1" xmlns="http://www.w3.org/2000/svg" width="31" height="16" viewBox="0 0 31 16">
  <defs>
    <style>
      .cls-1 {
        fill: none;
      }
    </style>
  </defs>
  <title>icon_fps-200_0</title>
  <rect class="cls-1" width="31" height="16"/>
  <g>
    <path d="M14.14,4.08a1.15,1.15,0,0,0-1,1,11.22,11.22,0,0,0-.32,3.16,11,11,0,0,0,.32,3.14,1.14,1.14,0,0,0,1,1,1.13,1.13,0,0,0,1-1,11.89,11.89,0,0,0,.31-3.14v0a12,12,0,0,0-.32-3.18A1.14,1.14,0,0,0,14.14,4.08Z"/>
    <path d="M10.43,8.26a11.23,11.23,0,0,0-.29-3.16,1.12,1.12,0,0,0-1-1,1.14,1.14,0,0,0-1,1,11.22,11.22,0,0,0-.33,3.14,11,11,0,0,0,.32,3.14,1.13,1.13,0,0,0,1,1,1.09,1.09,0,0,0,1-1,11,11,0,0,0,.32-3.14Z"/>
    <path d="M22.48,5.06a1.15,1.15,0,0,0-1-1,1.14,1.14,0,0,0-1,1,6.12,6.12,0,0,0-.23,1.28q-0.07.8-.07,1.88t0.07,1.86a6.11,6.11,0,0,0,.23,1.28,1.13,1.13,0,0,0,1,1,1.14,1.14,0,0,0,1-1,6.11,6.11,0,0,0,.23-1.28q0.07-.78.07-1.86v0q0-1.1-.08-1.92A6.13,6.13,0,0,0,22.48,5.06Z"/>
    <path d="M29.84,0.88A1.24,1.24,0,0,0,28.92.5H2.06a1.24,1.24,0,0,0-.91.38,1.24,1.24,0,0,0-.39.91V14.21a1.29,1.29,0,0,0,.38.92,1.25,1.25,0,0,0,.92.38H28.93a1.23,1.23,0,0,0,.9-0.38,1.26,1.26,0,0,0,.4-0.92h0V1.8A1.22,1.22,0,0,0,29.84.88ZM6.07,13.35H1.76V12.23A31.06,31.06,0,0,0,4.09,8.44a6.16,6.16,0,0,0,.77-2.58,2.38,2.38,0,0,0-.29-1.21,1,1,0,0,0-.9-0.51,1.79,1.79,0,0,0-.79.21,3,3,0,0,0-.79.57L2,3.64a4.66,4.66,0,0,1,1-.46A3.16,3.16,0,0,1,3.88,3a1.76,1.76,0,0,1,.87.23,2.08,2.08,0,0,1,.64.55,2.55,2.55,0,0,1,.46.82A3.41,3.41,0,0,1,6,5.6a5.59,5.59,0,0,1-.23,1.49,11,11,0,0,1-.63,1.67,15.8,15.8,0,0,1-1,1.76A18.27,18.27,0,0,1,2.9,12.24H6.07v1.11Zm5.37-5.11a9.88,9.88,0,0,1-.6,3.9,1.88,1.88,0,0,1-1.72,1.31A1.92,1.92,0,0,1,7.4,12.14a9.87,9.87,0,0,1-.59-3.9,10,10,0,0,1,.59-3.9A1.9,1.9,0,0,1,9.12,3a1.88,1.88,0,0,1,1.74,1.34,10,10,0,0,1,.59,3.9h0Zm4.44,3.9a1.78,1.78,0,0,1-3.43,0A6,6,0,0,1,12,10.51a15.65,15.65,0,0,1-.14-2.25A15.67,15.67,0,0,1,12,6a6,6,0,0,1,.43-1.66,1.78,1.78,0,0,1,3.43,0,10,10,0,0,1,.59,3.9h0A9.88,9.88,0,0,1,15.88,12.14Zm1.36,1.2V11.71h1.1v1.63H17.24Zm6-1.23a1.93,1.93,0,0,1-1.74,1.31,1.87,1.87,0,0,1-1.72-1.31,9.87,9.87,0,0,1-.59-3.9,10,10,0,0,1,.59-3.9A1.87,1.87,0,0,1,21.46,3a1.91,1.91,0,0,1,1.73,1.32,10,10,0,0,1,.59,3.9l0,0A9.88,9.88,0,0,1,23.2,12.11Zm5.09-3.79a2.45,2.45,0,0,1-1.94.77H25.69v4.25h-1V3.11h1.9a2.44,2.44,0,0,1,1,.2,2.61,2.61,0,0,1,.72.59,3.79,3.79,0,0,1,.26.41,3,3,0,0,1,.21.49A4.16,4.16,0,0,1,28.94,6,3.53,3.53,0,0,1,28.29,8.32Z"/>
    <path d="M26.23,4.22H25.67V8h0.54a1.49,1.49,0,0,0,1.29-.49,2.24,2.24,0,0,0,.38-1.35v0a2.22,2.22,0,0,0-.43-1.53A1.65,1.65,0,0,0,26.23,4.22Z"/>
  </g>
</svg>
