<svg id="レイヤー_1" data-name="レイヤー 1" xmlns="http://www.w3.org/2000/svg" width="31" height="16" viewBox="0 0 31 16">
  <defs>
    <style>
      .cls-1 {
        fill: none;
      }
    </style>
  </defs>
  <title>icon_fps-25_00</title>
  <rect class="cls-1" width="31" height="16"/>
  <path d="M30.22,14.19a1.31,1.31,0,0,1-1.31,1.31H2.07a1.23,1.23,0,0,1-.91-0.38,1.27,1.27,0,0,1-.38-0.92V1.79A1.24,1.24,0,0,1,1.15.88,1.24,1.24,0,0,1,2.07.5H28.92a1.27,1.27,0,0,1,.92.38,1.23,1.23,0,0,1,.38.91v12.4ZM6,13.33V12.22H2.89a18.77,18.77,0,0,0,1.19-1.71A15.5,15.5,0,0,0,5,8.75a11.91,11.91,0,0,0,.62-1.68A5.54,5.54,0,0,0,5.86,5.6a3.41,3.41,0,0,0-.14-1,2.66,2.66,0,0,0-.4-0.81,2,2,0,0,0-.63-0.55A1.68,1.68,0,0,0,3.86,3,3.18,3.18,0,0,0,3,3.17a4.1,4.1,0,0,0-1,.47L2.1,4.92a3.18,3.18,0,0,1,.77-0.57,1.68,1.68,0,0,1,.77-0.21,1,1,0,0,1,.89.51,2.34,2.34,0,0,1,.3,1.19,6.18,6.18,0,0,1-.76,2.59,32.64,32.64,0,0,1-2.28,3.79v1.13H6Zm5.24-3.42a4.44,4.44,0,0,0-.18-1.32,2.94,2.94,0,0,0-.48-1,2,2,0,0,0-.7-0.57A1.93,1.93,0,0,0,9,6.87a3,3,0,0,0-.47,0A1.61,1.61,0,0,0,8.13,7V4.17h2.7V3.11H7.17V8.27A5.58,5.58,0,0,1,7.88,8a2.26,2.26,0,0,1,.6-0.08,1.53,1.53,0,0,1,1.25.55,2.47,2.47,0,0,1,.45,1.6,2.86,2.86,0,0,1-.45,1.65,1.4,1.4,0,0,1-1.22.65,1.85,1.85,0,0,1-.73-0.17,2.92,2.92,0,0,1-.64-0.37L7.1,13a3.37,3.37,0,0,0,.76.3,3.09,3.09,0,0,0,.8.11,2.17,2.17,0,0,0,1.92-1A4.49,4.49,0,0,0,11.23,9.92Zm2.11,3.42V11.71H12.23v1.63h1.11Zm5.42-5.1a9.77,9.77,0,0,0-.6-3.89,1.79,1.79,0,0,0-3.45,0,9.91,9.91,0,0,0-.59,3.89,9.91,9.91,0,0,0,.59,3.89,1.79,1.79,0,0,0,3.45,0A9.78,9.78,0,0,0,18.77,8.23Zm-1,0a11.17,11.17,0,0,1-.32,3.16,1.14,1.14,0,0,1-1,1,1.13,1.13,0,0,1-1-1,11.5,11.5,0,0,1-.31-3.16,11.6,11.6,0,0,1,.31-3.17,1.13,1.13,0,0,1,1-1,1.14,1.14,0,0,1,1,1A11.27,11.27,0,0,1,17.76,8.23Zm6,0a9.77,9.77,0,0,0-.6-3.89,1.79,1.79,0,0,0-3.45,0,9.91,9.91,0,0,0-.59,3.89,9.91,9.91,0,0,0,.59,3.89,1.79,1.79,0,0,0,3.45,0A9.78,9.78,0,0,0,23.8,8.23Zm-1,0a11.2,11.2,0,0,1-.32,3.16,1.14,1.14,0,0,1-1,1,1.13,1.13,0,0,1-1-1,11.47,11.47,0,0,1-.31-3.16,11.57,11.57,0,0,1,.31-3.17,1.13,1.13,0,0,1,1-1,1.14,1.14,0,0,1,1,1A11.3,11.3,0,0,1,22.79,8.23ZM28.92,6a4.15,4.15,0,0,0-.16-1.21,2.66,2.66,0,0,0-.47-0.9,2.38,2.38,0,0,0-.73-0.58,2.21,2.21,0,0,0-1-.21H24.64V13.33h1V9.06h0.68a2.43,2.43,0,0,0,1.93-.76A3.39,3.39,0,0,0,28.92,6Zm-1.06.13a2.26,2.26,0,0,1-.38,1.37A1.5,1.5,0,0,1,26.19,8H25.64V4.17h0.57a1.61,1.61,0,0,1,1.22.45A2.17,2.17,0,0,1,27.86,6.14Z"/>
</svg>
