<svg id="icon" xmlns="http://www.w3.org/2000/svg" width="16" height="16" viewBox="0 0 16 16">
  <defs>
    <style>
      .cls-1 {
        fill: none;
      }
    </style>
  </defs>
  <g>
    <path d="M13.78.5H2.22A1,1,0,0,0,1.17,1.55v6.3A1,1,0,0,0,2.22,8.9H13.78a1,1,0,0,0,1.05-1.05V1.55A1,1,0,0,0,13.78.5ZM7.9,2.63H6.41v5H5.21v-5H3.73V1.79H7.9Zm3,5H9.63L8.08,3.1H9.25l1,3.43,1-3.43h1.17Z"/>
    <path d="M14.33,10.55l-2.11,1.9a.8.8,0,0,1-.5.23H8.43l-1.69-.21v-.63h3.37a.85.85,0,0,0,.83-.84h0a.83.83,0,0,0-.82-.84h-4a15.34,15.34,0,0,0-2.2.55l-3.43.9V15.5l3.37-1.43A1.25,1.25,0,0,1,4.61,14L9,14.76a1.29,1.29,0,0,0,.48,0L12.38,14a1.26,1.26,0,0,0,.58-.31l2.41-2.32a.67.67,0,0,0-.14-1h0A.68.68,0,0,0,14.33,10.55Z"/>
  </g>
  <rect class="cls-1" width="16" height="16"/>
</svg>
