<?xml version="1.0" encoding="utf-8"?>
<!-- Generator: Adobe Illustrator 23.0.3, SVG Export Plug-In . SVG Version: 6.00 Build 0)  -->
<svg version="1.1" id="レイヤー_1" xmlns="http://www.w3.org/2000/svg" xmlns:xlink="http://www.w3.org/1999/xlink" x="0px"
	 y="0px" width="34px" height="16px" viewBox="0 0 34 16" style="enable-background:new 0 0 34 16;" xml:space="preserve">
<style type="text/css">
	.st0{fill:none;}
</style>
<title>icon_oneshot-ai-servo</title>
<rect x="0" y="0" class="st0" width="34" height="16"/>
<g>
	<path d="M5.7,0.8L1.9,15.2H4l0.9-3.6h3.6l0.9,3.6h2.1L7.7,0.8H5.7z M5.4,9.4l1.3-5.1l1.2,5.1H5.4z"/>
	<polygon points="11.9,15.2 14,15.2 14,8.8 17.3,8.8 17.3,6.6 14,6.6 14,3 17.4,3 17.4,0.8 11.9,0.8 	"/>
	<path d="M20.4,2.4V14H32V2.4H20.4z M30.4,12.4H22V4h8.4V12.4z"/>
</g>
</svg>
