<svg id="レイヤー_1" data-name="レイヤー 1" xmlns="http://www.w3.org/2000/svg" width="16" height="16" viewBox="0 0 16 16">
  <defs>
    <style>
      .cls-1 {
        fill: none;
      }
    </style>
  </defs>
  <title>icon_summertime</title>
  <path d="M3.31,7.6c0,0.13,0,.26,0,0.4a4.59,4.59,0,0,0,.08.8H0.49V7.21H3.35C3.33,7.34,3.32,7.47,3.31,7.6ZM3.24,2.14l2,2L5,4.41a3.2,3.2,0,0,0-.29.26A2.23,2.23,0,0,0,4.4,5l-0.24.32-2-2Zm2,9.7-2,2L2.13,12.75l2-2A4.69,4.69,0,0,0,5.27,11.84ZM9.4,4.7a3.68,3.68,0,0,1,1.14.77,3.64,3.64,0,0,1,.77,1.14A3.45,3.45,0,0,1,11.59,8a3.5,3.5,0,0,1-.28,1.4,3.6,3.6,0,0,1-.77,1.15,3.66,3.66,0,0,1-1.14.77A3.47,3.47,0,0,1,8,11.6a3.51,3.51,0,0,1-1.41-.28,3.66,3.66,0,0,1-1.14-.77A3.62,3.62,0,0,1,4.69,9.4,3.52,3.52,0,0,1,4.41,8a3.47,3.47,0,0,1,.28-1.39A3.62,3.62,0,0,1,6.6,4.7,3.51,3.51,0,0,1,8,4.42,3.47,3.47,0,0,1,9.4,4.7ZM8.79,0.5H7.21V3.36A4.67,4.67,0,0,1,8,3.3a4.56,4.56,0,0,1,.79.06V0.5Zm0,12.14V15.5H7.21V12.64L7.6,12.69l0.41,0,0.39,0Zm4-10.5,1.12,1.12-2,2L11.59,5l-0.27-.3A3.22,3.22,0,0,0,11,4.41l-0.31-.24Zm-0.91,8.59,2,2-1.12,1.12-2-2A4.71,4.71,0,0,0,11.84,10.72Zm3.66-3.51V8.8H12.65c0-.14,0-0.27,0-0.4s0-.26,0-0.4,0-.27,0-0.4,0-.26,0-0.39h2.86Z"/>
  <rect class="cls-1" width="16" height="16"/>
</svg>
