<?xml version="1.0" encoding="utf-8"?>
<!-- Generator: Adobe Illustrator 23.0.3, SVG Export Plug-In . SVG Version: 6.00 Build 0)  -->
<svg version="1.1" id="レイヤー_1" xmlns="http://www.w3.org/2000/svg" xmlns:xlink="http://www.w3.org/1999/xlink" x="0px"
	 y="0px" width="21.26px" height="17.01px" viewBox="0 0 21.26 17.01" enable-background="new 0 0 21.26 17.01"
	 xml:space="preserve">
<g>
	<path d="M2.73,14.04h0.05c-0.51,0-0.95-0.26-1.31-0.78s-0.54-1.28-0.54-2.28c0-0.48,0.05-0.91,0.14-1.29
		c0.1-0.38,0.23-0.7,0.4-0.97s0.37-0.47,0.59-0.61c0.22-0.14,0.46-0.21,0.72-0.21H2.73c0.26,0,0.5,0.07,0.72,0.21
		c0.22,0.14,0.42,0.34,0.59,0.61c0.17,0.27,0.3,0.59,0.4,0.97c0.1,0.38,0.14,0.81,0.14,1.29c0,1-0.18,1.76-0.54,2.28
		C3.68,13.78,3.24,14.04,2.73,14.04z M2.74,13.1c0.23,0,0.45-0.19,0.65-0.58c0.2-0.39,0.3-0.89,0.3-1.51c0-0.3-0.03-0.58-0.08-0.84
		S3.48,9.67,3.39,9.48C3.3,9.29,3.2,9.14,3.09,9.03C2.97,8.93,2.86,8.87,2.74,8.87h0.02c-0.12,0-0.23,0.05-0.34,0.16
		S2.2,9.29,2.11,9.48C2.02,9.67,1.95,9.9,1.89,10.16C1.84,10.42,1.81,10.7,1.81,11c0,0.62,0.1,1.12,0.3,1.51
		c0.2,0.39,0.41,0.58,0.65,0.58H2.74z M19.53,4.55c0-0.21-0.04-0.41-0.12-0.6c-0.08-0.19-0.19-0.35-0.33-0.49
		c-0.14-0.14-0.3-0.25-0.49-0.33c-0.19-0.08-0.38-0.12-0.58-0.12h-5.49l-1.66-1.78h-4L5.11,3.02H3.7c-0.21,0-0.41,0.04-0.59,0.12
		C2.93,3.22,2.77,3.33,2.63,3.46C2.49,3.6,2.38,3.77,2.3,3.95c-0.08,0.19-0.12,0.39-0.12,0.6v2.18h1.42V5.29h10.5v2.34l5.42-0.03
		V4.55z M7.4,10.76H6.01V8.95H7.4V8.01H5.06v0.5v0.45v1.81v0.94v2.26h0.94V11.7H7.4V10.76z M7.73,3.91V2.09h2.27v1.82H7.73z
		 M10.34,10.76H8.95V8.95h1.39V8.01H8.01v0.5v0.45v1.81v0.94v2.26h0.94V11.7h1.39V10.76z M20.34,11.64c0-0.29-0.05-0.54-0.16-0.75
		c-0.03-0.16-0.08-0.31-0.14-0.46c-0.06-0.15-0.15-0.28-0.27-0.4l-1.22-1.17c-0.3-0.28-0.65-0.42-1.05-0.42s-0.75,0.14-1.05,0.42
		c-0.28-0.12-0.57-0.15-0.88-0.1c-0.31,0.05-0.57,0.2-0.78,0.43c-0.15,0.15-0.26,0.32-0.32,0.51l-1.63-2.48
		c-0.17-0.27-0.41-0.43-0.7-0.49c-0.3-0.06-0.58,0-0.83,0.17c-0.26,0.17-0.42,0.4-0.48,0.7s-0.01,0.57,0.16,0.84l2.7,4.14
		l-1.06-0.66c-0.26-0.16-0.53-0.21-0.83-0.14c-0.3,0.07-0.52,0.23-0.67,0.49c-0.16,0.26-0.2,0.53-0.13,0.82s0.24,0.52,0.5,0.68
		l1.82,1.1c0.04,0.03,0.09,0.05,0.14,0.06c0.05,0.01,0.1,0.03,0.15,0.05l1.04,0.5l1.5,0.18l2.67,0.1c0.2,0,0.4-0.05,0.58-0.14
		c0.19-0.09,0.35-0.22,0.49-0.38c0.14-0.16,0.25-0.35,0.33-0.56s0.12-0.44,0.12-0.69V11.64z"/>
</g>
</svg>
