<svg id="レイヤー_1" data-name="レイヤー 1" xmlns="http://www.w3.org/2000/svg" width="31" height="16" viewBox="0 0 31 16">
  <defs>
    <style>
      .cls-1 {
        fill: none;
      }
    </style>
  </defs>
  <title>icon_fps-239_8</title>
  <rect class="cls-1" width="31" height="16"/>
  <g>
    <path d="M21.6,7.55a4,4,0,0,0,.79-1,2.13,2.13,0,0,0,.3-1.09,1.57,1.57,0,0,0-.33-1,1,1,0,0,0-1.7,0,1.72,1.72,0,0,0-.34,1.07,2.13,2.13,0,0,0,.28,1A2.48,2.48,0,0,0,21.6,7.55Z"/>
    <path d="M22.53,9.45a3.39,3.39,0,0,0-1.08-.93,3.26,3.26,0,0,0-1,1,2.1,2.1,0,0,0-.25,1,2.35,2.35,0,0,0,.38,1.33,1.18,1.18,0,0,0,1,.56,1.1,1.1,0,0,0,.93-0.5,2.19,2.19,0,0,0,.36-1.31h0A2,2,0,0,0,22.53,9.45Z"/>
    <path d="M29.84,0.88A1.27,1.27,0,0,0,28.92.5H2.07a1.24,1.24,0,0,0-.92.38,1.24,1.24,0,0,0-.37.91V14.2a1.27,1.27,0,0,0,.38.92,1.23,1.23,0,0,0,.91.38H28.91a1.31,1.31,0,0,0,1.31-1.31V1.79A1.23,1.23,0,0,0,29.84.88ZM6.08,13.35H1.77V12.23A31.06,31.06,0,0,0,4.1,8.44a6.16,6.16,0,0,0,.77-2.58,2.38,2.38,0,0,0-.29-1.21,1,1,0,0,0-.9-0.51,1.79,1.79,0,0,0-.79.21,3,3,0,0,0-.79.57L2,3.64a4.66,4.66,0,0,1,1-.46A3.16,3.16,0,0,1,3.89,3a1.76,1.76,0,0,1,.87.23,2.08,2.08,0,0,1,.64.55,2.55,2.55,0,0,1,.46.82A3.41,3.41,0,0,1,6,5.6a5.59,5.59,0,0,1-.23,1.49,11,11,0,0,1-.63,1.67,15.8,15.8,0,0,1-1,1.76,18.27,18.27,0,0,1-1.23,1.72H6.08v1.11Zm5.13-2.84A4,4,0,0,1,11,11.66a2.66,2.66,0,0,1-.49.94,2.32,2.32,0,0,1-.83.64,2.72,2.72,0,0,1-1.16.23,4.26,4.26,0,0,1-.94-0.11,3.3,3.3,0,0,1-.81-0.29L6.9,11.8a2.76,2.76,0,0,0,1.56.59,1.54,1.54,0,0,0,1.18-.55,2.16,2.16,0,0,0,.5-1.5,1.83,1.83,0,0,0-.42-1.26,1.49,1.49,0,0,0-1.17-.47H7.78V7.54H8.17A1.9,1.9,0,0,0,9.61,7a1.82,1.82,0,0,0,.47-1.31,1.74,1.74,0,0,0-.41-1.21,1.34,1.34,0,0,0-1-.46,2.1,2.1,0,0,0-.74.15,3,3,0,0,0-.76.42L7.06,3.43A3.08,3.08,0,0,1,7.93,3.1,4.44,4.44,0,0,1,8.87,3a2.56,2.56,0,0,1,.93.18,1.86,1.86,0,0,1,.72.47,2.37,2.37,0,0,1,.48.8,3.16,3.16,0,0,1,.14,1.15,2.76,2.76,0,0,1-.43,1.65A1.87,1.87,0,0,1,9.64,8a1.6,1.6,0,0,1,1.17.82,3.32,3.32,0,0,1,.41,1.68h0Zm5.57-2.69q0,5.64-3,5.68A3.23,3.23,0,0,1,13,13.42a2.79,2.79,0,0,1-.64-0.22l0-1.2a1.94,1.94,0,0,0,1.25.41,1.46,1.46,0,0,0,.9-0.3,2.3,2.3,0,0,0,.66-0.83A5,5,0,0,0,15.65,10a8.78,8.78,0,0,0,.12-1.68,2,2,0,0,1-.64.92,1.65,1.65,0,0,1-1.9.06,2.23,2.23,0,0,1-.66-0.72,3.72,3.72,0,0,1-.41-1A4.87,4.87,0,0,1,12,6.4a5.47,5.47,0,0,1,.18-1.48,3.09,3.09,0,0,1,.5-1.06,2.15,2.15,0,0,1,.75-0.64A2,2,0,0,1,14.38,3a1.83,1.83,0,0,1,1.12.31,2.37,2.37,0,0,1,.74,1,5.72,5.72,0,0,1,.42,1.51,13.4,13.4,0,0,1,.13,2h0Zm1.66,5.53H17.32V11.71h1.12v1.64Zm5.28-1.61a2.58,2.58,0,0,1-.47.89,2.29,2.29,0,0,1-.75.59,2.41,2.41,0,0,1-2,0,2.18,2.18,0,0,1-.74-0.59,2.65,2.65,0,0,1-.47-0.89,3.74,3.74,0,0,1-.16-1.11A2.89,2.89,0,0,1,19.54,9a2.84,2.84,0,0,1,1.11-1,2.57,2.57,0,0,1-1.06-1.17,3.45,3.45,0,0,1-.3-1.37,3,3,0,0,1,.14-0.91,2.39,2.39,0,0,1,.43-0.8,2.24,2.24,0,0,1,.69-0.56,2,2,0,0,1,1.88,0,2.21,2.21,0,0,1,.7.56,2.4,2.4,0,0,1,.43.8,3,3,0,0,1,.14.91,3.45,3.45,0,0,1-.3,1.37A2.57,2.57,0,0,1,22.35,8a2.84,2.84,0,0,1,1.11,1,2.89,2.89,0,0,1,.41,1.65A3.72,3.72,0,0,1,23.72,11.74ZM28.31,8.3a2.51,2.51,0,0,1-2,.77H25.63v4.28h-1V3.1h2a2.41,2.41,0,0,1,1,.2,2.14,2.14,0,0,1,.73.59A3.24,3.24,0,0,1,29,6,3.34,3.34,0,0,1,28.31,8.3Z"/>
    <path d="M27.93,6.14v0h0S27.93,6.13,27.93,6.14Z"/>
    <path d="M26.25,4.19H25.66V8h0.55a1.57,1.57,0,0,0,1.34-.52,2.22,2.22,0,0,0,.38-1.37,2.11,2.11,0,0,0-.44-1.47A1.66,1.66,0,0,0,26.25,4.19Z"/>
    <path d="M15.56,5.5a2.75,2.75,0,0,0-.24-0.72,1.57,1.57,0,0,0-.4-0.51,0.91,0.91,0,0,0-1.13,0,1.59,1.59,0,0,0-.4.51,2.77,2.77,0,0,0-.24.72,4.18,4.18,0,0,0,0,1.63,2.77,2.77,0,0,0,.24.72,1.59,1.59,0,0,0,.4.51,0.91,0.91,0,0,0,1.13,0,1.57,1.57,0,0,0,.4-0.51,2.75,2.75,0,0,0,.24-0.72,4.12,4.12,0,0,0,.08-0.81h0A4.13,4.13,0,0,0,15.56,5.5Z"/>
  </g>
</svg>
