<?xml version="1.0" encoding="UTF-8"?>
<svg xmlns="http://www.w3.org/2000/svg" width="4.9mm" height="3.8mm" version="1.1" viewBox="0 0 13.89 10.77">
  <!-- Generator: Adobe Illustrator 29.2.1, SVG Export Plug-In . SVG Version: 2.1.0 Build 116)  -->
  <defs>
    <style>
      .st0, .st1 {
        fill: none;
      }

      .st1 {
        stroke: #000;
        stroke-linecap: round;
        stroke-linejoin: round;
        stroke-width: .5px;
      }
    </style>
  </defs>
  <g id="_レイヤー_1">
    <rect class="st0" x=".05" y="0" width="13.79" height="10.77"/>
  </g>
  <g id="_レイヤー_2" data-name="レイヤー_2">
    <path class="st1" d="M2.09,10.39h9.8c1.34,0,1.34-1.19,1.34-1.19V1.57c0-1.26-1.34-1.19-1.34-1.19H2.09c-1.41,0-1.34,1.19-1.34,1.19v7.72s0,1.11,1.34,1.11h0Z"/>
    <g>
      <path d="M2.01,8.47V2.31h2.52v.82h-1.78v1.93h1.71v.74h-1.71v2.74h-.74v-.07s0,0,0,0Z"/>
      <path d="M7.95,8.47h-2.59V2.31h.74v5.34h1.86v.82s0,0,0,0Z"/>
      <path d="M11.96,8.47h-.89l-1.34-2.89-.45.67v2.3h-.74V2.31h.74v2.89h0c.15-.22.22-.45.37-.67l1.26-2.22h.89l-1.64,2.67,1.71,3.56h0l.07-.07h0Z"/>
    </g>
  </g>
</svg>