<svg id="レイヤー_1" data-name="レイヤー 1" xmlns="http://www.w3.org/2000/svg" width="22" height="16" viewBox="0 0 22 16">
  <defs>
    <style>
      .cls-1 {
        fill: none;
      }
    </style>
  </defs>
  <title>icon_flash-func-settings</title>
  <path d="M6.05,5.27H0.54V3.92H6.05V5.27ZM6.47,1.82L6.14,3.15,0.79,1.82,1.13,0.5Zm0,5.47L1.1,8.58,0.79,7.29,6.14,6ZM18.63,4.53a2.73,2.73,0,0,1-.83,2,2.72,2.72,0,0,1-2,.81H7.62V1.71h8.17a2.74,2.74,0,0,1,2,.83A2.7,2.7,0,0,1,18.63,4.53Zm-1,0a1.9,1.9,0,0,0-1.89-1.9,1.85,1.85,0,0,0-1.36.56,1.83,1.83,0,0,0-.55,1.34,1.92,1.92,0,0,0,1.91,1.93,1.84,1.84,0,0,0,1.34-.57A1.84,1.84,0,0,0,17.6,4.51Zm3.84,10.39a0.49,0.49,0,0,1-.08.41,0.55,0.55,0,0,1-.38.18H16.53a0.42,0.42,0,0,1-.44-0.36L14.38,8.59a0.44,0.44,0,0,1,.11-0.41A0.49,0.49,0,0,1,14.89,8h0.7a6.53,6.53,0,0,0,1.87-.36,2.52,2.52,0,0,0,1.21-.9,0.46,0.46,0,0,1,.47-0.18,0.44,0.44,0,0,1,.36.34Z"/>
  <rect class="cls-1" width="22" height="16"/>
</svg>
