<svg id="レイヤー_1" data-name="レイヤー 1" xmlns="http://www.w3.org/2000/svg" width="25" height="16" viewBox="0 0 25 16">
  <defs>
    <style>
      .cls-1 {
        fill: blue;
      }

      .cls-2 {
        fill: none;
      }
    </style>
  </defs>
  <title>icon_wb-auto_b</title>
  <path class="cls-1" d="M24.29,13.2a3.13,3.13,0,0,1-.12.88,2.64,2.64,0,0,1-.33.74,1.27,1.27,0,0,1-1.09.68H2.25a1.27,1.27,0,0,1-1.09-.68,2.61,2.61,0,0,1-.33-0.74A3.13,3.13,0,0,1,.71,13.2V2.82A3.44,3.44,0,0,1,.82,1.93a2.23,2.23,0,0,1,.34-0.75A1.27,1.27,0,0,1,2.25.5H22.75a1.28,1.28,0,0,1,1.09.68,2.65,2.65,0,0,1,.33.75,3.22,3.22,0,0,1,.12.89V13.2Zm-15.74.1L6,2.32H4.52L2,13.31H3.32l0.56-3H6.55l0.56,3H8.55ZM6.18,9.06H4.27L5.22,4.52h0ZM17.57,2.32H16.31L15.08,11.1h0L13.9,2.32H12.11L11,11.1h0L9.76,2.32H8.39l1.74,11h1.68L13,4.52h0l1.18,8.79h1.68ZM23,10.13a3.29,3.29,0,0,0-.41-1.71,1.52,1.52,0,0,0-1.08-.8v0a1.62,1.62,0,0,0,.94-0.82,3.28,3.28,0,0,0,.36-1.62,4.22,4.22,0,0,0-.21-1.46,2.29,2.29,0,0,0-.53-0.85,1.65,1.65,0,0,0-.68-0.4,2.51,2.51,0,0,0-.68-0.11H18.43v11h2.28a2.79,2.79,0,0,0,.71-0.1,1.71,1.71,0,0,0,.75-0.45,2.73,2.73,0,0,0,.6-1A4.59,4.59,0,0,0,23,10.13ZM21.5,5.43a1.74,1.74,0,0,1-.11.68,1,1,0,0,1-.29.4,1,1,0,0,1-.4.19,1.8,1.8,0,0,1-.43.05H19.75V4.06h0.49a3.06,3.06,0,0,1,.46,0,0.89,0.89,0,0,1,.4.17,1,1,0,0,1,.29.41A2.05,2.05,0,0,1,21.5,5.43ZM21.71,10a2.06,2.06,0,0,1-.12.77,1.16,1.16,0,0,1-.32.47,1.14,1.14,0,0,1-.44.23,1.82,1.82,0,0,1-.46.06H19.75V8.4h0.61a1.9,1.9,0,0,1,.48.06,1,1,0,0,1,.43.24,1.26,1.26,0,0,1,.32.5A2.46,2.46,0,0,1,21.71,10Z"/>
  <rect class="cls-2" width="25" height="16"/>
</svg>
