<svg xmlns="http://www.w3.org/2000/svg" width="31" height="16" viewBox="0 0 31 16">
  <defs>
    <style>
      .cls-1 {
        fill: none;
      }
    </style>
  </defs>
  <g id="base">
    <rect class="cls-1" width="31" height="16"/>
  </g>
  <g id="icon">
    <g>
      <path d="M10.73,15a4.26,4.26,0,0,1-.51.24,6.46,6.46,0,0,1-.79.23,7.14,7.14,0,0,1-1,.18,10,10,0,0,1-1.27.07,6.92,6.92,0,0,1-2.53-.46,5.44,5.44,0,0,1-2.11-1.42A6.93,6.93,0,0,1,1,11.43,10.4,10.4,0,0,1,.48,7.88,10.81,10.81,0,0,1,1,4.52,7,7,0,0,1,2.31,2.05,5.75,5.75,0,0,1,4.4.52,6.82,6.82,0,0,1,7.11,0,9.61,9.61,0,0,1,8.36.08a6.64,6.64,0,0,1,1,.21,6.66,6.66,0,0,1,.79.26c.22.09.4.18.55.25l-.14,2.38A4.6,4.6,0,0,0,10,2.83a5,5,0,0,0-.74-.32,6.7,6.7,0,0,0-.83-.23,5.29,5.29,0,0,0-.9-.08,4.13,4.13,0,0,0-1.7.34,3.39,3.39,0,0,0-1.31,1,4.87,4.87,0,0,0-.85,1.77,9,9,0,0,0-.31,2.52,8.87,8.87,0,0,0,.35,2.67,5,5,0,0,0,.91,1.76,3.36,3.36,0,0,0,1.33,1,4.23,4.23,0,0,0,1.58.3,4.58,4.58,0,0,0,.89-.1,7.71,7.71,0,0,0,.89-.24,6.87,6.87,0,0,0,.77-.3,5.55,5.55,0,0,0,.56-.29Z"/>
      <path d="M17.92,7.61a4.49,4.49,0,0,1,.62.17,3.47,3.47,0,0,1,.65.31,3.57,3.57,0,0,1,.63.49,2.87,2.87,0,0,1,.53.69,4.38,4.38,0,0,1,.37,1,5.05,5.05,0,0,1,.14,1.22,4.77,4.77,0,0,1-.31,1.77,3.64,3.64,0,0,1-.9,1.37,4,4,0,0,1-1.53.9,6.74,6.74,0,0,1-2.16.31c-.48,0-.9,0-1.27,0s-.71-.07-1-.12a6.21,6.21,0,0,1-.85-.21c-.25-.08-.51-.18-.77-.29l.18-2.32a6.13,6.13,0,0,0,.71.32c.28.1.58.18.89.26s.64.13,1,.18a7.94,7.94,0,0,0,.95.06,3.17,3.17,0,0,0,.85-.12,2,2,0,0,0,.76-.4,2.16,2.16,0,0,0,.56-.77,3,3,0,0,0,.21-1.21A2.47,2.47,0,0,0,17.89,10a2.13,2.13,0,0,0-.66-.76,2.58,2.58,0,0,0-.91-.4,4.55,4.55,0,0,0-1-.12H13.9V6.6h1.48a5,5,0,0,0,.93-.09,2.22,2.22,0,0,0,.85-.35,1.88,1.88,0,0,0,.61-.69A2.42,2.42,0,0,0,18,4.35a2.5,2.5,0,0,0-.17-1,1.86,1.86,0,0,0-.48-.68,2.08,2.08,0,0,0-.75-.4,3.61,3.61,0,0,0-1-.13,3.36,3.36,0,0,0-.86.12,6.69,6.69,0,0,0-.9.27,8.7,8.7,0,0,0-.8.35l-.6.33L12.33.92A2.57,2.57,0,0,1,12.76.7c.23-.1.51-.2.85-.31A11.42,11.42,0,0,1,14.78.12,7.85,7.85,0,0,1,16.18,0a5.91,5.91,0,0,1,2,.3,4.08,4.08,0,0,1,1.41.83,3.52,3.52,0,0,1,.85,1.24,4.18,4.18,0,0,1,.28,1.55,4.2,4.2,0,0,1-.27,1.59,3.36,3.36,0,0,1-.68,1.1,3.15,3.15,0,0,1-.9.67,3.83,3.83,0,0,1-.9.33Z"/>
      <polygon points="28.53 8.35 30.52 8.35 30.52 16 29.1 16 29.1 10.47 26.99 16 25.78 16 23.66 10.48 23.66 16 22.24 16 22.24 8.35 24.24 8.35 26.37 14.16 28.53 8.35"/>
    </g>
  </g>
</svg>
