<?xml version="1.0" encoding="utf-8"?>
<!-- Generator: Adobe Illustrator 23.0.3, SVG Export Plug-In . SVG Version: 6.00 Build 0)  -->
<svg version="1.1" id="レイヤー_1" xmlns="http://www.w3.org/2000/svg" xmlns:xlink="http://www.w3.org/1999/xlink" x="0px"
	 y="0px" width="20.1px" height="15.9px" viewBox="0 0 20.1 15.9" style="enable-background:new 0 0 20.1 15.9;"
	 xml:space="preserve">
<style type="text/css">
	.st0{fill:none;}
</style>
<g>
	<path d="M15.1,12.3V9.1h1.5v3.2l-0.1,0.5l-0.2,0.5L16,13.8l-0.3,0.4l-0.4,0.3l-0.5,0.3L14.4,15h-0.5H3.8H3.3l-0.5-0.2l-0.5-0.3
		l-0.4-0.3l-0.3-0.4l-0.2-0.5l-0.2-0.5l-0.1-0.5V6l0.1-0.5L1.3,5l0.3-0.5l0.3-0.4l0.4-0.3l0.5-0.3l0.5-0.2l0.5-0.1h6.9v1.5H3.8H3.6
		L3.4,4.9L3.2,5L3,5.1L2.8,5.3L2.7,5.5L2.6,5.8V6v6.4v0.2l0.1,0.2L2.8,13L3,13.2l0.2,0.1l0.2,0.1l0.2,0.1h0.2h10.1h0.2l0.2-0.1
		l0.2-0.1l0.2-0.2l0.2-0.2l0.1-0.2l0.1-0.2V12.3z M9,5.9h0.9l2.4,6.5h-1.8l-0.2-0.6l-0.2-0.6H7.9l-0.2,0.6l-0.2,0.6H5.7l2.4-6.5
		C8.1,5.9,9,5.9,9,5.9z M8.2,10H9h0.7L9,7.7L8.2,10z M16.6,0.8v2.4H19v1.5h-2.4v2.5h-1.5V4.7h-2.4V3.2h2.4V0.8H16.6z"/>
</g>
<rect y="0" class="st0" width="20.1" height="15.9"/>
</svg>
