<svg id="レイヤー_1" data-name="レイヤー 1" xmlns="http://www.w3.org/2000/svg" width="16" height="16" viewBox="0 0 16 16">
  <defs>
    <style>
      .cls-1 {
        fill: none;
      }
    </style>
  </defs>
  <title>icon_func-depth</title>
  <path d="M5.46,10.53h0L0.81,5.88A7.47,7.47,0,0,0,1,10.8H5.75c-0.1-.08-0.2-0.17-0.29-0.26m0-5.07h0l4.66-4.66A7.42,7.42,0,0,0,8,.5,7.49,7.49,0,0,0,5.2,1V5.76a3.26,3.26,0,0,1,.26-0.29M4.41,8h0V1.41A7.55,7.55,0,0,0,1.1,5.05L4.43,8.39c0-.12,0-0.26,0-0.39M8,11.59H1.41A7.51,7.51,0,0,0,5.05,14.9l3.33-3.33L8,11.59m2.53-6.12,4.66,4.65A7.47,7.47,0,0,0,15,5.2H10.25a3.5,3.5,0,0,1,.29.26M8,4.41h6.59A7.53,7.53,0,0,0,10.95,1.1L7.61,4.43,8,4.41m2.53,6.12h0L5.88,15.19A7.46,7.46,0,0,0,10.8,15V10.25a3,3,0,0,1-.26.29M11.59,8v6.59a7.5,7.5,0,0,0,3.31-3.64L11.57,7.61A3.17,3.17,0,0,1,11.59,8Z"/>
  <rect class="cls-1" width="16" height="16"/>
</svg>
