<svg id="レイヤー_1" data-name="レイヤー 1" xmlns="http://www.w3.org/2000/svg" width="21" height="16" viewBox="0 0 21 16">
  <defs>
    <style>
      .cls-1 {
        fill: none;
      }
    </style>
  </defs>
  <title>icon_selftimer-02sec2</title>
  <rect class="cls-1" width="21" height="16"/>
  <path d="M.83,6.67a.9.9,0,0,1,.44-.55A.92.92,0,0,1,2,6a.9.9,0,0,1,.55.42.93.93,0,0,1,.1.71,4.84,4.84,0,0,0-.14,2,5.08,5.08,0,0,0,1.9,3.36,4.91,4.91,0,0,0,1.82.89,5,5,0,0,0,2,.15A5.57,5.57,0,0,0,10.1,13a5,5,0,0,0,1.51-1.28,4.76,4.76,0,0,0,.91-1.81,4.88,4.88,0,0,0,.18-1.41,5.84,5.84,0,0,0-.21-1.39,5.39,5.39,0,0,0-.57-1.28A5.43,5.43,0,0,0,11,4.69a1,1,0,0,1-.3-.64.85.85,0,0,1,.24-.67.94.94,0,0,1,1.3-.06,6.83,6.83,0,0,1,1.25,1.49,7.7,7.7,0,0,1,.78,1.73,7,7,0,0,1,.27,1.88,7.12,7.12,0,0,1-.24,1.94,6.8,6.8,0,0,1-1.24,2.46,7,7,0,0,1-4.58,2.59,7.18,7.18,0,0,1-2.76-.18A7,7,0,0,1,3.24,14a6.82,6.82,0,0,1-1.73-2A7.16,7.16,0,0,1,.65,9.43,6.67,6.67,0,0,1,.83,6.67ZM6.1,9.09a6.55,6.55,0,0,1-.58-.6c-.18-.21-.35-.43-.51-.64L2.64,4.67a.75.75,0,0,1,0-1.08.74.74,0,0,1,1.09,0L6.91,6A12,12,0,0,1,8.16,7l2.28,2.29a1.21,1.21,0,0,1-.11.18L10,9.84l-.56.59-1,1a2.51,2.51,0,0,1-.35-.28l-.73-.69C7.11,10.12,6.67,9.68,6.1,9.09ZM9.59,2.51a1.89,1.89,0,0,1-.16.79A2.26,2.26,0,0,1,9,4a2,2,0,0,1-.64.43,2,2,0,0,1-.79.16,1.94,1.94,0,0,1-.8-.16A2,2,0,0,1,6.12,4a1.89,1.89,0,0,1-.43-.65,2.06,2.06,0,0,1-.15-.79,2.11,2.11,0,0,1,.15-.8,1.85,1.85,0,0,1,.43-.64A2,2,0,0,1,6.76.63a1.94,1.94,0,0,1,.8-.16,2,2,0,0,1,.79.16A2,2,0,0,1,9,1.07a2.21,2.21,0,0,1,.44.64A1.94,1.94,0,0,1,9.59,2.51Zm10.9,11.34v1.38H14.94V13.77l.24-.24.3-.27.37-.37.38-.36.41-.45.4-.44.4-.46.35-.48.3-.48.24-.46.16-.45.06-.42,0-.2,0-.15-.07-.16-.08-.16-.09-.11L18.12,8,18,7.91l-.14-.07-.16,0-.16,0-.16,0H17l-.17,0-.18,0-.16.05-.17,0-.16.06L16,8l-.16.07-.16.08-.14.09-.14.1-.15.09L15.15,7l.19-.13.19-.08.19-.08.21-.06.2-.07.21-.06.22,0,.19,0,.22,0,.23,0,.2,0h.21l.4,0,.33,0,.35.1.3.11.29.16.24.21.19.22.19.25.14.32.1.34.06.38,0,.4,0,.46-.1.46-.16.44-.22.45-.25.43-.31.41-.31.41-.32.42-.37.38-.36.4-.35.33-.35.37Z" transform="translate(-0.03 0.03)"/>
</svg>
