<svg id="レイヤー_1" data-name="レイヤー 1" xmlns="http://www.w3.org/2000/svg" width="44" height="16" viewBox="0 0 44 16">
  <defs>
    <style>
      .cls-1 {
        fill: none;
      }
    </style>
  </defs>
  <title>icon_raw-color-space</title>
  <path d="M18.85,15.29H16.32L15,10.56A1.76,1.76,0,0,0,13.21,9H12.65v6.27H10.22V0.71h4.1q3.91,0,3.91,3.84a4.06,4.06,0,0,1-.64,2.27A2.5,2.5,0,0,1,15.73,8V8a2.06,2.06,0,0,1,1.41,1.71ZM15.77,4.85a1.86,1.86,0,0,0-2.13-2.07h-1v4.3h1A1.93,1.93,0,0,0,15.77,4.85ZM31.56,6.6h-5v2h2.69V13.1a6,6,0,0,1-2.2.26,3.24,3.24,0,0,1-3-1.74A7.37,7.37,0,0,1,23.26,8a6.77,6.77,0,0,1,.89-3.61A3.3,3.3,0,0,1,27.2,2.63a7.35,7.35,0,0,1,3.51,1.05l0.13-2.4A9.18,9.18,0,0,0,27.13.5a5.75,5.75,0,0,0-4.86,2.23A8.39,8.39,0,0,0,20.7,8a8.41,8.41,0,0,0,1.54,5.28,5.82,5.82,0,0,0,4.89,2.2,9.34,9.34,0,0,0,4.43-.76V6.6Zm3.3,8.68h3.49q5,0,5-3.89A3.5,3.5,0,0,0,42.52,9a3.3,3.3,0,0,0-2.21-1.07v0A3.3,3.3,0,0,0,43,4.4Q43,0.71,38.4.71H34.86V15.29ZM36.75,2.42h2a2.76,2.76,0,0,1,1.63.44,2,2,0,0,1,.8,1.73,2,2,0,0,1-1,2,5.38,5.38,0,0,1-2.36.37h-1V2.42Zm0,6.23H38a4.84,4.84,0,0,1,2.3.44,2.2,2.2,0,0,1,1.09,2.12q0,2.36-3.2,2.36H36.75V8.65Zm-30-2.19A5.49,5.49,0,0,0,4.57,6a2,2,0,0,0-1.13.31A1.36,1.36,0,0,0,2.89,7.5,1.58,1.58,0,0,0,4.11,8.76a23.47,23.47,0,0,1,2.27,1A2.81,2.81,0,0,1,7.6,12.22,2.88,2.88,0,0,1,6.4,14.75a4.75,4.75,0,0,1-2.83.75,12,12,0,0,1-2.76-.42l0.2-2a5.09,5.09,0,0,0,2.43.67,2.45,2.45,0,0,0,1.27-.33,1.21,1.21,0,0,0,.65-1.08A1.64,1.64,0,0,0,4.13,11Q2,10.08,1.86,10A2.73,2.73,0,0,1,.64,7.59,3,3,0,0,1,1.81,5,4.19,4.19,0,0,1,4.4,4.29,8,8,0,0,1,7,4.67Z"/>
  <rect class="cls-1" width="44" height="16"/>
</svg>
