<svg id="レイヤー_1" data-name="レイヤー 1" xmlns="http://www.w3.org/2000/svg" width="33" height="16" viewBox="0 0 33 16">
  <defs>
    <style>
      .cls-1 {
        fill: none;
      }
    </style>
  </defs>
  <title>icon_gps-status</title>
  <path d="M31.17,0.67a2.16,2.16,0,0,1,.68.46,2.15,2.15,0,0,1,.62,1.52V13.38a2,2,0,0,1-.17.82,2.15,2.15,0,0,1-1.13,1.13,2.05,2.05,0,0,1-.82.17H2.65a2,2,0,0,1-.82-0.17A2.14,2.14,0,0,1,.69,14.2a2,2,0,0,1-.17-0.82V2.64a2.16,2.16,0,0,1,.62-1.52A2.17,2.17,0,0,1,1.83.67,2,2,0,0,1,2.65.5h27.7A2.05,2.05,0,0,1,31.17.67Zm-18.07,12V7.29h-4V8.85h2.09v2.58a5.1,5.1,0,0,1-1.3.14,3.6,3.6,0,0,1-1.41-.26,2.94,2.94,0,0,1-1.05-.74,3.23,3.23,0,0,1-.66-1.12,4.37,4.37,0,0,1,0-2.82,3.32,3.32,0,0,1,.69-1.15,3.11,3.11,0,0,1,1.12-.76,4,4,0,0,1,1.53-.27,6.85,6.85,0,0,1,1.28.13,5.63,5.63,0,0,1,1.26.4l0.12-1.67A10.12,10.12,0,0,0,11.47,3a9.66,9.66,0,0,0-1.56-.11,6.84,6.84,0,0,0-2.26.35A4.38,4.38,0,0,0,4.89,5.93a6.31,6.31,0,0,0-.38,2.25,5.6,5.6,0,0,0,.39,2.19A4.14,4.14,0,0,0,6,11.92a4.57,4.57,0,0,0,1.71.91,7.66,7.66,0,0,0,2.19.3,8.71,8.71,0,0,0,1.6-.15Q12.32,12.83,13.11,12.62ZM19.3,9a3.36,3.36,0,0,0,1.21-.54,2.59,2.59,0,0,0,.81-1,3.26,3.26,0,0,0,.3-1.47,2.86,2.86,0,0,0-.34-1.47,2.6,2.6,0,0,0-.91-0.92,3.84,3.84,0,0,0-1.31-.47,8.69,8.69,0,0,0-1.54-.13H15V13h2V9.2h0.83A6.41,6.41,0,0,0,19.3,9ZM18.4,4.7A1.64,1.64,0,0,1,19,5a1.3,1.3,0,0,1,.4.48,1.6,1.6,0,0,1,.15.72,1.55,1.55,0,0,1-.15.71,1.16,1.16,0,0,1-.41.46,1.79,1.79,0,0,1-.61.24,3.6,3.6,0,0,1-.71.07H17v-3h0.69A3.31,3.31,0,0,1,18.4,4.7ZM26.8,13A3.48,3.48,0,0,0,28,12.45a2.56,2.56,0,0,0,.8-0.92,3,3,0,0,0,.3-1.39,2.61,2.61,0,0,0-.32-1.35A2.76,2.76,0,0,0,28,7.92a4.86,4.86,0,0,0-1-.54l-1-.41a3.3,3.3,0,0,1-.8-0.46,0.82,0.82,0,0,1-.32-0.68,1.4,1.4,0,0,1,.15-0.68,1.23,1.23,0,0,1,.38-0.43,1.41,1.41,0,0,1,.5-0.22,2.48,2.48,0,0,1,.54-0.06,4.87,4.87,0,0,1,2,.44l0.18-1.63a7.28,7.28,0,0,0-2.35-.37A5.2,5.2,0,0,0,24.87,3a3.1,3.1,0,0,0-1.1.52A2.59,2.59,0,0,0,23,4.5a3.16,3.16,0,0,0-.29,1.42A2.5,2.5,0,0,0,23,7.25a2.7,2.7,0,0,0,.8.83,4.93,4.93,0,0,0,1,.54c0.37,0.14.72,0.28,1,.42a3,3,0,0,1,.8.49,1,1,0,0,1,.32.75,1,1,0,0,1-.17.58,1.35,1.35,0,0,1-.43.4,1.94,1.94,0,0,1-.57.23,2.62,2.62,0,0,1-.59.07,4.08,4.08,0,0,1-1.15-.17A5.23,5.23,0,0,1,23,11l-0.18,1.79,0.65,0.16L24.07,13a5.62,5.62,0,0,0,.6.08c0.21,0,.45,0,0.72,0A5.86,5.86,0,0,0,26.8,13Z"/>
  <rect class="cls-1" width="33" height="16"/>
</svg>
