<svg id="レイヤー_1" data-name="レイヤー 1" xmlns="http://www.w3.org/2000/svg" width="32" height="16" viewBox="0 0 32 16">
  <defs>
    <style>
      .cls-1 {
        fill: none;
      }
    </style>
  </defs>
  <title>icon_le-mf-d</title>
  <g>
    <path d="M9.2,1.5a4.93,4.93,0,0,0-3-1A5,5,0,0,0,2,2.61,9.12,9.12,0,0,0,.5,8.19a9.83,9.83,0,0,0,.65,3.56,6.15,6.15,0,0,0,2,2.72,4.9,4.9,0,0,0,3.06,1,5.07,5.07,0,0,0,2.93-.93,5.76,5.76,0,0,0,2-2.66A10.27,10.27,0,0,0,11.84,8a10.47,10.47,0,0,0-.66-3.83A6,6,0,0,0,9.2,1.5ZM9.6,8a6.79,6.79,0,0,1-1,4,2.85,2.85,0,0,1-4.8,0,6.4,6.4,0,0,1-1-3.84c0-2,.36-3.5,1.06-4.35A3,3,0,0,1,6.19,2.65a2.67,2.67,0,0,1,1.72.61A4.08,4.08,0,0,1,9.15,5.11,8.55,8.55,0,0,1,9.6,8Z"/>
    <polygon points="13.23 15.26 15.42 15.26 15.42 8.92 20.63 8.92 20.63 6.72 15.42 6.72 15.42 2.95 21.43 2.95 21.43 0.75 13.23 0.75 13.23 15.26"/>
    <polygon points="31.5 2.95 31.5 0.75 23.29 0.75 23.29 15.26 25.48 15.26 25.48 8.92 30.69 8.92 30.69 6.72 25.48 6.72 25.48 2.95 31.5 2.95"/>
  </g>
  <rect class="cls-1" width="32" height="16"/>
</svg>
