<svg id="レイヤー_1" data-name="レイヤー 1" xmlns="http://www.w3.org/2000/svg" width="50" height="16" viewBox="0 0 50 16">
  <defs>
    <style>
      .cls-1 {
        fill: #231815;
      }

      .cls-2 {
        fill: none;
      }
    </style>
  </defs>
  <title>icon_ae-lock-af-stop</title>
  <path class="cls-1" d="M17.38,4.3l-2.87,11H16l0.64-2.52h3l0.63,2.52h1.64L19,4.3H17.38ZM17.1,11.05l1.07-4.54h0l1.07,4.54H17.1ZM49.24,6V4.3H45.15v11h1.47V10.48h2.49V8.75H46.62V6h2.62ZM22.88,15.31h1.48V10.48h2.49V8.75H24.36V6H27V4.3H22.88v11Zm17,0h1.48V10.48h2.49V8.75H41.35V6H44V4.3H39.87v11Zm-12.2-3.38h2.77V10.2H27.67v1.73Zm7.25-7.82c-2.34,0-3.61,2.29-3.61,5.66s1.24,5.73,3.61,5.73,3.61-2.4,3.61-5.73S37.22,4.11,34.91,4.11Zm0,9.65c-1.51,0-2.06-2-2.06-4s0.6-3.93,2.06-3.93S37,7.83,37,9.77,36.42,13.76,34.91,13.76ZM11,1.39L9.52,0.5,7.1,4.7,4.69,0.5l-1.52.89,2.4,4.2H0.76V7.36H5.58l-2.4,4.18,1.52,0.89L7.1,8.25l2.41,4.18L11,11.54,8.63,7.36h4.81V5.59H8.63Z"/>
  <rect class="cls-2" width="50" height="16"/>
</svg>
