<?xml version="1.0" encoding="utf-8"?>
<!-- Generator: Adobe Illustrator 21.1.0, SVG Export Plug-In . SVG Version: 6.00 Build 0)  -->
<svg version="1.1" id="レイヤー_1" xmlns="http://www.w3.org/2000/svg" xmlns:xlink="http://www.w3.org/1999/xlink" x="0px"
	 y="0px" width="18.4px" height="16px" viewBox="0 0 18.4 16" style="enable-background:new 0 0 18.4 16;" xml:space="preserve">
<style type="text/css">
	.st0{fill:none;}
</style>
<title>icon_summertime</title>
<rect x="0" y="-0.1" class="st0" width="18.4" height="16"/>
<g>
	<path d="M16.3,3.5h-3.8l-2.1-2.9H5.5L3.8,3.5H2.2C1.5,3.5,0.9,4,0.9,4.7V14c0,0.7,0.6,1.3,1.3,1.3h14.2c0.7,0,1.3-0.6,1.3-1.3V4.7
		C17.6,4,17,3.5,16.3,3.5z M16.3,14H2.2l0-9.3h2.4l1.7-2.9h3.5l2.1,2.9h4.5V14z"/>
	<rect x="3.4" y="6" width="8.9" height="7"/>
</g>
</svg>
