<?xml version="1.0" encoding="utf-8"?>
<!-- Generator: Adobe Illustrator 21.1.0, SVG Export Plug-In . SVG Version: 6.00 Build 0)  -->
<svg version="1.1" id="icon" xmlns="http://www.w3.org/2000/svg" xmlns:xlink="http://www.w3.org/1999/xlink" x="0px" y="0px"
	 width="18px" height="16px" viewBox="0 0 18 16" style="enable-background:new 0 0 18 16;" xml:space="preserve">
<style type="text/css">
	.st0{fill:#040000;}
	.st1{fill:#9FA0A0;}
	.st2{fill:none;}
</style>
<title>icon_wi-fi-on</title>
<g>
	<path class="st0" d="M10.9,13.6c0-1.1-0.9-1.9-1.9-1.9s-1.9,0.9-1.9,1.9c0,1.1,0.9,1.9,1.9,1.9S10.9,14.6,10.9,13.6L10.9,13.6"/>
	<path class="st1" d="M9,9.4c1,0,2,0.4,2.7,1l1-1.2c-2.2-1.8-5.3-1.8-7.5,0l1,1.2C7,9.7,8,9.4,9,9.4"/>
	<path class="st1" d="M9,5.7c1.8,0,3.6,0.7,5,1.8l1-1.3c-3.5-3-8.6-3-12.1,0L4,7.6C5.4,6.4,7.2,5.8,9,5.7"/>
	<path class="st0" d="M9,2.1c2.7,0,5.3,0.9,7.4,2.7l1-1.2c-4.8-4.1-12-4.1-16.8,0l1,1.2C3.6,3.1,6.3,2.1,9,2.1"/>
</g>
<rect y="0" class="st2" width="18" height="16"/>
</svg>
