<svg id="レイヤー_1" data-name="レイヤー 1" xmlns="http://www.w3.org/2000/svg" width="27" height="16" viewBox="0 0 27 16">
  <defs>
    <style>
      .cls-1 {
        fill: #fff;
      }

      .cls-2 {
        fill: none;
      }
    </style>
  </defs>
  <title>icon_btn-magnify</title>
  <g>
    <path d="M26.48,13.93A1.73,1.73,0,0,1,26.1,15a1.15,1.15,0,0,1-.92.46H1.83A1.14,1.14,0,0,1,.91,15a1.76,1.76,0,0,1-.4-1.11V2.07A1.62,1.62,0,0,1,.91,1,1.15,1.15,0,0,1,1.83.5H25.17A1.15,1.15,0,0,1,26.1,1a1.65,1.65,0,0,1,.39,1.12V13.93Z"/>
    <path class="cls-1" d="M19.43,12.83L18.27,14l-3.53-3.53a4.66,4.66,0,0,1-6-.53A4.51,4.51,0,0,1,7.39,6.62a4.5,4.5,0,0,1,1.37-3.3A4.51,4.51,0,0,1,12.07,2a4.49,4.49,0,0,1,3.3,1.37,4.49,4.49,0,0,1,1.37,3.3A4.6,4.6,0,0,1,15.9,9.3ZM15.7,6.62a3.52,3.52,0,0,0-1.06-2.57,3.65,3.65,0,0,0-5.15,0A3.51,3.51,0,0,0,8.42,6.62a3.63,3.63,0,0,0,3.64,3.64,3.53,3.53,0,0,0,2.57-1.06A3.55,3.55,0,0,0,15.7,6.62Z"/>
  </g>
  <rect class="cls-2" width="27" height="16"/>
</svg>
