<svg id="レイヤー_1" data-name="レイヤー 1" xmlns="http://www.w3.org/2000/svg" width="16" height="16" viewBox="0 0 16 16">
  <defs>
    <style>
      .cls-1 {
        fill: none;
      }
    </style>
  </defs>
  <path d="M3.924,8.218A3.612,3.612,0,0,1,6.51,9.289a3.781,3.781,0,0,1,.779,1.164,3.665,3.665,0,0,1,0,2.829,3.67,3.67,0,0,1-.779,1.155A3.66,3.66,0,0,1,3.924,15.5a3.535,3.535,0,0,1-1.415-.285A3.644,3.644,0,0,1,.575,13.282a3.665,3.665,0,0,1,0-2.829,3.781,3.781,0,0,1,.779-1.164A3.594,3.594,0,0,1,2.509,8.5,3.535,3.535,0,0,1,3.924,8.218ZM6.5,11.867a2.518,2.518,0,0,0-.2-1A2.582,2.582,0,0,0,4.928,9.49a2.518,2.518,0,0,0-1-.2,2.464,2.464,0,0,0-1,.2,2.627,2.627,0,0,0-.811.552,2.589,2.589,0,0,0-.553.821,2.518,2.518,0,0,0-.2,1ZM11.641,4.15a3.551,3.551,0,0,1-.284,1.414,3.781,3.781,0,0,1-.779,1.164,3.61,3.61,0,0,1-1.155.787A3.552,3.552,0,0,1,8.008,7.8,3.612,3.612,0,0,1,5.422,6.728a3.781,3.781,0,0,1-.779-1.164A3.551,3.551,0,0,1,4.359,4.15a3.552,3.552,0,0,1,.284-1.415,3.781,3.781,0,0,1,.779-1.164A3.622,3.622,0,0,1,8.008.5,3.535,3.535,0,0,1,9.423.785a3.592,3.592,0,0,1,1.155.786,3.781,3.781,0,0,1,.779,1.164A3.552,3.552,0,0,1,11.641,4.15ZM10.419,5a2.4,2.4,0,0,0,.151-.853,2.523,2.523,0,0,0-.2-1.005A2.591,2.591,0,0,0,9,1.772a2.48,2.48,0,0,0-.988-.2,2.518,2.518,0,0,0-1,.2A2.591,2.591,0,0,0,5.631,3.145a2.523,2.523,0,0,0-.2,1.005A2.4,2.4,0,0,0,5.581,5Zm1.657,3.215a3.535,3.535,0,0,1,1.415.284,3.594,3.594,0,0,1,1.155.787,3.781,3.781,0,0,1,.779,1.164,3.665,3.665,0,0,1,0,2.829,3.644,3.644,0,0,1-1.934,1.933,3.653,3.653,0,0,1-2.829,0A3.76,3.76,0,0,1,9.5,14.437a3.61,3.61,0,0,1-.787-1.155,3.665,3.665,0,0,1,0-2.829A3.7,3.7,0,0,1,10.662,8.5,3.533,3.533,0,0,1,12.076,8.218Zm0,6.211a2.523,2.523,0,0,0,1-.2,2.52,2.52,0,0,0,1.356-1.356,2.611,2.611,0,0,0,0-2.009,2.667,2.667,0,0,0-.544-.821,2.582,2.582,0,0,0-2.821-.552A2.582,2.582,0,0,0,9.7,10.863a2.553,2.553,0,0,0,.553,2.821,2.668,2.668,0,0,0,.82.544A2.518,2.518,0,0,0,12.076,14.429Z"/>
  <rect class="cls-1" width="16" height="16"/>
</svg>
