<svg id="icon" xmlns="http://www.w3.org/2000/svg" width="19.2" height="16" viewBox="0 0 19.2 16">
  <g>
    <path d="M2.42,13.57V6.16H5.48V7.23H3.55V9.18H5.36v1.06H3.55v3.33Z"/>
    <path d="M6.36,13.57V6.16H7.85c1.38,0,2.07.73,2.07,2.17a1.88,1.88,0,0,1-2.07,2.16H7.5v3.08Zm1.48-4.1a.84.84,0,0,0,.72-.29,1.39,1.39,0,0,0,.22-.85,1.35,1.35,0,0,0-.22-.85.82.82,0,0,0-.72-.3H7.5V9.47Z"/>
    <path d="M10.53,12.13l.25.18.31.16.35.11a1.58,1.58,0,0,0,.38.05,1,1,0,0,0,.36-.07,1,1,0,0,0,.29-.2.91.91,0,0,0,.19-.3,1.13,1.13,0,0,0,.07-.39,1.15,1.15,0,0,0-.06-.37,1,1,0,0,0-.16-.31,1.83,1.83,0,0,0-.27-.3c-.11-.09-.24-.2-.38-.3a5.25,5.25,0,0,1-.6-.48,3,3,0,0,1-.44-.51,2.13,2.13,0,0,1-.28-.59,2.63,2.63,0,0,1-.09-.72,2.47,2.47,0,0,1,.13-.84A1.81,1.81,0,0,1,11,6.61a1.61,1.61,0,0,1,.58-.41,1.77,1.77,0,0,1,.73-.15,4.09,4.09,0,0,1,.53,0,2.91,2.91,0,0,1,.4.1,1.26,1.26,0,0,1,.28.11.75.75,0,0,1,.17.1l-.07,1.12-.19-.14a1.69,1.69,0,0,0-.27-.13l-.31-.11a1.34,1.34,0,0,0-.35,0,.92.92,0,0,0-.33.06.8.8,0,0,0-.28.2,1,1,0,0,0-.19.29,1.16,1.16,0,0,0-.06.38,1.4,1.4,0,0,0,0,.37,1.05,1.05,0,0,0,.15.3,1.43,1.43,0,0,0,.27.29,4.51,4.51,0,0,0,.42.32c.2.15.39.29.56.44a2.57,2.57,0,0,1,.44.49,2.22,2.22,0,0,1,.29.62,2.78,2.78,0,0,1,.11.81,2.39,2.39,0,0,1-.14.82,1.89,1.89,0,0,1-.38.63,1.65,1.65,0,0,1-.6.41,1.94,1.94,0,0,1-.78.15,2.86,2.86,0,0,1-.53,0,2.26,2.26,0,0,1-.41-.09,2,2,0,0,1-.32-.12l-.27-.13Z"/>
  </g>
  <polygon points="17.07 0.53 14.93 4.27 19.2 4.27 17.07 0.53"/>
  <path d="M17.07,12.82,14.93,9.08v5.85H1.07V4.8H13.4l.91-1.6H12.25L10.72.55A1.06,1.06,0,0,0,9.87,0H5.6a1,1,0,0,0-.85.55L3.22,3.2H1.6A1.6,1.6,0,0,0,0,4.8v9.6A1.6,1.6,0,0,0,1.6,16H16.53a1.6,1.6,0,0,0,1.6-1.6V11ZM5.6,1.07H9.87V3.73H5.6Z"/>
  <polygon points="19.2 6.93 14.93 6.93 17.07 10.67 19.2 6.93"/>
</svg>
