<svg id="icon" xmlns="http://www.w3.org/2000/svg" width="22" height="16" viewBox="0 0 22 16">
  <defs>
    <style>
      .cls-1 {
        fill: none;
      }
    </style>
  </defs>
  <rect class="cls-1" width="22" height="16"/>
  <g>
    <path d="M12.7,12a4.5,4.5,0,0,1,7.85-3A3.33,3.33,0,0,0,17.8,6.12a3.36,3.36,0,0,0-2.57-4,3.23,3.23,0,0,0-1.69.07v.11a4.83,4.83,0,0,1-.39,2,5.8,5.8,0,0,0-.51-1.64A3.94,3.94,0,0,0,5.26,4.06a4.37,4.37,0,0,0,.18,8.7h7.33A4.53,4.53,0,0,1,12.7,12Z"/>
    <path d="M17.2,8.61A3.41,3.41,0,1,0,20.61,12,3.41,3.41,0,0,0,17.2,8.61ZM16.67,14,15.09,12.4l.75-.75.83.83,2.15-2.15.75.75Z"/>
  </g>
</svg>
