<svg id="icon" xmlns="http://www.w3.org/2000/svg" width="37.87" height="16" viewBox="0 0 37.87 16">
  <defs>
    <style>
      .cls-1 {
        fill: #231815;
      }
    </style>
  </defs>
  <path class="cls-1" d="M35.34,7.6a4,4,0,0,1,.85.46,3.59,3.59,0,0,1,.82.79A4,4,0,0,1,37.62,10a4.65,4.65,0,0,1,.25,1.61,5.58,5.58,0,0,1-.31,1.91,3.79,3.79,0,0,1-.87,1.36,3.45,3.45,0,0,1-1.33.83,5,5,0,0,1-1.69.27,5.14,5.14,0,0,1-1.7-.27,3.56,3.56,0,0,1-1.33-.81,3.6,3.6,0,0,1-.86-1.37,5.37,5.37,0,0,1-.31-1.92,4.85,4.85,0,0,1,.24-1.6,3.92,3.92,0,0,1,.61-1.17,3.23,3.23,0,0,1,.81-.8A4.23,4.23,0,0,1,32,7.6h0a3.56,3.56,0,0,1-.73-.34,2.86,2.86,0,0,1-.74-.63,3.75,3.75,0,0,1-.58-1,4.15,4.15,0,0,1-.23-1.5A4.67,4.67,0,0,1,30,2.5a3.89,3.89,0,0,1,.78-1.3A3.77,3.77,0,0,1,32,.32,4.23,4.23,0,0,1,33.67,0a4.33,4.33,0,0,1,1.72.31,3.49,3.49,0,0,1,1.24.86,3.6,3.6,0,0,1,.76,1.3,5.3,5.3,0,0,1,.25,1.63,4.14,4.14,0,0,1-.23,1.46,3.36,3.36,0,0,1-.56,1,3.29,3.29,0,0,1-.75.66A4.78,4.78,0,0,1,35.34,7.6Zm-1.67,1a2,2,0,0,0-.73.15,1.86,1.86,0,0,0-.66.48,2.71,2.71,0,0,0-.47.86,3.68,3.68,0,0,0-.19,1.28,3.7,3.7,0,0,0,.16,1.16,2.36,2.36,0,0,0,.43.82,1.72,1.72,0,0,0,.65.49,2.16,2.16,0,0,0,.81.15,2.11,2.11,0,0,0,.8-.15,1.77,1.77,0,0,0,.64-.49,2.35,2.35,0,0,0,.42-.82,4,4,0,0,0,.15-1.16,4,4,0,0,0-.18-1.28A2.71,2.71,0,0,0,35,9.24a1.75,1.75,0,0,0-.65-.48A1.81,1.81,0,0,0,33.67,8.61Zm1.79-4.32A2.62,2.62,0,0,0,35,2.57,1.63,1.63,0,0,0,33.67,2a1.69,1.69,0,0,0-1.34.57,2.56,2.56,0,0,0-.49,1.72,3,3,0,0,0,.22,1.26,1.89,1.89,0,0,0,.51.73,1.47,1.47,0,0,0,.61.33,1.77,1.77,0,0,0,.49.09,1.84,1.84,0,0,0,.48-.09,1.41,1.41,0,0,0,.59-.33,1.89,1.89,0,0,0,.51-.73A3.18,3.18,0,0,0,35.46,4.29Z"/>
  <path class="cls-1" d="M12.72,4.83h-2V2.64h2Zm0,8.53h-2V11.17h2Z"/>
  <path class="cls-1" d="M2.49,1V13H7V15H0V1Z"/>
  <path class="cls-1" d="M16.07,15h11V1C21,1,16.07,7.27,16.07,15Z"/>
</svg>
