<?xml version="1.0" encoding="utf-8"?>
<!-- Generator: Adobe Illustrator 21.1.0, SVG Export Plug-In . SVG Version: 6.00 Build 0)  -->
<svg version="1.1" id="レイヤー_1" xmlns="http://www.w3.org/2000/svg" xmlns:xlink="http://www.w3.org/1999/xlink" x="0px"
	 y="0px" width="23px" height="16px" viewBox="0 0 23 16" style="enable-background:new 0 0 23 16;" xml:space="preserve">
<style type="text/css">
	.st0{fill:#0000FF;}
	.st1{fill:none;}
</style>
<title>icon_mode-mov-aperture</title>
<path class="st0" d="M3.2,5.3v3.4l-2.4,1.3V4.2L3.2,5.3z M13.5,8L14,9.6c0,0.3-0.1,0.7-0.4,0.9c-0.2,0.3-0.5,0.4-0.8,0.4H5.3
	c-0.3,0-0.6-0.2-0.8-0.4c-0.2-0.2-0.3-0.6-0.3-0.9V5.5c0-0.3,0.1-0.7,0.3-0.9C4.7,4.3,5,4.2,5.3,4.2h5.1l-2,5.4h3.2L12.2,8H13.5z
	 M8.1,11.8L8.1,11.8L6,15.5l-1-0.7l1.7-2.9C6.7,11.8,8.1,11.8,8.1,11.8z M14.5,0.5l3,8.1h-1.8l-0.6-1.8h-3l-0.7,1.8H9.6l3.1-8.1
	H14.5z M11.4,11.8l1.7,3l-1,0.7L10,11.9l0.1-0.1C10.1,11.8,11.4,11.8,11.4,11.8z M12.6,5.5h2.1l-1-3l0,0L12.6,5.5z M20.6,2.7h1.6
	l-2,5.9h-1.8l-2-5.9H18l1.2,4l0,0L20.6,2.7z"/>
<rect y="0" class="st1" width="23" height="16"/>
</svg>
