<svg id="icon" xmlns="http://www.w3.org/2000/svg" width="23.31" height="16" viewBox="0 0 23.31 16">
  <path d="M23.31,5.71l-2.74-2V5H15.31a1.6,1.6,0,0,0-1.6,1.6v4.8h1.38V6.63a.22.22,0,0,1,.22-.23h5.26V7.77Z"/>
  <path d="M7.53,0a3,3,0,0,0,0,5.9A2.93,2.93,0,0,0,10.44,3,2.93,2.93,0,0,0,7.53,0Z"/>
  <path d="M13.71,13.94,16.46,16V14.63h5.25a1.6,1.6,0,0,0,1.6-1.6V8.23H21.94V13a.23.23,0,0,1-.23.23H16.46V11.89Z"/>
  <path d="M13.17,13.21l1.11-.83,0,0h-.55a.91.91,0,0,1-.91-.91V9.11L12.75,9h.05V6.59l-1.58-.23a3.79,3.79,0,0,0-1.21,0,1.73,1.73,0,0,1-1.7,1.73,1.63,1.63,0,0,1-.93-.29L4.44,10.08,2,7.9A1.16,1.16,0,0,0,.29,8,1.19,1.19,0,0,0,.41,9.7l3.22,2.82a1.17,1.17,0,0,0,.77.29,1.15,1.15,0,0,0,.72-.25l2.24-1.74,1.4,2.94h4.06A1,1,0,0,1,13.17,13.21Z"/>
</svg>
