<svg id="レイヤー_1" data-name="レイヤー 1" xmlns="http://www.w3.org/2000/svg" width="18" height="18" viewBox="0 0 18 18">
  <defs>
    <style>
      .cls-1 {
        fill: none;
      }
    </style>
  </defs>
  <title>icon_ps-contrast</title>
  <rect class="cls-1" width="18" height="18"/>
  <path d="M9,0.6a7.54,7.54,0,0,1,3.3.7,9,9,0,0,1,4.5,4.5,8.84,8.84,0,0,1,.7,3.3,7.84,7.84,0,0,1-.7,3.3,9,9,0,0,1-4.5,4.5,9.28,9.28,0,0,1-3.3.7,7.84,7.84,0,0,1-3.3-.7,9,9,0,0,1-4.5-4.5A8.84,8.84,0,0,1,.5,9.1a7.84,7.84,0,0,1,.7-3.3A9,9,0,0,1,5.7,1.3,7.84,7.84,0,0,1,9,.6ZM9,1.4V16.6a8,8,0,0,0,3-.6,7.76,7.76,0,0,0,2.4-1.6A7.76,7.76,0,0,0,16,12a7.31,7.31,0,0,0,.6-3A7.17,7.17,0,0,0,16,6.1,8,8,0,0,0,12,2,8,8,0,0,0,9,1.4Z"/>
</svg>
