<?xml version="1.0" encoding="UTF-8"?>
<svg xmlns="http://www.w3.org/2000/svg" width="10mm" height="5.64mm" version="1.1" viewBox="0 0 28.35 16">
  <!-- Generator: Adobe Illustrator 29.2.1, SVG Export Plug-In . SVG Version: 2.1.0 Build 116)  -->
  <defs>
    <style>
      .st0 {
        stroke-width: .5px;
      }

      .st0, .st1, .st2, .st3, .st4 {
        stroke: #fff;
      }

      .st0, .st1, .st3 {
        stroke-miterlimit: 10;
      }

      .st0, .st2, .st5, .st4 {
        stroke-linecap: round;
      }

      .st0, .st3, .st4 {
        fill: #fff;
      }

      .st1, .st3, .st4 {
        stroke-width: .25px;
      }

      .st2 {
        stroke-width: .75px;
      }

      .st2, .st5, .st4 {
        stroke-linejoin: round;
      }

      .st5 {
        stroke: #000;
      }
    </style>
  </defs>
  <g id="_x30_1">
    <polygon class="st5" points="8.81 1.88 1.14 14.62 16.66 14.62 8.81 1.88"/>
    <path class="st0" d="M9.38,10.65c0,.61-.23,1.23-.61,1.69l-.31-.31c.31-.38.46-.84.46-1.38,0-.38-.08-.77-.31-1.07-.23-.38-.38-.77-.38-1.23,0-.61.23-1.23.61-1.69l.31.31c-.23.31-.46.84-.46,1.38,0,.38.08.69.23,1,.31.38.46.84.46,1.3h0Z"/>
    <path class="st0" d="M11.09,10.65c0,.61-.23,1.23-.61,1.69l-.31-.31c.31-.38.54-.84.54-1.38,0-.38-.08-.77-.31-1.07-.23-.38-.38-.77-.38-1.23,0-.61.23-1.23.61-1.69l.31.31c-.31.38-.54.84-.54,1.38,0,.38.08.69.23,1,.31.38.46.84.46,1.3h0Z"/>
    <path class="st0" d="M7.6,10.65c0,.61-.23,1.23-.61,1.69l-.31-.31c.31-.38.46-.84.46-1.38,0-.38-.08-.77-.31-1.07-.23-.38-.38-.77-.38-1.23,0-.61.23-1.23.61-1.69l.31.31c-.23.31-.46.84-.46,1.38,0,.31.08.69.31,1,.23.38.38.84.38,1.3h0Z"/>
    <polygon class="st4" points="5.07 13.04 12.73 13.04 12.73 13.6 5.07 13.6 5.07 13.04"/>
  </g>
  <g id="_x30_2">
    <path class="st1" d="M20.74,1.74s1.05-.01.95,1.02c0,0,1.4-.29,1.7.76v.84s1.88-.37,1.88,1.37v5.59l-1.77,2.94h-4.4l-3.77-5.55c-.59-1.62.55-1.91.55-1.91,0,0,2.18-.65,2.21,2.31V3.16c.1-.88,1.61-.58,1.61-.58,0-.96,1.04-.84,1.04-.84Z"/>
    <line class="st3" x1="19.7" y1="6.46" x2="19.7" y2="2.65"/>
    <line class="st3" x1="21.66" y1="7.32" x2="21.66" y2="2.8"/>
    <line class="st3" x1="23.38" y1="8.71" x2="23.38" y2="4.45"/>
    <polygon class="st2" points="15.66 2.43 26.86 13.73 25.65 15.11 14.45 3.81 15.66 2.43"/>
  </g>
</svg>