<?xml version="1.0" encoding="utf-8"?>
<!-- Generator: Adobe Illustrator 21.1.0, SVG Export Plug-In . SVG Version: 6.00 Build 0)  -->
<svg version="1.1" id="レイヤー_1" xmlns="http://www.w3.org/2000/svg" xmlns:xlink="http://www.w3.org/1999/xlink" x="0px"
	 y="0px" width="32.8px" height="16px" viewBox="0 0 32.8 16" style="enable-background:new 0 0 32.8 16;" xml:space="preserve">
<style type="text/css">
	.st0{fill:none;}
</style>
<title>icon_summertime</title>
<rect class="st0" width="32.8" height="16"/>
<g>
	<path d="M30.7,3.5h-4l-1.9-2.9h-4.9l-1.7,2.9h-1.7c-0.7,0-1.3,0.6-1.3,1.3v3.6h-1.1V7.1c0-0.7-0.6-1.3-1.3-1.3H2.1
		c-0.7,0-1.3,0.6-1.3,1.3v7c0,0.7,0.6,1.3,1.3,1.3h10.8c0.7,0,1.3-0.6,1.3-1.3v-1.3h1.1v1.3c0,0.7,0.6,1.3,1.3,1.3h14.2
		c0.7,0,1.3-0.6,1.3-1.3V4.7C32,4,31.4,3.5,30.7,3.5z M12.9,14H2.1l0-7h10.8L12.9,14z M30.7,14.1l-14.2,0l0-9.4h2.4l1.7-2.9h3.5
		L26,4.7h4.7V14.1z"/>
	<rect x="3.4" y="8.3" width="8" height="4.5"/>
</g>
</svg>
