<svg xmlns="http://www.w3.org/2000/svg" width="20" height="16" viewBox="0 0 20 16">
  <defs>
    <style>
      .cls-1 {
        fill: none;
      }

      .cls-2 {
        fill: #fff;
      }
    </style>
  </defs>
  <g id="frame">
    <rect class="cls-1" width="20" height="16"/>
  </g>
  <g id="_w">
    <path class="cls-2" d="M19,4a1.61,1.61,0,0,1,.49,1.19v8.59A1.6,1.6,0,0,1,19,15a1.63,1.63,0,0,1-1.18.48H2.19A1.6,1.6,0,0,1,1,15a1.61,1.61,0,0,1-.49-1.19V5.24A1.66,1.66,0,0,1,2.18,3.52H6.06V3a1.65,1.65,0,0,1,.29-.89A3.88,3.88,0,0,1,7.9.72,1.64,1.64,0,0,1,8.61.5h2.86a1.45,1.45,0,0,1,.67.23,4.39,4.39,0,0,1,.84.59,4.21,4.21,0,0,1,.71.81A1.53,1.53,0,0,1,14,3v.56h3.87A1.64,1.64,0,0,1,19,4Zm-9,9a3.87,3.87,0,0,0,2.78-1.15,3.93,3.93,0,0,0,.84-1.25,3.91,3.91,0,0,0,0-3,4,4,0,0,0-.84-1.26,3.91,3.91,0,0,0-5.53,0l0,0A3.94,3.94,0,0,0,6.4,7.63a4,4,0,0,0,0,3.05,4.23,4.23,0,0,0,.84,1.25A3.86,3.86,0,0,0,10,13.08Z"/>
  </g>
</svg>
