<svg id="レイヤー_1" data-name="レイヤー 1" xmlns="http://www.w3.org/2000/svg" width="25" height="16" viewBox="0 0 25 16">
  <defs>
    <style>
      .cls-1 {
        fill: none;
      }
    </style>
  </defs>
  <title>icon_lens-on</title>
  <path d="M11.79,7.87a9.4,9.4,0,0,1-1.45,5.73A4.81,4.81,0,0,1,6.28,15.5a4.67,4.67,0,0,1-3.91-2,7.06,7.06,0,0,1-1.08-2.31A11.46,11.46,0,0,1,.91,8.15,9.41,9.41,0,0,1,2.37,2.43,4.81,4.81,0,0,1,6.44.5,4.75,4.75,0,0,1,8.66,1a4.79,4.79,0,0,1,1.68,1.47,7.2,7.2,0,0,1,1.07,2.31A11.48,11.48,0,0,1,11.79,7.87Zm-1.93,0a12.26,12.26,0,0,0-.19-2.17,7,7,0,0,0-.59-1.87A3.66,3.66,0,0,0,8,2.51,2.54,2.54,0,0,0,6.44,2a3.07,3.07,0,0,0-1.39.32,3,3,0,0,0-1.13,1,5.9,5.9,0,0,0-.77,1.9,12.3,12.3,0,0,0-.29,2.87A12.85,12.85,0,0,0,3,10.32a6.79,6.79,0,0,0,.59,1.87,3.62,3.62,0,0,0,1.06,1.31,2.57,2.57,0,0,0,1.59.5,3,3,0,0,0,1.37-.32,3.07,3.07,0,0,0,1.14-1,5.77,5.77,0,0,0,.78-1.89A12.27,12.27,0,0,0,9.86,7.87Zm14.23,7.49H21.78l-5.55-12h0v12H14.42V0.64h2.31L22.27,12.8h0.05V0.64h1.77V15.35Z"/>
  <rect class="cls-1" width="25" height="16"/>
</svg>
