<svg id="レイヤー_1" data-name="レイヤー 1" xmlns="http://www.w3.org/2000/svg" width="33" height="16" viewBox="0 0 33 16">
  <defs>
    <style>
      .cls-1 {
        fill: none;
      }
    </style>
  </defs>
  <title>icon_pic-style-d</title>
  <rect class="cls-1" width="33" height="16"/>
  <path d="M32.18,15.5H0.82V0.5H32.18v15Zm-1.12-1.09V1.62H1.95V14.41h29.1ZM9.49,9.29L4.26,11.2,2.77,8.85,7.68,7.24ZM8.14,8.92L7.75,8.48,7.46,8.17l-0.62.2-0.9.29L4.92,9,4,9.31,4.3,9.82c0.08,0.12.17,0.26,0.26,0.42L5.23,10l0.9-.32,1-.37Zm1.7-3.75L8.12,6.52,4.67,5.25,6.49,4Zm4.4,7.95H10l0.32-3.55H14ZM13.58,4.9h-2.9l0.19-2H13.4Zm6,0.35L16.16,6.52,14.44,5.17,17.79,4Zm1.67,3.68L20,11,15.07,9.22l1.6-1.82ZM25.14,4H23.37V7.24H25V8.62H23.37v5H22V2.66h3.14V4Zm5.09,5.7A4.27,4.27,0,0,1,30,11.16a4.05,4.05,0,0,1-.62,1.17,3.61,3.61,0,0,1-.92.84,2.67,2.67,0,0,1-1.14.4v0H25.95V2.66h1v0H27.3v0a2.81,2.81,0,0,1,1.15.4,3.34,3.34,0,0,1,.93.84A4.16,4.16,0,0,1,30,5.09a4.26,4.26,0,0,1,.23,1.41V9.74Zm-1.18-.49V7A5.46,5.46,0,0,0,29,5.94a2.83,2.83,0,0,0-.31-0.86,1.73,1.73,0,0,0-.54-0.59,1.4,1.4,0,0,0-.8-0.22V12a1.39,1.39,0,0,0,.8-0.22,1.71,1.71,0,0,0,.54-0.59A2.83,2.83,0,0,0,29,10.31,5.47,5.47,0,0,0,29.05,9.25Z"/>
</svg>
