<svg xmlns="http://www.w3.org/2000/svg" width="48" height="16" viewBox="0 0 48 16">
  <defs>
    <style>
      .cls-1 {
        fill: none;
      }
    </style>
  </defs>
  <g id="frame">
    <rect class="cls-1" width="48" height="16"/>
  </g>
  <g id="icon">
    <path d="M13.26,15.5H11.09V4.82L7.88,15.5H6L2.81,4.84V15.5H.65V.74h3L6.94,12,10.22.74h3Zm6.48-6.36H15.37V7.22h4.37Zm8.73-6.36H24.28V7h3.9V9h-3.9V15.5H21.89V.74h6.58ZM37.86,15.5H35.57V8.58a5.21,5.21,0,0,0-.27-1.93,1,1,0,0,0-1-.62,1.65,1.65,0,0,0-.75.16,1.38,1.38,0,0,0-.56.49,2.79,2.79,0,0,0-.36.85,5.63,5.63,0,0,0-.12,1.25V15.5H30.24V4h2.21V5.26a4.81,4.81,0,0,1,.4-.52,3.36,3.36,0,0,1,.49-.44A2.55,2.55,0,0,1,33.93,4a1.91,1.91,0,0,1,.68-.12,4,4,0,0,1,1.32.21,2.45,2.45,0,0,1,1,.68A3.16,3.16,0,0,1,37.62,6a5.9,5.9,0,0,1,.24,1.8Zm9.49,0H39.88v-2l1-1.25c.37-.46.75-.94,1.12-1.44s.74-1,1.09-1.54a17,17,0,0,0,.92-1.55,9.59,9.59,0,0,0,.65-1.5A4.28,4.28,0,0,0,45,4.85a2.89,2.89,0,0,0-.39-1.65,1.4,1.4,0,0,0-1.22-.56,2.75,2.75,0,0,0-.71.1,5.35,5.35,0,0,0-.79.28,6.73,6.73,0,0,0-.76.38,7.57,7.57,0,0,0-.63.43l-.29-2.3a3.84,3.84,0,0,1,.67-.41,4.79,4.79,0,0,1,.83-.33A6.79,6.79,0,0,1,42.6.58a6.63,6.63,0,0,1,1-.08,4.5,4.5,0,0,1,1.45.22,3,3,0,0,1,1.17.71A3.29,3.29,0,0,1,47,2.67a5.1,5.1,0,0,1,.28,1.81,6.65,6.65,0,0,1-.21,1.64,9.83,9.83,0,0,1-.56,1.66,13.68,13.68,0,0,1-.82,1.62c-.32.54-.65,1-1,1.52s-.71.94-1.07,1.36-.72.8-1.06,1.14h4.79Z"/>
  </g>
</svg>
