<svg id="レイヤー_1" data-name="レイヤー 1" xmlns="http://www.w3.org/2000/svg" width="37" height="16" viewBox="0 0 37 16">
  <defs>
    <style>
      .cls-1 {
        fill: none;
      }
    </style>
  </defs>
  <path d="M34.51.5a1.65,1.65,0,0,1,.69.15,1.67,1.67,0,0,1,.58.4,1.79,1.79,0,0,1,.39.59,1.8,1.8,0,0,1,.15.73V13.63A1.92,1.92,0,0,1,35.78,15a1.67,1.67,0,0,1-.58.4,1.65,1.65,0,0,1-.69.15h-32a1.65,1.65,0,0,1-.69-.15,1.67,1.67,0,0,1-.58-.4,1.92,1.92,0,0,1-.54-1.32V2.37a1.8,1.8,0,0,1,.15-.73,1.79,1.79,0,0,1,.39-.59A1.67,1.67,0,0,1,1.8.65,1.65,1.65,0,0,1,2.49.5ZM9.8,11.34A4.09,4.09,0,0,0,10,9.93a4.55,4.55,0,0,0-.18-1.37,3,3,0,0,0-.5-1.08,2.37,2.37,0,0,0-.84-.72,2.68,2.68,0,0,0-1.15-.23,1.85,1.85,0,0,0-1.56.75A5.36,5.36,0,0,1,6,5.94a5,5,0,0,1,.42-1A3.54,3.54,0,0,1,7,4.25,1.43,1.43,0,0,1,7.77,4h.3a1.26,1.26,0,0,1,.27,0l.43.11.2.08.17.09a.56.56,0,0,1,.17.09l.14.09L9.58,3a4.58,4.58,0,0,0-.82-.29,6.28,6.28,0,0,0-1.08-.08A3.25,3.25,0,0,0,6,3.08,3.23,3.23,0,0,0,4.86,4.29a6.18,6.18,0,0,0-.65,1.83A13.54,13.54,0,0,0,4,8.43a10.84,10.84,0,0,0,.17,2A5.52,5.52,0,0,0,4.73,12a3.05,3.05,0,0,0,1,1,2.58,2.58,0,0,0,1.43.37,2.6,2.6,0,0,0,1.15-.24,2.36,2.36,0,0,0,.92-.7A3.3,3.3,0,0,0,9.8,11.34ZM8,8.5a2.81,2.81,0,0,1,.21.66c0,.13,0,.25,0,.37s0,.24,0,.37A2.86,2.86,0,0,1,8,11.45a1,1,0,0,1-.9.52.81.81,0,0,1-.51-.15,1.25,1.25,0,0,1-.4-.42A1.37,1.37,0,0,1,6,11.08c0-.12-.08-.24-.12-.38l-.06-.46a4.12,4.12,0,0,1,0-.51A3.25,3.25,0,0,1,5.88,9c0-.12.08-.23.12-.32a1,1,0,0,1,.16-.26A1.1,1.1,0,0,1,6.56,8a.88.88,0,0,1,.51-.13.94.94,0,0,1,.57.17,1,1,0,0,1,.21.2ZM18.59,7.37H15.11V8.8h1.78v2.78l-.09.06a.22.22,0,0,0-.09.07l-.22.11-.28.07-.19,0h-.23a2.63,2.63,0,0,1-1.1-.24,2.3,2.3,0,0,1-.88-.73,3.49,3.49,0,0,1-.57-1.21A6.45,6.45,0,0,1,13,8a6.46,6.46,0,0,1,.22-1.74A4.16,4.16,0,0,1,13.87,5a2.74,2.74,0,0,1,.91-.71,2.58,2.58,0,0,1,1.14-.24,4.74,4.74,0,0,1,.79.07l.34.09.33.08.3.12.27.12.24.13a1.32,1.32,0,0,1,.2.12l.09-1.63L18.13,3l-.56-.17-.36-.07-.39-.07a7,7,0,0,0-1-.06,5.43,5.43,0,0,0-.92.08,3.72,3.72,0,0,0-.87.23,4,4,0,0,0-1.48,1,4.44,4.44,0,0,0-1,1.68A6.79,6.79,0,0,0,11.19,8a6.71,6.71,0,0,0,.39,2.42A4.19,4.19,0,0,0,14,13.05a5.5,5.5,0,0,0,1.77.31l.54,0a3.35,3.35,0,0,0,.47-.06,3.71,3.71,0,0,0,.78-.2,1.69,1.69,0,0,0,.32-.11,2.18,2.18,0,0,0,.27-.11l.22-.12.18-.1Zm8.28-4.56H25.11V7.08H22.2V2.81H20.44v10.4H22.2V8.61h2.91v4.6h1.76Zm6.32,9h-3l2.95-5.26V5.13H28.39v1.4H31.3l-3,5.25v1.43h4.85Z"/>
  <rect class="cls-1" width="37" height="16"/>
</svg>
