<svg id="レイヤー_1" data-name="レイヤー 1" xmlns="http://www.w3.org/2000/svg" width="18" height="16" viewBox="0 0 18 16">
  <defs>
    <style>
      .cls-1 {
        fill: none;
      }
    </style>
  </defs>
  <path d="M11.45,4.05H6.55l2.5-2.6Zm3.19,2.47a1.15,1.15,0,0,1,.58.59,1,1,0,0,1,.09.42v5.93a1,1,0,0,1-.09.42,1.1,1.1,0,0,1-.58.58,1,1,0,0,1-.42.09H3.78a1,1,0,0,1-.42-.09A.88.88,0,0,1,3,14.22a1,1,0,0,1-.22-.34,1,1,0,0,1-.09-.42V7.55a1.17,1.17,0,0,1,.09-.45,1.1,1.1,0,0,1,.58-.58,1.07,1.07,0,0,1,.43-.09H6.15L7,5H7a.73.73,0,0,1,.45-.39h2.88a.62.62,0,0,1,.37.11A.73.73,0,0,1,11,5h0l.83,1.48h2.42A1,1,0,0,1,14.64,6.52Zm-4,1.66H4.44v4.66h6.18V8.18Z"/>
  <rect class="cls-1" width="18" height="16"/>
</svg>
