<svg id="レイヤー_1" data-name="レイヤー 1" xmlns="http://www.w3.org/2000/svg" width="20" height="16" viewBox="0 0 20 16">
  <defs>
    <style>
      .cls-1 {
        fill: none;
      }
    </style>
  </defs>
  <path d="M15.36,11.33v-5L18,8.83ZM14,5a1.15,1.15,0,0,1,.58.59,1,1,0,0,1,.09.42v5.93a1,1,0,0,1-.09.42,1.1,1.1,0,0,1-.58.58,1,1,0,0,1-.42.09H3.13a1,1,0,0,1-.42-.09.88.88,0,0,1-.36-.24,1,1,0,0,1-.22-.34A1,1,0,0,1,2,11.89V6a1.17,1.17,0,0,1,.09-.45A1.1,1.1,0,0,1,2.67,5a1.07,1.07,0,0,1,.43-.09H5.5l.85-1.45h0A.73.73,0,0,1,6.8,3H9.68a.62.62,0,0,1,.37.11.73.73,0,0,1,.27.28h0l.83,1.48h2.42A1,1,0,0,1,14,5ZM10,6.61H3.79v4.66H10Z"/>
  <rect class="cls-1" width="20" height="16"/>
</svg>
