<svg id="レイヤー_1" data-name="レイヤー 1" xmlns="http://www.w3.org/2000/svg" width="105.83mm" height="17.64mm" viewBox="0 0 300 50">
  <defs>
    <style>
      .cls-1 {
        fill: none;
      }
    </style>
  </defs>
  <title>Product_Logo</title>
  <g>
    <path d="M257.74,10.42h-.14l-8.54,4.28-1.61-7.28,11.61-5.64h7.75v46.6h-9.07Z"/>
    <path d="M206.61,2.42a94.71,94.71,0,0,1,14.53-1c7.37,0,12.16,1.21,15.47,3.84a11.64,11.64,0,0,1,4.27,9.45c0,6.19-4.63,10.24-8.78,11.53v.22c3.37,1.31,5.38,4.53,6.62,8.69,1.64,5.72,3,11.38,4,13.25H233c-.76-1.36-1.93-4.91-3.41-10.85s-3.78-7.87-8.88-8H216V48.37h-9.35ZM216,22.74h5.78c6.07,0,9.78-2.8,9.78-7.25,0-5-3.94-7.1-9.5-7.1a29.23,29.23,0,0,0-6.06.46Z"/>
    <g>
      <path d="M43.22,19.85a25.21,25.21,0,0,1,.32-4.23c.72-3.41,2.62-4.81,6.86-5.43a70.77,70.77,0,0,1,10.3-.5c4.59,0,13,.51,18.2,1V2.27c-6-.56-13.8-.86-19.37-.86-8.2,0-12.77.47-16.62,1.71-5.86,1.9-9,6.46-9.42,13.36-.15,2.65-.31,5.59-.31,8.52s.16,5.87.31,8.52c.37,6.9,3.56,11.46,9.42,13.36,3.85,1.25,8.42,1.71,16.62,1.71,5.57,0,13.4-.29,19.37-.86V39.31c-5.24.49-13.6,1-18.2,1a70.49,70.49,0,0,1-10.3-.51c-4.24-.62-6.14-2-6.86-5.44a25.14,25.14,0,0,1-.32-4.22V28.94H78.06V20.68H43.22Z"/>
      <path d="M150.74,2.49c2.87-.68,9.78-1.09,13.64-1.09A168.14,168.14,0,0,1,184.7,2.59v8.81a108,108,0,0,0-21-1.85,73.58,73.58,0,0,0-8.46.41c-3.61.43-4.83,2.11-4.83,5s1.22,4.54,4.83,5a79.49,79.49,0,0,0,9.14.41v0A75.25,75.25,0,0,1,176.5,21.4c7.18,1.73,9.91,6.62,9.91,13s-2.74,11.31-9.91,13c-2.88.7-9.78,1.11-13.64,1.11a169.48,169.48,0,0,1-21.37-1.17V38.61a108.21,108.21,0,0,0,21.37,1.84A76.21,76.21,0,0,0,172,40c3.61-.44,4.83-2.11,4.83-5.1s-1.22-4.65-4.83-5.1a76,76,0,0,0-9.13-.43v0a76.64,76.64,0,0,1-12.12-1.07c-7.18-1.7-9.92-6.6-9.92-12.91s2.74-11.21,9.92-12.91"/>
      <path d="M83.45,25c0-2.93.16-6.31.31-9,.38-6.9,3.56-11.47,9.42-13.36C97,1.44,101.6,1,109.8,1s12.77.46,16.62,1.71c5.86,1.9,9,6.46,9.43,13.36.14,2.65.31,6,.31,9s-.17,6.31-.31,9c-.38,6.9-3.56,11.46-9.43,13.36C122.58,48.56,118,49,109.8,49S97,48.56,93.19,47.32c-5.86-1.9-9-6.46-9.42-13.36-.15-2.65-.31-6-.31-9m10.32,8.64c.33,3.3,1.8,5.2,5.28,6.21,2.15.63,6.23.92,10.75.92s8.59-.29,10.75-.92c3.48-1,5-2.92,5.28-6.21a79.79,79.79,0,0,0,.34-8.64,79.77,79.77,0,0,0-.34-8.64c-.33-3.3-1.8-5.2-5.28-6.21-2.16-.63-6.24-.92-10.75-.92s-8.59.28-10.75.92c-3.48,1-5,2.91-5.28,6.21A79.77,79.77,0,0,0,93.44,25a79.79,79.79,0,0,0,.34,8.64"/>
    </g>
  </g>
  <g id="Frame">
    <rect class="cls-1" width="300" height="50"/>
  </g>
</svg>
