<svg id="レイヤー_1" data-name="レイヤー 1" xmlns="http://www.w3.org/2000/svg" width="150" height="150" viewBox="0 0 150 150">
  <defs>
    <style>
      .cls-1 {
        fill: #fff;
      }
    </style>
  </defs>
  <g>
    <rect class="cls-1" width="150" height="150"/>
    <rect x="14.63" y="14.63" width="3.66" height="3.66"/>
    <rect x="18.29" y="14.63" width="3.66" height="3.66"/>
    <rect x="21.95" y="14.63" width="3.66" height="3.66"/>
    <rect x="25.61" y="14.63" width="3.66" height="3.66"/>
    <rect x="29.27" y="14.63" width="3.66" height="3.66"/>
    <rect x="32.93" y="14.63" width="3.66" height="3.66"/>
    <rect x="36.59" y="14.63" width="3.66" height="3.66"/>
    <rect x="43.9" y="14.63" width="3.66" height="3.66"/>
    <rect x="69.51" y="14.63" width="3.66" height="3.66"/>
    <rect x="76.83" y="14.63" width="3.66" height="3.66"/>
    <rect x="80.49" y="14.63" width="3.66" height="3.66"/>
    <rect x="95.12" y="14.63" width="3.66" height="3.66"/>
    <rect x="98.78" y="14.63" width="3.66" height="3.66"/>
    <rect x="102.44" y="14.63" width="3.66" height="3.66"/>
    <rect x="109.75" y="14.63" width="3.66" height="3.66"/>
    <rect x="113.42" y="14.63" width="3.66" height="3.66"/>
    <rect x="117.08" y="14.63" width="3.66" height="3.66"/>
    <rect x="120.73" y="14.63" width="3.66" height="3.66"/>
    <rect x="124.39" y="14.63" width="3.66" height="3.66"/>
    <rect x="128.05" y="14.63" width="3.66" height="3.66"/>
    <rect x="131.71" y="14.63" width="3.66" height="3.66"/>
    <rect x="14.63" y="18.29" width="3.66" height="3.66"/>
    <rect x="36.59" y="18.29" width="3.66" height="3.66"/>
    <rect x="47.56" y="18.29" width="3.66" height="3.66"/>
    <rect x="54.88" y="18.29" width="3.66" height="3.66"/>
    <rect x="58.54" y="18.29" width="3.66" height="3.66"/>
    <rect x="62.2" y="18.29" width="3.66" height="3.66"/>
    <rect x="76.83" y="18.29" width="3.66" height="3.66"/>
    <rect x="91.46" y="18.29" width="3.66" height="3.66"/>
    <rect x="98.78" y="18.29" width="3.66" height="3.66"/>
    <rect x="109.75" y="18.29" width="3.66" height="3.66"/>
    <rect x="131.71" y="18.29" width="3.66" height="3.66"/>
    <rect x="14.63" y="21.95" width="3.66" height="3.66"/>
    <rect x="21.95" y="21.95" width="3.66" height="3.66"/>
    <rect x="25.61" y="21.95" width="3.66" height="3.66"/>
    <rect x="29.27" y="21.95" width="3.66" height="3.66"/>
    <rect x="36.59" y="21.95" width="3.66" height="3.66"/>
    <rect x="51.22" y="21.95" width="3.66" height="3.66"/>
    <rect x="54.88" y="21.95" width="3.66" height="3.66"/>
    <rect x="62.2" y="21.95" width="3.66" height="3.66"/>
    <rect x="65.85" y="21.95" width="3.66" height="3.66"/>
    <rect x="87.81" y="21.95" width="3.66" height="3.66"/>
    <rect x="98.78" y="21.95" width="3.66" height="3.66"/>
    <rect x="102.44" y="21.95" width="3.66" height="3.66"/>
    <rect x="109.75" y="21.95" width="3.66" height="3.66"/>
    <rect x="117.08" y="21.95" width="3.66" height="3.66"/>
    <rect x="120.73" y="21.95" width="3.66" height="3.66"/>
    <rect x="124.39" y="21.95" width="3.66" height="3.66"/>
    <rect x="131.71" y="21.95" width="3.66" height="3.66"/>
    <rect x="14.63" y="25.61" width="3.66" height="3.66"/>
    <rect x="21.95" y="25.61" width="3.66" height="3.66"/>
    <rect x="25.61" y="25.61" width="3.66" height="3.66"/>
    <rect x="29.27" y="25.61" width="3.66" height="3.66"/>
    <rect x="36.59" y="25.61" width="3.66" height="3.66"/>
    <rect x="43.9" y="25.61" width="3.66" height="3.66"/>
    <rect x="47.56" y="25.61" width="3.66" height="3.66"/>
    <rect x="54.88" y="25.61" width="3.66" height="3.66"/>
    <rect x="58.54" y="25.61" width="3.66" height="3.66"/>
    <rect x="62.2" y="25.61" width="3.66" height="3.66"/>
    <rect x="69.51" y="25.61" width="3.66" height="3.66"/>
    <rect x="73.17" y="25.61" width="3.66" height="3.66"/>
    <rect x="76.83" y="25.61" width="3.66" height="3.66"/>
    <rect x="95.12" y="25.61" width="3.66" height="3.66"/>
    <rect x="109.75" y="25.61" width="3.66" height="3.66"/>
    <rect x="117.08" y="25.61" width="3.66" height="3.66"/>
    <rect x="120.73" y="25.61" width="3.66" height="3.66"/>
    <rect x="124.39" y="25.61" width="3.66" height="3.66"/>
    <rect x="131.71" y="25.61" width="3.66" height="3.66"/>
    <rect x="14.63" y="29.27" width="3.66" height="3.66"/>
    <rect x="21.95" y="29.27" width="3.66" height="3.66"/>
    <rect x="25.61" y="29.27" width="3.66" height="3.66"/>
    <rect x="29.27" y="29.27" width="3.66" height="3.66"/>
    <rect x="36.59" y="29.27" width="3.66" height="3.66"/>
    <rect x="47.56" y="29.27" width="3.66" height="3.66"/>
    <rect x="62.2" y="29.27" width="3.66" height="3.66"/>
    <rect x="65.85" y="29.27" width="3.66" height="3.66"/>
    <rect x="76.83" y="29.27" width="3.66" height="3.66"/>
    <rect x="84.15" y="29.27" width="3.66" height="3.66"/>
    <rect x="87.81" y="29.27" width="3.66" height="3.66"/>
    <rect x="91.46" y="29.27" width="3.66" height="3.66"/>
    <rect x="109.75" y="29.27" width="3.66" height="3.66"/>
    <rect x="117.08" y="29.27" width="3.66" height="3.66"/>
    <rect x="120.73" y="29.27" width="3.66" height="3.66"/>
    <rect x="124.39" y="29.27" width="3.66" height="3.66"/>
    <rect x="131.71" y="29.27" width="3.66" height="3.66"/>
    <rect x="14.63" y="32.93" width="3.66" height="3.66"/>
    <rect x="36.59" y="32.93" width="3.66" height="3.66"/>
    <rect x="47.56" y="32.93" width="3.66" height="3.66"/>
    <rect x="51.22" y="32.93" width="3.66" height="3.66"/>
    <rect x="58.54" y="32.93" width="3.66" height="3.66"/>
    <rect x="65.85" y="32.93" width="3.66" height="3.66"/>
    <rect x="69.51" y="32.93" width="3.66" height="3.66"/>
    <rect x="73.17" y="32.93" width="3.66" height="3.66"/>
    <rect x="76.83" y="32.93" width="3.66" height="3.66"/>
    <rect x="84.15" y="32.93" width="3.66" height="3.66"/>
    <rect x="95.12" y="32.93" width="3.66" height="3.66"/>
    <rect x="109.75" y="32.93" width="3.66" height="3.66"/>
    <rect x="131.71" y="32.93" width="3.66" height="3.66"/>
    <rect x="14.63" y="36.58" width="3.66" height="3.66"/>
    <rect x="18.29" y="36.58" width="3.66" height="3.66"/>
    <rect x="21.95" y="36.58" width="3.66" height="3.66"/>
    <rect x="25.61" y="36.58" width="3.66" height="3.66"/>
    <rect x="29.27" y="36.58" width="3.66" height="3.66"/>
    <rect x="32.93" y="36.58" width="3.66" height="3.66"/>
    <rect x="36.59" y="36.58" width="3.66" height="3.66"/>
    <rect x="43.9" y="36.58" width="3.66" height="3.66"/>
    <rect x="51.22" y="36.58" width="3.66" height="3.66"/>
    <rect x="58.54" y="36.58" width="3.66" height="3.66"/>
    <rect x="65.85" y="36.58" width="3.66" height="3.66"/>
    <rect x="73.17" y="36.58" width="3.66" height="3.66"/>
    <rect x="80.49" y="36.58" width="3.66" height="3.66"/>
    <rect x="87.81" y="36.58" width="3.66" height="3.66"/>
    <rect x="95.12" y="36.58" width="3.66" height="3.66"/>
    <rect x="102.44" y="36.58" width="3.66" height="3.66"/>
    <rect x="109.75" y="36.58" width="3.66" height="3.66"/>
    <rect x="113.42" y="36.58" width="3.66" height="3.66"/>
    <rect x="117.08" y="36.58" width="3.66" height="3.66"/>
    <rect x="120.73" y="36.58" width="3.66" height="3.66"/>
    <rect x="124.39" y="36.58" width="3.66" height="3.66"/>
    <rect x="128.05" y="36.58" width="3.66" height="3.66"/>
    <rect x="131.71" y="36.58" width="3.66" height="3.66"/>
    <rect x="47.56" y="40.25" width="3.66" height="3.66"/>
    <rect x="51.22" y="40.25" width="3.66" height="3.66"/>
    <rect x="54.88" y="40.25" width="3.66" height="3.66"/>
    <rect x="58.54" y="40.25" width="3.66" height="3.66"/>
    <rect x="69.51" y="40.25" width="3.66" height="3.66"/>
    <rect x="73.17" y="40.25" width="3.66" height="3.66"/>
    <rect x="91.46" y="40.25" width="3.66" height="3.66"/>
    <rect x="95.12" y="40.25" width="3.66" height="3.66"/>
    <rect x="102.44" y="40.25" width="3.66" height="3.66"/>
    <rect x="21.95" y="43.9" width="3.66" height="3.66"/>
    <rect x="29.27" y="43.9" width="3.66" height="3.66"/>
    <rect x="32.93" y="43.9" width="3.66" height="3.66"/>
    <rect x="36.59" y="43.9" width="3.66" height="3.66"/>
    <rect x="43.9" y="43.9" width="3.66" height="3.66"/>
    <rect x="47.56" y="43.9" width="3.66" height="3.66"/>
    <rect x="54.88" y="43.9" width="3.66" height="3.66"/>
    <rect x="62.2" y="43.9" width="3.66" height="3.66"/>
    <rect x="73.17" y="43.9" width="3.66" height="3.66"/>
    <rect x="80.49" y="43.9" width="3.66" height="3.66"/>
    <rect x="87.81" y="43.9" width="3.66" height="3.66"/>
    <rect x="98.78" y="43.9" width="3.66" height="3.66"/>
    <rect x="102.44" y="43.9" width="3.66" height="3.66"/>
    <rect x="106.1" y="43.9" width="3.66" height="3.66"/>
    <rect x="120.73" y="43.9" width="3.66" height="3.66"/>
    <rect x="131.71" y="43.9" width="3.66" height="3.66"/>
    <rect x="21.95" y="47.56" width="3.66" height="3.66"/>
    <rect x="25.61" y="47.56" width="3.66" height="3.66"/>
    <rect x="29.27" y="47.56" width="3.66" height="3.66"/>
    <rect x="40.25" y="47.56" width="3.66" height="3.66"/>
    <rect x="51.22" y="47.56" width="3.66" height="3.66"/>
    <rect x="54.88" y="47.56" width="3.66" height="3.66"/>
    <rect x="65.85" y="47.56" width="3.66" height="3.66"/>
    <rect x="69.51" y="47.56" width="3.66" height="3.66"/>
    <rect x="73.17" y="47.56" width="3.66" height="3.66"/>
    <rect x="91.46" y="47.56" width="3.66" height="3.66"/>
    <rect x="109.75" y="47.56" width="3.66" height="3.66"/>
    <rect x="124.39" y="47.56" width="3.66" height="3.66"/>
    <rect x="128.05" y="47.56" width="3.66" height="3.66"/>
    <rect x="131.71" y="47.56" width="3.66" height="3.66"/>
    <rect x="14.63" y="51.22" width="3.66" height="3.66"/>
    <rect x="18.29" y="51.22" width="3.66" height="3.66"/>
    <rect x="25.61" y="51.22" width="3.66" height="3.66"/>
    <rect x="36.59" y="51.22" width="3.66" height="3.66"/>
    <rect x="58.54" y="51.22" width="3.66" height="3.66"/>
    <rect x="69.51" y="51.22" width="3.66" height="3.66"/>
    <rect x="73.17" y="51.22" width="3.66" height="3.66"/>
    <rect x="76.83" y="51.22" width="3.66" height="3.66"/>
    <rect x="80.49" y="51.22" width="3.66" height="3.66"/>
    <rect x="84.15" y="51.22" width="3.66" height="3.66"/>
    <rect x="87.81" y="51.22" width="3.66" height="3.66"/>
    <rect x="95.12" y="51.22" width="3.66" height="3.66"/>
    <rect x="102.44" y="51.22" width="3.66" height="3.66"/>
    <rect x="106.1" y="51.22" width="3.66" height="3.66"/>
    <rect x="117.08" y="51.22" width="3.66" height="3.66"/>
    <rect x="128.05" y="51.22" width="3.66" height="3.66"/>
    <rect x="131.71" y="51.22" width="3.66" height="3.66"/>
    <rect x="14.63" y="54.88" width="3.66" height="3.66"/>
    <rect x="21.95" y="54.88" width="3.66" height="3.66"/>
    <rect x="25.61" y="54.88" width="3.66" height="3.66"/>
    <rect x="29.27" y="54.88" width="3.66" height="3.66"/>
    <rect x="40.25" y="54.88" width="3.66" height="3.66"/>
    <rect x="51.22" y="54.88" width="3.66" height="3.66"/>
    <rect x="62.2" y="54.88" width="3.66" height="3.66"/>
    <rect x="69.51" y="54.88" width="3.66" height="3.66"/>
    <rect x="73.17" y="54.88" width="3.66" height="3.66"/>
    <rect x="80.49" y="54.88" width="3.66" height="3.66"/>
    <rect x="84.15" y="54.88" width="3.66" height="3.66"/>
    <rect x="91.46" y="54.88" width="3.66" height="3.66"/>
    <rect x="95.12" y="54.88" width="3.66" height="3.66"/>
    <rect x="102.44" y="54.88" width="3.66" height="3.66"/>
    <rect x="106.1" y="54.88" width="3.66" height="3.66"/>
    <rect x="109.75" y="54.88" width="3.66" height="3.66"/>
    <rect x="131.71" y="54.88" width="3.66" height="3.66"/>
    <rect x="14.63" y="58.54" width="3.66" height="3.66"/>
    <rect x="18.29" y="58.54" width="3.66" height="3.66"/>
    <rect x="25.61" y="58.54" width="3.66" height="3.66"/>
    <rect x="29.27" y="58.54" width="3.66" height="3.66"/>
    <rect x="36.59" y="58.54" width="3.66" height="3.66"/>
    <rect x="58.54" y="58.54" width="3.66" height="3.66"/>
    <rect x="62.2" y="58.54" width="3.66" height="3.66"/>
    <rect x="65.85" y="58.54" width="3.66" height="3.66"/>
    <rect x="69.51" y="58.54" width="3.66" height="3.66"/>
    <rect x="76.83" y="58.54" width="3.66" height="3.66"/>
    <rect x="80.49" y="58.54" width="3.66" height="3.66"/>
    <rect x="87.81" y="58.54" width="3.66" height="3.66"/>
    <rect x="95.12" y="58.54" width="3.66" height="3.66"/>
    <rect x="98.78" y="58.54" width="3.66" height="3.66"/>
    <rect x="102.44" y="58.54" width="3.66" height="3.66"/>
    <rect x="106.1" y="58.54" width="3.66" height="3.66"/>
    <rect x="109.75" y="58.54" width="3.66" height="3.66"/>
    <rect x="117.08" y="58.54" width="3.66" height="3.66"/>
    <rect x="131.71" y="58.54" width="3.66" height="3.66"/>
    <rect x="21.95" y="62.2" width="3.66" height="3.66"/>
    <rect x="25.61" y="62.2" width="3.66" height="3.66"/>
    <rect x="29.27" y="62.2" width="3.66" height="3.66"/>
    <rect x="40.25" y="62.2" width="3.66" height="3.66"/>
    <rect x="47.56" y="62.2" width="3.66" height="3.66"/>
    <rect x="51.22" y="62.2" width="3.66" height="3.66"/>
    <rect x="69.51" y="62.2" width="3.66" height="3.66"/>
    <rect x="73.17" y="62.2" width="3.66" height="3.66"/>
    <rect x="84.15" y="62.2" width="3.66" height="3.66"/>
    <rect x="95.12" y="62.2" width="3.66" height="3.66"/>
    <rect x="102.44" y="62.2" width="3.66" height="3.66"/>
    <rect x="109.75" y="62.2" width="3.66" height="3.66"/>
    <rect x="113.42" y="62.2" width="3.66" height="3.66"/>
    <rect x="120.73" y="62.2" width="3.66" height="3.66"/>
    <rect x="128.05" y="62.2" width="3.66" height="3.66"/>
    <rect x="131.71" y="62.2" width="3.66" height="3.66"/>
    <rect x="14.63" y="65.85" width="3.66" height="3.66"/>
    <rect x="25.61" y="65.85" width="3.66" height="3.66"/>
    <rect x="36.59" y="65.85" width="3.66" height="3.66"/>
    <rect x="40.25" y="65.85" width="3.66" height="3.66"/>
    <rect x="43.9" y="65.85" width="3.66" height="3.66"/>
    <rect x="47.56" y="65.85" width="3.66" height="3.66"/>
    <rect x="58.54" y="65.85" width="3.66" height="3.66"/>
    <rect x="62.2" y="65.85" width="3.66" height="3.66"/>
    <rect x="65.85" y="65.85" width="3.66" height="3.66"/>
    <rect x="80.49" y="65.85" width="3.66" height="3.66"/>
    <rect x="84.15" y="65.85" width="3.66" height="3.66"/>
    <rect x="91.46" y="65.85" width="3.66" height="3.66"/>
    <rect x="102.44" y="65.85" width="3.66" height="3.66"/>
    <rect x="106.1" y="65.85" width="3.66" height="3.66"/>
    <rect x="113.42" y="65.85" width="3.66" height="3.66"/>
    <rect x="124.39" y="65.85" width="3.66" height="3.66"/>
    <rect x="128.05" y="65.85" width="3.66" height="3.66"/>
    <rect x="131.71" y="65.85" width="3.66" height="3.66"/>
    <rect x="14.63" y="69.51" width="3.66" height="3.66"/>
    <rect x="29.27" y="69.51" width="3.66" height="3.66"/>
    <rect x="47.56" y="69.51" width="3.66" height="3.66"/>
    <rect x="51.22" y="69.51" width="3.66" height="3.66"/>
    <rect x="54.88" y="69.51" width="3.66" height="3.66"/>
    <rect x="73.17" y="69.51" width="3.66" height="3.66"/>
    <rect x="80.49" y="69.51" width="3.66" height="3.66"/>
    <rect x="84.15" y="69.51" width="3.66" height="3.66"/>
    <rect x="91.46" y="69.51" width="3.66" height="3.66"/>
    <rect x="95.12" y="69.51" width="3.66" height="3.66"/>
    <rect x="98.78" y="69.51" width="3.66" height="3.66"/>
    <rect x="102.44" y="69.51" width="3.66" height="3.66"/>
    <rect x="106.1" y="69.51" width="3.66" height="3.66"/>
    <rect x="109.75" y="69.51" width="3.66" height="3.66"/>
    <rect x="117.08" y="69.51" width="3.66" height="3.66"/>
    <rect x="120.73" y="69.51" width="3.66" height="3.66"/>
    <rect x="14.63" y="73.17" width="3.66" height="3.66"/>
    <rect x="18.29" y="73.17" width="3.66" height="3.66"/>
    <rect x="29.27" y="73.17" width="3.66" height="3.66"/>
    <rect x="32.93" y="73.17" width="3.66" height="3.66"/>
    <rect x="36.59" y="73.17" width="3.66" height="3.66"/>
    <rect x="43.9" y="73.17" width="3.66" height="3.66"/>
    <rect x="62.2" y="73.17" width="3.66" height="3.66"/>
    <rect x="69.51" y="73.17" width="3.66" height="3.66"/>
    <rect x="76.83" y="73.17" width="3.66" height="3.66"/>
    <rect x="80.49" y="73.17" width="3.66" height="3.66"/>
    <rect x="84.15" y="73.17" width="3.66" height="3.66"/>
    <rect x="91.46" y="73.17" width="3.66" height="3.66"/>
    <rect x="95.12" y="73.17" width="3.66" height="3.66"/>
    <rect x="106.1" y="73.17" width="3.66" height="3.66"/>
    <rect x="109.75" y="73.17" width="3.66" height="3.66"/>
    <rect x="120.73" y="73.17" width="3.66" height="3.66"/>
    <rect x="128.05" y="73.17" width="3.66" height="3.66"/>
    <rect x="14.63" y="76.83" width="3.66" height="3.66"/>
    <rect x="47.56" y="76.83" width="3.66" height="3.66"/>
    <rect x="51.22" y="76.83" width="3.66" height="3.66"/>
    <rect x="54.88" y="76.83" width="3.66" height="3.66"/>
    <rect x="62.2" y="76.83" width="3.66" height="3.66"/>
    <rect x="65.85" y="76.83" width="3.66" height="3.66"/>
    <rect x="69.51" y="76.83" width="3.66" height="3.66"/>
    <rect x="73.17" y="76.83" width="3.66" height="3.66"/>
    <rect x="84.15" y="76.83" width="3.66" height="3.66"/>
    <rect x="87.81" y="76.83" width="3.66" height="3.66"/>
    <rect x="91.46" y="76.83" width="3.66" height="3.66"/>
    <rect x="106.1" y="76.83" width="3.66" height="3.66"/>
    <rect x="109.75" y="76.83" width="3.66" height="3.66"/>
    <rect x="120.73" y="76.83" width="3.66" height="3.66"/>
    <rect x="124.39" y="76.83" width="3.66" height="3.66"/>
    <rect x="131.71" y="76.83" width="3.66" height="3.66"/>
    <rect x="14.63" y="80.49" width="3.66" height="3.65"/>
    <rect x="21.95" y="80.49" width="3.66" height="3.65"/>
    <rect x="29.27" y="80.49" width="3.66" height="3.65"/>
    <rect x="32.93" y="80.49" width="3.66" height="3.65"/>
    <rect x="36.59" y="80.49" width="3.66" height="3.65"/>
    <rect x="40.25" y="80.49" width="3.66" height="3.65"/>
    <rect x="47.56" y="80.49" width="3.66" height="3.65"/>
    <rect x="62.2" y="80.49" width="3.66" height="3.65"/>
    <rect x="65.85" y="80.49" width="3.66" height="3.65"/>
    <rect x="84.15" y="80.49" width="3.66" height="3.65"/>
    <rect x="87.81" y="80.49" width="3.66" height="3.65"/>
    <rect x="91.46" y="80.49" width="3.66" height="3.65"/>
    <rect x="95.12" y="80.49" width="3.66" height="3.65"/>
    <rect x="106.1" y="80.49" width="3.66" height="3.65"/>
    <rect x="113.42" y="80.49" width="3.66" height="3.65"/>
    <rect x="117.08" y="80.49" width="3.66" height="3.65"/>
    <rect x="124.39" y="80.49" width="3.66" height="3.65"/>
    <rect x="131.71" y="80.49" width="3.66" height="3.65"/>
    <rect x="18.29" y="84.15" width="3.66" height="3.66"/>
    <rect x="47.56" y="84.15" width="3.66" height="3.66"/>
    <rect x="62.2" y="84.15" width="3.66" height="3.66"/>
    <rect x="76.83" y="84.15" width="3.66" height="3.66"/>
    <rect x="80.49" y="84.15" width="3.66" height="3.66"/>
    <rect x="84.15" y="84.15" width="3.66" height="3.66"/>
    <rect x="87.81" y="84.15" width="3.66" height="3.66"/>
    <rect x="91.46" y="84.15" width="3.66" height="3.66"/>
    <rect x="106.1" y="84.15" width="3.66" height="3.66"/>
    <rect x="109.75" y="84.15" width="3.66" height="3.66"/>
    <rect x="113.42" y="84.15" width="3.66" height="3.66"/>
    <rect x="128.05" y="84.15" width="3.66" height="3.66"/>
    <rect x="14.63" y="87.81" width="3.66" height="3.66"/>
    <rect x="25.61" y="87.81" width="3.66" height="3.66"/>
    <rect x="36.59" y="87.81" width="3.66" height="3.66"/>
    <rect x="40.25" y="87.81" width="3.66" height="3.66"/>
    <rect x="43.9" y="87.81" width="3.66" height="3.66"/>
    <rect x="58.54" y="87.81" width="3.66" height="3.66"/>
    <rect x="62.2" y="87.81" width="3.66" height="3.66"/>
    <rect x="91.46" y="87.81" width="3.66" height="3.66"/>
    <rect x="106.1" y="87.81" width="3.66" height="3.66"/>
    <rect x="120.73" y="87.81" width="3.66" height="3.66"/>
    <rect x="131.71" y="87.81" width="3.66" height="3.66"/>
    <rect x="18.29" y="91.46" width="3.66" height="3.66"/>
    <rect x="21.95" y="91.46" width="3.66" height="3.66"/>
    <rect x="32.93" y="91.46" width="3.66" height="3.66"/>
    <rect x="43.9" y="91.46" width="3.66" height="3.66"/>
    <rect x="51.22" y="91.46" width="3.66" height="3.66"/>
    <rect x="58.54" y="91.46" width="3.66" height="3.66"/>
    <rect x="65.85" y="91.46" width="3.66" height="3.66"/>
    <rect x="69.51" y="91.46" width="3.66" height="3.66"/>
    <rect x="76.83" y="91.46" width="3.66" height="3.66"/>
    <rect x="84.15" y="91.46" width="3.66" height="3.66"/>
    <rect x="95.12" y="91.46" width="3.66" height="3.66"/>
    <rect x="98.78" y="91.46" width="3.66" height="3.66"/>
    <rect x="106.1" y="91.46" width="3.66" height="3.66"/>
    <rect x="113.42" y="91.46" width="3.66" height="3.66"/>
    <rect x="120.73" y="91.46" width="3.66" height="3.66"/>
    <rect x="128.05" y="91.46" width="3.66" height="3.66"/>
    <rect x="131.71" y="91.46" width="3.66" height="3.66"/>
    <rect x="14.63" y="95.12" width="3.66" height="3.66"/>
    <rect x="25.61" y="95.12" width="3.66" height="3.66"/>
    <rect x="36.59" y="95.12" width="3.66" height="3.66"/>
    <rect x="40.25" y="95.12" width="3.66" height="3.66"/>
    <rect x="54.88" y="95.12" width="3.66" height="3.66"/>
    <rect x="62.2" y="95.12" width="3.66" height="3.66"/>
    <rect x="73.17" y="95.12" width="3.66" height="3.66"/>
    <rect x="80.49" y="95.12" width="3.66" height="3.66"/>
    <rect x="84.15" y="95.12" width="3.66" height="3.66"/>
    <rect x="87.81" y="95.12" width="3.66" height="3.66"/>
    <rect x="95.12" y="95.12" width="3.66" height="3.66"/>
    <rect x="109.75" y="95.12" width="3.66" height="3.66"/>
    <rect x="113.42" y="95.12" width="3.66" height="3.66"/>
    <rect x="117.08" y="95.12" width="3.66" height="3.66"/>
    <rect x="120.73" y="95.12" width="3.66" height="3.66"/>
    <rect x="124.39" y="95.12" width="3.66" height="3.66"/>
    <rect x="131.71" y="95.12" width="3.66" height="3.66"/>
    <rect x="18.29" y="98.78" width="3.66" height="3.66"/>
    <rect x="29.27" y="98.78" width="3.66" height="3.66"/>
    <rect x="40.25" y="98.78" width="3.66" height="3.66"/>
    <rect x="43.9" y="98.78" width="3.66" height="3.66"/>
    <rect x="47.56" y="98.78" width="3.66" height="3.66"/>
    <rect x="51.22" y="98.78" width="3.66" height="3.66"/>
    <rect x="62.2" y="98.78" width="3.66" height="3.66"/>
    <rect x="65.85" y="98.78" width="3.66" height="3.66"/>
    <rect x="84.15" y="98.78" width="3.66" height="3.66"/>
    <rect x="87.81" y="98.78" width="3.66" height="3.66"/>
    <rect x="91.46" y="98.78" width="3.66" height="3.66"/>
    <rect x="98.78" y="98.78" width="3.66" height="3.66"/>
    <rect x="106.1" y="98.78" width="3.66" height="3.66"/>
    <rect x="117.08" y="98.78" width="3.66" height="3.66"/>
    <rect x="128.05" y="98.78" width="3.66" height="3.66"/>
    <rect x="14.63" y="102.44" width="3.66" height="3.66"/>
    <rect x="21.95" y="102.44" width="3.66" height="3.66"/>
    <rect x="29.27" y="102.44" width="3.66" height="3.66"/>
    <rect x="32.93" y="102.44" width="3.66" height="3.66"/>
    <rect x="36.59" y="102.44" width="3.66" height="3.66"/>
    <rect x="40.25" y="102.44" width="3.66" height="3.66"/>
    <rect x="47.56" y="102.44" width="3.66" height="3.66"/>
    <rect x="51.22" y="102.44" width="3.66" height="3.66"/>
    <rect x="58.54" y="102.44" width="3.66" height="3.66"/>
    <rect x="62.2" y="102.44" width="3.66" height="3.66"/>
    <rect x="65.85" y="102.44" width="3.66" height="3.66"/>
    <rect x="73.17" y="102.44" width="3.66" height="3.66"/>
    <rect x="84.15" y="102.44" width="3.66" height="3.66"/>
    <rect x="91.46" y="102.44" width="3.66" height="3.66"/>
    <rect x="95.12" y="102.44" width="3.66" height="3.66"/>
    <rect x="102.44" y="102.44" width="3.66" height="3.66"/>
    <rect x="106.1" y="102.44" width="3.66" height="3.66"/>
    <rect x="109.75" y="102.44" width="3.66" height="3.66"/>
    <rect x="113.42" y="102.44" width="3.66" height="3.66"/>
    <rect x="117.08" y="102.44" width="3.66" height="3.66"/>
    <rect x="128.05" y="102.44" width="3.66" height="3.66"/>
    <rect x="131.71" y="102.44" width="3.66" height="3.66"/>
    <rect x="43.9" y="106.1" width="3.66" height="3.66"/>
    <rect x="47.56" y="106.1" width="3.66" height="3.66"/>
    <rect x="65.85" y="106.1" width="3.66" height="3.66"/>
    <rect x="69.51" y="106.1" width="3.66" height="3.66"/>
    <rect x="76.83" y="106.1" width="3.66" height="3.66"/>
    <rect x="87.81" y="106.1" width="3.66" height="3.66"/>
    <rect x="95.12" y="106.1" width="3.66" height="3.66"/>
    <rect x="98.78" y="106.1" width="3.66" height="3.66"/>
    <rect x="102.44" y="106.1" width="3.66" height="3.66"/>
    <rect x="117.08" y="106.1" width="3.66" height="3.66"/>
    <rect x="120.73" y="106.1" width="3.66" height="3.66"/>
    <rect x="128.05" y="106.1" width="3.66" height="3.66"/>
    <rect x="131.71" y="106.1" width="3.66" height="3.66"/>
    <rect x="14.63" y="109.75" width="3.66" height="3.66"/>
    <rect x="18.29" y="109.75" width="3.66" height="3.66"/>
    <rect x="21.95" y="109.75" width="3.66" height="3.66"/>
    <rect x="25.61" y="109.75" width="3.66" height="3.66"/>
    <rect x="29.27" y="109.75" width="3.66" height="3.66"/>
    <rect x="32.93" y="109.75" width="3.66" height="3.66"/>
    <rect x="36.59" y="109.75" width="3.66" height="3.66"/>
    <rect x="47.56" y="109.75" width="3.66" height="3.66"/>
    <rect x="51.22" y="109.75" width="3.66" height="3.66"/>
    <rect x="54.88" y="109.75" width="3.66" height="3.66"/>
    <rect x="62.2" y="109.75" width="3.66" height="3.66"/>
    <rect x="69.51" y="109.75" width="3.66" height="3.66"/>
    <rect x="73.17" y="109.75" width="3.66" height="3.66"/>
    <rect x="80.49" y="109.75" width="3.66" height="3.66"/>
    <rect x="91.46" y="109.75" width="3.66" height="3.66"/>
    <rect x="98.78" y="109.75" width="3.66" height="3.66"/>
    <rect x="102.44" y="109.75" width="3.66" height="3.66"/>
    <rect x="109.75" y="109.75" width="3.66" height="3.66"/>
    <rect x="117.08" y="109.75" width="3.66" height="3.66"/>
    <rect x="120.73" y="109.75" width="3.66" height="3.66"/>
    <rect x="128.05" y="109.75" width="3.66" height="3.66"/>
    <rect x="131.71" y="109.75" width="3.66" height="3.66"/>
    <rect x="14.63" y="113.42" width="3.66" height="3.66"/>
    <rect x="36.59" y="113.42" width="3.66" height="3.66"/>
    <rect x="43.9" y="113.42" width="3.66" height="3.66"/>
    <rect x="69.51" y="113.42" width="3.66" height="3.66"/>
    <rect x="73.17" y="113.42" width="3.66" height="3.66"/>
    <rect x="76.83" y="113.42" width="3.66" height="3.66"/>
    <rect x="84.15" y="113.42" width="3.66" height="3.66"/>
    <rect x="87.81" y="113.42" width="3.66" height="3.66"/>
    <rect x="102.44" y="113.42" width="3.66" height="3.66"/>
    <rect x="117.08" y="113.42" width="3.66" height="3.66"/>
    <rect x="131.71" y="113.42" width="3.66" height="3.66"/>
    <rect x="14.63" y="117.08" width="3.66" height="3.66"/>
    <rect x="21.95" y="117.08" width="3.66" height="3.66"/>
    <rect x="25.61" y="117.08" width="3.66" height="3.66"/>
    <rect x="29.27" y="117.08" width="3.66" height="3.66"/>
    <rect x="36.59" y="117.08" width="3.66" height="3.66"/>
    <rect x="43.9" y="117.08" width="3.66" height="3.66"/>
    <rect x="47.56" y="117.08" width="3.66" height="3.66"/>
    <rect x="51.22" y="117.08" width="3.66" height="3.66"/>
    <rect x="58.54" y="117.08" width="3.66" height="3.66"/>
    <rect x="62.2" y="117.08" width="3.66" height="3.66"/>
    <rect x="65.85" y="117.08" width="3.66" height="3.66"/>
    <rect x="73.17" y="117.08" width="3.66" height="3.66"/>
    <rect x="76.83" y="117.08" width="3.66" height="3.66"/>
    <rect x="84.15" y="117.08" width="3.66" height="3.66"/>
    <rect x="87.81" y="117.08" width="3.66" height="3.66"/>
    <rect x="102.44" y="117.08" width="3.66" height="3.66"/>
    <rect x="106.1" y="117.08" width="3.66" height="3.66"/>
    <rect x="109.75" y="117.08" width="3.66" height="3.66"/>
    <rect x="113.42" y="117.08" width="3.66" height="3.66"/>
    <rect x="117.08" y="117.08" width="3.66" height="3.66"/>
    <rect x="128.05" y="117.08" width="3.66" height="3.66"/>
    <rect x="14.63" y="120.73" width="3.66" height="3.66"/>
    <rect x="21.95" y="120.73" width="3.66" height="3.66"/>
    <rect x="25.61" y="120.73" width="3.66" height="3.66"/>
    <rect x="29.27" y="120.73" width="3.66" height="3.66"/>
    <rect x="36.59" y="120.73" width="3.66" height="3.66"/>
    <rect x="58.54" y="120.73" width="3.66" height="3.66"/>
    <rect x="73.17" y="120.73" width="3.66" height="3.66"/>
    <rect x="80.49" y="120.73" width="3.66" height="3.66"/>
    <rect x="87.81" y="120.73" width="3.66" height="3.66"/>
    <rect x="102.44" y="120.73" width="3.66" height="3.66"/>
    <rect x="117.08" y="120.73" width="3.66" height="3.66"/>
    <rect x="120.73" y="120.73" width="3.66" height="3.66"/>
    <rect x="14.63" y="124.39" width="3.66" height="3.66"/>
    <rect x="21.95" y="124.39" width="3.66" height="3.66"/>
    <rect x="25.61" y="124.39" width="3.66" height="3.66"/>
    <rect x="29.27" y="124.39" width="3.66" height="3.66"/>
    <rect x="36.59" y="124.39" width="3.66" height="3.66"/>
    <rect x="43.9" y="124.39" width="3.66" height="3.66"/>
    <rect x="58.54" y="124.39" width="3.66" height="3.66"/>
    <rect x="62.2" y="124.39" width="3.66" height="3.66"/>
    <rect x="65.85" y="124.39" width="3.66" height="3.66"/>
    <rect x="73.17" y="124.39" width="3.66" height="3.66"/>
    <rect x="80.49" y="124.39" width="3.66" height="3.66"/>
    <rect x="87.81" y="124.39" width="3.66" height="3.66"/>
    <rect x="91.46" y="124.39" width="3.66" height="3.66"/>
    <rect x="95.12" y="124.39" width="3.66" height="3.66"/>
    <rect x="98.78" y="124.39" width="3.66" height="3.66"/>
    <rect x="106.1" y="124.39" width="3.66" height="3.66"/>
    <rect x="113.42" y="124.39" width="3.66" height="3.66"/>
    <rect x="117.08" y="124.39" width="3.66" height="3.66"/>
    <rect x="131.71" y="124.39" width="3.66" height="3.66"/>
    <rect x="14.63" y="128.05" width="3.66" height="3.66"/>
    <rect x="36.59" y="128.05" width="3.66" height="3.66"/>
    <rect x="47.56" y="128.05" width="3.66" height="3.66"/>
    <rect x="54.88" y="128.05" width="3.66" height="3.66"/>
    <rect x="62.2" y="128.05" width="3.66" height="3.66"/>
    <rect x="76.83" y="128.05" width="3.66" height="3.66"/>
    <rect x="80.49" y="128.05" width="3.66" height="3.66"/>
    <rect x="84.15" y="128.05" width="3.66" height="3.66"/>
    <rect x="102.44" y="128.05" width="3.66" height="3.66"/>
    <rect x="106.1" y="128.05" width="3.66" height="3.66"/>
    <rect x="113.42" y="128.05" width="3.66" height="3.66"/>
    <rect x="120.73" y="128.05" width="3.66" height="3.66"/>
    <rect x="128.05" y="128.05" width="3.66" height="3.66"/>
    <rect x="14.63" y="131.71" width="3.66" height="3.66"/>
    <rect x="18.29" y="131.71" width="3.66" height="3.66"/>
    <rect x="21.95" y="131.71" width="3.66" height="3.66"/>
    <rect x="25.61" y="131.71" width="3.66" height="3.66"/>
    <rect x="29.27" y="131.71" width="3.66" height="3.66"/>
    <rect x="32.93" y="131.71" width="3.66" height="3.66"/>
    <rect x="36.59" y="131.71" width="3.66" height="3.66"/>
    <rect x="51.22" y="131.71" width="3.66" height="3.66"/>
    <rect x="58.54" y="131.71" width="3.66" height="3.66"/>
    <rect x="65.85" y="131.71" width="3.66" height="3.66"/>
    <rect x="80.49" y="131.71" width="3.66" height="3.66"/>
    <rect x="84.15" y="131.71" width="3.66" height="3.66"/>
    <rect x="98.78" y="131.71" width="3.66" height="3.66"/>
    <rect x="102.44" y="131.71" width="3.66" height="3.66"/>
    <rect x="106.1" y="131.71" width="3.66" height="3.66"/>
    <rect x="113.42" y="131.71" width="3.66" height="3.66"/>
    <rect x="117.08" y="131.71" width="3.66" height="3.66"/>
    <rect x="128.05" y="131.71" width="3.66" height="3.66"/>
    <rect x="131.71" y="131.71" width="3.66" height="3.66"/>
  </g>
</svg>
