<svg id="レイヤー_1" data-name="レイヤー 1" xmlns="http://www.w3.org/2000/svg" width="150.2" height="150.2" viewBox="0 0 150.2 150.2">
  <defs>
    <style>
      .cls-1 {
        fill: #fff;
      }
    </style>
  </defs>
  <g>
    <rect class="cls-1" width="150.2" height="150.2"/>
    <rect x="14.65" y="14.65" width="3.66" height="3.66"/>
    <rect x="18.32" y="14.65" width="3.66" height="3.66"/>
    <rect x="21.98" y="14.65" width="3.66" height="3.66"/>
    <rect x="25.64" y="14.65" width="3.66" height="3.66"/>
    <rect x="29.31" y="14.65" width="3.66" height="3.66"/>
    <rect x="32.97" y="14.65" width="3.66" height="3.66"/>
    <rect x="36.63" y="14.65" width="3.66" height="3.66"/>
    <rect x="43.96" y="14.65" width="3.66" height="3.66"/>
    <rect x="69.61" y="14.65" width="3.66" height="3.66"/>
    <rect x="76.93" y="14.65" width="3.66" height="3.66"/>
    <rect x="80.6" y="14.65" width="3.66" height="3.66"/>
    <rect x="95.25" y="14.65" width="3.66" height="3.66"/>
    <rect x="98.91" y="14.65" width="3.66" height="3.66"/>
    <rect x="102.58" y="14.65" width="3.66" height="3.66"/>
    <rect x="109.9" y="14.65" width="3.66" height="3.66"/>
    <rect x="113.57" y="14.65" width="3.66" height="3.66"/>
    <rect x="117.23" y="14.65" width="3.66" height="3.66"/>
    <rect x="120.89" y="14.65" width="3.66" height="3.66"/>
    <rect x="124.56" y="14.65" width="3.66" height="3.66"/>
    <rect x="128.22" y="14.65" width="3.66" height="3.66"/>
    <rect x="131.88" y="14.65" width="3.66" height="3.66"/>
    <rect x="14.65" y="18.32" width="3.66" height="3.66"/>
    <rect x="36.63" y="18.32" width="3.66" height="3.66"/>
    <rect x="47.62" y="18.32" width="3.66" height="3.66"/>
    <rect x="54.95" y="18.32" width="3.66" height="3.66"/>
    <rect x="58.62" y="18.32" width="3.66" height="3.66"/>
    <rect x="62.28" y="18.32" width="3.66" height="3.66"/>
    <rect x="76.93" y="18.32" width="3.66" height="3.66"/>
    <rect x="91.59" y="18.32" width="3.66" height="3.66"/>
    <rect x="98.91" y="18.32" width="3.66" height="3.66"/>
    <rect x="109.9" y="18.32" width="3.66" height="3.66"/>
    <rect x="131.88" y="18.32" width="3.66" height="3.66"/>
    <rect x="14.65" y="21.98" width="3.66" height="3.66"/>
    <rect x="21.98" y="21.98" width="3.66" height="3.66"/>
    <rect x="25.64" y="21.98" width="3.66" height="3.66"/>
    <rect x="29.31" y="21.98" width="3.66" height="3.66"/>
    <rect x="36.63" y="21.98" width="3.66" height="3.66"/>
    <rect x="51.29" y="21.98" width="3.67" height="3.66"/>
    <rect x="54.95" y="21.98" width="3.66" height="3.66"/>
    <rect x="62.28" y="21.98" width="3.66" height="3.66"/>
    <rect x="65.94" y="21.98" width="3.66" height="3.66"/>
    <rect x="87.92" y="21.98" width="3.66" height="3.66"/>
    <rect x="98.91" y="21.98" width="3.66" height="3.66"/>
    <rect x="102.58" y="21.98" width="3.66" height="3.66"/>
    <rect x="109.9" y="21.98" width="3.66" height="3.66"/>
    <rect x="117.23" y="21.98" width="3.66" height="3.66"/>
    <rect x="120.89" y="21.98" width="3.66" height="3.66"/>
    <rect x="124.56" y="21.98" width="3.66" height="3.66"/>
    <rect x="131.88" y="21.98" width="3.66" height="3.66"/>
    <rect x="14.65" y="25.64" width="3.66" height="3.66"/>
    <rect x="21.98" y="25.64" width="3.66" height="3.66"/>
    <rect x="25.64" y="25.64" width="3.66" height="3.66"/>
    <rect x="29.31" y="25.64" width="3.66" height="3.66"/>
    <rect x="36.63" y="25.64" width="3.66" height="3.66"/>
    <rect x="43.96" y="25.64" width="3.66" height="3.66"/>
    <rect x="47.62" y="25.64" width="3.66" height="3.66"/>
    <rect x="54.95" y="25.64" width="3.66" height="3.66"/>
    <rect x="62.28" y="25.64" width="3.66" height="3.66"/>
    <rect x="69.61" y="25.64" width="3.66" height="3.66"/>
    <rect x="76.93" y="25.64" width="3.66" height="3.66"/>
    <rect x="87.92" y="25.64" width="3.66" height="3.66"/>
    <rect x="95.25" y="25.64" width="3.66" height="3.66"/>
    <rect x="109.9" y="25.64" width="3.66" height="3.66"/>
    <rect x="117.23" y="25.64" width="3.66" height="3.66"/>
    <rect x="120.89" y="25.64" width="3.66" height="3.66"/>
    <rect x="124.56" y="25.64" width="3.66" height="3.66"/>
    <rect x="131.88" y="25.64" width="3.66" height="3.66"/>
    <rect x="14.65" y="29.31" width="3.66" height="3.66"/>
    <rect x="21.98" y="29.31" width="3.66" height="3.66"/>
    <rect x="25.64" y="29.31" width="3.66" height="3.66"/>
    <rect x="29.31" y="29.31" width="3.66" height="3.66"/>
    <rect x="36.63" y="29.31" width="3.66" height="3.66"/>
    <rect x="47.62" y="29.31" width="3.66" height="3.66"/>
    <rect x="58.62" y="29.31" width="3.66" height="3.66"/>
    <rect x="62.28" y="29.31" width="3.66" height="3.66"/>
    <rect x="65.94" y="29.31" width="3.66" height="3.66"/>
    <rect x="76.93" y="29.31" width="3.66" height="3.66"/>
    <rect x="91.59" y="29.31" width="3.66" height="3.66"/>
    <rect x="109.9" y="29.31" width="3.66" height="3.66"/>
    <rect x="117.23" y="29.31" width="3.66" height="3.66"/>
    <rect x="120.89" y="29.31" width="3.66" height="3.66"/>
    <rect x="124.56" y="29.31" width="3.66" height="3.66"/>
    <rect x="131.88" y="29.31" width="3.66" height="3.66"/>
    <rect x="14.65" y="32.97" width="3.66" height="3.66"/>
    <rect x="36.63" y="32.97" width="3.66" height="3.66"/>
    <rect x="47.62" y="32.97" width="3.66" height="3.66"/>
    <rect x="51.29" y="32.97" width="3.67" height="3.66"/>
    <rect x="54.95" y="32.97" width="3.66" height="3.66"/>
    <rect x="65.94" y="32.97" width="3.66" height="3.66"/>
    <rect x="76.93" y="32.97" width="3.66" height="3.66"/>
    <rect x="84.26" y="32.97" width="3.66" height="3.66"/>
    <rect x="95.25" y="32.97" width="3.66" height="3.66"/>
    <rect x="109.9" y="32.97" width="3.66" height="3.66"/>
    <rect x="131.88" y="32.97" width="3.66" height="3.66"/>
    <rect x="14.65" y="36.63" width="3.66" height="3.66"/>
    <rect x="18.32" y="36.63" width="3.66" height="3.66"/>
    <rect x="21.98" y="36.63" width="3.66" height="3.66"/>
    <rect x="25.64" y="36.63" width="3.66" height="3.66"/>
    <rect x="29.31" y="36.63" width="3.66" height="3.66"/>
    <rect x="32.97" y="36.63" width="3.66" height="3.66"/>
    <rect x="36.63" y="36.63" width="3.66" height="3.66"/>
    <rect x="43.96" y="36.63" width="3.66" height="3.66"/>
    <rect x="51.29" y="36.63" width="3.67" height="3.66"/>
    <rect x="58.62" y="36.63" width="3.66" height="3.66"/>
    <rect x="65.94" y="36.63" width="3.66" height="3.66"/>
    <rect x="73.27" y="36.63" width="3.66" height="3.66"/>
    <rect x="80.6" y="36.63" width="3.66" height="3.66"/>
    <rect x="87.92" y="36.63" width="3.66" height="3.66"/>
    <rect x="95.25" y="36.63" width="3.66" height="3.66"/>
    <rect x="102.58" y="36.63" width="3.66" height="3.66"/>
    <rect x="109.9" y="36.63" width="3.66" height="3.66"/>
    <rect x="113.57" y="36.63" width="3.66" height="3.66"/>
    <rect x="117.23" y="36.63" width="3.66" height="3.66"/>
    <rect x="120.89" y="36.63" width="3.66" height="3.66"/>
    <rect x="124.56" y="36.63" width="3.66" height="3.66"/>
    <rect x="128.22" y="36.63" width="3.66" height="3.66"/>
    <rect x="131.88" y="36.63" width="3.66" height="3.66"/>
    <rect x="47.62" y="40.3" width="3.66" height="3.66"/>
    <rect x="51.29" y="40.3" width="3.67" height="3.66"/>
    <rect x="54.95" y="40.3" width="3.66" height="3.66"/>
    <rect x="91.59" y="40.3" width="3.66" height="3.66"/>
    <rect x="95.25" y="40.3" width="3.66" height="3.66"/>
    <rect x="102.58" y="40.3" width="3.66" height="3.66"/>
    <rect x="21.98" y="43.96" width="3.66" height="3.66"/>
    <rect x="29.31" y="43.96" width="3.66" height="3.66"/>
    <rect x="32.97" y="43.96" width="3.66" height="3.66"/>
    <rect x="36.63" y="43.96" width="3.66" height="3.66"/>
    <rect x="43.96" y="43.96" width="3.66" height="3.66"/>
    <rect x="47.62" y="43.96" width="3.66" height="3.66"/>
    <rect x="54.95" y="43.96" width="3.66" height="3.66"/>
    <rect x="62.28" y="43.96" width="3.66" height="3.66"/>
    <rect x="69.61" y="43.96" width="3.66" height="3.66"/>
    <rect x="73.27" y="43.96" width="3.66" height="3.66"/>
    <rect x="80.6" y="43.96" width="3.66" height="3.66"/>
    <rect x="87.92" y="43.96" width="3.66" height="3.66"/>
    <rect x="98.91" y="43.96" width="3.66" height="3.66"/>
    <rect x="102.58" y="43.96" width="3.66" height="3.66"/>
    <rect x="106.24" y="43.96" width="3.66" height="3.66"/>
    <rect x="120.89" y="43.96" width="3.66" height="3.66"/>
    <rect x="131.88" y="43.96" width="3.66" height="3.66"/>
    <rect x="21.98" y="47.62" width="3.66" height="3.66"/>
    <rect x="25.64" y="47.62" width="3.66" height="3.66"/>
    <rect x="29.31" y="47.62" width="3.66" height="3.66"/>
    <rect x="40.3" y="47.62" width="3.66" height="3.66"/>
    <rect x="51.29" y="47.62" width="3.67" height="3.66"/>
    <rect x="54.95" y="47.62" width="3.66" height="3.66"/>
    <rect x="65.94" y="47.62" width="3.66" height="3.66"/>
    <rect x="69.61" y="47.62" width="3.66" height="3.66"/>
    <rect x="73.27" y="47.62" width="3.66" height="3.66"/>
    <rect x="91.59" y="47.62" width="3.66" height="3.66"/>
    <rect x="109.9" y="47.62" width="3.66" height="3.66"/>
    <rect x="124.56" y="47.62" width="3.66" height="3.66"/>
    <rect x="128.22" y="47.62" width="3.66" height="3.66"/>
    <rect x="131.88" y="47.62" width="3.66" height="3.66"/>
    <rect x="14.65" y="51.29" width="3.66" height="3.66"/>
    <rect x="18.32" y="51.29" width="3.66" height="3.66"/>
    <rect x="25.64" y="51.29" width="3.66" height="3.66"/>
    <rect x="36.63" y="51.29" width="3.66" height="3.66"/>
    <rect x="47.62" y="51.29" width="3.66" height="3.66"/>
    <rect x="51.29" y="51.29" width="3.67" height="3.66"/>
    <rect x="58.62" y="51.29" width="3.66" height="3.66"/>
    <rect x="62.28" y="51.29" width="3.66" height="3.66"/>
    <rect x="65.94" y="51.29" width="3.66" height="3.66"/>
    <rect x="69.61" y="51.29" width="3.66" height="3.66"/>
    <rect x="73.27" y="51.29" width="3.66" height="3.66"/>
    <rect x="76.93" y="51.29" width="3.66" height="3.66"/>
    <rect x="80.6" y="51.29" width="3.66" height="3.66"/>
    <rect x="84.26" y="51.29" width="3.66" height="3.66"/>
    <rect x="87.92" y="51.29" width="3.66" height="3.66"/>
    <rect x="95.25" y="51.29" width="3.66" height="3.66"/>
    <rect x="102.58" y="51.29" width="3.66" height="3.66"/>
    <rect x="106.24" y="51.29" width="3.66" height="3.66"/>
    <rect x="117.23" y="51.29" width="3.66" height="3.66"/>
    <rect x="128.22" y="51.29" width="3.66" height="3.66"/>
    <rect x="131.88" y="51.29" width="3.66" height="3.66"/>
    <rect x="14.65" y="54.95" width="3.66" height="3.66"/>
    <rect x="21.98" y="54.95" width="3.66" height="3.66"/>
    <rect x="25.64" y="54.95" width="3.66" height="3.66"/>
    <rect x="29.31" y="54.95" width="3.66" height="3.66"/>
    <rect x="40.3" y="54.95" width="3.66" height="3.66"/>
    <rect x="47.62" y="54.95" width="3.66" height="3.66"/>
    <rect x="51.29" y="54.95" width="3.67" height="3.66"/>
    <rect x="65.94" y="54.95" width="3.66" height="3.66"/>
    <rect x="69.61" y="54.95" width="3.66" height="3.66"/>
    <rect x="73.27" y="54.95" width="3.66" height="3.66"/>
    <rect x="76.93" y="54.95" width="3.66" height="3.66"/>
    <rect x="80.6" y="54.95" width="3.66" height="3.66"/>
    <rect x="84.26" y="54.95" width="3.66" height="3.66"/>
    <rect x="91.59" y="54.95" width="3.66" height="3.66"/>
    <rect x="95.25" y="54.95" width="3.66" height="3.66"/>
    <rect x="102.58" y="54.95" width="3.66" height="3.66"/>
    <rect x="106.24" y="54.95" width="3.66" height="3.66"/>
    <rect x="109.9" y="54.95" width="3.66" height="3.66"/>
    <rect x="131.88" y="54.95" width="3.66" height="3.66"/>
    <rect x="14.65" y="58.61" width="3.66" height="3.66"/>
    <rect x="18.32" y="58.61" width="3.66" height="3.66"/>
    <rect x="29.31" y="58.61" width="3.66" height="3.66"/>
    <rect x="36.63" y="58.61" width="3.66" height="3.66"/>
    <rect x="43.96" y="58.61" width="3.66" height="3.66"/>
    <rect x="58.62" y="58.61" width="3.66" height="3.66"/>
    <rect x="62.28" y="58.61" width="3.66" height="3.66"/>
    <rect x="65.94" y="58.61" width="3.66" height="3.66"/>
    <rect x="69.61" y="58.61" width="3.66" height="3.66"/>
    <rect x="87.92" y="58.61" width="3.66" height="3.66"/>
    <rect x="95.25" y="58.61" width="3.66" height="3.66"/>
    <rect x="98.91" y="58.61" width="3.66" height="3.66"/>
    <rect x="102.58" y="58.61" width="3.66" height="3.66"/>
    <rect x="106.24" y="58.61" width="3.66" height="3.66"/>
    <rect x="109.9" y="58.61" width="3.66" height="3.66"/>
    <rect x="117.23" y="58.61" width="3.66" height="3.66"/>
    <rect x="131.88" y="58.61" width="3.66" height="3.66"/>
    <rect x="25.64" y="62.28" width="3.66" height="3.66"/>
    <rect x="29.31" y="62.28" width="3.66" height="3.66"/>
    <rect x="47.62" y="62.28" width="3.66" height="3.66"/>
    <rect x="69.61" y="62.28" width="3.66" height="3.66"/>
    <rect x="73.27" y="62.28" width="3.66" height="3.66"/>
    <rect x="84.26" y="62.28" width="3.66" height="3.66"/>
    <rect x="95.25" y="62.28" width="3.66" height="3.66"/>
    <rect x="102.58" y="62.28" width="3.66" height="3.66"/>
    <rect x="109.9" y="62.28" width="3.66" height="3.66"/>
    <rect x="113.57" y="62.28" width="3.66" height="3.66"/>
    <rect x="120.89" y="62.28" width="3.66" height="3.66"/>
    <rect x="128.22" y="62.28" width="3.66" height="3.66"/>
    <rect x="131.88" y="62.28" width="3.66" height="3.66"/>
    <rect x="14.65" y="65.94" width="3.66" height="3.66"/>
    <rect x="21.98" y="65.94" width="3.66" height="3.66"/>
    <rect x="25.64" y="65.94" width="3.66" height="3.66"/>
    <rect x="36.63" y="65.94" width="3.66" height="3.66"/>
    <rect x="43.96" y="65.94" width="3.66" height="3.66"/>
    <rect x="47.62" y="65.94" width="3.66" height="3.66"/>
    <rect x="58.62" y="65.94" width="3.66" height="3.66"/>
    <rect x="62.28" y="65.94" width="3.66" height="3.66"/>
    <rect x="65.94" y="65.94" width="3.66" height="3.66"/>
    <rect x="80.6" y="65.94" width="3.66" height="3.66"/>
    <rect x="84.26" y="65.94" width="3.66" height="3.66"/>
    <rect x="91.59" y="65.94" width="3.66" height="3.66"/>
    <rect x="102.58" y="65.94" width="3.66" height="3.66"/>
    <rect x="106.24" y="65.94" width="3.66" height="3.66"/>
    <rect x="113.57" y="65.94" width="3.66" height="3.66"/>
    <rect x="124.56" y="65.94" width="3.66" height="3.66"/>
    <rect x="128.22" y="65.94" width="3.66" height="3.66"/>
    <rect x="131.88" y="65.94" width="3.66" height="3.66"/>
    <rect x="14.65" y="69.61" width="3.66" height="3.66"/>
    <rect x="29.31" y="69.61" width="3.66" height="3.66"/>
    <rect x="40.3" y="69.61" width="3.66" height="3.66"/>
    <rect x="47.62" y="69.61" width="3.66" height="3.66"/>
    <rect x="51.29" y="69.61" width="3.67" height="3.66"/>
    <rect x="54.95" y="69.61" width="3.66" height="3.66"/>
    <rect x="73.27" y="69.61" width="3.66" height="3.66"/>
    <rect x="80.6" y="69.61" width="3.66" height="3.66"/>
    <rect x="84.26" y="69.61" width="3.66" height="3.66"/>
    <rect x="91.59" y="69.61" width="3.66" height="3.66"/>
    <rect x="95.25" y="69.61" width="3.66" height="3.66"/>
    <rect x="98.91" y="69.61" width="3.66" height="3.66"/>
    <rect x="102.58" y="69.61" width="3.66" height="3.66"/>
    <rect x="106.24" y="69.61" width="3.66" height="3.66"/>
    <rect x="109.9" y="69.61" width="3.66" height="3.66"/>
    <rect x="117.23" y="69.61" width="3.66" height="3.66"/>
    <rect x="120.89" y="69.61" width="3.66" height="3.66"/>
    <rect x="14.65" y="73.27" width="3.66" height="3.66"/>
    <rect x="18.32" y="73.27" width="3.66" height="3.66"/>
    <rect x="21.98" y="73.27" width="3.66" height="3.66"/>
    <rect x="29.31" y="73.27" width="3.66" height="3.66"/>
    <rect x="32.97" y="73.27" width="3.66" height="3.66"/>
    <rect x="36.63" y="73.27" width="3.66" height="3.66"/>
    <rect x="40.3" y="73.27" width="3.66" height="3.66"/>
    <rect x="43.96" y="73.27" width="3.66" height="3.66"/>
    <rect x="62.28" y="73.27" width="3.66" height="3.66"/>
    <rect x="69.61" y="73.27" width="3.66" height="3.66"/>
    <rect x="76.93" y="73.27" width="3.66" height="3.66"/>
    <rect x="80.6" y="73.27" width="3.66" height="3.66"/>
    <rect x="84.26" y="73.27" width="3.66" height="3.66"/>
    <rect x="91.59" y="73.27" width="3.66" height="3.66"/>
    <rect x="95.25" y="73.27" width="3.66" height="3.66"/>
    <rect x="106.24" y="73.27" width="3.66" height="3.66"/>
    <rect x="109.9" y="73.27" width="3.66" height="3.66"/>
    <rect x="120.89" y="73.27" width="3.66" height="3.66"/>
    <rect x="128.22" y="73.27" width="3.66" height="3.66"/>
    <rect x="14.65" y="76.93" width="3.66" height="3.66"/>
    <rect x="47.62" y="76.93" width="3.66" height="3.66"/>
    <rect x="51.29" y="76.93" width="3.67" height="3.66"/>
    <rect x="54.95" y="76.93" width="3.66" height="3.66"/>
    <rect x="62.28" y="76.93" width="3.66" height="3.66"/>
    <rect x="65.94" y="76.93" width="3.66" height="3.66"/>
    <rect x="69.61" y="76.93" width="3.66" height="3.66"/>
    <rect x="73.27" y="76.93" width="3.66" height="3.66"/>
    <rect x="84.26" y="76.93" width="3.66" height="3.66"/>
    <rect x="87.92" y="76.93" width="3.66" height="3.66"/>
    <rect x="91.59" y="76.93" width="3.66" height="3.66"/>
    <rect x="106.24" y="76.93" width="3.66" height="3.66"/>
    <rect x="109.9" y="76.93" width="3.66" height="3.66"/>
    <rect x="120.89" y="76.93" width="3.66" height="3.66"/>
    <rect x="124.56" y="76.93" width="3.66" height="3.66"/>
    <rect x="131.88" y="76.93" width="3.66" height="3.66"/>
    <rect x="14.65" y="80.6" width="3.66" height="3.66"/>
    <rect x="18.32" y="80.6" width="3.66" height="3.66"/>
    <rect x="21.98" y="80.6" width="3.66" height="3.66"/>
    <rect x="36.63" y="80.6" width="3.66" height="3.66"/>
    <rect x="40.3" y="80.6" width="3.66" height="3.66"/>
    <rect x="47.62" y="80.6" width="3.66" height="3.66"/>
    <rect x="62.28" y="80.6" width="3.66" height="3.66"/>
    <rect x="65.94" y="80.6" width="3.66" height="3.66"/>
    <rect x="84.26" y="80.6" width="3.66" height="3.66"/>
    <rect x="87.92" y="80.6" width="3.66" height="3.66"/>
    <rect x="91.59" y="80.6" width="3.66" height="3.66"/>
    <rect x="95.25" y="80.6" width="3.66" height="3.66"/>
    <rect x="106.24" y="80.6" width="3.66" height="3.66"/>
    <rect x="113.57" y="80.6" width="3.66" height="3.66"/>
    <rect x="117.23" y="80.6" width="3.66" height="3.66"/>
    <rect x="124.56" y="80.6" width="3.66" height="3.66"/>
    <rect x="131.88" y="80.6" width="3.66" height="3.66"/>
    <rect x="14.65" y="84.26" width="3.66" height="3.66"/>
    <rect x="47.62" y="84.26" width="3.66" height="3.66"/>
    <rect x="62.28" y="84.26" width="3.66" height="3.66"/>
    <rect x="76.93" y="84.26" width="3.66" height="3.66"/>
    <rect x="80.6" y="84.26" width="3.66" height="3.66"/>
    <rect x="84.26" y="84.26" width="3.66" height="3.66"/>
    <rect x="87.92" y="84.26" width="3.66" height="3.66"/>
    <rect x="91.59" y="84.26" width="3.66" height="3.66"/>
    <rect x="106.24" y="84.26" width="3.66" height="3.66"/>
    <rect x="109.9" y="84.26" width="3.66" height="3.66"/>
    <rect x="113.57" y="84.26" width="3.66" height="3.66"/>
    <rect x="128.22" y="84.26" width="3.66" height="3.66"/>
    <rect x="25.64" y="87.92" width="3.66" height="3.66"/>
    <rect x="29.31" y="87.92" width="3.66" height="3.66"/>
    <rect x="32.97" y="87.92" width="3.66" height="3.66"/>
    <rect x="36.63" y="87.92" width="3.66" height="3.66"/>
    <rect x="40.3" y="87.92" width="3.66" height="3.66"/>
    <rect x="43.96" y="87.92" width="3.66" height="3.66"/>
    <rect x="58.62" y="87.92" width="3.66" height="3.66"/>
    <rect x="62.28" y="87.92" width="3.66" height="3.66"/>
    <rect x="91.59" y="87.92" width="3.66" height="3.66"/>
    <rect x="106.24" y="87.92" width="3.66" height="3.66"/>
    <rect x="120.89" y="87.92" width="3.66" height="3.66"/>
    <rect x="131.88" y="87.92" width="3.66" height="3.66"/>
    <rect x="18.32" y="91.59" width="3.66" height="3.66"/>
    <rect x="21.98" y="91.59" width="3.66" height="3.66"/>
    <rect x="43.96" y="91.59" width="3.66" height="3.66"/>
    <rect x="51.29" y="91.59" width="3.67" height="3.66"/>
    <rect x="54.95" y="91.59" width="3.66" height="3.66"/>
    <rect x="65.94" y="91.59" width="3.66" height="3.66"/>
    <rect x="73.27" y="91.59" width="3.66" height="3.66"/>
    <rect x="76.93" y="91.59" width="3.66" height="3.66"/>
    <rect x="95.25" y="91.59" width="3.66" height="3.66"/>
    <rect x="98.91" y="91.59" width="3.66" height="3.66"/>
    <rect x="106.24" y="91.59" width="3.66" height="3.66"/>
    <rect x="113.57" y="91.59" width="3.66" height="3.66"/>
    <rect x="120.89" y="91.59" width="3.66" height="3.66"/>
    <rect x="128.22" y="91.59" width="3.66" height="3.66"/>
    <rect x="131.88" y="91.59" width="3.66" height="3.66"/>
    <rect x="14.65" y="95.25" width="3.66" height="3.66"/>
    <rect x="25.64" y="95.25" width="3.66" height="3.66"/>
    <rect x="36.63" y="95.25" width="3.66" height="3.66"/>
    <rect x="40.3" y="95.25" width="3.66" height="3.66"/>
    <rect x="58.62" y="95.25" width="3.66" height="3.66"/>
    <rect x="62.28" y="95.25" width="3.66" height="3.66"/>
    <rect x="80.6" y="95.25" width="3.66" height="3.66"/>
    <rect x="87.92" y="95.25" width="3.66" height="3.66"/>
    <rect x="95.25" y="95.25" width="3.66" height="3.66"/>
    <rect x="109.9" y="95.25" width="3.66" height="3.66"/>
    <rect x="113.57" y="95.25" width="3.66" height="3.66"/>
    <rect x="117.23" y="95.25" width="3.66" height="3.66"/>
    <rect x="120.89" y="95.25" width="3.66" height="3.66"/>
    <rect x="124.56" y="95.25" width="3.66" height="3.66"/>
    <rect x="131.88" y="95.25" width="3.66" height="3.66"/>
    <rect x="18.32" y="98.91" width="3.66" height="3.66"/>
    <rect x="29.31" y="98.91" width="3.66" height="3.66"/>
    <rect x="40.3" y="98.91" width="3.66" height="3.66"/>
    <rect x="43.96" y="98.91" width="3.66" height="3.66"/>
    <rect x="47.62" y="98.91" width="3.66" height="3.66"/>
    <rect x="51.29" y="98.91" width="3.67" height="3.66"/>
    <rect x="54.95" y="98.91" width="3.66" height="3.66"/>
    <rect x="58.62" y="98.91" width="3.66" height="3.66"/>
    <rect x="62.28" y="98.91" width="3.66" height="3.66"/>
    <rect x="65.94" y="98.91" width="3.66" height="3.66"/>
    <rect x="91.59" y="98.91" width="3.66" height="3.66"/>
    <rect x="98.91" y="98.91" width="3.66" height="3.66"/>
    <rect x="106.24" y="98.91" width="3.66" height="3.66"/>
    <rect x="117.23" y="98.91" width="3.66" height="3.66"/>
    <rect x="128.22" y="98.91" width="3.66" height="3.66"/>
    <rect x="14.65" y="102.58" width="3.66" height="3.66"/>
    <rect x="21.98" y="102.58" width="3.66" height="3.66"/>
    <rect x="29.31" y="102.58" width="3.66" height="3.66"/>
    <rect x="32.97" y="102.58" width="3.66" height="3.66"/>
    <rect x="36.63" y="102.58" width="3.66" height="3.66"/>
    <rect x="40.3" y="102.58" width="3.66" height="3.66"/>
    <rect x="47.62" y="102.58" width="3.66" height="3.66"/>
    <rect x="51.29" y="102.58" width="3.67" height="3.66"/>
    <rect x="58.62" y="102.58" width="3.66" height="3.66"/>
    <rect x="62.28" y="102.58" width="3.66" height="3.66"/>
    <rect x="65.94" y="102.58" width="3.66" height="3.66"/>
    <rect x="73.27" y="102.58" width="3.66" height="3.66"/>
    <rect x="91.59" y="102.58" width="3.66" height="3.66"/>
    <rect x="95.25" y="102.58" width="3.66" height="3.66"/>
    <rect x="102.58" y="102.58" width="3.66" height="3.66"/>
    <rect x="106.24" y="102.58" width="3.66" height="3.66"/>
    <rect x="109.9" y="102.58" width="3.66" height="3.66"/>
    <rect x="113.57" y="102.58" width="3.66" height="3.66"/>
    <rect x="117.23" y="102.58" width="3.66" height="3.66"/>
    <rect x="128.22" y="102.58" width="3.66" height="3.66"/>
    <rect x="131.88" y="102.58" width="3.66" height="3.66"/>
    <rect x="43.96" y="106.24" width="3.66" height="3.66"/>
    <rect x="65.94" y="106.24" width="3.66" height="3.66"/>
    <rect x="69.61" y="106.24" width="3.66" height="3.66"/>
    <rect x="87.92" y="106.24" width="3.66" height="3.66"/>
    <rect x="95.25" y="106.24" width="3.66" height="3.66"/>
    <rect x="98.91" y="106.24" width="3.66" height="3.66"/>
    <rect x="102.58" y="106.24" width="3.66" height="3.66"/>
    <rect x="117.23" y="106.24" width="3.66" height="3.66"/>
    <rect x="120.89" y="106.24" width="3.66" height="3.66"/>
    <rect x="128.22" y="106.24" width="3.66" height="3.66"/>
    <rect x="131.88" y="106.24" width="3.66" height="3.66"/>
    <rect x="14.65" y="109.9" width="3.66" height="3.66"/>
    <rect x="18.32" y="109.9" width="3.66" height="3.66"/>
    <rect x="21.98" y="109.9" width="3.66" height="3.66"/>
    <rect x="25.64" y="109.9" width="3.66" height="3.66"/>
    <rect x="29.31" y="109.9" width="3.66" height="3.66"/>
    <rect x="32.97" y="109.9" width="3.66" height="3.66"/>
    <rect x="36.63" y="109.9" width="3.66" height="3.66"/>
    <rect x="47.62" y="109.9" width="3.66" height="3.66"/>
    <rect x="54.95" y="109.9" width="3.66" height="3.66"/>
    <rect x="62.28" y="109.9" width="3.66" height="3.66"/>
    <rect x="69.61" y="109.9" width="3.66" height="3.66"/>
    <rect x="73.27" y="109.9" width="3.66" height="3.66"/>
    <rect x="91.59" y="109.9" width="3.66" height="3.66"/>
    <rect x="98.91" y="109.9" width="3.66" height="3.66"/>
    <rect x="102.58" y="109.9" width="3.66" height="3.66"/>
    <rect x="109.9" y="109.9" width="3.66" height="3.66"/>
    <rect x="117.23" y="109.9" width="3.66" height="3.66"/>
    <rect x="120.89" y="109.9" width="3.66" height="3.66"/>
    <rect x="128.22" y="109.9" width="3.66" height="3.66"/>
    <rect x="131.88" y="109.9" width="3.66" height="3.66"/>
    <rect x="14.65" y="113.57" width="3.66" height="3.66"/>
    <rect x="36.63" y="113.57" width="3.66" height="3.66"/>
    <rect x="43.96" y="113.57" width="3.66" height="3.66"/>
    <rect x="62.28" y="113.57" width="3.66" height="3.66"/>
    <rect x="69.61" y="113.57" width="3.66" height="3.66"/>
    <rect x="73.27" y="113.57" width="3.66" height="3.66"/>
    <rect x="80.6" y="113.57" width="3.66" height="3.66"/>
    <rect x="84.26" y="113.57" width="3.66" height="3.66"/>
    <rect x="87.92" y="113.57" width="3.66" height="3.66"/>
    <rect x="102.58" y="113.57" width="3.66" height="3.66"/>
    <rect x="117.23" y="113.57" width="3.66" height="3.66"/>
    <rect x="131.88" y="113.57" width="3.66" height="3.66"/>
    <rect x="14.65" y="117.23" width="3.66" height="3.66"/>
    <rect x="21.98" y="117.23" width="3.66" height="3.66"/>
    <rect x="25.64" y="117.23" width="3.66" height="3.66"/>
    <rect x="29.31" y="117.23" width="3.66" height="3.66"/>
    <rect x="36.63" y="117.23" width="3.66" height="3.66"/>
    <rect x="43.96" y="117.23" width="3.66" height="3.66"/>
    <rect x="47.62" y="117.23" width="3.66" height="3.66"/>
    <rect x="51.29" y="117.23" width="3.67" height="3.66"/>
    <rect x="58.62" y="117.23" width="3.66" height="3.66"/>
    <rect x="62.28" y="117.23" width="3.66" height="3.66"/>
    <rect x="65.94" y="117.23" width="3.66" height="3.66"/>
    <rect x="73.27" y="117.23" width="3.66" height="3.66"/>
    <rect x="84.26" y="117.23" width="3.66" height="3.66"/>
    <rect x="87.92" y="117.23" width="3.66" height="3.66"/>
    <rect x="102.58" y="117.23" width="3.66" height="3.66"/>
    <rect x="106.24" y="117.23" width="3.66" height="3.66"/>
    <rect x="109.9" y="117.23" width="3.66" height="3.66"/>
    <rect x="113.57" y="117.23" width="3.66" height="3.66"/>
    <rect x="117.23" y="117.23" width="3.66" height="3.66"/>
    <rect x="128.22" y="117.23" width="3.66" height="3.66"/>
    <rect x="14.65" y="120.89" width="3.66" height="3.66"/>
    <rect x="21.98" y="120.89" width="3.66" height="3.66"/>
    <rect x="25.64" y="120.89" width="3.66" height="3.66"/>
    <rect x="29.31" y="120.89" width="3.66" height="3.66"/>
    <rect x="36.63" y="120.89" width="3.66" height="3.66"/>
    <rect x="51.29" y="120.89" width="3.67" height="3.66"/>
    <rect x="58.62" y="120.89" width="3.66" height="3.66"/>
    <rect x="65.94" y="120.89" width="3.66" height="3.66"/>
    <rect x="73.27" y="120.89" width="3.66" height="3.66"/>
    <rect x="87.92" y="120.89" width="3.66" height="3.66"/>
    <rect x="102.58" y="120.89" width="3.66" height="3.66"/>
    <rect x="117.23" y="120.89" width="3.66" height="3.66"/>
    <rect x="120.89" y="120.89" width="3.66" height="3.66"/>
    <rect x="14.65" y="124.56" width="3.66" height="3.66"/>
    <rect x="21.98" y="124.56" width="3.66" height="3.66"/>
    <rect x="25.64" y="124.56" width="3.66" height="3.66"/>
    <rect x="29.31" y="124.56" width="3.66" height="3.66"/>
    <rect x="36.63" y="124.56" width="3.66" height="3.66"/>
    <rect x="43.96" y="124.56" width="3.66" height="3.66"/>
    <rect x="58.62" y="124.56" width="3.66" height="3.66"/>
    <rect x="62.28" y="124.56" width="3.66" height="3.66"/>
    <rect x="65.94" y="124.56" width="3.66" height="3.66"/>
    <rect x="73.27" y="124.56" width="3.66" height="3.66"/>
    <rect x="80.6" y="124.56" width="3.66" height="3.66"/>
    <rect x="87.92" y="124.56" width="3.66" height="3.66"/>
    <rect x="91.59" y="124.56" width="3.66" height="3.66"/>
    <rect x="95.25" y="124.56" width="3.66" height="3.66"/>
    <rect x="98.91" y="124.56" width="3.66" height="3.66"/>
    <rect x="106.24" y="124.56" width="3.66" height="3.66"/>
    <rect x="113.57" y="124.56" width="3.66" height="3.66"/>
    <rect x="117.23" y="124.56" width="3.66" height="3.66"/>
    <rect x="120.89" y="124.56" width="3.66" height="3.66"/>
    <rect x="124.56" y="124.56" width="3.66" height="3.66"/>
    <rect x="131.88" y="124.56" width="3.66" height="3.66"/>
    <rect x="14.65" y="128.22" width="3.66" height="3.66"/>
    <rect x="36.63" y="128.22" width="3.66" height="3.66"/>
    <rect x="47.62" y="128.22" width="3.66" height="3.66"/>
    <rect x="54.95" y="128.22" width="3.66" height="3.66"/>
    <rect x="62.28" y="128.22" width="3.66" height="3.66"/>
    <rect x="76.93" y="128.22" width="3.66" height="3.66"/>
    <rect x="80.6" y="128.22" width="3.66" height="3.66"/>
    <rect x="84.26" y="128.22" width="3.66" height="3.66"/>
    <rect x="102.58" y="128.22" width="3.66" height="3.66"/>
    <rect x="106.24" y="128.22" width="3.66" height="3.66"/>
    <rect x="113.57" y="128.22" width="3.66" height="3.66"/>
    <rect x="120.89" y="128.22" width="3.66" height="3.66"/>
    <rect x="128.22" y="128.22" width="3.66" height="3.66"/>
    <rect x="14.65" y="131.88" width="3.66" height="3.66"/>
    <rect x="18.32" y="131.88" width="3.66" height="3.66"/>
    <rect x="21.98" y="131.88" width="3.66" height="3.66"/>
    <rect x="25.64" y="131.88" width="3.66" height="3.66"/>
    <rect x="29.31" y="131.88" width="3.66" height="3.66"/>
    <rect x="32.97" y="131.88" width="3.66" height="3.66"/>
    <rect x="36.63" y="131.88" width="3.66" height="3.66"/>
    <rect x="51.29" y="131.88" width="3.67" height="3.66"/>
    <rect x="58.62" y="131.88" width="3.66" height="3.66"/>
    <rect x="65.94" y="131.88" width="3.66" height="3.66"/>
    <rect x="80.6" y="131.88" width="3.66" height="3.66"/>
    <rect x="84.26" y="131.88" width="3.66" height="3.66"/>
    <rect x="98.91" y="131.88" width="3.66" height="3.66"/>
    <rect x="102.58" y="131.88" width="3.66" height="3.66"/>
    <rect x="106.24" y="131.88" width="3.66" height="3.66"/>
    <rect x="113.57" y="131.88" width="3.66" height="3.66"/>
    <rect x="117.23" y="131.88" width="3.66" height="3.66"/>
    <rect x="128.22" y="131.88" width="3.66" height="3.66"/>
    <rect x="131.88" y="131.88" width="3.66" height="3.66"/>
  </g>
</svg>
