<svg id="レイヤー_1" data-name="レイヤー 1" xmlns="http://www.w3.org/2000/svg" width="28.12mm" height="28.12mm" viewBox="0 0 79.71 79.71">
  <defs>
    <style>
      .cls-1 {
        fill: #fff;
      }
    </style>
  </defs>
  <title>QR code_JP</title>
  <g>
    <rect class="cls-1" width="79.71" height="79.71"/>
    <rect x="8.62" y="8.62" width="2.15" height="2.15"/>
    <rect x="10.77" y="8.62" width="2.15" height="2.15"/>
    <rect x="12.93" y="8.62" width="2.15" height="2.15"/>
    <rect x="15.08" y="8.62" width="2.15" height="2.15"/>
    <rect x="17.23" y="8.62" width="2.15" height="2.15"/>
    <rect x="19.39" y="8.62" width="2.15" height="2.15"/>
    <rect x="21.54" y="8.62" width="2.15" height="2.15"/>
    <rect x="32.31" y="8.62" width="2.15" height="2.15"/>
    <rect x="34.47" y="8.62" width="2.15" height="2.15"/>
    <rect x="40.93" y="8.62" width="2.15" height="2.15"/>
    <rect x="43.09" y="8.62" width="2.15" height="2.15"/>
    <rect x="45.24" y="8.62" width="2.15" height="2.15"/>
    <rect x="47.4" y="8.62" width="2.15" height="2.15"/>
    <rect x="49.55" y="8.62" width="2.15" height="2.15"/>
    <rect x="56.01" y="8.62" width="2.15" height="2.15"/>
    <rect x="58.17" y="8.62" width="2.15" height="2.15"/>
    <rect x="60.32" y="8.62" width="2.15" height="2.15"/>
    <rect x="62.48" y="8.62" width="2.15" height="2.15"/>
    <rect x="64.63" y="8.62" width="2.15" height="2.15"/>
    <rect x="66.78" y="8.62" width="2.15" height="2.15"/>
    <rect x="68.94" y="8.62" width="2.15" height="2.15"/>
    <rect x="8.62" y="10.77" width="2.15" height="2.15"/>
    <rect x="21.54" y="10.77" width="2.15" height="2.15"/>
    <rect x="28.01" y="10.77" width="2.15" height="2.15"/>
    <rect x="38.78" y="10.77" width="2.15" height="2.15"/>
    <rect x="43.09" y="10.77" width="2.15" height="2.15"/>
    <rect x="45.24" y="10.77" width="2.15" height="2.15"/>
    <rect x="47.4" y="10.77" width="2.15" height="2.15"/>
    <rect x="51.7" y="10.77" width="2.15" height="2.15"/>
    <rect x="56.01" y="10.77" width="2.15" height="2.15"/>
    <rect x="68.94" y="10.77" width="2.15" height="2.15"/>
    <rect x="8.62" y="12.93" width="2.15" height="2.15"/>
    <rect x="12.93" y="12.93" width="2.15" height="2.15"/>
    <rect x="15.08" y="12.93" width="2.15" height="2.15"/>
    <rect x="17.23" y="12.93" width="2.15" height="2.15"/>
    <rect x="21.54" y="12.93" width="2.15" height="2.15"/>
    <rect x="28.01" y="12.93" width="2.15" height="2.15"/>
    <rect x="32.31" y="12.93" width="2.15" height="2.15"/>
    <rect x="34.47" y="12.93" width="2.15" height="2.15"/>
    <rect x="47.4" y="12.93" width="2.15" height="2.15"/>
    <rect x="51.7" y="12.93" width="2.15" height="2.15"/>
    <rect x="56.01" y="12.93" width="2.15" height="2.15"/>
    <rect x="60.32" y="12.93" width="2.15" height="2.15"/>
    <rect x="62.48" y="12.93" width="2.15" height="2.15"/>
    <rect x="64.63" y="12.93" width="2.15" height="2.15"/>
    <rect x="68.94" y="12.93" width="2.15" height="2.15"/>
    <rect x="8.62" y="15.08" width="2.15" height="2.15"/>
    <rect x="12.93" y="15.08" width="2.15" height="2.15"/>
    <rect x="15.08" y="15.08" width="2.15" height="2.15"/>
    <rect x="17.23" y="15.08" width="2.15" height="2.15"/>
    <rect x="21.54" y="15.08" width="2.15" height="2.15"/>
    <rect x="28.01" y="15.08" width="2.15" height="2.15"/>
    <rect x="30.16" y="15.08" width="2.15" height="2.15"/>
    <rect x="32.31" y="15.08" width="2.15" height="2.15"/>
    <rect x="34.47" y="15.08" width="2.15" height="2.15"/>
    <rect x="40.93" y="15.08" width="2.15" height="2.15"/>
    <rect x="45.24" y="15.08" width="2.15" height="2.15"/>
    <rect x="47.4" y="15.08" width="2.15" height="2.15"/>
    <rect x="49.55" y="15.08" width="2.15" height="2.15"/>
    <rect x="56.01" y="15.08" width="2.15" height="2.15"/>
    <rect x="60.32" y="15.08" width="2.15" height="2.15"/>
    <rect x="62.48" y="15.08" width="2.15" height="2.15"/>
    <rect x="64.63" y="15.08" width="2.15" height="2.15"/>
    <rect x="68.94" y="15.08" width="2.15" height="2.15"/>
    <rect x="8.62" y="17.23" width="2.15" height="2.15"/>
    <rect x="12.93" y="17.23" width="2.15" height="2.15"/>
    <rect x="15.08" y="17.23" width="2.15" height="2.15"/>
    <rect x="17.23" y="17.23" width="2.15" height="2.15"/>
    <rect x="21.54" y="17.23" width="2.15" height="2.15"/>
    <rect x="25.85" y="17.23" width="2.15" height="2.15"/>
    <rect x="30.16" y="17.23" width="2.15" height="2.15"/>
    <rect x="36.62" y="17.23" width="2.15" height="2.15"/>
    <rect x="43.09" y="17.23" width="2.15" height="2.15"/>
    <rect x="49.55" y="17.23" width="2.15" height="2.15"/>
    <rect x="56.01" y="17.23" width="2.15" height="2.15"/>
    <rect x="60.32" y="17.23" width="2.15" height="2.15"/>
    <rect x="62.48" y="17.23" width="2.15" height="2.15"/>
    <rect x="64.63" y="17.23" width="2.15" height="2.15"/>
    <rect x="68.94" y="17.23" width="2.15" height="2.15"/>
    <rect x="8.62" y="19.39" width="2.15" height="2.15"/>
    <rect x="21.54" y="19.39" width="2.15" height="2.15"/>
    <rect x="32.31" y="19.39" width="2.15" height="2.15"/>
    <rect x="36.62" y="19.39" width="2.15" height="2.15"/>
    <rect x="45.24" y="19.39" width="2.15" height="2.15"/>
    <rect x="47.4" y="19.39" width="2.15" height="2.15"/>
    <rect x="49.55" y="19.39" width="2.15" height="2.15"/>
    <rect x="51.7" y="19.39" width="2.15" height="2.15"/>
    <rect x="56.01" y="19.39" width="2.15" height="2.15"/>
    <rect x="68.94" y="19.39" width="2.15" height="2.15"/>
    <rect x="8.62" y="21.54" width="2.15" height="2.15"/>
    <rect x="10.77" y="21.54" width="2.15" height="2.15"/>
    <rect x="12.93" y="21.54" width="2.15" height="2.15"/>
    <rect x="15.08" y="21.54" width="2.15" height="2.15"/>
    <rect x="17.23" y="21.54" width="2.15" height="2.15"/>
    <rect x="19.39" y="21.54" width="2.15" height="2.15"/>
    <rect x="21.54" y="21.54" width="2.15" height="2.15"/>
    <rect x="25.85" y="21.54" width="2.15" height="2.15"/>
    <rect x="30.16" y="21.54" width="2.15" height="2.15"/>
    <rect x="34.47" y="21.54" width="2.15" height="2.15"/>
    <rect x="38.78" y="21.54" width="2.15" height="2.15"/>
    <rect x="43.09" y="21.54" width="2.15" height="2.15"/>
    <rect x="47.4" y="21.54" width="2.15" height="2.15"/>
    <rect x="51.7" y="21.54" width="2.15" height="2.15"/>
    <rect x="56.01" y="21.54" width="2.15" height="2.15"/>
    <rect x="58.17" y="21.54" width="2.15" height="2.15"/>
    <rect x="60.32" y="21.54" width="2.15" height="2.15"/>
    <rect x="62.48" y="21.54" width="2.15" height="2.15"/>
    <rect x="64.63" y="21.54" width="2.15" height="2.15"/>
    <rect x="66.78" y="21.54" width="2.15" height="2.15"/>
    <rect x="68.94" y="21.54" width="2.15" height="2.15"/>
    <rect x="25.85" y="23.7" width="2.15" height="2.15"/>
    <rect x="28.01" y="23.7" width="2.15" height="2.15"/>
    <rect x="32.31" y="23.7" width="2.15" height="2.15"/>
    <rect x="34.47" y="23.7" width="2.15" height="2.15"/>
    <rect x="38.78" y="23.7" width="2.15" height="2.15"/>
    <rect x="40.93" y="23.7" width="2.15" height="2.15"/>
    <rect x="43.09" y="23.7" width="2.15" height="2.15"/>
    <rect x="45.24" y="23.7" width="2.15" height="2.15"/>
    <rect x="47.4" y="23.7" width="2.15" height="2.15"/>
    <rect x="51.7" y="23.7" width="2.15" height="2.15"/>
    <rect x="12.93" y="25.85" width="2.15" height="2.15"/>
    <rect x="15.08" y="25.85" width="2.15" height="2.15"/>
    <rect x="21.54" y="25.85" width="2.15" height="2.15"/>
    <rect x="23.7" y="25.85" width="2.15" height="2.15"/>
    <rect x="25.85" y="25.85" width="2.15" height="2.15"/>
    <rect x="28.01" y="25.85" width="2.15" height="2.15"/>
    <rect x="30.16" y="25.85" width="2.15" height="2.15"/>
    <rect x="38.78" y="25.85" width="2.15" height="2.15"/>
    <rect x="43.09" y="25.85" width="2.15" height="2.15"/>
    <rect x="49.55" y="25.85" width="2.15" height="2.15"/>
    <rect x="53.86" y="25.85" width="2.15" height="2.15"/>
    <rect x="56.01" y="25.85" width="2.15" height="2.15"/>
    <rect x="60.32" y="25.85" width="2.15" height="2.15"/>
    <rect x="12.93" y="28.01" width="2.15" height="2.15"/>
    <rect x="15.08" y="28.01" width="2.15" height="2.15"/>
    <rect x="17.23" y="28.01" width="2.15" height="2.15"/>
    <rect x="32.31" y="28.01" width="2.15" height="2.15"/>
    <rect x="36.62" y="28.01" width="2.15" height="2.15"/>
    <rect x="45.24" y="28.01" width="2.15" height="2.15"/>
    <rect x="47.4" y="28.01" width="2.15" height="2.15"/>
    <rect x="49.55" y="28.01" width="2.15" height="2.15"/>
    <rect x="51.7" y="28.01" width="2.15" height="2.15"/>
    <rect x="53.86" y="28.01" width="2.15" height="2.15"/>
    <rect x="56.01" y="28.01" width="2.15" height="2.15"/>
    <rect x="58.17" y="28.01" width="2.15" height="2.15"/>
    <rect x="60.32" y="28.01" width="2.15" height="2.15"/>
    <rect x="62.48" y="28.01" width="2.15" height="2.15"/>
    <rect x="68.94" y="28.01" width="2.15" height="2.15"/>
    <rect x="10.77" y="30.16" width="2.15" height="2.15"/>
    <rect x="12.93" y="30.16" width="2.15" height="2.15"/>
    <rect x="15.08" y="30.16" width="2.15" height="2.15"/>
    <rect x="17.23" y="30.16" width="2.15" height="2.15"/>
    <rect x="21.54" y="30.16" width="2.15" height="2.15"/>
    <rect x="23.7" y="30.16" width="2.15" height="2.15"/>
    <rect x="25.85" y="30.16" width="2.15" height="2.15"/>
    <rect x="28.01" y="30.16" width="2.15" height="2.15"/>
    <rect x="38.78" y="30.16" width="2.15" height="2.15"/>
    <rect x="43.09" y="30.16" width="2.15" height="2.15"/>
    <rect x="47.4" y="30.16" width="2.15" height="2.15"/>
    <rect x="56.01" y="30.16" width="2.15" height="2.15"/>
    <rect x="58.17" y="30.16" width="2.15" height="2.15"/>
    <rect x="60.32" y="30.16" width="2.15" height="2.15"/>
    <rect x="64.63" y="30.16" width="2.15" height="2.15"/>
    <rect x="66.78" y="30.16" width="2.15" height="2.15"/>
    <rect x="8.62" y="32.31" width="2.15" height="2.15"/>
    <rect x="10.77" y="32.31" width="2.15" height="2.15"/>
    <rect x="23.7" y="32.31" width="2.15" height="2.15"/>
    <rect x="25.85" y="32.31" width="2.15" height="2.15"/>
    <rect x="34.47" y="32.31" width="2.15" height="2.15"/>
    <rect x="38.78" y="32.31" width="2.15" height="2.15"/>
    <rect x="40.93" y="32.31" width="2.15" height="2.15"/>
    <rect x="43.09" y="32.31" width="2.15" height="2.15"/>
    <rect x="51.7" y="32.31" width="2.15" height="2.15"/>
    <rect x="58.17" y="32.31" width="2.15" height="2.15"/>
    <rect x="60.32" y="32.31" width="2.15" height="2.15"/>
    <rect x="68.94" y="32.31" width="2.15" height="2.15"/>
    <rect x="8.62" y="34.47" width="2.15" height="2.15"/>
    <rect x="15.08" y="34.47" width="2.15" height="2.15"/>
    <rect x="17.23" y="34.47" width="2.15" height="2.15"/>
    <rect x="21.54" y="34.47" width="2.15" height="2.15"/>
    <rect x="32.31" y="34.47" width="2.15" height="2.15"/>
    <rect x="34.47" y="34.47" width="2.15" height="2.15"/>
    <rect x="38.78" y="34.47" width="2.15" height="2.15"/>
    <rect x="40.93" y="34.47" width="2.15" height="2.15"/>
    <rect x="43.09" y="34.47" width="2.15" height="2.15"/>
    <rect x="49.55" y="34.47" width="2.15" height="2.15"/>
    <rect x="53.86" y="34.47" width="2.15" height="2.15"/>
    <rect x="58.17" y="34.47" width="2.15" height="2.15"/>
    <rect x="64.63" y="34.47" width="2.15" height="2.15"/>
    <rect x="66.78" y="34.47" width="2.15" height="2.15"/>
    <rect x="68.94" y="34.47" width="2.15" height="2.15"/>
    <rect x="12.93" y="36.62" width="2.15" height="2.15"/>
    <rect x="15.08" y="36.62" width="2.15" height="2.15"/>
    <rect x="17.23" y="36.62" width="2.15" height="2.15"/>
    <rect x="23.7" y="36.62" width="2.15" height="2.15"/>
    <rect x="34.47" y="36.62" width="2.15" height="2.15"/>
    <rect x="36.62" y="36.62" width="2.15" height="2.15"/>
    <rect x="47.4" y="36.62" width="2.15" height="2.15"/>
    <rect x="49.55" y="36.62" width="2.15" height="2.15"/>
    <rect x="56.01" y="36.62" width="2.15" height="2.15"/>
    <rect x="58.17" y="36.62" width="2.15" height="2.15"/>
    <rect x="62.48" y="36.62" width="2.15" height="2.15"/>
    <rect x="64.63" y="36.62" width="2.15" height="2.15"/>
    <rect x="66.78" y="36.62" width="2.15" height="2.15"/>
    <rect x="68.94" y="36.62" width="2.15" height="2.15"/>
    <rect x="8.62" y="38.78" width="2.15" height="2.15"/>
    <rect x="10.77" y="38.78" width="2.15" height="2.15"/>
    <rect x="15.08" y="38.78" width="2.15" height="2.15"/>
    <rect x="19.39" y="38.78" width="2.15" height="2.15"/>
    <rect x="21.54" y="38.78" width="2.15" height="2.15"/>
    <rect x="25.85" y="38.78" width="2.15" height="2.15"/>
    <rect x="28.01" y="38.78" width="2.15" height="2.15"/>
    <rect x="30.16" y="38.78" width="2.15" height="2.15"/>
    <rect x="34.47" y="38.78" width="2.15" height="2.15"/>
    <rect x="40.93" y="38.78" width="2.15" height="2.15"/>
    <rect x="43.09" y="38.78" width="2.15" height="2.15"/>
    <rect x="49.55" y="38.78" width="2.15" height="2.15"/>
    <rect x="51.7" y="38.78" width="2.15" height="2.15"/>
    <rect x="56.01" y="38.78" width="2.15" height="2.15"/>
    <rect x="58.17" y="38.78" width="2.15" height="2.15"/>
    <rect x="60.32" y="38.78" width="2.15" height="2.15"/>
    <rect x="62.48" y="38.78" width="2.15" height="2.15"/>
    <rect x="66.78" y="38.78" width="2.15" height="2.15"/>
    <rect x="68.94" y="38.78" width="2.15" height="2.15"/>
    <rect x="10.77" y="40.93" width="2.15" height="2.15"/>
    <rect x="12.93" y="40.93" width="2.15" height="2.15"/>
    <rect x="17.23" y="40.93" width="2.15" height="2.15"/>
    <rect x="19.39" y="40.93" width="2.15" height="2.15"/>
    <rect x="23.7" y="40.93" width="2.15" height="2.15"/>
    <rect x="28.01" y="40.93" width="2.15" height="2.15"/>
    <rect x="30.16" y="40.93" width="2.15" height="2.15"/>
    <rect x="32.31" y="40.93" width="2.15" height="2.15"/>
    <rect x="34.47" y="40.93" width="2.15" height="2.15"/>
    <rect x="36.62" y="40.93" width="2.15" height="2.15"/>
    <rect x="38.78" y="40.93" width="2.15" height="2.15"/>
    <rect x="43.09" y="40.93" width="2.15" height="2.15"/>
    <rect x="47.4" y="40.93" width="2.15" height="2.15"/>
    <rect x="49.55" y="40.93" width="2.15" height="2.15"/>
    <rect x="56.01" y="40.93" width="2.15" height="2.15"/>
    <rect x="60.32" y="40.93" width="2.15" height="2.15"/>
    <rect x="62.48" y="40.93" width="2.15" height="2.15"/>
    <rect x="68.94" y="40.93" width="2.15" height="2.15"/>
    <rect x="8.62" y="43.09" width="2.15" height="2.15"/>
    <rect x="10.77" y="43.09" width="2.15" height="2.15"/>
    <rect x="12.93" y="43.09" width="2.15" height="2.15"/>
    <rect x="15.08" y="43.09" width="2.15" height="2.15"/>
    <rect x="17.23" y="43.09" width="2.15" height="2.15"/>
    <rect x="21.54" y="43.09" width="2.15" height="2.15"/>
    <rect x="30.16" y="43.09" width="2.15" height="2.15"/>
    <rect x="38.78" y="43.09" width="2.15" height="2.15"/>
    <rect x="47.4" y="43.09" width="2.15" height="2.15"/>
    <rect x="51.7" y="43.09" width="2.15" height="2.15"/>
    <rect x="53.86" y="43.09" width="2.15" height="2.15"/>
    <rect x="58.17" y="43.09" width="2.15" height="2.15"/>
    <rect x="60.32" y="43.09" width="2.15" height="2.15"/>
    <rect x="62.48" y="43.09" width="2.15" height="2.15"/>
    <rect x="10.77" y="45.24" width="2.15" height="2.15"/>
    <rect x="12.93" y="45.24" width="2.15" height="2.15"/>
    <rect x="17.23" y="45.24" width="2.15" height="2.15"/>
    <rect x="19.39" y="45.24" width="2.15" height="2.15"/>
    <rect x="28.01" y="45.24" width="2.15" height="2.15"/>
    <rect x="30.16" y="45.24" width="2.15" height="2.15"/>
    <rect x="32.31" y="45.24" width="2.15" height="2.15"/>
    <rect x="36.62" y="45.24" width="2.15" height="2.15"/>
    <rect x="45.24" y="45.24" width="2.15" height="2.15"/>
    <rect x="51.7" y="45.24" width="2.15" height="2.15"/>
    <rect x="62.48" y="45.24" width="2.15" height="2.15"/>
    <rect x="8.62" y="47.39" width="2.15" height="2.15"/>
    <rect x="12.93" y="47.39" width="2.15" height="2.15"/>
    <rect x="21.54" y="47.39" width="2.15" height="2.15"/>
    <rect x="25.85" y="47.39" width="2.15" height="2.15"/>
    <rect x="28.01" y="47.39" width="2.15" height="2.15"/>
    <rect x="30.16" y="47.39" width="2.15" height="2.15"/>
    <rect x="32.31" y="47.39" width="2.15" height="2.15"/>
    <rect x="38.78" y="47.39" width="2.15" height="2.15"/>
    <rect x="40.93" y="47.39" width="2.15" height="2.15"/>
    <rect x="45.24" y="47.39" width="2.15" height="2.15"/>
    <rect x="47.4" y="47.39" width="2.15" height="2.15"/>
    <rect x="56.01" y="47.39" width="2.15" height="2.15"/>
    <rect x="60.32" y="47.39" width="2.15" height="2.15"/>
    <rect x="62.48" y="47.39" width="2.15" height="2.15"/>
    <rect x="17.23" y="49.55" width="2.15" height="2.15"/>
    <rect x="19.39" y="49.55" width="2.15" height="2.15"/>
    <rect x="23.7" y="49.55" width="2.15" height="2.15"/>
    <rect x="25.85" y="49.55" width="2.15" height="2.15"/>
    <rect x="28.01" y="49.55" width="2.15" height="2.15"/>
    <rect x="30.16" y="49.55" width="2.15" height="2.15"/>
    <rect x="34.47" y="49.55" width="2.15" height="2.15"/>
    <rect x="38.78" y="49.55" width="2.15" height="2.15"/>
    <rect x="40.93" y="49.55" width="2.15" height="2.15"/>
    <rect x="43.09" y="49.55" width="2.15" height="2.15"/>
    <rect x="45.24" y="49.55" width="2.15" height="2.15"/>
    <rect x="47.4" y="49.55" width="2.15" height="2.15"/>
    <rect x="49.55" y="49.55" width="2.15" height="2.15"/>
    <rect x="53.86" y="49.55" width="2.15" height="2.15"/>
    <rect x="56.01" y="49.55" width="2.15" height="2.15"/>
    <rect x="62.48" y="49.55" width="2.15" height="2.15"/>
    <rect x="64.63" y="49.55" width="2.15" height="2.15"/>
    <rect x="10.77" y="51.7" width="2.15" height="2.15"/>
    <rect x="15.08" y="51.7" width="2.15" height="2.15"/>
    <rect x="21.54" y="51.7" width="2.15" height="2.15"/>
    <rect x="25.85" y="51.7" width="2.15" height="2.15"/>
    <rect x="28.01" y="51.7" width="2.15" height="2.15"/>
    <rect x="34.47" y="51.7" width="2.15" height="2.15"/>
    <rect x="38.78" y="51.7" width="2.15" height="2.15"/>
    <rect x="40.93" y="51.7" width="2.15" height="2.15"/>
    <rect x="43.09" y="51.7" width="2.15" height="2.15"/>
    <rect x="45.24" y="51.7" width="2.15" height="2.15"/>
    <rect x="51.7" y="51.7" width="2.15" height="2.15"/>
    <rect x="53.86" y="51.7" width="2.15" height="2.15"/>
    <rect x="56.01" y="51.7" width="2.15" height="2.15"/>
    <rect x="58.17" y="51.7" width="2.15" height="2.15"/>
    <rect x="60.32" y="51.7" width="2.15" height="2.15"/>
    <rect x="64.63" y="51.7" width="2.15" height="2.15"/>
    <rect x="25.85" y="53.86" width="2.15" height="2.15"/>
    <rect x="30.16" y="53.86" width="2.15" height="2.15"/>
    <rect x="34.47" y="53.86" width="2.15" height="2.15"/>
    <rect x="38.78" y="53.86" width="2.15" height="2.15"/>
    <rect x="40.93" y="53.86" width="2.15" height="2.15"/>
    <rect x="51.7" y="53.86" width="2.15" height="2.15"/>
    <rect x="60.32" y="53.86" width="2.15" height="2.15"/>
    <rect x="62.48" y="53.86" width="2.15" height="2.15"/>
    <rect x="68.94" y="53.86" width="2.15" height="2.15"/>
    <rect x="8.62" y="56.01" width="2.15" height="2.15"/>
    <rect x="10.77" y="56.01" width="2.15" height="2.15"/>
    <rect x="12.93" y="56.01" width="2.15" height="2.15"/>
    <rect x="15.08" y="56.01" width="2.15" height="2.15"/>
    <rect x="17.23" y="56.01" width="2.15" height="2.15"/>
    <rect x="19.39" y="56.01" width="2.15" height="2.15"/>
    <rect x="21.54" y="56.01" width="2.15" height="2.15"/>
    <rect x="25.85" y="56.01" width="2.15" height="2.15"/>
    <rect x="32.31" y="56.01" width="2.15" height="2.15"/>
    <rect x="34.47" y="56.01" width="2.15" height="2.15"/>
    <rect x="36.62" y="56.01" width="2.15" height="2.15"/>
    <rect x="38.78" y="56.01" width="2.15" height="2.15"/>
    <rect x="40.93" y="56.01" width="2.15" height="2.15"/>
    <rect x="43.09" y="56.01" width="2.15" height="2.15"/>
    <rect x="49.55" y="56.01" width="2.15" height="2.15"/>
    <rect x="51.7" y="56.01" width="2.15" height="2.15"/>
    <rect x="56.01" y="56.01" width="2.15" height="2.15"/>
    <rect x="60.32" y="56.01" width="2.15" height="2.15"/>
    <rect x="64.63" y="56.01" width="2.15" height="2.15"/>
    <rect x="66.78" y="56.01" width="2.15" height="2.15"/>
    <rect x="8.62" y="58.17" width="2.15" height="2.15"/>
    <rect x="21.54" y="58.17" width="2.15" height="2.15"/>
    <rect x="28.01" y="58.17" width="2.15" height="2.15"/>
    <rect x="30.16" y="58.17" width="2.15" height="2.15"/>
    <rect x="40.93" y="58.17" width="2.15" height="2.15"/>
    <rect x="45.24" y="58.17" width="2.15" height="2.15"/>
    <rect x="51.7" y="58.17" width="2.15" height="2.15"/>
    <rect x="60.32" y="58.17" width="2.15" height="2.15"/>
    <rect x="8.62" y="60.32" width="2.15" height="2.15"/>
    <rect x="12.93" y="60.32" width="2.15" height="2.15"/>
    <rect x="15.08" y="60.32" width="2.15" height="2.15"/>
    <rect x="17.23" y="60.32" width="2.15" height="2.15"/>
    <rect x="21.54" y="60.32" width="2.15" height="2.15"/>
    <rect x="28.01" y="60.32" width="2.15" height="2.15"/>
    <rect x="34.47" y="60.32" width="2.15" height="2.15"/>
    <rect x="38.78" y="60.32" width="2.15" height="2.15"/>
    <rect x="40.93" y="60.32" width="2.15" height="2.15"/>
    <rect x="43.09" y="60.32" width="2.15" height="2.15"/>
    <rect x="51.7" y="60.32" width="2.15" height="2.15"/>
    <rect x="53.86" y="60.32" width="2.15" height="2.15"/>
    <rect x="56.01" y="60.32" width="2.15" height="2.15"/>
    <rect x="58.17" y="60.32" width="2.15" height="2.15"/>
    <rect x="60.32" y="60.32" width="2.15" height="2.15"/>
    <rect x="62.48" y="60.32" width="2.15" height="2.15"/>
    <rect x="64.63" y="60.32" width="2.15" height="2.15"/>
    <rect x="68.94" y="60.32" width="2.15" height="2.15"/>
    <rect x="8.62" y="62.48" width="2.15" height="2.15"/>
    <rect x="12.93" y="62.48" width="2.15" height="2.15"/>
    <rect x="15.08" y="62.48" width="2.15" height="2.15"/>
    <rect x="17.23" y="62.48" width="2.15" height="2.15"/>
    <rect x="21.54" y="62.48" width="2.15" height="2.15"/>
    <rect x="25.85" y="62.48" width="2.15" height="2.15"/>
    <rect x="28.01" y="62.48" width="2.15" height="2.15"/>
    <rect x="34.47" y="62.48" width="2.15" height="2.15"/>
    <rect x="38.78" y="62.48" width="2.15" height="2.15"/>
    <rect x="40.93" y="62.48" width="2.15" height="2.15"/>
    <rect x="43.09" y="62.48" width="2.15" height="2.15"/>
    <rect x="45.24" y="62.48" width="2.15" height="2.15"/>
    <rect x="49.55" y="62.48" width="2.15" height="2.15"/>
    <rect x="60.32" y="62.48" width="2.15" height="2.15"/>
    <rect x="64.63" y="62.48" width="2.15" height="2.15"/>
    <rect x="66.78" y="62.48" width="2.15" height="2.15"/>
    <rect x="8.62" y="64.63" width="2.15" height="2.15"/>
    <rect x="12.93" y="64.63" width="2.15" height="2.15"/>
    <rect x="15.08" y="64.63" width="2.15" height="2.15"/>
    <rect x="17.23" y="64.63" width="2.15" height="2.15"/>
    <rect x="21.54" y="64.63" width="2.15" height="2.15"/>
    <rect x="25.85" y="64.63" width="2.15" height="2.15"/>
    <rect x="36.62" y="64.63" width="2.15" height="2.15"/>
    <rect x="43.09" y="64.63" width="2.15" height="2.15"/>
    <rect x="47.4" y="64.63" width="2.15" height="2.15"/>
    <rect x="51.7" y="64.63" width="2.15" height="2.15"/>
    <rect x="58.17" y="64.63" width="2.15" height="2.15"/>
    <rect x="62.48" y="64.63" width="2.15" height="2.15"/>
    <rect x="64.63" y="64.63" width="2.15" height="2.15"/>
    <rect x="68.94" y="64.63" width="2.15" height="2.15"/>
    <rect x="8.62" y="66.78" width="2.15" height="2.15"/>
    <rect x="21.54" y="66.78" width="2.15" height="2.15"/>
    <rect x="30.16" y="66.78" width="2.15" height="2.15"/>
    <rect x="32.31" y="66.78" width="2.15" height="2.15"/>
    <rect x="34.47" y="66.78" width="2.15" height="2.15"/>
    <rect x="38.78" y="66.78" width="2.15" height="2.15"/>
    <rect x="40.93" y="66.78" width="2.15" height="2.15"/>
    <rect x="51.7" y="66.78" width="2.15" height="2.15"/>
    <rect x="53.86" y="66.78" width="2.15" height="2.15"/>
    <rect x="60.32" y="66.78" width="2.15" height="2.15"/>
    <rect x="62.48" y="66.78" width="2.15" height="2.15"/>
    <rect x="66.78" y="66.78" width="2.15" height="2.15"/>
    <rect x="8.62" y="68.94" width="2.15" height="2.15"/>
    <rect x="10.77" y="68.94" width="2.15" height="2.15"/>
    <rect x="12.93" y="68.94" width="2.15" height="2.15"/>
    <rect x="15.08" y="68.94" width="2.15" height="2.15"/>
    <rect x="17.23" y="68.94" width="2.15" height="2.15"/>
    <rect x="19.39" y="68.94" width="2.15" height="2.15"/>
    <rect x="21.54" y="68.94" width="2.15" height="2.15"/>
    <rect x="28.01" y="68.94" width="2.15" height="2.15"/>
    <rect x="32.31" y="68.94" width="2.15" height="2.15"/>
    <rect x="36.62" y="68.94" width="2.15" height="2.15"/>
    <rect x="38.78" y="68.94" width="2.15" height="2.15"/>
    <rect x="40.93" y="68.94" width="2.15" height="2.15"/>
    <rect x="47.4" y="68.94" width="2.15" height="2.15"/>
    <rect x="49.55" y="68.94" width="2.15" height="2.15"/>
    <rect x="51.7" y="68.94" width="2.15" height="2.15"/>
    <rect x="53.86" y="68.94" width="2.15" height="2.15"/>
    <rect x="58.17" y="68.94" width="2.15" height="2.15"/>
    <rect x="62.48" y="68.94" width="2.15" height="2.15"/>
    <rect x="66.78" y="68.94" width="2.15" height="2.15"/>
  </g>
</svg>
