<svg xmlns="http://www.w3.org/2000/svg" xmlns:xlink="http://www.w3.org/1999/xlink" width="500" height="360.1" viewBox="0 0 500 360.1">
  <defs>
    <style>
      .cls-1, .cls-11, .cls-12, .cls-13, .cls-14, .cls-15, .cls-3, .cls-4, .cls-5, .cls-7, .cls-8 {
        fill: none;
      }

      .cls-2, .cls-6 {
        fill: #fff;
      }

      .cls-11, .cls-2, .cls-3, .cls-4, .cls-5, .cls-6 {
        stroke: #000;
      }

      .cls-15, .cls-2, .cls-3, .cls-4, .cls-5, .cls-6 {
        stroke-linecap: round;
      }

      .cls-11, .cls-12, .cls-13, .cls-15, .cls-2, .cls-3, .cls-5, .cls-6, .cls-7, .cls-8 {
        stroke-linejoin: round;
      }

      .cls-12, .cls-13, .cls-15, .cls-2, .cls-5, .cls-7, .cls-8 {
        stroke-width: 1.5px;
      }

      .cls-11, .cls-3, .cls-4, .cls-6 {
        stroke-width: 0.8px;
      }

      .cls-12, .cls-13, .cls-15, .cls-7, .cls-8 {
        stroke: #0082ba;
      }

      .cls-8 {
        stroke-dasharray: 3.04 2.02;
      }

      .cls-9 {
        clip-path: url(#clip-path);
      }

      .cls-10 {
        fill: #ccc;
      }

      .cls-12 {
        stroke-dasharray: 2.99 1.99;
      }

      .cls-13 {
        stroke-dasharray: 2.94 1.96;
      }

      .cls-14 {
        stroke: #fff;
        stroke-width: 3px;
      }

      .cls-16 {
        isolation: isolate;
        font-size: 16px;
        fill: #231815;
        font-family: ArialMT, Arial;
      }

      .cls-17 {
        fill: #000;
      }
    </style>
    <clipPath id="clip-path">
      <rect class="cls-1" x="314.48" y="49.81" width="149.51" height="58.84"/>
    </clipPath>
  </defs>
  <g id="K450">
    <path class="cls-2" d="M141.21,18.76c-9.36-3-15.92.43-18.72,2.47,0,0-6.14,4.09-8,5.39a2.44,2.44,0,0,0-1.19,2s-.21,10.64-.21,12.05a3.6,3.6,0,0,1-.76,2.25L64.79,76.67s-3,1.62-3,6.46-.48,16.94-.48,16.94-.06,2,.06,3.44,2.46,14.63,2.46,14.63a5.13,5.13,0,0,0,3,3.76c2.82,1.41,139.81,57,139.81,57,5.49,1.61,11.77,4.14,22.27-4.2s54.43-42.06,54.43-42.06a7,7,0,0,0,3.22-5.16c.21-2,1.19-15.7,1.19-16.24s-3.88-35.06-3.88-35.06-.26-4.7-7-7.41S232.58,51.19,201.47,39.9,141.21,18.76,141.21,18.76Z"/>
    <line class="cls-3" x1="183.13" y1="108.3" x2="181.16" y2="109.71"/>
    <path class="cls-3" d="M183.15,124.54h0l1.17.44,15.53-11.45,1.83.7a1.36,1.36,0,0,0,1.2-.38l32.69-24.2"/>
    <path class="cls-3" d="M177.32,117.09a30.38,30.38,0,0,0,7.27,2.62c-.69,2.18-1.44,4.83-1.44,4.83"/>
    <line class="cls-3" x1="176.19" y1="121.77" x2="177.32" y2="117.09"/>
    <line class="cls-3" x1="107.62" y1="79.01" x2="105.68" y2="80.39"/>
    <path class="cls-3" d="M107.62,95h0l1.19.44,15.31-11.29,1.81.69a1.37,1.37,0,0,0,1.17-.37l32.25-23.86"/>
    <path class="cls-3" d="M101.9,87.68a29.94,29.94,0,0,0,7.17,2.57c-.69,2.16-1.45,4.71-1.45,4.71"/>
    <line class="cls-3" x1="100.78" y1="92.29" x2="101.9" y2="87.68"/>
    <polyline class="cls-3" points="235.55 151.69 236.8 150.81 237.71 152.37"/>
    <path class="cls-3" d="M229.49,159.43l-3.65,2.83a22,22,0,0,1-19,1.72c-10.65-4-142.1-56.79-142.1-56.79a4.78,4.78,0,0,1-3.44-3.66"/>
    <path class="cls-3" d="M229.49,156l-3.65,2.82a22,22,0,0,1-19,1.72c-10.65-4-142.1-56.75-142.1-56.75a4.78,4.78,0,0,1-3.44-3.66"/>
    <path class="cls-3" d="M287.62,112.87a6.43,6.43,0,0,1-1.73,3.23l-37.64,29"/>
    <path class="cls-3" d="M229.49,163l-3.63,2.83a22,22,0,0,1-19,1.72c-10.62-4-141.66-56.62-141.66-56.62a4.77,4.77,0,0,1-3.42-3.64"/>
    <path class="cls-3" d="M287.33,116.74a6.25,6.25,0,0,1-1.71,3.22l-37.64,29"/>
    <path class="cls-3" d="M287.62,109.75a5.06,5.06,0,0,1-2.05,3.28l-37.64,29"/>
    <path class="cls-3" d="M127,32.15c-7.91-2.63-12.31-4-12.31-4"/>
    <path class="cls-3" d="M202.92,135.35s5.92,3.77,8.71,4.52,7.63,2,13.18-1.72c0,0,43.71-31.94,46-34.2a3.6,3.6,0,0,0,1.13-2.58s-.65-11-.65-12.91a3.15,3.15,0,0,0-1.62-2.74q-6.93-2.89-13.74-5.65"/>
    <path class="cls-3" d="M194.33,136.21c-4.94-1.07-39.88-14.87-41.51-15.93-2.69-1.72-5.32-4.21-6-5.91a2.63,2.63,0,0,1,.94-3.44L197,75.11"/>
    <path class="cls-3" d="M256.4,93s-54.1,40.88-54.74,41.31-2.37,3-7.32,1.94"/>
    <path class="cls-3" d="M222.68,78a2.32,2.32,0,0,1,1.35.17l9,3.45a4.25,4.25,0,0,1,2.47,3.66v4.41l12.15,4.42A9.41,9.41,0,0,0,256.4,93s9.67,5.06,14,8.72a7.93,7.93,0,0,1,1.08,1.5"/>
    <path class="cls-3" d="M175,121.37s1.36-5.33,1.76-6.86a6.37,6.37,0,0,1,1.46-2.58l3-2.22a2.34,2.34,0,0,1,.94-2c1.53-1.26,39.47-29.17,39.47-29.17a2.15,2.15,0,0,1,1.13-.6"/>
    <path class="cls-3" d="M168.58,102.89"/>
    <polyline class="cls-3" points="179.98 115.48 179.98 114.63 180.62 113.1 181.96 112.25 187.04 114.15 187.04 114.96"/>
    <line class="cls-3" x1="185.05" y1="117.38" x2="179.98" y2="115.48"/>
    <polyline class="cls-3" points="184.13 121.05 179.69 119.39 176.17 121.8 176.17 121.8 174.97 121.37"/>
    <line class="cls-3" x1="181.73" y1="113.54" x2="185.06" y2="114.78"/>
    <line class="cls-3" x1="179.93" y1="114.38" x2="177.88" y2="115.82"/>
    <polyline class="cls-3" points="196.6 107.53 195.87 107.33 194.58 108.18 193.13 110.27"/>
    <path class="cls-3" d="M185,118.39c.22-.68.42-1.22.52-1.47a8.2,8.2,0,0,1,1.94-2.17l9.12-7.22"/>
    <path class="cls-3" d="M182.72,112.42l3.71-2.63,3-3.55,1.2-.81-.79-.31s-9,6.21-10.24,7.11-1.75,3.6-1.75,3.6"/>
    <line class="cls-3" x1="189.94" y1="106.53" x2="193.82" y2="108.01"/>
    <line class="cls-3" x1="187.28" y1="110.07" x2="191.15" y2="111.56"/>
    <path class="cls-3" d="M202.77,101h-.17l-2.42-1a.42.42,0,0,1-.27-.36.46.46,0,0,1,.18-.42l3.77-2.73L202.47,96a.46.46,0,0,1-.27-.58.45.45,0,0,1,.32-.29L210,93.34a.45.45,0,0,1,.41.11.47.47,0,0,1,.13.42l-1,4.32a.45.45,0,0,1-.52.36h-.09l-1.8-.74L203,101a.42.42,0,0,1-.27.09h0Z"/>
    <path class="cls-3" d="M195.09,115.78v-.54a4.38,4.38,0,0,0-.8-2.26,4.5,4.5,0,0,0-1.3-.81l-4.58,3.29a5.86,5.86,0,0,0-2,2.9l-2.16,6.58"/>
    <path class="cls-3" d="M202.43,110.73a.48.48,0,0,1,.25.63h0a1.36,1.36,0,0,0-.42.94v1.62"/>
    <path class="cls-3" d="M192.82,115l1.73.67a1.1,1.1,0,0,0,.94,0l6.67-4.84a.27.27,0,0,1,.24-.09"/>
    <line class="cls-3" x1="195.23" y1="112.25" x2="233.7" y2="84.01"/>
    <path class="cls-3" d="M240.48,97.65c-.16-.4-.73-.08-.73-.08l-45.17,34a2,2,0,0,0-.64.94"/>
    <path class="cls-3" d="M205.09,84.48c-.16-.41-.72-.09-.72-.09L159.7,117.6a2.19,2.19,0,0,0-.65.94"/>
    <polyline class="cls-3" points="104.52 86.08 104.52 85.25 105.16 83.73 106.46 82.9 111.48 84.77 111.48 85.57"/>
    <line class="cls-3" x1="109.53" y1="87.95" x2="104.52" y2="86.09"/>
    <line class="cls-3" x1="106.2" y1="84.16" x2="109.2" y2="85.27"/>
    <path class="cls-3" d="M104.48,85l-2,1.41"/>
    <polyline class="cls-3" points="120.9 78.25 120.19 78.05 118.91 78.89 117.48 80.96"/>
    <path class="cls-3" d="M109.48,89c.23-.68.41-1.21.52-1.44a7.94,7.94,0,0,1,1.88-2.16l9-7.11"/>
    <path class="cls-3" d="M107.23,83.05l3.65-2.58,3-3.5,1.2-.8-.79-.31s-8.91,6.13-10.09,7-1.73,3.55-1.73,3.55"/>
    <line class="cls-3" x1="114.34" y1="77.26" x2="118.16" y2="78.73"/>
    <line class="cls-3" x1="111.71" y1="80.76" x2="115.54" y2="82.23"/>
    <path class="cls-3" d="M127,71.84h-.17l-2.38-1a.44.44,0,0,1-.25-.57.43.43,0,0,1,.15-.2l3.77-2.69-1.42-.57a.44.44,0,0,1-.27-.56.45.45,0,0,1,.31-.29l7.33-1.75a.45.45,0,0,1,.53.33.34.34,0,0,1,0,.2L133.65,69a.47.47,0,0,1-.23.3.42.42,0,0,1-.38,0l-1.78-.72-4.06,3.1a.51.51,0,0,1-.27.09h0Z"/>
    <path class="cls-3" d="M119.42,86.38v-.54a4.08,4.08,0,0,0-.8-2.23,4.22,4.22,0,0,0-1.28-.79l-4.5,3.23a5.76,5.76,0,0,0-2,2.82l-2.08,6.59"/>
    <path class="cls-3" d="M126.74,81.45a.48.48,0,0,1,.16.58,1.33,1.33,0,0,0-.42.94v1.59"/>
    <path class="cls-3" d="M117.18,85.63l1.71.66a1.1,1.1,0,0,0,.94,0l6.58-4.77a.24.24,0,0,1,.32-.06"/>
    <line class="cls-3" x1="119.55" y1="82.9" x2="157.49" y2="55.07"/>
    <path class="cls-3" d="M130.24,55.84c-.15-.4-.72-.09-.72-.09l-45,32.43a2.19,2.19,0,0,0-.65.94"/>
    <path class="cls-3" d="M164.65,68.61c-.15-.4-.72-.08-.72-.08l-45.34,33.05a2.1,2.1,0,0,0-.66.94"/>
    <path class="cls-3" d="M197.81,75.71a12.64,12.64,0,0,0,6,5.9,46.18,46.18,0,0,0,9.11,3.31"/>
    <path class="cls-3" d="M200.09,71.19s-2.34.4-2.26,3.55v.94"/>
    <path class="cls-3" d="M215.85,74.3a3.21,3.21,0,0,1,1.79,2.53v4.36"/>
    <path class="cls-3" d="M211.55,76.35v-2.2a2,2,0,0,1,.64-1.34l2.95-2.26"/>
    <path class="cls-3" d="M215.15,70.55s.71-.11.71.37V74.3s-3,2.16-3.39,2.32a1.15,1.15,0,0,1-.94-.28"/>
    <path class="cls-3" d="M212.89,69.68s.7-.11.7.38v1.56"/>
    <path class="cls-3" d="M209.29,75.5V73.29a2.07,2.07,0,0,1,.64-1.35l2.95-2.26"/>
    <path class="cls-3" d="M211.48,74.93a13.32,13.32,0,0,1-1.28.83,1.12,1.12,0,0,1-.94-.27"/>
    <path class="cls-3" d="M210.9,68.77s.69-.11.69.38v1.5"/>
    <path class="cls-3" d="M207.29,74.58V72.37a2.13,2.13,0,0,1,.65-1.34l3-2.26"/>
    <path class="cls-3" d="M209.22,74.2a9.65,9.65,0,0,1-1,.65,1.21,1.21,0,0,1-1-.27"/>
    <path class="cls-3" d="M208.56,67.88s.7-.09.7.4v1.63"/>
    <path class="cls-3" d="M204.93,73.62V71.4a2.07,2.07,0,0,1,.64-1.34l3-2.18"/>
    <path class="cls-3" d="M207.26,73c-.65.46-1.27.86-1.42.94a1.19,1.19,0,0,1-.94-.27"/>
    <path class="cls-3" d="M206.17,66.94s.7-.08.7.4V69"/>
    <path class="cls-3" d="M202.57,72.65V70.44a2,2,0,0,1,.65-1.34L206.17,67"/>
    <path class="cls-3" d="M204.8,72c-.63.44-1.21.82-1.36.89a1.2,1.2,0,0,1-.94-.27"/>
    <path class="cls-3" d="M203.8,66s.7-.08.7.41v1.7"/>
    <path class="cls-3" d="M200.2,71.68V69.47a2,2,0,0,1,.65-1.34l3-2.17"/>
    <path class="cls-3" d="M202.45,71.07a14.71,14.71,0,0,1-1.34.88,1.15,1.15,0,0,1-.94-.27"/>
    <path class="cls-3" d="M248,94.1a1.09,1.09,0,0,0,.32-.68V89.5a1.54,1.54,0,0,0-.65-1.37L244.91,87s-.65-.24-.65.69V92a1,1,0,0,1-.32.69"/>
    <path class="cls-3" d="M171.67,65.06a1.06,1.06,0,0,0,.32-.69V60.46a1.54,1.54,0,0,0-.65-1.38l-2.74-1.16s-.65-.25-.65.68V63a1,1,0,0,1-.32.69"/>
    <path class="cls-3" d="M209.14,83.61a1,1,0,0,0,.3-.64v-3.6a1.42,1.42,0,0,0-.6-1.28L206.29,77s-.61-.22-.61.64v4.06a1,1,0,0,1-.3.64"/>
    <path class="cls-3" d="M129.82,31s30.31,10.69,61.51,22c25.7,9.36,63.18,24.62,63.18,24.62,1.74.65,1,1.33.69,1.53a1.29,1.29,0,0,0-.36.85v1.51L128.09,33.93v-1.4a1.29,1.29,0,0,1,.43-1.18A1.53,1.53,0,0,1,129.82,31Z"/>
    <path class="cls-3" d="M205.23,48.87c0,2.41-3.46,4.36-7.74,4.36s-7.75-1.95-7.75-4.36"/>
    <path class="cls-3" d="M189.74,48.87c0-2.44,3.47-4.33,7.76-4.33s7.74,2,7.74,4.36"/>
    <path class="cls-3" d="M193,49.79a1.88,1.88,0,0,1,.36-1.34,5.05,5.05,0,0,1,4.17-1.67c1.88,0,3.54.65,4.12,1.58a2.38,2.38,0,0,1,.24.51"/>
    <path class="cls-3" d="M201.86,48.87a2.79,2.79,0,0,1,.17.94c0,1.36-2,2.45-4.53,2.45S193,51.16,193,49.81"/>
    <path class="cls-3" d="M147.28,49.25a2.23,2.23,0,0,1,1.37.16l8.21,3.28a4.2,4.2,0,0,1,2.44,3.6v4.35l12,4.35s4.85,2.51,9.1-.46l18.82,6.94"/>
    <polyline class="cls-3" points="99.59 91.89 100.77 92.31 100.77 92.31 104.24 89.93 108.62 91.57"/>
    <path class="cls-3" d="M147.28,49.25a2.31,2.31,0,0,0-1.08.57s-38.1,27.35-39.61,28.6a2.3,2.3,0,0,0-1,2l-2.91,2.19a6.25,6.25,0,0,0-1.45,2.55c-.4,1.51-1.75,6.76-1.75,6.76"/>
    <path class="cls-3" d="M217.67,76.54V70.49a1.89,1.89,0,0,0-1.13-1.77l-14-5.16s-1.23-.76-1.23.94v3.17"/>
    <path class="cls-3" d="M122.92,47.37a14.7,14.7,0,0,0,6.32,6,45.63,45.63,0,0,0,7.65,2.91"/>
    <path class="cls-3" d="M125.53,42.91a3.18,3.18,0,0,0-2.61,3.52v.94"/>
    <path class="cls-3" d="M141.31,46a3.22,3.22,0,0,1,1.81,2.53v3.52"/>
    <path class="cls-3" d="M137,48.06v-2.2a2.07,2.07,0,0,1,.64-1.34l2.95-2.26"/>
    <path class="cls-3" d="M140.62,42.26s.69-.11.69.37V46s-3,2.16-3.39,2.32a1.2,1.2,0,0,1-.94-.27"/>
    <path class="cls-3" d="M138.36,41.4s.69-.11.69.38v1.56"/>
    <path class="cls-3" d="M134.75,47.21V45a2.09,2.09,0,0,1,.65-1.35l3-2.26"/>
    <path class="cls-3" d="M137,46.64a13.32,13.32,0,0,1-1.28.83,1.15,1.15,0,0,1-.94-.26"/>
    <path class="cls-3" d="M136.36,40.49s.71-.11.71.38v1.5"/>
    <path class="cls-3" d="M132.76,46.3V44.09a2,2,0,0,1,.65-1.34l2.94-2.26"/>
    <path class="cls-3" d="M134.7,45.91c-.33.23-.67.45-1,.65a1.19,1.19,0,0,1-.94-.27"/>
    <path class="cls-3" d="M134,39.59s.71-.09.71.4v1.63"/>
    <path class="cls-3" d="M130.4,45.33V43.12a2,2,0,0,1,.64-1.34l3-2.19"/>
    <path class="cls-3" d="M132.73,44.67c-.66.45-1.27.86-1.42.94a1.14,1.14,0,0,1-.94-.27"/>
    <path class="cls-3" d="M131.64,38.66s.69-.08.69.4v1.65"/>
    <path class="cls-3" d="M128,44.36V42.15a2.13,2.13,0,0,1,.65-1.34l3-2.16"/>
    <path class="cls-3" d="M130.3,43.74c-.43.31-.89.61-1.35.88a1.17,1.17,0,0,1-.95-.26"/>
    <path class="cls-3" d="M129.27,37.68s.69-.08.69.4v1.7"/>
    <path class="cls-3" d="M125.67,43.39v-2.2a2.07,2.07,0,0,1,.64-1.35l3-2.17"/>
    <path class="cls-3" d="M127.91,42.78a13.45,13.45,0,0,1-1.34.88,1.13,1.13,0,0,1-.94-.27"/>
    <path class="cls-3" d="M134.6,55.33a1,1,0,0,0,.3-.64V51a1.43,1.43,0,0,0-.6-1.28l-2.56-1.09s-.6-.23-.6.64v4a1,1,0,0,1-.3.64"/>
    <path class="cls-3" d="M143.14,48.31v-6.1A1.89,1.89,0,0,0,142,40.44l-14-5.17s-1.25-.75-1.25.95v3.17"/>
    <path class="cls-3" d="M186.8,69.47"/>
    <path class="cls-3" d="M118.29,106.2a9.19,9.19,0,0,0,5.49-.22c1.18-.54,1.61-1.61,2.47-2.26S180.39,64.5,180.39,64.5"/>
    <path class="cls-3" d="M122.92,47.37,73,82.11a1.9,1.9,0,0,0-.48,2.62v.07a14.84,14.84,0,0,0,3.47,4,21.66,21.66,0,0,0,5.7,3.12c3,1.19,34.53,13.77,36.57,14.31"/>
    <line class="cls-3" x1="126.57" y1="105.02" x2="145.08" y2="112.44"/>
    <path class="cls-3" d="M62.58,79.42c-.32.94-.22,2.36,2,3.12a34.38,34.38,0,0,0,6.78.94"/>
    <path class="cls-3" d="M229.51,155.59s.32,8.79,0,11c0,0-.08,1.45,1.05.65s15.81-12.1,15.81-12.1a3.08,3.08,0,0,0,1.21-2.17c.09-1.37.49-7.66.49-7.66l-.32-3.77s-.08-1.37-1.05-.65-16.13,12.34-16.13,12.34A2.72,2.72,0,0,0,229.51,155.59Z"/>
    <path class="cls-3" d="M239.62,157.69s-.56-1-.66-1.31a1.61,1.61,0,0,0-.59-.54l-5-1.94"/>
    <path class="cls-3" d="M244.77,150.26a10.22,10.22,0,0,1-3,5.76l-2.19,1.67"/>
    <path class="cls-3" d="M233.92,162.07c-2.28.94-2.73-1.47-2.59-2.82.32-2.83,1.29-5.54,3.23-6.88l1-.68h0l1.79.72a1.27,1.27,0,0,0,.67,0l1.07-.7.75-3.39,2.49-1.88c1.41-.61,2.6.3,2.54,2.66a8.13,8.13,0,0,1-.12,1.21"/>
    <path class="cls-3" d="M238.73,156.22l-.76.56a1.19,1.19,0,0,0-.43.46c0,.22-.69,2.61-.69,2.61L234,162h-.11"/>
    <path class="cls-3" d="M232.82,154.58a1.91,1.91,0,0,1,.94.59,2,2,0,0,1,.46,1.16,2.49,2.49,0,0,1-1.56,1.13,5.27,5.27,0,0,1-.81-.13"/>
    <path class="cls-3" d="M239.62,149.44a1.88,1.88,0,0,1,1.39,1.74,2.45,2.45,0,0,1-1.55,1.13,4.55,4.55,0,0,1-.81-.13"/>
    <path class="cls-3" d="M258.78,72.41c.38-.27.41-.61.07-.75l-2.29-.76a1.52,1.52,0,0,0-1.32.23h0c-.38.27-.41.61-.06.75l2.32.77a1.55,1.55,0,0,0,1.32-.24h0Z"/>
    <path class="cls-3" d="M250.08,68.91c.37-.27.4-.61,0-.75l-2.27-.8a1.53,1.53,0,0,0-1.31.23h0c-.38.28-.41.61-.07.76l2.27.8a1.59,1.59,0,0,0,1.32-.24h0Z"/>
    <path class="cls-3" d="M241.5,65.52c.38-.27.41-.61.07-.75L239.3,64a1.52,1.52,0,0,0-1.32.24h0c-.37.27-.41.61-.06.75l2.26.8a1.55,1.55,0,0,0,1.32-.24h0Z"/>
    <path class="cls-3" d="M236.2,61c.38-.28.41-.61.07-.76l-2.3-.8a1.53,1.53,0,0,0-1.31.23h0c-.37.27-.41.61-.06.75l2.31.81a1.54,1.54,0,0,0,1.32-.23h0Z"/>
    <path class="cls-3" d="M182.59,43.05c.38-.27.4-.61.06-.76l-2.26-.8a1.51,1.51,0,0,0-1.32.24h0c-.38.27-.41.61-.06.75l2.26.8a1.55,1.55,0,0,0,1.32-.23Z"/>
    <path class="cls-3" d="M174.34,40.06c.37-.28.4-.62,0-.76l-2.27-.81a1.53,1.53,0,0,0-1.31.24h0c-.38.27-.41.61-.07.75l2.28.81a1.55,1.55,0,0,0,1.32-.23Z"/>
    <path class="cls-3" d="M166.07,37.08c.38-.27.42-.61.07-.75l-2.27-.81a1.55,1.55,0,0,0-1.32.23h0c-.37.28-.41.62-.06.76l2.26.8a1.51,1.51,0,0,0,1.32-.24h0Z"/>
    <path class="cls-3" d="M161,32.94c.38-.27.42-.61.07-.75l-2.27-.82a1.55,1.55,0,0,0-1.32.23h0c-.38.28-.4.62-.05.76l2.24.82a1.53,1.53,0,0,0,1.31-.24h0Z"/>
    <path class="cls-3" d="M272.23,84.62l8.7-6.15c1.79-1.79,2.56-4.09,1.54-5.65"/>
    <path d="M144.88,31.64l-1.56.54.85.31.72-.84h0m2.76.12a.41.41,0,0,0-.31-.31l-2.65-.94a1.59,1.59,0,0,0-.72-.05,1.65,1.65,0,0,0-.72.2l-2.49,1.51a.45.45,0,0,0-.29.37.45.45,0,0,0,.32.31l2.65.94a1.75,1.75,0,0,0,.72.06,1.77,1.77,0,0,0,.71-.21l2.52-1.51a.46.46,0,0,0,.24-.38h0Zm-4.15,1.48.39-.47-1.2-.4-.89.29-.61-.22,3.92-1.25.67.24-1.64,2.08Z"/>
    <path d="M216.61,59l-.28-.11-.81.48.29.11a1.18,1.18,0,0,0,.94,0c.36-.22.11-.37-.18-.47m1.27-.27c.32-.19,0-.32-.22-.42l-.24-.08-.69.41.24.08a1,1,0,0,0,.94,0h0Zm2.54-.18a.41.41,0,0,0-.32-.31l-2.65-.94a2,2,0,0,0-1.43.15l-2.5,1.5a.46.46,0,0,0-.28.38.41.41,0,0,0,.32.31l2.66.94a1.85,1.85,0,0,0,1.42-.15l2.52-1.5a.51.51,0,0,0,.3-.38h0Zm-4.89,1.25-1-.37,2.83-1.67,1,.37c.38.14.85.41.23.77a1.72,1.72,0,0,1-1.22.16h0c.38.16.39.42.05.62a2.18,2.18,0,0,1-1.88.11h0Z"/>
    <path d="M132.71,22c-.94-.33-.94-1-.09-1.5a4.13,4.13,0,0,1,3.14-.32,1.11,1.11,0,0,1,.63.45l-2.16.46,2.49.06a.68.68,0,0,0-.07-.66,2.22,2.22,0,0,0-1.16-.76,6.22,6.22,0,0,0-2.74-.29,4.36,4.36,0,0,0-1.65.52,1.2,1.2,0,0,0-.69.88,1.55,1.55,0,0,0,1.26,1.1,6.07,6.07,0,0,0,2.71.28h.14l.16-.16a4,4,0,0,1-2-.08"/>
    <path d="M137.76,24.12l1.7-1.67c.28-.28.2-.58-.25-.74a1.53,1.53,0,0,0-.37-.08l-2-.23,1.5.56-.66.63a.84.84,0,0,0-.6-.53,3.05,3.05,0,0,0-2.26.13c-.55.33-.43.8.27,1.07a3.7,3.7,0,0,0,1.81.09l-.36.37,1.17.42m-1.69-.94c-.33-.12-.34-.37,0-.55a1.53,1.53,0,0,1,1.15-.12c.32.12.33.37,0,.55a1.5,1.5,0,0,1-1.12.07Z"/>
    <path d="M143.58,23.29a1,1,0,0,0-.3-.05l-1.35-.1c.22-.17.18-.38-.12-.49a1,1,0,0,0-.3,0l-1.65-.12.81.29-2.49,1.49,1.17.43,2.22-1.33a.8.8,0,0,1,.57-.06c.17.06.17.18,0,.28l-2.23,1.33,1.19.43,2.53-1.5c.32-.18.29-.42,0-.55"/>
    <path d="M150.94,26a1.59,1.59,0,0,0-.3-.06l-1.35-.09c.22-.17.18-.39-.12-.49a.94.94,0,0,0-.29-.06l-1.65-.11.8.29-2.52,1.5,1.18.43L148.9,26a.75.75,0,0,1,.57-.05c.15.05.16.18,0,.27L147.3,27.6l1.17.44,2.51-1.5c.3-.19.29-.42,0-.54"/>
    <path d="M146.45,25.83a4.35,4.35,0,0,1-3.26.34c-.94-.33-.94-1-.08-1.55a4.34,4.34,0,0,1,3.24-.35c.94.34.94,1,.1,1.55m-.51-1.24c.14-.13.06-.26-.2-.31a.94.94,0,0,0-.69.16l-1.42,1.42c-.12.13,0,.27.21.31a.91.91,0,0,0,.68-.16Z"/>
    <path d="M154.07,29.61a.48.48,0,0,0-.26-.18,1.63,1.63,0,0,0-1.28.14c-.38.23-.34.48,0,.6a1.4,1.4,0,0,0,.45.1l-.21.14a2.16,2.16,0,0,1-.44-.1c-.53-.2-.57-.52-.05-.82a2.09,2.09,0,0,1,1.71-.17.81.81,0,0,1,.31.18l-.25.12"/>
    <path d="M155.33,29.82l.24.09-.88,1.22-.27-.09.24-.3-.82-.31-.58.18-.25-.1,2.32-.69m-.09.17-1.13.35.67.25Z"/>
    <polyline points="156.6 30.27 156.84 30.36 155.45 31.2 156.15 31.45 155.94 31.58 155 31.24 156.6 30.27"/>
    <path d="M161.72,37.71l-.7-.25-.44.25.24.07c.28.11.33.33,0,.5a1.47,1.47,0,0,1-1.18.08,1,1,0,0,1-.32-.16l.23-.12a.51.51,0,0,0,.26.18,1,1,0,0,0,.73,0c.22-.14.15-.28-.08-.36a1.61,1.61,0,0,0-.38-.08l.84-.5,1,.33-.19.11"/>
    <path d="M162.88,38c.47.17.09.5-.25.7a1.77,1.77,0,0,1-1.41.29c-.47-.16-.1-.48.26-.69a1.75,1.75,0,0,1,1.4-.29m-1.47.93a1.6,1.6,0,0,0,1-.27c.17-.13.57-.41.31-.5a1.41,1.41,0,0,0-.95.27c-.21.07-.6.35-.3.45v0Z"/>
    <path d="M163.39,38.57a.92.92,0,0,1,.83-.14c.29.1.15.26-.1.41a1,1,0,0,1-.82.14c-.27-.1-.14-.26.09-.41m.52.19c.09-.07.32-.18.15-.24a.62.62,0,0,0-.44.13c-.11.06-.3.18-.16.24a.65.65,0,0,0,.5-.13Zm1.35,0,.18.06-2.76.64-.17-.06Zm-1.44.65a.9.9,0,0,1,.82-.14c.29.1.14.26-.09.4a1,1,0,0,1-.83.15c-.23-.07-.08-.25.15-.39Zm.51.18c.11-.06.32-.17.14-.23a.63.63,0,0,0-.44.12c-.09.06-.3.18-.15.24a.68.68,0,0,0,.5-.1Z"/>
    <path d="M167.78,40.86a1.19,1.19,0,0,1,.79-.08h0c-.17-.14-.07-.26.08-.36a1.18,1.18,0,0,1,.94,0c.34.13.34.3.16.41A1.17,1.17,0,0,1,169,41c.13.11.15.25-.07.38a1.21,1.21,0,0,1-1.05.06c-.29-.1-.42-.3-.13-.48m.87,0a1.12,1.12,0,0,0-.6.1c-.18.11-.1.22.07.29a.77.77,0,0,0,.56,0c.22-.26.06-.35,0-.46v.07Zm.26-.06a1.06,1.06,0,0,0,.55-.12c.15-.09,0-.18-.09-.22a.65.65,0,0,0-.51,0c-.12,0-.08.11,0,.25v.09Z"/>
    <path d="M171,40.87c.47.16.1.48-.25.69a1.75,1.75,0,0,1-1.4.28c-.47-.17-.11-.49.25-.69a1.75,1.75,0,0,1,1.4-.28m-1.46.87a1.44,1.44,0,0,0,.94-.27c.19-.12.61-.4.33-.5a1.53,1.53,0,0,0-.95.27c-.21.12-.63.41-.32.48h0Z"/>
    <path d="M171.57,41.51a1,1,0,0,1,.83-.15c.29.11.14.27-.1.41a1,1,0,0,1-.82.15c-.29-.1-.15-.27.09-.41m.51.18c.1,0,.31-.17.15-.22a.61.61,0,0,0-.45.12c-.09.06-.3.18-.14.24a.62.62,0,0,0,.44-.11h0Zm1.36,0,.16,0-2.76.64-.17-.06Zm-1.45.65a1,1,0,0,1,.81-.15c.29.11.16.27-.09.42a1.06,1.06,0,0,1-.83.14c-.27-.09-.12-.24.1-.38h0Zm.51.19c.1-.07.31-.18.14-.23a.61.61,0,0,0-.45.12c-.09,0-.29.19-.15.23a.61.61,0,0,0,.47-.09h0Z"/>
    <polyline points="176.79 43.24 176.31 43.27 176.34 43.13 177.07 43.09 177.29 43.16 175.69 44.13 175.46 44.04 176.79 43.24"/>
    <path d="M178.25,43.49c.47.17.1.5-.24.71a1.88,1.88,0,0,1-1.42.29c-.47-.17-.1-.5.26-.71a1.82,1.82,0,0,1,1.4-.28m-1.46.88a1.37,1.37,0,0,0,.94-.27c.21-.12.61-.39.32-.5a1.46,1.46,0,0,0-.94.27c-.2.11-.61.38-.32.49h0Z"/>
    <path d="M179.72,44c.46.17.08.49-.27.7a1.78,1.78,0,0,1-1.4.3c-.47-.18-.1-.5.25-.71a1.77,1.77,0,0,1,1.41-.29m-1.49.87a1.42,1.42,0,0,0,.94-.26c.2-.12.6-.4.32-.5a1.52,1.52,0,0,0-.94.27c-.18.15-.59.4-.31.5h0Z"/>
    <path d="M180.27,44.66a.92.92,0,0,1,.83-.14c.3.1.15.26-.09.4a.93.93,0,0,1-.82.15c-.28-.1-.13-.27.08-.41m.52.19c.1-.06.31-.17.14-.24a.66.66,0,0,0-.45.12c-.08.06-.28.19-.14.24A.66.66,0,0,0,180.79,44.85Zm1.35,0,.18,0-2.76.65-.17-.06Zm-1.43.64a.92.92,0,0,1,.82-.15c.29.11.15.27-.09.42a1,1,0,0,1-.83.14C180.33,45.83,180.47,45.66,180.71,45.49Zm.51.18c.11-.06.31-.17.15-.23a.58.58,0,0,0-.46.12c-.09.06-.29.18-.15.24a.62.62,0,0,0,.46-.09h0Z"/>
    <path d="M228.88,57.64a.49.49,0,0,0-.25-.17,1.55,1.55,0,0,0-1.28.14c-.38.22-.34.48,0,.6a1.34,1.34,0,0,0,.45.09l-.21.14a1.65,1.65,0,0,1-.44-.1c-.55-.2-.56-.52-.06-.83a2.22,2.22,0,0,1,1.73-.17.92.92,0,0,1,.3.18l-.25.12"/>
    <path d="M230.14,57.84l.27.1-.89,1.22-.25-.09.24-.31-.84-.3-.57.18-.25-.09,2.32-.7m-.08.18-1.14.35.64.28Z"/>
    <polyline points="231.41 58.3 231.66 58.4 230.26 59.23 230.97 59.49 230.76 59.62 229.81 59.27 231.41 58.3"/>
    <path d="M236.8,66.07l-.72-.26-.43.26.21.06c.31.12.33.33,0,.5a1.43,1.43,0,0,1-1.18.09,1.07,1.07,0,0,1-.32-.16l.23-.13a.51.51,0,0,0,.26.18.9.9,0,0,0,.72,0c.23-.13.16-.27-.06-.34a1.3,1.3,0,0,0-.39-.09l.85-.5L237,66l-.19.11"/>
    <path d="M238,66.28c.47.17.09.49-.25.71a1.81,1.81,0,0,1-1.41.29c-.46-.17-.1-.5.25-.7a1.91,1.91,0,0,1,1.41-.29m-1.47.89a1.52,1.52,0,0,0,.94-.27c.18-.13.59-.41.32-.5a1.37,1.37,0,0,0-.94.27c-.2.1-.61.38-.32.45h0Z"/>
    <path d="M238.52,66.91a1,1,0,0,1,.84-.14c.28.11.13.27-.11.41a1,1,0,0,1-.82.14c-.28-.1-.14-.27.09-.41m.53.18c.1,0,.3-.18.15-.23a.62.62,0,0,0-.46.12c-.1.06-.29.18-.15.24a.74.74,0,0,0,.46-.09h0Zm1.35,0,.16.11-2.77.64-.17-.07Zm-1.45.65a1,1,0,0,1,.83-.14c.29.11.14.27-.09.41a1,1,0,0,1-.82.14c-.29-.08-.19-.22.07-.36h0Zm.53.19c.11-.06.31-.18.14-.23a.54.54,0,0,0-.44.12c-.11.05-.29.19-.15.23a.61.61,0,0,0,.44-.07h0Z"/>
    <path d="M243.46,69.52a1.31,1.31,0,0,1,.78-.13h0c-.17-.14-.07-.26.09-.36a1.18,1.18,0,0,1,.94,0c.34.12.34.3.18.41a1.27,1.27,0,0,1-.74.13c.14.11.15.25-.06.38a1.22,1.22,0,0,1-1,.07c-.29-.1-.43-.3-.13-.48m.87,0a1.17,1.17,0,0,0-.61.09c-.17.1-.09.23.08.29a.77.77,0,0,0,.56,0c.2-.2,0-.29,0-.41Zm.26-.07a1,1,0,0,0,.54-.1c.15-.09,0-.19-.08-.22a.65.65,0,0,0-.51,0c-.14.06-.09.16,0,.3h0Z"/>
    <path d="M246.68,69.52c.47.18.11.5-.25.71a1.85,1.85,0,0,1-1.41.29c-.46-.17-.09-.5.26-.71a1.78,1.78,0,0,1,1.4-.3m-1.47.89a1.44,1.44,0,0,0,.94-.27c.2-.12.59-.4.32-.5a1.44,1.44,0,0,0-.94.27c-.2.13-.61.4-.31.51h0Z"/>
    <path d="M247.24,70.17a1,1,0,0,1,.83-.14c.28.1.14.26-.1.4a1,1,0,0,1-.82.15c-.28-.11-.13-.27.09-.41m.51.19c.11-.06.31-.18.15-.23a.58.58,0,0,0-.44.13c-.1,0-.3.17-.15.23a.61.61,0,0,0,.45-.13h0Zm1.36,0,.17.07-2.77.64-.17-.07Zm-1.44.66a.9.9,0,0,1,.81-.14c.29.1.15.26-.1.4a.92.92,0,0,1-.82.14c-.26-.07-.13-.25.12-.38h0Zm.49.19c.12-.07.32-.17.16-.23a.61.61,0,0,0-.45.12c-.09.06-.3.18-.14.24a.57.57,0,0,0,.44-.11h0Z"/>
    <polyline points="253.13 72.33 252.65 72.36 252.69 72.22 253.42 72.18 253.64 72.26 252.04 73.22 251.8 73.13 253.13 72.33"/>
    <path d="M254.6,72.58c.47.17.1.5-.25.71a1.84,1.84,0,0,1-1.4.29c-.47-.17-.11-.5.24-.71a1.9,1.9,0,0,1,1.41-.29m-1.47.88a1.36,1.36,0,0,0,.94-.26c.21-.12.61-.39.33-.5a1.47,1.47,0,0,0-.94.28c-.19.1-.66.37-.33.48Z"/>
    <path d="M256.05,73.11c.46.17.1.5-.25.7a1.77,1.77,0,0,1-1.41.29c-.47-.16-.1-.49.26-.7a1.79,1.79,0,0,1,1.4-.29m-1.48.87a1.36,1.36,0,0,0,.94-.27c.21-.12.62-.4.33-.5a1.51,1.51,0,0,0-.94.26c-.22.14-.62.41-.32.51h0Z"/>
    <path d="M256.63,73.72a.93.93,0,0,1,.81-.14c.3.1.15.25-.09.4a1,1,0,0,1-.83.14c-.27-.09-.13-.26.11-.4m.5.19c.11-.06.31-.18.14-.24a.6.6,0,0,0-.44.12c-.1.06-.3.18-.15.24a.64.64,0,0,0,.45-.09h0Zm1.36,0,.17.06-2.76.69-.17-.07Zm-1.45.65a.91.91,0,0,1,.83-.14c.29.1.15.26-.1.4A1,1,0,0,1,257,75c-.28,0-.14-.21.09-.35Zm.52.18c.1-.06.32-.17.15-.23a.57.57,0,0,0-.44.12c-.1.06-.3.18-.16.24a.64.64,0,0,0,.45-.07Z"/>
    <path d="M256.9,68.77h.6a3.45,3.45,0,0,0,1.18-.24c.14-.09.1-.2-.08-.27a1.36,1.36,0,0,0-.49-.08l.17-.13a2.07,2.07,0,0,1,.55.11c.31.12.38.29.09.48a3.9,3.9,0,0,1-1.21.25h-.56l.81.29-.19.12-1.07-.39.25-.15"/>
    <path d="M259.88,68.43l.24.08-.73.44h0a1,1,0,0,1,.6,0c.32.11.27.27,0,.47l-.69.41-.24-.08.61-.37c.27-.17.34-.27.16-.35a1.07,1.07,0,0,0-.87.15l-.54.32-.22-.08,1.73-1"/>
    <path d="M249.39,65.92l-.79-.29.19-.11,1.73-.38.39.11-1,.63.21.07-.18.12-.22-.08-.36.22-.29,0,.36-.23m1-.63h0l-1.38.32.53.2Z"/>
    <path d="M251.54,65.4l.23.07-.73.44h0a1,1,0,0,1,.6,0c.33.11.27.28,0,.47l-.7.41-.22-.08.6-.36c.28-.17.34-.27.15-.35a1,1,0,0,0-.86.15l-.54.33-.23-.08,1.73-1"/>
    <path d="M241.58,63.1l-.79-.28.18-.11,1.74-.39.34.11-1,.63.21.07-.18.11-.22-.07-.32.2h-.27l.36-.23m1-.63h0l-1.38.32.52.2Z"/>
    <path d="M243.73,62.58l.23.07-.73.43h0a1.22,1.22,0,0,1,.6,0c.33.12.27.29,0,.48l-.7.41-.23-.09.61-.35c.28-.17.34-.28.15-.35a1,1,0,0,0-.86.15l-.55.33-.22-.09,1.73-1"/>
    <polyline points="241.3 61.99 240.83 62.03 240.86 61.88 241.6 61.84 241.81 61.92 240.2 62.88 239.97 62.79 241.3 61.99"/>
    <path d="M201.89,40.93a.32.32,0,0,0-.19-.15,1.43,1.43,0,0,0-1.12.17c-.35.22-.36.44-.09.55a1.15,1.15,0,0,0,.37.06l-.2.16a1.53,1.53,0,0,1-.36-.07c-.44-.16-.4-.46.09-.75a1.85,1.85,0,0,1,1.49-.21.44.44,0,0,1,.23.15l-.23.12"/>
    <path d="M202.92,41.05l.19.08-.94,1.13-.19-.08.25-.28-.67-.23-.53.17-.24-.12,2.11-.7m-.1.16-1,.35.53.19Z"/>
    <polyline points="203.85 41.4 204.05 41.47 202.69 42.28 203.26 42.47 203.07 42.59 202.31 42.31 203.85 41.4"/>
    <polygon points="203.27 42.67 203.47 42.74 205 41.82 204.81 41.75 203.27 42.67"/>
    <path d="M205.25,41.91l.37.13c.29.1.37.23.09.41a1,1,0,0,1-.64.11h0c.16.07.15.21-.07.34a1,1,0,0,1-.94.05l-.37-.13,1.54-.94m-.46.46h.11a.64.64,0,0,0,.6,0c.17-.11.08-.19,0-.22l-.21-.08Zm-.7.43h.15a.66.66,0,0,0,.58,0c.23-.15.09-.24-.08-.3h-.13Z"/>
    <path d="M206.33,42.3l.35.12c.25.09.46.21.1.43a.92.92,0,0,1-.63.11h0a.1.1,0,0,1,0,.14l-.41.5-.23-.08.31-.4c.1-.11.05-.13-.06-.17h-.1l-.7.42-.19-.07,1.54-.94m-.47.46.15.06a.66.66,0,0,0,.55,0c.14-.08.13-.17,0-.24l-.19-.06Z"/>
    <path d="M208,42.9l.2.07-.94,1.13-.21-.07.25-.29-.67-.23-.5.18-.25-.09,2.12-.71m-.12.16-1,.36.55.19Z"/>
    <polyline points="208.88 43.41 208.47 43.26 208.65 43.14 209.69 43.52 209.5 43.63 209.08 43.47 207.74 44.28 207.54 44.22 208.88 43.41"/>
    <polyline points="209.88 43.59 210.63 43.86 210.44 43.97 209.88 43.76 209.44 44.04 209.95 44.23 209.75 44.34 209.24 44.16 208.73 44.46 209.3 44.67 209.1 44.78 208.35 44.51 209.88 43.59"/>
    <polyline points="211.29 44.06 211.46 44.13 209.41 44.91 209.24 44.85 211.29 44.06"/>
    <path d="M197.33,41.06l.35.13c.29.1.4.26,0,.47a1.11,1.11,0,0,1-.94.1l-.19-.07-.61.37-.2-.07,1.53-1m-.53.51.19.07a.66.66,0,0,0,.53-.07c.2-.11.09-.22,0-.26l-.16-.06Z"/>
    <polyline points="198.39 41.45 199.14 41.72 198.94 41.83 198.38 41.64 197.93 41.91 198.44 42.09 198.25 42.21 197.74 42.02 197.23 42.32 197.8 42.53 197.6 42.64 196.85 42.37 198.39 41.45"/>
    <path d="M199.37,41.81l.33.12c.27.09.48.21.1.43a.86.86,0,0,1-.63.1h0v.15l-.36.45L198.6,43l.32-.39c.09-.12,0-.14-.08-.17h-.11l-.68.41-.2-.06,1.54-.94m-.46.46.16.05a.62.62,0,0,0,.53,0c.13-.08.13-.17,0-.23l-.19-.07Z"/>
    <polyline points="200.48 42.21 201.2 42.47 201.01 42.59 200.48 42.4 200.03 42.66 200.54 42.85 200.35 42.96 199.83 42.78 199.14 43.2 198.94 43.13 200.48 42.21"/>
    <path d="M202.07,42.76c.4.15.3.44-.15.71a1.84,1.84,0,0,1-1.44.25c-.41-.15-.32-.44.14-.71a1.81,1.81,0,0,1,1.45-.24m-1.39.83a1.36,1.36,0,0,0,1-.19c.31-.19.45-.42.15-.53a1.35,1.35,0,0,0-1.05.2C200.52,43.26,200.36,43.48,200.68,43.6Z"/>
    <path d="M202.92,43.08l.34.12c.26.09.47.22.09.43a.9.9,0,0,1-.62.11h0v.15l-.36.45-.23-.08.32-.39c.1-.12,0-.14-.07-.17h-.11l-.68.41-.2-.06,1.54-.95m-.47.48h.12a.62.62,0,0,0,.53,0c.14-.08.14-.17,0-.23l-.2-.09Z"/>
    <polyline points="204.04 43.5 204.35 43.61 203.5 44.53 205.19 43.91 205.5 44.03 203.97 44.95 203.77 44.87 205.11 44.08 205.11 44.08 203.33 44.72 203.13 44.65 204.03 43.69 204.02 43.69 202.68 44.49 202.49 44.41 204.04 43.5"/>
    <path d="M206.25,44.3l.2.08-.95,1.12-.21-.07.25-.28-.67-.24-.52.19-.21-.08,2.12-.7m-.12.15-1,.36.54.19Z"/>
    <polyline points="207.18 44.63 207.44 44.73 206.79 45.68 206.8 45.68 208.04 44.95 208.23 45.02 206.69 45.94 206.45 45.84 207.1 44.87 207.09 44.87 205.83 45.63 205.65 45.55 207.18 44.63"/>
    <path d="M209.21,45.61a.23.23,0,0,0-.19-.15,1.36,1.36,0,0,0-1.11.17c-.35.21-.37.44-.09.54a1.15,1.15,0,0,0,.37.06l-.19.13a1.51,1.51,0,0,1-.37-.07c-.42-.16-.4-.46.09-.74a1.84,1.84,0,0,1,1.5-.21.43.43,0,0,1,.28.15l-.22.12"/>
    <polyline points="209.7 45.55 210.46 45.83 210.27 45.94 209.71 45.74 209.27 46 209.77 46.19 209.58 46.3 209.06 46.12 208.55 46.43 209.12 46.63 208.92 46.74 208.17 46.47 209.7 45.55"/>
    <path d="M249.24,60l.44.16c.33.14.44.3.09.49a1.08,1.08,0,0,1-.77.13h0c.2.1.2.25-.08.4a1.19,1.19,0,0,1-1.1.06l-.45-.17L249.26,60m-.56.54h.11a.79.79,0,0,0,.73,0c.22-.13.11-.22,0-.28l-.24-.09Zm-.86.49.16.07a.8.8,0,0,0,.71,0c.28-.17.1-.28-.09-.36l-.15-.06Z"/>
    <path d="M251.08,60.74l.25.1-1.2,1.33-.23-.09.29-.33-.79-.27-.63.21-.25-.09,2.56-.81m-.14.19-1.24.41.64.25Z"/>
    <polyline points="252.11 61.36 251.6 61.16 251.84 61.03 253.09 61.5 252.84 61.65 252.34 61.46 250.71 62.4 250.47 62.3 252.11 61.36"/>
    <polyline points="253.59 61.94 253.09 61.74 253.32 61.61 254.56 62.08 254.32 62.22 253.82 62.02 252.18 62.96 251.95 62.87 253.59 61.94"/>
    <polyline points="254.78 62.16 255.68 62.51 255.46 62.65 254.77 62.39 254.23 62.71 254.85 62.94 254.62 63.08 253.99 62.84 253.38 63.2 254.06 63.46 253.82 63.59 252.92 63.24 254.78 62.16"/>
    <path d="M255.9,62.6l.4.16c.33.12.58.28.13.53a1.19,1.19,0,0,1-.81.08h0v.17l-.44.54-.27-.1.4-.47c.11-.13,0-.16-.09-.21l-.14-.06-.83.48-.23-.09,1.88-1.07m-.56.55.19.08a.82.82,0,0,0,.65,0c.16-.1.16-.21-.05-.28l-.23-.1Z"/>
    <polyline points="256.5 63.88 256.96 63.01 257.24 63.11 256.88 63.78 258.2 63.48 258.47 63.58 256.74 63.97 255.96 64.42 255.73 64.33 256.5 63.88"/>
    <path d="M260.11,64.51a.35.35,0,0,0-.23-.18,1.64,1.64,0,0,0-1.35.18c-.46.25-.46.52-.13.65a1.45,1.45,0,0,0,.46.09l-.25.16a1.65,1.65,0,0,1-.44-.1c-.52-.2-.48-.56.11-1a2.32,2.32,0,0,1,1.82-.22.61.61,0,0,1,.29.19l-.29.14"/>
    <polyline points="260.68 64.44 260.92 64.52 260.14 64.99 260.92 65.28 261.69 64.83 261.92 64.92 260.05 66 259.82 65.91 260.68 65.42 259.9 65.12 259.04 65.61 258.82 65.52 260.68 64.44"/>
    <path d="M262.85,65.25l.24.09-1.19,1.34-.25-.09.31-.34-.79-.3-.64.2-.25-.09,2.57-.81m-.15.19-1.26.4.66.26Z"/>
    <path d="M264,65.72l.4.15c.32.12.56.28.13.54a1.17,1.17,0,0,1-.76.11h0v.17l-.43.55-.31-.11.39-.47c.11-.13,0-.16-.09-.21h-.17l-.84.48-.23-.08L264,65.78m-.58.54.2.08a.72.72,0,0,0,.64,0c.17-.1.17-.2,0-.29L264,66Z"/>
    <path d="M266.22,66.89a.49.49,0,0,0-.33-.25,1.8,1.8,0,0,0-1.36.19c-.44.25-.45.53-.11.66a1,1,0,0,0,.29.08l.55-.33-.32-.11.22-.13.58.23-.95.55a2.26,2.26,0,0,1-.57-.14c-.52-.2-.47-.55.12-.94a2.28,2.28,0,0,1,1.82-.23.93.93,0,0,1,.38.25l-.29.15"/>
    <polyline points="266.88 66.83 267.8 67.19 267.55 67.32 266.88 67.06 266.33 67.38 266.96 67.61 266.72 67.75 266.1 67.51 265.48 67.86 266.16 68.12 265.92 68.26 265.01 67.91 266.88 66.83"/>
    <path d="M268.06,67.29l.4.15c.31.12.58.27.12.53a1.15,1.15,0,0,1-.73.1h0v.17l-.43.55-.26-.11.39-.47c.11-.13,0-.16-.08-.2l-.14-.06-.84.48-.23-.09,1.88-1.08m-.57.56.2.07a.74.74,0,0,0,.65,0c.17-.09.16-.2,0-.28l-.23-.08Z"/>
    <polyline points="270.5 68.22 270.72 68.32 269.09 69.25 269.77 69.51 269.53 69.64 268.62 69.3 270.5 68.22"/>
    <path d="M272.46,69.28a.39.39,0,0,0-.23-.19,1.71,1.71,0,0,0-1.36.18c-.43.25-.45.52-.12.66a1.32,1.32,0,0,0,.44.08l-.23.16a1.5,1.5,0,0,1-.43-.1c-.52-.21-.48-.55.11-.94a2.25,2.25,0,0,1,1.81-.23.61.61,0,0,1,.29.19l-.28.14"/>
    <polygon points="272.02 69.84 272.62 70.07 272.82 69.95 272.23 69.73 272.02 69.84"/>
    <polyline points="274 69.58 274.91 69.93 274.67 70.06 274 69.8 273.45 70.11 274.06 70.35 273.83 70.48 273.22 70.25 272.6 70.6 273.26 70.87 273.04 71 272.13 70.65 274 69.58"/>
    <polyline points="275.21 70.34 274.7 70.38 274.76 70.23 275.54 70.17 275.75 70.25 273.88 71.33 273.65 71.23 275.21 70.34"/>
    <path d="M274.55,71.33a.45.45,0,0,0,.21.15,1.45,1.45,0,0,0,1.14-.22h0a1,1,0,0,1-.53,0c-.31-.13-.23-.34.11-.53a1.41,1.41,0,0,1,1.13-.16c.47.17.08.49-.34.73a2.25,2.25,0,0,1-1.71.34,1,1,0,0,1-.26-.16l.26-.13m1.07-.22a.87.87,0,0,0,.67-.1c.18-.11.31-.27.12-.34a.92.92,0,0,0-.69.12c-.19.09-.35.24-.12.31h0Z"/>
    <path d="M200.83,82.92a3.32,3.32,0,0,0-2.73.38c-.75.5-.74,1.15,0,1.44a3.35,3.35,0,0,0,2.74-.38c.74-.5.73-1.15,0-1.44m-.65,1.37-.7-.28-.68.47-.36-.15.7-.45-.68-.26.34-.24.69.27.68-.45.36.14-.68.46.66.27Z"/>
    <path d="M209.14,85.81a4.43,4.43,0,0,0-3,.57c-.88.53-1,1.14-.24,1.37a4.47,4.47,0,0,0,3-.56c.9-.54,1-1.15.25-1.37m-.94,1.35-1.74-.51.42-.25,1.68.48Z"/>
    <path d="M125.18,54.1a3.62,3.62,0,0,0-2.82.37c-.75.49-.68,1.11.13,1.39a3.66,3.66,0,0,0,2.82-.38c.74-.49.68-1.11-.14-1.38m-.56,1.31-.75-.26-.66.43-.39-.13.67-.44-.75-.25.34-.23.79.26.68-.44.4.13-.67.45.74.25Z"/>
    <path d="M133.9,57a4.35,4.35,0,0,0-3,.56c-.94.54-1,1.15-.25,1.36a4.43,4.43,0,0,0,3-.56c.89-.54,1-1.15.25-1.37M133,58.33l-1.73-.51.42-.24,1.71.51Z"/>
    <path class="cls-2" d="M143.45,280.17c-8.2-5.65-30.06-13.61-31.27-14.12s-1.22-2.6-1.22-2.6A5.38,5.38,0,0,0,108,259.8s-11.12-4.45-13.23-5.14a3.33,3.33,0,0,0-2.82.25s-4.56,3.23-5.65,4.06a4.08,4.08,0,0,0-1.71,2.51s-.65,3.25-.81,4.14a4.32,4.32,0,0,1-.76,1.66L36.94,299.4c-.94.74-.94,2.69-.94,2.69a5.82,5.82,0,0,0,1.88.72,18,18,0,0,0,7.07,6.9c4.55,2.19,34,14.19,35.57,14.78,2.11.8,6.33,3.24,11.29-.32L145.24,285a1.46,1.46,0,0,0,.4-.94v-1.62C145.57,281.79,144.57,280.92,143.45,280.17Z"/>
    <line class="cls-4" x1="91.81" y1="320.77" x2="144.67" y2="282.36"/>
    <path class="cls-4" d="M36.68,299.65s31.5,6.74,53.43,21a3.13,3.13,0,0,1,.94,1.63v2"/>
    <path class="cls-4" d="M85,260.51a1.27,1.27,0,0,1,1.63-.75h.11l15,5.57a3.32,3.32,0,0,1,2,2.75v2"/>
    <path class="cls-4" d="M84.34,266.58a172.8,172.8,0,0,1,18.09,4.28,3.52,3.52,0,0,0,2.82-.76c1.57-1.14,5.47-4.11,5.47-4.11"/>
    <path class="cls-4" d="M91.93,285.7a1.28,1.28,0,0,1-2.16,0v-.34a1.29,1.29,0,0,1,1.76-.4,1.39,1.39,0,0,1,.4.4Z"/>
    <path class="cls-4" d="M88.72,288.05a1.27,1.27,0,0,1-2.16,0v-.33a1.27,1.27,0,0,1,2.16,0Z"/>
    <path class="cls-4" d="M85.51,290.41a1.28,1.28,0,0,1-2.16,0v-.34a1.28,1.28,0,0,1,1.77-.4,1.24,1.24,0,0,1,.39.4Z"/>
    <path class="cls-4" d="M95,286.79a1.28,1.28,0,0,1-2.16,0v-.33a1.27,1.27,0,0,1,2.16,0Z"/>
    <path class="cls-4" d="M91.77,289.16a1.3,1.3,0,0,1-1.78.38,1.37,1.37,0,0,1-.38-.38v-.34a1.28,1.28,0,0,1,2.16,0Z"/>
    <path class="cls-4" d="M88.56,291.5a1.28,1.28,0,0,1-2.16,0v-.34a1.27,1.27,0,0,1,1.76-.4,1.18,1.18,0,0,1,.4.4Z"/>
    <path class="cls-4" d="M98,287.89a1.27,1.27,0,0,1-2.16,0v-.33a1.27,1.27,0,0,1,2.16,0Z"/>
    <path class="cls-4" d="M94.81,290.25a1.28,1.28,0,0,1-2.16,0v-.34a1.28,1.28,0,0,1,2.16,0Z"/>
    <path class="cls-4" d="M91.6,292.6a1.28,1.28,0,0,1-2.16,0v-.34a1.28,1.28,0,0,1,1.76-.4,1.18,1.18,0,0,1,.4.4Z"/>
    <path class="cls-4" d="M83.13,297.13c0,.08-.08.18-.37.25l-4.63,1.18s-.47.12-.51-.25v-.4a.53.53,0,0,1,0-.25c.16-.64.81-2.47.81-2.47A.43.43,0,0,1,79,295a24.53,24.53,0,0,1,3.9,1.41.44.44,0,0,1,.25.27v.42h0Z"/>
    <path class="cls-2" d="M354.54,302.56c-11.3-5.87-22.71-19.2-32.58-24.09-2.41-1.12-3.77-1.8-3.77-1.8,0-1.3-.14-1.88-1.16-2.39l-12.24-6.9c.43-4.23-3-5.95-4.84-5.11s-2.75-1.22-2.75-1.22c-1.12-2.43-4.15-4.41-4.15-4.41l-11.3-5.83-2.43,1.72-5.89-2.82s-1.56-1.39-3.66,1.35l-1.3,3.08-1.88-.36-3.14,3.2c-1.57,1.6-.88,3.88,1.42,4.77l4.51,2.58.34,4,10.81,5.22a14.25,14.25,0,0,0,5.86.8s4.71-.42,5.35,1.47c0,0,2,3.11,4.84,2.14a2.68,2.68,0,0,1,2.52-.54c1.63.38,12.55,4.88,12.55,4.88s2.33,1.14,3.41.41l4.15,1.88s8.62,4.82,22.59,16.16Z"/>
    <line class="cls-3" x1="267.19" y1="253.97" x2="273.82" y2="257.48"/>
    <line class="cls-3" x1="270.01" y1="252.05" x2="276.66" y2="255.25"/>
    <line class="cls-3" x1="265.06" y1="257.77" x2="270.27" y2="260.58"/>
    <path class="cls-3" d="M280,252.53l-9.7,8.11a3.75,3.75,0,0,0-.6,2.06l.36,4.36"/>
    <path class="cls-3" d="M272.72,262.47l5.83,2.51s2.83,1.39,9.33,2.29c0,0,2.95.69,3.76,1.69"/>
    <path class="cls-3" d="M295.86,277.64c-1,.79-4-5,.71-9.56"/>
    <path class="cls-3" d="M296.56,268.08l4.6-3.48s3.28-1.75,3,.94"/>
    <path class="cls-3" d="M298.12,263.27,294,266.64c-.94,1-4.44,6.31-1.33,9.86"/>
    <line class="cls-3" x1="290.79" y1="266" x2="294.93" y2="262.37"/>
    <path class="cls-3" d="M316.23,279.17s1.83.87,4.84,2.27a156.21,156.21,0,0,1,15.2,11.13c8.31,6.85,10.48,8.47,13.84,10.35"/>
    <path class="cls-3" d="M316.92,275.28c-2,1.07-3.76,2.51-4,4.12s.1,3.76,2.22,3.34"/>
    <path class="cls-3" d="M315.16,281.47c-1.88-.74.25-5.58,2.83-4"/>
    <path class="cls-3" d="M307.13,271.05c.83-.55,1.49-.94,1.49-.94"/>
    <path class="cls-3" d="M303,275.87a5.59,5.59,0,0,1,.94-2.36,7.71,7.71,0,0,1,1.14-1"/>
    <path class="cls-3" d="M304.84,269.85c.79-.52,1.38-.88,1.38-.88"/>
    <path class="cls-3" d="M300.55,275a5.72,5.72,0,0,1,.94-2.64,6.83,6.83,0,0,1,1-.94"/>
    <path class="cls-3" d="M298.34,274a6.2,6.2,0,0,1,1-2.94,29.66,29.66,0,0,1,4.71-3.4"/>
    <path class="cls-3" d="M309.18,272.29c.75-.5,1.33-.85,1.33-.85"/>
    <path class="cls-3" d="M305.37,277.05a6.09,6.09,0,0,1,1.05-2.55,8.21,8.21,0,0,1,.94-.83"/>
    <path class="cls-3" d="M311.5,273.23c.65-.42,1.14-.71,1.14-.71"/>
    <path class="cls-3" d="M307.56,277.75a5.59,5.59,0,0,1,.94-2.2,7.92,7.92,0,0,1,.94-.89"/>
    <path class="cls-3" d="M313.53,274.45c.82-.56,1.49-.94,1.49-.94"/>
    <path class="cls-3" d="M309.94,278.76a5.87,5.87,0,0,1,.94-2.21,8.43,8.43,0,0,1,.94-.95"/>
    <path class="cls-5" d="M275.21,298.07c-.8,3.6.13,5.29.89,6.25,4.45,5.53,20.64,5.52,37.8,5.51,13.62,0,29,0,42.16,2.74h0a3,3,0,1,1-1.24,5.92h0c-12.5-2.63-27.59-2.62-40.92-2.61-20.25,0-36.25,0-42.52-7.77-2.39-3-3.09-6.79-2.09-11.29"/>
    <path class="cls-5" d="M442.41,323.35c-.59,4.62-2.55,8-5.82,10-8.54,5.22-23.58-.22-42.64-7.11-12.53-4.53-26.72-9.66-39.37-11.44h0a3,3,0,1,1,.54-6l.3,0h0c13.28,1.88,27.79,7.1,40.59,11.73,16.13,5.83,31.37,11.3,37.43,7.65,1-.64,2.49-1.89,3-5.58"/>
    <path class="cls-5" d="M440.28,335.48c-1,4.55-3.26,7.7-6.69,9.41-9,4.4-23.47-2.38-41.8-11-12.07-5.65-25.73-12.06-38.17-15h0a3,3,0,0,1,1.06-6,1.94,1.94,0,0,1,.33.07h0c13,3.07,27,9.62,39.35,15.39,15.52,7.27,30.2,14.11,36.57,11,1.1-.55,2.65-1.68,3.46-5.28"/>
    <path class="cls-5" d="M442.51,329.83c-.81,4.58-2.92,7.85-6.27,9.68-8.77,4.8-23.52-1.33-42.26-9.1-12.3-5.11-26.25-10.89-38.79-13.26h0a3,3,0,1,1,1.12-5.93h0c13.17,2.47,27.42,8.39,40,13.61,15.85,6.59,30.81,12.79,37,9.41,1.07-.58,2.57-1.78,3.21-5.43"/>
    <path class="cls-5" d="M436.55,328.76a5.14,5.14,0,0,0-.94-4.52c-4.39-5.51-21.29-6.32-37.64-7.11-14.76-.72-30-1.45-41.5-5.34h0a3,3,0,0,1,1.88-5.73h0c10.68,3.61,25.51,4.33,39.85,5,19.31.95,36,1.75,42.09,9.42a11.19,11.19,0,0,1,2.15,9.34"/>
    <path class="cls-5" d="M434.43,334.16a5.19,5.19,0,0,0-.72-4.55c-4.14-5.7-21-7.27-37.29-8.79-14.71-1.37-29.93-2.82-41.22-7.17h0a3,3,0,0,1,1.91-5.75l.27.11h0c10.51,4.08,25.3,5.45,39.6,6.78,19.25,1.8,35.87,3.34,41.63,11.29a11.24,11.24,0,0,1,1.72,9.42"/>
    <path class="cls-5" d="M436.4,322.57a5.17,5.17,0,0,0-1.13-4.47c-4.61-5.34-21.55-5.34-37.93-5.34-14.79,0-30.12,0-41.71-3.38h0a3,3,0,1,1,1.67-5.82h0c10.83,3.11,25.68,3.13,40.05,3.15,19.33,0,36,.05,42.48,7.4a11.25,11.25,0,0,1,2.59,9.24"/>
    <path class="cls-5" d="M276.78,289.07c-1,3.55-.22,5.29.47,6.3,4.07,5.82,20.24,6.9,37.35,8,13.59.94,29,1.94,41.88,5.58h0a3,3,0,0,1-1.37,5.91l-.28-.08h0c-12.29-3.46-27.36-4.47-40.65-5.36C294,308.1,278,307,272.29,298.83c-2.2-3.13-2.64-7-1.32-11.46"/>
    <path class="cls-5" d="M275.78,292.05c-.94,3.58-.08,5.3.66,6.28,4.23,5.7,20.42,6.31,37.56,6.94,13.6.51,29,1.07,42,4.32h0a3,3,0,0,1-1.46,5.86h0c-12.4-3.09-27.48-3.65-40.79-4.14-20.24-.74-36.22-1.35-42.19-9.41-2.28-3.06-2.82-6.91-1.67-11.42"/>
    <path class="cls-5" d="M269.3,296.76a11.2,11.2,0,0,1,5.56-7.81c8.57-4.71,24.28.94,42.48,7.45,13.52,4.86,27.49,9.87,38.74,10.63h0a3,3,0,0,1-.18,6.06h-.23c-12.09-.82-26.47-6-40.38-11-15.4-5.54-31.33-11.3-37.5-7.85a5.15,5.15,0,0,0-2.58,3.82"/>
    <path class="cls-5" d="M271,287.35a11.21,11.21,0,0,1,6.07-7.42c8.86-4.14,24.16,2.55,41.87,10.3,13.17,5.75,26.77,11.71,37.93,13.17h0a3,3,0,0,1-.44,6.05l-.37-.05h0c-12-1.63-26-7.75-39.52-13.68-15-6.58-30.5-13.33-36.88-10.35a5.19,5.19,0,0,0-2.83,3.64"/>
    <path class="cls-5" d="M356.47,319.61c-1.52-.3-2.06-4-1.22-8.3s2.83-7.53,4.3-7.21a1.54,1.54,0,0,0-1.49-1.22,13.75,13.75,0,0,1-2.39-.62c-1.69-.33-3.77,3.22-4.71,8s-.34,8.83,1.35,9.16a17.09,17.09,0,0,1,2.33.64A1.79,1.79,0,0,0,356.47,319.61Z"/>
    <path class="cls-6" d="M275.21,298.07c-.8,3.6.13,5.29.89,6.25,4.45,5.53,20.64,5.52,37.8,5.51,13.62,0,29,0,42.16,2.74h0a3,3,0,1,1-1.24,5.92h0c-12.5-2.63-27.59-2.62-40.92-2.61-20.25,0-36.25,0-42.52-7.77-2.39-3-3.09-6.79-2.09-11.29"/>
    <path class="cls-6" d="M269.3,296.76a11.2,11.2,0,0,1,5.56-7.81c8.57-4.71,24.28.94,42.48,7.45,13.52,4.86,27.49,9.87,38.74,10.63h0a3,3,0,0,1-.18,6.06h-.23c-12.09-.82-26.47-6-40.38-11-15.4-5.54-31.33-11.3-37.5-7.85a5.15,5.15,0,0,0-2.58,3.82"/>
    <path class="cls-3" d="M355.87,310.05c-30.35-2-79-33.69-83.61-12.64-5.35,24.11,47.46,10.64,83.19,18.12"/>
    <path class="cls-6" d="M275.78,292.05c-.94,3.58-.08,5.3.66,6.28,4.23,5.7,20.42,6.31,37.56,6.94,13.6.51,29,1.07,42,4.32h0a3,3,0,0,1-1.46,5.86h0c-12.4-3.09-27.48-3.65-40.79-4.14-20.24-.74-36.22-1.35-42.19-9.41-2.28-3.06-2.82-6.91-1.67-11.42"/>
    <path class="cls-6" d="M269.92,290.58a11.25,11.25,0,0,1,5.86-7.6c8.73-4.4,24.22,1.83,42.16,9,13.33,5.36,27.11,10.9,38.32,12.08h0a3,3,0,0,1-.63,6h0c-12.05-1.27-26.23-7-39.95-12.48-15.17-6.11-30.88-12.43-37.17-9.26a5.2,5.2,0,0,0-2.72,3.77"/>
    <path class="cls-3" d="M355.94,307.11c-30.26-3.18-77.64-36.63-83.08-15.77-6.23,23.89,47.05,12.38,82.45,21.23"/>
    <path class="cls-6" d="M434.43,334.16a5.19,5.19,0,0,0-.72-4.55c-4.14-5.7-21-7.27-37.29-8.79-14.71-1.37-29.93-2.82-41.22-7.17h0a3,3,0,0,1,1.91-5.75l.27.11h0c10.51,4.08,25.3,5.45,39.6,6.78,19.25,1.8,35.87,3.34,41.63,11.29a11.24,11.24,0,0,1,1.72,9.42"/>
    <path class="cls-6" d="M440.28,335.48c-1,4.55-3.26,7.7-6.69,9.41-9,4.4-23.47-2.38-41.8-11-12.07-5.65-25.73-12.06-38.17-15h0a3,3,0,0,1,1.06-6,1.94,1.94,0,0,1,.33.07h0c13,3.07,27,9.62,39.35,15.39,15.52,7.27,30.2,14.11,36.57,11,1.1-.55,2.65-1.68,3.46-5.28"/>
    <path class="cls-3" d="M356.24,310.88c28.36,11,85.8,2.95,81.1,24-5.4,24.1-47.48-10.51-83-18.83"/>
    <path class="cls-6" d="M436.55,328.76a5.14,5.14,0,0,0-.94-4.52c-4.39-5.51-21.29-6.32-37.64-7.11-14.76-.72-30-1.45-41.5-5.34h0a3,3,0,0,1,1.88-5.73h0c10.68,3.61,25.51,4.33,39.85,5,19.31.95,36,1.75,42.09,9.42a11.19,11.19,0,0,1,2.15,9.34"/>
    <path class="cls-3" d="M436.55,328.76a5.14,5.14,0,0,0-.94-4.52c-4.39-5.51-21.29-6.32-37.64-7.11-14.76-.72-30-1.45-41.5-5.34h0a3,3,0,0,1,1.88-5.73h0c10.68,3.61,25.51,4.33,39.85,5,19.31.95,36,1.75,42.09,9.42a11.19,11.19,0,0,1,2.15,9.34"/>
    <path class="cls-3" d="M357.45,309c28.81,9.74,85.84-.87,82.08,20.35"/>
    <path class="cls-6" d="M442.51,329.83c-.81,4.58-2.92,7.85-6.27,9.68-8.77,4.8-23.52-1.33-42.26-9.1-12.3-5.11-26.25-10.89-38.79-13.26h0a3,3,0,1,1,1.12-5.93h0c13.17,2.47,27.42,8.39,40,13.61,15.85,6.59,30.81,12.79,37,9.41,1.07-.58,2.57-1.78,3.21-5.43"/>
    <path class="cls-3" d="M439.54,329.3c-4.31,24.32-47.91-8.37-83.76-15.12"/>
    <path class="cls-6" d="M276.78,289.07c-1,3.55-.22,5.29.47,6.3,4.07,5.82,20.24,6.9,37.35,8,13.59.94,29,1.94,41.88,5.58h0a3,3,0,0,1-1.37,5.91l-.28-.08h0c-12.29-3.46-27.36-4.47-40.65-5.36C294,308.1,278,307,272.29,298.83c-2.2-3.13-2.64-7-1.32-11.46"/>
    <path class="cls-6" d="M271,287.35a11.21,11.21,0,0,1,6.07-7.42c8.86-4.14,24.16,2.55,41.87,10.3,13.17,5.75,26.77,11.71,37.93,13.17h0a3,3,0,0,1,2.6,3.41c-.23,1.66-1.24,1.56-2.9,1.35l-.94.13c-7.76-1-21.88-4.94-39.1-12.47-15-6.59-30.5-13.34-36.88-10.35a5.15,5.15,0,0,0-2.83,3.63"/>
    <path class="cls-3" d="M356.46,306.47c-30.12-4.08-76.52-38.93-82.57-18.24-7,23.7,46.66,13.78,81.78,23.68"/>
    <path class="cls-6" d="M436.4,322.57a5.17,5.17,0,0,0-1.13-4.47c-4.61-5.34-21.55-5.34-37.93-5.34-14.79,0-30.12,0-41.71-3.38h0a3,3,0,1,1,1.67-5.82h0c10.83,3.11,25.68,3.13,40.05,3.15,19.33,0,36,.05,42.48,7.4a11.25,11.25,0,0,1,2.59,9.24"/>
    <path class="cls-6" d="M442.41,323.35c-.59,4.62-2.55,8-5.82,10-8.54,5.22-23.58-.22-42.64-7.11-12.53-4.53-26.72-9.66-39.37-11.44h0a3,3,0,1,1,.54-6l.3,0h0c13.28,1.88,27.79,7.1,40.59,11.73,16.13,5.83,31.37,11.3,37.43,7.65,1-.64,2.49-1.89,3-5.58"/>
    <path class="cls-3" d="M355.38,308.77c13.27,1.88,32,8.56,44.81,13.17"/>
    <path class="cls-3" d="M356.46,306.47c29.24,8.38,85.71-4.89,83,16.49-3.18,24.47-48.24-6.13-84.4-11.19"/>
    <path class="cls-6" d="M356.47,319.61c-1.52-.3-2.06-4-1.22-8.3s2.83-7.53,4.3-7.21a1.54,1.54,0,0,0-1.49-1.22,13.75,13.75,0,0,1-2.39-.62c-1.69-.33-3.77,3.22-4.71,8s-.34,8.83,1.35,9.16a17.09,17.09,0,0,1,2.33.64A1.79,1.79,0,0,0,356.47,319.61Z"/>
    <path class="cls-3" d="M339.48,305.23c-7.53-2.63-15.31-6-23-9.41-15-6.59-30.5-13.34-36.88-10.35a5.15,5.15,0,0,0-2.83,3.63s-.08,5.32,1.41,7.07"/>
    <path class="cls-3" d="M271,287.35a11.21,11.21,0,0,1,6.07-7.42c8.86-4.14,24.16,2.55,41.87,10.3,11.89,5.19,24.15,10.56,34.63,12.66"/>
    <path class="cls-3" d="M359.14,304.05c10.63,2.61,24.63,2.64,38.18,2.66,19.33,0,36,.05,42.48,7.4a11.18,11.18,0,0,1,2.59,9.24"/>
    <path class="cls-3" d="M436.4,322.57a5.17,5.17,0,0,0-1.13-4.47c-4.61-5.34-21.55-5.34-37.93-5.34a262.16,262.16,0,0,1-26.73-1.06"/>
    <path class="cls-3" d="M442.51,329.83c-.81,4.58-2.92,7.85-6.27,9.68-8.77,4.8-23.52-1.33-42.26-9.1-12.08-5-25.75-10.69-38.12-13.17"/>
    <path class="cls-3" d="M380.05,314.92c5.47,1.79,10.85,3.77,16,5.58,16.13,5.83,31.37,11.3,37.43,7.65,1-.64,2.49-1.89,3-5.58"/>
    <path class="cls-3" d="M356.56,308.94a151.38,151.38,0,0,1,23.53,6"/>
    <path class="cls-3" d="M442.41,323.35c-.59,4.62-2.55,8-5.82,10-8.54,5.22-23.58-.22-42.64-7.11-12.23-4.43-26.09-9.41-38.52-11.3"/>
    <path class="cls-3" d="M350.29,313.7c-11.29-2.56-24.4-3.44-36.1-4.22-20.21-1.35-36.17-2.41-41.9-10.62-2.19-3.14-2.63-7-1.31-11.46"/>
    <path class="cls-3" d="M276.78,289.07c-1,3.55-.22,5.29.47,6.3,4.07,5.82,20.24,6.9,37.35,8,11.89.8,25.16,1.69,36.94,4.33"/>
    <path class="cls-6" d="M372.86,312.24s35.76,7.73,40.47,10.49,7.92,4,8,5.24C421.36,328,379.69,315.4,372.86,312.24Z"/>
    <path d="M181.34,40.21h.56a3.45,3.45,0,0,0,1.18-.24c.14-.09.1-.21-.08-.27a1.33,1.33,0,0,0-.49-.09l.17-.12a2.54,2.54,0,0,1,.55.1c.31.13.38.3.09.48a3.59,3.59,0,0,1-1.21.26h-.56l.81.29-.15.16-1.07-.39.24-.15"/>
    <path d="M184.31,39.84l.24.08-.73.44h0a1,1,0,0,1,.59,0c.32.11.28.27,0,.47l-.68.41-.24-.08.6-.38c.27-.17.34-.27.16-.35a1.07,1.07,0,0,0-.87.15l-.54.32-.21-.12,1.73-1"/>
    <path d="M173.83,37.36l-.79-.28.18-.11,1.74-.39.34.13-1,.63.21.07-.18.11-.22-.07-.33.22-.23-.08.35-.23m1-.63h0l-1.38.32.52.2Z"/>
    <path d="M176,36.84l.23.07-.73.44h0a1,1,0,0,1,.6,0c.33.11.27.28,0,.47l-.7.41-.23-.08.61-.36c.28-.17.34-.28.15-.35a1,1,0,0,0-.86.15l-.55.33-.22-.09,1.73-1"/>
    <path d="M166,34.54l-.79-.28.18-.11,1.74-.39.34.12-1,.63.21.08-.18.11-.27-.06-.35.21-.24-.08.36-.23m1-.63h0l-1.38.32.57.21Z"/>
    <path d="M168.17,34l.23.08-.73.43h0a1.22,1.22,0,0,1,.6,0c.32.11.27.28,0,.47l-.7.42-.23-.09L168,35c.28-.17.33-.27.15-.34a1,1,0,0,0-.86.15l-.55.33-.22-.09,1.73-1"/>
    <polyline points="165.73 33.43 165.27 33.47 165.3 33.33 166.03 33.29 166.25 33.37 164.64 34.32 164.4 34.24 165.73 33.43"/>
    <g>
      <line class="cls-7" x1="314.32" y1="49.81" x2="312.82" y2="49.81"/>
      <line class="cls-8" x1="310.8" y1="49.81" x2="210.59" y2="49.81"/>
      <line class="cls-7" x1="209.57" y1="49.81" x2="208.07" y2="49.81"/>
    </g>
    <g class="cls-9">
      <g>
        <rect class="cls-10" x="314.48" y="49.81" width="149.51" height="58.84"/>
        <path class="cls-2" d="M331.85,62.12H470.57c12.63,0,22.22,4.8,22.22,21.23V235.42c0,16.42-9.59,21.22-22.22,21.22H193.2c-12.63,0-22.23-4.8-22.23-21.22V83.35c0-16.43,9.6-21.23,22.23-21.23Z"/>
        <path class="cls-3" d="M340.66,91.68a7.77,7.77,0,1,1-7.77-7.76h0a7.75,7.75,0,0,1,7.76,7.76h0Z"/>
        <path class="cls-3" d="M345.59,91.68A12.7,12.7,0,1,1,332.89,79h0A12.71,12.71,0,0,1,345.59,91.68Z"/>
        <path class="cls-3" d="M301.73,90.72A1.28,1.28,0,0,1,300.44,92h-4a1.31,1.31,0,0,1-1.27-1.28v-1a1.31,1.31,0,0,1,1.3-1.29h4a1.3,1.3,0,0,1,1.25,1.29Z"/>
        <path class="cls-3" d="M284.68,90.72A1.29,1.29,0,0,1,283.39,92h-4.06A1.28,1.28,0,0,1,278,90.72v-1a1.29,1.29,0,0,1,1.29-1.29h4.06a1.31,1.31,0,0,1,1.29,1.29Z"/>
        <path class="cls-3" d="M267.63,90.72a1.3,1.3,0,0,1-1.3,1.28h-4.05A1.28,1.28,0,0,1,261,90.72v-1a1.29,1.29,0,0,1,1.29-1.29h4.05a1.31,1.31,0,0,1,1.3,1.29Z"/>
        <rect class="cls-3" x="246.3" y="82.73" width="6.63" height="3.5" rx="1.29"/>
        <line class="cls-3" x1="270.12" y1="113.47" x2="310.72" y2="113.47"/>
        <path class="cls-3" d="M234.25,113.47h6.82"/>
        <line class="cls-3" x1="173.18" y1="113.47" x2="200.84" y2="113.47"/>
        <path class="cls-3" d="M234,110.57v7.63s0,2.83-2.08,2.83H203.1C201,121,201,118.2,201,118.2v-7.63"/>
        <path class="cls-11" d="M207.62,110.57V118a1,1,0,0,1-1,.94h0a1,1,0,0,1-1.05-.94V110.6"/>
        <path class="cls-11" d="M212.49,110.57V118a1,1,0,0,1-1.05.94h0a1,1,0,0,1-1-.94V110.6"/>
        <path class="cls-11" d="M217.32,110.57V118a1,1,0,0,1-1,.94h0a1,1,0,0,1-1-.94V110.6"/>
        <path class="cls-11" d="M222.15,110.57V118a1,1,0,0,1-1,.94h0a1,1,0,0,1-1.05-.94V110.6"/>
        <path class="cls-11" d="M227,110.57V120a1,1,0,0,1-1,.94h0a1,1,0,0,1-1.06-.93h0v-9.41"/>
        <path class="cls-11" d="M231.82,110.57V120a1,1,0,0,1-1,.94h0a1,1,0,0,1-1-.94v-9.41"/>
        <path class="cls-3" d="M201,118.2V251.59c0,2.46.95,4.92,3.6,4.92"/>
        <path class="cls-3" d="M310.72,110.57v141c0,2.46-.94,4.92-3.6,4.92"/>
        <path class="cls-3" d="M170.92,234.53c0,2.83,2.28,18.76,18.38,18.76h10"/>
        <path class="cls-3" d="M270.26,110.57V217.86H266v22.92h-3.26v-3.87a28.33,28.33,0,0,1-7,.56h0a28.64,28.64,0,0,1-7-.56v3.88h-3.27V217.87h-4.3V110.58"/>
        <line class="cls-3" x1="259.87" y1="204.13" x2="251.57" y2="204.13"/>
        <polyline class="cls-3" points="260.83 204.13 260.83 204.1 260.83 232.01 255.72 232.01 255.72 232.01 250.6 232.01 250.6 204.1"/>
        <path class="cls-3" d="M250.6,204.1h-1.88V235a37.29,37.29,0,0,0,14,0V204.13H260.8"/>
        <line class="cls-3" x1="248.77" y1="233.41" x2="262.73" y2="233.41"/>
        <line class="cls-3" x1="250.67" y1="226.77" x2="260.83" y2="226.77"/>
        <line class="cls-3" x1="250.67" y1="230.18" x2="260.83" y2="230.18"/>
        <line class="cls-3" x1="250.67" y1="228.03" x2="260.83" y2="228.03"/>
        <line class="cls-3" x1="252.04" y1="216.15" x2="259.46" y2="216.15"/>
        <line class="cls-3" x1="252.04" y1="207.83" x2="259.46" y2="207.83"/>
        <path class="cls-3" d="M258.23,183.68H253.4a.75.75,0,0,1-.74-.74V171.65h-3.41a.73.73,0,0,1-.64-.37.69.69,0,0,1,0-.73l6.58-11.37a.74.74,0,0,1,1-.28.69.69,0,0,1,.28.28l6.59,11.37a.69.69,0,0,1,0,.73.72.72,0,0,1-.63.37H259v11.29a.74.74,0,0,1-.74.74"/>
        <polygon class="cls-3" points="257.5 170.2 261.11 170.2 255.82 161.04 250.52 170.2 254.14 170.2 254.14 182.2 257.5 182.2 257.5 170.2"/>
        <rect class="cls-3" x="220.36" y="126.29" width="1.26" height="122.39"/>
        <rect class="cls-3" x="289.83" y="126.29" width="1.26" height="122.39"/>
        <path class="cls-3" d="M492.86,114s-1.07-3.47-4.11-3.47H175c-3,0-4.1,3.47-4.1,3.47"/>
        <path class="cls-3" d="M461.33,110.57v-1.64s-.18-2.66-2.46-2.66H206.52c-2.27,0-2.46,2.66-2.46,2.66v1.64"/>
        <path class="cls-3" d="M454.4,90.72A1.28,1.28,0,0,1,453.11,92h-4.06a1.28,1.28,0,0,1-1.29-1.28v-1a1.29,1.29,0,0,1,1.29-1.29h4.06a1.29,1.29,0,0,1,1.29,1.29Z"/>
        <path class="cls-3" d="M437.35,90.72A1.28,1.28,0,0,1,436.07,92H432a1.28,1.28,0,0,1-1.29-1.28v-1A1.29,1.29,0,0,1,432,88.48h4.06a1.28,1.28,0,0,1,1.28,1.29Z"/>
        <path class="cls-3" d="M420.31,90.72A1.28,1.28,0,0,1,419,92H415a1.28,1.28,0,0,1-1.29-1.28v-1A1.29,1.29,0,0,1,415,88.48H419a1.29,1.29,0,0,1,1.31,1.24h0v1Z"/>
        <rect class="cls-3" x="398.99" y="82.73" width="6.63" height="3.5" rx="1.29"/>
        <line class="cls-3" x1="422.82" y1="113.47" x2="462.37" y2="113.47"/>
        <path class="cls-3" d="M386.43,113.47h6.82"/>
        <line class="cls-3" x1="490.59" y1="113.47" x2="465.14" y2="113.47"/>
        <path class="cls-3" d="M386.13,110.57v7.63s0,2.83-2.08,2.83h-28.8c-2.09,0-2.15-2.83-2.15-2.83v-7.63"/>
        <path class="cls-11" d="M359.8,110.57V118a1,1,0,0,1-1,.94h0a1,1,0,0,1-1-.94V110.6"/>
        <path class="cls-11" d="M364.64,110.57V118a1,1,0,0,1-1.06.94h0a.94.94,0,0,1-1-.84V118h0V110.6"/>
        <path class="cls-11" d="M369.49,110.57V118a1,1,0,0,1-1,.94h0a1,1,0,0,1-1-.93h0V110.6"/>
        <path class="cls-11" d="M374.29,110.57V118a1,1,0,0,1-1,.94h0a1,1,0,0,1-1.05-.94V110.6"/>
        <path class="cls-11" d="M379.13,110.57V120a1,1,0,0,1-1.05.94h0a1,1,0,0,1-1-.94v-9.41"/>
        <path class="cls-11" d="M384,110.57V120a1,1,0,0,1-1,.94h0a1,1,0,0,1-1-.94v-9.41"/>
        <path class="cls-3" d="M462.74,110.63v141c0,2.46-.94,4.92-3.6,4.92"/>
        <path class="cls-3" d="M353.1,110.57v141c0,2.46.88,4.92,3.54,4.92"/>
        <path class="cls-3" d="M492.86,234.53c0,2.83-2.27,18.76-18.38,18.76h-10"/>
        <path class="cls-3" d="M393.49,110.57V217.86h4.29v22.92h3.28v-3.87a28.28,28.28,0,0,0,7,.56h0a28.48,28.48,0,0,0,7-.56v3.88h3.28V217.87h4.29V110.58"/>
        <line class="cls-3" x1="403.9" y1="204.13" x2="412.18" y2="204.13"/>
        <polyline class="cls-3" points="402.93 204.13 402.93 204.1 402.93 232.01 408.05 232.01 408.05 232.01 413.16 232.01 413.16 204.1"/>
        <path class="cls-3" d="M413.16,204.1H415V235a37.24,37.24,0,0,1-14,0V204.13H403"/>
        <line class="cls-3" x1="414.99" y1="233.41" x2="401.04" y2="233.41"/>
        <line class="cls-3" x1="413.1" y1="226.77" x2="402.93" y2="226.77"/>
        <line class="cls-3" x1="413.1" y1="230.18" x2="402.93" y2="230.18"/>
        <line class="cls-3" x1="413.1" y1="228.03" x2="402.93" y2="228.03"/>
        <line class="cls-3" x1="411.72" y1="216.15" x2="404.31" y2="216.15"/>
        <line class="cls-3" x1="411.72" y1="207.83" x2="404.31" y2="207.83"/>
        <path class="cls-3" d="M405.53,183.68a.75.75,0,0,1-.74-.74V171.65h-3.42a.73.73,0,0,1-.64-.37.69.69,0,0,1,0-.73l6.58-11.37a.74.74,0,0,1,1-.28.69.69,0,0,1,.28.28l6.59,11.37a.74.74,0,0,1-.28,1,.75.75,0,0,1-.36.1h-3.42V183a.75.75,0,0,1-.74.74h-4.84"/>
        <polygon class="cls-3" points="406.26 182.2 409.63 182.2 409.63 170.2 413.25 170.2 407.94 161.04 402.65 170.2 406.26 170.2 406.26 182.2"/>
        <rect class="cls-3" x="442.15" y="126.29" width="1.26" height="122.39"/>
        <rect class="cls-3" x="372.67" y="126.29" width="1.27" height="122.39"/>
        <line class="cls-3" x1="312.43" y1="253.1" x2="351.46" y2="253.1"/>
        <path d="M231.08,95.26l-.87,2.54H232l-.86-2.54h0m3.76-2a1.5,1.5,0,0,0-1.08-.45h-5.5a1.55,1.55,0,0,0-1.55,1.53v5.53a1.55,1.55,0,0,0,1.53,1.55h5.57A1.56,1.56,0,0,0,235,101a1.53,1.53,0,0,0,.44-1.08V94.34A1.5,1.5,0,0,0,234.91,93.25Zm-2.07,6.92-.51-1.41h-2.5l-.56,1.41H228L230.4,94h1.39l2.41,6.14Z"/>
        <path d="M383.61,97.43H383V99.2h.58c.57,0,1.27-.14,1.27-.84a1.06,1.06,0,0,0-1.16-1l-.11,0m1.09-1.67c0-.72-.63-.77-1.2-.77H383v1.51h.5a.93.93,0,0,0,1.14-.68h0Zm2.92-2.51a1.55,1.55,0,0,0-1.09-.45H381a1.53,1.53,0,0,0-1.08.45,1.51,1.51,0,0,0-.45,1.08v5.53a1.54,1.54,0,0,0,.45,1.09,1.57,1.57,0,0,0,1.08.45h5.54a1.53,1.53,0,0,0,1.53-1.52h0V94.34a1.55,1.55,0,0,0-.48-1.09h0ZM384,100.16h-2.22V94h2.14c.8,0,2,.22,2,1.57A1.38,1.38,0,0,1,384.63,97h0a1.44,1.44,0,0,1,1.42,1.41c0,1.57-1.35,1.79-2.14,1.79h0Z"/>
        <path d="M191.69,79.7a3.37,3.37,0,1,1,1.79-6.23l-1.79,2.83,3.36-1.94a4.43,4.43,0,0,0-1.54-1.44,6.2,6.2,0,0,0-3.18-.78,5.61,5.61,0,0,0-4.16,1.58,3.77,3.77,0,0,0,0,5.17,6.14,6.14,0,0,0,8.28,0l.14-.16-.14-.47a3.34,3.34,0,0,1-2.76,1.43"/>
        <path d="M202.84,80.31,201.43,75a2,2,0,0,0-2.57-1.36l-3,1.11H199l.53,2a2.9,2.9,0,0,0-1.88-.72,2.24,2.24,0,0,0-.87,4.4,2.54,2.54,0,0,0,.87,0,3.16,3.16,0,0,0,2.49-1.31l.3,1.15h2.46m-4.31-.82a1.23,1.23,0,1,1,1.22-1.23,1.22,1.22,0,0,1-1.22,1.23Z"/>
        <path d="M208.56,73.57a1.26,1.26,0,0,0-.51.11l-2,.94a1.24,1.24,0,0,0-1.4-1,1.15,1.15,0,0,0-.33.1L202,74.79h1.67v5.52h2.46V75.4a.61.61,0,0,1,1.22,0v4.91h2.46V74.79a1.23,1.23,0,0,0-1.23-1.22h0"/>
        <path d="M224,73.57a1.31,1.31,0,0,0-.52.11l-1.95.94a1.23,1.23,0,0,0-1.4-1,1.39,1.39,0,0,0-.33.1l-2.38,1.11h1.67v5.52h2.45V75.4a.61.61,0,0,1,.62-.61.61.61,0,0,1,.61.61v4.91h2.45V74.79A1.22,1.22,0,0,0,224,73.57h0"/>
        <path d="M217.8,77a3.47,3.47,0,1,1-3.47-3.47A3.47,3.47,0,0,1,217.8,77h0m-3.33-2.38a.76.76,0,1,0-1.47.4l1.21,4.41a.77.77,0,0,0,1,.47.79.79,0,0,0,.51-.87Z"/>
        <path d="M237.74,83.13a1.43,1.43,0,0,0-.73-.2,1.39,1.39,0,0,0,0,2.77,1.7,1.7,0,0,0,.77-.17V86a2.19,2.19,0,0,1-.8.12,1.75,1.75,0,0,1-1.89-1.59,1.4,1.4,0,0,1,0-.29,1.79,1.79,0,0,1,1.71-1.82H237a2.13,2.13,0,0,1,.79.15v.54"/>
        <path d="M239.81,82.58h.53l1.5,3.55h-.55l-.36-.89H239.2l-.37.89h-.53l1.52-3.55m.25.48-.7,1.75h1.41Z"/>
        <polyline points="242.47 82.58 242.98 82.58 242.98 85.68 244.46 85.68 244.46 86.12 242.47 86.12 242.47 82.58"/>
        <path d="M260.88,94.2h-1.5v.94a2.59,2.59,0,0,1,.47,0A1.11,1.11,0,0,1,261,96.16h0a1.22,1.22,0,0,1-1.24,1.21h-.12a2.45,2.45,0,0,1-.76-.11v-.47a1.47,1.47,0,0,0,.74.17.75.75,0,0,0,.83-.66h0a.77.77,0,0,0-.75-.77h-.1a1.64,1.64,0,0,0-.69.14V93.78h1.95v.42"/>
        <path d="M262.84,93.73c.94,0,1.19,1,1.19,1.83s-.21,1.84-1.19,1.84-1.21-1.06-1.21-1.84.22-1.83,1.21-1.83m0,3.24c.61,0,.66-.94.66-1.41s-.08-1.41-.66-1.41-.68.94-.68,1.41S262.21,97,262.84,97Z"/>
        <path d="M265,94.73a.81.81,0,0,1,.56-.94h.21a.82.82,0,0,1,.79.84,1.1,1.1,0,0,1,0,.18.8.8,0,0,1-1.54.45.86.86,0,0,1,0-.45m1.08,0c0-.23,0-.66-.31-.66s-.32.44-.32.66,0,.66.32.66.31-.44.31-.66Zm1.82-1.14h.36L266,97.43h-.37Zm-.47,2.7a.79.79,0,1,1,.56,1,.8.8,0,0,1-.56-.55A1,1,0,0,1,267.38,96.37Zm1.08,0c0-.22,0-.66-.31-.66s-.31.45-.31.66,0,.66.31.66S268.46,96.58,268.46,96.37Z"/>
        <path d="M275.58,96.4a1,1,0,0,1,.76-.94h0a1,1,0,0,1-.68-.89,1,1,0,0,1,1.13-.84h0a.88.88,0,1,1,.45,1.71h0a1,1,0,0,1,.76.94,1.07,1.07,0,0,1-1.08,1h-.13a1.09,1.09,0,0,1-1.21-.94m1.13-.75a.87.87,0,0,0-.58.72.65.65,0,0,0,.68.6h0a.6.6,0,0,0,.65-.53h0a.88.88,0,0,0-.77-.82v.06Zm.2-.37a.79.79,0,0,0,.47-.69.52.52,0,0,0-.58-.45h0a.56.56,0,0,0-.6.5,1,1,0,0,0,.73.59v.06Z"/>
        <path d="M279.8,93.73c.95,0,1.21,1,1.21,1.83s-.23,1.84-1.21,1.84-1.2-1.06-1.2-1.84.22-1.83,1.2-1.83m0,3.24c.62,0,.67-.94.67-1.41s-.08-1.41-.67-1.41-.66.94-.66,1.41S279.2,97,279.8,97Z"/>
        <path d="M282,94.73a.78.78,0,0,1,1-.55.8.8,0,0,1,.56,1,.79.79,0,0,1-1,.55.76.76,0,0,1-.56-.55.75.75,0,0,1,0-.42m1.07,0c0-.22,0-.65-.31-.65s-.31.44-.31.65,0,.66.31.66.27-.44.27-.66Zm1.75-1.06h.37L283,97.43h-.36Zm-.46,2.7a.83.83,0,1,1,.54,1,.82.82,0,0,1-.54-.53.89.89,0,0,1,0-.51Zm1.08,0c0-.22,0-.66-.32-.66s-.32.45-.32.66,0,.66.32.66.35-.45.35-.66h0Z"/>
        <polyline points="292.49 94.37 291.95 94.84 291.68 94.5 292.56 93.78 293 93.78 293 97.33 292.49 97.33 292.49 94.37"/>
        <path d="M295,93.73c.94,0,1.19,1,1.19,1.82s-.22,1.84-1.19,1.84-1.21-1.06-1.21-1.84.22-1.82,1.21-1.82M295,97c.6,0,.66-.94.66-1.42s-.08-1.41-.66-1.41-.66.94-.66,1.41S294.34,97,295,97Z"/>
        <path d="M298,93.73c.94,0,1.2,1,1.2,1.82s-.26,1.84-1.2,1.84-1.2-1.06-1.2-1.84.26-1.82,1.2-1.82M298,97c.62,0,.67-.94.67-1.42s-.08-1.41-.67-1.41-.67.94-.67,1.41S297.37,97,298,97Z"/>
        <path d="M300.12,94.73a.81.81,0,0,1,.58-1h.19a.8.8,0,0,1,.78.83,1.1,1.1,0,0,1,0,.18.79.79,0,0,1-1.53.42,1,1,0,0,1,0-.42m1.09,0c0-.22,0-.66-.32-.66s-.32.45-.32.66,0,.66.32.66.32-.44.32-.66ZM303,93.7h.38l-2.19,3.76h-.42Zm-.46,2.7a.77.77,0,0,1,.94-.55.77.77,0,1,1-.94.94.86.86,0,0,1,0-.39Zm1.08,0c0-.23,0-.66-.32-.66s-.32.45-.32.66,0,.66.32.66.29-.45.29-.66h0Z"/>
        <path d="M261.12,85.82l.65-.57a2.66,2.66,0,0,0,1-1.52.62.62,0,0,0-.67-.56h0a1.79,1.79,0,0,0-.81.22V83a2.22,2.22,0,0,1,.94-.21,1,1,0,0,1,1.14.88.66.66,0,0,1,0,.14,2.83,2.83,0,0,1-1,1.61c-.2.2-.46.41-.62.56h1.69v.42H261.2v-.55"/>
        <path d="M264.25,82.57h.47v1.59h0a1,1,0,0,1,1.78.67v1.55H266V85c0-.61-.13-.94-.54-.94a.86.86,0,0,0-.81.92.59.59,0,0,0,0,.14v1.2h-.47V82.57"/>
        <path d="M279.56,85.56h-1.65v-.42l1.43-2.32h.75v2.32h.44v.42h-.44v.81h-.51v-.81m0-2.33h0l-1.11,1.89h1.12V83.23h0Z"/>
        <path d="M281.23,82.57h.48v1.59h0a1,1,0,1,1,1.79.67v1.55H283V85c0-.61-.13-.94-.54-.94a.86.86,0,0,0-.8.93.59.59,0,0,0,0,.13v1.2h-.48V82.57"/>
        <polyline points="295.03 83.41 294.49 83.87 294.22 83.53 295.08 82.82 295.54 82.82 295.54 86.37 295.03 86.37 295.03 83.41"/>
        <path d="M297.5,82.76c.94,0,1.18,1.06,1.18,1.84s-.21,1.88-1.18,1.88-1.22-1-1.22-1.88.23-1.84,1.22-1.84m0,3.25c.59,0,.66-.94.66-1.42s-.1-1.46-.66-1.46-.68.94-.68,1.42S296.88,86,297.5,86Z"/>
        <path d="M299.3,82.57h.47v1.59h0a1,1,0,0,1,1.78.67v1.55h-.49V85c0-.61-.13-.94-.53-.94a.88.88,0,0,0-.82.93.59.59,0,0,0,0,.13v1.2h-.47V82.57"/>
        <path d="M390.37,83.13a1.43,1.43,0,0,0-.73-.2,1.39,1.39,0,0,0,0,2.77,1.8,1.8,0,0,0,.76-.17V86a2.21,2.21,0,0,1-.81.12,1.75,1.75,0,0,1-1.88-1.61,1.22,1.22,0,0,1,0-.27,1.78,1.78,0,0,1,1.72-1.82h.16a2.13,2.13,0,0,1,.79.15v.49"/>
        <path d="M392.45,82.58H393l1.5,3.55H394l-.36-.89h-1.73l-.37.89H391l1.5-3.55m.26.48L392,84.81h1.41Z"/>
        <polyline points="395.12 82.58 395.63 82.58 395.63 85.68 397.1 85.68 397.1 86.12 395.12 86.12 395.12 82.58"/>
        <path d="M324,69a1,1,0,0,0-.59-.18,1.35,1.35,0,0,0,0,2.65,1.23,1.23,0,0,0,.62-.17v.47a1.43,1.43,0,0,1-.64.12,1.78,1.78,0,0,1,0-3.51,1.42,1.42,0,0,1,.63.15V69"/>
        <path d="M325.6,68.45H326l1.18,3.39h-.43l-.29-.86h-1.37l-.29.86h-.43l1.21-3.39m.2.45-.54,1.69h1.12Z"/>
        <polyline points="327.57 68.45 327.98 68.45 327.98 71.41 329.16 71.41 329.16 71.84 327.57 71.84 327.57 68.45"/>
        <rect x="329.6" y="68.45" width="0.4" height="3.39"/>
        <path d="M330.51,68.45h.76a.84.84,0,0,1,1,.66,1.27,1.27,0,0,1,0,.2.75.75,0,0,1-.59.8h0a.76.76,0,0,1,.66.82.89.89,0,0,1-.8,1,.71.71,0,0,1-.29,0h-.75V68.45m.41,1.45h.22c.39,0,.72,0,.72-.55a.48.48,0,0,0-.43-.51h-.51Zm0,1.54h.31a.56.56,0,0,0,.68-.39.45.45,0,0,0,0-.16.58.58,0,0,0-.56-.62h-.44v1.14h0Z"/>
        <path d="M332.79,68.45h.7a.87.87,0,0,1,1.07.61.93.93,0,0,1,0,.33.74.74,0,0,1-.58.77h0a.63.63,0,0,1,.28.34l.5,1.34h-.46l-.43-1.18a.42.42,0,0,0-.48-.33h-.25v1.51h-.38V68.45m.41,1.5h.35a.52.52,0,0,0,.61-.43v-.09a.48.48,0,0,0-.44-.52h-.55v1h0Z"/>
        <path d="M336.23,68.45h.43l1.18,3.39h-.43l-.29-.86h-1.39l-.28.86H335l1.2-3.39m.2.45-.56,1.69H337Z"/>
        <polyline points="338.49 68.87 337.62 68.87 337.62 68.45 339.77 68.45 339.77 68.87 338.9 68.87 338.9 71.84 338.49 71.84 338.49 68.87"/>
        <polyline points="340.18 68.45 341.76 68.45 341.76 68.87 340.57 68.87 340.57 69.87 341.65 69.87 341.65 70.29 340.57 70.29 340.57 71.41 341.76 71.41 341.76 71.84 340.18 71.84 340.18 68.45"/>
        <polyline points="343.07 68.39 343.42 68.39 342.44 71.9 342.1 71.9 343.07 68.39"/>
        <path d="M318.36,73.12h.74a1,1,0,0,1,1,1,1,1,0,0,1-1,1.05h-.39v1.39h-.41V73.15m.41,1.61h.39a.54.54,0,0,0,.57-.52v-.07a.59.59,0,0,0-.61-.58h-.35v1.18h0Z"/>
        <polyline points="320.57 73.12 322.15 73.12 322.15 73.54 320.99 73.54 320.99 74.53 322.05 74.53 322.05 74.96 320.99 74.96 320.99 76.08 322.15 76.08 322.15 76.5 320.57 76.5 320.57 73.12"/>
        <path d="M322.64,73.12h.74a.87.87,0,0,1,1.07.62,1.13,1.13,0,0,1,0,.32.75.75,0,0,1-.57.77h0a.55.55,0,0,1,.27.34l.49,1.37h-.46l-.44-1.17a.39.39,0,0,0-.46-.33H323v1.5h-.41V73.15m.41,1.51h.34a.52.52,0,0,0,.6-.44.28.28,0,0,0,0-.09.48.48,0,0,0-.46-.51H323Z"/>
        <polyline points="324.97 73.12 326.45 73.12 326.45 73.54 325.36 73.54 325.36 74.53 326.41 74.53 326.41 74.96 325.36 74.96 325.36 76.5 324.97 76.5 324.97 73.12"/>
        <path d="M328.22,73.05a1.51,1.51,0,0,1,1.37,1.61v.12c0,1-.5,1.76-1.36,1.76s-1.35-.72-1.35-1.76a1.5,1.5,0,0,1,1.2-1.71h.13m0,3.09a1.12,1.12,0,0,0,.94-1.27v-.08a1,1,0,1,0-.93,1.33Z"/>
        <path d="M330,73.12h.68a.86.86,0,0,1,1.07.62.69.69,0,0,1,0,.32.74.74,0,0,1-.57.77h0a.55.55,0,0,1,.27.34l.57,1.37h-.46l-.43-1.17a.39.39,0,0,0-.46-.33h-.25v1.5H330V73.15m.4,1.51h.35a.54.54,0,0,0,.6-.45v-.08a.48.48,0,0,0-.46-.51h-.49v1Z"/>
        <polyline points="332.37 73.12 333.03 73.12 333.92 75.93 334.79 73.12 335.45 73.12 335.45 76.5 335.05 76.5 335.05 73.57 335.04 73.57 334.11 76.5 333.71 76.5 332.76 73.57 332.74 73.57 332.74 76.5 332.37 76.5 332.37 73.12"/>
        <path d="M337,73.12h.43l1.18,3.38h-.45l-.28-.94h-1.38l-.28.86h-.43L337,73m.19.45-.56,1.69h1.13Z"/>
        <polyline points="338.94 73.12 339.48 73.12 340.73 75.85 340.73 75.85 340.73 73.12 341.14 73.12 341.14 76.5 340.61 76.5 339.35 73.72 339.34 73.72 339.34 76.5 338.94 76.5 338.94 73.12"/>
        <path d="M343.71,73.72a.89.89,0,0,0-.57-.19,1.35,1.35,0,0,0,0,2.65,1.15,1.15,0,0,0,.6-.16v.47a1.52,1.52,0,0,1-.6.05,1.78,1.78,0,0,1-1.47-2A1.81,1.81,0,0,1,343.14,73a1.36,1.36,0,0,1,.63.15v.47"/>
        <polyline points="344.22 73.12 345.8 73.12 345.8 73.54 344.62 73.54 344.62 74.53 345.7 74.53 345.7 74.96 344.62 74.96 344.62 76.08 345.8 76.08 345.8 76.5 344.22 76.5 344.22 73.12"/>
        <path d="M420.74,72.89h.95a1,1,0,0,1,1.17.8.69.69,0,0,1,0,.25.94.94,0,0,1-.71.94h0a.94.94,0,0,1,.8,1A1.08,1.08,0,0,1,422,77a1,1,0,0,1-.3,0h-.94V72.89m.52,1.77h.27c.47,0,.86,0,.86-.67a.56.56,0,0,0-.51-.61h-.62Zm0,1.88h.36a.68.68,0,0,0,.82-.5.88.88,0,0,0,0-.17.72.72,0,0,0-.69-.74h-.51Z"/>
        <path d="M424.6,72.89h.51L426.55,77H426l-.34-1H424l-.34,1h-.54l1.45-4.13m.24.56-.68,2h1.36Z"/>
        <polyline points="427.23 73.41 426.17 73.41 426.17 72.89 428.77 72.89 428.77 73.41 427.71 73.41 427.71 77.02 427.23 77.02 427.23 73.41"/>
        <polyline points="430.31 73.41 429.26 73.41 429.26 72.89 431.86 72.89 431.86 73.41 430.81 73.41 430.81 77.02 430.31 77.02 430.31 73.41"/>
        <polyline points="432.31 72.89 434.22 72.89 434.22 73.41 432.8 73.41 432.8 74.62 434.1 74.62 434.1 75.14 432.8 75.14 432.8 76.5 434.22 76.5 434.22 77.02 432.31 77.02 432.31 72.89"/>
        <path d="M434.66,72.89h.84a1.06,1.06,0,0,1,1.29.75,1.16,1.16,0,0,1,0,.37,1,1,0,0,1-.7.94h0a.63.63,0,0,1,.33.42l.64,1.64h-.55L436,75.6a.49.49,0,0,0-.56-.4h-.31V77h-.49V72.89m.5,1.77h.41a.63.63,0,0,0,.73-.53.49.49,0,0,0,0-.12.59.59,0,0,0-.56-.62h-.59Z"/>
        <polyline points="438.21 75.3 436.88 72.89 437.45 72.89 438.48 74.75 439.45 72.89 440.03 72.89 438.7 75.3 438.7 77.02 438.21 77.02 438.21 75.3"/>
        <path d="M444.1,73.57a1.14,1.14,0,0,0-.69-.23,1.62,1.62,0,0,0-.17,3.24,1.65,1.65,0,0,0,.87-.21V77a1.68,1.68,0,0,1-.77.15c-1.07,0-1.8-.84-1.8-2.16a1.89,1.89,0,0,1,1.56-2.16h.28a1.45,1.45,0,0,1,.76.18v.57"/>
        <polyline points="444.66 72.89 445.15 72.89 445.15 74.62 446.77 74.62 446.77 72.89 447.25 72.89 447.25 77.02 446.77 77.02 446.77 75.14 445.15 75.14 445.15 77.02 444.66 77.02 444.66 72.89"/>
        <path d="M449.17,72.89h.5L451.11,77h-.53l-.35-1h-1.69l-.34,1h-.51l1.45-4.13m.23.56-.68,2h1.36Z"/>
        <path d="M451.57,72.89h.82a1.06,1.06,0,0,1,1.3.76,1.1,1.1,0,0,1,0,.36A.94.94,0,0,1,453,75h0a.68.68,0,0,1,.34.42L454,77h-.55l-.53-1.41a.46.46,0,0,0-.52-.41h-.34V77h-.49V72.88m.49,1.78h.43a.65.65,0,0,0,.73-.54V74a.59.59,0,0,0-.56-.62h-.59v1.27h0Z"/>
        <path d="M456.9,73.62a1.43,1.43,0,0,0-.94-.28,1.66,1.66,0,0,0-1.24,2A1.64,1.64,0,0,0,456,76.57a1.7,1.7,0,0,0,.55-.07V75.25h-.72v-.49H457v2.16a2.62,2.62,0,0,1-1,.18c-1.07,0-1.78-.84-1.78-2.16a1.89,1.89,0,0,1,1.63-2.11H456a2.3,2.3,0,0,1,1,.21v.6"/>
        <polyline points="457.61 72.89 459.51 72.89 459.51 73.41 458.1 73.41 458.1 74.62 459.39 74.62 459.39 75.14 458.1 75.14 458.1 76.5 459.51 76.5 459.51 77.02 457.61 77.02 457.61 72.89"/>
        <path d="M460.06,72.89h.84a1.05,1.05,0,0,1,1.28.76,1.1,1.1,0,0,1,0,.36.94.94,0,0,1-.7.94h0a.63.63,0,0,1,.33.42l.65,1.64h-.56l-.51-1.41a.49.49,0,0,0-.56-.4h-.31V77h-.48V72.89m.47,1.77H461a.63.63,0,0,0,.72-.54.41.41,0,0,0,0-.11.59.59,0,0,0-.56-.62h-.59Z"/>
        <polyline points="465.14 72.89 465.63 72.89 465.63 76.5 467.05 76.5 467.05 77.02 465.14 77.02 465.14 72.89"/>
        <path d="M469.92,73.57a1.26,1.26,0,0,0-.67-.23,1.66,1.66,0,0,0,0,3.2,1.37,1.37,0,0,0,.74-.2v.58a1.68,1.68,0,0,1-.77.15c-1.07,0-1.79-.84-1.79-2.16a1.88,1.88,0,0,1,1.63-2.1h.19A1.54,1.54,0,0,1,470,73v.58"/>
        <rect x="470.59" y="74.8" width="1.25" height="0.45"/>
        <polyline points="472.48 72.89 474.38 72.89 474.38 73.41 472.96 73.41 472.96 74.62 474.25 74.62 474.25 75.14 472.96 75.14 472.96 76.5 474.38 76.5 474.38 77.02 472.48 77.02 472.48 72.89"/>
        <polyline points="475.64 73.57 475.11 74.12 474.86 73.72 475.69 72.89 476.12 72.89 476.12 77.02 475.64 77.02 475.64 73.57"/>
        <path d="M477,76.44a1.09,1.09,0,0,0,.61.18c.64,0,.94-.72.94-1.51h0a.93.93,0,0,1-.75.38,1.11,1.11,0,0,1-1-1.22v-.08a1.19,1.19,0,0,1,.91-1.41h.17c.94,0,1.15,1,1.15,2,0,1.12-.3,2.3-1.39,2.3a1.84,1.84,0,0,1-.69-.13l.06-.53m.87-1.43a.7.7,0,0,0,.63-.77v-.06a.77.77,0,0,0-.59-.86.74.74,0,0,0-.61.86h0a.72.72,0,0,0,.54.87h0Z"/>
        <path d="M365.28,124a2.74,2.74,0,1,0,2.73,2.74,2.74,2.74,0,0,0-2.73-2.74h0M367,127.1h-1.38v1.36h-.74V127.1h-1.37v-.68h1.37v-1.37h.74v1.37H367Z"/>
        <path d="M380.93,124a2.74,2.74,0,1,0,2.74,2.74,2.74,2.74,0,0,0-2.74-2.74h0m1.75,3.1h-3.46v-.69h3.45v.69Z"/>
        <path d="M212.9,124a2.74,2.74,0,1,0,2.74,2.74A2.74,2.74,0,0,0,212.9,124h0m1.74,3.09h-1.37v1.36h-.74V127.1h-1.37v-.68h1.37v-1.37h.74v1.37h1.37Z"/>
        <path d="M228.56,124a2.74,2.74,0,1,0,2.74,2.74,2.74,2.74,0,0,0-2.74-2.74h0m1.74,3.1h-3.45v-.69h3.45Z"/>
        <path d="M413.43,94.22h-1.49v.94a1.88,1.88,0,0,1,.47,0,1.12,1.12,0,0,1,1.15,1.08h0a1.22,1.22,0,0,1-1.23,1.22h-.13a2.42,2.42,0,0,1-.76-.12v-.47a1.36,1.36,0,0,0,.74.18.73.73,0,0,0,.85-.61.75.75,0,0,0-.61-.86,1,1,0,0,0-.24,0,1.64,1.64,0,0,0-.69.14V93.78h2v.43h0Z"/>
        <path d="M415.4,93.74c.94,0,1.21,1.06,1.21,1.88s-.22,1.88-1.21,1.88-1.22-1.06-1.22-1.88S414.42,93.74,415.4,93.74Zm0,3.26c.61,0,.67-.94.67-1.42s-.09-1.42-.67-1.42-.67.94-.67,1.42S414.79,97,415.4,97Z"/>
        <path d="M417.49,94.76a.8.8,0,0,1,1-.54.79.79,0,0,1,.54,1,.79.79,0,0,1-1.53,0A.69.69,0,0,1,417.49,94.76Zm1.08,0c0-.22,0-.67-.32-.67s-.32.46-.32.67,0,.67.32.67.32-.46.32-.67Zm1.83-1.07h.36l-2.21,3.76h-.37Zm-.47,2.72a.81.81,0,1,1,.54,1,.82.82,0,0,1-.54-.53,1,1,0,0,1,0-.48Zm1.09,0c0-.23,0-.67-.32-.67s-.32.45-.32.67,0,.67.32.67.33-.46.33-.68h0Z"/>
        <path d="M428.24,96.43a1,1,0,0,1,.75-.94h0a1,1,0,0,1-.67-.89,1,1,0,0,1,1.11-.86h0a.94.94,0,0,1,.88,1,.93.93,0,0,1-.42.72,1,1,0,0,1,.75.94,1,1,0,0,1-1.09,1h-.14a1.08,1.08,0,0,1-1.21-.94v-.06Zm1.13-.76a.88.88,0,0,0-.59.73.66.66,0,0,0,.7.61h0a.6.6,0,0,0,.65-.53h0A.89.89,0,0,0,429.37,95.67Zm.2-.36a.79.79,0,0,0,.47-.71.52.52,0,0,0-.59-.45h0a.59.59,0,0,0-.6.51A1,1,0,0,0,429.57,95.31Z"/>
        <path d="M432.48,93.74c.94,0,1.21,1.06,1.21,1.88s-.22,1.88-1.21,1.88-1.21-1.06-1.21-1.88S431.49,93.74,432.48,93.74Zm0,3.26c.61,0,.67-.94.67-1.42s-.09-1.42-.67-1.42-.67.94-.67,1.42S431.87,97,432.48,97Z"/>
        <path d="M434.62,94.76a.81.81,0,1,1,0,.45A.69.69,0,0,1,434.62,94.76Zm1.08,0c0-.22,0-.67-.32-.67s-.32.46-.32.67,0,.67.32.67S435.7,95,435.7,94.76Zm1.82-1.07h.37l-2.21,3.76h-.37Zm-.46,2.71a.8.8,0,1,1,.54,1,.79.79,0,0,1-.54-.54A.86.86,0,0,1,437.06,96.4Zm1.09,0c0-.23,0-.67-.32-.67s-.32.45-.32.67,0,.67.32.67.36-.45.36-.67Z"/>
        <path d="M445.24,94.42l-.54.47-.28-.34.88-.71h.42v3.57h-.51v-3h0Z"/>
        <path d="M447.72,93.74c.94,0,1.21,1.06,1.21,1.88s-.23,1.88-1.21,1.88-1.22-1.06-1.22-1.88S446.73,93.74,447.72,93.74Zm0,3.26c.61,0,.66-.94.66-1.42s-.08-1.43-.66-1.43-.67.94-.67,1.43S447.1,97,447.72,97Z"/>
        <path d="M450.76,93.74c.94,0,1.21,1.06,1.21,1.88s-.23,1.88-1.21,1.88-1.22-1.06-1.22-1.88S449.78,93.74,450.76,93.74Zm0,3.26c.61,0,.66-.94.66-1.42s-.08-1.43-.66-1.43-.67.94-.67,1.43S450.14,97,450.76,97Z"/>
        <path d="M452.92,94.76a.8.8,0,1,1,.54,1,.83.83,0,0,1-.54-.55A.86.86,0,0,1,452.92,94.76Zm1.08,0c0-.22,0-.67-.32-.67s-.32.46-.32.67,0,.67.32.67S454,95,454,94.76Zm1.83-1.07h.37L454,97.45h-.36Zm-.46,2.72a.8.8,0,1,1,.54,1,.79.79,0,0,1-.54-.55.82.82,0,0,1,0-.44Zm1.08,0c0-.23,0-.67-.32-.67s-.32.45-.32.67,0,.67.32.67.32-.46.32-.68h0Z"/>
        <path d="M447.81,85.79l.64-.57a2.64,2.64,0,0,0,1-1.53.62.62,0,0,0-.67-.56h0a1.8,1.8,0,0,0-.82.23v-.45a2.33,2.33,0,0,1,.94-.2,1,1,0,0,1,1.15.88s0,.09,0,.13a2.85,2.85,0,0,1-1,1.62c-.2.2-.45.42-.63.58h1.71v.42h-2.25v-.55h-.08Z"/>
        <path d="M451,82.51h.48v1.56h0a1,1,0,0,1,1.24-.54,1,1,0,0,1,.54,1.23V86.3h-.43V85c0-.61-.13-.94-.56-.94a.88.88,0,0,0-.81.94s0,.09,0,.13v1.21H451Z"/>
        <path d="M432.24,85.53h-1.66v-.42L432,82.77h.72v2.34h.45v.42h-.45v.81h-.5v-.81Zm0-2.33h0l-1.12,1.88h1.12V83.2Z"/>
        <path d="M433.91,82.51h.52v1.56h0a1,1,0,0,1,1.78.69V86.3h-.48V85c0-.61-.14-.94-.55-.94a.88.88,0,0,0-.81.94.59.59,0,0,0,0,.13v1.21h-.48Z"/>
        <path d="M413.15,83.36l-.55.47-.27-.34.88-.72h.45v3.57h-.51Z"/>
        <path d="M416,85.53H414.3v-.42l1.44-2.34h.72v2.34h.45v.42h-.45v.81H416v-.81h0Zm0-2.33h0l-1.11,1.88H416V83.2h0Z"/>
        <path d="M417.63,82.51h.48v1.56h0a1,1,0,0,1,1.78.69V86.3h-.52V85c0-.61-.13-.94-.56-.94A.88.88,0,0,0,418,85s0,.09,0,.13v1.21h-.44V82.51h.05Z"/>
      </g>
    </g>
    <g>
      <polyline class="cls-7" points="314.48 51.31 314.48 49.81 315.98 49.81"/>
      <line class="cls-12" x1="317.98" y1="49.81" x2="461.5" y2="49.81"/>
      <polyline class="cls-7" points="462.5 49.81 464 49.81 464 51.31"/>
      <line class="cls-13" x1="464" y1="53.26" x2="464" y2="106.16"/>
      <polyline class="cls-7" points="464 107.14 464 108.64 462.5 108.64"/>
      <line class="cls-12" x1="460.5" y1="108.64" x2="316.98" y2="108.64"/>
      <polyline class="cls-7" points="315.98 108.64 314.48 108.64 314.48 107.14"/>
      <line class="cls-13" x1="314.48" y1="105.18" x2="314.48" y2="52.29"/>
    </g>
  </g>
  <g id="call">
    <polyline class="cls-14" points="116.77 91.28 116.77 155.59 99.72 155.59"/>
    <polyline class="cls-14" points="189.08 123.32 189.08 155.59 116.25 155.59"/>
    <line class="cls-14" x1="86.22" y1="41.77" x2="126.31" y2="41.77"/>
    <polyline class="cls-14" points="234.76 158.8 234.76 205.75 213.22 205.75"/>
    <line class="cls-14" x1="98.29" y1="306.38" x2="147.81" y2="306.38"/>
    <polyline class="cls-14" points="403.54 308.35 403.54 289.05 421.54 289.05"/>
    <line class="cls-14" x1="332.9" y1="99.45" x2="332.9" y2="136.23"/>
    <line class="cls-14" x1="402.19" y1="83.33" x2="402.19" y2="31.72"/>
    <line class="cls-14" x1="434.26" y1="98.52" x2="434.26" y2="136.23"/>
    <polyline class="cls-14" points="451.78 98.52 451.78 117.49 416.74 117.49 416.74 98.52"/>
    <polyline class="cls-14" points="201.19 69.6 103.17 69.6 103.17 42.04"/>
    <polyline class="cls-15" points="116.77 91.28 116.77 155.59 99.72 155.59"/>
    <polyline class="cls-15" points="189.08 123.32 189.08 155.59 116.25 155.59"/>
    <line class="cls-15" x1="86.22" y1="41.77" x2="126.31" y2="41.77"/>
    <polyline class="cls-15" points="234.76 158.8 234.76 205.75 213.22 205.75"/>
    <line class="cls-15" x1="98.29" y1="306.38" x2="147.81" y2="306.38"/>
    <polyline class="cls-15" points="403.54 308.35 403.54 289.05 421.54 289.05"/>
    <line class="cls-15" x1="332.9" y1="99.45" x2="332.9" y2="136.23"/>
    <line class="cls-15" x1="402.19" y1="83.33" x2="402.19" y2="31.72"/>
    <line class="cls-15" x1="434.26" y1="98.52" x2="434.26" y2="136.23"/>
    <polyline class="cls-15" points="451.78 98.52 451.78 117.49 416.74 117.49 416.74 98.52"/>
    <polyline class="cls-15" points="201.19 69.6 103.17 69.6 103.17 42.04"/>
    <text class="cls-16" transform="translate(63.03 46.49)">(<tspan class="cls-17" x="5.33" y="2">1</tspan><tspan x="14.23" y="0">)</tspan></text>
    <text class="cls-16" transform="translate(76.63 159.66)">(<tspan class="cls-17" x="5.33" y="2">2</tspan><tspan x="14.23" y="0">)</tspan></text>
    <text class="cls-16" transform="translate(190.57 210.28)">(<tspan class="cls-17" x="5.33" y="2">3</tspan><tspan x="14.23" y="0">)</tspan></text>
    <text class="cls-16" transform="translate(392.84 25.95)">(<tspan class="cls-17" x="5.33" y="2">6</tspan><tspan x="14.23" y="0">)</tspan></text>
    <text class="cls-16" transform="translate(424.86 151.12)">(<tspan class="cls-17" x="5.33" y="2">5</tspan><tspan x="14.23" y="0">)</tspan></text>
    <text class="cls-16" transform="translate(323.19 151.12)">(<tspan class="cls-17" x="5.33" y="2">4</tspan><tspan x="14.23" y="0">)</tspan></text>
    <text class="cls-16" transform="translate(151.4 310.65)">(<tspan class="cls-17" x="5.33" y="2">7</tspan><tspan x="14.23" y="0">)</tspan></text>
    <text class="cls-16" transform="translate(425.37 293.57)">(<tspan class="cls-17" x="5.33" y="2">8</tspan><tspan x="14.23" y="0">)</tspan></text>
  </g>
  <g id="Battery_Charger1" data-name="Battery Charger1">
    <rect class="cls-1" width="500" height="360.1"/>
  </g>
</svg>
