<svg id="レイヤー_1" data-name="レイヤー 1" xmlns="http://www.w3.org/2000/svg" width="500" height="274.51" viewBox="0 0 500 274.51">
  <defs>
    <style>
      .cls-1 {
        fill: #fff;
      }

      .cls-1, .cls-2, .cls-3, .cls-4, .cls-5 {
        stroke: #000;
      }

      .cls-1, .cls-2, .cls-3, .cls-4, .cls-5, .cls-7 {
        stroke-linecap: round;
        stroke-linejoin: round;
      }

      .cls-1, .cls-7 {
        stroke-width: 1.5px;
      }

      .cls-2, .cls-3, .cls-4, .cls-5, .cls-6, .cls-7, .cls-9 {
        fill: none;
      }

      .cls-2 {
        stroke-width: 0.8px;
      }

      .cls-3 {
        stroke-width: 0.8px;
      }

      .cls-4 {
        stroke-width: 0.8px;
      }

      .cls-5 {
        stroke-width: 0.8px;
      }

      .cls-6 {
        stroke: #fff;
        stroke-width: 3px;
      }

      .cls-7 {
        stroke: #0082ba;
      }

      .cls-8 {
        isolation: isolate;
      }
    </style>
  </defs>
  <g id="K450">
    <path class="cls-1" d="M184,160.86c-20.6-10-74-36.9-75.3-37.4-1.5-.6-6.2-.7-6.2-.7s-19.6.1-21.8.4a14.25,14.25,0,0,0-7.2,3.7c-5.6,5.5-26.7,23.8-26.7,23.8-6.2,6-3.6,16.8-3.6,16.8l5.9,3.4c.2,3.8,2.6,4.6,2.6,4.6L125,217s-.4,13.3,13.4,12.4c0,0,8.7,1.2,49.7-17.7,0,0,29.6-12,32.3-28.7l1.5-33.5s.5-3.3-5.2-6.2c0,0-1.3-.7-3.8.5,0,0-4.3.2-4.3,4.5l-21.3,10.4v.7Z"/>
    <path class="cls-2" d="M198.83,176.06c-2.5-2.5-18,6.7-18.4,10.7l-1.1,18.6c0,1.8.8,7,7.7,3.4a26.45,26.45,0,0,0,7.2-4.3,13.5,13.5,0,0,0,4.5-9l-.1-2.5-2.1-1.8"/>
    <path class="cls-2" d="M199.13,188.36l.3-10.2a5.56,5.56,0,0,0-.6-2.1"/>
    <line class="cls-2" x1="198.73" y1="196.26" x2="199.13" y2="188.16"/>
    <path class="cls-2" d="M183,186.16c4.5.4,12-3.8,13.9-7"/>
    <path class="cls-2" d="M182.93,205.36s.2-3,.2-4.6-2.2-2.11-2.2-2.11l-.9-.2"/>
    <polyline class="cls-2" points="183.22 205.85 194.93 200.06 195.32 194.96 197.82 193.46"/>
    <polyline class="cls-2" points="180.22 194.56 183.53 197.35 183.43 200.75"/>
    <line class="cls-2" x1="158.33" y1="176.06" x2="172.83" y2="169.26"/>
    <polyline class="cls-2" points="172.82 171.75 172.93 164.96 173.72 163.35 178.93 160.96 180.32 161.66 180.43 165.75"/>
    <path class="cls-2" d="M180.63,163.36c2.2-1.2,7-.4,7.8,1"/>
    <path class="cls-2" d="M180.63,165.56s5.5-3,7.9-.9"/>
    <polyline class="cls-2" points="180.22 162.25 175.82 164.16 174.93 165.25 174.82 170.85"/>
    <path class="cls-2" d="M215.93,149.76c-.2-1.1-1-2.6-3.6-4,0,0-1.6-.9-2.2.3"/>
    <path class="cls-2" d="M125.23,217.26a34.41,34.41,0,0,1-.5-4.5c-.2-11.1,6-16.3,6-16.3,7-7.8,10.8-18.5,10.8-18.5a7.24,7.24,0,0,1,3.3-3.8,27.4,27.4,0,0,1,4-1.5,3.86,3.86,0,0,1,2.8.5l7,3.5a9.15,9.15,0,0,0,3.3,0c1.5-.3,23.6-5.2,53-24.4a3.11,3.11,0,0,0,.9-2.6"/>
    <line class="cls-2" x1="154.63" y1="174.46" x2="172.93" y2="165.96"/>
    <line class="cls-2" x1="180.43" y1="162.46" x2="184.03" y2="160.86"/>
    <path class="cls-2" d="M187.33,158.46s3.7,2.2,6.2,4"/>
    <line class="cls-2" x1="193.63" y1="162.46" x2="161.83" y2="176.76"/>
    <path class="cls-2" d="M209.33,148.16s5.4,3.3,4.3,4.9"/>
    <path class="cls-2" d="M141.53,177.86s2.2-4.1,5.8-2.1A92.46,92.46,0,0,0,156,180a7.53,7.53,0,0,0,5.1.61c3-.61,34.1-8.11,58.3-26.9,0,0,2.7-2.4,2.1-5.1"/>
    <path class="cls-2" d="M157.53,182.46c-1.6,3.6-5.2,15.7-19.5,22.9,0,0-4.7,2-5.2,6.7,0,0-2.5,13.5,4,14.6"/>
    <line class="cls-2" x1="43.73" y1="164.06" x2="124.53" y2="210.36"/>
    <line class="cls-2" x1="180.03" y1="201.96" x2="181.83" y2="201.06"/>
    <path class="cls-2" d="M182.83,183.66c8.1-1.2,11-5.9,11.8-6.1s2.1-.2,2.1-.2c.6.3,1.1.6,1.6.9.6.5.9.6.9,2.5l-.2,5.89-.5,1.2-4.6,5.7-.2,3.4a2.59,2.59,0,0,1-1.3,1.9l-9.1,4.2"/>
    <line class="cls-2" x1="183.43" y1="189.36" x2="195.93" y2="183.86"/>
    <line class="cls-2" x1="183.43" y1="191.66" x2="195.93" y2="186.06"/>
    <line class="cls-2" x1="183.43" y1="193.86" x2="195.93" y2="188.36"/>
    <line class="cls-2" x1="91.43" y1="127.46" x2="167.73" y2="164.76"/>
    <line class="cls-2" x1="61.83" y1="145.66" x2="136.63" y2="187.26"/>
    <path class="cls-2" d="M178.43,161l-67-33.7a11.72,11.72,0,0,0-2.4-.9c-.9-.2-17.9-.4-17.9-.4s-5.2-.2-8.7,2.9l-20.6,16.9"/>
    <line class="cls-2" x1="84.63" y1="130.16" x2="160.83" y2="167.46"/>
    <line class="cls-2" x1="85.43" y1="124.06" x2="87.83" y2="125.26"/>
    <line class="cls-2" x1="77.73" y1="126.36" x2="80.93" y2="127.96"/>
    <line class="cls-2" x1="47.33" y1="156.96" x2="124.63" y2="201.56"/>
    <path class="cls-1" d="M396,148.36c-1.1,2.6-2.8,4.7-6.9,6.5l-3.1,1.3-1.3.6c-.3,1.9-.6,4-.8,5-.4,1.9-2.8,1.4-2.8,1.4l-7.5-4.6-.4-.3c-4,1.8-8.1,3.6-8.6,3.9a2.26,2.26,0,0,0-1.1,1.9s-.9,5-.9,6-1.5,1.5-1.5,1.5l-5.7,2.89-6,3.11a14.69,14.69,0,0,1-9.7-.2l-84.5-43.8-9.7,3.7c-6.5,2.19-10.3-.31-12.1-2.7,0,0-4.8-7-6-9.2a16.79,16.79,0,0,1-2.2-7.2l.3-33.2c.2-1.9-.2-4.3,4.1-7.3,0,0,14.4-8.3,27.1-12.9a152.47,152.47,0,0,1,25.6-7.3c3.7-.6,2.8-.6,5.8.4,0,0,8.6,4,10.4,5.5a6.85,6.85,0,0,1,3.2,3.7s1.3,4.3,5.2,5.9c0,0,5.9,2.3,7.3,5.3a14.49,14.49,0,0,1,1.8,4.9l.1.6,86.5,42.6a10.83,10.83,0,0,1,5.8,9c.2,2.6-.2,6.5-2.8,8.4l-9.6,4.6"/>
    <path class="cls-2" d="M382.33,154.26s-5,2.1-9.1,4"/>
    <path class="cls-2" d="M395.93,148.46l-10.6,5.1s-.2,1.5-.5,3.2"/>
    <line class="cls-2" x1="300.33" y1="75.96" x2="316.03" y2="83.76"/>
    <line class="cls-2" x1="292.33" y1="73.76" x2="296.73" y2="71.86"/>
    <line class="cls-2" x1="238.03" y1="95.16" x2="257.93" y2="87.16"/>
    <line class="cls-2" x1="237.23" y1="97.16" x2="259.03" y2="88.26"/>
    <path class="cls-2" d="M386.93,147.76l-46.7,20s-2.2.6-3.4-.2l-93.6-48.8"/>
    <line class="cls-2" x1="408.33" y1="138.06" x2="404.03" y2="140.06"/>
    <line class="cls-2" x1="382.33" y1="154.26" x2="381.53" y2="161.06"/>
    <polyline class="cls-2" points="386.43 153.06 387.23 144.75 404.23 137.35 403.63 144.85"/>
    <path class="cls-2" d="M341.33,176.86a8.84,8.84,0,0,1-2.7-7.4"/>
    <path class="cls-2" d="M338.73,166.06c1.3-5,4.1-13.4,8.6-17.4,6.5-5.8,24.6-21.1,24.6-21.1a12.45,12.45,0,0,1,7.8-2.2l19.2,1.1a10.87,10.87,0,0,1,1.8.1"/>
    <line class="cls-2" x1="293.03" y1="83.66" x2="368.13" y2="120.06"/>
    <path class="cls-2" d="M265.53,103.36l76.7,37.9a2.46,2.46,0,0,0,1.7-.2c1.3-.4,19.4-17,19.4-17s3.7-4.1,8.2-3.2l17.7.9"/>
    <path class="cls-2" d="M389.23,121.66,311.63,84a23.4,23.4,0,0,0-2.4-.9c-.9-.2-16.6-.9-16.6-.9s-5.2-.2-8.6,2.8l-18.1,14.7-.4,3.7"/>
    <line class="cls-2" x1="250.93" y1="104.46" x2="342.23" y2="150.06"/>
    <path class="cls-2" d="M302.83,78.76l-17.3-.8a16.83,16.83,0,0,0-12.2,5.2s-17.2,14.2-21.8,18.3a23.57,23.57,0,0,0-8.6,16.4s-.7,9.7,6,12.7"/>
    <line class="cls-2" x1="256.53" y1="134.16" x2="248.53" y2="130.26"/>
    <line class="cls-2" x1="285.03" y1="79.36" x2="289.93" y2="81.56"/>
    <line class="cls-2" x1="372.23" y1="122.06" x2="377.23" y2="124.16"/>
    <line class="cls-2" x1="286.23" y1="86.36" x2="361.33" y2="122.76"/>
    <line class="cls-2" x1="278.33" y1="82.06" x2="283.23" y2="84.16"/>
    <line class="cls-2" x1="365.53" y1="124.66" x2="370.43" y2="127.26"/>
    <polyline class="cls-2" points="387.73 152.35 388.32 145.75 389.43 145.25"/>
    <polyline class="cls-2" points="390.13 151.25 390.63 144.85 391.73 144.35"/>
    <polyline class="cls-2" points="392.52 150.16 392.93 143.75 394.02 143.35"/>
    <polyline class="cls-2" points="394.82 148.96 395.23 142.66 396.32 142.16"/>
    <polyline class="cls-2" points="397.23 147.85 397.52 141.75 398.63 141.25"/>
    <polyline class="cls-2" points="401.43 145.75 401.93 139.75 403.02 139.35"/>
    <polyline class="cls-2" points="399.32 146.85 399.63 140.85 400.73 140.35"/>
    <path class="cls-2" d="M252.93,83.36l1.4.8a22.23,22.23,0,0,0,2.2,1.4c.8.4,2.4,1.3,2.4,1.3v1.5l15.5-6.4"/>
    <ellipse class="cls-3" cx="240.31" cy="101.58" rx="2.6" ry="1.9" transform="translate(12.6 228.91) rotate(-52.13)"/>
    <line class="cls-2" x1="241.03" y1="100.96" x2="239.83" y2="102.36"/>
    <line class="cls-2" x1="239.73" y1="101.16" x2="240.93" y2="102.16"/>
    <ellipse class="cls-4" cx="239.49" cy="125.47" rx="2.6" ry="1.9" transform="translate(-6.55 237.55) rotate(-52.14)"/>
    <line class="cls-2" x1="240.23" y1="124.86" x2="239.03" y2="126.26"/>
    <line class="cls-2" x1="238.93" y1="125.06" x2="240.13" y2="126.06"/>
    <line class="cls-2" x1="283.83" y1="72.66" x2="285.23" y2="73.46"/>
    <line class="cls-2" x1="258.33" y1="84.16" x2="256.53" y2="83.16"/>
    <line class="cls-2" x1="259.33" y1="81.06" x2="252.93" y2="83.36"/>
    <path class="cls-2" d="M272.73,76l12.5-4.8,5.6,2.9a.52.52,0,0,1,.2.4v.9"/>
    <path class="cls-2" d="M271.63,72.46c5-1.9,8.6-3.2,9.3-3.5,2-.9,3.1-1.6,3.1-3.3v-4"/>
    <path class="cls-2" d="M232.83,87.16s18.5-7.1,32.4-12.4"/>
    <path class="cls-2" d="M296.13,64.56s3.7,1.7,3.4,7.5l-7.8,3.3-.8-.3"/>
    <polyline class="cls-2" points="293.63 65.75 293.73 65.45 296.13 64.56"/>
    <path class="cls-2" d="M230.63,84.06a3.63,3.63,0,0,1,1.2-2.8,180.78,180.78,0,0,1,25.4-12.4s15.6-6.3,25.5-8.2a4.81,4.81,0,0,1,2.9.4l8,4.6"/>
    <path class="cls-2" d="M235.23,89.86a11.84,11.84,0,0,0-3.3-3,3.72,3.72,0,0,1-1.3-2.8"/>
    <path class="cls-2" d="M237.23,95.76a9.77,9.77,0,0,0-2-5.9"/>
    <line class="cls-2" x1="300.33" y1="75.96" x2="294.73" y2="78.36"/>
    <ellipse class="cls-5" cx="296.37" cy="75.36" rx="2" ry="1.5" transform="translate(55.01 263.14) rotate(-52.15)"/>
    <line class="cls-2" x1="296.83" y1="74.86" x2="295.93" y2="75.96"/>
    <line class="cls-2" x1="295.83" y1="74.96" x2="296.83" y2="75.76"/>
    <line class="cls-2" x1="296.43" y1="71.86" x2="286.83" y2="66.96"/>
    <path class="cls-2" d="M237.23,96.06l-1.4,28.5c-.2,5.3,3.9,12.4,14.2,6.5"/>
    <path class="cls-2" d="M226.13,85.26a3,3,0,0,0,1.2,2.5c.9.7,4,2.9,4,2.9s1.7,1.2,1.6,4.4c0,2.8-1.2,29.6-1.2,29.6s-.7,5.7,2.2,9.9"/>
    <path class="cls-2" d="M266,91.86l3.3,1.7a.62.62,0,0,0,.7-.2s3.9-3.2,4.1-3.4"/>
    <path class="cls-2" d="M274.13,90.06a.47.47,0,0,0-.1-.6l-3.4-1.8a.91.91,0,0,0-1,.3l-3.6,3.1a.78.78,0,0,0-.1.8"/>
    <path class="cls-2" d="M294.23,65.56c.7.4,2.6,2.6,2.7,6.2"/>
    <path class="cls-2" d="M299.73,70.06l1.4-.8a7.59,7.59,0,0,0,4.4,5,26.38,26.38,0,0,1,4.4,2.3,8.65,8.65,0,0,1,3.8,5.7"/>
    <path class="cls-2" d="M299.53,72.16a11.14,11.14,0,0,0,5.6,5.1s3,1.2,3.4,2.5"/>
    <line class="cls-2" x1="284.73" y1="77.86" x2="291.03" y2="75.36"/>
    <path class="cls-2" d="M257.83,83.26a12.22,12.22,0,0,1,7.6-6.1v-2.1a4.05,4.05,0,0,1,.5-.9,33.36,33.36,0,0,1,4.4-1.7h1.1l1.2.8s.2,0,.2.8v3.6"/>
    <path class="cls-2" d="M259.23,83.76a12.62,12.62,0,0,1,7.6-5.8v-2.4a5,5,0,0,1,.5-.7,36.11,36.11,0,0,1,4.6-1.7"/>
    <path class="cls-1" d="M421.33,191.46l-3.2,1.9-.4,9.4s-11.8,7-14.7,8.39a10,10,0,0,1-7.6-.1l-13.6-7.5c-2.8-1.5-5.2-4.8-5.5-10.9s3-12.6,6.7-18.1l5.7-7.7,6.5,3.3,1.3-.2,18.3-18.5,7-3.09,16.1.3-3.6-1.9v-2l2.9-.1s11.7,6.6,13.7,7.9c2.4,1.5,7.1,2.7,6.3,13.6-.9,11.4-10,19.1-13.6,20.8l-13.5,7.7-8-3.5Z"/>
    <line class="cls-2" x1="429.93" y1="186.56" x2="422.63" y2="190.56"/>
    <line class="cls-2" x1="416.23" y1="152.06" x2="423.13" y2="156.26"/>
    <line class="cls-2" x1="423.43" y1="149.16" x2="430.43" y2="153.36"/>
    <path class="cls-2" d="M453.23,155.46l-21.3-1.2-8.3,3-26.9,27.5c-6.1,7.1-5.6,23.8,1.4,25.1"/>
    <line class="cls-2" x1="430.53" y1="186.56" x2="430.23" y2="193.86"/>
    <path class="cls-2" d="M441.83,174.36a.68.68,0,0,1-.4.6l-36.3,21.7a.19.19,0,0,1-.3,0c-.1-.1-.1-.1-.1-.2l.6-14.5a.68.68,0,0,1,.4-.6l36.3-21.7a.19.19,0,0,1,.3,0c0,.1.1.1,0,.2Z"/>
    <line class="cls-2" x1="438.13" y1="148.66" x2="440.93" y2="148.86"/>
    <path class="cls-2" d="M290.93,79.46l3,1.5a1.85,1.85,0,0,0,.7.2s4.2.3,4.4.3"/>
    <path class="cls-2" d="M299,81.36c.3,0,0-.2,0-.2l-3.1-1.5a3.59,3.59,0,0,0-1.1-.2l-3.8-.2s-.5,0-.2.2"/>
    <path class="cls-2" d="M160.63,171.66H164a.68.68,0,0,1,.7.7v.6"/>
    <path d="M185.83,205.16a3.39,3.39,0,0,0-1.7,2c-.2.8.1,1,1,.6a3.39,3.39,0,0,0,1.7-2C187,205,186.73,204.76,185.83,205.16Zm-.5,2.2c-.6.3-.7,0-.6-.5a2.56,2.56,0,0,1,1-1.3c.5-.3.7,0,.5.5A2,2,0,0,1,185.33,207.36Z"/>
    <path d="M188.33,203.86l-.7.4-.6,2.5.6-.31.3-.89.2-.11a2.69,2.69,0,0,0,1.3-1.3C189.43,203.46,188.93,203.56,188.33,203.86Zm-.2,1.2-.2.1.2-.8.2-.1c.3-.1.5-.2.4.1a1.34,1.34,0,0,1-.6.7Z"/>
    <polygon points="189.22 205.56 189.93 203.06 191.53 202.25 191.43 202.56 190.32 203.16 190.22 203.75 191.13 203.25 191.13 203.66 190.13 204.16 189.93 204.85 191.03 204.25 190.93 204.66 189.22 205.56"/>
    <path d="M183.83,208.86h-.2l-.2.2-.2.2v.19s0,.11.1.11a9,9,0,0,0,5-1.4,26.67,26.67,0,0,0,5.7-4.3l.2-.2c0-.1.1-.1,0-.2a.1.1,0,0,0-.1-.1h-.2l-3,1.6c-.1.1-.2.1-.3.2s-.1.2-.2.3v.2h.2l1.8-.9a18.62,18.62,0,0,1-4.7,3.2,8.91,8.91,0,0,1-3.9.9"/>
    <polyline points="193.32 202.85 193.82 200.96 194.32 200.66 193.72 203.16 193.03 203.56 192.43 202.25"/>
    <polyline points="192.43 202.25 191.93 204.06 191.43 204.35 192.03 201.96 192.72 201.56 193.32 202.85"/>
    <line class="cls-2" x1="259.13" y1="86.96" x2="290.13" y2="74.36"/>
    <line class="cls-2" x1="282.83" y1="74.46" x2="285.23" y2="73.46"/>
    <path class="cls-2" d="M258.33,84.16l2.7-1.1a1.37,1.37,0,0,1,.8-1l19.6-7.8a1.4,1.4,0,0,1,1.5.3l1.6,1.8"/>
    <path class="cls-2" d="M261.13,83.36l2,1.3a2.92,2.92,0,0,0,.9.2"/>
  </g>
  <g id="call">
    <line class="cls-6" x1="424.43" y1="222.36" x2="424.43" y2="179.76"/>
    <polyline class="cls-6" points="205.53 233.06 188.53 233.06 188.53 195.66"/>
    <polyline class="cls-6" points="396.02 144.96 396.02 86.75 413.02 86.75"/>
    <polyline class="cls-6" points="269.63 75.95 269.63 41.76 286.52 41.76"/>
    <polyline class="cls-7" points="269.63 75.95 269.63 41.76 286.52 41.76"/>
    <polyline class="cls-7" points="396.02 144.96 396.02 86.75 413.02 86.75"/>
    <line class="cls-7" x1="424.43" y1="222.36" x2="424.43" y2="179.76"/>
    <polyline class="cls-7" points="205.53 233.06 188.53 233.06 188.53 195.66"/>
    <g class="cls-8">
      <path d="M293.13,49.06a16,16,0,0,1-2-3.4,11.5,11.5,0,0,1-.8-4.1,11.33,11.33,0,0,1,.6-3.6,15.4,15.4,0,0,1,2.2-3.9h1c-.6,1.1-1,1.9-1.3,2.3a15.55,15.55,0,0,0-.8,2.3,15,15,0,0,0-.3,2.9,14.55,14.55,0,0,0,2.3,7.5Z"/>
      <path d="M300.63,47.66h-1.4v-9c-.3.3-.8.6-1.3,1a5.07,5.07,0,0,1-1.5.7v-1.3a10.71,10.71,0,0,0,2.1-1.3,5.8,5.8,0,0,0,1.3-1.5h.9v11.4Z"/>
      <path d="M305.53,49.06h-1a13.58,13.58,0,0,0,2-10.4,20.16,20.16,0,0,0-.7-2.3,11.87,11.87,0,0,0-1.3-2.3h1a15.4,15.4,0,0,1,2.2,3.9,10.46,10.46,0,0,1,.6,3.6,11.5,11.5,0,0,1-.8,4.1A12.7,12.7,0,0,1,305.53,49.06Z"/>
    </g>
    <g class="cls-8">
      <path d="M420.53,94a16,16,0,0,1-2-3.4,9.68,9.68,0,0,1-.8-4.1,11.33,11.33,0,0,1,.6-3.6,15.4,15.4,0,0,1,2.2-3.9h1c-.6,1.1-1,1.9-1.3,2.3a15.55,15.55,0,0,0-.8,2.3,15,15,0,0,0-.3,2.9,14.55,14.55,0,0,0,2.3,7.5Z"/>
      <path d="M430.13,91.26v1.4h-7.6a1.8,1.8,0,0,1,.2-1,6,6,0,0,1,.9-1.5,10,10,0,0,1,1.8-1.7,14.62,14.62,0,0,0,2.5-2.4,3.43,3.43,0,0,0,.7-1.7A1.82,1.82,0,0,0,428,83a2.43,2.43,0,0,0-3.2,0,2.35,2.35,0,0,0-.6,1.7l-1.4-.1a3.88,3.88,0,0,1,1.1-2.5,3.54,3.54,0,0,1,2.6-.8,3.57,3.57,0,0,1,2.6.9,3.26,3.26,0,0,1,1,2.3,3.53,3.53,0,0,1-.3,1.4,8,8,0,0,1-.9,1.4,15.83,15.83,0,0,1-2.2,2c-.8.7-1.4,1.2-1.6,1.4s-.4.5-.6.8h5.6Z"/>
      <path d="M433,94h-1a13.58,13.58,0,0,0,2-10.4,20.16,20.16,0,0,0-.7-2.3A11.87,11.87,0,0,0,432,79h1a15.4,15.4,0,0,1,2.2,3.9,10.46,10.46,0,0,1,.6,3.6,11.5,11.5,0,0,1-.8,4.1A13.86,13.86,0,0,1,433,94Z"/>
    </g>
    <g class="cls-8">
      <path d="M418.63,239.66a16,16,0,0,1-2-3.4,9.68,9.68,0,0,1-.8-4.1,11.33,11.33,0,0,1,.6-3.6,15.23,15.23,0,0,1,2.2-3.9h1c-.6,1.1-1,1.9-1.3,2.3a15.55,15.55,0,0,0-.8,2.3,15,15,0,0,0-.3,2.9,14.55,14.55,0,0,0,2.3,7.5Z"/>
      <path d="M420.93,235.26l1.4-.2a3,3,0,0,0,.8,1.7,2.39,2.39,0,0,0,1.4.5,2.39,2.39,0,0,0,2.4-2.4,2.06,2.06,0,0,0-2.2-2.2,4.4,4.4,0,0,0-1,.2l.2-1.2h.2a3,3,0,0,0,1.6-.5,1.51,1.51,0,0,0,.7-1.4,2.11,2.11,0,0,0-.5-1.3,2,2,0,0,0-1.4-.5,2.39,2.39,0,0,0-1.4.5,2.36,2.36,0,0,0-.7,1.5l-1.4-.3a4,4,0,0,1,1.2-2.2,3.57,3.57,0,0,1,2.3-.8,3.29,3.29,0,0,1,1.7.4,3.18,3.18,0,0,1,1.2,1.1,2.82,2.82,0,0,1,.4,1.5,2.5,2.5,0,0,1-.4,1.4,2.94,2.94,0,0,1-1.2,1,2.94,2.94,0,0,1,1.6,1,2.79,2.79,0,0,1,.6,1.8,3.41,3.41,0,0,1-1.1,2.5,3.86,3.86,0,0,1-2.8,1,3.66,3.66,0,0,1-2.5-.9A3,3,0,0,1,420.93,235.26Z"/>
      <path d="M431.13,239.66h-1a13.58,13.58,0,0,0,2-10.4,20.16,20.16,0,0,0-.7-2.3,11.87,11.87,0,0,0-1.3-2.3h1a15.4,15.4,0,0,1,2.2,3.9,10.46,10.46,0,0,1,.6,3.6,11.5,11.5,0,0,1-.8,4.1A16,16,0,0,1,431.13,239.66Z"/>
    </g>
    <g class="cls-8">
      <path d="M213.53,240.46a16,16,0,0,1-2-3.4,11.5,11.5,0,0,1-.8-4.1,11.33,11.33,0,0,1,.6-3.6,15.4,15.4,0,0,1,2.2-3.9h1c-.6,1.1-1,1.9-1.3,2.3a15.55,15.55,0,0,0-.8,2.3,15,15,0,0,0-.3,2.9,14.55,14.55,0,0,0,2.3,7.5Z"/>
      <path d="M220.23,239.06v-2.7h-5v-1.3l5.2-7.4h1.1v7.4H223v1.3h-1.5v2.7Zm0-4v-5.2l-3.6,5.2Z"/>
      <path d="M226,240.46h-1a13.58,13.58,0,0,0,2-10.4,20.16,20.16,0,0,0-.7-2.3,11.87,11.87,0,0,0-1.3-2.3h1a15.4,15.4,0,0,1,2.2,3.9,10.46,10.46,0,0,1,.6,3.6,11.5,11.5,0,0,1-.8,4.1A16,16,0,0,1,226,240.46Z"/>
    </g>
  </g>
  <rect class="cls-9" width="500" height="274.51"/>
</svg>
