<svg xmlns="http://www.w3.org/2000/svg" width="550" height="480" viewBox="0 0 550 480">
  <defs>
    <style>
      .cls-1, .cls-10, .cls-11, .cls-12, .cls-2, .cls-3, .cls-5, .cls-8 {
        fill: none;
      }

      .cls-1, .cls-2, .cls-3, .cls-4, .cls-5, .cls-7, .cls-8, .cls-9 {
        stroke: #000;
        stroke-linecap: round;
        stroke-linejoin: round;
      }

      .cls-1, .cls-4 {
        stroke-width: 0.9px;
      }

      .cls-2 {
        stroke-width: 0.6px;
      }

      .cls-12, .cls-3, .cls-7 {
        stroke-width: 1.5px;
      }

      .cls-4, .cls-7, .cls-9 {
        fill: #fff;
      }

      .cls-11, .cls-5 {
        stroke-width: 3px;
      }

      .cls-14, .cls-6 {
        fill: #231815;
      }

      .cls-8, .cls-9 {
        stroke-width: 0.4px;
      }

      .cls-11 {
        stroke: #fff;
      }

      .cls-12 {
        stroke: #0082ba;
        stroke-miterlimit: 10;
      }

      .cls-13 {
        fill: #0082ba;
      }

      .cls-14 {
        font-size: 16px;
        font-family: ArialMT, Arial;
        letter-spacing: -0.02em;
      }

      .cls-15 {
        letter-spacing: 0.01em;
      }
    </style>
  </defs>
  <g id="K495">
    <g>
      <path class="cls-1" d="M456.75,432.5c-11.43,15.74-37.16,16.54-57.47,1.79s-27.5-39.46-16.07-55.2"/>
      <path class="cls-2" d="M458.58,433.83c-12,16.53-39,17.37-60.34,1.89s-28.87-41.44-16.87-58"/>
      <path class="cls-3" d="M381.37,377.75c12-16.52,39-17.37,60.34-1.88s28.88,41.43,16.87,58"/>
      <path class="cls-3" d="M461.13,435.68c-12.79,17.62-41.59,18.52-64.32,2s-30.78-44.17-18-61.79"/>
      <path class="cls-1" d="M378.82,375.9c12.8-17.61,41.59-18.51,64.32-2s30.79,44.17,18,61.79"/>
      <path class="cls-2" d="M451,440.35l5.71-7.85c11.43-15.74,4.23-40.46-16.08-55.21s-46-13.94-57.46,1.8l-6.72,9.24"/>
      <path class="cls-1" d="M420.57,361.49l.38-2.8c.12-.89,2.07-.46,1.88.61l-.36,2.56C422.33,362.87,420.57,362.6,420.57,361.49Z"/>
      <path class="cls-1" d="M470.63,441.3c-.25.4-1.53.13-1.79.52s.48,1.47.21,1.84-1.54,0-1.82.37.37,1.51.07,1.86-1.53-.12-1.85.22.25,1.53-.07,1.86-1.52-.24-1.86.08.14,1.54-.22,1.84-1.49-.35-1.85-.06,0,1.55-.36,1.82-1.46-.46-1.85-.2-.1,1.54-.49,1.78-1.42-.57-1.83-.34-.21,1.54-.62,1.75-1.38-.67-1.79-.47-.32,1.51-.75,1.7-1.33-.76-1.76-.59-.42,1.49-.86,1.65-1.27-.85-1.71-.71-.52,1.46-1,1.59-1.22-.93-1.67-.81-.6,1.42-1.06,1.52-1.16-1-1.62-.91-.68,1.39-1.14,1.47-1.1-1.07-1.56-1-.76,1.35-1.23,1.4-1-1.12-1.5-1.08-.84,1.3-1.3,1.32-1-1.17-1.45-1.16-.9,1.26-1.36,1.26-.92-1.22-1.39-1.23-.95,1.21-1.42,1.19-.86-1.27-1.32-1.29-1,1.16-1.48,1.12-.8-1.31-1.26-1.36-1.06,1.12-1.52,1.06-.75-1.34-1.21-1.41-1.11,1.07-1.57,1-.68-1.38-1.14-1.47-1.16,1-1.61.92-.63-1.39-1.08-1.5-1.2,1-1.65.85-.57-1.42-1-1.55-1.24.92-1.68.79-.52-1.45-1-1.59-1.27.87-1.71.72-.46-1.47-.9-1.63-1.3.83-1.73.66-.4-1.48-.83-1.66-1.33.77-1.76.59-.35-1.5-.77-1.69-1.36.73-1.78.53-.3-1.51-.71-1.72-1.39.68-1.8.46-.24-1.52-.65-1.74-1.41.63-1.82.4-.18-1.53-.58-1.76-1.43.57-1.83.33-.13-1.53-.53-1.79-1.45.53-1.84.27-.08-1.53-.46-1.8-1.47.48-1.85.21,0-1.54-.41-1.82-1.48.42-1.85.14,0-1.54-.35-1.83-1.5.37-1.86.08.07-1.54-.28-1.85-1.52.32-1.87,0,.13-1.54-.22-1.85-1.52.26-1.86-.06.18-1.53-.15-1.85-1.54.21-1.86-.13.23-1.52-.1-1.86-1.54.16-1.85-.19.28-1.51,0-1.86-1.55.1-1.85-.25.34-1.51,0-1.87-1.54.05-1.83-.32.39-1.49.11-1.86-1.55,0-1.82-.39.45-1.47.18-1.85-1.54-.08-1.8-.46.51-1.46.25-1.85-1.54-.13-1.78-.53.56-1.43.33-1.83-1.54-.19-1.77-.6.63-1.41.41-1.82-1.53-.25-1.74-.67.68-1.38.48-1.8-1.51-.32-1.71-.74.74-1.35.56-1.78-1.5-.38-1.67-.82.79-1.31.63-1.75-1.48-.45-1.63-.89.86-1.27.71-1.72-1.46-.52-1.59-1,.92-1.24.8-1.69-1.43-.59-1.54-1,1-1.19.87-1.64-1.39-.67-1.48-1.13,1-1.13,1-1.59-1.36-.74-1.42-1.2,1.1-1.08,1.05-1.54-1.32-.81-1.36-1.28,1.16-1,1.14-1.47-1.27-.89-1.28-1.36,1.22-.94,1.22-1.4-1.21-1-1.19-1.43,1.27-.86,1.31-1.32-1.15-1-1.1-1.51,1.33-.77,1.39-1.23-1.07-1.12-1-1.57,1.37-.69,1.47-1.14-1-1.19-.88-1.64,1.42-.58,1.55-1-.9-1.25-.76-1.7,1.46-.47,1.62-.91-.81-1.32-.63-1.75,1.5-.36,1.69-.78-.7-1.38-.49-1.79,1.51-.25,1.74-.66-.6-1.42-.35-1.82,1.53-.13,1.79-.52-.49-1.47-.21-1.85,1.53,0,1.82-.36-.37-1.51-.07-1.86"/>
      <path class="cls-3" d="M470.63,441.3c.24-.4-.58-1.42-.36-1.82s1.53-.24,1.75-.66-.69-1.37-.5-1.79,1.51-.35,1.69-.78-.79-1.32-.63-1.75,1.48-.47,1.62-.91-.89-1.26-.76-1.7,1.44-.58,1.55-1-1-1.18-.88-1.64,1.39-.68,1.48-1.14-1.06-1.11-1-1.57,1.34-.77,1.39-1.23-1.13-1-1.09-1.51,1.28-.85,1.3-1.32-1.19-1-1.19-1.43,1.23-.94,1.22-1.4-1.25-.89-1.27-1.36,1.17-1,1.13-1.47-1.3-.82-1.35-1.28,1.11-1.08,1-1.54-1.35-.74-1.43-1.2,1-1.14,1-1.6-1.38-.66-1.48-1.12,1-1.19.88-1.64-1.42-.59-1.54-1,.93-1.24.79-1.69-1.44-.52-1.59-1,.87-1.28.72-1.72-1.47-.46-1.64-.9.81-1.31.64-1.75-1.49-.38-1.68-.81.75-1.35.56-1.78-1.5-.32-1.71-.74.69-1.39.48-1.8-1.51-.26-1.73-.67.63-1.41.4-1.82-1.53-.2-1.76-.6.57-1.44.32-1.84-1.53-.13-1.78-.52.52-1.46.25-1.85-1.53-.07-1.8-.46.46-1.47.18-1.85-1.54,0-1.82-.39.41-1.49.12-1.86-1.54,0-1.84-.32.35-1.51,0-1.87-1.53.1-1.84-.25.29-1.52,0-1.87-1.53.16-1.85-.18.24-1.53-.09-1.86-1.53.2-1.86-.13.18-1.53-.16-1.85-1.52.26-1.86-.06.13-1.54-.22-1.85-1.51.32-1.86,0,.07-1.54-.29-1.84-1.49.37-1.86.08,0-1.55-.34-1.83-1.49.42-1.86.14,0-1.55-.41-1.82-1.46.47-1.85.21-.08-1.55-.46-1.8-1.45.51-1.84.26-.13-1.53-.53-1.78-1.43.57-1.83.33-.18-1.53-.58-1.76-1.41.62-1.81.4-.24-1.53-.65-1.74-1.39.67-1.8.46-.3-1.52-.71-1.72-1.36.72-1.78.53-.35-1.51-.78-1.69-1.33.77-1.75.59-.41-1.49-.84-1.66-1.3.82-1.73.66-.46-1.48-.9-1.63-1.27.87-1.71.72-.51-1.45-1-1.59-1.23.92-1.68.79-.57-1.43-1-1.55-1.2,1-1.65.85-.62-1.41-1.08-1.51-1.15,1-1.61.93-.68-1.39-1.14-1.47-1.11,1.06-1.57,1-.74-1.35-1.2-1.41-1.07,1.11-1.53,1.06S410,354,409.54,354s-1,1.15-1.47,1.12-.87-1.27-1.33-1.29-1,1.2-1.42,1.19-.92-1.24-1.39-1.23S403,355,402.57,355s-1-1.19-1.45-1.16-.83,1.28-1.29,1.32-1.05-1.13-1.51-1.08-.77,1.33-1.22,1.39-1.11-1.07-1.57-1-.69,1.37-1.14,1.46-1.17-1-1.62-.9-.61,1.4-1.06,1.52-1.22-.94-1.66-.81-.53,1.44-1,1.59-1.28-.87-1.71-.71-.43,1.47-.86,1.65-1.33-.78-1.76-.59-.33,1.49-.74,1.7-1.39-.69-1.8-.47-.22,1.51-.62,1.74-1.43-.58-1.83-.33-.11,1.52-.49,1.78-1.47-.47-1.85-.2,0,1.53-.36,1.82-1.5-.36-1.85-.06.12,1.52-.22,1.84-1.53-.25-1.85.08.23,1.51-.08,1.86-1.54-.13-1.84.22l-5.15,7.08c-.3.36.36,1.49.07,1.86s-1.54,0-1.82.37.47,1.46.21,1.85-1.54.11-1.79.51.58,1.42.36,1.83-1.54.23-1.75.65.69,1.37.5,1.79-1.51.36-1.69.79.79,1.31.63,1.75-1.48.46-1.62.91.89,1.25.76,1.7-1.44.57-1.55,1,1,1.19.88,1.64-1.4.68-1.48,1.14,1.06,1.11,1,1.57-1.35.77-1.4,1.24,1.14,1,1.1,1.5-1.29.86-1.31,1.32,1.2,1,1.2,1.43-1.23.94-1.23,1.41,1.26.88,1.28,1.35-1.17,1-1.13,1.48,1.3.81,1.35,1.27-1.11,1.08-1.05,1.54,1.35.74,1.43,1.2-1,1.14-1,1.6,1.39.66,1.49,1.12-1,1.19-.88,1.64,1.42.6,1.54,1.05-.93,1.23-.79,1.68,1.44.52,1.59,1-.87,1.28-.72,1.72,1.47.45,1.64.89-.81,1.31-.64,1.75,1.49.39,1.67.82-.75,1.35-.55,1.77,1.5.32,1.7.75-.69,1.38-.47,1.8,1.51.25,1.73.67-.63,1.41-.4,1.81,1.53.2,1.76.6-.57,1.44-.33,1.84,1.54.13,1.79.53-.52,1.45-.26,1.84,1.54.08,1.81.46-.46,1.48-.18,1.86,1.53,0,1.82.39-.41,1.49-.12,1.86,1.54-.05,1.84.32-.35,1.5,0,1.86,1.54-.1,1.85.25-.29,1.52,0,1.87,1.54-.15,1.86.19-.24,1.52.09,1.86,1.53-.21,1.86.12-.18,1.53.16,1.86,1.51-.27,1.86.05-.13,1.54.22,1.85,1.51-.32,1.86,0-.08,1.54.29,1.84,1.49-.37,1.86-.08,0,1.55.34,1.83,1.48-.41,1.86-.14,0,1.55.41,1.82,1.46-.47,1.84-.2.08,1.54.47,1.8,1.45-.52,1.84-.27.13,1.54.53,1.78,1.43-.57,1.82-.33.19,1.53.59,1.76,1.41-.62,1.81-.4.24,1.53.65,1.74,1.39-.66,1.8-.46.29,1.52.71,1.72,1.36-.72,1.78-.53.35,1.51.77,1.69,1.34-.76,1.76-.59.4,1.49.83,1.66,1.31-.82,1.74-.66.46,1.48.9,1.63,1.27-.86,1.71-.72.51,1.46.95,1.59,1.24-.91,1.69-.79.57,1.44,1,1.55,1.19-1,1.64-.85.63,1.41,1.08,1.51,1.16-1,1.62-.92.68,1.38,1.14,1.46,1.11-1.06,1.57-1,.74,1.35,1.2,1.41,1.07-1.1,1.52-1.05.81,1.31,1.27,1.35,1-1.15,1.47-1.12.87,1.28,1.33,1.3,1-1.2,1.42-1.2.92,1.24,1.38,1.24.91-1.25,1.37-1.26,1,1.18,1.45,1.16.83-1.29,1.29-1.33,1,1.14,1.51,1.08.77-1.33,1.22-1.39,1.11,1.08,1.57,1,.69-1.37,1.14-1.46,1.17,1,1.62.91.61-1.41,1-1.53,1.23.94,1.67.81.53-1.44,1-1.58,1.29.86,1.72.7.43-1.47.86-1.64,1.33.77,1.76.59.32-1.5.74-1.7,1.39.68,1.8.47.22-1.52.62-1.75,1.43.58,1.82.34.12-1.53.5-1.79,1.47.48,1.84.2,0-1.53.36-1.82,1.51.37,1.86.07-.12-1.53.22-1.85,1.53.25,1.85-.08-.24-1.51.08-1.85,1.54.13,1.84-.23-.35-1.49-.07-1.85,1.55,0,1.82-.37-.46-1.46-.21-1.85,1.55-.12,1.79-.51Z"/>
      <g>
        <path class="cls-1" d="M411.32,406.57a1.61,1.61,0,0,1,.29-.09,1.66,1.66,0,0,1,1.73,1,1.16,1.16,0,0,1,0,.86m.73.08.68.94,2.4-.42.58-.58m-8.26-2.62-.77.76a1.69,1.69,0,0,0-.29,1.81,3.29,3.29,0,0,0,3.37,1.69,3.08,3.08,0,0,0,1.53-.65l.63-.63m-5.39-4.52-.58.59,3.14-.56.68.94"/>
        <path class="cls-1" d="M425.17,401a1,1,0,0,1,.91.42l3,4.11a.8.8,0,0,1,.16.56m-4.4-5.67-.93.94a2.89,2.89,0,0,0-.38,3.05,4.6,4.6,0,0,0,4.8,2.76,3.11,3.11,0,0,0,1.14-.44l1.05-1"/>
        <path class="cls-1" d="M408,409.4l-1.08,1a5.51,5.51,0,0,1-2.3.93c-3.3.58-5.89-1.08-6.74-3.18a3.23,3.23,0,0,1,.59-3.56l.71-.77"/>
        <path class="cls-1" d="M407.34,409.35a2.44,2.44,0,0,0,.51-1.09l.58-.59"/>
        <path class="cls-1" d="M401.68,404.37a2.85,2.85,0,0,1,1.31-.56,3.69,3.69,0,0,1,1.92.15l-.6,3.06.58-.6"/>
        <polyline class="cls-1" points="429.83 400.49 429.25 401.09 430.86 400.8 433.04 406.14 435.44 405.71 436.02 405.12"/>
        <path class="cls-1" d="M434,400.26a.83.83,0,0,1,.76.5l1.95,4.74,2.42-.42.59-.59"/>
        <polyline class="cls-1" points="414.75 403.14 414.17 403.74 415.78 403.45 417.95 408.79 420.37 408.36 420.95 407.77"/>
        <path class="cls-1" d="M418.9,402.91a.85.85,0,0,1,.77.49l1.94,4.75,2.42-.42.58-.6"/>
        <path class="cls-4" d="M413.19,408.31a1.68,1.68,0,0,1-1.74-1,1,1,0,0,1,.46-1.34.8.8,0,0,1,.31-.09,1.65,1.65,0,0,1,1.72,1,1,1,0,0,1-.43,1.33A.75.75,0,0,1,413.19,408.31Zm1.07-4.8a2.61,2.61,0,0,0-3.33-.82l-2.41,1.53,3.14-.55,1.31,1.79a4,4,0,0,0-2.33-.29,1.93,1.93,0,0,0-1.74,2.12,1.64,1.64,0,0,0,.09.44,3.3,3.3,0,0,0,3.38,1.7,2.62,2.62,0,0,0,2.22-1.75l.76,1.07,2.41-.43Z"/>
        <path class="cls-4" d="M429.47,406a.91.91,0,0,1-1.09-.36l-3-4.11a.62.62,0,0,1,0-.88.34.34,0,0,1,.12-.09.9.9,0,0,1,1.11.34l3,4.11a.64.64,0,0,1,0,.9Zm1.45-3.33a4.6,4.6,0,0,0-4.79-2.76,2.77,2.77,0,0,0-2.32,3.13,3.06,3.06,0,0,0,.27.84,4.58,4.58,0,0,0,4.8,2.76,2.75,2.75,0,0,0,2.31-3.12A2.63,2.63,0,0,0,430.92,402.62Z"/>
        <path class="cls-4" d="M407.4,404l-2.52,2.49.61-3.06a3.84,3.84,0,0,0-1.93-.16,2.64,2.64,0,0,0-2.26,3,2.56,2.56,0,0,0,.27.85,4.46,4.46,0,0,0,4.65,2.69,2.59,2.59,0,0,0,2.19-2.05l.35.45a4.2,4.2,0,0,1-3.57,2.63c-3.31.59-5.9-1.07-6.75-3.17s.22-4.37,3.44-4.94a6.66,6.66,0,0,1,5.51,1.32"/>
        <path class="cls-4" d="M439.65,404.49l-2.42.42-1.94-4.74a.84.84,0,0,0-.86-.49.48.48,0,0,0-.4.55.42.42,0,0,0,0,.15l1.95,4.74-2.42.43-2.18-5.35-1.6.28,1.86-1.52a1.3,1.3,0,0,1,.45-.2,1.65,1.65,0,0,1,1.61.77l1.53-1.23a1.06,1.06,0,0,1,.46-.2,1.64,1.64,0,0,1,1.7,1Z"/>
        <path class="cls-4" d="M424.57,407.13l-2.42.43-1.94-4.75a.81.81,0,0,0-.84-.48.49.49,0,0,0-.42.54.75.75,0,0,0,.05.16l1.94,4.74-2.41.42-2.18-5.35-1.61.29,1.87-1.53a1.06,1.06,0,0,1,.45-.19,1.63,1.63,0,0,1,1.61.76l1.52-1.23a1.34,1.34,0,0,1,.46-.2,1.65,1.65,0,0,1,1.71,1Z"/>
      </g>
      <line class="cls-1" x1="365.3" y1="377.32" x2="364.19" y2="378.86"/>
      <line class="cls-1" x1="364.31" y1="379.98" x2="363.32" y2="381.34"/>
      <line class="cls-1" x1="363.52" y1="382.71" x2="361.17" y2="385.94"/>
      <line class="cls-1" x1="362.93" y1="385.49" x2="360.33" y2="389.06"/>
      <line class="cls-1" x1="362.53" y1="388.29" x2="358.57" y2="393.75"/>
      <line class="cls-1" x1="362.32" y1="391.12" x2="358.36" y2="396.57"/>
      <line class="cls-1" x1="362.29" y1="393.95" x2="358.23" y2="399.54"/>
      <line class="cls-1" x1="362.43" y1="396.78" x2="358.38" y2="402.36"/>
      <line class="cls-1" x1="362.74" y1="399.6" x2="358.72" y2="405.13"/>
      <line class="cls-1" x1="363.2" y1="402.39" x2="358.94" y2="408.26"/>
      <line class="cls-1" x1="363.81" y1="405.16" x2="359.74" y2="410.75"/>
      <line class="cls-1" x1="364.55" y1="407.89" x2="360.16" y2="413.94"/>
      <line class="cls-1" x1="365.43" y1="410.57" x2="360.28" y2="417.66"/>
      <line class="cls-1" x1="366.43" y1="413.21" x2="361.28" y2="420.3"/>
      <line class="cls-1" x1="367.54" y1="415.81" x2="362.4" y2="422.89"/>
      <line class="cls-1" x1="368.77" y1="418.35" x2="363.63" y2="425.44"/>
      <line class="cls-1" x1="370.1" y1="420.84" x2="364.96" y2="427.92"/>
      <line class="cls-1" x1="371.54" y1="423.27" x2="366.39" y2="430.36"/>
      <line class="cls-1" x1="373.07" y1="425.65" x2="367.92" y2="432.73"/>
      <line class="cls-1" x1="374.69" y1="427.96" x2="369.55" y2="435.05"/>
      <line class="cls-1" x1="376.4" y1="430.21" x2="371.25" y2="437.3"/>
      <line class="cls-1" x1="378.19" y1="432.4" x2="373.04" y2="439.48"/>
      <line class="cls-1" x1="380.06" y1="434.51" x2="374.91" y2="441.6"/>
      <line class="cls-1" x1="382.01" y1="436.56" x2="376.86" y2="443.65"/>
      <line class="cls-1" x1="384.02" y1="438.54" x2="378.88" y2="445.63"/>
      <line class="cls-1" x1="386.1" y1="440.45" x2="380.96" y2="447.53"/>
      <line class="cls-1" x1="388.25" y1="442.28" x2="383.11" y2="449.36"/>
      <line class="cls-1" x1="390.46" y1="444.03" x2="385.31" y2="451.11"/>
      <line class="cls-1" x1="392.72" y1="445.71" x2="387.58" y2="452.79"/>
      <line class="cls-1" x1="460.87" y1="451.91" x2="459.89" y2="453.27"/>
      <line class="cls-1" x1="458.54" y1="453.49" x2="456.19" y2="456.72"/>
      <line class="cls-1" x1="456.1" y1="454.89" x2="453.5" y2="458.46"/>
      <line class="cls-1" x1="453.57" y1="456.11" x2="449.61" y2="461.57"/>
      <line class="cls-1" x1="450.97" y1="457.16" x2="447.01" y2="462.61"/>
      <line class="cls-1" x1="448.31" y1="458.03" x2="444.25" y2="463.61"/>
      <line class="cls-1" x1="445.6" y1="458.73" x2="441.55" y2="464.31"/>
      <line class="cls-1" x1="442.85" y1="459.28" x2="438.83" y2="464.81"/>
      <line class="cls-1" x1="440.08" y1="459.66" x2="435.82" y2="465.53"/>
      <line class="cls-1" x1="437.29" y1="459.9" x2="433.23" y2="465.49"/>
      <line class="cls-1" x1="434.5" y1="459.99" x2="430.11" y2="466.04"/>
      <line class="cls-1" x1="431.71" y1="459.95" x2="426.56" y2="467.03"/>
      <line class="cls-1" x1="428.92" y1="459.77" x2="423.77" y2="466.85"/>
      <line class="cls-1" x1="426.14" y1="459.46" x2="421" y2="466.54"/>
      <line class="cls-1" x1="423.38" y1="459.03" x2="418.23" y2="466.12"/>
      <line class="cls-1" x1="420.63" y1="458.48" x2="415.49" y2="465.57"/>
      <line class="cls-1" x1="417.91" y1="457.82" x2="412.77" y2="464.91"/>
      <line class="cls-1" x1="415.22" y1="457.05" x2="410.07" y2="464.13"/>
      <line class="cls-1" x1="412.56" y1="456.17" x2="407.41" y2="463.26"/>
      <line class="cls-1" x1="409.93" y1="455.19" x2="404.78" y2="462.28"/>
      <line class="cls-1" x1="407.33" y1="454.11" x2="402.19" y2="461.2"/>
      <line class="cls-1" x1="404.78" y1="452.93" x2="399.63" y2="460.02"/>
      <line class="cls-1" x1="402.27" y1="451.66" x2="397.12" y2="458.75"/>
      <line class="cls-1" x1="399.8" y1="450.3" x2="394.66" y2="457.39"/>
      <line class="cls-1" x1="397.39" y1="448.86" x2="392.24" y2="455.94"/>
      <line class="cls-1" x1="395.02" y1="447.33" x2="389.88" y2="454.41"/>
    </g>
    <circle class="cls-1" cx="263.21" cy="251.78" r="12.8"/>
    <circle class="cls-3" cx="263.31" cy="252.27" r="10.19"/>
    <circle class="cls-1" cx="263.31" cy="252.86" r="9.2"/>
    <path class="cls-1" d="M255.18,294.8a.63.63,0,0,1-.33.25l-3.52,1.37a1.17,1.17,0,0,1-1.44-.36l-1.29-1.52"/>
    <path class="cls-3" d="M255.18,294.8a1.17,1.17,0,0,0-.45-1.18c-.8-.9-3-3.75-3-3.75a24.24,24.24,0,0,1-14.17-19.93l-3.06-4.09a1.36,1.36,0,0,0-1.8-.61l0,0L229.21,267"/>
    <path class="cls-1" d="M235.07,266.64l.06,1.2a.91.91,0,0,1,.41,1.21.84.84,0,0,1-.43.42l-.14,1.81a1.15,1.15,0,0,1,.27,1.61l-.07.08.53,2.12a1.34,1.34,0,0,1,.76,1.71l.49,1.73a1.24,1.24,0,0,1,1,1.45,1,1,0,0,1-.1.3l.89,2a1.16,1.16,0,0,1,1.16,1.16,1.06,1.06,0,0,1-.05.31l1.26,1.65a1.09,1.09,0,0,1,1.09,1.09,1.19,1.19,0,0,1-.06.37l1.32,1.37a.89.89,0,0,1,1.08.65.82.82,0,0,1,0,.35l1.71,1.26a.78.78,0,0,1,1,.54.91.91,0,0,1,0,.23l1.5,1a1,1,0,0,1,1.37.58,1,1,0,0,1,.07.28l1.33.55a1.26,1.26,0,0,1,1.72.43h0l1.41.36a.73.73,0,0,1,.44-.19"/>
    <path class="cls-1" d="M231.45,272.37l2.53-1a1.51,1.51,0,0,1,.76,0"/>
    <path class="cls-1" d="M232.22,276.18s1.9-.72,2.54-.94a2.28,2.28,0,0,1,.69-.13"/>
    <path class="cls-3" d="M231.49,274.32s2.32-.87,3.11-1.1a1.12,1.12,0,0,0,.57-.27"/>
    <path class="cls-3" d="M231.23,270.71l3.05-1c.29-.09.64-.21.82-.29"/>
    <path class="cls-1" d="M231.7,268.5l2.32-.85a1.19,1.19,0,0,1,.85,0"/>
    <path class="cls-3" d="M234.87,266.41a.83.83,0,0,0-.86,0l-2.47.91-.23,1.59c1,.69.71,1.57-.09,1.82l-.14,1.8a1.31,1.31,0,0,1,.4,1.81h0l.41,2a1.22,1.22,0,0,1,.86,1.5,1.09,1.09,0,0,1-.11.27l.45,1.66a1.28,1.28,0,0,1,1.11,1.44,1.08,1.08,0,0,1-.14.44l1,1.83a1.15,1.15,0,0,1,1.14,1.68l1.18,1.57a1.22,1.22,0,0,1,1.14,1.33.68.68,0,0,1,0,.14l1.18,1.17a1.14,1.14,0,0,1,1.3,1,.61.61,0,0,1,0,.19l1.51,1.09a1,1,0,0,1,1.2.79,1.11,1.11,0,0,1,0,.19l1.47.81a1.38,1.38,0,0,1,1.61.66l1.22.48a1.28,1.28,0,0,1,1.53.38l1.63.31,3.59-.89"/>
    <path class="cls-1" d="M232.94,278l2.66-.81a1.46,1.46,0,0,0,.61-.33"/>
    <path class="cls-1" d="M233.49,279.66s1.8-.67,2.39-.91a2,2,0,0,1,.82-.19"/>
    <path class="cls-1" d="M234.35,281.67s2-.57,2.59-.8a2.11,2.11,0,0,0,.67-.42"/>
    <path class="cls-1" d="M235.43,283.32l2.43-.84a2,2,0,0,1,.59-.12"/>
    <path class="cls-1" d="M236.4,285.11s2.21-.76,2.91-1.07a1,1,0,0,0,.29-.19"/>
    <path class="cls-1" d="M237.77,286.6s2-.74,2.79-1a3,3,0,0,1,.43-.1"/>
    <path class="cls-1" d="M238.86,288.1s2-.7,2.61-.9a1.91,1.91,0,0,0,.58-.35"/>
    <path class="cls-3" d="M239.65,289.41l3.44-1.2a1.54,1.54,0,0,1,.43-.06"/>
    <path class="cls-1" d="M241.31,290.48s1.78-.57,2.45-.75a1.56,1.56,0,0,0,.74-.39"/>
    <path class="cls-3" d="M242.45,291.73s2.16-.79,2.89-1a4.29,4.29,0,0,1,1-.24"/>
    <path class="cls-1" d="M244,292.57l2.78-.92a.81.81,0,0,0,.4-.33"/>
    <line class="cls-3" x1="245.16" y1="293.46" x2="248.84" y2="292.18"/>
    <line class="cls-1" x1="247.11" y1="294" x2="249.85" y2="293.15"/>
    <line class="cls-3" x1="247.99" y1="294.59" x2="251.61" y2="293.59"/>
    <line class="cls-1" x1="250.12" y1="294.85" x2="253.1" y2="294.08"/>
    <path class="cls-1" d="M231.14,271.88,229,268a.76.76,0,0,1,.23-.94"/>
    <path class="cls-1" d="M397.89,279.88h0c.48,1.13-1.93,3.4-5.41,5.08s-6.7,2.11-7.19,1"/>
    <path class="cls-3" d="M385.29,286c-.49-1.13,1.93-3.41,5.41-5.08s6.68-2.12,7.19-1"/>
    <path class="cls-1" d="M396,280.22h0c.35.82-1.4,2.47-3.92,3.68s-4.85,1.52-5.2.72"/>
    <path class="cls-3" d="M386.92,284.62c-.35-.82,1.4-2.47,3.92-3.67s4.85-1.54,5.21-.73"/>
    <path class="cls-1" d="M394.5,279.78c.17.67-1.19,1.92-3.11,2.82s-3.49,1.16-4,.72"/>
    <path class="cls-1" d="M378.2,111.26a2.1,2.1,0,0,0,.48,2.89,2.18,2.18,0,0,0,3,.35"/>
    <path class="cls-3" d="M377,112.57l1.25-1.27a2.17,2.17,0,0,1,3,.35,2.1,2.1,0,0,1,.49,2.89l-1.3,1.36"/>
    <path class="cls-1" d="M377,112.57a2.11,2.11,0,0,0,.49,2.9,2.17,2.17,0,0,0,3,.36"/>
    <g>
      <path d="M279.48,45.06a3.92,3.92,0,0,0-1.39-.68,4.1,4.1,0,0,0-1.55-.15,2.76,2.76,0,0,0-1.27.44l-2.67,1.86a.18.18,0,0,0-.11.17.3.3,0,0,0,.1.2.6.6,0,0,0,.25.13.5.5,0,0,0,.27,0l3.46-1.13,2,1.58a6,6,0,0,0-2.46-.09,3.84,3.84,0,0,0-1.92.86,1.41,1.41,0,0,0-.5,1.05,1.86,1.86,0,0,0,.46,1.2,3.3,3.3,0,0,0,1.27.93,4.06,4.06,0,0,0,1.64.35,4.72,4.72,0,0,0,2.63-.73,2.4,2.4,0,0,0,1.1-1.86l1.16.92a.76.76,0,0,0,.26.11.62.62,0,0,0,.27,0l2.05-.67,0-.48Zm.43,4.15a.81.81,0,0,1-.32.79,1.63,1.63,0,0,1-1,.27,2.36,2.36,0,0,1-1.17-.39,1.36,1.36,0,0,1-.6-.84.84.84,0,0,1,.33-.79,1.58,1.58,0,0,1,1-.28,2.28,2.28,0,0,1,1.17.4,1.3,1.3,0,0,1,.59.85Z"/>
      <path d="M281.5,44.35l-1.72.48a.53.53,0,0,1-.28,0,1.23,1.23,0,0,1-.26-.12.33.33,0,0,1-.12-.19.18.18,0,0,1,.07-.17l2.07-1.57a1.61,1.61,0,0,1,.79-.26,2.7,2.7,0,0,1,1.05.14,2.63,2.63,0,0,1,.91.47l1.53-1.48a1.39,1.39,0,0,1,.87-.33,2.57,2.57,0,0,1,1.16.18,2.44,2.44,0,0,1,1,.6l4.5,4.76a.22.22,0,0,1-.12.36l-2.23.62a.57.57,0,0,1-.29,0,.61.61,0,0,1-.28-.16l-3.79-4a1.29,1.29,0,0,0-.59-.34,1.18,1.18,0,0,0-.67,0,.52.52,0,0,0-.29.18.33.33,0,0,0,0,.26.6.6,0,0,0,.17.31l3.81,4a.21.21,0,0,1,0,.15.13.13,0,0,1,0,.12.2.2,0,0,1-.13.09l-2.22.62a.61.61,0,0,1-.3,0,.62.62,0,0,1-.29-.15l-4.3-4.58"/>
      <path d="M271.05,47.1a.16.16,0,0,0,0-.15.21.21,0,0,0,0-.15.78.78,0,0,0-.18-.11,8,8,0,0,0-2.67-.63,11.52,11.52,0,0,0-4,.48,7.18,7.18,0,0,0-3,1.8,2.67,2.67,0,0,0-.64,2.65,4.85,4.85,0,0,0,2.14,2.68,7.7,7.7,0,0,0,3.73,1.18,11,11,0,0,0,4-.48,6.94,6.94,0,0,0,3-1.78,2.78,2.78,0,0,0,.73-1.37.3.3,0,0,0-.05-.24.57.57,0,0,0-.28-.16.54.54,0,0,0-.31,0,.24.24,0,0,0-.17.17,2.61,2.61,0,0,1-1.65,1.86,5.52,5.52,0,0,1-3.18.27,6.29,6.29,0,0,1-3-1.48,3.27,3.27,0,0,1-1.16-2.39,2.47,2.47,0,0,1,1.31-2,5.07,5.07,0,0,1,3.07-.51l-.17,2.88a.27.27,0,0,0,0,.19.45.45,0,0,0,.24.14.46.46,0,0,0,.26,0,.26.26,0,0,0,.18-.12Z"/>
      <path d="M299.73,39.36l-1.79.42a.63.63,0,0,1-.27,0,.71.71,0,0,1-.26-.13.35.35,0,0,1-.13-.19.18.18,0,0,1,.07-.16l2.16-1.48a1.57,1.57,0,0,1,.83-.23,3.14,3.14,0,0,1,2,.64l1.6-1.41a1.52,1.52,0,0,1,.89-.31,3.05,3.05,0,0,1,1.19.21,2.5,2.5,0,0,1,1,.61l4.53,4.83a.21.21,0,0,1-.13.36l-2.27.5a.52.52,0,0,1-.3,0,.56.56,0,0,1-.28-.16l-3.79-4a1.46,1.46,0,0,0-.6-.35,1.26,1.26,0,0,0-.69,0,.48.48,0,0,0-.3.17.3.3,0,0,0-.08.27.54.54,0,0,0,.17.3l3.79,4a.21.21,0,0,1,0,.15.17.17,0,0,1,0,.12.29.29,0,0,1-.14.08l-2.3.55a.64.64,0,0,1-.31,0A.78.78,0,0,1,304,44l-4.29-4.57"/>
      <path d="M299.26,41.16a8.07,8.07,0,0,0-3.58-1.66,6.14,6.14,0,0,0-3.61.24,2.25,2.25,0,0,0-1.53,2A3.52,3.52,0,0,0,292,44.36,8.09,8.09,0,0,0,295.56,46a6.42,6.42,0,0,0,3.62-.24,2.3,2.3,0,0,0,1.53-2A3.56,3.56,0,0,0,299.26,41.16Zm-.08,3.3a.46.46,0,0,1-.17.67,1,1,0,0,1-.47.14,1.65,1.65,0,0,1-.58-.07,1.67,1.67,0,0,1-.52-.25l-5-3.52a.91.91,0,0,1-.43-.56.46.46,0,0,1,.25-.48,1.16,1.16,0,0,1,.76-.12,1.91,1.91,0,0,1,.82.31l4.93,3.48A1,1,0,0,1,299.18,44.46Z"/>
    </g>
    <path class="cls-3" d="M208.83,87.72c.95,2.47-3.65,6.53-10.27,9.07s-12.75,2.61-13.7.15"/>
    <path class="cls-1" d="M184.86,96.94c-.94-2.47,3.66-6.53,10.27-9.07s12.76-2.61,13.7-.15"/>
    <path class="cls-1" d="M205.8,89.47c.63,1.65-2.93,4.55-8,6.48s-9.61,2.16-10.24.52"/>
    <path class="cls-3" d="M205.8,89.47c-.63-1.65-5.22-1.42-10.24.52s-8.58,4.83-7.95,6.48l.5.92c.63,1.65,5.22,1.42,10.24-.51s8.58-4.84,8-6.49Z"/>
    <path class="cls-1" d="M231.88,250.62c1.71-.87,4.32.83,5.84,3.8s1.36,6.09-.35,7"/>
    <path class="cls-1" d="M237.37,261.38c-1.71.87-4.32-.84-5.83-3.81s-1.36-6.08.34-6.95"/>
    <path class="cls-1" d="M232.3,252.58c1.09-.55,2.86.74,4,2.89s1.1,4.35,0,4.9"/>
    <path class="cls-3" d="M232.3,252.58c-1.09.56-1.08,2.75,0,4.9s2.87,3.45,4,2.89l1.4-.77c1.09-.56,1.08-2.75,0-4.9s-2.87-3.44-3.95-2.89Z"/>
    <g>
      <path class="cls-1" d="M227.25,86.92c-2.19-.92-3.34-3-2.59-4.71s3.14-2.3,5.32-1.39,3.34,3,2.58,4.71S229.43,87.84,227.25,86.92Z"/>
      <path class="cls-1" d="M226.89,88.19h.88c2.34.57,4.66-.23,5.46-2,.92-2-.49-4.61-3.14-5.73s-5.55-.35-6.46,1.69a3.39,3.39,0,0,0-.15.41l-.22.83"/>
    </g>
    <g>
      <path class="cls-1" d="M303.55,167.1c-1.5-.8-2.22-2.33-1.61-3.43s2.32-1.35,3.82-.56,2.22,2.34,1.61,3.44S305.05,167.89,303.55,167.1Z"/>
      <path class="cls-1" d="M303.55,167.1c-1.82-1-2.7-2.83-2-4.17s2.82-1.64,4.64-.67,2.71,2.83,2,4.17S305.38,168.07,303.55,167.1Z"/>
    </g>
    <g>
      <path class="cls-1" d="M357.31,177.52c-1.5-.8-2.22-2.33-1.61-3.43s2.32-1.35,3.82-.56,2.22,2.33,1.61,3.43S358.81,178.31,357.31,177.52Z"/>
      <path class="cls-1" d="M357.31,177.52c-1.82-1-2.7-2.84-2-4.17s2.82-1.64,4.64-.68,2.7,2.84,2,4.17S359.14,178.48,357.31,177.52Z"/>
    </g>
    <g>
      <path class="cls-1" d="M384.69,143.83c-1.5-.79-2.22-2.33-1.62-3.43s2.32-1.35,3.82-.55,2.23,2.33,1.62,3.43S386.19,144.63,384.69,143.83Z"/>
      <path class="cls-1" d="M384.69,143.83c-1.83-1-2.7-2.83-2-4.17s2.82-1.64,4.64-.67,2.7,2.83,2,4.17S386.51,144.8,384.69,143.83Z"/>
    </g>
    <g>
      <path class="cls-1" d="M339.57,83.62c-1.5-.79-2.22-2.33-1.61-3.43s2.32-1.35,3.82-.55S344,82,343.39,83.07,341.07,84.41,339.57,83.62Z"/>
      <path class="cls-1" d="M339.57,83.62c-1.82-1-2.7-2.83-2-4.17s2.82-1.64,4.64-.67,2.7,2.83,2,4.17S341.4,84.59,339.57,83.62Z"/>
    </g>
    <g>
      <path class="cls-1" d="M279.92,100.17c-1.5-.79-2.22-2.33-1.61-3.43s2.32-1.34,3.82-.55,2.22,2.33,1.61,3.43S281.42,101,279.92,100.17Z"/>
      <path class="cls-1" d="M279.92,100.17c-1.82-1-2.7-2.83-2-4.17s2.82-1.63,4.64-.67,2.7,2.83,2,4.17S281.75,101.14,279.92,100.17Z"/>
    </g>
    <path class="cls-1" d="M303.51,78.22c-.67-1.2,1.18-1.85,1.74-.85l1.92,3.4c.68,1.2-1.17,1.85-1.73.86Z"/>
    <ellipse class="cls-1" cx="292.48" cy="322.12" rx="3.45" ry="0.92" transform="translate(-118.86 180.32) rotate(-28.74)"/>
    <ellipse class="cls-1" cx="324.99" cy="311.52" rx="3.45" ry="0.92" transform="translate(-109.76 194.66) rotate(-28.74)"/>
    <ellipse class="cls-1" cx="339.09" cy="291.88" rx="3.45" ry="0.92" transform="translate(-98.58 199.01) rotate(-28.74)"/>
    <ellipse class="cls-1" cx="438.9" cy="260.72" rx="3.45" ry="0.92" transform="translate(-71.3 243.17) rotate(-28.74)"/>
    <ellipse class="cls-1" cx="424.64" cy="279.8" rx="3.45" ry="0.92" transform="translate(-82.23 238.66) rotate(-28.74)"/>
    <path class="cls-1" d="M214.23,270.08c4.09,12.28,10.71,34.55,18,39.89,4.68,3.44,20.88,3.89,31,.62"/>
    <path class="cls-1" d="M419.61,177.64c-3.6,2.77-9.07,1.89-12.34-2.17s-3-9.65.51-12.5,9.06-1.88,12.34,2.18S423.16,174.81,419.61,177.64Z"/>
    <path class="cls-3" d="M419.36,179c-4,3.2-10.11,2.23-13.68-2.21s-3.21-10.62.77-13.84,10.1-2.21,13.67,2.21S423.35,175.69,419.36,179Z"/>
    <path class="cls-1" d="M401.1,189.81a6.31,6.31,0,0,1-4.5-1.65,53.91,53.91,0,0,1-4-4.54l-.08-.1-.06-.11c-.75-1.29-2.29-4,.22-6.65,1.39-1.49,3.84-5.63,6.31-10.91,1.11-2.32,1.86-7.64,5-8.44,2.34-.58,11.6-1,11.9-1,4.76-.16,7.53.94,9.07,3.18l.06.08,7.21,13.61,0,.07a6.19,6.19,0,0,1,.08,4.9,7.61,7.61,0,0,1-4.35,3.94l-.13,0-24,7.26h-.06A12.4,12.4,0,0,1,401.1,189.81Z"/>
    <path class="cls-1" d="M419.34,158.24a7.27,7.27,0,0,1,4.56,3.09L430.76,174a4.48,4.48,0,0,1-.24,4.22"/>
    <path class="cls-1" d="M415.52,158.17l.77-.17a9.32,9.32,0,0,1,3,.24"/>
    <path class="cls-3" d="M430.52,178.18a6.31,6.31,0,0,1-3.11,2.43l-23.94,7.23c-2.6.59-4.41.32-5.74-.9a54.78,54.78,0,0,1-3.83-4.36c-1-1.68-1.49-3.09,0-4.68a40.24,40.24,0,0,0,6.51-10.36c1.12-2.34,2-7.61,4.37-8.19,1.88-.47,7.54-.75,10.74-1.18,1.14-.23,1.89.31,2.74,1.64,0,0,8.72,17.27,9.15,18.37A2.5,2.5,0,0,1,426,181"/>
    <path class="cls-1" d="M397.2,173.47l.9.54a72.28,72.28,0,0,0,9.95,11.12l.48.85"/>
    <g>
      <path d="M223.09,247.53l.51.62-1.11,2.43h0l2.46-.81.51.6-2.24,2.05-.32-.39,1.93-1.76h0l-2.68.86-.25-.29,1.21-2.64h0L221.17,250l-.32-.38Z"/>
      <path d="M224.94,251.8l.83,1-.23.21-.83-1Z"/>
      <path d="M227.18,252.44l1.19,1.42-.24.23-.86-1-.71.65.81,1-.24.22-.81-1-1,.95-.34-.4Z"/>
      <path d="M227.79,255.19c.12-.11.22-.24.34-.35l.3.37-.23.24h0a.8.8,0,0,1,.76.35c.34.4.4.83,0,1.16l-1.13,1-.32-.38,1.05-1a.46.46,0,0,0,.06-.72.54.54,0,0,0-.86-.09l-1,.9-.32-.38Z"/>
    </g>
    <path class="cls-1" d="M266.77,166.35c-2.14,2.08-5.84,2-8.35-.36s-2.83-6-.72-8.1,5.84-2,8.35.36S268.88,164.22,266.77,166.35Z"/>
    <path class="cls-3" d="M267.2,168.17c-2.51,2.54-7,2.34-10-.47s-3.41-7.14-.92-9.68,7-2.33,10,.47S269.7,165.57,267.2,168.17Z"/>
    <ellipse class="cls-3" cx="305.44" cy="209.98" rx="6.59" ry="7.35" transform="translate(-52.72 305.43) rotate(-49.43)"/>
    <ellipse class="cls-1" cx="305.97" cy="209.01" rx="4.62" ry="5.77" transform="translate(-51.79 305.5) rotate(-49.43)"/>
    <path class="cls-1" d="M256.42,147.76c-1.79,2-5.24,1.9-7.65-.27s-3-5.56-1.16-7.57,5.25-1.9,7.66.27S258.26,145.74,256.42,147.76Z"/>
    <ellipse class="cls-1" cx="252.06" cy="143.84" rx="3.29" ry="3.98" transform="translate(-22.9 236.69) rotate(-48.37)"/>
    <path class="cls-3" d="M256.86,149.71c-2.3,2.58-6.64,2.49-9.67-.19s-3.62-7-1.31-9.57,6.63-2.5,9.66.19S259.16,147.12,256.86,149.71Z"/>
    <path class="cls-1" d="M291.54,217.91c-1.61,2.16-5.06,2.35-7.65.39s-3.42-5.28-1.81-7.44,5.06-2.35,7.65-.4S293.19,215.73,291.54,217.91Z"/>
    <ellipse class="cls-1" cx="286.85" cy="214.38" rx="3.29" ry="3.98" transform="translate(-56.37 316.58) rotate(-53.35)"/>
    <path class="cls-3" d="M292.14,219.81c-2.07,2.77-6.39,3.06-9.65.65s-4.21-6.64-2.13-9.42,6.39-3.06,9.64-.65S294.21,217,292.14,219.81Z"/>
    <path class="cls-1" d="M228.37,271.88c-.49,15,5.09,23.22,16,24.65"/>
    <path class="cls-1" d="M240.45,271.33c6.32,2,11.46,10.09,12.65,15.52"/>
    <path class="cls-1" d="M271,222.91c7,5.1,14.79,10.24,19.61,18.55,4.71,8.13,10.71,19,11.32,34.18"/>
    <path class="cls-1" d="M289.63,239.89s-2.59,1.57-4.69,2.78a17.11,17.11,0,0,1-12.42-5.57C267.23,232.37,254.11,228,235,239c-3.45,2-3.54,1.9-10.26,3.1s-12.42,7.9-9.51,19.52c.73,3.27-.48,4.46-1.45,6.9s-5,7.14-5,7.14"/>
    <path class="cls-1" d="M287.48,237a8.22,8.22,0,0,1-2.66,2s-5.27.35-11.32-5.95c-5.54-5-20.49-8.92-40.59,2.65-3.62,2.09-3.71,2-10.77,3.26s-13.82,9.65-10.77,21.86a9.23,9.23,0,0,1-.05,5.84"/>
    <g>
      <path d="M352.51,58.1a10.58,10.58,0,0,1,1.26,0,3.07,3.07,0,0,1,2.35,1.11c.37.41.81,1,1.06,1.33a14.71,14.71,0,0,1,.94,1.33c.49.82.24,1.15-.55,1.28a8.18,8.18,0,0,1-1.16.14,10.58,10.58,0,0,1-1.26,0,3.07,3.07,0,0,1-2.35-1.11c-.38-.41-.81-1-1.06-1.32s-.69-.92-.94-1.33c-.49-.82-.24-1.15.55-1.29A8.18,8.18,0,0,1,352.51,58.1Zm-.49.72c-.39.06-.53.31-.31.65s.55.83.93,1.33.79,1,1.07,1.32a1.67,1.67,0,0,0,1.22.56c.24,0,.57,0,1,0a8.91,8.91,0,0,0,1-.1c.39-.05.53-.31.31-.65s-.55-.82-.93-1.33-.79-1-1.07-1.32A1.75,1.75,0,0,0,354,58.7c-.24,0-.58,0-1,0S352.23,58.79,352,58.82Z"/>
      <path d="M347.21,60.74l3.38-.2.46.61-3.38.21c.33.42.63.83.87,1.09a1.76,1.76,0,0,0,1.21.54,9.78,9.78,0,0,0,1,0c.44,0,1.36-.1,1.6-.13l.44.59c-.38.06-1.22.11-1.61.14s-.81,0-1.22,0a3.13,3.13,0,0,1-2.3-1.09c-.37-.41-.83-1-1.08-1.34a12.92,12.92,0,0,1-.93-1.33c-.47-.81-.21-1.16.53-1.27.36-.05.77-.08,1.17-.11s1.24-.06,1.65-.06l.46.61c-.24,0-1.22,0-1.65.06s-.76,0-1,.07c-.38,0-.52.31-.31.65S346.94,60.37,347.21,60.74Z"/>
      <path d="M360.57,57.72c-.41,0-1.45,0-1.85.05a9.94,9.94,0,0,0-1.19.11c-.79.14-1.07.59-.41,1.49a2.87,2.87,0,0,0,2.47,1.27l1.3,0a1.78,1.78,0,0,1,1.67.75c.39.53.18.79-.2.84-.22,0-.53.07-1,.1s-1.6,0-2,0l.48.65c.41,0,1.59,0,2,0a8.66,8.66,0,0,0,1.18-.14c.78-.14,1.14-.55.45-1.47A3.07,3.07,0,0,0,360.64,60l-1.24,0a1.68,1.68,0,0,1-1.39-.7c-.4-.55-.2-.77.22-.83a9.33,9.33,0,0,1,.94-.09c.46,0,1.64,0,1.87,0Z"/>
    </g>
    <polyline class="cls-3" points="317.92 166.16 368.31 152.56 343.12 106.44 282.27 123.41"/>
    <line class="cls-1" x1="346.48" y1="114.61" x2="284.61" y2="132.19"/>
    <line class="cls-1" x1="354.46" y1="128.68" x2="292.59" y2="146.26"/>
    <line class="cls-1" x1="361.81" y1="141.41" x2="303.37" y2="158.02"/>
    <g>
      <g>
        <path class="cls-3" d="M322.84,167.68l.84-1.12a1.37,1.37,0,0,1,1.82-.32,1.14,1.14,0,0,1,.56,1.55l-.07.12-.8,1"/>
        <path class="cls-1" d="M323.85,166.66c.06.64.95,1.21,2.21,1.13"/>
        <path class="cls-1" d="M322.84,167.68c.07,1,1.72,1.87,2.35,1.25"/>
      </g>
      <g>
        <path class="cls-3" d="M327.81,168.53l.75-1.18a1.36,1.36,0,0,1,1.79-.46,1.14,1.14,0,0,1,.68,1.5.31.31,0,0,1-.06.13l-.7,1.08"/>
        <path class="cls-1" d="M328.73,167.44c.12.63,1.06,1.13,2.3.95"/>
        <path class="cls-1" d="M327.81,168.53c.16,1,1.88,1.73,2.46,1.07"/>
      </g>
      <g>
        <path class="cls-3" d="M332,169.34l.62-1.25a1.37,1.37,0,0,1,1.74-.64,1.16,1.16,0,0,1,.83,1.43c0,.05,0,.09,0,.13l-.6,1.14"/>
        <path class="cls-1" d="M332.84,168.16c.18.61,1.16,1,2.38.72"/>
        <path class="cls-1" d="M332,169.34c.26.94,2.05,1.53,2.55.81"/>
      </g>
      <g>
        <path class="cls-3" d="M336.67,170l.5-1.3a1.35,1.35,0,0,1,1.66-.79,1.16,1.16,0,0,1,1,1.35.28.28,0,0,1,0,.13l-.48,1.19"/>
        <path class="cls-1" d="M337.36,168.76c.24.59,1.26.91,2.44.5"/>
        <path class="cls-1" d="M336.67,170c.35.92,2.19,1.35,2.62.58"/>
      </g>
      <g>
        <path class="cls-3" d="M342.49,169.74l.28-1.36a1.33,1.33,0,0,1,1.51-1,1.18,1.18,0,0,1,1.18,1.18c0,.05,0,.1,0,.14l-.28,1.25"/>
        <path class="cls-1" d="M343,168.41c.34.54,1.39.7,2.5.12"/>
        <path class="cls-1" d="M342.49,169.74c.49.86,2.37,1,2.68.18"/>
      </g>
      <g>
        <path class="cls-3" d="M346.15,168.91l.28-1.36a1.33,1.33,0,0,1,1.51-1,1.19,1.19,0,0,1,1.18,1.19.57.57,0,0,1,0,.13l-.28,1.25"/>
        <path class="cls-1" d="M346.62,167.58c.34.55,1.39.71,2.5.13"/>
        <path class="cls-1" d="M346.15,168.91c.49.86,2.38,1,2.68.18"/>
      </g>
      <g>
        <path class="cls-3" d="M350.07,167.67l.12-1.38a1.31,1.31,0,0,1,1.38-1.18,1.19,1.19,0,0,1,1.31,1,.71.71,0,0,1,0,.14l-.14,1.27"/>
        <path class="cls-1" d="M350.38,166.29c.4.51,1.47.56,2.5-.14"/>
        <path class="cls-1" d="M350.07,167.67c.58.8,2.47.74,2.68-.11"/>
      </g>
      <g>
        <path class="cls-3" d="M353.4,165.79l.12-1.38a1.31,1.31,0,0,1,1.38-1.18,1.19,1.19,0,0,1,1.31,1.05.61.61,0,0,1,0,.14l-.13,1.26"/>
        <path class="cls-1" d="M353.72,164.42c.39.51,1.46.55,2.49-.14"/>
        <path class="cls-1" d="M353.4,165.79c.59.8,2.47.74,2.69-.11"/>
      </g>
      <g>
        <path class="cls-3" d="M356.29,164.15l0-1.39a1.32,1.32,0,0,1,1.31-1.27,1.19,1.19,0,0,1,1.37,1,.59.59,0,0,1,0,.13l-.05,1.28"/>
        <path class="cls-1" d="M356.51,162.75c.43.49,1.5.47,2.48-.29"/>
        <path class="cls-1" d="M356.29,164.15c.64.76,2.52.58,2.67-.28"/>
      </g>
      <g>
        <path class="cls-3" d="M359.09,162.08l0-1.38a1.31,1.31,0,0,1,1.31-1.27,1.19,1.19,0,0,1,1.37,1,.66.66,0,0,1,0,.14l0,1.27"/>
        <path class="cls-1" d="M359.32,160.69c.43.48,1.5.46,2.48-.3"/>
        <path class="cls-1" d="M359.09,162.08c.65.76,2.53.58,2.68-.28"/>
      </g>
      <g>
        <path class="cls-3" d="M361.58,159.46l0-1.39a1.31,1.31,0,0,1,1.31-1.26,1.19,1.19,0,0,1,1.37,1,.66.66,0,0,1,0,.14l0,1.27"/>
        <path class="cls-1" d="M361.81,158.07c.43.48,1.5.46,2.48-.3"/>
        <path class="cls-1" d="M361.58,159.46c.65.76,2.53.58,2.68-.28"/>
      </g>
      <g>
        <path class="cls-3" d="M363.55,156.72l0-1.39a1.32,1.32,0,0,1,1.31-1.27,1.19,1.19,0,0,1,1.37,1s0,.09,0,.13l0,1.28"/>
        <path class="cls-1" d="M363.78,155.32c.43.49,1.5.47,2.48-.29"/>
        <path class="cls-1" d="M363.55,156.72c.65.76,2.53.58,2.68-.28"/>
      </g>
      <path class="cls-1" d="M382.46,104.62l8.32.55c3.7.25,5.08,1.22,6.33,2.92s3.86,6.24,5.2,8.68a6,6,0,0,1-1.19,7.77,83.45,83.45,0,0,1-7.9,5.62"/>
      <path class="cls-3" d="M392.74,127.47l6.14-4.21c2.27-1.56,3.05-3.67,2.24-6.83-.61-2.42-3.59-6.88-4.81-8.39a6.79,6.79,0,0,0-5.06-2.11c-1.84-.09-8.12-.35-8.12-.35"/>
      <path class="cls-1" d="M400.54,114.85c.6,2.18.06,4.06-1.23,5s-6.14,4.41-7.08,4.83"/>
      <path class="cls-1" d="M382.55,163.61c-16.67,21.84-53.11,23.25-81.38,3.16s-37.67-54.1-21-75.94"/>
      <path class="cls-3" d="M280.17,90.83c16.67-21.84,53.1-23.25,81.37-3.16s37.68,54.1,21,75.94"/>
      <path class="cls-1" d="M288.72,96.17c14-18.38,44.68-19.57,68.47-2.65s31.7,45.52,17.68,63.9"/>
      <path class="cls-3" d="M374.87,157.42c-14,18.37-44.69,19.56-68.48,2.65s-31.7-45.52-17.67-63.9"/>
      <path class="cls-3" d="M370.53,156.32a30.39,30.39,0,0,0,4.32-7.75l2.49,0"/>
      <path class="cls-1" d="M377.34,148.52c5.43-14.26.22-32.55-13.36-45.83l-1.09-.41-1.4.91a62.16,62.16,0,0,0-7.34-6.12c-20-14.25-45.34-14.64-59.56-1.81L293.42,94l-1,.74"/>
      <path class="cls-3" d="M282,121.06c-.22-15.6,5.8-21.25,10.47-26.3l2.2,1.89.95-1c10.43-7.84,21.6-9.75,33.7-7.55l-.08,1.21a60.12,60.12,0,0,1,23.91,10.21,62.23,62.23,0,0,1,7.34,6.13l2-1.73c7.76,7.51,19.45,25.25,14.93,44.58"/>
      <path class="cls-3" d="M370.53,156.32A33,33,0,0,1,356.16,167l-2.05,3.61"/>
      <path class="cls-1" d="M385.45,165.67c-17.62,23.08-56.12,24.57-86,3.34s-39.81-57.16-22.19-80.24"/>
      <path class="cls-3" d="M385.45,165.67c17.61-23.08,7.67-59-22.2-80.24s-68.37-19.74-86,3.34l-2.11,2.41c-17.62,23.08-7.68,59,22.19,80.24s68.37,19.74,86-3.34Z"/>
      <line class="cls-1" x1="361.49" y1="103.19" x2="360.11" y2="105.34"/>
      <line class="cls-1" x1="356.16" y1="166.99" x2="357.28" y2="169.67"/>
      <path class="cls-1" d="M282.45,113.25c5.87-32.7,47.51-41.06,80.75-11.52l.86-.7"/>
      <path class="cls-3" d="M341.75,171.79l-1.32-3.89c11.91-3.38,15.3-10.1,17.86-14.64l10.49-2.95c2.63-47-65.87-74-86.67-34.13"/>
      <path class="cls-3" d="M321.3,167.82l2.48-2.16s14.92,2.88,17.47,2"/>
      <path class="cls-1" d="M282.7,111.8C291.14,92,326.2,85,354,109.34c20.2,20.13,17.2,32.71,17.21,41.32l-2.39-.35"/>
      <line class="cls-1" x1="361.17" y1="154.39" x2="358.29" y2="153.26"/>
      <path class="cls-1" d="M284.3,106.47c12.9-18.18,47.34-20.78,69.14-1.76,20.12,18.57,21.21,27.85,19.61,46.4l-11.88,3.28c-3.79,6.72-7.93,11.07-19.15,13"/>
      <line class="cls-1" x1="294.59" y1="95.26" x2="294.63" y2="96.65"/>
      <path class="cls-1" d="M360.86,106.48c11.46,10.84,18.09,27.8,15.24,42.06"/>
    </g>
    <path class="cls-1" d="M290.6,241.46c3.92-1.33,10-2.3,11.32-.48s-.85,4.13-7.95,6.55"/>
    <path class="cls-1" d="M292.38,244.78c-2.11,1.41-2.92,3.54-1.78,5.84,5.84,11.84,10.69,30.28,1.78,45.91-3.55,6.16-6.11,8.66-9.66,10.66a16.77,16.77,0,0,0-6.71,6.64L262.8,332c-1.2,2.1-1.82,3.73-.63,4.83s1.73,3-.64,4.59"/>
    <path class="cls-1" d="M284.82,245.83c5.94,12,9,26.81,8.12,35.84"/>
    <path class="cls-1" d="M337.3,289.18l-22.56,30.74c-.8,1.38.16,2.74,2.76,1.92l102.07-32.38a6.88,6.88,0,0,0,3.31-2.3l25.75-32.9c.76-1.32.64-3.19-2.73-2.28L346,283.53C341.76,284.82,338.48,287.13,337.3,289.18Z"/>
    <polygon class="cls-1" points="328.05 312.65 324.37 317.2 363.13 304.91 365.86 301.01 328.05 312.65"/>
    <polygon class="cls-1" points="341.25 294.43 329.15 310.75 375.23 296.43 386.38 280.75 341.25 294.43"/>
    <path class="cls-5" d="M270.14,33c16.74-4.37,29.59-5.22,42.81,0s30.83,13.6,39.85,17.29a76.83,76.83,0,0,1,25.71,16.66c7.94,7.89,16.69,24.15,18.63,27.06s2.06,6.47,3.64,9.81c3.37,7.1,7.74,15.84,10.19,18.43s5.64,5.22,8.37,9.31,22.1,43.16,29.65,54.87c2.28,3.94,6.92,7.53,9.28,8.44s3.37,1,5.46,3.18,6.82,12.47,9.37,18.2-.28,15.37-2.19,20.64S452.09,267.44,434.26,286c-4.55,4.49-10.8,6.74-14.28,7.76C384.14,304.19,283.21,335,260.2,341.82a57.22,57.22,0,0,1-18.32,2.24,193.34,193.34,0,0,1-21.95-3.15c-5-1.21-8.67-4.55-11.22-6.55s-10.1-14.14-11.67-17.54-1.36-6.9-1.48-10.05c0-3.36-2.13-10.85-3.88-14.82s-19.29-38.6-29.11-53.88-21.74-31-27.2-40.48c-7.4-12.82-12.55-23.74-13.64-37.2-.46-6.55,1.36-18.56,15.83-26.38,0-4.64.09-10.55,3.54-14.37,21.38-20.47,49.27-33.38,67.73-40.75a82,82,0,0,0,16.76-9.23A108.5,108.5,0,0,1,237,52.39C241.88,46.08,243.16,43.3,249,40S258.5,36,270.14,33Z"/>
    <path class="cls-3" d="M137.74,134.92s-6,9.55-7.19,11.64-1.65,3.66-.54,5.64c.63,1.14,1.63,2.91,1.63,2.91"/>
    <path class="cls-3" d="M127.73,160.39a1.88,1.88,0,0,0,1.65-1.09l6-10.33c2.17-3.76,2.31-8.23,2.4-10.23a40.53,40.53,0,0,0-.18-4.73"/>
    <path class="cls-1" d="M246.87,41.34c-3,2.4-3.59,4.35-4.68,7.8s-2.49,10.1-9,15.2-7.56,5.32-7.56,5.32"/>
    <path class="cls-3" d="M210.57,78.2c2.39-.46,6.21-.4,8.88,1.3s4.08,4.47,5.7,6.41a83,83,0,0,1,7,10.32c2.89,5.26,3.85,10.17,1.39,19.17-1.28,3.73-2.09,4.51-4.09,6.15"/>
    <path class="cls-1" d="M226.21,87.27c.68.92.94,3-4.34,4.32s-19.46,7.4-39.47,19S156.11,128.92,149.29,139s-17.37,28.11-18.28,30.2-2.14,2.89-4.82.74-4.69-11.89-3.76-17.64"/>
    <path class="cls-1" d="M131.87,137.78c-8.05,6.51-10.22,24.19-3.4,22.45"/>
    <path class="cls-1" d="M137.76,140.23l-4.2,7c-1.05,1.81-.25,5.29-.25,5.29"/>
    <path class="cls-1" d="M135.78,198.29c-.32-1.75-.39-3,.87-7.61.94-3.48,14.44-29.26,20.81-36.26l41.86,81.46-15.83,24.49c-2.82,4.89-3.47,8.62-2.58,10.34"/>
    <path class="cls-3" d="M179.51,268c-1-1.86-.73-4.87,1.16-8.14l16.88-27.45L159.81,159"/>
    <line class="cls-1" x1="194.78" y1="236.96" x2="155.93" y2="161.84"/>
    <path class="cls-3" d="M159.81,159l-4.52,2.49c-6.18,8.64-17.52,29.14-18.49,38.49"/>
    <line class="cls-1" x1="133.89" y1="163.98" x2="141.88" y2="179.69"/>
    <line class="cls-1" x1="158.36" y1="156.17" x2="149.46" y2="170.62"/>
    <path class="cls-1" d="M219.33,129.5c2.73-4,8.72-5.93,12-9.72"/>
    <path class="cls-3" d="M216.11,126.84c3.11,6.32,13.29,17.57,18.81,25.65s29.73,65.32,38.58,72.24"/>
    <path class="cls-3" d="M201,276.18a6.64,6.64,0,0,0-2.91,2.91l1.46,5.67,6,9.83,3.94,3.69,2.55-.3a4.32,4.32,0,0,0,2.18-1.1"/>
    <path class="cls-3" d="M200.89,271.33c9,4.09,16.31,21.49,11.71,31.92"/>
    <path class="cls-1" d="M200.35,276.51c2.24-1.09,4.14-1.6,6.19-.68"/>
    <path class="cls-3" d="M199.4,284.48c.16,7,3.92,14.1,10.1,13.8"/>
    <polyline class="cls-1" points="201.01 276.18 205.44 281.06 210.05 289.67 211.44 295.24 210.62 295.98"/>
    <polyline class="cls-1" points="199.87 276.86 201.44 281.67 207.75 292.82 210.62 295.98 209.5 297.67"/>
    <path class="cls-1" d="M211.44,295.24c1.46-1.45,1.72-5.77-.26-11.92"/>
    <path class="cls-1" d="M202,275.93c2.58-.29,4.58.71,7.93,4.83"/>
    <path class="cls-1" d="M213.31,301.24c-.73,1.87-.16,2.61-2.69,4.07-7.65,4.42-22.85-25.15-16-32.68,2.23-2.43,5.8-2.1,8.08-.26"/>
    <path class="cls-1" d="M192.28,293.11a11.23,11.23,0,0,0,0-6.51c-.85-2.29-1.45-9.06-.85-11.49s.37-5.09-.72-6.61L185,258"/>
    <path class="cls-1" d="M186.39,255.89l7.23,13.1c5-3.88,10.49.71,14.73,7.87"/>
    <path class="cls-1" d="M310.29,306.23,299.1,321.45a3.46,3.46,0,0,1-1.84,1.3l-24.34,7.19a.89.89,0,0,1-1-1.39l11.51-15.63a2.42,2.42,0,0,1,1.34-.92l24.73-6.87A.71.71,0,0,1,310.29,306.23Z"/>
    <polyline class="cls-1" points="276.45 325.14 300.64 317.54 308.24 306.92"/>
    <polyline class="cls-3" points="308.24 306.92 285.24 313.37 276.45 325.14"/>
    <line class="cls-1" x1="300.64" y1="317.54" x2="293.19" y2="311.14"/>
    <path class="cls-1" d="M304.66,239c35.09-12.74,122.64-35.92,135.59-38.11"/>
    <path class="cls-1" d="M378.62,173.3c2.79,1.1,5.89,4,7.16,5.4s2.12,4.06,3,5.82,8.85,9.89,10.55,10.86a8.23,8.23,0,0,0,6.91.48l37.24-11.34a13.63,13.63,0,0,1,4.24-.2"/>
    <path class="cls-1" d="M449.46,187.17a7.53,7.53,0,0,0-3.55,0l-10,3.35c-2.43.91-3.1,3.22-1,4.8a15.68,15.68,0,0,0,6.07,3.21c1.94.36,6.21-.82,10.31,1.94,7.82,5.28,17.7,21.77,15.28,35.53-.85,3.58-1.52,6.49-4.61,10.55s-27.58,38-35,44.53"/>
    <path class="cls-1" d="M423.51,292.54c7.44-6.54,31.92-40.46,35-44.52s3.76-7,4.61-10.55c2.43-13.77-6.22-30.26-15.28-35.54-4.27-2.49-7.74-1.66-9.59-2.35a29.11,29.11,0,0,1-8.07-4.87,7.63,7.63,0,0,0-7.48-.67l-14.18,4.79c-4.68,1.4-9.47.73-12.56-2.12s-8.55-8-9.71-10.73-1.82-4.25-3.39-5.64-5-4.23-6.81-4.81"/>
    <path class="cls-1" d="M413.69,128c-6.9,3.09-11.78,6.12-12.73,16.29-1.1,11.85-3.08,20.5-12.73,33.88"/>
    <path class="cls-1" d="M383.5,183.49c-8.63,9.55-43.7,16.65-62.76,8"/>
    <path class="cls-1" d="M315.55,181a38.48,38.48,0,0,1-1.35,10,7.62,7.62,0,0,1-5.74,5.73L276.72,207c-5.73,2.15-8.66,9.61-4.33,15.95"/>
    <path class="cls-1" d="M319.1,182.52c1.28,6.16-.63,12.16-3,14.8-2.1,1.82-3.73,4.09-2.28,6.82,2.18,4,7.37,15.73-2.73,19.92L291,230.61c-7.18,1.27-15.6-2.2-19.08-8.52"/>
    <path class="cls-1" d="M289.63,224.58c-10.71,3.15-20.23-13.31-8.38-17.2l19.31-5.82c12.3-3,18.84,13.44,9.64,17.05Z"/>
    <path class="cls-1" d="M288.64,227.83c-11.8,3.47-21.54-15.8-8.47-20.09l20.52-6c13.57-3.34,20.78,15.51,10.63,19.49Z"/>
    <path class="cls-1" d="M252.32,166.33c5.3,10.2,23.89,6.06,18.31-5.52l-9.46-18.49c-6.52-11.33-23-4.93-19.11,4.46Z"/>
    <path class="cls-1" d="M250.67,169.3c5.85,11.25,26.62,5.34,20.47-7.43l-10.21-19.51c-7.19-12.49-25.87-5-21.56,5.39Z"/>
    <path class="cls-1" d="M261.74,140.61l10.9,21.19c7.39,14.68-16.07,22.21-23.78,8.8L237.4,148.52c-2.83-6.59,1.33-10.46,6.45-12.68S257.51,133.1,261.74,140.61Z"/>
    <polyline class="cls-3" points="158.19 188.81 179.28 229.14 171.6 241.51"/>
    <polyline class="cls-1" points="171.6 241.51 168.58 235.79 165.26 233.31 154.47 212.87 154.3 208.74 150.71 201.93 158.19 188.81"/>
    <polyline class="cls-3" points="174.75 220.48 168.94 229.76 170.39 232.79 173.06 232.43"/>
    <line class="cls-1" x1="177.43" y1="225.6" x2="173.06" y2="232.43"/>
    <line class="cls-1" x1="170.39" y1="232.79" x2="176.37" y2="223.57"/>
    <line class="cls-1" x1="171.13" y1="232.69" x2="173.9" y2="237.81"/>
    <line class="cls-1" x1="172.75" y1="232.47" x2="174.83" y2="236.32"/>
    <polyline class="cls-3" points="169.24 229.27 154.02 200.59 159.55 191.43"/>
    <line class="cls-1" x1="160.63" y1="199.97" x2="160.63" y2="203.74"/>
    <line class="cls-1" x1="157.41" y1="200.41" x2="159.54" y2="201.32"/>
    <line class="cls-1" x1="162.27" y1="202.52" x2="164.39" y2="203.43"/>
    <line class="cls-1" x1="157.86" y1="194.33" x2="157.86" y2="198.1"/>
    <line class="cls-1" x1="159.51" y1="196.87" x2="161.63" y2="197.78"/>
    <line class="cls-1" x1="163.76" y1="205.93" x2="163.76" y2="209.7"/>
    <line class="cls-1" x1="160.54" y1="206.36" x2="162.67" y2="207.27"/>
    <line class="cls-1" x1="165.4" y1="208.47" x2="167.52" y2="209.38"/>
    <line class="cls-1" x1="166.49" y1="211.74" x2="166.49" y2="215.51"/>
    <line class="cls-1" x1="163.28" y1="212.17" x2="165.4" y2="213.08"/>
    <line class="cls-1" x1="168.14" y1="214.28" x2="170.26" y2="215.19"/>
    <line class="cls-1" x1="169.72" y1="217.33" x2="169.72" y2="221.1"/>
    <line class="cls-1" x1="166.51" y1="217.77" x2="168.63" y2="218.68"/>
    <line class="cls-1" x1="171.37" y1="219.88" x2="173.49" y2="220.79"/>
    <line class="cls-1" x1="167.68" y1="220.89" x2="167.68" y2="224.66"/>
    <line class="cls-1" x1="164.47" y1="221.33" x2="166.59" y2="222.24"/>
    <line class="cls-1" x1="169.33" y1="223.44" x2="171.45" y2="224.34"/>
    <line class="cls-1" x1="164.8" y1="214.79" x2="164.8" y2="218.56"/>
    <line class="cls-1" x1="161.58" y1="215.23" x2="163.71" y2="216.14"/>
    <line class="cls-1" x1="161.72" y1="209" x2="161.72" y2="212.77"/>
    <line class="cls-1" x1="158.51" y1="209.44" x2="160.63" y2="210.35"/>
    <line class="cls-1" x1="158.51" y1="203.19" x2="158.51" y2="206.96"/>
    <line class="cls-1" x1="155.29" y1="203.62" x2="157.41" y2="204.53"/>
    <path class="cls-1" d="M258.4,93.23c-6.37,23.3,3.09,43.36,8.68,53,12.28,21.4,22.78,30.32,45.57,41.87"/>
    <path class="cls-1" d="M259.11,90.83c1.09-4.85,4.6-13.58,6.06-15.88"/>
    <path class="cls-1" d="M266.44,72.8c.64-1.28,2.12-4.38,4.46-5.73,9.88-5.71,38.84-13.47,50-14.29,3.09,0,7.83,1.37,9.37,2.46"/>
    <path class="cls-1" d="M332.66,56.51C339.3,60,348,65.06,349.11,65.88"/>
    <path class="cls-1" d="M350.26,66.88c1.82,1.45,9.21,7,10,8.07"/>
    <path class="cls-1" d="M321,36.31C324.93,41,328.85,48,330.3,50.46a7.87,7.87,0,0,1,.39,8"/>
    <path class="cls-1" d="M240.43,55.5c4.91,3.65,14.64,12.3,16.46,14.16s7.82,3.23,8.73,3.82a25.17,25.17,0,0,1,2.46,2"/>
    <path class="cls-1" d="M233.62,99.4c6.26-2.68,13.9-6.32,16.36-7a16.33,16.33,0,0,1,6.59-.45,37.18,37.18,0,0,1,6.6,1.83c1.36.44,7.87,3.93,7.87,3.93"/>
    <line class="cls-1" x1="263.17" y1="91.59" x2="263.17" y2="93.82"/>
    <path class="cls-1" d="M272.13,95.72l-9-4.13-1-3.87c2.48-5.56,5.39-12,7.3-14.24a19.47,19.47,0,0,1,7-5.43c3.23-1.54,31.8-11,42.44-12.18a32.17,32.17,0,0,1,10.09,1.85c8.81,3.48,23.3,14,27.29,17.23,1.26.73,4.09,1.76,5.73.85l10.28-.55c4.21,0,4-4.64,3.27-6.18a52.29,52.29,0,0,0-3.18-5"/>
    <path class="cls-1" d="M348.66,69.35l2.95-4.56c8.52-.45,17.51-.12,23.29-1.19"/>
    <polyline class="cls-1" points="353.24 50.46 353.67 53.42 349.11 51.76 348.66 48.53"/>
    <path class="cls-1" d="M397.2,96.87c-5.5-.21-16.88-2.88-23.64-8.1C368.31,84,360.3,78,360.3,78"/>
    <path class="cls-1" d="M163.51,121.55c20-15.77,47.86-29.91,55.82-32.78,3.95-1.22,5.53-4.69,2.55-7.14"/>
    <path class="cls-1" d="M172.43,123.4C187,111.27,207.51,101,219.33,97.75s14.5,1.18,15,3.84"/>
    <path class="cls-1" d="M199.32,124.71c11.46-6.89,14.65-8.24,23.42-10.3-6.14,3.77-8.33,10.07-5.78,14.83"/>
    <line class="cls-1" x1="340.31" y1="289.21" x2="444.07" y2="256.5"/>
    <line class="cls-1" x1="343.87" y1="291.08" x2="434.08" y2="262.57"/>
    <line class="cls-1" x1="391.49" y1="279.28" x2="437.18" y2="264.76"/>
    <line class="cls-1" x1="402.28" y1="278.75" x2="434.66" y2="268.55"/>
    <line class="cls-1" x1="398.86" y1="282.52" x2="431.23" y2="272.32"/>
    <line class="cls-1" x1="382.03" y1="290.85" x2="428.61" y2="276.17"/>
    <line class="cls-1" x1="379.23" y1="294.53" x2="420.1" y2="281.65"/>
    <line class="cls-1" x1="376.13" y1="298.55" x2="423" y2="283.78"/>
    <line class="cls-1" x1="373.09" y1="302.21" x2="420.61" y2="287.23"/>
    <g>
      <path d="M174.74,245.76a2.64,2.64,0,0,1-.26.59c-.42.72-.94.76-1.4-.2a2.89,2.89,0,0,1,0-2.73,1.19,1.19,0,0,1,.36-.38l.21.51a.64.64,0,0,0-.36.33,2,2,0,0,0,.05,1.77c.27.58.65.73.93.26a1.9,1.9,0,0,0,.23-.61Z"/>
      <path d="M174.12,241.77l.3-.5,1.87,2-.29.49-.43-.46-.53.9.19.85-.27.46Zm.41.33h0l.37,1.49.39-.65Z"/>
      <path d="M175.14,240.06l.28-.48c.29-.48.62-1.07,1-.28a1.43,1.43,0,0,1,.05,1.11h0c.08-.11.19,0,.28.06l.74.75-.29.49-.58-.61c-.14-.15-.22-.17-.33,0l-.08.15.56,1.17-.26.45Zm.84.76.09-.14a.87.87,0,0,0,.09-.87c-.16-.34-.32-.12-.46.1l-.08.15Z"/>
      <path d="M176.34,238.05l.36-.61c.4-.68.9-1,1.44.13a2.7,2.7,0,0,1-.08,2.7l-.37.61Zm1.4,1.94.15-.25a2,2,0,0,0,0-1.7c-.29-.62-.68-.61-.9-.24l-.14.25Z"/>
      <path d="M178.79,233.84c.41-.7.93-.49,1.34.37a2.79,2.79,0,0,1,.06,2.56c-.42.71-.93.48-1.35-.39a2.72,2.72,0,0,1-.05-2.54m1.19,2.48a1.9,1.9,0,0,0-.12-1.65c-.24-.5-.59-.82-.86-.38a1.89,1.89,0,0,0,.12,1.63c.24.51.59.86.86.4"/>
      <path d="M179.68,232.44l.33-.57c.29-.48.64-.74,1-.07a1.84,1.84,0,0,1-.08,1.76l-.11.19.51,1.07-.26.45Zm.89.86.09-.16a.82.82,0,0,0,.05-.84c-.15-.33-.32-.25-.46,0l-.09.16Z"/>
      <polygon points="180.77 230.6 181.55 229.29 181.77 229.73 181.25 230.6 181.59 231.3 182.06 230.5 182.27 230.95 181.8 231.74 182.18 232.54 182.7 231.67 182.91 232.11 182.13 233.43 180.77 230.6"/>
      <polygon points="181.81 228.85 182.14 228.31 183.66 229.58 183.66 229.57 182.65 227.46 182.9 227.03 184.26 229.86 183.93 230.4 182.41 229.13 182.41 229.14 183.42 231.26 183.17 231.68 181.81 228.85"/>
      <polygon points="179.93 239.99 179.94 239.98 179.95 239.97 179.95 239.96 179.96 239.96 179.97 239.95 179.98 239.95 179.99 239.95 180 239.95 180.01 239.95 180.02 239.96 180.03 239.96 180.03 239.97 180.04 239.98 180.05 239.99 180.06 240 180.07 240.02 180.63 241.2 181.2 242.38 181.34 242.68 181.48 242.97 181.55 243.12 181.62 243.27 181.63 243.28 181.63 243.28 181.64 243.29 181.64 243.3 181.65 243.31 181.65 243.32 181.65 243.34 181.65 243.35 181.66 243.36 181.66 243.37 181.66 243.38 181.66 243.39 181.66 243.41 181.66 243.42 181.66 243.43 181.66 243.44 181.66 243.45 181.65 243.46 181.65 243.47 181.65 243.48 181.64 243.49 181.64 243.5 181.64 243.5 181.63 243.5 181.63 243.51 181.63 243.51 181.61 243.54 181.6 243.57 181.32 244.04 181.04 244.51 179.92 246.38 178.8 248.26 178.8 248.27 178.79 248.28 178.78 248.28 178.77 248.29 178.76 248.29 178.75 248.29 178.75 248.29 178.74 248.29 178.73 248.29 178.72 248.28 178.71 248.28 178.7 248.27 178.69 248.26 178.69 248.25 178.68 248.24 178.67 248.23 178.66 248.21 178.66 248.19 178.65 248.18 178.65 248.16 178.65 248.15 178.65 248.14 178.64 248.13 178.64 248.12 178.64 248.11 178.64 248.09 178.64 248.07 178.64 248.05 178.98 245.62 179.32 243.19 179.33 243.17 179.33 243.16 179.34 243.14 179.34 243.13 179.35 243.12 179.35 243.11 179.36 243.1 179.37 243.09 179.38 243.09 179.38 243.08 179.39 243.08 179.4 243.08 179.41 243.08 179.42 243.08 179.43 243.08 179.44 243.09 179.46 243.12 179.48 243.14 179.84 243.89 180.2 244.64 180.57 244.01 180.95 243.38 180.95 243.38 180.96 243.37 180.96 243.35 180.96 243.34 180.97 243.33 180.97 243.32 180.97 243.31 180.97 243.29 180.97 243.26 180.97 243.24 180.97 243.22 180.96 243.21 180.96 243.2 180.95 243.18 180.95 243.18 180.95 243.17 180.95 243.17 180.94 243.16 180.94 243.15 180.93 243.14 180.92 243.12 180.91 243.1 180.89 243.05 180.87 243.01 180.79 242.84 180.71 242.67 180.54 242.32 180.38 241.98 180.05 241.29 179.72 240.6 179.71 240.59 179.71 240.57 179.7 240.56 179.7 240.54 179.69 240.52 179.69 240.5 179.69 240.49 179.69 240.47 179.69 240.45 179.69 240.44 179.69 240.42 179.69 240.4 179.7 240.39 179.7 240.37 179.71 240.36 179.72 240.35 179.93 239.99"/>
    </g>
    <path d="M242.11,264.43a.4.4,0,0,0,.09-.44l.76-.7a.07.07,0,0,0,0-.1l-.16-.16a.07.07,0,0,0-.1,0l-.77.7a.44.44,0,0,0-.3,0l-.57-.58.89-.81a.11.11,0,0,0,0-.16l-1.53-1.56a.11.11,0,0,0-.16,0l-2.61,2.4a.1.1,0,0,0,0,.15l1.53,1.56a.11.11,0,0,0,.16,0l1.48-1.36.57.58a.42.42,0,0,0,0,.29L240,265.47a.07.07,0,0,0,0,.1l.16.16s.08,0,.1,0l1.36-1.25a.42.42,0,0,0,.46-.06m-2.38-3,.3-.28a.06.06,0,0,1,.08,0l.8.83a0,0,0,0,1,0,.07l-.3.28s-.05,0-.08,0l-.8-.82a0,0,0,0,1,0-.07"/>
    <g>
      <path class="cls-6" d="M196.06,275.14c-.3-.23-.37-.59-.16-.79a.73.73,0,0,1,.92,0c.3.24.37.59.16.8a.73.73,0,0,1-.92-.06"/>
      <path class="cls-6" d="M194.21,278.55c-.3-.23-.37-.59-.16-.79a.73.73,0,0,1,.92.05c.3.24.37.59.16.8a.73.73,0,0,1-.92-.06"/>
      <path class="cls-6" d="M197.48,272.58a1.39,1.39,0,0,1,1.66.48c.47.54.48,1.09-.06,1.36a1.38,1.38,0,0,1-1.66-.48c-.46-.53-.48-1.09.06-1.36m1.41,1.62c.41-.21.28-.64,0-1a1.06,1.06,0,0,0-1.2-.4c-.39.2-.29.63,0,1a1,1,0,0,0,1.2.4"/>
      <polygon class="cls-6" points="199.12 271.93 199.53 271.84 201.33 273.21 201.33 273.21 200.47 271.64 200.77 271.57 201.84 273.53 201.46 273.61 199.62 272.21 199.62 272.21 200.5 273.82 200.2 273.88 199.12 271.93"/>
      <path class="cls-6" d="M194.26,283.63c-.29-.6,0-1,.66-1.12a1.45,1.45,0,0,1,1.57.78c.29.6,0,1-.66,1.12a1.45,1.45,0,0,1-1.57-.78m2-.3a1.07,1.07,0,0,0-1.16-.52c-.44.07-.74.35-.53.78a1.06,1.06,0,0,0,1.16.52c.42-.06.75-.32.53-.78"/>
      <polygon class="cls-6" points="193.65 281.98 193.39 280.92 193.68 280.93 193.87 281.71 194.55 281.73 194.37 280.99 194.66 281 194.84 281.74 195.89 281.77 195.96 282.06 193.65 281.98"/>
      <polygon class="cls-6" points="193.31 280.31 193.25 279.27 193.55 279.32 193.59 280.08 194.28 280.2 194.24 279.47 194.54 279.52 194.58 280.25 195.65 280.43 195.67 280.71 193.31 280.31"/>
    </g>
    <g>
      <g>
        <path class="cls-7" d="M160.32,381.12c11.08,1.21,32.84,8.3,37.17,10.89a5.06,5.06,0,0,1,2.44,2.61c.44.89-.78,6.67-.92,7.51a4.71,4.71,0,0,1-2.16,3.35c-1.73,1.25-17.21,12.7-17.21,12.7a30.9,30.9,0,0,0-6.48,6.5c-1.74,2.2-4.78,5.3-8.73,6.63s-7.36-1.18-11.22-2.06l-26.81-7.62c-5-1.73-6.44-5.31-5.51-8.2s2.87-7.67,5.4-10.2a19.59,19.59,0,0,0,8.11-4.46s18.43-14.59,20.58-16S158.7,380.91,160.32,381.12Z"/>
        <path class="cls-1" d="M135.5,404.87c-5,4.7-3.9,9-1.94,10.09s12.94,4.53,15.57,5.15,7.61-3.31,10-6.13,7.76-7.87,8.79-9.28.2-3-1.37-3.79a121.19,121.19,0,0,0-15-4.35c-2.28-.34-4.23-.69-6.46.82S135.5,404.87,135.5,404.87Z"/>
        <path class="cls-1" d="M139.22,407.81l15.21,4.72a5.68,5.68,0,0,1-3.55.88l-10.49-3.13A1.79,1.79,0,0,1,139.22,407.81Z"/>
        <path class="cls-1" d="M134.58,410.64l17.93,5.65A7.38,7.38,0,0,1,147.2,418l-11.62-3.73C133.66,413.76,134.58,410.64,134.58,410.64Z"/>
        <path class="cls-1" d="M148.45,400.42l-4.89,4.16c-.87.74-.74,1.9.25,2.19L154.9,410a1.86,1.86,0,0,0,1.67-.4l4.89-4.16c.87-.74.73-1.9-.25-2.19L150.11,400A1.85,1.85,0,0,0,148.45,400.42Z"/>
        <path class="cls-1" d="M155.67,428.87c.67-2.11,3.69-5.67,5.07-7.21a24.93,24.93,0,0,1,6.06-4.59c2.18-1.18,1.92-1.65,1.7-3.19a6,6,0,0,1,2.85-4.9c2.31-1.59,21.79-11.4,26-15.54"/>
        <path class="cls-1" d="M170.27,413.8a14.28,14.28,0,0,1,3.47,3.09c.26.52-.35,1.22-.74.72a13.11,13.11,0,0,0-3.34-3C169.43,414.13,169.73,413.52,170.27,413.8Z"/>
        <path class="cls-1" d="M171.38,411.82a21.5,21.5,0,0,1,4.18,4c.25.52-.33,1.08-.72.58a19.61,19.61,0,0,0-4.07-3.78C170.55,412.15,170.84,411.53,171.38,411.82Z"/>
        <path class="cls-1" d="M173.45,410.86a14.49,14.49,0,0,1,3.43,3.22c.26.51-.35,1.21-.74.71a15.33,15.33,0,0,0-3.55-3.29C172.36,411.05,172.91,410.58,173.45,410.86Z"/>
        <path class="cls-1" d="M175.23,409.66a13.74,13.74,0,0,1,3.5,3.07c.26.51-.45,1.09-.83.6a14.11,14.11,0,0,0-3.53-3C174.14,409.85,174.69,409.37,175.23,409.66Z"/>
        <path class="cls-1" d="M177.32,408.44a10,10,0,0,1,3,2.58c.26.52-.34,1-.73.53a10.19,10.19,0,0,0-3.09-2.47C176.24,408.63,176.78,408.16,177.32,408.44Z"/>
        <path class="cls-1" d="M179.67,407.23a7.85,7.85,0,0,1,2.44,1.93c.26.51-.33,1.07-.71.57a8.66,8.66,0,0,0-2.59-1.86C178.59,407.42,179.13,407,179.67,407.23Z"/>
        <path class="cls-3" d="M145.28,403.5c-.56.48-1.63,2.62-.8,3.06l9.43,2.78a4,4,0,0,0,2.78-.7l4-3.41c.48-.62.67-1.58,0-2l-9.71-2.82a3.1,3.1,0,0,0-2.75.61Z"/>
        <path class="cls-1" d="M145.71,403.13c-.66.63,0,1.26.48,1.45l8.14,2.51a2,2,0,0,0,2-.38l3.9-3.54"/>
        <polygon class="cls-1" points="152.08 404.19 156.8 403.87 156.85 403.57 150.9 401.76 152.08 404.19"/>
      </g>
      <path class="cls-8" d="M166.19,390.72l.16,0c.37.11.51.3.35.46a.64.64,0,0,1-.37.14"/>
      <path class="cls-8" d="M165.71,390.26H165a1.43,1.43,0,0,0-.9.23c-.23.32.09.66.79.88a4.47,4.47,0,0,0,1,.16h.55"/>
      <polyline class="cls-8" points="165.96 389.85 165.45 389.84 167.09 390.31 167 390.58"/>
      <path class="cls-8" d="M174.74,392.28c.18.06.27.14.23.23l-.43,1.18a.26.26,0,0,1-.17.12m.46-1.69H174a2.21,2.21,0,0,0-1.47.42c-.45.45-.06,1,1,1.3a4.59,4.59,0,0,0,.7.13l.91,0"/>
      <path class="cls-8" d="M163.49,390.59l-.92,0a7.35,7.35,0,0,1-1.42-.25c-1.73-.49-2.18-1.22-1.66-1.71a2.71,2.71,0,0,1,1.79-.47h.64"/>
      <path class="cls-8" d="M162.82,388.66a4,4,0,0,1,.82.14,2.3,2.3,0,0,1,.8.37l-1.58.38h.52"/>
      <polyline class="cls-8" points="177.06 393.02 176.54 393.01 177.38 393.25 176.08 394.49 177.34 394.85 177.85 394.86"/>
      <path class="cls-8" d="M179,393.72c.15,0,.2.14.13.21L178,395l1.27.36h.51"/>
      <polyline class="cls-8" points="169.18 390.77 168.67 390.77 169.51 391.01 168.2 392.25 169.47 392.61 169.98 392.62"/>
      <path class="cls-8" d="M171.14,391.47c.15.06.2.14.13.22l-1.16,1.1,1.26.37h.52"/>
      <path class="cls-9" d="M166.27,391.33c-.36-.11-.5-.3-.34-.47a1,1,0,0,1,.77-.13l.18,0c.37.11.51.3.35.46a1,1,0,0,1-.77.14Zm2.54-.58c.08-.24-.26-.64-1.14-.72l-1.73-.18,1.64.46-.19.52a2.2,2.2,0,0,0-.91-.46,2.69,2.69,0,0,0-1.69,0,.42.42,0,0,0-.14.09c-.23.31.09.66.78.87a4,4,0,0,0,1.74.11l-.11.3,1.25.36Z"/>
      <path class="cls-9" d="M174.56,393.83c-.24,0-.38-.15-.33-.25l.42-1.19c0-.08.17-.14.39-.14h.09c.26,0,.4.15.35.25l-.43,1.19c0,.08-.18.14-.4.14Zm2.07-.28c.45-.44.06-1-1-1.29a3.7,3.7,0,0,0-2.37.09.69.69,0,0,0-.24.19c-.45.44-.05,1,1,1.29a3.67,3.67,0,0,0,2.36-.09A.69.69,0,0,0,176.63,393.55Z"/>
      <path class="cls-9" d="M165.55,389.61l-2.19-.05,1.58-.38a2.39,2.39,0,0,0-.8-.37,3.55,3.55,0,0,0-2.27.08.62.62,0,0,0-.25.18c-.43.44-.05.95.93,1.26a3.9,3.9,0,0,0,1.86.06l0,.13a6.19,6.19,0,0,1-2.72-.21c-1.73-.49-2.18-1.21-1.66-1.7s2-.67,3.65-.19c1,.28,1.73.71,1.9,1.19"/>
      <path class="cls-9" d="M179.74,395.4l-1.27-.36,1.16-1.11c.08-.08,0-.17-.17-.23a.66.66,0,0,0-.42,0l0,0-1.16,1.11-1.26-.36,1.31-1.25-.84-.24,1.49.09a1.16,1.16,0,0,1,.28,0c.33.1.48.26.39.4l1.21.08a1.27,1.27,0,0,1,.29,0c.36.12.5.3.35.46Z"/>
      <path class="cls-9" d="M171.87,393.16l-1.27-.36,1.16-1.11c.08-.08,0-.17-.17-.23a.63.63,0,0,0-.41,0l-.05,0L170,392.62l-1.26-.36L170,391l-.85-.24,1.49.09a1.27,1.27,0,0,1,.29,0c.32.1.47.26.39.41l1.21.07.29.05c.36.12.5.3.34.46Z"/>
    </g>
  </g>
  <g id="FRAME">
    <rect class="cls-10" width="550" height="480"/>
  </g>
  <g id="call">
    <line class="cls-11" x1="491.68" y1="142.95" x2="324.28" y2="142.95"/>
    <line class="cls-11" x1="491.68" y1="114.4" x2="395.55" y2="114.4"/>
    <polyline class="cls-11" points="262.49 162.72 205.95 141.43 50.1 141.43"/>
    <polyline class="cls-11" points="306.44 74.92 306.44 19.68 491.81 19.68"/>
    <line class="cls-12" x1="491.68" y1="142.95" x2="324.28" y2="142.95"/>
    <line class="cls-12" x1="491.68" y1="114.4" x2="395.55" y2="114.4"/>
    <polyline class="cls-12" points="259.21 162.72 205.95 141.43 50.1 141.43"/>
    <polyline class="cls-12" points="306.44 74.92 306.44 19.68 491.81 19.68"/>
    <g>
      <polyline class="cls-11" points="263.76 259.51 263.76 348.99 49.39 348.99"/>
      <polyline class="cls-12" points="263.76 259.51 263.76 348.99 49.39 348.99"/>
      <path class="cls-13" d="M267.55,259.51a3.79,3.79,0,1,1-3.79-3.79A3.79,3.79,0,0,1,267.55,259.51Z"/>
    </g>
    <g>
      <polyline class="cls-11" points="243.53 295.53 243.53 320.27 49.39 320.27"/>
      <polyline class="cls-12" points="243.53 295.53 243.53 320.27 49.39 320.27"/>
      <path class="cls-13" d="M247.32,295.53a3.79,3.79,0,1,1-3.79-3.79A3.79,3.79,0,0,1,247.32,295.53Z"/>
    </g>
    <path class="cls-13" d="M328.07,143a3.79,3.79,0,1,1-3.79-3.8A3.79,3.79,0,0,1,328.07,143Z"/>
    <path class="cls-13" d="M399.4,114.4a3.79,3.79,0,1,0-3.79,3.79A3.79,3.79,0,0,0,399.4,114.4Z"/>
    <line class="cls-11" x1="491.68" y1="169.07" x2="416.19" y2="169.07"/>
    <line class="cls-12" x1="491.68" y1="169.07" x2="416.19" y2="169.07"/>
    <path class="cls-13" d="M420.05,169.07a3.8,3.8,0,1,0-3.8,3.79A3.8,3.8,0,0,0,420.05,169.07Z"/>
    <g>
      <line class="cls-11" x1="491.68" y1="386.53" x2="438.03" y2="386.53"/>
      <line class="cls-12" x1="491.68" y1="386.53" x2="438.03" y2="386.53"/>
      <path class="cls-13" d="M441.88,386.53a3.79,3.79,0,1,0-3.79,3.79A3.79,3.79,0,0,0,441.88,386.53Z"/>
    </g>
    <g>
      <line class="cls-11" x1="491.68" y1="324.96" x2="298.52" y2="324.96"/>
      <line class="cls-12" x1="491.68" y1="324.96" x2="298.52" y2="324.96"/>
      <path class="cls-13" d="M302.37,325a3.79,3.79,0,1,0-3.79,3.78A3.8,3.8,0,0,0,302.37,325Z"/>
    </g>
    <polyline class="cls-11" points="491.68 229.42 306.82 229.42 306.82 212.75"/>
    <polyline class="cls-12" points="491.68 229.42 306.82 229.42 306.82 212.75"/>
    <path class="cls-13" d="M310.45,215.32a3.79,3.79,0,1,1-3.79-3.79A3.8,3.8,0,0,1,310.45,215.32Z"/>
    <polyline class="cls-11" points="491.68 282.65 400.21 282.65 400.21 280.02"/>
    <polyline class="cls-12" points="491.68 282.65 400.21 282.65 400.21 280.02"/>
    <path class="cls-13" d="M403.84,282.65a3.79,3.79,0,1,1-3.79-3.8A3.79,3.79,0,0,1,403.84,282.65Z"/>
    <line class="cls-11" x1="491.68" y1="305.69" x2="367.54" y2="305.69"/>
    <line class="cls-12" x1="491.68" y1="305.69" x2="367.54" y2="305.69"/>
    <path class="cls-13" d="M371.33,305.69a3.79,3.79,0,1,1-3.79-3.79A3.79,3.79,0,0,1,371.33,305.69Z"/>
    <polyline class="cls-11" points="491.68 344.88 281.06 344.88 281.06 318.23"/>
    <polyline class="cls-12" points="491.68 344.88 281.06 344.88 281.06 318.23"/>
    <path class="cls-13" d="M284.69,318.22a3.79,3.79,0,1,1-3.79-3.79A3.8,3.8,0,0,1,284.69,318.22Z"/>
    <polyline class="cls-11" points="491.68 259.05 288.39 259.05 288.39 218.49"/>
    <polyline class="cls-12" points="491.68 259.05 288.39 259.05 288.39 218.49"/>
    <path class="cls-13" d="M292,221.06a3.79,3.79,0,1,1-3.79-3.79A3.79,3.79,0,0,1,292,221.06Z"/>
    <polyline class="cls-11" points="491.68 201.56 351.76 201.56 351.76 169.74"/>
    <path class="cls-13" d="M260.22,162.72a3.79,3.79,0,1,1-3.79-3.79A3.79,3.79,0,0,1,260.22,162.72Z"/>
    <g>
      <line class="cls-11" x1="213.5" y1="183.87" x2="51.54" y2="183.87"/>
      <line class="cls-12" x1="213.5" y1="183.87" x2="50.1" y2="183.87"/>
      <path class="cls-13" d="M217.3,183.87a3.8,3.8,0,1,1-3.8-3.79A3.8,3.8,0,0,1,217.3,183.87Z"/>
    </g>
    <g>
      <line class="cls-11" x1="162.27" y1="216.48" x2="50.82" y2="216.48"/>
      <line class="cls-12" x1="162.27" y1="216.48" x2="49.39" y2="216.48"/>
      <path class="cls-13" d="M166.06,216.48a3.79,3.79,0,1,1-3.79-3.79A3.79,3.79,0,0,1,166.06,216.48Z"/>
    </g>
    <line class="cls-11" x1="135.58" y1="414.33" x2="50.82" y2="414.33"/>
    <line class="cls-12" x1="138.16" y1="414.33" x2="49.39" y2="414.33"/>
    <path class="cls-13" d="M139.17,414.33a3.79,3.79,0,1,1-3.79-3.79A3.79,3.79,0,0,1,139.17,414.33Z"/>
    <line class="cls-11" x1="196.84" y1="290.69" x2="50.82" y2="290.69"/>
    <line class="cls-12" x1="196.84" y1="290.69" x2="49.39" y2="290.69"/>
    <path class="cls-13" d="M200.08,290.69a3.79,3.79,0,1,1-3.79-3.79A3.79,3.79,0,0,1,200.08,290.69Z"/>
    <path class="cls-13" d="M310.23,74.92a3.8,3.8,0,1,0-3.79,3.79A3.79,3.79,0,0,0,310.23,74.92Z"/>
    <polyline class="cls-11" points="380.47 110.86 380.47 86.56 491.68 86.56"/>
    <polyline class="cls-12" points="380.47 110.86 380.47 86.56 491.68 86.56"/>
    <path class="cls-13" d="M384.26,107.85a3.79,3.79,0,1,0-3.79,3.79A3.79,3.79,0,0,0,384.26,107.85Z"/>
    <polyline class="cls-11" points="351.35 87.94 351.35 52.66 491.68 52.66"/>
    <polyline class="cls-12" points="351.35 87.94 351.35 52.66 491.68 52.66"/>
    <path class="cls-13" d="M355.14,84.92a3.79,3.79,0,1,0-3.79,3.79A3.79,3.79,0,0,0,355.14,84.92Z"/>
    <g>
      <polyline class="cls-11" points="50.1 19.68 228.41 19.68 228.41 77.6"/>
      <polyline class="cls-12" points="50.1 19.68 228.41 19.68 228.41 79.74"/>
      <path class="cls-13" d="M224.62,77.6a3.79,3.79,0,1,0,3.79-3.79A3.79,3.79,0,0,0,224.62,77.6Z"/>
    </g>
    <g>
      <polyline class="cls-11" points="50.1 53.93 195.87 53.93 195.87 93.43"/>
      <polyline class="cls-12" points="50.1 53.93 195.87 53.93 195.87 93.43"/>
      <path class="cls-13" d="M192.08,89.78A3.79,3.79,0,1,0,195.87,86,3.79,3.79,0,0,0,192.08,89.78Z"/>
    </g>
    <g>
      <polyline class="cls-11" points="50.1 121.75 251.51 121.75 251.51 141.96"/>
      <polyline class="cls-12" points="50.1 121.75 251.51 121.75 251.51 141.96"/>
      <path class="cls-13" d="M247.72,139.37a3.79,3.79,0,1,0,3.79-3.79A3.79,3.79,0,0,0,247.72,139.37Z"/>
    </g>
    <g>
      <line class="cls-11" x1="49.39" y1="260.55" x2="232.2" y2="260.55"/>
      <line class="cls-12" x1="49.39" y1="260.55" x2="232.2" y2="260.55"/>
      <path class="cls-13" d="M228.39,260.55a3.79,3.79,0,1,1,3.79,3.79A3.79,3.79,0,0,1,228.39,260.55Z"/>
    </g>
    <path class="cls-11" d="M368.3,157.44c-12.76,14.45-25.93,17.74-46,12.19-4.32-1.5-3.69-8.74,2-7.24,13.61,4,24.24,4.06,37.16-9.07C364.69,149.88,372.27,153.83,368.3,157.44Z"/>
    <path class="cls-12" d="M368.3,157.44c-12.76,14.45-25.93,17.74-46,12.19-4.32-1.5-3.69-8.74,2-7.24,13.61,4,24.24,4.06,37.16-9.07C364.69,149.88,372.27,153.83,368.3,157.44Z"/>
    <polyline class="cls-12" points="491.68 201.56 351.76 201.56 351.76 169.74"/>
  </g>
  <g id="Text">
    <text class="cls-14" transform="translate(496.63 23.33)">(<tspan class="cls-15" x="5" y="2">12</tspan><tspan x="23" y="0">)</tspan></text>
    <text class="cls-14" transform="translate(496.63 90.21)">(<tspan class="cls-15" x="5" y="2">14</tspan><tspan x="23" y="0">)</tspan></text>
    <text class="cls-14" transform="translate(496.63 56.31)">(<tspan class="cls-15" x="5" y="2">13</tspan><tspan x="23" y="0">)</tspan></text>
    <text class="cls-14" transform="translate(496.63 117.77)">(<tspan class="cls-15" x="5" y="2">15</tspan><tspan x="23" y="0">)</tspan></text>
    <text class="cls-14" transform="translate(496.63 172.89)">(<tspan class="cls-15" x="5" y="2">17</tspan><tspan x="23" y="0">)</tspan></text>
    <text class="cls-14" transform="translate(496.63 389.82)">(<tspan class="cls-15" x="5" y="2">25</tspan><tspan x="23" y="0">)</tspan></text>
    <text class="cls-14" transform="translate(496.63 145.33)">(<tspan class="cls-15" x="5" y="2">16</tspan><tspan x="23" y="0">)</tspan></text>
    <text class="cls-14" transform="translate(496.63 235.3)">(<tspan class="cls-15" x="5" y="0">19</tspan><tspan x="23" y="-2">)</tspan></text>
    <text class="cls-14" transform="translate(496.63 286.36)">(<tspan class="cls-15" x="5" y="2">21</tspan><tspan x="23" y="0">)</tspan></text>
    <text class="cls-14" transform="translate(496.63 309.73)">(<tspan class="cls-15" x="5" y="2">22</tspan><tspan x="23" y="0">)</tspan></text>
    <text class="cls-14" transform="translate(496.63 348.59)">(<tspan class="cls-15" x="5" y="2">24</tspan><tspan x="23" y="0">)</tspan></text>
    <text class="cls-14" transform="translate(496.63 329.16)">(<tspan class="cls-15" x="5" y="2">23</tspan><tspan x="23" y="0">)</tspan></text>
    <text class="cls-14" transform="translate(496.63 261.33)">(<tspan class="cls-15" x="5" y="2">20</tspan><tspan x="23" y="0">)</tspan></text>
    <text class="cls-14" transform="translate(496.63 205.27)">(<tspan class="cls-15" x="5" y="2">18</tspan><tspan x="23" y="0">)</tspan></text>
    <text class="cls-14" transform="translate(25.95 145.17)">(<tspan class="cls-15" x="5" y="2">4</tspan><tspan x="14" y="0">)</tspan></text>
    <text class="cls-14" transform="translate(25.95 187.61)">(<tspan class="cls-15" x="5" y="2">5</tspan><tspan x="14" y="0">)</tspan></text>
    <text class="cls-14" transform="translate(25.95 219.6)">(<tspan class="cls-15" x="5" y="2">6</tspan><tspan x="14" y="0">)</tspan></text>
    <text class="cls-14" transform="translate(16.95 418.07)">(<tspan class="cls-15" x="5" y="2">11</tspan><tspan x="23" y="0">)</tspan></text>
    <text class="cls-14" transform="translate(25.95 294.43)">(<tspan class="cls-15" x="5" y="2">8</tspan><tspan x="14" y="0">)</tspan></text>
    <text class="cls-14" transform="translate(25.95 23.52)">(<tspan class="cls-15" x="5" y="2">1</tspan><tspan x="14" y="0">)</tspan></text>
    <text class="cls-14" transform="translate(25.95 57.76)">(<tspan class="cls-15" x="5" y="2">2</tspan><tspan x="14" y="0">)</tspan></text>
    <text class="cls-14" transform="translate(25.95 125.59)">(<tspan class="cls-15" x="5" y="2">3</tspan><tspan x="14" y="0">)</tspan></text>
    <text class="cls-14" transform="translate(25.95 264.58)">(<tspan class="cls-15" x="5" y="2">7</tspan><tspan x="14" y="0">)</tspan></text>
    <text class="cls-14" transform="translate(16.95 352.27)">(<tspan class="cls-15" x="5" y="2">10</tspan><tspan x="23" y="0">)</tspan></text>
    <text class="cls-14" transform="translate(25.95 324.14)">(<tspan class="cls-15" x="5" y="2">9</tspan><tspan x="14" y="0">)</tspan></text>
  </g>
</svg>
