<svg xmlns="http://www.w3.org/2000/svg" xmlns:xlink="http://www.w3.org/1999/xlink" width="260" height="195" viewBox="0 0 260 195">
  <defs>
    <style>
      .cls-1, .cls-3, .cls-4, .cls-6, .cls-8, .cls-9 {
        fill: none;
      }

      .cls-2 {
        fill: #fff;
      }

      .cls-2, .cls-3, .cls-4, .cls-6 {
        stroke: #000;
        stroke-linecap: round;
        stroke-linejoin: round;
      }

      .cls-2, .cls-6, .cls-9 {
        stroke-width: 1.5px;
      }

      .cls-3 {
        stroke-width: 0.9px;
      }

      .cls-4 {
        stroke-width: 0.9px;
      }

      .cls-5 {
        fill: #231815;
      }

      .cls-7 {
        clip-path: url(#clip-path);
      }

      .cls-8 {
        stroke: #fff;
        stroke-width: 3px;
      }

      .cls-9 {
        stroke: #0082ba;
      }

      .cls-10 {
        font-size: 16px;
        font-family: ArialMT, Arial;
      }
    </style>
    <clipPath id="clip-path">
      <path class="cls-1" d="M170.57,171c-9.92-.52-63.43-9-71.24-12l-1.21-11.52c11.65,0,64,8.89,74.1,11.4Z"/>
    </clipPath>
  </defs>
  <g id="frame">
    <rect class="cls-1" width="260" height="195"/>
  </g>
  <g id="K496">
    <g>
      <path class="cls-2" d="M244.32,104.3a6.57,6.57,0,0,0-1.73-4.28l-1.35-1.38a6,6,0,0,0-3.16-1.7L191.79,90.1l-.52-2.44-1.81-.12-1.2.84v1l-57.87-8.49V79.2l-3.23-.45-1.13.68v1C122.93,79.84,100,76,100,76L98.33,40.72l1-.79-1-20.06-1.58-.45-.85.67L93,19.7a1.29,1.29,0,0,1-1.29-1l-7.56-1.47c-4.51-.9-11.44.46-14.37,2.48L57.63,29.34a4.43,4.43,0,0,0-1.24,3.49L56.67,40c0,2.65,3,6.65,4.85,7.33a27.91,27.91,0,0,0-2,11.2c0,3.48.88,26.3,1.33,28.55a32.3,32.3,0,0,0,1.49,5l-7.81,8.5A13.33,13.33,0,0,0,51.94,109l.34,8.12a60.16,60.16,0,0,0,1.35,14.44A47.74,47.74,0,0,1,54.76,143c0,3.95.85,13.53,11.89,16,21.24,5.57,110.66,20.19,139.71,22.53,5.39,0,9.3,1.68,15.38-4.94s17.14-25.47,21.65-34.79a15.8,15.8,0,0,0,1.65-6C245,134,245,111.94,244.32,104.3Z"/>
      <path class="cls-3" d="M65.3,87.11v5l5,1a1.53,1.53,0,0,0,1-.14l2.41-1.29a1.5,1.5,0,0,1,1-.15l5.19,1a1.51,1.51,0,0,0,1.32-.37L99.94,75.33"/>
      <polyline class="cls-4" points="65.93 92.19 65.93 97.14 61.47 96.46 60.85 97.14 60.85 100.41"/>
      <polyline class="cls-4" points="66.79 98.05 65.58 100.69 65.58 103.56 67.1 103.85 67.72 103.4"/>
      <line class="cls-3" x1="65.93" y1="97.14" x2="66.06" y2="99.14"/>
      <line class="cls-3" x1="70.57" y1="94.01" x2="70.99" y2="106.66"/>
      <polyline class="cls-3" points="74.71 103.23 79.9 104.3 101.31 84.91 100.58 84.63 100.58 76.96"/>
      <polyline class="cls-3" points="101.31 84.91 101.31 87.05 79.9 106.89 77.36 106.44"/>
      <polyline class="cls-3" points="77.95 108.13 77.95 106.52 73.8 105.51 70.43 107.62 70.43 108.92"/>
      <path class="cls-3" d="M67.1,108.07v-.86l-6-1.33c-2.7-1.08-4.56-4.74-1.52-8.74"/>
      <polyline class="cls-3" points="68.79 104.3 68.79 107.57 67.72 108.07"/>
      <path class="cls-3" d="M67.1,107.21l-1.17.64c2.64,1.24,5.62,1.41,7.32,1.69a7.12,7.12,0,0,0,4.45-1.16l2.2-1.49V104.3"/>
      <path class="cls-3" d="M68.79,104.3l-1.69,1.21-6-1.44c-2.2-.84-3.36-2.71-2.66-4.93"/>
      <line class="cls-3" x1="74.18" y1="91.73" x2="74.43" y2="103.34"/>
      <line class="cls-3" x1="79.83" y1="93.19" x2="80.08" y2="103.79"/>
      <path class="cls-3" d="M62.54,92.46l-3.78,5.08c-2.73,2.73-2.59,4.9-2.59,5.8v1.92c0,2.76,3.6,5.29,6.76,6.25s8.85,1.92,8.85,1.92c3.66.56,6.17.59,8.62-1.86L94.34,99.14a4.74,4.74,0,0,1,4.16-1.27l8.34,1.71"/>
      <path class="cls-3" d="M111.85,100.07s-.67-3.44-2.82-3.44c-1.63,0-2.19,2.48-2.19,3.83"/>
      <path class="cls-3" d="M111.58,99.14a1.81,1.81,0,0,0,2.13-.59L116,95.9"/>
      <line class="cls-3" x1="119.24" y1="92.57" x2="121.66" y2="89.93"/>
      <path class="cls-3" d="M121.66,89.93s-3.49-3.56-3.89-4A2.82,2.82,0,0,0,116,84.91l-3.77-.69"/>
      <polyline class="cls-3" points="113.05 84.37 113.05 83.16 110.61 82.71 109.6 83.54 109.6 84.37 111.85 84.81 112.68 84.3"/>
      <path class="cls-3" d="M109.6,83.54l-2.76-.43-7.72,8.62A5.5,5.5,0,0,0,98,95.22l-2-.39L79.9,109.6c-1.41,1.41-4.49,2.16-7,1.86-3.55-.44-11.44-2.54-11.44-2.54-3.67-1.13-5.3-4-5.3-5.58"/>
      <line class="cls-3" x1="65.58" y1="101.23" x2="60.85" y2="100.41"/>
      <path class="cls-3" d="M71.27,108.07l1.92.29c1.24.33,2.53-.29,4.17-1.15"/>
      <path class="cls-3" d="M226.15,132.15c-2.35,1.2-4.56,1-8.46,1s-22.62-2.33-25.33-2.93-5.11-.37-8.27-.05c-30.7,1.21-62.93-6.16-79.19-13.6-4.75-1.05-8.68-3.15-11.23,1.35s-9.89,12.48-9,18.19a7.38,7.38,0,0,1-1.81,5.31"/>
      <path class="cls-3" d="M214.31,104.91c0,.55-.7,1-1.58,1s-1.57-.44-1.57-1"/>
      <path class="cls-3" d="M214.31,111.58c0,.55-.7,1-1.58,1s-1.57-.45-1.57-1"/>
      <path class="cls-3" d="M215.89,111.58c0,1.1-1.41,2-3.16,2s-3.15-.89-3.15-2"/>
      <path class="cls-3" d="M164.26,101.36c0-.66.85-1.2,1.91-1.2s1.91.54,1.91,1.2"/>
      <path class="cls-3" d="M168.08,101.36c0,.67-.86,1.21-1.91,1.21s-1.91-.54-1.91-1.21"/>
      <path class="cls-3" d="M170,102.44c0,1.33-1.7,2.41-3.81,2.41s-3.82-1.08-3.82-2.41"/>
      <path class="cls-3" d="M170,104c0,1.33-1.7,2.41-3.81,2.41s-3.82-1.08-3.82-2.41"/>
      <path class="cls-3" d="M170,105.48c0,1.33-1.7,2.41-3.81,2.41s-3.82-1.08-3.82-2.41"/>
      <path class="cls-3" d="M170,107c0,1.33-1.7,2.4-3.81,2.4s-3.82-1.07-3.82-2.4"/>
      <path class="cls-3" d="M214.31,111.58v-6.67c0-.55-.7-1-1.58-1s-1.57.45-1.57,1v6.67"/>
      <path class="cls-3" d="M214.31,109.86c.94.34,1.58,1,1.58,1.72"/>
      <path class="cls-3" d="M209.58,111.58c0-.73.63-1.38,1.57-1.72"/>
      <path class="cls-3" d="M119.58,92c0,.55-.7,1-1.58,1s-1.57-.44-1.57-1"/>
      <path class="cls-3" d="M119.58,98.64c0,.55-.7,1-1.58,1s-1.57-.45-1.57-1"/>
      <path class="cls-3" d="M121.16,98.64c0,1.1-1.41,2-3.16,2s-3.15-.89-3.15-2"/>
      <path class="cls-3" d="M119.58,98.64V92c0-.55-.7-1-1.58-1s-1.57.45-1.57,1v6.67"/>
      <path class="cls-3" d="M119.58,96.92c.94.34,1.58,1,1.58,1.72"/>
      <path class="cls-3" d="M114.85,98.64c0-.73.63-1.38,1.57-1.72"/>
      <path class="cls-3" d="M170,107v-4.56c0-1.33-1.7-2.4-3.81-2.4s-3.82,1.07-3.82,2.4V107"/>
      <ellipse class="cls-3" cx="139.07" cy="105.37" rx="2.31" ry="1.27"/>
      <ellipse class="cls-3" cx="191.31" cy="113.21" rx="2.31" ry="1.27"/>
      <ellipse class="cls-3" cx="202.91" cy="93.49" rx="2.31" ry="1.27"/>
      <ellipse class="cls-3" cx="226.65" cy="97.17" rx="2.31" ry="1.27"/>
      <ellipse class="cls-3" cx="223.84" cy="100.94" rx="2.31" ry="1.27"/>
      <ellipse class="cls-3" cx="228.48" cy="99.73" rx="2.31" ry="1.27"/>
      <ellipse class="cls-3" cx="212.56" cy="115.72" rx="2.31" ry="1.27"/>
      <path class="cls-3" d="M214.11,117a4.62,4.62,0,0,1-1.55.26c-1.53,0-2.78-.68-2.78-1.52,0-.61.64-1.13,1.57-1.38l4.23-1a5.14,5.14,0,0,1,1.21-.15c1.53,0,2.77.68,2.77,1.53,0,.52-.48,1-1.22,1.26Z"/>
      <ellipse class="cls-3" cx="124.37" cy="88.38" rx="2.31" ry="1.27"/>
      <ellipse class="cls-3" cx="117.32" cy="80.95" rx="2.31" ry="1.27"/>
      <ellipse class="cls-3" cx="107.23" cy="79.13" rx="2.31" ry="1.27"/>
      <ellipse class="cls-3" cx="111.85" cy="81.67" rx="2.31" ry="1.27"/>
      <ellipse class="cls-3" cx="109.54" cy="100.07" rx="2.31" ry="1.27"/>
      <path class="cls-3" d="M116,85.81l-7.41,8.43a1.41,1.41,0,0,1-1.26.45l-3.11-.51"/>
      <path class="cls-3" d="M101.31,98.45V93.36a.71.71,0,0,1,.15-.44l.61-.84a.75.75,0,0,1,.75-.28l1.56.35V93l-.61.74v5.1"/>
      <line class="cls-3" x1="100.52" y1="93.31" x2="98.55" y2="92.96"/>
      <polyline class="cls-3" points="100.52 80.17 104.75 80.93 104.75 83.11 103.92 83.76 100.58 83.11"/>
      <path class="cls-3" d="M104.9,81.34c2,.45,3,.26,2.18,1.77"/>
      <line class="cls-3" x1="97.78" y1="104.91" x2="97.78" y2="113.35"/>
      <path class="cls-3" d="M52.2,115.28c1.37,2.84,2.53,5.08,9.1,7.28a104.9,104.9,0,0,0,10.6,3,21,21,0,0,0,9.6,0"/>
      <path class="cls-3" d="M56.57,37.4c0,1.41.72,2,2,2.7a13.12,13.12,0,0,0,4.68,1.35,1.52,1.52,0,0,1,1.69,1.7l.74,14.2,3.89.79,2-1.18a2.08,2.08,0,0,1,1.44-.26l4.89.91a2.09,2.09,0,0,0,1.75-.47L98.33,40.72"/>
      <line class="cls-3" x1="69.53" y1="58.14" x2="68.45" y2="37.4"/>
      <line class="cls-3" x1="72.12" y1="55.54" x2="71.2" y2="37.4"/>
      <polyline class="cls-3" points="76.18 36.66 74.71 37.79 75.44 51.94 76.72 57.41"/>
      <polyline class="cls-3" points="82.88 33.06 76.72 38.13 77.45 51.83 78.79 57.57"/>
      <path class="cls-3" d="M76.18,36.66l-5-.79L68.47,37.4l-6.1-1.24c-3.33-.85-6.43-2-5.92-4.29"/>
      <polyline class="cls-3" points="93.67 21.86 95.58 22.12 96.41 39.48"/>
      <polyline class="cls-3" points="94.76 20.77 96.67 21.03 97.5 38.39 96.41 39.48"/>
      <polyline class="cls-3" points="89.72 23.77 92.77 24.26 93.22 33.96"/>
      <polyline class="cls-3" points="93.22 33.96 94.64 32.91 94.19 23.21 91.15 22.72 89.72 23.77"/>
      <polyline class="cls-3" points="86.98 26.03 90.02 26.52 90.47 36.21 91.85 35.12"/>
      <polyline class="cls-3" points="89.38 34.63 88.97 27.46 82.69 26.44 79.05 29.49"/>
      <polyline class="cls-3" points="79.05 29.49 85.44 30.67 85.89 37.56 89.38 34.63"/>
      <polyline class="cls-3" points="80.82 32.42 83.07 32.81 83.41 43.73"/>
      <polyline class="cls-3" points="83.41 43.73 84.82 42.62 84.48 31.7 82.22 31.31 80.82 32.42"/>
      <polyline class="cls-3" points="91.85 35.12 91.47 25.54 88.33 24.98 86.98 26.03"/>
      <line class="cls-3" x1="95.04" y1="20.77" x2="93.67" y2="21.86"/>
      <line class="cls-3" x1="76.72" y1="38.13" x2="74.71" y2="37.79"/>
      <ellipse class="cls-3" cx="72.57" cy="27.37" rx="2.14" ry="0.97"/>
      <ellipse class="cls-3" cx="77.26" cy="20.72" rx="2.14" ry="0.97"/>
      <ellipse class="cls-3" cx="63.9" cy="31.53" rx="2.14" ry="0.97"/>
      <ellipse class="cls-3" cx="72.65" cy="26.57" rx="7.02" ry="3.21"/>
      <polyline class="cls-3" points="82.72 28.76 86.82 29.38 87.23 34.79"/>
      <polyline class="cls-3" points="83.76 27.89 87.85 28.51 88.27 33.91"/>
      <line class="cls-3" x1="80.08" y1="91.97" x2="79.05" y2="58.14"/>
      <line class="cls-3" x1="73.88" y1="90.92" x2="72.85" y2="57.09"/>
      <line class="cls-3" x1="70.65" y1="92.35" x2="69.62" y2="58.52"/>
      <path class="cls-3" d="M65.58,87.11l2.14.43L66.65,59.21l-1.55-.38-2.73,9.52.56,15.41C62.93,86.48,63.92,87.11,65.58,87.11Z"/>
      <polygon class="cls-3" points="63.71 68.83 65.68 69.55 66.36 84.27 64.44 83.77 63.71 68.83"/>
      <polyline class="cls-3" points="191.79 90.1 191.79 92.65 190.51 94.31 188.26 93.93 188.26 89.34"/>
      <line class="cls-3" x1="190.51" y1="94.3" x2="190.51" y2="88.14"/>
      <path class="cls-3" d="M61.52,47.32l1.69,40.82c0,2.64,2.72,7.2,2.72,7.2"/>
      <path class="cls-3" d="M62.34,92a24.44,24.44,0,0,0,2.12,4.28"/>
      <path class="cls-3" d="M244,102.64c-.32-2.07-3.11-2.22-4.35-.43l-5,7.65a2.73,2.73,0,0,0-.68,3.35c.34.9,1.13,2,1.13,3.27s.73,16.18.73,17.64,1.15,1.72,1.92,1S245,123.41,245,123.41"/>
      <path class="cls-3" d="M242.5,127.59a16.37,16.37,0,0,1-.84,3.88c-.51,1.19-2.3,4-2.3,4-.87.87-2,.34-1.15-.93"/>
      <path class="cls-3" d="M245,129.39a14.43,14.43,0,0,0-1.89,2.76,7.69,7.69,0,0,0-1,3.78v3.55c0,1.46.51,1.86.79,1.86"/>
      <path class="cls-3" d="M228.9,104.24l-5.12,7.92c-.94.93-2.9.41-2.25-.58l5.12-7.91C227.12,102.84,229.41,103.45,228.9,104.24Z"/>
      <line class="cls-3" x1="218.89" y1="100.21" x2="196.98" y2="96.9"/>
      <line class="cls-3" x1="206.86" y1="115.72" x2="194.99" y2="114.08"/>
      <polyline class="cls-3" points="196.98 91.51 196.98 92.92 194.31 96.91 119.24 85.81 119.24 84.81 122.73 80.17"/>
      <polyline class="cls-3" points="196.58 91.85 193.91 95.83 119.24 84.8"/>
      <polygon class="cls-3" points="181.35 93.21 182.52 91.56 174.61 90.46 173.44 92.12 181.35 93.21"/>
      <polygon class="cls-3" points="171.12 91.77 172.28 90.12 164.38 89.03 163.21 90.69 171.12 91.77"/>
      <polygon class="cls-3" points="161.46 90.34 162.63 88.68 154.72 87.59 153.55 89.25 161.46 90.34"/>
      <polygon class="cls-3" points="151.86 88.91 153.18 87.41 145.27 86.31 143.95 87.82 151.86 88.91"/>
      <polygon class="cls-3" points="142.07 87.47 143.37 85.96 134.25 84.61 132.94 86.13 142.07 87.47"/>
      <polygon class="cls-3" points="186.03 93.96 187.2 92.31 184.08 91.93 182.91 93.59 186.03 93.96"/>
      <polyline class="cls-3" points="130.39 80.85 130.39 84.15 129.5 84.61 125.83 84.15 125.83 80.85"/>
      <line class="cls-3" x1="129.5" y1="84.61" x2="129.5" y2="80.95"/>
      <path class="cls-3" d="M55.35,99.64c-3.74,3.73-2.36,10.12.82,11.88a39.2,39.2,0,0,0,16.74,5c7.48.37,8.83-1.2,10.41-2.78s9-8.89,9-8.89c1.83-1.83,3.67-3,9-2.28s41.6,7.34,44.31,7.71,3.39.34,4.36,1.3,3.15,1.29,5,1.61l15,2c3,0,3.22.34,4.64,0a18.78,18.78,0,0,1,6.09,0s30.68,4,35.18,4,9.8-1.39,11.41-3,5.26-1,5.79,1.56.66,9.75.66,11.61a10.31,10.31,0,0,1-1.64,6.54c-3.15,5.39-6.87,12.49-9.54,15.16a11.84,11.84,0,0,1-8.26,3.75c-3.69,0-3.38-1.13-4.73-2.55-1.14-1.19-2.9-1.94-5.8-2.41-4.66-.75-16-2.89-19.69-2.89a45.53,45.53,0,0,0-9.31.94c-3.24.6-10,1.95-17.29,1.2s-41.11-6.16-47.95-8-21-6.77-23-7.67"/>
      <path class="cls-3" d="M235.41,122.16c-.92,1.8-2.54,1.2-4,1.2s-2.11.15-3.53,2.32-6.16,3.31-13,3.31c-8.61,0-37.84-4.05-37.84-4.05"/>
      <g>
        <g>
          <polygon class="cls-5" points="191.98 125.43 191.92 125.42 191.86 125.41 183.21 124.15 183.12 124.04 183.12 123.29 183.21 123.21 188.46 123.97 188.54 123.89 188.54 122.8 188.54 122.78 188.55 122.76 188.55 122.73 188.56 122.72 188.57 122.69 188.58 122.67 188.59 122.66 188.6 122.64 188.62 122.63 188.63 122.62 188.65 122.61 188.67 122.6 188.69 122.6 188.71 122.59 188.73 122.59 188.75 122.59 188.77 122.6 188.78 122.6 188.8 122.61 188.82 122.62 191.86 124.84 191.96 124.91 192.06 124.98 192.08 125 192.11 125.03 192.12 125.04 192.13 125.05 192.14 125.07 192.15 125.08 192.16 125.1 192.17 125.12 192.17 125.14 192.18 125.15 192.19 125.17 192.19 125.19 192.19 125.21 192.19 125.23 192.19 125.25 192.19 125.27 192.18 125.29 192.17 125.31 192.16 125.33 192.15 125.35 192.14 125.37 192.13 125.38 192.12 125.39 192.1 125.41 192.08 125.42 192.06 125.42 192.04 125.43 192.02 125.43 192 125.43 191.98 125.43"/>
          <polygon class="cls-5" points="202.4 125 203.57 126.88 203.51 127.03 203.07 126.97 203.01 126.92 202.05 125.3 201.9 125.33 201.9 126.7 201.82 126.78 201.47 126.73 201.39 126.62 201.39 123.17 201.47 123.08 201.82 123.14 201.9 123.25 201.9 124.45 202.05 124.53 202.95 123.34 203.01 123.31 203.41 123.37 203.47 123.54 202.4 124.88 202.4 125"/>
          <polygon class="cls-5" points="198.63 125.13 198.62 125.08 198.61 125.04 198.59 124.95 198.58 124.85 198.56 124.67 198.56 124.48 198.56 124.3 198.58 124.12 198.61 123.95 198.65 123.78 198.68 123.69 198.71 123.62 198.75 123.53 198.78 123.46 198.83 123.39 198.87 123.32 198.9 123.29 198.92 123.25 198.95 123.22 198.98 123.19 199.09 123.09 199.22 122.99 199.25 122.97 199.29 122.95 199.32 122.94 199.36 122.92 199.43 122.89 199.5 122.87 199.58 122.84 199.66 122.83 199.69 122.82 199.74 122.82 199.77 122.81 199.81 122.81 199.97 122.81 200.13 122.83 200.21 122.84 200.29 122.86 200.36 122.88 200.44 122.9 200.52 122.92 200.59 122.95 200.67 122.99 200.74 123.02 200.8 123.13 200.78 123.44 200.66 123.51 200.6 123.48 200.54 123.44 200.48 123.41 200.42 123.39 200.29 123.35 200.16 123.33 200.05 123.32 199.94 123.32 199.88 123.32 199.83 123.33 199.8 123.34 199.77 123.34 199.75 123.35 199.72 123.36 199.62 123.4 199.52 123.46 199.5 123.48 199.48 123.5 199.46 123.52 199.43 123.53 199.4 123.58 199.36 123.62 199.32 123.67 199.29 123.71 199.26 123.77 199.23 123.82 199.21 123.88 199.19 123.94 199.18 123.96 199.17 123.99 199.16 124.02 199.15 124.05 199.12 124.18 199.1 124.3 199.09 124.43 199.09 124.56 199.09 124.69 199.1 124.83 199.12 124.95 199.15 125.08 199.17 125.15 199.19 125.22 199.21 125.28 199.23 125.34 199.26 125.41 199.29 125.47 199.3 125.49 199.32 125.53 199.34 125.55 199.36 125.58 199.43 125.69 199.52 125.79 199.54 125.81 199.57 125.83 199.59 125.86 199.61 125.87 199.66 125.91 199.72 125.95 199.77 125.98 199.82 126.01 199.85 126.02 199.88 126.03 199.91 126.05 199.94 126.06 200.05 126.09 200.16 126.11 200.23 126.12 200.29 126.13 200.35 126.13 200.42 126.12 200.48 126.12 200.54 126.11 200.6 126.09 200.66 126.08 200.78 126.17 200.8 126.5 200.74 126.59 200.67 126.6 200.59 126.61 200.52 126.62 200.44 126.62 200.29 126.61 200.13 126.6 199.97 126.57 199.81 126.52 199.74 126.5 199.66 126.46 199.62 126.44 199.58 126.42 199.54 126.4 199.5 126.38 199.36 126.29 199.22 126.17 199.19 126.14 199.16 126.11 199.12 126.08 199.09 126.04 199.04 125.97 198.98 125.9 198.93 125.83 198.88 125.75 198.85 125.7 198.83 125.66 198.81 125.62 198.78 125.58 198.71 125.4 198.66 125.23 198.64 125.18 198.63 125.13"/>
          <polygon class="cls-5" points="194 122 194.08 122.11 194.08 125.07 194.17 125.18 195.15 125.32 195.23 125.43 195.23 125.73 195.15 125.81 193.9 125.63 193.83 125.62 193.77 125.61 193.71 125.6 193.65 125.59 193.65 125.59 193.64 125.59 193.63 125.58 193.62 125.58 193.62 125.57 193.61 125.57 193.6 125.56 193.59 125.56 193.58 125.54 193.58 125.52 193.57 125.5 193.57 125.48 193.57 123.75 193.57 122.03 193.57 122.02 193.57 122.01 193.57 122 193.58 121.99 193.58 121.99 193.58 121.98 193.59 121.97 193.59 121.97 193.61 121.96 193.62 121.95 193.64 121.95 193.65 121.95 193.71 121.95 193.77 121.96 193.83 121.97 193.9 121.98 194 122"/>
        </g>
        <path class="cls-5" d="M197.6,124.46V124l0-.12v-.12l0-.11v-.06l0-.06,0-.06,0,0,0-.06,0,0,0-.06,0,0-.06-.09-.08-.09-.09-.08-.09-.05h0l0,0h-.05l0,0h-.33l0,0-.05,0,0,0,0,0h0l0,0,0,0,0,0,0,0,0,0,0,0,0,0,0,0,0,0,0,0v.06l0,.05,0,.11,0,.11v.94l0,.12,0,.11,0,.06v.06l0,.06,0,0,0,.06,0,0,0,.06,0,0,0,0,0,.05,0,0,0,0,0,0,.05,0h0l0,0h0l0,0,0,0h.05l.06,0h.34l0,0,0,0h0l0,0,0,0,0,0,0,0,0,0,0,0,0,0,0,0,0,0,0-.06,0,0v0l0-.11v-.11l0-.12v-.23Zm.47.63,0,.08,0,.08v0l0,0v.08l-.06.14-.08.14,0,0,0,0,0,0,0,0-.05,0-.05.05-.06,0-.06,0,0,0,0,0h0l0,0-.14,0-.14,0h-.29l-.16,0-.14,0-.07,0-.07,0-.07,0-.07,0-.13-.1-.11-.12-.11-.14-.1-.15,0-.07,0-.08,0-.08,0-.09-.06-.16,0-.17v-.18l0-.08v-.77l0-.17,0-.16,0-.08,0-.07v0l0,0v-.08l.07-.14.07-.14,0,0,0,0,0,0,0,0,.05,0,.05,0,.06,0,.06,0,0,0,0,0h0l0,0,.14,0,.14,0h.3l.14,0,.15,0,.07,0,.07,0,.07,0,.07,0,.13.1.12.12.1.14.09.15,0,.08,0,.07,0,.09,0,.08.05.16,0,.17v.09l0,.09v.85l0,.16Z"/>
      </g>
      <polyline class="cls-3" points="143.43 114.9 143.43 120.37 152.16 121.65"/>
      <path class="cls-6" d="M181.32,125.51v-5c-3.39-.9-5.49-.45-7.37-.45a37.45,37.45,0,0,1-6.2-.11c-3.72-.57-13.34-1.62-14.92-2.07s-2.22-1.68-4.34-2.15-5.06-.82-5.06-.82"/>
      <line class="cls-3" x1="221.97" y1="135.5" x2="214.87" y2="143.87"/>
      <path class="cls-3" d="M223.84,149.6c-1.93,1.93-6.53.51-8.74-2.27s-5.43-3.37-8.24-3.83c-4.54-.75-17.84-2-21.11-2s-10.82,1.05-16.35,1.05c-9.8,0-48.33-5.67-56.25-7.59-4-.75-14.2-4.88-16.83-5.94s-5.11-1.75-7.67-2.7"/>
      <path class="cls-3" d="M53,128.34c1.54,5.84,3.68,8.51,6.38,10s15,4.36,18.57,3.79"/>
      <line class="cls-3" x1="134.25" y1="84.61" x2="134.25" y2="86.04"/>
      <line class="cls-3" x1="145.27" y1="86.31" x2="145.27" y2="87.74"/>
      <line class="cls-3" x1="154.73" y1="87.59" x2="154.73" y2="89.02"/>
      <line class="cls-3" x1="164.38" y1="89.03" x2="164.38" y2="90.46"/>
      <line class="cls-3" x1="174.61" y1="90.46" x2="174.61" y2="91.89"/>
      <line class="cls-3" x1="184.08" y1="91.93" x2="184.08" y2="93.36"/>
      <path class="cls-3" d="M220.39,156.5c0,8.11-1.5,20.44-6.91,22.09"/>
      <path class="cls-3" d="M146.35,115.31c.92.93,2,1.06,4.68,1.93a9.8,9.8,0,0,1,3.72,2.57c1.13,1.12,1.5,1.07,1.5,1.07l4.3.84c3.22-1,9.19-.94,11.56.44l4.92-.94,1-1"/>
      <path class="cls-6" d="M179.1,120.06v3.11L177,124.63l-4.92.94c-2.37-1.37-8.34-1.39-11.56-.43l-4.3-.84s-.37,0-1.5-1.07-2.3-2.38-3.72-2.57a9.59,9.59,0,0,1-6.17-3.42v-2"/>
      <g class="cls-7">
        <ellipse class="cls-3" cx="105.24" cy="149.2" rx="1.17" ry="1.38" transform="translate(-76.76 134.61) rotate(-50.22)"/>
        <ellipse class="cls-3" cx="109.21" cy="149.3" rx="1.17" ry="1.38" transform="translate(-75.41 137.7) rotate(-50.22)"/>
        <ellipse class="cls-3" cx="107.31" cy="152.17" rx="1.17" ry="1.38" transform="translate(-78.29 137.27) rotate(-50.22)"/>
        <ellipse class="cls-3" cx="105.44" cy="154.83" rx="1.17" ry="1.38" transform="translate(-81.01 136.79) rotate(-50.22)"/>
        <ellipse class="cls-3" cx="107.41" cy="157.58" rx="1.17" ry="1.38" transform="translate(-82.42 139.3) rotate(-50.22)"/>
        <ellipse class="cls-3" cx="112.77" cy="149.61" rx="1.17" ry="1.38" transform="translate(-74.36 140.54) rotate(-50.22)"/>
        <ellipse class="cls-3" cx="110.87" cy="152.47" rx="1.17" ry="1.38" transform="translate(-77.24 140.11) rotate(-50.22)"/>
        <ellipse class="cls-3" cx="109" cy="155.13" rx="1.17" ry="1.38" transform="translate(-79.96 139.63) rotate(-50.22)"/>
        <ellipse class="cls-3" cx="110.97" cy="157.88" rx="1.17" ry="1.38" transform="translate(-81.37 142.14) rotate(-50.22)"/>
        <ellipse class="cls-3" cx="116.55" cy="150.09" rx="1.17" ry="1.38" transform="translate(-73.37 143.62) rotate(-50.22)"/>
        <ellipse class="cls-3" cx="114.65" cy="152.96" rx="1.17" ry="1.38" transform="translate(-76.26 143.19) rotate(-50.22)"/>
        <ellipse class="cls-3" cx="112.78" cy="155.61" rx="1.17" ry="1.38" transform="translate(-78.97 142.71) rotate(-50.22)"/>
        <ellipse class="cls-3" cx="114.75" cy="158.37" rx="1.17" ry="1.38" transform="translate(-80.38 145.22) rotate(-50.22)"/>
        <ellipse class="cls-3" cx="120.27" cy="150.6" rx="1.17" ry="1.38" transform="translate(-72.42 146.66) rotate(-50.22)"/>
        <ellipse class="cls-3" cx="118.37" cy="153.46" rx="1.17" ry="1.38" transform="translate(-75.31 146.23) rotate(-50.22)"/>
        <ellipse class="cls-3" cx="116.5" cy="156.12" rx="1.17" ry="1.38" transform="translate(-78.02 145.75) rotate(-50.22)"/>
        <ellipse class="cls-3" cx="118.47" cy="158.88" rx="1.17" ry="1.38" transform="translate(-79.43 148.26) rotate(-50.22)"/>
        <ellipse class="cls-3" cx="123.82" cy="150.99" rx="1.17" ry="1.38" transform="translate(-71.45 149.53) rotate(-50.22)"/>
        <ellipse class="cls-3" cx="121.92" cy="153.86" rx="1.17" ry="1.38" transform="translate(-74.33 149.1) rotate(-50.22)"/>
        <ellipse class="cls-3" cx="120.05" cy="156.51" rx="1.17" ry="1.38" transform="translate(-77.05 148.62) rotate(-50.22)"/>
        <ellipse class="cls-3" cx="122.02" cy="159.27" rx="1.17" ry="1.38" transform="translate(-78.45 151.13) rotate(-50.22)"/>
        <ellipse class="cls-3" cx="127.43" cy="151.53" rx="1.17" ry="1.38" transform="translate(-70.56 152.5) rotate(-50.22)"/>
        <ellipse class="cls-3" cx="125.53" cy="154.4" rx="1.17" ry="1.38" transform="translate(-73.45 152.07) rotate(-50.22)"/>
        <ellipse class="cls-3" cx="123.66" cy="157.06" rx="1.17" ry="1.38" transform="translate(-76.16 151.59) rotate(-50.22)"/>
        <ellipse class="cls-3" cx="125.63" cy="159.81" rx="1.17" ry="1.38" transform="translate(-77.57 154.1) rotate(-50.22)"/>
        <ellipse class="cls-3" cx="130.94" cy="152.04" rx="1.17" ry="1.38" transform="translate(-69.68 155.38) rotate(-50.22)"/>
        <ellipse class="cls-3" cx="129.04" cy="154.9" rx="1.17" ry="1.38" transform="translate(-72.57 154.95) rotate(-50.22)"/>
        <ellipse class="cls-3" cx="127.17" cy="157.56" rx="1.17" ry="1.38" transform="translate(-75.28 154.47) rotate(-50.22)"/>
        <ellipse class="cls-3" cx="129.14" cy="160.32" rx="1.17" ry="1.38" transform="translate(-76.69 156.98) rotate(-50.22)"/>
        <ellipse class="cls-3" cx="134.3" cy="152.6" rx="1.17" ry="1.38" transform="translate(-68.91 158.16) rotate(-50.22)"/>
        <ellipse class="cls-3" cx="132.4" cy="155.3" rx="1.17" ry="1.38" transform="translate(-71.67 157.68) rotate(-50.22)"/>
        <ellipse class="cls-3" cx="130.53" cy="157.96" rx="1.17" ry="1.38" transform="translate(-74.38 157.2) rotate(-50.22)"/>
        <ellipse class="cls-3" cx="132.5" cy="160.72" rx="1.17" ry="1.38" transform="translate(-75.79 159.7) rotate(-50.22)"/>
        <ellipse class="cls-3" cx="137.93" cy="152.97" rx="1.17" ry="1.38" transform="translate(-67.88 161.09) rotate(-50.22)"/>
        <ellipse class="cls-3" cx="136.03" cy="155.84" rx="1.17" ry="1.38" transform="translate(-70.77 160.66) rotate(-50.22)"/>
        <ellipse class="cls-3" cx="134.16" cy="158.49" rx="1.17" ry="1.38" transform="translate(-73.48 160.18) rotate(-50.22)"/>
        <ellipse class="cls-3" cx="136.14" cy="161.25" rx="1.17" ry="1.38" transform="translate(-74.89 162.69) rotate(-50.22)"/>
        <ellipse class="cls-3" cx="141.52" cy="153.87" rx="1.17" ry="1.38" transform="translate(-67.28 164.17) rotate(-50.22)"/>
        <ellipse class="cls-3" cx="144.84" cy="154.42" rx="1.17" ry="1.38" transform="translate(-66.51 166.92) rotate(-50.22)"/>
        <ellipse class="cls-3" cx="148.39" cy="155.16" rx="1.17" ry="1.38" transform="translate(-65.8 169.91) rotate(-50.22)"/>
        <ellipse class="cls-3" cx="151.81" cy="155.58" rx="1.17" ry="1.38" transform="translate(-64.89 172.69) rotate(-50.22)"/>
        <ellipse class="cls-3" cx="155.27" cy="156.31" rx="1.17" ry="1.38" transform="translate(-64.2 175.62) rotate(-50.22)"/>
        <ellipse class="cls-3" cx="159.1" cy="157.16" rx="1.17" ry="1.38" transform="translate(-63.48 178.86) rotate(-50.22)"/>
        <ellipse class="cls-3" cx="162.53" cy="157.64" rx="1.17" ry="1.38" transform="translate(-62.61 181.68) rotate(-50.22)"/>
        <ellipse class="cls-3" cx="165.95" cy="158.45" rx="1.17" ry="1.38" transform="translate(-62 184.59) rotate(-50.22)"/>
        <ellipse class="cls-3" cx="139.46" cy="156.34" rx="1.17" ry="1.38" transform="translate(-69.92 163.48) rotate(-50.22)"/>
        <ellipse class="cls-3" cx="143.02" cy="157.11" rx="1.17" ry="1.38" transform="translate(-50.35 69.1) rotate(-23.22)"/>
        <ellipse class="cls-3" cx="146.56" cy="157.78" rx="1.17" ry="1.38" transform="matrix(0.87, -0.5, 0.5, 0.87, -59.26, 94.42)"/>
        <ellipse class="cls-3" cx="150.12" cy="158.38" rx="1.17" ry="1.38" transform="matrix(0.87, -0.5, 0.5, 0.87, -59.08, 96.28)"/>
        <ellipse class="cls-3" cx="153.6" cy="158.95" rx="1.17" ry="1.38" transform="matrix(0.87, -0.5, 0.5, 0.87, -58.9, 98.09)"/>
        <ellipse class="cls-3" cx="157.14" cy="159.58" rx="1.17" ry="1.38" transform="translate(-58.74 99.95) rotate(-30)"/>
        <ellipse class="cls-3" cx="160.82" cy="160.19" rx="1.17" ry="1.38" transform="translate(-58.55 101.87) rotate(-30)"/>
        <ellipse class="cls-3" cx="164.18" cy="161.01" rx="1.17" ry="1.38" transform="translate(-58.51 103.66) rotate(-30)"/>
        <ellipse class="cls-3" cx="137.59" cy="159" rx="1.17" ry="1.38" transform="translate(-72.64 163) rotate(-50.22)"/>
        <ellipse class="cls-3" cx="141.26" cy="159.54" rx="1.17" ry="1.38" transform="translate(-71.73 166.01) rotate(-50.22)"/>
        <ellipse class="cls-3" cx="144.77" cy="160.28" rx="1.17" ry="1.38" transform="translate(-71.03 168.98) rotate(-50.22)"/>
        <ellipse class="cls-3" cx="148.52" cy="160.87" rx="1.17" ry="1.38" transform="translate(-70.14 172.07) rotate(-50.22)"/>
        <ellipse class="cls-3" cx="151.87" cy="161.51" rx="1.17" ry="1.38" transform="translate(-69.42 174.87) rotate(-50.22)"/>
        <ellipse class="cls-3" cx="155.35" cy="161.98" rx="1.17" ry="1.38" transform="translate(-68.53 177.72) rotate(-50.22)"/>
        <ellipse class="cls-3" cx="158.95" cy="162.62" rx="1.17" ry="1.38" transform="translate(-67.73 180.72) rotate(-50.22)"/>
        <ellipse class="cls-3" cx="162.47" cy="163.41" rx="1.17" ry="1.38" transform="translate(-67.07 183.7) rotate(-50.22)"/>
        <ellipse class="cls-3" cx="165.93" cy="164.23" rx="1.17" ry="1.38" transform="translate(-66.45 186.66) rotate(-50.22)"/>
        <ellipse class="cls-3" cx="139.62" cy="162.08" rx="1.17" ry="1.38" transform="translate(-74.28 165.67) rotate(-50.22)"/>
        <ellipse class="cls-3" cx="143.28" cy="162.64" rx="1.17" ry="1.38" transform="translate(-73.39 168.68) rotate(-50.22)"/>
        <ellipse class="cls-3" cx="146.9" cy="163.34" rx="1.17" ry="1.38" transform="translate(-72.62 171.71) rotate(-50.22)"/>
        <ellipse class="cls-3" cx="150.3" cy="163.98" rx="1.17" ry="1.38" transform="translate(-71.89 174.56) rotate(-50.22)"/>
        <ellipse class="cls-3" cx="153.77" cy="164.61" rx="1.17" ry="1.38" transform="translate(-71.12 177.45) rotate(-50.22)"/>
        <ellipse class="cls-3" cx="157.42" cy="165.23" rx="1.17" ry="1.38" transform="translate(-70.28 180.48) rotate(-50.22)"/>
        <ellipse class="cls-3" cx="160.9" cy="165.76" rx="1.17" ry="1.38" transform="translate(-69.44 183.34) rotate(-50.22)"/>
        <ellipse class="cls-3" cx="164.3" cy="166.67" rx="1.17" ry="1.38" transform="translate(-68.91 186.29) rotate(-50.22)"/>
      </g>
      <path class="cls-3" d="M98.12,147.48c11.65,0,64,8.89,74.1,11.4"/>
      <path class="cls-3" d="M99.33,159c7.81,3,61.32,11.48,71.24,12"/>
      <line class="cls-3" x1="172.11" y1="122.16" x2="172.11" y2="125.57"/>
      <line class="cls-3" x1="160.55" y1="121.72" x2="160.55" y2="125.14"/>
      <line class="cls-3" x1="155.85" y1="120.72" x2="155.85" y2="124.14"/>
      <line class="cls-3" x1="147.79" y1="116.23" x2="147.79" y2="119.65"/>
    </g>
  </g>
  <g id="ya_Line" data-name="ya Line">
    <polyline class="cls-8" points="38.74 11.15 157.96 11.15 157.96 88.3"/>
    <line class="cls-8" x1="135.28" y1="156.74" x2="38.74" y2="156.74"/>
    <polyline class="cls-9" points="38.74 11.15 157.96 11.15 157.96 88.3"/>
    <line class="cls-9" x1="135.28" y1="156.74" x2="38.74" y2="156.74"/>
  </g>
  <g id="Text">
    <text class="cls-10" transform="translate(14.57 14.98)">(1)</text>
    <text class="cls-10" transform="translate(16.33 159.84)">(2)</text>
  </g>
</svg>
